<svg xmlns="http://www.w3.org/2000/svg" xmlns:xlink="http://www.w3.org/1999/xlink" contentStyleType="text/css" height="907px" preserveAspectRatio="none" style="width:1610px;height:907px;background:#FFFFFF;" version="1.1" viewBox="0 0 1610 907" width="1610px" zoomAndPan="magnify"><title>Sequence Diagram</title><defs/><g><text fill="#000000" font-family="sans-serif" font-size="14" font-weight="bold" lengthAdjust="spacing" textLength="126.0479" x="743.2024" y="30.1074">Sequence Diagram</text><rect fill="#FFFFFF" height="673.1406" style="stroke:#181818;stroke-width:1.0;" width="10" x="59.0171" y="133.2422"/><rect fill="#FFFFFF" height="343.8613" style="stroke:#181818;stroke-width:1.0;" width="10" x="298.9668" y="156.5332"/><rect fill="#FFFFFF" height="274.6973" style="stroke:#181818;stroke-width:1.0;" width="10" x="298.9668" y="531.6855"/><rect fill="#FFFFFF" height="219.0371" style="stroke:#181818;stroke-width:1.0;" width="10" x="530.2983" y="250.0664"/><rect fill="#FFFFFF" height="212.1152" style="stroke:#181818;stroke-width:1.0;" width="10" x="530.2983" y="562.9766"/><rect fill="#FFFFFF" height="156.4551" style="stroke:#181818;stroke-width:1.0;" width="10" x="1042.6367" y="281.3574"/><rect fill="#FFFFFF" height="104.582" style="stroke:#181818;stroke-width:1.0;" width="10" x="1042.6367" y="656.5098"/><rect fill="#FFFFFF" height="59.291" style="stroke:#181818;stroke-width:1.0;" width="10" x="1221.1118" y="687.8008"/><rect fill="#FFFFFF" height="93.873" style="stroke:#181818;stroke-width:1.0;" width="10" x="1368.8457" y="312.6484"/><rect fill="#FFFFFF" height="14" style="stroke:#181818;stroke-width:1.0;" width="10" x="1368.8457" y="719.0918"/><rect fill="#FFFFFF" height="31.291" style="stroke:#181818;stroke-width:1.0;" width="10" x="1570.4873" y="343.9395"/><line style="stroke:#181818;stroke-width:0.5;stroke-dasharray:5.0,5.0;" x1="64" x2="64" y1="123.2422" y2="824.3828"/><line style="stroke:#181818;stroke-width:0.5;stroke-dasharray:5.0,5.0;" x1="302.9912" x2="302.9912" y1="123.2422" y2="824.3828"/><line style="stroke:#181818;stroke-width:0.5;stroke-dasharray:5.0,5.0;" x1="534.978" x2="534.978" y1="205.6543" y2="824.3828"/><line style="stroke:#181818;stroke-width:0.5;stroke-dasharray:5.0,5.0;" x1="849.8999" x2="849.8999" y1="612.0977" y2="824.3828"/><line style="stroke:#181818;stroke-width:0.5;stroke-dasharray:5.0,5.0;" x1="1047.2993" x2="1047.2993" y1="123.2422" y2="824.3828"/><line style="stroke:#181818;stroke-width:0.5;stroke-dasharray:5.0,5.0;" x1="1225.9741" x2="1225.9741" y1="123.2422" y2="824.3828"/><line style="stroke:#181818;stroke-width:0.5;stroke-dasharray:5.0,5.0;" x1="1373.2495" x2="1373.2495" y1="123.2422" y2="824.3828"/><line style="stroke:#181818;stroke-width:0.5;stroke-dasharray:5.0,5.0;" x1="1574.522" x2="1574.522" y1="123.2422" y2="824.3828"/><text fill="#000000" font-family="sans-serif" font-size="14" lengthAdjust="spacing" textLength="112.0342" x="5" y="119.7285">CRM Collaborator</text><ellipse cx="64.0171" cy="53.1211" fill="#E2E2F0" rx="8" ry="8" style="stroke:#181818;stroke-width:0.5;"/><path d="M64.0171,61.1211 L64.0171,88.1211 M51.0171,69.1211 L77.0171,69.1211 M64.0171,88.1211 L51.0171,103.1211 M64.0171,88.1211 L77.0171,103.1211 " fill="none" style="stroke:#181818;stroke-width:0.5;"/><text fill="#000000" font-family="sans-serif" font-size="14" lengthAdjust="spacing" textLength="112.0342" x="5" y="838.4902">CRM Collaborator</text><ellipse cx="64.0171" cy="850.5039" fill="#E2E2F0" rx="8" ry="8" style="stroke:#181818;stroke-width:0.5;"/><path d="M64.0171,858.5039 L64.0171,885.5039 M51.0171,866.5039 L77.0171,866.5039 M64.0171,885.5039 L51.0171,900.5039 M64.0171,885.5039 L77.0171,900.5039 " fill="none" style="stroke:#181818;stroke-width:0.5;"/><rect fill="#E2E2F0" height="51.2422" rx="2.5" ry="2.5" style="stroke:#181818;stroke-width:0.5;" width="115.9512" x="245.9912" y="71"/><text fill="#000000" font-family="sans-serif" font-size="14" font-style="italic" lengthAdjust="spacing" textLength="92.627" x="257.6533" y="93.1074">&#171;presentation&#187;</text><text fill="#000000" font-family="sans-serif" font-size="14" lengthAdjust="spacing" textLength="101.9512" x="252.9912" y="111.7285">SendProposalUI</text><rect fill="#E2E2F0" height="51.2422" rx="2.5" ry="2.5" style="stroke:#181818;stroke-width:0.5;" width="115.9512" x="245.9912" y="823.3828"/><text fill="#000000" font-family="sans-serif" font-size="14" font-style="italic" lengthAdjust="spacing" textLength="92.627" x="257.6533" y="845.4902">&#171;presentation&#187;</text><text fill="#000000" font-family="sans-serif" font-size="14" lengthAdjust="spacing" textLength="101.9512" x="252.9912" y="864.1113">SendProposalUI</text><rect fill="#E2E2F0" height="51.2422" rx="2.5" ry="2.5" style="stroke:#181818;stroke-width:0.5;" width="162.6406" x="453.978" y="823.3828"/><text fill="#000000" font-family="sans-serif" font-size="14" font-style="italic" lengthAdjust="spacing" textLength="82.5098" x="494.0435" y="845.4902">&#171;application&#187;</text><text fill="#000000" font-family="sans-serif" font-size="14" lengthAdjust="spacing" textLength="148.6406" x="460.978" y="864.1113">SendProposalController</text><rect fill="#E2E2F0" height="51.2422" rx="2.5" ry="2.5" style="stroke:#181818;stroke-width:0.5;" width="142.3994" x="778.8999" y="823.3828"/><text fill="#000000" font-family="sans-serif" font-size="14" font-style="italic" lengthAdjust="spacing" textLength="42.8203" x="828.6895" y="845.4902">&#171;auth&#187;</text><text fill="#000000" font-family="sans-serif" font-size="14" lengthAdjust="spacing" textLength="128.3994" x="785.8999" y="864.1113">AuthorizationService</text><rect fill="#E2E2F0" height="51.2422" rx="2.5" ry="2.5" style="stroke:#181818;stroke-width:0.5;" width="232.6748" x="931.2993" y="71"/><text fill="#000000" font-family="sans-serif" font-size="14" font-style="italic" lengthAdjust="spacing" textLength="82.5098" x="1006.3818" y="93.1074">&#171;application&#187;</text><text fill="#000000" font-family="sans-serif" font-size="14" lengthAdjust="spacing" textLength="218.6748" x="938.2993" y="111.7285">ShowProposalManagementService</text><rect fill="#E2E2F0" height="51.2422" rx="2.5" ry="2.5" style="stroke:#181818;stroke-width:0.5;" width="232.6748" x="931.2993" y="823.3828"/><text fill="#000000" font-family="sans-serif" font-size="14" font-style="italic" lengthAdjust="spacing" textLength="82.5098" x="1006.3818" y="845.4902">&#171;application&#187;</text><text fill="#000000" font-family="sans-serif" font-size="14" lengthAdjust="spacing" textLength="218.6748" x="938.2993" y="864.1113">ShowProposalManagementService</text><rect fill="#E2E2F0" height="51.2422" rx="2.5" ry="2.5" style="stroke:#181818;stroke-width:0.5;" width="104.2754" x="1173.9741" y="71"/><text fill="#000000" font-family="sans-serif" font-size="14" font-style="italic" lengthAdjust="spacing" textLength="61.4893" x="1195.3672" y="93.1074">&#171;domain&#187;</text><text fill="#000000" font-family="sans-serif" font-size="14" lengthAdjust="spacing" textLength="90.2754" x="1180.9741" y="111.7285">ShowProposal</text><rect fill="#E2E2F0" height="51.2422" rx="2.5" ry="2.5" style="stroke:#181818;stroke-width:0.5;" width="104.2754" x="1173.9741" y="823.3828"/><text fill="#000000" font-family="sans-serif" font-size="14" font-style="italic" lengthAdjust="spacing" textLength="61.4893" x="1195.3672" y="845.4902">&#171;domain&#187;</text><text fill="#000000" font-family="sans-serif" font-size="14" lengthAdjust="spacing" textLength="90.2754" x="1180.9741" y="864.1113">ShowProposal</text><rect fill="#E2E2F0" height="51.2422" rx="2.5" ry="2.5" style="stroke:#181818;stroke-width:0.5;" width="171.1924" x="1288.2495" y="71"/><text fill="#000000" font-family="sans-serif" font-size="14" font-style="italic" lengthAdjust="spacing" textLength="77.041" x="1335.3252" y="93.1074">&#171;repository&#187;</text><text fill="#000000" font-family="sans-serif" font-size="14" lengthAdjust="spacing" textLength="157.1924" x="1295.2495" y="111.7285">ShowProposalRepository</text><rect fill="#E2E2F0" height="51.2422" rx="2.5" ry="2.5" style="stroke:#181818;stroke-width:0.5;" width="171.1924" x="1288.2495" y="823.3828"/><text fill="#000000" font-family="sans-serif" font-size="14" font-style="italic" lengthAdjust="spacing" textLength="77.041" x="1335.3252" y="845.4902">&#171;repository&#187;</text><text fill="#000000" font-family="sans-serif" font-size="14" lengthAdjust="spacing" textLength="157.1924" x="1295.2495" y="864.1113">ShowProposalRepository</text><text fill="#000000" font-family="sans-serif" font-size="14" lengthAdjust="spacing" textLength="59.9307" x="1542.522" y="119.7285">Database</text><path d="M1557.4873,68.6211 C1557.4873,58.6211 1575.4873,58.6211 1575.4873,58.6211 C1575.4873,58.6211 1593.4873,58.6211 1593.4873,68.6211 L1593.4873,94.6211 C1593.4873,104.6211 1575.4873,104.6211 1575.4873,104.6211 C1575.4873,104.6211 1557.4873,104.6211 1557.4873,94.6211 L1557.4873,68.6211 " fill="#E2E2F0" style="stroke:#181818;stroke-width:1.5;"/><path d="M1557.4873,68.6211 C1557.4873,78.6211 1575.4873,78.6211 1575.4873,78.6211 C1575.4873,78.6211 1593.4873,78.6211 1593.4873,68.6211 " fill="none" style="stroke:#181818;stroke-width:1.5;"/><text fill="#000000" font-family="sans-serif" font-size="14" lengthAdjust="spacing" textLength="59.9307" x="1542.522" y="838.4902">Database</text><path d="M1557.4873,852.0039 C1557.4873,842.0039 1575.4873,842.0039 1575.4873,842.0039 C1575.4873,842.0039 1593.4873,842.0039 1593.4873,852.0039 L1593.4873,878.0039 C1593.4873,888.0039 1575.4873,888.0039 1575.4873,888.0039 C1575.4873,888.0039 1557.4873,888.0039 1557.4873,878.0039 L1557.4873,852.0039 " fill="#E2E2F0" style="stroke:#181818;stroke-width:1.5;"/><path d="M1557.4873,852.0039 C1557.4873,862.0039 1575.4873,862.0039 1575.4873,862.0039 C1575.4873,862.0039 1593.4873,862.0039 1593.4873,852.0039 " fill="none" style="stroke:#181818;stroke-width:1.5;"/><rect fill="#FFFFFF" height="673.1406" style="stroke:#181818;stroke-width:1.0;" width="10" x="59.0171" y="133.2422"/><rect fill="#FFFFFF" height="343.8613" style="stroke:#181818;stroke-width:1.0;" width="10" x="298.9668" y="156.5332"/><rect fill="#FFFFFF" height="274.6973" style="stroke:#181818;stroke-width:1.0;" width="10" x="298.9668" y="531.6855"/><rect fill="#FFFFFF" height="219.0371" style="stroke:#181818;stroke-width:1.0;" width="10" x="530.2983" y="250.0664"/><rect fill="#FFFFFF" height="212.1152" style="stroke:#181818;stroke-width:1.0;" width="10" x="530.2983" y="562.9766"/><rect fill="#FFFFFF" height="156.4551" style="stroke:#181818;stroke-width:1.0;" width="10" x="1042.6367" y="281.3574"/><rect fill="#FFFFFF" height="104.582" style="stroke:#181818;stroke-width:1.0;" width="10" x="1042.6367" y="656.5098"/><rect fill="#FFFFFF" height="59.291" style="stroke:#181818;stroke-width:1.0;" width="10" x="1221.1118" y="687.8008"/><rect fill="#FFFFFF" height="93.873" style="stroke:#181818;stroke-width:1.0;" width="10" x="1368.8457" y="312.6484"/><rect fill="#FFFFFF" height="14" style="stroke:#181818;stroke-width:1.0;" width="10" x="1368.8457" y="719.0918"/><rect fill="#FFFFFF" height="31.291" style="stroke:#181818;stroke-width:1.0;" width="10" x="1570.4873" y="343.9395"/><polygon fill="#181818" points="286.9668,152.5332,296.9668,156.5332,286.9668,160.5332,290.9668,156.5332" style="stroke:#181818;stroke-width:1.0;"/><line style="stroke:#181818;stroke-width:1.0;" x1="69.0171" x2="292.9668" y1="156.5332" y2="156.5332"/><text fill="#000000" font-family="sans-serif" font-size="13" lengthAdjust="spacing" textLength="39.0063" x="76.0171" y="151.2705">show()</text><polygon fill="#181818" points="441.978,183.8242,451.978,187.8242,441.978,191.8242,445.978,187.8242" style="stroke:#181818;stroke-width:1.0;"/><line style="stroke:#181818;stroke-width:1.0;" x1="308.9668" x2="447.978" y1="187.8242" y2="187.8242"/><text fill="#000000" font-family="sans-serif" font-size="13" lengthAdjust="spacing" textLength="44.7891" x="315.9668" y="182.5615">create()</text><rect fill="#E2E2F0" height="51.2422" rx="2.5" ry="2.5" style="stroke:#181818;stroke-width:0.5;" width="162.6406" x="453.978" y="164.5332"/><text fill="#000000" font-family="sans-serif" font-size="14" font-style="italic" lengthAdjust="spacing" textLength="82.5098" x="494.0435" y="186.6406">&#171;application&#187;</text><text fill="#000000" font-family="sans-serif" font-size="14" lengthAdjust="spacing" textLength="148.6406" x="460.978" y="205.2617">SendProposalController</text><polygon fill="#181818" points="518.2983,246.0664,528.2983,250.0664,518.2983,254.0664,522.2983,250.0664" style="stroke:#181818;stroke-width:1.0;"/><line style="stroke:#181818;stroke-width:1.0;" x1="308.9668" x2="524.2983" y1="250.0664" y2="250.0664"/><text fill="#000000" font-family="sans-serif" font-size="13" lengthAdjust="spacing" textLength="154.6226" x="315.9668" y="244.8037">getAllCompleteProposals()</text><polygon fill="#181818" points="1030.6367,277.3574,1040.6367,281.3574,1030.6367,285.3574,1034.6367,281.3574" style="stroke:#181818;stroke-width:1.0;"/><line style="stroke:#181818;stroke-width:1.0;" x1="540.2983" x2="1036.6367" y1="281.3574" y2="281.3574"/><text fill="#000000" font-family="sans-serif" font-size="13" lengthAdjust="spacing" textLength="154.6226" x="547.2983" y="276.0947">getAllCompleteProposals()</text><polygon fill="#181818" points="1356.8457,308.6484,1366.8457,312.6484,1356.8457,316.6484,1360.8457,312.6484" style="stroke:#181818;stroke-width:1.0;"/><line style="stroke:#181818;stroke-width:1.0;" x1="1052.6367" x2="1362.8457" y1="312.6484" y2="312.6484"/><text fill="#000000" font-family="sans-serif" font-size="13" lengthAdjust="spacing" textLength="154.6226" x="1059.6367" y="307.3857">getAllCompleteProposals()</text><polygon fill="#181818" points="1558.4873,339.9395,1568.4873,343.9395,1558.4873,347.9395,1562.4873,343.9395" style="stroke:#181818;stroke-width:1.0;"/><line style="stroke:#181818;stroke-width:1.0;" x1="1378.8457" x2="1564.4873" y1="343.9395" y2="343.9395"/><text fill="#000000" font-family="sans-serif" font-size="13" lengthAdjust="spacing" textLength="154.6226" x="1385.8457" y="338.6768">getAllCompleteProposals()</text><polygon fill="#181818" points="1389.8457,371.2305,1379.8457,375.2305,1389.8457,379.2305,1385.8457,375.2305" style="stroke:#181818;stroke-width:1.0;"/><line style="stroke:#181818;stroke-width:1.0;stroke-dasharray:2.0,2.0;" x1="1383.8457" x2="1574.4873" y1="375.2305" y2="375.2305"/><text fill="#000000" font-family="sans-serif" font-size="13" lengthAdjust="spacing" textLength="167.6416" x="1395.8457" y="369.9678">List of all complete proposals</text><polygon fill="#181818" points="1063.6367,402.5215,1053.6367,406.5215,1063.6367,410.5215,1059.6367,406.5215" style="stroke:#181818;stroke-width:1.0;"/><line style="stroke:#181818;stroke-width:1.0;stroke-dasharray:2.0,2.0;" x1="1057.6367" x2="1372.8457" y1="406.5215" y2="406.5215"/><text fill="#000000" font-family="sans-serif" font-size="13" lengthAdjust="spacing" textLength="167.6416" x="1069.6367" y="401.2588">List of all complete proposals</text><polygon fill="#181818" points="551.2983,433.8125,541.2983,437.8125,551.2983,441.8125,547.2983,437.8125" style="stroke:#181818;stroke-width:1.0;"/><line style="stroke:#181818;stroke-width:1.0;stroke-dasharray:2.0,2.0;" x1="545.2983" x2="1046.6367" y1="437.8125" y2="437.8125"/><text fill="#000000" font-family="sans-serif" font-size="13" lengthAdjust="spacing" textLength="167.6416" x="557.2983" y="432.5498">List of all complete proposals</text><polygon fill="#181818" points="319.9668,465.1035,309.9668,469.1035,319.9668,473.1035,315.9668,469.1035" style="stroke:#181818;stroke-width:1.0;"/><line style="stroke:#181818;stroke-width:1.0;stroke-dasharray:2.0,2.0;" x1="313.9668" x2="534.2983" y1="469.1035" y2="469.1035"/><text fill="#000000" font-family="sans-serif" font-size="13" lengthAdjust="spacing" textLength="167.6416" x="325.9668" y="463.8408">List of all complete proposals</text><polygon fill="#181818" points="80.0171,496.3945,70.0171,500.3945,80.0171,504.3945,76.0171,500.3945" style="stroke:#181818;stroke-width:1.0;"/><line style="stroke:#181818;stroke-width:1.0;stroke-dasharray:2.0,2.0;" x1="74.0171" x2="302.9668" y1="500.3945" y2="500.3945"/><text fill="#000000" font-family="sans-serif" font-size="13" lengthAdjust="spacing" textLength="205.9497" x="86.0171" y="495.1318">Request a Complete show proposal</text><polygon fill="#181818" points="286.9668,527.6855,296.9668,531.6855,286.9668,535.6855,290.9668,531.6855" style="stroke:#181818;stroke-width:1.0;"/><line style="stroke:#181818;stroke-width:1.0;" x1="69.0171" x2="292.9668" y1="531.6855" y2="531.6855"/><text fill="#000000" font-family="sans-serif" font-size="13" lengthAdjust="spacing" textLength="123.5635" x="76.0171" y="526.4229">Insert Show Proposal</text><polygon fill="#181818" points="518.2983,558.9766,528.2983,562.9766,518.2983,566.9766,522.2983,562.9766" style="stroke:#181818;stroke-width:1.0;"/><line style="stroke:#181818;stroke-width:1.0;" x1="308.9668" x2="524.2983" y1="562.9766" y2="562.9766"/><text fill="#000000" font-family="sans-serif" font-size="13" lengthAdjust="spacing" textLength="202.3315" x="315.9668" y="557.7139">sendShowProposal(showProposal)</text><polygon fill="#181818" points="766.8999,590.2676,776.8999,594.2676,766.8999,598.2676,770.8999,594.2676" style="stroke:#181818;stroke-width:1.0;"/><line style="stroke:#181818;stroke-width:1.0;" x1="540.2983" x2="772.8999" y1="594.2676" y2="594.2676"/><text fill="#000000" font-family="sans-serif" font-size="13" lengthAdjust="spacing" textLength="214.6016" x="547.2983" y="589.0049">ensureAuthenticatedUserHasAnyOf()</text><rect fill="#E2E2F0" height="51.2422" rx="2.5" ry="2.5" style="stroke:#181818;stroke-width:0.5;" width="142.3994" x="778.8999" y="570.9766"/><text fill="#000000" font-family="sans-serif" font-size="14" font-style="italic" lengthAdjust="spacing" textLength="42.8203" x="828.6895" y="593.084">&#171;auth&#187;</text><text fill="#000000" font-family="sans-serif" font-size="14" lengthAdjust="spacing" textLength="128.3994" x="785.8999" y="611.7051">AuthorizationService</text><polygon fill="#181818" points="1030.6367,652.5098,1040.6367,656.5098,1030.6367,660.5098,1034.6367,656.5098" style="stroke:#181818;stroke-width:1.0;"/><line style="stroke:#181818;stroke-width:1.0;" x1="540.2983" x2="1036.6367" y1="656.5098" y2="656.5098"/><text fill="#000000" font-family="sans-serif" font-size="13" lengthAdjust="spacing" textLength="120.6753" x="547.2983" y="651.2471">sendShowProposal()</text><polygon fill="#181818" points="1209.1118,683.8008,1219.1118,687.8008,1209.1118,691.8008,1213.1118,687.8008" style="stroke:#181818;stroke-width:1.0;"/><line style="stroke:#181818;stroke-width:1.0;" x1="1052.6367" x2="1215.1118" y1="687.8008" y2="687.8008"/><text fill="#000000" font-family="sans-serif" font-size="13" lengthAdjust="spacing" textLength="89.5972" x="1059.6367" y="682.5381">addDocument()</text><polygon fill="#181818" points="1356.8457,715.0918,1366.8457,719.0918,1356.8457,723.0918,1360.8457,719.0918" style="stroke:#181818;stroke-width:1.0;"/><line style="stroke:#181818;stroke-width:1.0;" x1="1231.1118" x2="1362.8457" y1="719.0918" y2="719.0918"/><text fill="#000000" font-family="sans-serif" font-size="13" lengthAdjust="spacing" textLength="36.1182" x="1238.1118" y="713.8291">save()</text><polygon fill="#181818" points="1242.1118,729.0918,1232.1118,733.0918,1242.1118,737.0918,1238.1118,733.0918" style="stroke:#181818;stroke-width:1.0;"/><line style="stroke:#181818;stroke-width:1.0;stroke-dasharray:2.0,2.0;" x1="1236.1118" x2="1372.8457" y1="733.0918" y2="733.0918"/><polygon fill="#181818" points="1063.6367,743.0918,1053.6367,747.0918,1063.6367,751.0918,1059.6367,747.0918" style="stroke:#181818;stroke-width:1.0;"/><line style="stroke:#181818;stroke-width:1.0;stroke-dasharray:2.0,2.0;" x1="1057.6367" x2="1225.1118" y1="747.0918" y2="747.0918"/><polygon fill="#181818" points="551.2983,757.0918,541.2983,761.0918,551.2983,765.0918,547.2983,761.0918" style="stroke:#181818;stroke-width:1.0;"/><line style="stroke:#181818;stroke-width:1.0;stroke-dasharray:2.0,2.0;" x1="545.2983" x2="1046.6367" y1="761.0918" y2="761.0918"/><polygon fill="#181818" points="319.9668,771.0918,309.9668,775.0918,319.9668,779.0918,315.9668,775.0918" style="stroke:#181818;stroke-width:1.0;"/><line style="stroke:#181818;stroke-width:1.0;stroke-dasharray:2.0,2.0;" x1="313.9668" x2="534.2983" y1="775.0918" y2="775.0918"/><polygon fill="#181818" points="75.0171,802.3828,65.0171,806.3828,75.0171,810.3828,71.0171,806.3828" style="stroke:#181818;stroke-width:1.0;"/><line style="stroke:#181818;stroke-width:1.0;stroke-dasharray:2.0,2.0;" x1="69.0171" x2="302.9668" y1="806.3828" y2="806.3828"/><text fill="#000000" font-family="sans-serif" font-size="13" lengthAdjust="spacing" textLength="145.2344" x="81.0171" y="801.1201">Inform operation success</text><!--SRC=[dLR1ZgCm3BtdAwoUfYFn0sY4LBM7hRIZNRNg1tZ0xKIYX4tIhcQ_VfrCWL0WPOOB1DlF3p_RmafR4kpfpuMgd60ZyQJnB0JcLcbOh7Uli5PbYMzA8xzP01fOEPkeKLkPoneh2uizLSLlhMfbi3nilTTX2oyljIP3bKKhLPLbqp5hLLdDUUWpGtTa3AphKkQZ4AkBVLTQ_lF6FUchpEcJueZ1GV7h0OrtzRUXyOeLdkZCZ4Emg4USO1WwmEBGGfrHHgDsn3V91VyOn7ScHjBjWT4AjFY6Xc2nkJtvuERWvPLNj7JJKlWR91chbeBX74zB0NorVeUj4AmeUtJQF3z32hacjhFxmCp64zbLoUAUwv8iDRmDUxV0dRy8GXaeMlLPq5444LSroIOg_UNCNQoOW4ooHfXq1dOhOlC0oLsrEkWKVafZGHq1onBo6opK3QueQ8WxnVAn9lEJpIZGY2Qzzlfkkc4dX7sNP6u2vYC7xUlwdndwKKfXvrOgeo0qQlgvQb5243TSlGdSLeQqzRIXuIt4S2BXTesC7g_T8lpi9nCSbcra3pBuc9w3k_h3ERPV_JgWobmqEJCNs2r5AWxyBJ_GhAgFNqUt9-wHWqACmJwY4k-PaK8i1u0p- -G-RF3YqKhfEQI0HR5H-SNvZ92QnpBA0IABmU2LvfOYcD1OkiYoY8d-ZKoFbz7SX5_Li3TcSvCCsKLxsYy1CO4xaZrSFE2Mnr7fCwYQj9yZC9Sy9sF421hd2SVF_mpy1m00]--></g></svg>