<svg xmlns="http://www.w3.org/2000/svg" xmlns:xlink="http://www.w3.org/1999/xlink" contentStyleType="text/css" height="844px" preserveAspectRatio="none" style="width:1465px;height:844px;background:#FFFFFF;" version="1.1" viewBox="0 0 1465 844" width="1465px" zoomAndPan="magnify"><title>Sequence Diagram</title><defs/><g><text fill="#000000" font-family="sans-serif" font-size="14" font-weight="bold" lengthAdjust="spacing" textLength="126.0479" x="668.697" y="30.1074">Sequence Diagram</text><rect fill="#FFFFFF" height="610.5586" style="stroke:#181818;stroke-width:1.0;" width="10" x="59.0171" y="133.2422"/><rect fill="#FFFFFF" height="281.2793" style="stroke:#181818;stroke-width:1.0;" width="10" x="298.9668" y="156.5332"/><rect fill="#FFFFFF" height="274.6973" style="stroke:#181818;stroke-width:1.0;" width="10" x="298.9668" y="469.1035"/><rect fill="#FFFFFF" height="156.4551" style="stroke:#181818;stroke-width:1.0;" width="10" x="530.2983" y="250.0664"/><rect fill="#FFFFFF" height="212.1152" style="stroke:#181818;stroke-width:1.0;" width="10" x="530.2983" y="500.3945"/><rect fill="#FFFFFF" height="93.873" style="stroke:#181818;stroke-width:1.0;" width="10" x="1042.6367" y="281.3574"/><rect fill="#FFFFFF" height="104.582" style="stroke:#181818;stroke-width:1.0;" width="10" x="1042.6367" y="593.9277"/><rect fill="#FFFFFF" height="59.291" style="stroke:#181818;stroke-width:1.0;" width="10" x="1221.1118" y="625.2188"/><rect fill="#FFFFFF" height="31.291" style="stroke:#181818;stroke-width:1.0;" width="10" x="1368.8457" y="312.6484"/><rect fill="#FFFFFF" height="14" style="stroke:#181818;stroke-width:1.0;" width="10" x="1368.8457" y="656.5098"/><line style="stroke:#181818;stroke-width:0.5;stroke-dasharray:5.0,5.0;" x1="64" x2="64" y1="123.2422" y2="761.8008"/><line style="stroke:#181818;stroke-width:0.5;stroke-dasharray:5.0,5.0;" x1="302.9912" x2="302.9912" y1="123.2422" y2="761.8008"/><line style="stroke:#181818;stroke-width:0.5;stroke-dasharray:5.0,5.0;" x1="534.978" x2="534.978" y1="205.6543" y2="761.8008"/><line style="stroke:#181818;stroke-width:0.5;stroke-dasharray:5.0,5.0;" x1="849.8999" x2="849.8999" y1="549.5156" y2="761.8008"/><line style="stroke:#181818;stroke-width:0.5;stroke-dasharray:5.0,5.0;" x1="1047.2993" x2="1047.2993" y1="123.2422" y2="761.8008"/><line style="stroke:#181818;stroke-width:0.5;stroke-dasharray:5.0,5.0;" x1="1225.9741" x2="1225.9741" y1="123.2422" y2="761.8008"/><line style="stroke:#181818;stroke-width:0.5;stroke-dasharray:5.0,5.0;" x1="1373.2495" x2="1373.2495" y1="123.2422" y2="761.8008"/><text fill="#000000" font-family="sans-serif" font-size="14" lengthAdjust="spacing" textLength="112.0342" x="5" y="119.7285">CRM Collaborator</text><ellipse cx="64.0171" cy="53.1211" fill="#E2E2F0" rx="8" ry="8" style="stroke:#181818;stroke-width:0.5;"/><path d="M64.0171,61.1211 L64.0171,88.1211 M51.0171,69.1211 L77.0171,69.1211 M64.0171,88.1211 L51.0171,103.1211 M64.0171,88.1211 L77.0171,103.1211 " fill="none" style="stroke:#181818;stroke-width:0.5;"/><text fill="#000000" font-family="sans-serif" font-size="14" lengthAdjust="spacing" textLength="112.0342" x="5" y="775.9082">CRM Collaborator</text><ellipse cx="64.0171" cy="787.9219" fill="#E2E2F0" rx="8" ry="8" style="stroke:#181818;stroke-width:0.5;"/><path d="M64.0171,795.9219 L64.0171,822.9219 M51.0171,803.9219 L77.0171,803.9219 M64.0171,822.9219 L51.0171,837.9219 M64.0171,822.9219 L77.0171,837.9219 " fill="none" style="stroke:#181818;stroke-width:0.5;"/><rect fill="#E2E2F0" height="51.2422" rx="2.5" ry="2.5" style="stroke:#181818;stroke-width:0.5;" width="115.9512" x="245.9912" y="71"/><text fill="#000000" font-family="sans-serif" font-size="14" font-style="italic" lengthAdjust="spacing" textLength="92.627" x="257.6533" y="93.1074">&#171;presentation&#187;</text><text fill="#000000" font-family="sans-serif" font-size="14" lengthAdjust="spacing" textLength="101.9512" x="252.9912" y="111.7285">SendProposalUI</text><rect fill="#E2E2F0" height="51.2422" rx="2.5" ry="2.5" style="stroke:#181818;stroke-width:0.5;" width="115.9512" x="245.9912" y="760.8008"/><text fill="#000000" font-family="sans-serif" font-size="14" font-style="italic" lengthAdjust="spacing" textLength="92.627" x="257.6533" y="782.9082">&#171;presentation&#187;</text><text fill="#000000" font-family="sans-serif" font-size="14" lengthAdjust="spacing" textLength="101.9512" x="252.9912" y="801.5293">SendProposalUI</text><rect fill="#E2E2F0" height="51.2422" rx="2.5" ry="2.5" style="stroke:#181818;stroke-width:0.5;" width="162.6406" x="453.978" y="760.8008"/><text fill="#000000" font-family="sans-serif" font-size="14" font-style="italic" lengthAdjust="spacing" textLength="82.5098" x="494.0435" y="782.9082">&#171;application&#187;</text><text fill="#000000" font-family="sans-serif" font-size="14" lengthAdjust="spacing" textLength="148.6406" x="460.978" y="801.5293">SendProposalController</text><rect fill="#E2E2F0" height="51.2422" rx="2.5" ry="2.5" style="stroke:#181818;stroke-width:0.5;" width="142.3994" x="778.8999" y="760.8008"/><text fill="#000000" font-family="sans-serif" font-size="14" font-style="italic" lengthAdjust="spacing" textLength="42.8203" x="828.6895" y="782.9082">&#171;auth&#187;</text><text fill="#000000" font-family="sans-serif" font-size="14" lengthAdjust="spacing" textLength="128.3994" x="785.8999" y="801.5293">AuthorizationService</text><rect fill="#E2E2F0" height="51.2422" rx="2.5" ry="2.5" style="stroke:#181818;stroke-width:0.5;" width="232.6748" x="931.2993" y="71"/><text fill="#000000" font-family="sans-serif" font-size="14" font-style="italic" lengthAdjust="spacing" textLength="82.5098" x="1006.3818" y="93.1074">&#171;application&#187;</text><text fill="#000000" font-family="sans-serif" font-size="14" lengthAdjust="spacing" textLength="218.6748" x="938.2993" y="111.7285">ShowProposalManagementService</text><rect fill="#E2E2F0" height="51.2422" rx="2.5" ry="2.5" style="stroke:#181818;stroke-width:0.5;" width="232.6748" x="931.2993" y="760.8008"/><text fill="#000000" font-family="sans-serif" font-size="14" font-style="italic" lengthAdjust="spacing" textLength="82.5098" x="1006.3818" y="782.9082">&#171;application&#187;</text><text fill="#000000" font-family="sans-serif" font-size="14" lengthAdjust="spacing" textLength="218.6748" x="938.2993" y="801.5293">ShowProposalManagementService</text><rect fill="#E2E2F0" height="51.2422" rx="2.5" ry="2.5" style="stroke:#181818;stroke-width:0.5;" width="104.2754" x="1173.9741" y="71"/><text fill="#000000" font-family="sans-serif" font-size="14" font-style="italic" lengthAdjust="spacing" textLength="61.4893" x="1195.3672" y="93.1074">&#171;domain&#187;</text><text fill="#000000" font-family="sans-serif" font-size="14" lengthAdjust="spacing" textLength="90.2754" x="1180.9741" y="111.7285">ShowProposal</text><rect fill="#E2E2F0" height="51.2422" rx="2.5" ry="2.5" style="stroke:#181818;stroke-width:0.5;" width="104.2754" x="1173.9741" y="760.8008"/><text fill="#000000" font-family="sans-serif" font-size="14" font-style="italic" lengthAdjust="spacing" textLength="61.4893" x="1195.3672" y="782.9082">&#171;domain&#187;</text><text fill="#000000" font-family="sans-serif" font-size="14" lengthAdjust="spacing" textLength="90.2754" x="1180.9741" y="801.5293">ShowProposal</text><rect fill="#E2E2F0" height="51.2422" rx="2.5" ry="2.5" style="stroke:#181818;stroke-width:0.5;" width="171.1924" x="1288.2495" y="71"/><text fill="#000000" font-family="sans-serif" font-size="14" font-style="italic" lengthAdjust="spacing" textLength="77.041" x="1335.3252" y="93.1074">&#171;repository&#187;</text><text fill="#000000" font-family="sans-serif" font-size="14" lengthAdjust="spacing" textLength="157.1924" x="1295.2495" y="111.7285">ShowProposalRepository</text><rect fill="#E2E2F0" height="51.2422" rx="2.5" ry="2.5" style="stroke:#181818;stroke-width:0.5;" width="171.1924" x="1288.2495" y="760.8008"/><text fill="#000000" font-family="sans-serif" font-size="14" font-style="italic" lengthAdjust="spacing" textLength="77.041" x="1335.3252" y="782.9082">&#171;repository&#187;</text><text fill="#000000" font-family="sans-serif" font-size="14" lengthAdjust="spacing" textLength="157.1924" x="1295.2495" y="801.5293">ShowProposalRepository</text><rect fill="#FFFFFF" height="610.5586" style="stroke:#181818;stroke-width:1.0;" width="10" x="59.0171" y="133.2422"/><rect fill="#FFFFFF" height="281.2793" style="stroke:#181818;stroke-width:1.0;" width="10" x="298.9668" y="156.5332"/><rect fill="#FFFFFF" height="274.6973" style="stroke:#181818;stroke-width:1.0;" width="10" x="298.9668" y="469.1035"/><rect fill="#FFFFFF" height="156.4551" style="stroke:#181818;stroke-width:1.0;" width="10" x="530.2983" y="250.0664"/><rect fill="#FFFFFF" height="212.1152" style="stroke:#181818;stroke-width:1.0;" width="10" x="530.2983" y="500.3945"/><rect fill="#FFFFFF" height="93.873" style="stroke:#181818;stroke-width:1.0;" width="10" x="1042.6367" y="281.3574"/><rect fill="#FFFFFF" height="104.582" style="stroke:#181818;stroke-width:1.0;" width="10" x="1042.6367" y="593.9277"/><rect fill="#FFFFFF" height="59.291" style="stroke:#181818;stroke-width:1.0;" width="10" x="1221.1118" y="625.2188"/><rect fill="#FFFFFF" height="31.291" style="stroke:#181818;stroke-width:1.0;" width="10" x="1368.8457" y="312.6484"/><rect fill="#FFFFFF" height="14" style="stroke:#181818;stroke-width:1.0;" width="10" x="1368.8457" y="656.5098"/><polygon fill="#181818" points="286.9668,152.5332,296.9668,156.5332,286.9668,160.5332,290.9668,156.5332" style="stroke:#181818;stroke-width:1.0;"/><line style="stroke:#181818;stroke-width:1.0;" x1="69.0171" x2="292.9668" y1="156.5332" y2="156.5332"/><text fill="#000000" font-family="sans-serif" font-size="13" lengthAdjust="spacing" textLength="39.0063" x="76.0171" y="151.2705">show()</text><polygon fill="#181818" points="441.978,183.8242,451.978,187.8242,441.978,191.8242,445.978,187.8242" style="stroke:#181818;stroke-width:1.0;"/><line style="stroke:#181818;stroke-width:1.0;" x1="308.9668" x2="447.978" y1="187.8242" y2="187.8242"/><text fill="#000000" font-family="sans-serif" font-size="13" lengthAdjust="spacing" textLength="44.7891" x="315.9668" y="182.5615">create()</text><rect fill="#E2E2F0" height="51.2422" rx="2.5" ry="2.5" style="stroke:#181818;stroke-width:0.5;" width="162.6406" x="453.978" y="164.5332"/><text fill="#000000" font-family="sans-serif" font-size="14" font-style="italic" lengthAdjust="spacing" textLength="82.5098" x="494.0435" y="186.6406">&#171;application&#187;</text><text fill="#000000" font-family="sans-serif" font-size="14" lengthAdjust="spacing" textLength="148.6406" x="460.978" y="205.2617">SendProposalController</text><polygon fill="#181818" points="518.2983,246.0664,528.2983,250.0664,518.2983,254.0664,522.2983,250.0664" style="stroke:#181818;stroke-width:1.0;"/><line style="stroke:#181818;stroke-width:1.0;" x1="308.9668" x2="524.2983" y1="250.0664" y2="250.0664"/><text fill="#000000" font-family="sans-serif" font-size="13" lengthAdjust="spacing" textLength="154.6226" x="315.9668" y="244.8037">getAllCompleteProposals()</text><polygon fill="#181818" points="1030.6367,277.3574,1040.6367,281.3574,1030.6367,285.3574,1034.6367,281.3574" style="stroke:#181818;stroke-width:1.0;"/><line style="stroke:#181818;stroke-width:1.0;" x1="540.2983" x2="1036.6367" y1="281.3574" y2="281.3574"/><text fill="#000000" font-family="sans-serif" font-size="13" lengthAdjust="spacing" textLength="154.6226" x="547.2983" y="276.0947">getAllCompleteProposals()</text><polygon fill="#181818" points="1356.8457,308.6484,1366.8457,312.6484,1356.8457,316.6484,1360.8457,312.6484" style="stroke:#181818;stroke-width:1.0;"/><line style="stroke:#181818;stroke-width:1.0;" x1="1052.6367" x2="1362.8457" y1="312.6484" y2="312.6484"/><text fill="#000000" font-family="sans-serif" font-size="13" lengthAdjust="spacing" textLength="154.6226" x="1059.6367" y="307.3857">getAllCompleteProposals()</text><polygon fill="#181818" points="1063.6367,339.9395,1053.6367,343.9395,1063.6367,347.9395,1059.6367,343.9395" style="stroke:#181818;stroke-width:1.0;"/><line style="stroke:#181818;stroke-width:1.0;stroke-dasharray:2.0,2.0;" x1="1057.6367" x2="1372.8457" y1="343.9395" y2="343.9395"/><text fill="#000000" font-family="sans-serif" font-size="13" lengthAdjust="spacing" textLength="167.6416" x="1069.6367" y="338.6768">List of all complete proposals</text><polygon fill="#181818" points="551.2983,371.2305,541.2983,375.2305,551.2983,379.2305,547.2983,375.2305" style="stroke:#181818;stroke-width:1.0;"/><line style="stroke:#181818;stroke-width:1.0;stroke-dasharray:2.0,2.0;" x1="545.2983" x2="1046.6367" y1="375.2305" y2="375.2305"/><text fill="#000000" font-family="sans-serif" font-size="13" lengthAdjust="spacing" textLength="167.6416" x="557.2983" y="369.9678">List of all complete proposals</text><polygon fill="#181818" points="319.9668,402.5215,309.9668,406.5215,319.9668,410.5215,315.9668,406.5215" style="stroke:#181818;stroke-width:1.0;"/><line style="stroke:#181818;stroke-width:1.0;stroke-dasharray:2.0,2.0;" x1="313.9668" x2="534.2983" y1="406.5215" y2="406.5215"/><text fill="#000000" font-family="sans-serif" font-size="13" lengthAdjust="spacing" textLength="167.6416" x="325.9668" y="401.2588">List of all complete proposals</text><polygon fill="#181818" points="80.0171,433.8125,70.0171,437.8125,80.0171,441.8125,76.0171,437.8125" style="stroke:#181818;stroke-width:1.0;"/><line style="stroke:#181818;stroke-width:1.0;stroke-dasharray:2.0,2.0;" x1="74.0171" x2="302.9668" y1="437.8125" y2="437.8125"/><text fill="#000000" font-family="sans-serif" font-size="13" lengthAdjust="spacing" textLength="205.9497" x="86.0171" y="432.5498">Request a Complete show proposal</text><polygon fill="#181818" points="286.9668,465.1035,296.9668,469.1035,286.9668,473.1035,290.9668,469.1035" style="stroke:#181818;stroke-width:1.0;"/><line style="stroke:#181818;stroke-width:1.0;" x1="69.0171" x2="292.9668" y1="469.1035" y2="469.1035"/><text fill="#000000" font-family="sans-serif" font-size="13" lengthAdjust="spacing" textLength="123.5635" x="76.0171" y="463.8408">Insert Show Proposal</text><polygon fill="#181818" points="518.2983,496.3945,528.2983,500.3945,518.2983,504.3945,522.2983,500.3945" style="stroke:#181818;stroke-width:1.0;"/><line style="stroke:#181818;stroke-width:1.0;" x1="308.9668" x2="524.2983" y1="500.3945" y2="500.3945"/><text fill="#000000" font-family="sans-serif" font-size="13" lengthAdjust="spacing" textLength="202.3315" x="315.9668" y="495.1318">sendShowProposal(showProposal)</text><polygon fill="#181818" points="766.8999,527.6855,776.8999,531.6855,766.8999,535.6855,770.8999,531.6855" style="stroke:#181818;stroke-width:1.0;"/><line style="stroke:#181818;stroke-width:1.0;" x1="540.2983" x2="772.8999" y1="531.6855" y2="531.6855"/><text fill="#000000" font-family="sans-serif" font-size="13" lengthAdjust="spacing" textLength="214.6016" x="547.2983" y="526.4229">ensureAuthenticatedUserHasAnyOf()</text><rect fill="#E2E2F0" height="51.2422" rx="2.5" ry="2.5" style="stroke:#181818;stroke-width:0.5;" width="142.3994" x="778.8999" y="508.3945"/><text fill="#000000" font-family="sans-serif" font-size="14" font-style="italic" lengthAdjust="spacing" textLength="42.8203" x="828.6895" y="530.502">&#171;auth&#187;</text><text fill="#000000" font-family="sans-serif" font-size="14" lengthAdjust="spacing" textLength="128.3994" x="785.8999" y="549.123">AuthorizationService</text><polygon fill="#181818" points="1030.6367,589.9277,1040.6367,593.9277,1030.6367,597.9277,1034.6367,593.9277" style="stroke:#181818;stroke-width:1.0;"/><line style="stroke:#181818;stroke-width:1.0;" x1="540.2983" x2="1036.6367" y1="593.9277" y2="593.9277"/><text fill="#000000" font-family="sans-serif" font-size="13" lengthAdjust="spacing" textLength="120.6753" x="547.2983" y="588.665">sendShowProposal()</text><polygon fill="#181818" points="1209.1118,621.2188,1219.1118,625.2188,1209.1118,629.2188,1213.1118,625.2188" style="stroke:#181818;stroke-width:1.0;"/><line style="stroke:#181818;stroke-width:1.0;" x1="1052.6367" x2="1215.1118" y1="625.2188" y2="625.2188"/><text fill="#000000" font-family="sans-serif" font-size="13" lengthAdjust="spacing" textLength="89.5972" x="1059.6367" y="619.9561">addDocument()</text><polygon fill="#181818" points="1356.8457,652.5098,1366.8457,656.5098,1356.8457,660.5098,1360.8457,656.5098" style="stroke:#181818;stroke-width:1.0;"/><line style="stroke:#181818;stroke-width:1.0;" x1="1231.1118" x2="1362.8457" y1="656.5098" y2="656.5098"/><text fill="#000000" font-family="sans-serif" font-size="13" lengthAdjust="spacing" textLength="36.1182" x="1238.1118" y="651.2471">save()</text><polygon fill="#181818" points="1242.1118,666.5098,1232.1118,670.5098,1242.1118,674.5098,1238.1118,670.5098" style="stroke:#181818;stroke-width:1.0;"/><line style="stroke:#181818;stroke-width:1.0;stroke-dasharray:2.0,2.0;" x1="1236.1118" x2="1372.8457" y1="670.5098" y2="670.5098"/><polygon fill="#181818" points="1063.6367,680.5098,1053.6367,684.5098,1063.6367,688.5098,1059.6367,684.5098" style="stroke:#181818;stroke-width:1.0;"/><line style="stroke:#181818;stroke-width:1.0;stroke-dasharray:2.0,2.0;" x1="1057.6367" x2="1225.1118" y1="684.5098" y2="684.5098"/><polygon fill="#181818" points="551.2983,694.5098,541.2983,698.5098,551.2983,702.5098,547.2983,698.5098" style="stroke:#181818;stroke-width:1.0;"/><line style="stroke:#181818;stroke-width:1.0;stroke-dasharray:2.0,2.0;" x1="545.2983" x2="1046.6367" y1="698.5098" y2="698.5098"/><polygon fill="#181818" points="319.9668,708.5098,309.9668,712.5098,319.9668,716.5098,315.9668,712.5098" style="stroke:#181818;stroke-width:1.0;"/><line style="stroke:#181818;stroke-width:1.0;stroke-dasharray:2.0,2.0;" x1="313.9668" x2="534.2983" y1="712.5098" y2="712.5098"/><polygon fill="#181818" points="75.0171,739.8008,65.0171,743.8008,75.0171,747.8008,71.0171,743.8008" style="stroke:#181818;stroke-width:1.0;"/><line style="stroke:#181818;stroke-width:1.0;stroke-dasharray:2.0,2.0;" x1="69.0171" x2="302.9668" y1="743.8008" y2="743.8008"/><text fill="#000000" font-family="sans-serif" font-size="13" lengthAdjust="spacing" textLength="145.2344" x="81.0171" y="738.5381">Inform operation success</text><!--SRC=[dLNRRk8m47ttLunuAfNu0LH5GlHXaLfj1U83PfE1MahihErGTRz-noaXJcDCQ5vGCZFdpENCuAGh2NRqjo6L4pnBF1giXC3SQGEpzVOLrheiyOyso5zcW1PMtYPgD4xciaRbOBOZLRmPNMkBvNxJUkqtyFHK6xAa73gfLPPTZrbhvGppq1T3_yeOMDUbpACGgyQzQoF_jSOTcPFCwIl5YC53yUTH6k_weqlZ5HKUgUACGx2aHph1C7I4nQ65hb0cexR4Fv8R_ZcAxqsCP2ulZER79q_ew3mhqVx08kEfBC4oniDS03yNl_r629uOU_IzVto49UI6sCxk8pCRZ-HM9G-lgajorELbsVi2tFkB89I1absT19r44EcfBR8hdRoRkOyLLo0NjwjzaTQ1FW2M9UHdPgWxQb7GFTIHQWU3-odTkCVXH1UPrzPqv40ONbcSOIlI9MpzCM8KX6u6hM8lA268b-r0snjboRWsRUZo5cAiTJW_4L7pmIh2iXziy3A_H0uWWs863luPoZvscTf58sKRGzxC3VRdX8ezr_8BxKfz_Zxu3VoE73GY1dihbRHc8esOZm0dwcGKTsiv1mvBmA9urddZVM9zY6QHvFnEqMyIbuqdcbfgi84fkiGnI0tr1qotZyrKmdjdDbYZgIGJf3AyCNvvh-16sCF30luu7BIfGDTasZq1s-GvMIiYQCmJhbVxD_eV]--></g></svg>