<svg xmlns="http://www.w3.org/2000/svg" xmlns:xlink="http://www.w3.org/1999/xlink" contentStyleType="text/css" height="502px" preserveAspectRatio="none" style="width:454px;height:502px;background:#FFFFFF;" version="1.1" viewBox="0 0 454 502" width="454px" zoomAndPan="magnify"><title>System Sequence Diagram - US316</title><defs/><g><text fill="#000000" font-family="sans-serif" font-size="14" font-weight="bold" lengthAdjust="spacing" textLength="234.9922" x="105.8945" y="30.1074">System Sequence Diagram - US316</text><rect fill="#FFFFFF" height="277.3281" style="stroke:#181818;stroke-width:1.0;" width="10" x="59.0171" y="133.2422"/><rect fill="#FFFFFF" height="75.582" style="stroke:#181818;stroke-width:1.0;" width="10" x="248.3696" y="201.8242"/><rect fill="#FFFFFF" height="92.873" style="stroke:#181818;stroke-width:1.0;" width="10" x="248.3696" y="308.6973"/><line style="stroke:#181818;stroke-width:0.5;stroke-dasharray:5.0,5.0;" x1="64" x2="64" y1="123.2422" y2="419.5703"/><line style="stroke:#181818;stroke-width:0.5;stroke-dasharray:5.0,5.0;" x1="253.0317" x2="253.0317" y1="123.2422" y2="419.5703"/><text fill="#000000" font-family="sans-serif" font-size="14" lengthAdjust="spacing" textLength="112.0342" x="5" y="119.7285">CRM Collaborator</text><ellipse cx="64.0171" cy="53.1211" fill="#E3E3E3" rx="8" ry="8" style="stroke:#181818;stroke-width:0.5;"/><path d="M64.0171,61.1211 L64.0171,88.1211 M51.0171,69.1211 L77.0171,69.1211 M64.0171,88.1211 L51.0171,103.1211 M64.0171,88.1211 L77.0171,103.1211 " fill="none" style="stroke:#181818;stroke-width:0.5;"/><text fill="#000000" font-family="sans-serif" font-size="14" lengthAdjust="spacing" textLength="112.0342" x="5" y="433.6777">CRM Collaborator</text><ellipse cx="64.0171" cy="445.6914" fill="#E3E3E3" rx="8" ry="8" style="stroke:#181818;stroke-width:0.5;"/><path d="M64.0171,453.6914 L64.0171,480.6914 M51.0171,461.6914 L77.0171,461.6914 M64.0171,480.6914 L51.0171,495.6914 M64.0171,480.6914 L77.0171,495.6914 " fill="none" style="stroke:#181818;stroke-width:0.5;"/><rect fill="#E3E3E3" height="32.6211" rx="2.5" ry="2.5" style="stroke:#181818;stroke-width:0.5;" width="60.6758" x="223.0317" y="89.6211"/><text fill="#000000" font-family="sans-serif" font-size="14" lengthAdjust="spacing" textLength="46.6758" x="230.0317" y="111.7285">System</text><rect fill="#E3E3E3" height="32.6211" rx="2.5" ry="2.5" style="stroke:#181818;stroke-width:0.5;" width="60.6758" x="223.0317" y="418.5703"/><text fill="#000000" font-family="sans-serif" font-size="14" lengthAdjust="spacing" textLength="46.6758" x="230.0317" y="440.6777">System</text><rect fill="#FFFFFF" height="277.3281" style="stroke:#181818;stroke-width:1.0;" width="10" x="59.0171" y="133.2422"/><rect fill="#FFFFFF" height="75.582" style="stroke:#181818;stroke-width:1.0;" width="10" x="248.3696" y="201.8242"/><rect fill="#FFFFFF" height="92.873" style="stroke:#181818;stroke-width:1.0;" width="10" x="248.3696" y="308.6973"/><rect fill="#EEEEEE" height="3" style="stroke:#EEEEEE;stroke-width:1.0;" width="447.7813" x="0" y="154.8877"/><line style="stroke:#000000;stroke-width:1.0;" x1="0" x2="447.7813" y1="154.8877" y2="154.8877"/><line style="stroke:#000000;stroke-width:1.0;" x1="0" x2="447.7813" y1="157.8877" y2="157.8877"/><rect fill="#EEEEEE" height="25.291" style="stroke:#000000;stroke-width:2.0;" width="146.9072" x="150.437" y="143.2422"/><text fill="#000000" font-family="sans-serif" font-size="13" font-weight="bold" lengthAdjust="spacing" textLength="129.2954" x="156.437" y="161.2705">Send Show Proposal</text><polygon fill="#181818" points="236.3696,197.8242,246.3696,201.8242,236.3696,205.8242,240.3696,201.8242" style="stroke:#181818;stroke-width:1.0;"/><line style="stroke:#181818;stroke-width:1.0;" x1="69.0171" x2="242.3696" y1="201.8242" y2="201.8242"/><text fill="#000000" font-family="sans-serif" font-size="13" lengthAdjust="spacing" textLength="121.4116" x="76.0171" y="196.5615">Send Show Proposal</text><line style="stroke:#181818;stroke-width:1.0;" x1="258.3696" x2="300.3696" y1="233.1152" y2="233.1152"/><line style="stroke:#181818;stroke-width:1.0;" x1="300.3696" x2="300.3696" y1="233.1152" y2="246.1152"/><line style="stroke:#181818;stroke-width:1.0;" x1="259.3696" x2="300.3696" y1="246.1152" y2="246.1152"/><polygon fill="#181818" points="269.3696,242.1152,259.3696,246.1152,269.3696,250.1152,265.3696,246.1152" style="stroke:#181818;stroke-width:1.0;"/><text fill="#000000" font-family="sans-serif" font-size="13" lengthAdjust="spacing" textLength="160.4116" x="265.3696" y="227.8525">Gets all complete proposals</text><polygon fill="#181818" points="80.0171,273.4063,70.0171,277.4063,80.0171,281.4063,76.0171,277.4063" style="stroke:#181818;stroke-width:1.0;"/><line style="stroke:#181818;stroke-width:1.0;" x1="74.0171" x2="252.3696" y1="277.4063" y2="277.4063"/><text fill="#000000" font-family="sans-serif" font-size="13" lengthAdjust="spacing" textLength="155.3525" x="86.0171" y="272.1436">List of Complete Proposals</text><polygon fill="#181818" points="236.3696,304.6973,246.3696,308.6973,236.3696,312.6973,240.3696,308.6973" style="stroke:#181818;stroke-width:1.0;"/><line style="stroke:#181818;stroke-width:1.0;" x1="69.0171" x2="242.3696" y1="308.6973" y2="308.6973"/><text fill="#000000" font-family="sans-serif" font-size="13" lengthAdjust="spacing" textLength="97.5571" x="76.0171" y="303.4346">Provide proposal</text><line style="stroke:#181818;stroke-width:1.0;" x1="258.3696" x2="300.3696" y1="357.2793" y2="357.2793"/><line style="stroke:#181818;stroke-width:1.0;" x1="300.3696" x2="300.3696" y1="357.2793" y2="370.2793"/><line style="stroke:#181818;stroke-width:1.0;" x1="259.3696" x2="300.3696" y1="370.2793" y2="370.2793"/><polygon fill="#181818" points="269.3696,366.2793,259.3696,370.2793,269.3696,374.2793,265.3696,370.2793" style="stroke:#181818;stroke-width:1.0;"/><text fill="#000000" font-family="sans-serif" font-size="13" lengthAdjust="spacing" textLength="90.3398" x="265.3696" y="334.7256">Sends proposal</text><text fill="#000000" font-family="sans-serif" font-size="13" lengthAdjust="spacing" textLength="145.2471" x="268.9814" y="352.0166">to the customer assigned</text><polygon fill="#181818" points="80.0171,397.5703,70.0171,401.5703,80.0171,405.5703,76.0171,401.5703" style="stroke:#181818;stroke-width:1.0;"/><line style="stroke:#181818;stroke-width:1.0;" x1="74.0171" x2="252.3696" y1="401.5703" y2="401.5703"/><text fill="#000000" font-family="sans-serif" font-size="13" lengthAdjust="spacing" textLength="127.1689" x="86.0171" y="396.3076">Confirm proposal sent</text><!--SRC=[ZLBDJiCm3BxdAQpTTq1872QLIv6uW3HHSUDYKg-DbiGXTZVjxSb6wQenJTmY-_kp7Tcwc31ZWC2HRPyv46WUoCZKIMYts56Z1q-GoIh6piy1qcFBUnSxsA0NCWQjSeP5_VOADNkFdvonL1Q00ZQ7USqK2NNM9OmAY-OWIk64azFJ67LQR7yQqD3NGD4IF3diZjPBU6_kxnwCgQhIZ2qqFUzXdJcne8UgEcPnErJwOsmk2h1y74rXTKNhBFIRR0JFQS-a0kWzM0x9Km6daIvp_ANp2bwSAF2ch6lahITUIvVEju8NtiwrPr_phzp7SMNYV4HG1ktBpWRHyYDoEOYuBb9xUugQuyRbC0c1KDGh0nZp3G00]--></g></svg>