<svg xmlns="http://www.w3.org/2000/svg" xmlns:xlink="http://www.w3.org/1999/xlink" contentStyleType="text/css" height="459px" preserveAspectRatio="none" style="width:373px;height:459px;background:#FFFFFF;" version="1.1" viewBox="0 0 373 459" width="373px" zoomAndPan="magnify"><title>System Sequence Diagram - US326</title><defs/><g><text fill="#000000" font-family="sans-serif" font-size="14" font-weight="bold" lengthAdjust="spacing" textLength="234.9922" x="65.4561" y="30.1074">System Sequence Diagram - US326</text><rect fill="#FFFFFF" height="234.0371" style="stroke:#181818;stroke-width:1.0;" width="10" x="39.5723" y="133.2422"/><rect fill="#FFFFFF" height="31.291" style="stroke:#181818;stroke-width:1.0;" width="10" x="326.5664" y="201.8242"/><rect fill="#FFFFFF" height="31.291" style="stroke:#181818;stroke-width:1.0;" width="10" x="326.5664" y="264.4063"/><rect fill="#FFFFFF" height="31.291" style="stroke:#181818;stroke-width:1.0;" width="10" x="326.5664" y="326.9883"/><line style="stroke:#181818;stroke-width:0.5;stroke-dasharray:5.0,5.0;" x1="44" x2="44" y1="123.2422" y2="376.2793"/><line style="stroke:#181818;stroke-width:0.5;stroke-dasharray:5.0,5.0;" x1="331.2285" x2="331.2285" y1="123.2422" y2="376.2793"/><text fill="#000000" font-family="sans-serif" font-size="14" lengthAdjust="spacing" textLength="73.1445" x="5" y="119.7285">Drone Tech</text><ellipse cx="44.5723" cy="53.1211" fill="#E3E3E3" rx="8" ry="8" style="stroke:#181818;stroke-width:0.5;"/><path d="M44.5723,61.1211 L44.5723,88.1211 M31.5723,69.1211 L57.5723,69.1211 M44.5723,88.1211 L31.5723,103.1211 M44.5723,88.1211 L57.5723,103.1211 " fill="none" style="stroke:#181818;stroke-width:0.5;"/><text fill="#000000" font-family="sans-serif" font-size="14" lengthAdjust="spacing" textLength="73.1445" x="5" y="390.3867">Drone Tech</text><ellipse cx="44.5723" cy="402.4004" fill="#E3E3E3" rx="8" ry="8" style="stroke:#181818;stroke-width:0.5;"/><path d="M44.5723,410.4004 L44.5723,437.4004 M31.5723,418.4004 L57.5723,418.4004 M44.5723,437.4004 L31.5723,452.4004 M44.5723,437.4004 L57.5723,452.4004 " fill="none" style="stroke:#181818;stroke-width:0.5;"/><rect fill="#E3E3E3" height="32.6211" rx="2.5" ry="2.5" style="stroke:#181818;stroke-width:0.5;" width="60.6758" x="301.2285" y="89.6211"/><text fill="#000000" font-family="sans-serif" font-size="14" lengthAdjust="spacing" textLength="46.6758" x="308.2285" y="111.7285">System</text><rect fill="#E3E3E3" height="32.6211" rx="2.5" ry="2.5" style="stroke:#181818;stroke-width:0.5;" width="60.6758" x="301.2285" y="375.2793"/><text fill="#000000" font-family="sans-serif" font-size="14" lengthAdjust="spacing" textLength="46.6758" x="308.2285" y="397.3867">System</text><rect fill="#FFFFFF" height="234.0371" style="stroke:#181818;stroke-width:1.0;" width="10" x="39.5723" y="133.2422"/><rect fill="#FFFFFF" height="31.291" style="stroke:#181818;stroke-width:1.0;" width="10" x="326.5664" y="201.8242"/><rect fill="#FFFFFF" height="31.291" style="stroke:#181818;stroke-width:1.0;" width="10" x="326.5664" y="264.4063"/><rect fill="#FFFFFF" height="31.291" style="stroke:#181818;stroke-width:1.0;" width="10" x="326.5664" y="326.9883"/><rect fill="#EEEEEE" height="3" style="stroke:#EEEEEE;stroke-width:1.0;" width="366.9043" x="0" y="154.8877"/><line style="stroke:#000000;stroke-width:1.0;" x1="0" x2="366.9043" y1="154.8877" y2="154.8877"/><line style="stroke:#000000;stroke-width:1.0;" x1="0" x2="366.9043" y1="157.8877" y2="157.8877"/><rect fill="#EEEEEE" height="25.291" style="stroke:#000000;stroke-width:2.0;" width="236.4854" x="65.2095" y="143.2422"/><text fill="#000000" font-family="sans-serif" font-size="13" font-weight="bold" lengthAdjust="spacing" textLength="218.8735" x="71.2095" y="161.2705">Add maintenance record to a drone</text><polygon fill="#181818" points="314.5664,197.8242,324.5664,201.8242,314.5664,205.8242,318.5664,201.8242" style="stroke:#181818;stroke-width:1.0;"/><line style="stroke:#181818;stroke-width:1.0;" x1="49.5723" x2="320.5664" y1="201.8242" y2="201.8242"/><text fill="#000000" font-family="sans-serif" font-size="13" lengthAdjust="spacing" textLength="257.9941" x="56.5723" y="196.5615">asks to add a maintenance record to a drone</text><polygon fill="#181818" points="60.5723,229.1152,50.5723,233.1152,60.5723,237.1152,56.5723,233.1152" style="stroke:#181818;stroke-width:1.0;"/><line style="stroke:#181818;stroke-width:1.0;" x1="54.5723" x2="330.5664" y1="233.1152" y2="233.1152"/><text fill="#000000" font-family="sans-serif" font-size="13" lengthAdjust="spacing" textLength="114.1626" x="66.5723" y="227.8525">shows list of drones</text><polygon fill="#181818" points="314.5664,260.4063,324.5664,264.4063,314.5664,268.4063,318.5664,264.4063" style="stroke:#181818;stroke-width:1.0;"/><line style="stroke:#181818;stroke-width:1.0;" x1="49.5723" x2="320.5664" y1="264.4063" y2="264.4063"/><text fill="#000000" font-family="sans-serif" font-size="13" lengthAdjust="spacing" textLength="96.1226" x="56.5723" y="259.1436">chooses a drone</text><polygon fill="#181818" points="60.5723,291.6973,50.5723,295.6973,60.5723,299.6973,56.5723,295.6973" style="stroke:#181818;stroke-width:1.0;"/><line style="stroke:#181818;stroke-width:1.0;stroke-dasharray:2.0,2.0;" x1="54.5723" x2="330.5664" y1="295.6973" y2="295.6973"/><text fill="#000000" font-family="sans-serif" font-size="13" lengthAdjust="spacing" textLength="183.5361" x="66.5723" y="290.4346">shows list of maintenance types</text><polygon fill="#181818" points="314.5664,322.9883,324.5664,326.9883,314.5664,330.9883,318.5664,326.9883" style="stroke:#181818;stroke-width:1.0;"/><line style="stroke:#181818;stroke-width:1.0;" x1="49.5723" x2="320.5664" y1="326.9883" y2="326.9883"/><text fill="#000000" font-family="sans-serif" font-size="13" lengthAdjust="spacing" textLength="157.5361" x="56.5723" y="321.7256">selects a maintenance type</text><polygon fill="#181818" points="60.5723,354.2793,50.5723,358.2793,60.5723,362.2793,56.5723,358.2793" style="stroke:#181818;stroke-width:1.0;"/><line style="stroke:#181818;stroke-width:1.0;stroke-dasharray:2.0,2.0;" x1="54.5723" x2="330.5664" y1="358.2793" y2="358.2793"/><text fill="#000000" font-family="sans-serif" font-size="13" lengthAdjust="spacing" textLength="228.3506" x="66.5723" y="353.0166">shows maintenance added successfully</text><!--SRC=[bP71QiCm38RlVWgHUoyRx538OD0toFO0mbOI4yVABAKbRp-dQTFGbK9l4jB_VxzbwNmSC64FFKUsRUAUGDD8HjR9WBR3XYgT0a4YgnYRi5sG5XsVV6oWnY1a35hb1CKXSIJu9jiMW09kRkVEP9bwwmUC2aKrYL9_tf1pQOnwpQXb01NzZXGjmS5ZC-Dsy5EzltqOKvRmvHpqwADIn7adn-FaG1bmuK5Ppd7y4PKs2SnQmkxpmeLzpj39MPnjyRdnpVMQ-kAI_Mxc-tmSFWa4BmfSBnCnZkxLZ_FObbb8LkO_w9Nv5BfzXqx32toXaFzRxcunUxoMPAlEjoK7CbfB8lKOmlGWZla3]--></g></svg>