<svg xmlns="http://www.w3.org/2000/svg" xmlns:xlink="http://www.w3.org/1999/xlink" contentStyleType="text/css" height="657px" preserveAspectRatio="none" style="width:1364px;height:657px;background:#FFFFFF;" version="1.1" viewBox="0 0 1364 657" width="1364px" zoomAndPan="magnify"><title>Sequence Diagram</title><defs/><g><text fill="#000000" font-family="sans-serif" font-size="14" font-weight="bold" lengthAdjust="spacing" textLength="126.0479" x="618.208" y="30.1074">Sequence Diagram</text><rect fill="#FFFFFF" height="422.8125" style="stroke:#181818;stroke-width:1.0;" width="10" x="48.5137" y="133.2422"/><rect fill="#FFFFFF" height="93.5332" style="stroke:#181818;stroke-width:1.0;" width="10" x="299.3115" y="156.5332"/><rect fill="#FFFFFF" height="274.6973" style="stroke:#181818;stroke-width:1.0;" width="10" x="299.3115" y="281.3574"/><rect fill="#FFFFFF" height="212.1152" style="stroke:#181818;stroke-width:1.0;" width="10" x="521.9404" y="312.6484"/><rect fill="#FFFFFF" height="104.582" style="stroke:#181818;stroke-width:1.0;" width="10" x="1018.3203" y="406.1816"/><rect fill="#FFFFFF" height="14" style="stroke:#181818;stroke-width:1.0;" width="10" x="1166.4438" y="437.4727"/><rect fill="#FFFFFF" height="14" style="stroke:#181818;stroke-width:1.0;" width="10" x="1283.8262" y="482.7637"/><line style="stroke:#181818;stroke-width:0.5;stroke-dasharray:5.0,5.0;" x1="53" x2="53" y1="123.2422" y2="574.0547"/><line style="stroke:#181818;stroke-width:0.5;stroke-dasharray:5.0,5.0;" x1="303.7808" x2="303.7808" y1="123.2422" y2="574.0547"/><line style="stroke:#181818;stroke-width:0.5;stroke-dasharray:5.0,5.0;" x1="526.0649" x2="526.0649" y1="205.6543" y2="574.0547"/><line style="stroke:#181818;stroke-width:0.5;stroke-dasharray:5.0,5.0;" x1="841.542" x2="841.542" y1="361.7695" y2="574.0547"/><line style="stroke:#181818;stroke-width:0.5;stroke-dasharray:5.0,5.0;" x1="1022.9414" x2="1022.9414" y1="123.2422" y2="574.0547"/><line style="stroke:#181818;stroke-width:0.5;stroke-dasharray:5.0,5.0;" x1="1170.6992" x2="1170.6992" y1="123.2422" y2="574.0547"/><line style="stroke:#181818;stroke-width:0.5;stroke-dasharray:5.0,5.0;" x1="1288.1885" x2="1288.1885" y1="123.2422" y2="574.0547"/><text fill="#000000" font-family="sans-serif" font-size="14" lengthAdjust="spacing" textLength="91.0273" x="5" y="119.7285">CRM Manager</text><ellipse cx="53.5137" cy="53.1211" fill="#E2E2F0" rx="8" ry="8" style="stroke:#181818;stroke-width:0.5;"/><path d="M53.5137,61.1211 L53.5137,88.1211 M40.5137,69.1211 L66.5137,69.1211 M53.5137,88.1211 L40.5137,103.1211 M53.5137,88.1211 L66.5137,103.1211 " fill="none" style="stroke:#181818;stroke-width:0.5;"/><text fill="#000000" font-family="sans-serif" font-size="14" lengthAdjust="spacing" textLength="91.0273" x="5" y="588.1621">CRM Manager</text><ellipse cx="53.5137" cy="600.1758" fill="#E2E2F0" rx="8" ry="8" style="stroke:#181818;stroke-width:0.5;"/><path d="M53.5137,608.1758 L53.5137,635.1758 M40.5137,616.1758 L66.5137,616.1758 M53.5137,635.1758 L40.5137,650.1758 M53.5137,635.1758 L66.5137,650.1758 " fill="none" style="stroke:#181818;stroke-width:0.5;"/><rect fill="#E2E2F0" height="51.2422" rx="2.5" ry="2.5" style="stroke:#181818;stroke-width:0.5;" width="147.0615" x="230.7808" y="71"/><text fill="#000000" font-family="sans-serif" font-size="14" font-style="italic" lengthAdjust="spacing" textLength="92.627" x="257.998" y="93.1074">&#171;presentation&#187;</text><text fill="#000000" font-family="sans-serif" font-size="14" lengthAdjust="spacing" textLength="133.0615" x="237.7808" y="111.7285">ConfigureTemplateUI</text><rect fill="#E2E2F0" height="51.2422" rx="2.5" ry="2.5" style="stroke:#181818;stroke-width:0.5;" width="147.0615" x="230.7808" y="573.0547"/><text fill="#000000" font-family="sans-serif" font-size="14" font-style="italic" lengthAdjust="spacing" textLength="92.627" x="257.998" y="595.1621">&#171;presentation&#187;</text><text fill="#000000" font-family="sans-serif" font-size="14" lengthAdjust="spacing" textLength="133.0615" x="237.7808" y="613.7832">ConfigureTemplateUI</text><rect fill="#E2E2F0" height="51.2422" rx="2.5" ry="2.5" style="stroke:#181818;stroke-width:0.5;" width="193.751" x="430.0649" y="573.0547"/><text fill="#000000" font-family="sans-serif" font-size="14" font-style="italic" lengthAdjust="spacing" textLength="82.5098" x="485.6855" y="595.1621">&#171;application&#187;</text><text fill="#000000" font-family="sans-serif" font-size="14" lengthAdjust="spacing" textLength="179.751" x="437.0649" y="613.7832">ConfigureTemplateController</text><rect fill="#E2E2F0" height="51.2422" rx="2.5" ry="2.5" style="stroke:#181818;stroke-width:0.5;" width="142.3994" x="770.542" y="573.0547"/><text fill="#000000" font-family="sans-serif" font-size="14" font-style="italic" lengthAdjust="spacing" textLength="42.8203" x="820.3315" y="595.1621">&#171;auth&#187;</text><text fill="#000000" font-family="sans-serif" font-size="14" lengthAdjust="spacing" textLength="128.3994" x="777.542" y="613.7832">AuthorizationService</text><rect fill="#E2E2F0" height="51.2422" rx="2.5" ry="2.5" style="stroke:#181818;stroke-width:0.5;" width="200.7578" x="922.9414" y="71"/><text fill="#000000" font-family="sans-serif" font-size="14" font-style="italic" lengthAdjust="spacing" textLength="82.5098" x="982.0654" y="93.1074">&#171;application&#187;</text><text fill="#000000" font-family="sans-serif" font-size="14" lengthAdjust="spacing" textLength="186.7578" x="929.9414" y="111.7285">TemplateManagementService</text><rect fill="#E2E2F0" height="51.2422" rx="2.5" ry="2.5" style="stroke:#181818;stroke-width:0.5;" width="200.7578" x="922.9414" y="573.0547"/><text fill="#000000" font-family="sans-serif" font-size="14" font-style="italic" lengthAdjust="spacing" textLength="82.5098" x="982.0654" y="595.1621">&#171;application&#187;</text><text fill="#000000" font-family="sans-serif" font-size="14" lengthAdjust="spacing" textLength="186.7578" x="929.9414" y="613.7832">TemplateManagementService</text><rect fill="#E2E2F0" height="51.2422" rx="2.5" ry="2.5" style="stroke:#181818;stroke-width:0.5;" width="75.4893" x="1133.6992" y="71"/><text fill="#000000" font-family="sans-serif" font-size="14" font-style="italic" lengthAdjust="spacing" textLength="61.4893" x="1140.6992" y="93.1074">&#171;domain&#187;</text><text fill="#000000" font-family="sans-serif" font-size="14" lengthAdjust="spacing" textLength="58.3584" x="1142.2646" y="111.7285">Template</text><rect fill="#E2E2F0" height="51.2422" rx="2.5" ry="2.5" style="stroke:#181818;stroke-width:0.5;" width="75.4893" x="1133.6992" y="573.0547"/><text fill="#000000" font-family="sans-serif" font-size="14" font-style="italic" lengthAdjust="spacing" textLength="61.4893" x="1140.6992" y="595.1621">&#171;domain&#187;</text><text fill="#000000" font-family="sans-serif" font-size="14" lengthAdjust="spacing" textLength="58.3584" x="1142.2646" y="613.7832">Template</text><rect fill="#E2E2F0" height="51.2422" rx="2.5" ry="2.5" style="stroke:#181818;stroke-width:0.5;" width="139.2754" x="1219.1885" y="71"/><text fill="#000000" font-family="sans-serif" font-size="14" font-style="italic" lengthAdjust="spacing" textLength="77.041" x="1250.3057" y="93.1074">&#171;repository&#187;</text><text fill="#000000" font-family="sans-serif" font-size="14" lengthAdjust="spacing" textLength="125.2754" x="1226.1885" y="111.7285">TemplateRepository</text><rect fill="#E2E2F0" height="51.2422" rx="2.5" ry="2.5" style="stroke:#181818;stroke-width:0.5;" width="139.2754" x="1219.1885" y="573.0547"/><text fill="#000000" font-family="sans-serif" font-size="14" font-style="italic" lengthAdjust="spacing" textLength="77.041" x="1250.3057" y="595.1621">&#171;repository&#187;</text><text fill="#000000" font-family="sans-serif" font-size="14" lengthAdjust="spacing" textLength="125.2754" x="1226.1885" y="613.7832">TemplateRepository</text><rect fill="#FFFFFF" height="422.8125" style="stroke:#181818;stroke-width:1.0;" width="10" x="48.5137" y="133.2422"/><rect fill="#FFFFFF" height="93.5332" style="stroke:#181818;stroke-width:1.0;" width="10" x="299.3115" y="156.5332"/><rect fill="#FFFFFF" height="274.6973" style="stroke:#181818;stroke-width:1.0;" width="10" x="299.3115" y="281.3574"/><rect fill="#FFFFFF" height="212.1152" style="stroke:#181818;stroke-width:1.0;" width="10" x="521.9404" y="312.6484"/><rect fill="#FFFFFF" height="104.582" style="stroke:#181818;stroke-width:1.0;" width="10" x="1018.3203" y="406.1816"/><rect fill="#FFFFFF" height="14" style="stroke:#181818;stroke-width:1.0;" width="10" x="1166.4438" y="437.4727"/><rect fill="#FFFFFF" height="14" style="stroke:#181818;stroke-width:1.0;" width="10" x="1283.8262" y="482.7637"/><polygon fill="#181818" points="287.3115,152.5332,297.3115,156.5332,287.3115,160.5332,291.3115,156.5332" style="stroke:#181818;stroke-width:1.0;"/><line style="stroke:#181818;stroke-width:1.0;" x1="58.5137" x2="293.3115" y1="156.5332" y2="156.5332"/><text fill="#000000" font-family="sans-serif" font-size="13" lengthAdjust="spacing" textLength="39.0063" x="65.5137" y="151.2705">show()</text><polygon fill="#181818" points="418.0649,183.8242,428.0649,187.8242,418.0649,191.8242,422.0649,187.8242" style="stroke:#181818;stroke-width:1.0;"/><line style="stroke:#181818;stroke-width:1.0;" x1="309.3115" x2="424.0649" y1="187.8242" y2="187.8242"/><text fill="#000000" font-family="sans-serif" font-size="13" lengthAdjust="spacing" textLength="44.7891" x="316.3115" y="182.5615">create()</text><rect fill="#E2E2F0" height="51.2422" rx="2.5" ry="2.5" style="stroke:#181818;stroke-width:0.5;" width="193.751" x="430.0649" y="164.5332"/><text fill="#000000" font-family="sans-serif" font-size="14" font-style="italic" lengthAdjust="spacing" textLength="82.5098" x="485.6855" y="186.6406">&#171;application&#187;</text><text fill="#000000" font-family="sans-serif" font-size="14" lengthAdjust="spacing" textLength="179.751" x="437.0649" y="205.2617">ConfigureTemplateController</text><polygon fill="#181818" points="69.5137,246.0664,59.5137,250.0664,69.5137,254.0664,65.5137,250.0664" style="stroke:#181818;stroke-width:1.0;"/><line style="stroke:#181818;stroke-width:1.0;stroke-dasharray:2.0,2.0;" x1="63.5137" x2="303.3115" y1="250.0664" y2="250.0664"/><text fill="#000000" font-family="sans-serif" font-size="13" lengthAdjust="spacing" textLength="216.7979" x="75.5137" y="244.8037">Request Template name and Content</text><polygon fill="#181818" points="287.3115,277.3574,297.3115,281.3574,287.3115,285.3574,291.3115,281.3574" style="stroke:#181818;stroke-width:1.0;"/><line style="stroke:#181818;stroke-width:1.0;" x1="58.5137" x2="293.3115" y1="281.3574" y2="281.3574"/><text fill="#000000" font-family="sans-serif" font-size="13" lengthAdjust="spacing" textLength="119.228" x="65.5137" y="276.0947">Insert Template data</text><polygon fill="#181818" points="509.9404,308.6484,519.9404,312.6484,509.9404,316.6484,513.9404,312.6484" style="stroke:#181818;stroke-width:1.0;"/><line style="stroke:#181818;stroke-width:1.0;" x1="309.3115" x2="515.9404" y1="312.6484" y2="312.6484"/><text fill="#000000" font-family="sans-serif" font-size="13" lengthAdjust="spacing" textLength="193.6289" x="316.3115" y="307.3857">registerTemplate(Name, Content)</text><polygon fill="#181818" points="758.542,339.9395,768.542,343.9395,758.542,347.9395,762.542,343.9395" style="stroke:#181818;stroke-width:1.0;"/><line style="stroke:#181818;stroke-width:1.0;" x1="531.9404" x2="764.542" y1="343.9395" y2="343.9395"/><text fill="#000000" font-family="sans-serif" font-size="13" lengthAdjust="spacing" textLength="214.6016" x="538.9404" y="338.6768">ensureAuthenticatedUserHasAnyOf()</text><rect fill="#E2E2F0" height="51.2422" rx="2.5" ry="2.5" style="stroke:#181818;stroke-width:0.5;" width="142.3994" x="770.542" y="320.6484"/><text fill="#000000" font-family="sans-serif" font-size="14" font-style="italic" lengthAdjust="spacing" textLength="42.8203" x="820.3315" y="342.7559">&#171;auth&#187;</text><text fill="#000000" font-family="sans-serif" font-size="14" lengthAdjust="spacing" textLength="128.3994" x="777.542" y="361.377">AuthorizationService</text><polygon fill="#181818" points="1006.3203,402.1816,1016.3203,406.1816,1006.3203,410.1816,1010.3203,406.1816" style="stroke:#181818;stroke-width:1.0;"/><line style="stroke:#181818;stroke-width:1.0;" x1="531.9404" x2="1012.3203" y1="406.1816" y2="406.1816"/><text fill="#000000" font-family="sans-serif" font-size="13" lengthAdjust="spacing" textLength="193.6289" x="538.9404" y="400.9189">registerTemplate(Name, Content)</text><polygon fill="#181818" points="1154.4438,433.4727,1164.4438,437.4727,1154.4438,441.4727,1158.4438,437.4727" style="stroke:#181818;stroke-width:1.0;"/><line style="stroke:#181818;stroke-width:1.0;" x1="1028.3203" x2="1160.4438" y1="437.4727" y2="437.4727"/><text fill="#000000" font-family="sans-serif" font-size="13" lengthAdjust="spacing" textLength="44.7891" x="1035.3203" y="432.21">create()</text><polygon fill="#181818" points="1039.3203,447.4727,1029.3203,451.4727,1039.3203,455.4727,1035.3203,451.4727" style="stroke:#181818;stroke-width:1.0;"/><line style="stroke:#181818;stroke-width:1.0;stroke-dasharray:2.0,2.0;" x1="1033.3203" x2="1170.4438" y1="451.4727" y2="451.4727"/><polygon fill="#181818" points="1271.8262,478.7637,1281.8262,482.7637,1271.8262,486.7637,1275.8262,482.7637" style="stroke:#181818;stroke-width:1.0;"/><line style="stroke:#181818;stroke-width:1.0;" x1="1028.3203" x2="1277.8262" y1="482.7637" y2="482.7637"/><text fill="#000000" font-family="sans-serif" font-size="13" lengthAdjust="spacing" textLength="114.1563" x="1035.3203" y="477.501">save(newTemplate)</text><polygon fill="#181818" points="1039.3203,492.7637,1029.3203,496.7637,1039.3203,500.7637,1035.3203,496.7637" style="stroke:#181818;stroke-width:1.0;"/><line style="stroke:#181818;stroke-width:1.0;stroke-dasharray:2.0,2.0;" x1="1033.3203" x2="1287.8262" y1="496.7637" y2="496.7637"/><polygon fill="#181818" points="542.9404,506.7637,532.9404,510.7637,542.9404,514.7637,538.9404,510.7637" style="stroke:#181818;stroke-width:1.0;"/><line style="stroke:#181818;stroke-width:1.0;stroke-dasharray:2.0,2.0;" x1="536.9404" x2="1022.3203" y1="510.7637" y2="510.7637"/><polygon fill="#181818" points="320.3115,520.7637,310.3115,524.7637,320.3115,528.7637,316.3115,524.7637" style="stroke:#181818;stroke-width:1.0;"/><line style="stroke:#181818;stroke-width:1.0;stroke-dasharray:2.0,2.0;" x1="314.3115" x2="525.9404" y1="524.7637" y2="524.7637"/><polygon fill="#181818" points="64.5137,552.0547,54.5137,556.0547,64.5137,560.0547,60.5137,556.0547" style="stroke:#181818;stroke-width:1.0;"/><line style="stroke:#181818;stroke-width:1.0;stroke-dasharray:2.0,2.0;" x1="58.5137" x2="303.3115" y1="556.0547" y2="556.0547"/><text fill="#000000" font-family="sans-serif" font-size="13" lengthAdjust="spacing" textLength="145.2344" x="70.5137" y="550.792">Inform operation success</text><!--SRC=[bPJ1Ri8m38RlUGgB4qpR2o24XBR3EB19R3o0rHg8r2PT4fZOqyy9AqqXBLqkLMFxys_7YPEk8FYWhmEfZE15uivWAGHcJXiOFQzNi4A5Ep8ZG0iBloqgD4vciaBbs4MhhTmT37rIMHNeQBCChfibp6QL8KlAePDQpUTt0dd36LqKVxcQNmPXLHKoIt8M1xVNHlu4umUPeypeB3PXy2ZUlcRK4iwrbYmv1dLQ-uNLOIq6X-IwHDdflQPAMybjFhNYccqccCiFKy9XoQDdduz7X0yypVaCfc3t-diy4S3huhTP2i7dmnvDanyUO0gP8RQpUp2pFQ2ciFO3ObrJXSAI05KU0DmGaLEBtfAmL9PC59oZGvPz8md-rhKq5cPe9wqZKpF6RopWiSu-kOIsc0r1j1pyYkY-pCIeX8QGiZoXtinf_3bJlk5YNj4krEbzwpjrJOuwaSBUaz8zRF_hGgiJdL1nAyUlRX6HmdXUKf2Rx7UIXO7hKPgAZPezC4jlIT4juvk3Hneh-gwD4p6ip0QI3hYH56NjRy703jmJqDEArhqJ0t8DcQXumCEJ83gWYTJnEmJ-ATbgKuAko8HB1VQGPMIjID0uJtmNmzlu2m00]--></g></svg>