<svg xmlns="http://www.w3.org/2000/svg" xmlns:xlink="http://www.w3.org/1999/xlink" contentStyleType="text/css" height="592px" preserveAspectRatio="none" style="width:619px;height:592px;background:#FFFFFF;" version="1.1" viewBox="0 0 619 592" width="619px" zoomAndPan="magnify"><title>System Sequence Diagram - US318</title><defs/><g><text fill="#000000" font-family="sans-serif" font-size="14" font-weight="bold" lengthAdjust="spacing" textLength="234.9922" x="188.4731" y="30.1074">System Sequence Diagram - US318</text><rect fill="#FFFFFF" height="366.9102" style="stroke:#181818;stroke-width:1.0;" width="10" x="48.5137" y="133.2422"/><rect fill="#FFFFFF" height="75.582" style="stroke:#181818;stroke-width:1.0;" width="10" x="367.2715" y="201.8242"/><rect fill="#FFFFFF" height="75.582" style="stroke:#181818;stroke-width:1.0;" width="10" x="367.2715" y="308.6973"/><rect fill="#FFFFFF" height="75.582" style="stroke:#181818;stroke-width:1.0;" width="10" x="367.2715" y="415.5703"/><line style="stroke:#181818;stroke-width:0.5;stroke-dasharray:5.0,5.0;" x1="53" x2="53" y1="123.2422" y2="509.1523"/><line style="stroke:#181818;stroke-width:0.5;stroke-dasharray:5.0,5.0;" x1="371.9336" x2="371.9336" y1="123.2422" y2="509.1523"/><text fill="#000000" font-family="sans-serif" font-size="14" lengthAdjust="spacing" textLength="91.0273" x="5" y="119.7285">CRM Manager</text><ellipse cx="53.5137" cy="53.1211" fill="#E3E3E3" rx="8" ry="8" style="stroke:#181818;stroke-width:0.5;"/><path d="M53.5137,61.1211 L53.5137,88.1211 M40.5137,69.1211 L66.5137,69.1211 M53.5137,88.1211 L40.5137,103.1211 M53.5137,88.1211 L66.5137,103.1211 " fill="none" style="stroke:#181818;stroke-width:0.5;"/><text fill="#000000" font-family="sans-serif" font-size="14" lengthAdjust="spacing" textLength="91.0273" x="5" y="523.2598">CRM Manager</text><ellipse cx="53.5137" cy="535.2734" fill="#E3E3E3" rx="8" ry="8" style="stroke:#181818;stroke-width:0.5;"/><path d="M53.5137,543.2734 L53.5137,570.2734 M40.5137,551.2734 L66.5137,551.2734 M53.5137,570.2734 L40.5137,585.2734 M53.5137,570.2734 L66.5137,585.2734 " fill="none" style="stroke:#181818;stroke-width:0.5;"/><rect fill="#E3E3E3" height="32.6211" rx="2.5" ry="2.5" style="stroke:#181818;stroke-width:0.5;" width="60.6758" x="341.9336" y="89.6211"/><text fill="#000000" font-family="sans-serif" font-size="14" lengthAdjust="spacing" textLength="46.6758" x="348.9336" y="111.7285">System</text><rect fill="#E3E3E3" height="32.6211" rx="2.5" ry="2.5" style="stroke:#181818;stroke-width:0.5;" width="60.6758" x="341.9336" y="508.1523"/><text fill="#000000" font-family="sans-serif" font-size="14" lengthAdjust="spacing" textLength="46.6758" x="348.9336" y="530.2598">System</text><rect fill="#FFFFFF" height="366.9102" style="stroke:#181818;stroke-width:1.0;" width="10" x="48.5137" y="133.2422"/><rect fill="#FFFFFF" height="75.582" style="stroke:#181818;stroke-width:1.0;" width="10" x="367.2715" y="201.8242"/><rect fill="#FFFFFF" height="75.582" style="stroke:#181818;stroke-width:1.0;" width="10" x="367.2715" y="308.6973"/><rect fill="#FFFFFF" height="75.582" style="stroke:#181818;stroke-width:1.0;" width="10" x="367.2715" y="415.5703"/><rect fill="#EEEEEE" height="3" style="stroke:#EEEEEE;stroke-width:1.0;" width="612.9385" x="0" y="154.8877"/><line style="stroke:#000000;stroke-width:1.0;" x1="0" x2="612.9385" y1="154.8877" y2="154.8877"/><line style="stroke:#000000;stroke-width:1.0;" x1="0" x2="612.9385" y1="157.8877" y2="157.8877"/><rect fill="#EEEEEE" height="25.291" style="stroke:#000000;stroke-width:2.0;" width="260.3018" x="176.3184" y="143.2422"/><text fill="#000000" font-family="sans-serif" font-size="13" font-weight="bold" lengthAdjust="spacing" textLength="242.6899" x="182.3184" y="161.2705">Configure the Show Proposal Template</text><polygon fill="#181818" points="355.2715,197.8242,365.2715,201.8242,355.2715,205.8242,359.2715,201.8242" style="stroke:#181818;stroke-width:1.0;"/><line style="stroke:#181818;stroke-width:1.0;" x1="58.5137" x2="361.2715" y1="201.8242" y2="201.8242"/><text fill="#000000" font-family="sans-serif" font-size="13" lengthAdjust="spacing" textLength="213.1733" x="65.5137" y="196.5615">Request proposals ready for creation</text><line style="stroke:#181818;stroke-width:1.0;" x1="377.2715" x2="419.2715" y1="233.1152" y2="233.1152"/><line style="stroke:#181818;stroke-width:1.0;" x1="419.2715" x2="419.2715" y1="233.1152" y2="246.1152"/><line style="stroke:#181818;stroke-width:1.0;" x1="378.2715" x2="419.2715" y1="246.1152" y2="246.1152"/><polygon fill="#181818" points="388.2715,242.1152,378.2715,246.1152,388.2715,250.1152,384.2715,246.1152" style="stroke:#181818;stroke-width:1.0;"/><text fill="#000000" font-family="sans-serif" font-size="13" lengthAdjust="spacing" textLength="202.3252" x="384.2715" y="227.8525">Get all proposals ready for creation</text><polygon fill="#181818" points="69.5137,273.4063,59.5137,277.4063,69.5137,281.4063,65.5137,277.4063" style="stroke:#181818;stroke-width:1.0;"/><line style="stroke:#181818;stroke-width:1.0;" x1="63.5137" x2="371.2715" y1="277.4063" y2="277.4063"/><text fill="#000000" font-family="sans-serif" font-size="13" lengthAdjust="spacing" textLength="208.8315" x="75.5137" y="272.1436">Provide proposals ready for creation</text><polygon fill="#181818" points="355.2715,304.6973,365.2715,308.6973,355.2715,312.6973,359.2715,308.6973" style="stroke:#181818;stroke-width:1.0;"/><line style="stroke:#181818;stroke-width:1.0;" x1="58.5137" x2="361.2715" y1="308.6973" y2="308.6973"/><text fill="#000000" font-family="sans-serif" font-size="13" lengthAdjust="spacing" textLength="289.7578" x="65.5137" y="303.4346">Provide a show Proposal to configure its Template</text><line style="stroke:#181818;stroke-width:1.0;" x1="377.2715" x2="419.2715" y1="339.9883" y2="339.9883"/><line style="stroke:#181818;stroke-width:1.0;" x1="419.2715" x2="419.2715" y1="339.9883" y2="352.9883"/><line style="stroke:#181818;stroke-width:1.0;" x1="378.2715" x2="419.2715" y1="352.9883" y2="352.9883"/><polygon fill="#181818" points="388.2715,348.9883,378.2715,352.9883,388.2715,356.9883,384.2715,352.9883" style="stroke:#181818;stroke-width:1.0;"/><text fill="#000000" font-family="sans-serif" font-size="13" lengthAdjust="spacing" textLength="206.667" x="384.2715" y="334.7256">Get all the show proposal templates</text><polygon fill="#181818" points="69.5137,380.2793,59.5137,384.2793,69.5137,388.2793,65.5137,384.2793" style="stroke:#181818;stroke-width:1.0;"/><line style="stroke:#181818;stroke-width:1.0;" x1="63.5137" x2="371.2715" y1="384.2793" y2="384.2793"/><text fill="#000000" font-family="sans-serif" font-size="13" lengthAdjust="spacing" textLength="197.2725" x="75.5137" y="379.0166">Request Show Proposal Template</text><polygon fill="#181818" points="355.2715,411.5703,365.2715,415.5703,355.2715,419.5703,359.2715,415.5703" style="stroke:#181818;stroke-width:1.0;"/><line style="stroke:#181818;stroke-width:1.0;" x1="58.5137" x2="361.2715" y1="415.5703" y2="415.5703"/><text fill="#000000" font-family="sans-serif" font-size="13" lengthAdjust="spacing" textLength="192.9307" x="65.5137" y="410.3076">Provide Show Proposal Template</text><line style="stroke:#181818;stroke-width:1.0;" x1="377.2715" x2="419.2715" y1="446.8613" y2="446.8613"/><line style="stroke:#181818;stroke-width:1.0;" x1="419.2715" x2="419.2715" y1="446.8613" y2="459.8613"/><line style="stroke:#181818;stroke-width:1.0;" x1="378.2715" x2="419.2715" y1="459.8613" y2="459.8613"/><polygon fill="#181818" points="388.2715,455.8613,378.2715,459.8613,388.2715,463.8613,384.2715,459.8613" style="stroke:#181818;stroke-width:1.0;"/><text fill="#000000" font-family="sans-serif" font-size="13" lengthAdjust="spacing" textLength="204.5151" x="384.2715" y="441.5986">Update the show proposal template</text><polygon fill="#181818" points="69.5137,487.1523,59.5137,491.1523,69.5137,495.1523,65.5137,491.1523" style="stroke:#181818;stroke-width:1.0;"/><line style="stroke:#181818;stroke-width:1.0;" x1="63.5137" x2="371.2715" y1="491.1523" y2="491.1523"/><text fill="#000000" font-family="sans-serif" font-size="13" lengthAdjust="spacing" textLength="174.1606" x="75.5137" y="485.8896">Confirm configuration updated</text><!--SRC=[ZP8zRiCm38LtdOB8dg7eKWHmbnJe5A28cmCGCcCBqLybEe5lNrbnRAEDqsuKfFVuFbBnfAp7W0QCiqusmHa23Ys9EDvub2UigUHE4mIIZBRMymUnmSfTbAtXY3gI42ZP1LXjzplOeKtQi0AC88CPZY89MKdbqJAioYuocVmavb88LfoQNI-WfA-Mh2HuKrZt3TTmA9-VNeGe2jWwUrHr6rBi9YaQTu6FuBoBgE6JZDV814MHGwbpVvZ545CDwzUXEsnWttUC37vmYeaRgmwE2KkcafMpa-4GUb3FVTw90RL-x3CJpk9iUeopgkYnkAAVCHQXRdwO5ZQV4ZkGun0Lnt5ilmYdfDTY0knddrtzw3gOn4M-sv3lx-mEsHzS2px_sTF1L_s3POebXlpxWXa7c9S2RRQhxY1y0m00]--></g></svg>