<svg xmlns="http://www.w3.org/2000/svg" xmlns:xlink="http://www.w3.org/1999/xlink" contentStyleType="text/css" height="547px" preserveAspectRatio="none" style="width:617px;height:547px;background:#FFFFFF;" version="1.1" viewBox="0 0 617 547" width="617px" zoomAndPan="magnify"><title>System Sequence Diagram - US318</title><defs/><g><text fill="#000000" font-family="sans-serif" font-size="14" font-weight="bold" lengthAdjust="spacing" textLength="234.9922" x="187.0122" y="30.1074">System Sequence Diagram - US318</text><rect fill="#FFFFFF" height="322.6191" style="stroke:#181818;stroke-width:1.0;" width="10" x="48.5137" y="133.2422"/><rect fill="#FFFFFF" height="75.582" style="stroke:#181818;stroke-width:1.0;" width="10" x="364.3496" y="201.8242"/><rect fill="#FFFFFF" height="31.291" style="stroke:#181818;stroke-width:1.0;" width="10" x="364.3496" y="308.6973"/><rect fill="#FFFFFF" height="75.582" style="stroke:#181818;stroke-width:1.0;" width="10" x="364.3496" y="371.2793"/><line style="stroke:#181818;stroke-width:0.5;stroke-dasharray:5.0,5.0;" x1="53" x2="53" y1="123.2422" y2="464.8613"/><line style="stroke:#181818;stroke-width:0.5;stroke-dasharray:5.0,5.0;" x1="369.0117" x2="369.0117" y1="123.2422" y2="464.8613"/><text fill="#000000" font-family="sans-serif" font-size="14" lengthAdjust="spacing" textLength="91.0273" x="5" y="119.7285">CRM Manager</text><ellipse cx="53.5137" cy="53.1211" fill="#E3E3E3" rx="8" ry="8" style="stroke:#181818;stroke-width:0.5;"/><path d="M53.5137,61.1211 L53.5137,88.1211 M40.5137,69.1211 L66.5137,69.1211 M53.5137,88.1211 L40.5137,103.1211 M53.5137,88.1211 L66.5137,103.1211 " fill="none" style="stroke:#181818;stroke-width:0.5;"/><text fill="#000000" font-family="sans-serif" font-size="14" lengthAdjust="spacing" textLength="91.0273" x="5" y="478.9688">CRM Manager</text><ellipse cx="53.5137" cy="490.9824" fill="#E3E3E3" rx="8" ry="8" style="stroke:#181818;stroke-width:0.5;"/><path d="M53.5137,498.9824 L53.5137,525.9824 M40.5137,506.9824 L66.5137,506.9824 M53.5137,525.9824 L40.5137,540.9824 M53.5137,525.9824 L66.5137,540.9824 " fill="none" style="stroke:#181818;stroke-width:0.5;"/><rect fill="#E3E3E3" height="32.6211" rx="2.5" ry="2.5" style="stroke:#181818;stroke-width:0.5;" width="60.6758" x="339.0117" y="89.6211"/><text fill="#000000" font-family="sans-serif" font-size="14" lengthAdjust="spacing" textLength="46.6758" x="346.0117" y="111.7285">System</text><rect fill="#E3E3E3" height="32.6211" rx="2.5" ry="2.5" style="stroke:#181818;stroke-width:0.5;" width="60.6758" x="339.0117" y="463.8613"/><text fill="#000000" font-family="sans-serif" font-size="14" lengthAdjust="spacing" textLength="46.6758" x="346.0117" y="485.9688">System</text><rect fill="#FFFFFF" height="322.6191" style="stroke:#181818;stroke-width:1.0;" width="10" x="48.5137" y="133.2422"/><rect fill="#FFFFFF" height="75.582" style="stroke:#181818;stroke-width:1.0;" width="10" x="364.3496" y="201.8242"/><rect fill="#FFFFFF" height="31.291" style="stroke:#181818;stroke-width:1.0;" width="10" x="364.3496" y="308.6973"/><rect fill="#FFFFFF" height="75.582" style="stroke:#181818;stroke-width:1.0;" width="10" x="364.3496" y="371.2793"/><rect fill="#EEEEEE" height="3" style="stroke:#EEEEEE;stroke-width:1.0;" width="610.0166" x="0" y="154.8877"/><line style="stroke:#000000;stroke-width:1.0;" x1="0" x2="610.0166" y1="154.8877" y2="154.8877"/><line style="stroke:#000000;stroke-width:1.0;" x1="0" x2="610.0166" y1="157.8877" y2="157.8877"/><rect fill="#EEEEEE" height="25.291" style="stroke:#000000;stroke-width:2.0;" width="187.3481" x="211.3342" y="143.2422"/><text fill="#000000" font-family="sans-serif" font-size="13" font-weight="bold" lengthAdjust="spacing" textLength="169.7363" x="217.3342" y="161.2705">Configure a Show Proposal</text><polygon fill="#181818" points="352.3496,197.8242,362.3496,201.8242,352.3496,205.8242,356.3496,201.8242" style="stroke:#181818;stroke-width:1.0;"/><line style="stroke:#181818;stroke-width:1.0;" x1="58.5137" x2="358.3496" y1="201.8242" y2="201.8242"/><text fill="#000000" font-family="sans-serif" font-size="13" lengthAdjust="spacing" textLength="158.2598" x="65.5137" y="196.5615">Configure a Show Proposal</text><line style="stroke:#181818;stroke-width:1.0;" x1="374.3496" x2="416.3496" y1="233.1152" y2="233.1152"/><line style="stroke:#181818;stroke-width:1.0;" x1="416.3496" x2="416.3496" y1="233.1152" y2="246.1152"/><line style="stroke:#181818;stroke-width:1.0;" x1="375.3496" x2="416.3496" y1="246.1152" y2="246.1152"/><polygon fill="#181818" points="385.3496,242.1152,375.3496,246.1152,385.3496,250.1152,381.3496,246.1152" style="stroke:#181818;stroke-width:1.0;"/><text fill="#000000" font-family="sans-serif" font-size="13" lengthAdjust="spacing" textLength="206.667" x="381.3496" y="227.8525">Get all the show proposal templates</text><polygon fill="#181818" points="69.5137,273.4063,59.5137,277.4063,69.5137,281.4063,65.5137,277.4063" style="stroke:#181818;stroke-width:1.0;"/><line style="stroke:#181818;stroke-width:1.0;" x1="63.5137" x2="368.3496" y1="277.4063" y2="277.4063"/><text fill="#000000" font-family="sans-serif" font-size="13" lengthAdjust="spacing" textLength="197.2725" x="75.5137" y="272.1436">Request Show Proposal Template</text><polygon fill="#181818" points="352.3496,304.6973,362.3496,308.6973,352.3496,312.6973,356.3496,308.6973" style="stroke:#181818;stroke-width:1.0;"/><line style="stroke:#181818;stroke-width:1.0;" x1="58.5137" x2="358.3496" y1="308.6973" y2="308.6973"/><text fill="#000000" font-family="sans-serif" font-size="13" lengthAdjust="spacing" textLength="192.9307" x="65.5137" y="303.4346">Provide Show Proposal Template</text><polygon fill="#181818" points="69.5137,335.9883,59.5137,339.9883,69.5137,343.9883,65.5137,339.9883" style="stroke:#181818;stroke-width:1.0;"/><line style="stroke:#181818;stroke-width:1.0;" x1="63.5137" x2="368.3496" y1="339.9883" y2="339.9883"/><text fill="#000000" font-family="sans-serif" font-size="13" lengthAdjust="spacing" textLength="281.8359" x="75.5137" y="334.7256">Request new configuration for the show proposal</text><polygon fill="#181818" points="352.3496,367.2793,362.3496,371.2793,352.3496,375.2793,356.3496,371.2793" style="stroke:#181818;stroke-width:1.0;"/><line style="stroke:#181818;stroke-width:1.0;" x1="58.5137" x2="358.3496" y1="371.2793" y2="371.2793"/><text fill="#000000" font-family="sans-serif" font-size="13" lengthAdjust="spacing" textLength="149.5889" x="65.5137" y="366.0166">Provide new configuration</text><line style="stroke:#181818;stroke-width:1.0;" x1="374.3496" x2="416.3496" y1="402.5703" y2="402.5703"/><line style="stroke:#181818;stroke-width:1.0;" x1="416.3496" x2="416.3496" y1="402.5703" y2="415.5703"/><line style="stroke:#181818;stroke-width:1.0;" x1="375.3496" x2="416.3496" y1="415.5703" y2="415.5703"/><polygon fill="#181818" points="385.3496,411.5703,375.3496,415.5703,385.3496,419.5703,381.3496,415.5703" style="stroke:#181818;stroke-width:1.0;"/><text fill="#000000" font-family="sans-serif" font-size="13" lengthAdjust="spacing" textLength="204.5151" x="381.3496" y="397.3076">Update the show proposal template</text><polygon fill="#181818" points="69.5137,442.8613,59.5137,446.8613,69.5137,450.8613,65.5137,446.8613" style="stroke:#181818;stroke-width:1.0;"/><line style="stroke:#181818;stroke-width:1.0;" x1="63.5137" x2="368.3496" y1="446.8613" y2="446.8613"/><text fill="#000000" font-family="sans-serif" font-size="13" lengthAdjust="spacing" textLength="174.1606" x="75.5137" y="441.5986">Confirm configuration updated</text><!--SRC=[bP71ReCm38RlUGgBEuTfbwaIlNJIJfMciZw05Gn43KcQcAA-_GAbBOAnQJT7zk__-vrmKiQXnmOQQwoilMq8sBSamgFZK9wmefolci2JP3ILdWw46WlRALD1YJgG42ZPUaXsXptiqKIjJm03ID-CJn65hAHoQ1YI_1gOcc4a3AKGh3YQtHgGqxab8mdU5LQzOGh7_FNbJOWiWvqrfQfQJu2GrxQ3Js-T3QWXoteGTK6cgRLurf1kHqVOh2zwRhdJZPfqUoisy44Cg3Lm7OTwhRj3nBRJKHicgWbDz3tqwGBFuBz6dIXeRh_27wKNLT3QdaMAFt0CTI37ao0hQw2CVxe8-7- -nU9Vo1xYeolwWVNxhiKPVjKtioZjiAxu0VuR]--></g></svg>