<svg xmlns="http://www.w3.org/2000/svg" xmlns:xlink="http://www.w3.org/1999/xlink" contentStyleType="text/css" height="459px" preserveAspectRatio="none" style="width:449px;height:459px;background:#FFFFFF;" version="1.1" viewBox="0 0 449 459" width="449px" zoomAndPan="magnify"><title>System Sequence Diagram - US323</title><defs/><g><text fill="#000000" font-family="sans-serif" font-size="14" font-weight="bold" lengthAdjust="spacing" textLength="234.9922" x="103.3601" y="30.1074">System Sequence Diagram - US323</text><rect fill="#FFFFFF" height="234.0371" style="stroke:#181818;stroke-width:1.0;" width="10" x="39.5723" y="133.2422"/><rect fill="#FFFFFF" height="31.291" style="stroke:#181818;stroke-width:1.0;" width="10" x="402.3745" y="201.8242"/><rect fill="#FFFFFF" height="31.291" style="stroke:#181818;stroke-width:1.0;" width="10" x="402.3745" y="264.4063"/><rect fill="#FFFFFF" height="31.291" style="stroke:#181818;stroke-width:1.0;" width="10" x="402.3745" y="326.9883"/><line style="stroke:#181818;stroke-width:0.5;stroke-dasharray:5.0,5.0;" x1="44" x2="44" y1="123.2422" y2="376.2793"/><line style="stroke:#181818;stroke-width:0.5;stroke-dasharray:5.0,5.0;" x1="407.0366" x2="407.0366" y1="123.2422" y2="376.2793"/><text fill="#000000" font-family="sans-serif" font-size="14" lengthAdjust="spacing" textLength="73.1445" x="5" y="119.7285">Drone Tech</text><ellipse cx="44.5723" cy="53.1211" fill="#E3E3E3" rx="8" ry="8" style="stroke:#181818;stroke-width:0.5;"/><path d="M44.5723,61.1211 L44.5723,88.1211 M31.5723,69.1211 L57.5723,69.1211 M44.5723,88.1211 L31.5723,103.1211 M44.5723,88.1211 L57.5723,103.1211 " fill="none" style="stroke:#181818;stroke-width:0.5;"/><text fill="#000000" font-family="sans-serif" font-size="14" lengthAdjust="spacing" textLength="73.1445" x="5" y="390.3867">Drone Tech</text><ellipse cx="44.5723" cy="402.4004" fill="#E3E3E3" rx="8" ry="8" style="stroke:#181818;stroke-width:0.5;"/><path d="M44.5723,410.4004 L44.5723,437.4004 M31.5723,418.4004 L57.5723,418.4004 M44.5723,437.4004 L31.5723,452.4004 M44.5723,437.4004 L57.5723,452.4004 " fill="none" style="stroke:#181818;stroke-width:0.5;"/><rect fill="#E3E3E3" height="32.6211" rx="2.5" ry="2.5" style="stroke:#181818;stroke-width:0.5;" width="60.6758" x="377.0366" y="89.6211"/><text fill="#000000" font-family="sans-serif" font-size="14" lengthAdjust="spacing" textLength="46.6758" x="384.0366" y="111.7285">System</text><rect fill="#E3E3E3" height="32.6211" rx="2.5" ry="2.5" style="stroke:#181818;stroke-width:0.5;" width="60.6758" x="377.0366" y="375.2793"/><text fill="#000000" font-family="sans-serif" font-size="14" lengthAdjust="spacing" textLength="46.6758" x="384.0366" y="397.3867">System</text><rect fill="#FFFFFF" height="234.0371" style="stroke:#181818;stroke-width:1.0;" width="10" x="39.5723" y="133.2422"/><rect fill="#FFFFFF" height="31.291" style="stroke:#181818;stroke-width:1.0;" width="10" x="402.3745" y="201.8242"/><rect fill="#FFFFFF" height="31.291" style="stroke:#181818;stroke-width:1.0;" width="10" x="402.3745" y="264.4063"/><rect fill="#FFFFFF" height="31.291" style="stroke:#181818;stroke-width:1.0;" width="10" x="402.3745" y="326.9883"/><rect fill="#EEEEEE" height="3" style="stroke:#EEEEEE;stroke-width:1.0;" width="442.7124" x="0" y="154.8877"/><line style="stroke:#000000;stroke-width:1.0;" x1="0" x2="442.7124" y1="154.8877" y2="154.8877"/><line style="stroke:#000000;stroke-width:1.0;" x1="0" x2="442.7124" y1="157.8877" y2="157.8877"/><rect fill="#EEEEEE" height="25.291" style="stroke:#000000;stroke-width:2.0;" width="162.8208" x="139.9458" y="143.2422"/><text fill="#000000" font-family="sans-serif" font-size="13" font-weight="bold" lengthAdjust="spacing" textLength="145.209" x="145.9458" y="161.2705">Edit maintenance types</text><polygon fill="#181818" points="390.3745,197.8242,400.3745,201.8242,390.3745,205.8242,394.3745,201.8242" style="stroke:#181818;stroke-width:1.0;"/><line style="stroke:#181818;stroke-width:1.0;" x1="49.5723" x2="396.3745" y1="201.8242" y2="201.8242"/><text fill="#000000" font-family="sans-serif" font-size="13" lengthAdjust="spacing" textLength="179.9307" x="56.5723" y="196.5615">Asks to edit maintenance types</text><polygon fill="#181818" points="60.5723,229.1152,50.5723,233.1152,60.5723,237.1152,56.5723,233.1152" style="stroke:#181818;stroke-width:1.0;"/><line style="stroke:#181818;stroke-width:1.0;stroke-dasharray:2.0,2.0;" x1="54.5723" x2="406.3745" y1="233.1152" y2="233.1152"/><text fill="#000000" font-family="sans-serif" font-size="13" lengthAdjust="spacing" textLength="194.3906" x="66.5723" y="227.8525">Sends a list of maintenance types</text><polygon fill="#181818" points="390.3745,260.4063,400.3745,264.4063,390.3745,268.4063,394.3745,264.4063" style="stroke:#181818;stroke-width:1.0;"/><line style="stroke:#181818;stroke-width:1.0;" x1="49.5723" x2="396.3745" y1="264.4063" y2="264.4063"/><text fill="#000000" font-family="sans-serif" font-size="13" lengthAdjust="spacing" textLength="198.7324" x="56.5723" y="259.1436">Selects a maintenance type to edit</text><polygon fill="#181818" points="60.5723,291.6973,50.5723,295.6973,60.5723,299.6973,56.5723,295.6973" style="stroke:#181818;stroke-width:1.0;"/><line style="stroke:#181818;stroke-width:1.0;stroke-dasharray:2.0,2.0;" x1="54.5723" x2="406.3745" y1="295.6973" y2="295.6973"/><text fill="#000000" font-family="sans-serif" font-size="13" lengthAdjust="spacing" textLength="328.8022" x="66.5723" y="290.4346">asks for the new maintenance type name and description</text><polygon fill="#181818" points="390.3745,322.9883,400.3745,326.9883,390.3745,330.9883,394.3745,326.9883" style="stroke:#181818;stroke-width:1.0;"/><line style="stroke:#181818;stroke-width:1.0;" x1="49.5723" x2="396.3745" y1="326.9883" y2="326.9883"/><text fill="#000000" font-family="sans-serif" font-size="13" lengthAdjust="spacing" textLength="330.2622" x="56.5723" y="321.7256">Provides the new maintenance type name and deactivate</text><polygon fill="#181818" points="60.5723,354.2793,50.5723,358.2793,60.5723,362.2793,56.5723,358.2793" style="stroke:#181818;stroke-width:1.0;"/><line style="stroke:#181818;stroke-width:1.0;stroke-dasharray:2.0,2.0;" x1="54.5723" x2="406.3745" y1="358.2793" y2="358.2793"/><text fill="#000000" font-family="sans-serif" font-size="13" lengthAdjust="spacing" textLength="259.4351" x="66.5723" y="353.0166">Confirms the update of the maintenance type</text><!--SRC=[ZP7FQiCm38VlVWhHUo_hhP31M7SVP7i0OIk9Q29dbjhIjv_T_xGfz6PXwVjzbdNDCcB20OOeqNSf3WIMDkJqSZEYNsDBjUrxWaJUKDh-ja4x3777qaA3lP9pw2qccArI588VyjqCK26KibGkZnbx7b4CPlLUZOP3XnwEpXbRZZfUG4r_6n9Fi69iIzmSVkl5syAvgeAlm0O3iXW9bYRRZwHGLSM1jsXq4-ikHvY_dy9W2H-wLh08DCcwWivsfy5vPbo1o-mfGG6XPpM8pGGfq3rhMgYcFc-viEuPPyq7gITEM9xMvB-mZa1ezmWKp1-E4Y2G-iIZSPG9qIUctobkEK- -n3ypNvN_ZD9m6exmpHZAHDvhgUvZfepTFm00]--></g></svg>