<svg xmlns="http://www.w3.org/2000/svg" xmlns:xlink="http://www.w3.org/1999/xlink" contentStyleType="text/css" height="676px" preserveAspectRatio="none" style="width:1520px;height:676px;background:#FFFFFF;" version="1.1" viewBox="0 0 1520 676" width="1520px" zoomAndPan="magnify"><title>Sequence Diagram - US231</title><defs/><g><text fill="#000000" font-family="sans-serif" font-size="14" font-weight="bold" lengthAdjust="spacing" textLength="181.2959" x="670.3489" y="30.1074">Sequence Diagram - US231</text><rect fill="#FFFFFF" height="451.0645" style="stroke:#181818;stroke-width:1.0;" width="10" x="59.0171" y="133.2422"/><rect fill="#FFFFFF" height="74.9121" style="stroke:#181818;stroke-width:1.0;" width="10" x="366.9521" y="156.5332"/><rect fill="#FFFFFF" height="352.8613" style="stroke:#181818;stroke-width:1.0;" width="10" x="499.2539" y="231.4453"/><rect fill="#FFFFFF" height="281.2793" style="stroke:#181818;stroke-width:1.0;" width="10" x="631.5557" y="262.7363"/><rect fill="#FFFFFF" height="156.4551" style="stroke:#181818;stroke-width:1.0;" width="10" x="1118.5977" y="356.2695"/><rect fill="#FFFFFF" height="93.873" style="stroke:#181818;stroke-width:1.0;" width="10" x="1299.313" y="387.5605"/><rect fill="#FFFFFF" height="31.291" style="stroke:#181818;stroke-width:1.0;" width="10" x="1480.0283" y="418.8516"/><line style="stroke:#181818;stroke-width:0.5;stroke-dasharray:5.0,5.0;" x1="64" x2="64" y1="123.2422" y2="593.3066"/><line style="stroke:#181818;stroke-width:0.5;stroke-dasharray:5.0,5.0;" x1="371.7627" x2="371.7627" y1="123.2422" y2="593.3066"/><line style="stroke:#181818;stroke-width:0.5;stroke-dasharray:5.0,5.0;" x1="503.5195" x2="503.5195" y1="196.3438" y2="593.3066"/><line style="stroke:#181818;stroke-width:0.5;stroke-dasharray:5.0,5.0;" x1="636.4766" x2="636.4766" y1="123.2422" y2="593.3066"/><line style="stroke:#181818;stroke-width:0.5;stroke-dasharray:5.0,5.0;" x1="951.1572" x2="951.1572" y1="311.8574" y2="593.3066"/><line style="stroke:#181818;stroke-width:0.5;stroke-dasharray:5.0,5.0;" x1="1123.5566" x2="1123.5566" y1="123.2422" y2="593.3066"/><line style="stroke:#181818;stroke-width:0.5;stroke-dasharray:5.0,5.0;" x1="1304.0132" x2="1304.0132" y1="123.2422" y2="593.3066"/><line style="stroke:#181818;stroke-width:0.5;stroke-dasharray:5.0,5.0;" x1="1484.063" x2="1484.063" y1="123.2422" y2="593.3066"/><text fill="#000000" font-family="sans-serif" font-size="14" lengthAdjust="spacing" textLength="112.0342" x="5" y="119.7285">CRM Collaborator</text><ellipse cx="64.0171" cy="53.1211" fill="#E3E3E3" rx="8" ry="8" style="stroke:#181818;stroke-width:0.5;"/><path d="M64.0171,61.1211 L64.0171,88.1211 M51.0171,69.1211 L77.0171,69.1211 M64.0171,88.1211 L51.0171,103.1211 M64.0171,88.1211 L77.0171,103.1211 " fill="none" style="stroke:#181818;stroke-width:0.5;"/><text fill="#000000" font-family="sans-serif" font-size="14" lengthAdjust="spacing" textLength="112.0342" x="5" y="607.4141">CRM Collaborator</text><ellipse cx="64.0171" cy="619.4277" fill="#E3E3E3" rx="8" ry="8" style="stroke:#181818;stroke-width:0.5;"/><path d="M64.0171,627.4277 L64.0171,654.4277 M51.0171,635.4277 L77.0171,635.4277 M64.0171,654.4277 L51.0171,669.4277 M64.0171,654.4277 L77.0171,669.4277 " fill="none" style="stroke:#181818;stroke-width:0.5;"/><rect fill="#E3E3E3" height="32.6211" rx="2.5" ry="2.5" style="stroke:#181818;stroke-width:0.5;" width="114.3789" x="314.7627" y="89.6211"/><text fill="#000000" font-family="sans-serif" font-size="14" lengthAdjust="spacing" textLength="100.3789" x="321.7627" y="111.7285">ListFigureAction</text><rect fill="#E3E3E3" height="32.6211" rx="2.5" ry="2.5" style="stroke:#181818;stroke-width:0.5;" width="114.3789" x="314.7627" y="592.3066"/><text fill="#000000" font-family="sans-serif" font-size="14" lengthAdjust="spacing" textLength="100.3789" x="321.7627" y="614.4141">ListFigureAction</text><rect fill="#E3E3E3" height="32.6211" rx="2.5" ry="2.5" style="stroke:#181818;stroke-width:0.5;" width="89.4688" x="459.5195" y="592.3066"/><text fill="#000000" font-family="sans-serif" font-size="14" lengthAdjust="spacing" textLength="75.4688" x="466.5195" y="614.4141">ListFigureUI</text><rect fill="#E3E3E3" height="51.2422" rx="2.5" ry="2.5" style="stroke:#181818;stroke-width:0.5;" width="136.1582" x="568.4766" y="71"/><text fill="#000000" font-family="sans-serif" font-size="14" font-style="italic" lengthAdjust="spacing" textLength="82.5098" x="595.3008" y="93.1074">&#171;application&#187;</text><text fill="#000000" font-family="sans-serif" font-size="14" lengthAdjust="spacing" textLength="122.1582" x="575.4766" y="111.7285">ListFigureController</text><rect fill="#E3E3E3" height="51.2422" rx="2.5" ry="2.5" style="stroke:#181818;stroke-width:0.5;" width="136.1582" x="568.4766" y="592.3066"/><text fill="#000000" font-family="sans-serif" font-size="14" font-style="italic" lengthAdjust="spacing" textLength="82.5098" x="595.3008" y="614.4141">&#171;application&#187;</text><text fill="#000000" font-family="sans-serif" font-size="14" lengthAdjust="spacing" textLength="122.1582" x="575.4766" y="633.0352">ListFigureController</text><rect fill="#E3E3E3" height="51.2422" rx="2.5" ry="2.5" style="stroke:#181818;stroke-width:0.5;" width="142.3994" x="880.1572" y="592.3066"/><text fill="#000000" font-family="sans-serif" font-size="14" font-style="italic" lengthAdjust="spacing" textLength="42.8203" x="929.9468" y="614.4141">&#171;auth&#187;</text><text fill="#000000" font-family="sans-serif" font-size="14" lengthAdjust="spacing" textLength="128.3994" x="887.1572" y="633.0352">AuthorizationService</text><rect fill="#E3E3E3" height="51.2422" rx="2.5" ry="2.5" style="stroke:#181818;stroke-width:0.5;" width="182.082" x="1032.5566" y="71"/><text fill="#000000" font-family="sans-serif" font-size="14" font-style="italic" lengthAdjust="spacing" textLength="82.5098" x="1082.3428" y="93.1074">&#171;application&#187;</text><text fill="#000000" font-family="sans-serif" font-size="14" lengthAdjust="spacing" textLength="168.082" x="1039.5566" y="111.7285">FigureManagementService</text><rect fill="#E3E3E3" height="51.2422" rx="2.5" ry="2.5" style="stroke:#181818;stroke-width:0.5;" width="182.082" x="1032.5566" y="592.3066"/><text fill="#000000" font-family="sans-serif" font-size="14" font-style="italic" lengthAdjust="spacing" textLength="82.5098" x="1082.3428" y="614.4141">&#171;application&#187;</text><text fill="#000000" font-family="sans-serif" font-size="14" lengthAdjust="spacing" textLength="168.082" x="1039.5566" y="633.0352">FigureManagementService</text><rect fill="#E3E3E3" height="51.2422" rx="2.5" ry="2.5" style="stroke:#181818;stroke-width:0.5;" width="120.5996" x="1244.0132" y="71"/><text fill="#000000" font-family="sans-serif" font-size="14" font-style="italic" lengthAdjust="spacing" textLength="77.041" x="1265.7925" y="93.1074">&#171;repository&#187;</text><text fill="#000000" font-family="sans-serif" font-size="14" lengthAdjust="spacing" textLength="106.5996" x="1251.0132" y="111.7285">FigureRepository</text><rect fill="#E3E3E3" height="51.2422" rx="2.5" ry="2.5" style="stroke:#181818;stroke-width:0.5;" width="120.5996" x="1244.0132" y="592.3066"/><text fill="#000000" font-family="sans-serif" font-size="14" font-style="italic" lengthAdjust="spacing" textLength="77.041" x="1265.7925" y="614.4141">&#171;repository&#187;</text><text fill="#000000" font-family="sans-serif" font-size="14" lengthAdjust="spacing" textLength="106.5996" x="1251.0132" y="633.0352">FigureRepository</text><text fill="#000000" font-family="sans-serif" font-size="14" lengthAdjust="spacing" textLength="59.9307" x="1452.063" y="119.7285">Database</text><path d="M1467.0283,68.6211 C1467.0283,58.6211 1485.0283,58.6211 1485.0283,58.6211 C1485.0283,58.6211 1503.0283,58.6211 1503.0283,68.6211 L1503.0283,94.6211 C1503.0283,104.6211 1485.0283,104.6211 1485.0283,104.6211 C1485.0283,104.6211 1467.0283,104.6211 1467.0283,94.6211 L1467.0283,68.6211 " fill="#E3E3E3" style="stroke:#181818;stroke-width:1.5;"/><path d="M1467.0283,68.6211 C1467.0283,78.6211 1485.0283,78.6211 1485.0283,78.6211 C1485.0283,78.6211 1503.0283,78.6211 1503.0283,68.6211 " fill="none" style="stroke:#181818;stroke-width:1.5;"/><text fill="#000000" font-family="sans-serif" font-size="14" lengthAdjust="spacing" textLength="59.9307" x="1452.063" y="607.4141">Database</text><path d="M1467.0283,620.9277 C1467.0283,610.9277 1485.0283,610.9277 1485.0283,610.9277 C1485.0283,610.9277 1503.0283,610.9277 1503.0283,620.9277 L1503.0283,646.9277 C1503.0283,656.9277 1485.0283,656.9277 1485.0283,656.9277 C1485.0283,656.9277 1467.0283,656.9277 1467.0283,646.9277 L1467.0283,620.9277 " fill="#E3E3E3" style="stroke:#181818;stroke-width:1.5;"/><path d="M1467.0283,620.9277 C1467.0283,630.9277 1485.0283,630.9277 1485.0283,630.9277 C1485.0283,630.9277 1503.0283,630.9277 1503.0283,620.9277 " fill="none" style="stroke:#181818;stroke-width:1.5;"/><rect fill="#FFFFFF" height="451.0645" style="stroke:#181818;stroke-width:1.0;" width="10" x="59.0171" y="133.2422"/><rect fill="#FFFFFF" height="74.9121" style="stroke:#181818;stroke-width:1.0;" width="10" x="366.9521" y="156.5332"/><rect fill="#FFFFFF" height="352.8613" style="stroke:#181818;stroke-width:1.0;" width="10" x="499.2539" y="231.4453"/><rect fill="#FFFFFF" height="281.2793" style="stroke:#181818;stroke-width:1.0;" width="10" x="631.5557" y="262.7363"/><rect fill="#FFFFFF" height="156.4551" style="stroke:#181818;stroke-width:1.0;" width="10" x="1118.5977" y="356.2695"/><rect fill="#FFFFFF" height="93.873" style="stroke:#181818;stroke-width:1.0;" width="10" x="1299.313" y="387.5605"/><rect fill="#FFFFFF" height="31.291" style="stroke:#181818;stroke-width:1.0;" width="10" x="1480.0283" y="418.8516"/><polygon fill="#181818" points="354.9521,152.5332,364.9521,156.5332,354.9521,160.5332,358.9521,156.5332" style="stroke:#181818;stroke-width:1.0;"/><line style="stroke:#181818;stroke-width:1.0;" x1="69.0171" x2="360.9521" y1="156.5332" y2="156.5332"/><text fill="#000000" font-family="sans-serif" font-size="13" lengthAdjust="spacing" textLength="278.9351" x="76.0171" y="151.2705">Asks to display all public figures in the catalogue</text><polygon fill="#181818" points="447.5195,183.8242,457.5195,187.8242,447.5195,191.8242,451.5195,187.8242" style="stroke:#181818;stroke-width:1.0;"/><line style="stroke:#181818;stroke-width:1.0;" x1="376.9521" x2="453.5195" y1="187.8242" y2="187.8242"/><text fill="#000000" font-family="sans-serif" font-size="13" lengthAdjust="spacing" textLength="36.1309" x="383.9521" y="182.5615">create</text><rect fill="#E3E3E3" height="32.6211" rx="2.5" ry="2.5" style="stroke:#181818;stroke-width:0.5;" width="89.4688" x="459.5195" y="164.5332"/><text fill="#000000" font-family="sans-serif" font-size="14" lengthAdjust="spacing" textLength="75.4688" x="466.5195" y="186.6406">ListFigureUI</text><polygon fill="#181818" points="487.2539,227.4453,497.2539,231.4453,487.2539,235.4453,491.2539,231.4453" style="stroke:#181818;stroke-width:1.0;"/><line style="stroke:#181818;stroke-width:1.0;" x1="371.9521" x2="493.2539" y1="231.4453" y2="231.4453"/><text fill="#000000" font-family="sans-serif" font-size="13" lengthAdjust="spacing" textLength="103.3018" x="378.9521" y="226.1826">listPublicFigures()</text><polygon fill="#181818" points="619.5557,258.7363,629.5557,262.7363,619.5557,266.7363,623.5557,262.7363" style="stroke:#181818;stroke-width:1.0;"/><line style="stroke:#181818;stroke-width:1.0;" x1="509.2539" x2="625.5557" y1="262.7363" y2="262.7363"/><text fill="#000000" font-family="sans-serif" font-size="13" lengthAdjust="spacing" textLength="103.3018" x="516.2539" y="257.4736">listPublicFigures()</text><polygon fill="#181818" points="868.1572,290.0273,878.1572,294.0273,868.1572,298.0273,872.1572,294.0273" style="stroke:#181818;stroke-width:1.0;"/><line style="stroke:#181818;stroke-width:1.0;" x1="641.5557" x2="874.1572" y1="294.0273" y2="294.0273"/><text fill="#000000" font-family="sans-serif" font-size="13" lengthAdjust="spacing" textLength="214.6016" x="648.5557" y="288.7646">ensureAuthenticatedUserHasAnyOf()</text><rect fill="#E3E3E3" height="51.2422" rx="2.5" ry="2.5" style="stroke:#181818;stroke-width:0.5;" width="142.3994" x="880.1572" y="270.7363"/><text fill="#000000" font-family="sans-serif" font-size="14" font-style="italic" lengthAdjust="spacing" textLength="42.8203" x="929.9468" y="292.8438">&#171;auth&#187;</text><text fill="#000000" font-family="sans-serif" font-size="14" lengthAdjust="spacing" textLength="128.3994" x="887.1572" y="311.4648">AuthorizationService</text><polygon fill="#181818" points="1106.5977,352.2695,1116.5977,356.2695,1106.5977,360.2695,1110.5977,356.2695" style="stroke:#181818;stroke-width:1.0;"/><line style="stroke:#181818;stroke-width:1.0;" x1="641.5557" x2="1112.5977" y1="356.2695" y2="356.2695"/><text fill="#000000" font-family="sans-serif" font-size="13" lengthAdjust="spacing" textLength="103.3018" x="648.5557" y="351.0068">listPublicFigures()</text><polygon fill="#181818" points="1287.313,383.5605,1297.313,387.5605,1287.313,391.5605,1291.313,387.5605" style="stroke:#181818;stroke-width:1.0;"/><line style="stroke:#181818;stroke-width:1.0;" x1="1128.5977" x2="1293.313" y1="387.5605" y2="387.5605"/><text fill="#000000" font-family="sans-serif" font-size="13" lengthAdjust="spacing" textLength="151.7153" x="1135.5977" y="382.2979">findByNonExclusivity(true)</text><polygon fill="#181818" points="1468.0283,414.8516,1478.0283,418.8516,1468.0283,422.8516,1472.0283,418.8516" style="stroke:#181818;stroke-width:1.0;"/><line style="stroke:#181818;stroke-width:1.0;" x1="1309.313" x2="1474.0283" y1="418.8516" y2="418.8516"/><text fill="#000000" font-family="sans-serif" font-size="13" lengthAdjust="spacing" textLength="151.7153" x="1316.313" y="413.5889">findByNonExclusivity(true)</text><polygon fill="#181818" points="1320.313,446.1426,1310.313,450.1426,1320.313,454.1426,1316.313,450.1426" style="stroke:#181818;stroke-width:1.0;"/><line style="stroke:#181818;stroke-width:1.0;" x1="1314.313" x2="1484.0283" y1="450.1426" y2="450.1426"/><text fill="#000000" font-family="sans-serif" font-size="13" lengthAdjust="spacing" textLength="97.5444" x="1326.313" y="444.8799">publicFiguresList</text><polygon fill="#181818" points="1139.5977,477.4336,1129.5977,481.4336,1139.5977,485.4336,1135.5977,481.4336" style="stroke:#181818;stroke-width:1.0;"/><line style="stroke:#181818;stroke-width:1.0;" x1="1133.5977" x2="1303.313" y1="481.4336" y2="481.4336"/><text fill="#000000" font-family="sans-serif" font-size="13" lengthAdjust="spacing" textLength="97.5444" x="1145.5977" y="476.1709">publicFiguresList</text><polygon fill="#181818" points="652.5557,508.7246,642.5557,512.7246,652.5557,516.7246,648.5557,512.7246" style="stroke:#181818;stroke-width:1.0;"/><line style="stroke:#181818;stroke-width:1.0;" x1="646.5557" x2="1122.5977" y1="512.7246" y2="512.7246"/><text fill="#000000" font-family="sans-serif" font-size="13" lengthAdjust="spacing" textLength="97.5444" x="658.5557" y="507.4619">publicFiguresList</text><polygon fill="#181818" points="520.2539,540.0156,510.2539,544.0156,520.2539,548.0156,516.2539,544.0156" style="stroke:#181818;stroke-width:1.0;"/><line style="stroke:#181818;stroke-width:1.0;" x1="514.2539" x2="635.5557" y1="544.0156" y2="544.0156"/><text fill="#000000" font-family="sans-serif" font-size="13" lengthAdjust="spacing" textLength="97.5444" x="526.2539" y="538.7529">publicFiguresList</text><polygon fill="#181818" points="80.0171,571.3066,70.0171,575.3066,80.0171,579.3066,76.0171,575.3066" style="stroke:#181818;stroke-width:1.0;"/><line style="stroke:#181818;stroke-width:1.0;" x1="74.0171" x2="498.2539" y1="575.3066" y2="575.3066"/><text fill="#000000" font-family="sans-serif" font-size="13" lengthAdjust="spacing" textLength="246.4224" x="86.0171" y="570.0439">Displays the public figures in the catalogue</text><!--SRC=[fLLDRnen4BtxLumu9P5oI7j34H8bhOgKZmh23nXspM9XxAtjfTt- -euDRBpBcj1cJgpV-BtdyNYm6w5ADBY5hLOwMnkzvU1CnPbja1Ap3HPyxch9mV3CeIfad63NcEjVGXMmGcavOvWvRM0mcJt1H4k9IssGLWQ05ZApZTSOKJYHYHALWy6ZiEwRA2h3nvaJMeKTuydhzEKvbRYOXgJ5D9KmqSePKkHx_Sdhx17kxx4ifSZGYun6xQtZogsr4Ny2EETc9pA-Dz83U2fQxdBifPzGKU6sNBcO9e6TDxNVDEEbjeBALaTCRuj4OPeFOiZHuH8jXy73uLVOTlnWp0b7TphdFokkoC63mC9Vw2qivfy-tp76W89kK-pGyPEh2wYF3W2teyEbmH36TcF1QSY5BINMW592MItfdB0AzYq81MvDz6HBwe9wxyZRA1zQe05y71H8Qp6zkI6bp73AJUPGXgIc-16qzvMpLzUjz9nt5MEqmQZNMe0FuYULq5plwxJO_9uJr4VlOb3mzUtfnL05hgn_FWHJQ_bculd2SlCTxLZLBwiU9p5jgZSlErFhN0cgou_g8-MdiHer_v0QIkLVwcUjllxEP6N5JhZwoa-pwwH0nsv4bzoI1DuCHpJazFZU_izXosNpTCzbdmLzD8RworZ6r-m7wLd2wD5yt5rV-T8zURdHo6HNuj_l-KnJ7WR0PSPEJ7tWiHmVS9Xpxyj7qhtpXvtEjkwG7zBVHHZfDaplIsVwwOnbVm40]--></g></svg>