<svg xmlns="http://www.w3.org/2000/svg" xmlns:xlink="http://www.w3.org/1999/xlink" contentStyleType="text/css" height="441px" preserveAspectRatio="none" style="width:538px;height:441px;background:#FFFFFF;" version="1.1" viewBox="0 0 538 441" width="538px" zoomAndPan="magnify"><title>System Sequence Diagram - US321</title><defs/><g><text fill="#000000" font-family="sans-serif" font-size="14" font-weight="bold" lengthAdjust="spacing" textLength="234.9922" x="147.8547" y="30.1074">System Sequence Diagram - US321</text><rect fill="#FFFFFF" height="215.7461" style="stroke:#181818;stroke-width:1.0;" width="10" x="39.5723" y="133.2422"/><rect fill="#FFFFFF" height="31.291" style="stroke:#181818;stroke-width:1.0;" width="10" x="347.4482" y="201.8242"/><rect fill="#FFFFFF" height="75.582" style="stroke:#181818;stroke-width:1.0;" width="10" x="347.4482" y="264.4063"/><line style="stroke:#181818;stroke-width:0.5;stroke-dasharray:5.0,5.0;" x1="44" x2="44" y1="123.2422" y2="357.9883"/><line style="stroke:#181818;stroke-width:0.5;stroke-dasharray:5.0,5.0;" x1="352.1104" x2="352.1104" y1="123.2422" y2="357.9883"/><text fill="#000000" font-family="sans-serif" font-size="14" lengthAdjust="spacing" textLength="73.1445" x="5" y="119.7285">Drone Tech</text><ellipse cx="44.5723" cy="53.1211" fill="#E3E3E3" rx="8" ry="8" style="stroke:#181818;stroke-width:0.5;"/><path d="M44.5723,61.1211 L44.5723,88.1211 M31.5723,69.1211 L57.5723,69.1211 M44.5723,88.1211 L31.5723,103.1211 M44.5723,88.1211 L57.5723,103.1211 " fill="none" style="stroke:#181818;stroke-width:0.5;"/><text fill="#000000" font-family="sans-serif" font-size="14" lengthAdjust="spacing" textLength="73.1445" x="5" y="372.0957">Drone Tech</text><ellipse cx="44.5723" cy="384.1094" fill="#E3E3E3" rx="8" ry="8" style="stroke:#181818;stroke-width:0.5;"/><path d="M44.5723,392.1094 L44.5723,419.1094 M31.5723,400.1094 L57.5723,400.1094 M44.5723,419.1094 L31.5723,434.1094 M44.5723,419.1094 L57.5723,434.1094 " fill="none" style="stroke:#181818;stroke-width:0.5;"/><rect fill="#E3E3E3" height="32.6211" rx="2.5" ry="2.5" style="stroke:#181818;stroke-width:0.5;" width="60.6758" x="322.1104" y="89.6211"/><text fill="#000000" font-family="sans-serif" font-size="14" lengthAdjust="spacing" textLength="46.6758" x="329.1104" y="111.7285">System</text><rect fill="#E3E3E3" height="32.6211" rx="2.5" ry="2.5" style="stroke:#181818;stroke-width:0.5;" width="60.6758" x="322.1104" y="356.9883"/><text fill="#000000" font-family="sans-serif" font-size="14" lengthAdjust="spacing" textLength="46.6758" x="329.1104" y="379.0957">System</text><rect fill="#FFFFFF" height="215.7461" style="stroke:#181818;stroke-width:1.0;" width="10" x="39.5723" y="133.2422"/><rect fill="#FFFFFF" height="31.291" style="stroke:#181818;stroke-width:1.0;" width="10" x="347.4482" y="201.8242"/><rect fill="#FFFFFF" height="75.582" style="stroke:#181818;stroke-width:1.0;" width="10" x="347.4482" y="264.4063"/><rect fill="#EEEEEE" height="3" style="stroke:#EEEEEE;stroke-width:1.0;" width="531.7017" x="0" y="154.8877"/><line style="stroke:#000000;stroke-width:1.0;" x1="0" x2="531.7017" y1="154.8877" y2="154.8877"/><line style="stroke:#000000;stroke-width:1.0;" x1="0" x2="531.7017" y1="157.8877" y2="157.8877"/><rect fill="#EEEEEE" height="25.291" style="stroke:#000000;stroke-width:2.0;" width="167.1499" x="182.2759" y="143.2422"/><text fill="#000000" font-family="sans-serif" font-size="13" font-weight="bold" lengthAdjust="spacing" textLength="149.5381" x="188.2759" y="161.2705">Add a maintenance type</text><polygon fill="#181818" points="335.4482,197.8242,345.4482,201.8242,335.4482,205.8242,339.4482,201.8242" style="stroke:#181818;stroke-width:1.0;"/><line style="stroke:#181818;stroke-width:1.0;" x1="49.5723" x2="341.4482" y1="201.8242" y2="201.8242"/><text fill="#000000" font-family="sans-serif" font-size="13" lengthAdjust="spacing" textLength="129.3652" x="56.5723" y="196.5615">Add maintenance type</text><polygon fill="#181818" points="60.5723,229.1152,50.5723,233.1152,60.5723,237.1152,56.5723,233.1152" style="stroke:#181818;stroke-width:1.0;"/><line style="stroke:#181818;stroke-width:1.0;" x1="54.5723" x2="351.4482" y1="233.1152" y2="233.1152"/><text fill="#000000" font-family="sans-serif" font-size="13" lengthAdjust="spacing" textLength="273.876" x="66.5723" y="227.8525">Request maintenance type data(name, interval)</text><polygon fill="#181818" points="335.4482,260.4063,345.4482,264.4063,335.4482,268.4063,339.4482,264.4063" style="stroke:#181818;stroke-width:1.0;"/><line style="stroke:#181818;stroke-width:1.0;" x1="49.5723" x2="341.4482" y1="264.4063" y2="264.4063"/><text fill="#000000" font-family="sans-serif" font-size="13" lengthAdjust="spacing" textLength="179.2261" x="56.5723" y="259.1436">Provide maintenance type data</text><line style="stroke:#181818;stroke-width:1.0;" x1="357.4482" x2="399.4482" y1="295.6973" y2="295.6973"/><line style="stroke:#181818;stroke-width:1.0;" x1="399.4482" x2="399.4482" y1="295.6973" y2="308.6973"/><line style="stroke:#181818;stroke-width:1.0;" x1="358.4482" x2="399.4482" y1="308.6973" y2="308.6973"/><polygon fill="#181818" points="368.4482,304.6973,358.4482,308.6973,368.4482,312.6973,364.4482,308.6973" style="stroke:#181818;stroke-width:1.0;"/><text fill="#000000" font-family="sans-serif" font-size="13" lengthAdjust="spacing" textLength="145.2534" x="364.4482" y="290.4346">Create maintenance type</text><polygon fill="#181818" points="60.5723,335.9883,50.5723,339.9883,60.5723,343.9883,56.5723,339.9883" style="stroke:#181818;stroke-width:1.0;"/><line style="stroke:#181818;stroke-width:1.0;" x1="54.5723" x2="351.4482" y1="339.9883" y2="339.9883"/><text fill="#000000" font-family="sans-serif" font-size="13" lengthAdjust="spacing" textLength="201.6016" x="66.5723" y="334.7256">Confirm maintenance type creation</text><!--SRC=[VO_DJiCm3CVlVWgh9v3O0RXDAXBQ7c2Yy01MudNH6gSaNb7VdgQCRbeBDrl-V_oSZavQYkJH1mdc48Ddr7XYIDEb9NEacYlj6yR8HadgvbgG3cJ3bvCQzzGa1Y2Z8MAnZK4OtzaS2gI4DgzvWy6cphYMHB6e-gJiHqKQHm1rEbJz7B3YpnEBOTmwgdFT2Z-gvwT7WBB4LskHq9CJPQ6iqhvbBClCu3fIlgg5QSJLoxaCrsF6RSB5_ijqbW_6IyeQtp9SqZc19QKx8SyFc2-ne-OUBD_6BXFjOkYSvULK-8zjYjX4pehPNt_yiGcoTz7F6qtESK4Ms06-0G00]--></g></svg>