<?xml version="1.0" encoding="us-ascii" standalone="no"?><svg xmlns="http://www.w3.org/2000/svg" xmlns:xlink="http://www.w3.org/1999/xlink" contentStyleType="text/css" height="1128.4px" preserveAspectRatio="none" style="width:1413px;height:1128px;background:#FFFFFF;" version="1.1" viewBox="0 0 1413 1128" width="1413.3px" zoomAndPan="magnify"><defs/><g><text fill="#000000" font-family="sans-serif" font-size="9.8" font-weight="bold" lengthAdjust="spacing" textLength="92.4" x="661.5" y="21.0752">Sequence Diagram</text><rect fill="#FFFFFF" height="964.9459" style="stroke:#181818;stroke-width:0.6999999999999998;" width="7" x="41.65" y="93.2695"/><rect fill="#FFFFFF" height="80.1391" style="stroke:#181818;stroke-width:0.6999999999999998;" width="7" x="296.45" y="116.5732"/><rect fill="#FFFFFF" height="240.7029" style="stroke:#181818;stroke-width:0.6999999999999998;" width="7" x="415.8" y="196.7123"/><rect fill="#FFFFFF" height="328.5557" style="stroke:#181818;stroke-width:0.6999999999999998;" width="7" x="415.8" y="459.3189"/><rect fill="#FFFFFF" height="248.4371" style="stroke:#181818;stroke-width:0.6999999999999998;" width="7" x="415.8" y="809.7783"/><rect fill="#FFFFFF" height="153.326" style="stroke:#181818;stroke-width:0.6999999999999998;" width="7" x="670.6" y="262.1855"/><rect fill="#FFFFFF" height="284.7482" style="stroke:#181818;stroke-width:0.6999999999999998;" width="7" x="670.6" y="481.2227"/><rect fill="#FFFFFF" height="204.6297" style="stroke:#181818;stroke-width:0.6999999999999998;" width="7" x="670.6" y="831.682"/><rect fill="#FFFFFF" height="9.8" style="stroke:#181818;stroke-width:0.6999999999999998;" width="7" x="782.95" y="985.008"/><rect fill="#FFFFFF" height="21.9037" style="stroke:#181818;stroke-width:0.6999999999999998;" width="7" x="907.2" y="722.1635"/><rect fill="#FFFFFF" height="109.5186" style="stroke:#181818;stroke-width:0.6999999999999998;" width="7" x="907.2" y="853.5857"/><rect fill="#FFFFFF" height="21.9037" style="stroke:#181818;stroke-width:0.6999999999999998;" width="7" x="1027.25" y="371.7041"/><rect fill="#FFFFFF" height="109.5186" style="stroke:#181818;stroke-width:0.6999999999999998;" width="7" x="1027.25" y="503.1264"/><rect fill="#FFFFFF" height="65.7111" style="stroke:#181818;stroke-width:0.6999999999999998;" width="7" x="1145.9" y="634.5486"/><rect fill="#FFFFFF" height="65.7111" style="stroke:#181818;stroke-width:0.6999999999999998;" width="7" x="1145.9" y="875.4895"/><rect fill="#FFFFFF" height="65.7111" style="stroke:#181818;stroke-width:0.6999999999999998;" width="7" x="1263.15" y="284.0893"/><rect fill="#FFFFFF" height="65.7111" style="stroke:#181818;stroke-width:0.6999999999999998;" width="7" x="1263.15" y="525.0301"/><rect fill="#FFFFFF" height="21.9037" style="stroke:#181818;stroke-width:0.6999999999999998;" width="7" x="1385.65" y="305.993"/><rect fill="#FFFFFF" height="21.9037" style="stroke:#181818;stroke-width:0.6999999999999998;" width="7" x="1385.65" y="546.9338"/><rect fill="#FFFFFF" height="21.9037" style="stroke:#181818;stroke-width:0.6999999999999998;" width="7" x="1385.65" y="656.4523"/><rect fill="#FFFFFF" height="21.9037" style="stroke:#181818;stroke-width:0.6999999999999998;" width="7" x="1385.65" y="897.3932"/><rect fill="#FFFFFF" height="9.8" style="stroke:#181818;stroke-width:0.6999999999999998;" width="7" x="1385.65" y="1016.7117"/><line style="stroke:#181818;stroke-width:0.3499999999999999;stroke-dasharray:5.0,5.0;" x1="44.8" x2="44.8" y1="86.2695" y2="1070.8154"/><line style="stroke:#181818;stroke-width:0.3499999999999999;stroke-dasharray:5.0,5.0;" x1="299.95" x2="299.95" y1="122.0543" y2="1070.8154"/><line style="stroke:#181818;stroke-width:0.3499999999999999;stroke-dasharray:5.0,5.0;" x1="418.95" x2="418.95" y1="165.6238" y2="1070.8154"/><line style="stroke:#181818;stroke-width:0.3499999999999999;stroke-dasharray:5.0,5.0;" x1="673.75" x2="673.75" y1="231.0971" y2="1070.8154"/><line style="stroke:#181818;stroke-width:0.3499999999999999;stroke-dasharray:5.0,5.0;" x1="786.45" x2="786.45" y1="86.2695" y2="1070.8154"/><line style="stroke:#181818;stroke-width:0.3499999999999999;stroke-dasharray:5.0,5.0;" x1="910.7" x2="910.7" y1="86.2695" y2="1070.8154"/><line style="stroke:#181818;stroke-width:0.3499999999999999;stroke-dasharray:5.0,5.0;" x1="1030.4" x2="1030.4" y1="86.2695" y2="1070.8154"/><line style="stroke:#181818;stroke-width:0.3499999999999999;stroke-dasharray:5.0,5.0;" x1="1149.4" x2="1149.4" y1="86.2695" y2="1070.8154"/><line style="stroke:#181818;stroke-width:0.3499999999999999;stroke-dasharray:5.0,5.0;" x1="1266.3" x2="1266.3" y1="86.2695" y2="1070.8154"/><line style="stroke:#181818;stroke-width:0.3499999999999999;stroke-dasharray:5.0,5.0;" x1="1388.8" x2="1388.8" y1="86.2695" y2="1070.8154"/><text fill="#000000" font-family="sans-serif" font-size="9.8" lengthAdjust="spacing" textLength="79.1" x="3.5" y="83.81">CRM Collaborator</text><ellipse cx="45.15" cy="37.1848" fill="#E2E2F0" rx="5.6" ry="5.6" style="stroke:#181818;stroke-width:0.3499999999999999;"/><path d="M45.15,42.7848 L45.15,61.6848 M36.05,48.3848 L54.25,48.3848 M45.15,61.6848 L36.05,72.1848 M45.15,61.6848 L54.25,72.1848 " fill="none" style="stroke:#181818;stroke-width:0.3499999999999999;"/><text fill="#000000" font-family="sans-serif" font-size="9.8" lengthAdjust="spacing" textLength="79.1" x="3.5" y="1080.6906">CRM Collaborator</text><ellipse cx="45.15" cy="1089.1002" fill="#E2E2F0" rx="5.6" ry="5.6" style="stroke:#181818;stroke-width:0.3499999999999999;"/><path d="M45.15,1094.7002 L45.15,1113.6002 M36.05,1100.3002 L54.25,1100.3002 M45.15,1113.6002 L36.05,1124.1002 M45.15,1113.6002 L54.25,1124.1002 " fill="none" style="stroke:#181818;stroke-width:0.3499999999999999;"/><rect fill="#E2E2F0" height="35.8695" rx="1.75" ry="1.75" style="stroke:#181818;stroke-width:0.3499999999999999;" width="121.8" x="239.05" y="1070.1154"/><text fill="#000000" font-family="sans-serif" font-size="9.8" font-style="italic" lengthAdjust="spacing" textLength="66.5" x="266.7" y="1085.5906">&#171;presentation&#187;</text><text fill="#000000" font-family="sans-serif" font-size="9.8" lengthAdjust="spacing" textLength="112" x="243.95" y="1098.6254">MarkShowProposalAction</text><rect fill="#E2E2F0" height="35.8695" rx="1.75" ry="1.75" style="stroke:#181818;stroke-width:0.3499999999999999;" width="102.9" x="367.85" y="1070.1154"/><text fill="#000000" font-family="sans-serif" font-size="9.8" font-style="italic" lengthAdjust="spacing" textLength="66.5" x="386.05" y="1085.5906">&#171;presentation&#187;</text><text fill="#000000" font-family="sans-serif" font-size="9.8" lengthAdjust="spacing" textLength="93.1" x="372.75" y="1098.6254">MarkShowProposalUI</text><rect fill="#E2E2F0" height="35.8695" rx="1.75" ry="1.75" style="stroke:#181818;stroke-width:0.3499999999999999;" width="137.9" x="605.15" y="1070.1154"/><text fill="#000000" font-family="sans-serif" font-size="9.8" font-style="italic" lengthAdjust="spacing" textLength="58.8" x="644.7" y="1085.5906">&#171;application&#187;</text><text fill="#000000" font-family="sans-serif" font-size="9.8" lengthAdjust="spacing" textLength="128.1" x="610.05" y="1098.6254">MarkShowProposalController</text><rect fill="#E2E2F0" height="35.8695" rx="1.75" ry="1.75" style="stroke:#181818;stroke-width:0.3499999999999999;" width="72.8" x="750.05" y="49.7"/><text fill="#000000" font-family="sans-serif" font-size="9.8" font-style="italic" lengthAdjust="spacing" textLength="43.4" x="764.75" y="65.1752">&#171;domain&#187;</text><text fill="#000000" font-family="sans-serif" font-size="9.8" lengthAdjust="spacing" textLength="63" x="754.95" y="78.21">ShowProposal</text><rect fill="#E2E2F0" height="35.8695" rx="1.75" ry="1.75" style="stroke:#181818;stroke-width:0.3499999999999999;" width="72.8" x="750.05" y="1070.1154"/><text fill="#000000" font-family="sans-serif" font-size="9.8" font-style="italic" lengthAdjust="spacing" textLength="43.4" x="764.75" y="1085.5906">&#171;domain&#187;</text><text fill="#000000" font-family="sans-serif" font-size="9.8" lengthAdjust="spacing" textLength="63" x="754.95" y="1098.6254">ShowProposal</text><rect fill="#E2E2F0" height="35.8695" rx="1.75" ry="1.75" style="stroke:#181818;stroke-width:0.3499999999999999;" width="123.2" x="849.1" y="49.7"/><text fill="#000000" font-family="sans-serif" font-size="9.8" font-style="italic" lengthAdjust="spacing" textLength="25.2" x="898.1" y="65.1752">&#171;dto&#187;</text><text fill="#000000" font-family="sans-serif" font-size="9.8" lengthAdjust="spacing" textLength="113.4" x="854" y="78.21">ShowProposalDTOParser</text><rect fill="#E2E2F0" height="35.8695" rx="1.75" ry="1.75" style="stroke:#181818;stroke-width:0.3499999999999999;" width="123.2" x="849.1" y="1070.1154"/><text fill="#000000" font-family="sans-serif" font-size="9.8" font-style="italic" lengthAdjust="spacing" textLength="25.2" x="898.1" y="1085.5906">&#171;dto&#187;</text><text fill="#000000" font-family="sans-serif" font-size="9.8" lengthAdjust="spacing" textLength="113.4" x="854" y="1098.6254">ShowProposalDTOParser</text><rect fill="#E2E2F0" height="35.8695" rx="1.75" ry="1.75" style="stroke:#181818;stroke-width:0.3499999999999999;" width="102.9" x="979.3" y="49.7"/><text fill="#000000" font-family="sans-serif" font-size="9.8" font-style="italic" lengthAdjust="spacing" textLength="25.2" x="1018.15" y="65.1752">&#171;dto&#187;</text><text fill="#000000" font-family="sans-serif" font-size="9.8" lengthAdjust="spacing" textLength="93.1" x="984.2" y="78.21">CustomerDTOParser</text><rect fill="#E2E2F0" height="35.8695" rx="1.75" ry="1.75" style="stroke:#181818;stroke-width:0.3499999999999999;" width="102.9" x="979.3" y="1070.1154"/><text fill="#000000" font-family="sans-serif" font-size="9.8" font-style="italic" lengthAdjust="spacing" textLength="25.2" x="1018.15" y="1085.5906">&#171;dto&#187;</text><text fill="#000000" font-family="sans-serif" font-size="9.8" lengthAdjust="spacing" textLength="93.1" x="984.2" y="1098.6254">CustomerDTOParser</text><rect fill="#E2E2F0" height="35.8695" rx="1.75" ry="1.75" style="stroke:#181818;stroke-width:0.3499999999999999;" width="120.4" x="1089.2" y="49.7"/><text fill="#000000" font-family="sans-serif" font-size="9.8" font-style="italic" lengthAdjust="spacing" textLength="55.3" x="1121.75" y="65.1752">&#171;repository&#187;</text><text fill="#000000" font-family="sans-serif" font-size="9.8" lengthAdjust="spacing" textLength="110.6" x="1094.1" y="78.21">ShowProposalRepository</text><rect fill="#E2E2F0" height="35.8695" rx="1.75" ry="1.75" style="stroke:#181818;stroke-width:0.3499999999999999;" width="120.4" x="1089.2" y="1070.1154"/><text fill="#000000" font-family="sans-serif" font-size="9.8" font-style="italic" lengthAdjust="spacing" textLength="55.3" x="1121.75" y="1085.5906">&#171;repository&#187;</text><text fill="#000000" font-family="sans-serif" font-size="9.8" lengthAdjust="spacing" textLength="110.6" x="1094.1" y="1098.6254">ShowProposalRepository</text><rect fill="#E2E2F0" height="35.8695" rx="1.75" ry="1.75" style="stroke:#181818;stroke-width:0.3499999999999999;" width="100.1" x="1216.6" y="49.7"/><text fill="#000000" font-family="sans-serif" font-size="9.8" font-style="italic" lengthAdjust="spacing" textLength="55.3" x="1239" y="65.1752">&#171;repository&#187;</text><text fill="#000000" font-family="sans-serif" font-size="9.8" lengthAdjust="spacing" textLength="90.3" x="1221.5" y="78.21">CustomerRepository</text><rect fill="#E2E2F0" height="35.8695" rx="1.75" ry="1.75" style="stroke:#181818;stroke-width:0.3499999999999999;" width="100.1" x="1216.6" y="1070.1154"/><text fill="#000000" font-family="sans-serif" font-size="9.8" font-style="italic" lengthAdjust="spacing" textLength="55.3" x="1239" y="1085.5906">&#171;repository&#187;</text><text fill="#000000" font-family="sans-serif" font-size="9.8" lengthAdjust="spacing" textLength="90.3" x="1221.5" y="1098.6254">CustomerRepository</text><text fill="#000000" font-family="sans-serif" font-size="9.8" lengthAdjust="spacing" textLength="42.7" x="1365.7" y="83.81">Database</text><path d="M1376.55,48.0348 C1376.55,41.0348 1389.15,41.0348 1389.15,41.0348 C1389.15,41.0348 1401.75,41.0348 1401.75,48.0348 L1401.75,66.2348 C1401.75,73.2348 1389.15,73.2348 1389.15,73.2348 C1389.15,73.2348 1376.55,73.2348 1376.55,66.2348 L1376.55,48.0348 " fill="#E2E2F0" style="stroke:#181818;stroke-width:1.0499999999999998;"/><path d="M1376.55,48.0348 C1376.55,55.0348 1389.15,55.0348 1389.15,55.0348 C1389.15,55.0348 1401.75,55.0348 1401.75,48.0348 " fill="none" style="stroke:#181818;stroke-width:1.0499999999999998;"/><text fill="#000000" font-family="sans-serif" font-size="9.8" lengthAdjust="spacing" textLength="42.7" x="1365.7" y="1080.6906">Database</text><path d="M1376.55,1090.1502 C1376.55,1083.1502 1389.15,1083.1502 1389.15,1083.1502 C1389.15,1083.1502 1401.75,1083.1502 1401.75,1090.1502 L1401.75,1108.3502 C1401.75,1115.3502 1389.15,1115.3502 1389.15,1115.3502 C1389.15,1115.3502 1376.55,1115.3502 1376.55,1108.3502 L1376.55,1090.1502 " fill="#E2E2F0" style="stroke:#181818;stroke-width:1.0499999999999998;"/><path d="M1376.55,1090.1502 C1376.55,1097.1502 1389.15,1097.1502 1389.15,1097.1502 C1389.15,1097.1502 1401.75,1097.1502 1401.75,1090.1502 " fill="none" style="stroke:#181818;stroke-width:1.0499999999999998;"/><rect fill="#FFFFFF" height="964.9459" style="stroke:#181818;stroke-width:0.6999999999999998;" width="7" x="41.65" y="93.2695"/><rect fill="#FFFFFF" height="80.1391" style="stroke:#181818;stroke-width:0.6999999999999998;" width="7" x="296.45" y="116.5732"/><rect fill="#FFFFFF" height="240.7029" style="stroke:#181818;stroke-width:0.6999999999999998;" width="7" x="415.8" y="196.7123"/><rect fill="#FFFFFF" height="328.5557" style="stroke:#181818;stroke-width:0.6999999999999998;" width="7" x="415.8" y="459.3189"/><rect fill="#FFFFFF" height="248.4371" style="stroke:#181818;stroke-width:0.6999999999999998;" width="7" x="415.8" y="809.7783"/><rect fill="#FFFFFF" height="153.326" style="stroke:#181818;stroke-width:0.6999999999999998;" width="7" x="670.6" y="262.1855"/><rect fill="#FFFFFF" height="284.7482" style="stroke:#181818;stroke-width:0.6999999999999998;" width="7" x="670.6" y="481.2227"/><rect fill="#FFFFFF" height="204.6297" style="stroke:#181818;stroke-width:0.6999999999999998;" width="7" x="670.6" y="831.682"/><rect fill="#FFFFFF" height="9.8" style="stroke:#181818;stroke-width:0.6999999999999998;" width="7" x="782.95" y="985.008"/><rect fill="#FFFFFF" height="21.9037" style="stroke:#181818;stroke-width:0.6999999999999998;" width="7" x="907.2" y="722.1635"/><rect fill="#FFFFFF" height="109.5186" style="stroke:#181818;stroke-width:0.6999999999999998;" width="7" x="907.2" y="853.5857"/><rect fill="#FFFFFF" height="21.9037" style="stroke:#181818;stroke-width:0.6999999999999998;" width="7" x="1027.25" y="371.7041"/><rect fill="#FFFFFF" height="109.5186" style="stroke:#181818;stroke-width:0.6999999999999998;" width="7" x="1027.25" y="503.1264"/><rect fill="#FFFFFF" height="65.7111" style="stroke:#181818;stroke-width:0.6999999999999998;" width="7" x="1145.9" y="634.5486"/><rect fill="#FFFFFF" height="65.7111" style="stroke:#181818;stroke-width:0.6999999999999998;" width="7" x="1145.9" y="875.4895"/><rect fill="#FFFFFF" height="65.7111" style="stroke:#181818;stroke-width:0.6999999999999998;" width="7" x="1263.15" y="284.0893"/><rect fill="#FFFFFF" height="65.7111" style="stroke:#181818;stroke-width:0.6999999999999998;" width="7" x="1263.15" y="525.0301"/><rect fill="#FFFFFF" height="21.9037" style="stroke:#181818;stroke-width:0.6999999999999998;" width="7" x="1385.65" y="305.993"/><rect fill="#FFFFFF" height="21.9037" style="stroke:#181818;stroke-width:0.6999999999999998;" width="7" x="1385.65" y="546.9338"/><rect fill="#FFFFFF" height="21.9037" style="stroke:#181818;stroke-width:0.6999999999999998;" width="7" x="1385.65" y="656.4523"/><rect fill="#FFFFFF" height="21.9037" style="stroke:#181818;stroke-width:0.6999999999999998;" width="7" x="1385.65" y="897.3932"/><rect fill="#FFFFFF" height="9.8" style="stroke:#181818;stroke-width:0.6999999999999998;" width="7" x="1385.65" y="1016.7117"/><polygon fill="#181818" points="230.65,106.7732,237.65,109.5732,230.65,112.3732,233.45,109.5732" style="stroke:#181818;stroke-width:0.6999999999999998;"/><line style="stroke:#181818;stroke-width:0.6999999999999998;" x1="48.65" x2="234.85" y1="109.5732" y2="109.5732"/><text fill="#000000" font-family="sans-serif" font-size="9.1" lengthAdjust="spacing" textLength="173.6" x="53.55" y="105.8894">Wants to mark show proposal as accepted</text><rect fill="#E2E2F0" height="35.8695" rx="1.75" ry="1.75" style="stroke:#181818;stroke-width:0.3499999999999999;" width="121.8" x="239.05" y="93.2695"/><text fill="#000000" font-family="sans-serif" font-size="9.8" font-style="italic" lengthAdjust="spacing" textLength="66.5" x="266.7" y="108.7447">&#171;presentation&#187;</text><text fill="#000000" font-family="sans-serif" font-size="9.8" lengthAdjust="spacing" textLength="112" x="243.95" y="121.7795">MarkShowProposalAction</text><polygon fill="#181818" points="359.45,150.3428,366.45,153.1428,359.45,155.9428,362.25,153.1428" style="stroke:#181818;stroke-width:0.6999999999999998;"/><line style="stroke:#181818;stroke-width:0.6999999999999998;" x1="303.45" x2="363.65" y1="153.1428" y2="153.1428"/><text fill="#000000" font-family="sans-serif" font-size="9.1" lengthAdjust="spacing" textLength="25.2" x="308.35" y="149.4589">create</text><rect fill="#E2E2F0" height="35.8695" rx="1.75" ry="1.75" style="stroke:#181818;stroke-width:0.3499999999999999;" width="102.9" x="367.85" y="136.8391"/><text fill="#000000" font-family="sans-serif" font-size="9.8" font-style="italic" lengthAdjust="spacing" textLength="66.5" x="386.05" y="152.3143">&#171;presentation&#187;</text><text fill="#000000" font-family="sans-serif" font-size="9.8" lengthAdjust="spacing" textLength="93.1" x="372.75" y="165.349">MarkShowProposalUI</text><polygon fill="#181818" points="407.4,193.9123,414.4,196.7123,407.4,199.5123,410.2,196.7123" style="stroke:#181818;stroke-width:0.6999999999999998;"/><line style="stroke:#181818;stroke-width:0.6999999999999998;" x1="299.95" x2="411.6" y1="196.7123" y2="196.7123"/><text fill="#000000" font-family="sans-serif" font-size="9.1" lengthAdjust="spacing" textLength="26.6" x="304.85" y="193.0284">show()</text><polygon fill="#181818" points="596.75,215.816,603.75,218.616,596.75,221.416,599.55,218.616" style="stroke:#181818;stroke-width:0.6999999999999998;"/><line style="stroke:#181818;stroke-width:0.6999999999999998;" x1="422.8" x2="600.95" y1="218.616" y2="218.616"/><text fill="#000000" font-family="sans-serif" font-size="9.1" lengthAdjust="spacing" textLength="25.2" x="427.7" y="214.9321">create</text><rect fill="#E2E2F0" height="35.8695" rx="1.75" ry="1.75" style="stroke:#181818;stroke-width:0.3499999999999999;" width="137.9" x="605.15" y="202.3123"/><text fill="#000000" font-family="sans-serif" font-size="9.8" font-style="italic" lengthAdjust="spacing" textLength="58.8" x="644.7" y="217.7875">&#171;application&#187;</text><text fill="#000000" font-family="sans-serif" font-size="9.8" lengthAdjust="spacing" textLength="128.1" x="610.05" y="230.8223">MarkShowProposalController</text><polygon fill="#181818" points="662.2,259.3855,669.2,262.1855,662.2,264.9855,665,262.1855" style="stroke:#181818;stroke-width:0.6999999999999998;"/><line style="stroke:#181818;stroke-width:0.6999999999999998;" x1="422.8" x2="666.4" y1="262.1855" y2="262.1855"/><text fill="#000000" font-family="sans-serif" font-size="9.1" lengthAdjust="spacing" textLength="86.8" x="427.7" y="258.5017">getActiveCustomers()</text><polygon fill="#181818" points="1254.75,281.2893,1261.75,284.0893,1254.75,286.8893,1257.55,284.0893" style="stroke:#181818;stroke-width:0.6999999999999998;"/><line style="stroke:#181818;stroke-width:0.6999999999999998;" x1="677.6" x2="1258.95" y1="284.0893" y2="284.0893"/><text fill="#000000" font-family="sans-serif" font-size="9.1" lengthAdjust="spacing" textLength="55.3" x="682.5" y="280.4054">findByActive()</text><polygon fill="#181818" points="1377.25,303.193,1384.25,305.993,1377.25,308.793,1380.05,305.993" style="stroke:#181818;stroke-width:0.6999999999999998;"/><line style="stroke:#181818;stroke-width:0.6999999999999998;" x1="1270.15" x2="1381.45" y1="305.993" y2="305.993"/><text fill="#000000" font-family="sans-serif" font-size="9.1" lengthAdjust="spacing" textLength="55.3" x="1275.05" y="302.3091">findByActive()</text><polygon fill="#181818" points="1277.85,325.0967,1270.85,327.8967,1277.85,330.6967,1275.05,327.8967" style="stroke:#181818;stroke-width:0.6999999999999998;"/><line style="stroke:#181818;stroke-width:0.6999999999999998;stroke-dasharray:2.0,2.0;" x1="1273.65" x2="1388.45" y1="327.8967" y2="327.8967"/><text fill="#000000" font-family="sans-serif" font-size="9.1" lengthAdjust="spacing" textLength="98.7" x="1282.05" y="324.2128">List of Active Customers</text><polygon fill="#181818" points="685.3,347.0004,678.3,349.8004,685.3,352.6004,682.5,349.8004" style="stroke:#181818;stroke-width:0.6999999999999998;"/><line style="stroke:#181818;stroke-width:0.6999999999999998;stroke-dasharray:2.0,2.0;" x1="681.1" x2="1265.95" y1="349.8004" y2="349.8004"/><text fill="#000000" font-family="sans-serif" font-size="9.1" lengthAdjust="spacing" textLength="98.7" x="689.5" y="346.1165">List of Active Customers</text><polygon fill="#181818" points="1018.85,368.9041,1025.85,371.7041,1018.85,374.5041,1021.65,371.7041" style="stroke:#181818;stroke-width:0.6999999999999998;"/><line style="stroke:#181818;stroke-width:0.6999999999999998;" x1="677.6" x2="1023.05" y1="371.7041" y2="371.7041"/><text fill="#000000" font-family="sans-serif" font-size="9.1" lengthAdjust="spacing" textLength="181.3" x="682.5" y="368.0202">transformToCustomerDTOList(listCustomers)</text><polygon fill="#181818" points="685.3,390.8078,678.3,393.6078,685.3,396.4078,682.5,393.6078" style="stroke:#181818;stroke-width:0.6999999999999998;"/><line style="stroke:#181818;stroke-width:0.6999999999999998;stroke-dasharray:2.0,2.0;" x1="681.1" x2="1030.05" y1="393.6078" y2="393.6078"/><text fill="#000000" font-family="sans-serif" font-size="9.1" lengthAdjust="spacing" textLength="127.4" x="689.5" y="389.9239">List Of Active Customers (DTO)</text><polygon fill="#181818" points="430.5,412.7115,423.5,415.5115,430.5,418.3115,427.7,415.5115" style="stroke:#181818;stroke-width:0.6999999999999998;"/><line style="stroke:#181818;stroke-width:0.6999999999999998;stroke-dasharray:2.0,2.0;" x1="426.3" x2="673.4" y1="415.5115" y2="415.5115"/><text fill="#000000" font-family="sans-serif" font-size="9.1" lengthAdjust="spacing" textLength="125.3" x="434.7" y="411.8276">List of Active Customers (DTO)</text><polygon fill="#181818" points="56.35,434.6152,49.35,437.4152,56.35,440.2152,53.55,437.4152" style="stroke:#181818;stroke-width:0.6999999999999998;"/><line style="stroke:#181818;stroke-width:0.6999999999999998;stroke-dasharray:2.0,2.0;" x1="52.15" x2="418.6" y1="437.4152" y2="437.4152"/><text fill="#000000" font-family="sans-serif" font-size="9.1" lengthAdjust="spacing" textLength="147.7" x="60.55" y="433.7313">Show list of Active Customers (DTO)</text><polygon fill="#181818" points="407.4,456.5189,414.4,459.3189,407.4,462.1189,410.2,459.3189" style="stroke:#181818;stroke-width:0.6999999999999998;"/><line style="stroke:#181818;stroke-width:0.6999999999999998;" x1="48.65" x2="411.6" y1="459.3189" y2="459.3189"/><text fill="#000000" font-family="sans-serif" font-size="9.1" lengthAdjust="spacing" textLength="72.8" x="53.55" y="455.6351">Choose Customer</text><polygon fill="#181818" points="662.2,478.4227,669.2,481.2227,662.2,484.0227,665,481.2227" style="stroke:#181818;stroke-width:0.6999999999999998;"/><line style="stroke:#181818;stroke-width:0.6999999999999998;" x1="422.8" x2="666.4" y1="481.2227" y2="481.2227"/><text fill="#000000" font-family="sans-serif" font-size="9.1" lengthAdjust="spacing" textLength="177.1" x="427.7" y="477.5388">getAnsweredShowProposals(customerDTO)</text><polygon fill="#181818" points="1018.85,500.3264,1025.85,503.1264,1018.85,505.9264,1021.65,503.1264" style="stroke:#181818;stroke-width:0.6999999999999998;"/><line style="stroke:#181818;stroke-width:0.6999999999999998;" x1="677.6" x2="1023.05" y1="503.1264" y2="503.1264"/><text fill="#000000" font-family="sans-serif" font-size="9.1" lengthAdjust="spacing" textLength="152.6" x="682.5" y="499.4425">getCustomerFromDTO(customerDTO)</text><polygon fill="#181818" points="1254.75,522.2301,1261.75,525.0301,1254.75,527.8301,1257.55,525.0301" style="stroke:#181818;stroke-width:0.6999999999999998;"/><line style="stroke:#181818;stroke-width:0.6999999999999998;" x1="1034.25" x2="1258.95" y1="525.0301" y2="525.0301"/><text fill="#000000" font-family="sans-serif" font-size="9.1" lengthAdjust="spacing" textLength="100.8" x="1039.15" y="521.3462">findById(customerDTOId)</text><polygon fill="#181818" points="1377.25,544.1338,1384.25,546.9338,1377.25,549.7338,1380.05,546.9338" style="stroke:#181818;stroke-width:0.6999999999999998;"/><line style="stroke:#181818;stroke-width:0.6999999999999998;" x1="1270.15" x2="1381.45" y1="546.9338" y2="546.9338"/><text fill="#000000" font-family="sans-serif" font-size="9.1" lengthAdjust="spacing" textLength="100.8" x="1275.05" y="543.2499">findById(customerDTOId)</text><polygon fill="#181818" points="1277.85,566.0375,1270.85,568.8375,1277.85,571.6375,1275.05,568.8375" style="stroke:#181818;stroke-width:0.6999999999999998;"/><line style="stroke:#181818;stroke-width:0.6999999999999998;stroke-dasharray:2.0,2.0;" x1="1273.65" x2="1388.45" y1="568.8375" y2="568.8375"/><text fill="#000000" font-family="sans-serif" font-size="9.1" lengthAdjust="spacing" textLength="37.8" x="1282.05" y="565.1536">customer</text><polygon fill="#181818" points="1041.95,587.9412,1034.95,590.7412,1041.95,593.5412,1039.15,590.7412" style="stroke:#181818;stroke-width:0.6999999999999998;"/><line style="stroke:#181818;stroke-width:0.6999999999999998;stroke-dasharray:2.0,2.0;" x1="1037.75" x2="1265.95" y1="590.7412" y2="590.7412"/><text fill="#000000" font-family="sans-serif" font-size="9.1" lengthAdjust="spacing" textLength="37.8" x="1046.15" y="587.0573">customer</text><polygon fill="#181818" points="685.3,609.8449,678.3,612.6449,685.3,615.4449,682.5,612.6449" style="stroke:#181818;stroke-width:0.6999999999999998;"/><line style="stroke:#181818;stroke-width:0.6999999999999998;stroke-dasharray:2.0,2.0;" x1="681.1" x2="1030.05" y1="612.6449" y2="612.6449"/><text fill="#000000" font-family="sans-serif" font-size="9.1" lengthAdjust="spacing" textLength="37.8" x="689.5" y="608.961">customer</text><polygon fill="#181818" points="1137.5,631.7486,1144.5,634.5486,1137.5,637.3486,1140.3,634.5486" style="stroke:#181818;stroke-width:0.6999999999999998;"/><line style="stroke:#181818;stroke-width:0.6999999999999998;" x1="677.6" x2="1141.7" y1="634.5486" y2="634.5486"/><text fill="#000000" font-family="sans-serif" font-size="9.1" lengthAdjust="spacing" textLength="147.7" x="682.5" y="630.8647">findByAcceptedProposals(customer)</text><polygon fill="#181818" points="1377.25,653.6523,1384.25,656.4523,1377.25,659.2523,1380.05,656.4523" style="stroke:#181818;stroke-width:0.6999999999999998;"/><line style="stroke:#181818;stroke-width:0.6999999999999998;" x1="1152.9" x2="1381.45" y1="656.4523" y2="656.4523"/><text fill="#000000" font-family="sans-serif" font-size="9.1" lengthAdjust="spacing" textLength="147.7" x="1157.8" y="652.7685">findByAcceptedProposals(customer)</text><polygon fill="#181818" points="1160.6,675.5561,1153.6,678.3561,1160.6,681.1561,1157.8,678.3561" style="stroke:#181818;stroke-width:0.6999999999999998;"/><line style="stroke:#181818;stroke-width:0.6999999999999998;stroke-dasharray:2.0,2.0;" x1="1156.4" x2="1388.45" y1="678.3561" y2="678.3561"/><text fill="#000000" font-family="sans-serif" font-size="9.1" lengthAdjust="spacing" textLength="204.4" x="1164.8" y="674.6722">List of Show Proposals Accepted by the Customer</text><polygon fill="#181818" points="685.3,697.4598,678.3,700.2598,685.3,703.0598,682.5,700.2598" style="stroke:#181818;stroke-width:0.6999999999999998;"/><line style="stroke:#181818;stroke-width:0.6999999999999998;stroke-dasharray:2.0,2.0;" x1="681.1" x2="1148.7" y1="700.2598" y2="700.2598"/><text fill="#000000" font-family="sans-serif" font-size="9.1" lengthAdjust="spacing" textLength="204.4" x="689.5" y="696.5759">List of Show Proposals Accepted by the Customer</text><polygon fill="#181818" points="898.8,719.3635,905.8,722.1635,898.8,724.9635,901.6,722.1635" style="stroke:#181818;stroke-width:0.6999999999999998;"/><line style="stroke:#181818;stroke-width:0.6999999999999998;" x1="677.6" x2="903" y1="722.1635" y2="722.1635"/><text fill="#000000" font-family="sans-serif" font-size="9.1" lengthAdjust="spacing" textLength="216.3" x="682.5" y="718.4796">transformToShowProposalDTOlist(listShowProposals)</text><polygon fill="#181818" points="685.3,741.2672,678.3,744.0672,685.3,746.8672,682.5,744.0672" style="stroke:#181818;stroke-width:0.6999999999999998;"/><line style="stroke:#181818;stroke-width:0.6999999999999998;stroke-dasharray:2.0,2.0;" x1="681.1" x2="910" y1="744.0672" y2="744.0672"/><text fill="#000000" font-family="sans-serif" font-size="9.1" lengthAdjust="spacing" textLength="119.7" x="689.5" y="740.3833">List of Show Proposals (DTO)</text><polygon fill="#181818" points="430.5,763.1709,423.5,765.9709,430.5,768.7709,427.7,765.9709" style="stroke:#181818;stroke-width:0.6999999999999998;"/><line style="stroke:#181818;stroke-width:0.6999999999999998;stroke-dasharray:2.0,2.0;" x1="426.3" x2="673.4" y1="765.9709" y2="765.9709"/><text fill="#000000" font-family="sans-serif" font-size="9.1" lengthAdjust="spacing" textLength="231" x="434.7" y="762.287">List of Show Proposals Accepted by the Customer (DTO)</text><polygon fill="#181818" points="56.35,785.0746,49.35,787.8746,56.35,790.6746,53.55,787.8746" style="stroke:#181818;stroke-width:0.6999999999999998;"/><line style="stroke:#181818;stroke-width:0.6999999999999998;stroke-dasharray:2.0,2.0;" x1="52.15" x2="418.6" y1="787.8746" y2="787.8746"/><text fill="#000000" font-family="sans-serif" font-size="9.1" lengthAdjust="spacing" textLength="256.2" x="60.55" y="784.1907">Show List of Show Proposals Accepted by the Customer (DTO)</text><polygon fill="#181818" points="407.4,806.9783,414.4,809.7783,407.4,812.5783,410.2,809.7783" style="stroke:#181818;stroke-width:0.6999999999999998;"/><line style="stroke:#181818;stroke-width:0.6999999999999998;" x1="48.65" x2="411.6" y1="809.7783" y2="809.7783"/><text fill="#000000" font-family="sans-serif" font-size="9.1" lengthAdjust="spacing" textLength="93.1" x="53.55" y="806.0944">Choose Show proposal</text><polygon fill="#181818" points="662.2,828.882,669.2,831.682,662.2,834.482,665,831.682" style="stroke:#181818;stroke-width:0.6999999999999998;"/><line style="stroke:#181818;stroke-width:0.6999999999999998;" x1="422.8" x2="666.4" y1="831.682" y2="831.682"/><text fill="#000000" font-family="sans-serif" font-size="9.1" lengthAdjust="spacing" textLength="158.9" x="427.7" y="827.9981">markShowProposal(showProposalDTO)</text><polygon fill="#181818" points="898.8,850.7857,905.8,853.5857,898.8,856.3857,901.6,853.5857" style="stroke:#181818;stroke-width:0.6999999999999998;"/><line style="stroke:#181818;stroke-width:0.6999999999999998;" x1="677.6" x2="903" y1="853.5857" y2="853.5857"/><text fill="#000000" font-family="sans-serif" font-size="9.1" lengthAdjust="spacing" textLength="186.9" x="682.5" y="849.9019">getShowProposalfromDTO(showProposalDTO)</text><polygon fill="#181818" points="1137.5,872.6895,1144.5,875.4895,1137.5,878.2895,1140.3,875.4895" style="stroke:#181818;stroke-width:0.6999999999999998;"/><line style="stroke:#181818;stroke-width:0.6999999999999998;" x1="914.2" x2="1141.7" y1="875.4895" y2="875.4895"/><text fill="#000000" font-family="sans-serif" font-size="9.1" lengthAdjust="spacing" textLength="119.7" x="919.1" y="871.8056">findById(showProposalDTOId)</text><polygon fill="#181818" points="1377.25,894.5932,1384.25,897.3932,1377.25,900.1932,1380.05,897.3932" style="stroke:#181818;stroke-width:0.6999999999999998;"/><line style="stroke:#181818;stroke-width:0.6999999999999998;" x1="1152.9" x2="1381.45" y1="897.3932" y2="897.3932"/><text fill="#000000" font-family="sans-serif" font-size="9.1" lengthAdjust="spacing" textLength="119.7" x="1157.8" y="893.7093">findById(showProposalDTOId)</text><polygon fill="#181818" points="1160.6,916.4969,1153.6,919.2969,1160.6,922.0969,1157.8,919.2969" style="stroke:#181818;stroke-width:0.6999999999999998;"/><line style="stroke:#181818;stroke-width:0.6999999999999998;stroke-dasharray:2.0,2.0;" x1="1156.4" x2="1388.45" y1="919.2969" y2="919.2969"/><text fill="#000000" font-family="sans-serif" font-size="9.1" lengthAdjust="spacing" textLength="56.7" x="1164.8" y="915.613">showProposal</text><polygon fill="#181818" points="921.9,938.4006,914.9,941.2006,921.9,944.0006,919.1,941.2006" style="stroke:#181818;stroke-width:0.6999999999999998;"/><line style="stroke:#181818;stroke-width:0.6999999999999998;stroke-dasharray:2.0,2.0;" x1="917.7" x2="1148.7" y1="941.2006" y2="941.2006"/><text fill="#000000" font-family="sans-serif" font-size="9.1" lengthAdjust="spacing" textLength="56.7" x="926.1" y="937.5167">showProposal</text><polygon fill="#181818" points="685.3,960.3043,678.3,963.1043,685.3,965.9043,682.5,963.1043" style="stroke:#181818;stroke-width:0.6999999999999998;"/><line style="stroke:#181818;stroke-width:0.6999999999999998;stroke-dasharray:2.0,2.0;" x1="681.1" x2="910" y1="963.1043" y2="963.1043"/><text fill="#000000" font-family="sans-serif" font-size="9.1" lengthAdjust="spacing" textLength="56.7" x="689.5" y="959.4204">showProposal</text><polygon fill="#181818" points="774.55,982.208,781.55,985.008,774.55,987.808,777.35,985.008" style="stroke:#181818;stroke-width:0.6999999999999998;"/><line style="stroke:#181818;stroke-width:0.6999999999999998;" x1="677.6" x2="778.75" y1="985.008" y2="985.008"/><text fill="#000000" font-family="sans-serif" font-size="9.1" lengthAdjust="spacing" textLength="84" x="682.5" y="981.3241">markShowProposal()</text><polygon fill="#181818" points="685.3,992.008,678.3,994.808,685.3,997.608,682.5,994.808" style="stroke:#181818;stroke-width:0.6999999999999998;"/><line style="stroke:#181818;stroke-width:0.6999999999999998;stroke-dasharray:2.0,2.0;" x1="681.1" x2="785.75" y1="994.808" y2="994.808"/><polygon fill="#181818" points="1377.25,1013.9117,1384.25,1016.7117,1377.25,1019.5117,1380.05,1016.7117" style="stroke:#181818;stroke-width:0.6999999999999998;"/><line style="stroke:#181818;stroke-width:0.6999999999999998;" x1="677.6" x2="1381.45" y1="1016.7117" y2="1016.7117"/><text fill="#000000" font-family="sans-serif" font-size="9.1" lengthAdjust="spacing" textLength="80.5" x="682.5" y="1013.0278">save(showProposal)</text><polygon fill="#181818" points="685.3,1023.7117,678.3,1026.5117,685.3,1029.3117,682.5,1026.5117" style="stroke:#181818;stroke-width:0.6999999999999998;"/><line style="stroke:#181818;stroke-width:0.6999999999999998;stroke-dasharray:2.0,2.0;" x1="681.1" x2="1388.45" y1="1026.5117" y2="1026.5117"/><polygon fill="#181818" points="430.5,1033.5117,423.5,1036.3117,430.5,1039.1117,427.7,1036.3117" style="stroke:#181818;stroke-width:0.6999999999999998;"/><line style="stroke:#181818;stroke-width:0.6999999999999998;stroke-dasharray:2.0,2.0;" x1="426.3" x2="673.4" y1="1036.3117" y2="1036.3117"/><polygon fill="#181818" points="52.85,1055.4154,45.85,1058.2154,52.85,1061.0154,50.05,1058.2154" style="stroke:#181818;stroke-width:0.6999999999999998;"/><line style="stroke:#181818;stroke-width:0.6999999999999998;stroke-dasharray:2.0,2.0;" x1="48.65" x2="418.6" y1="1058.2154" y2="1058.2154"/><text fill="#000000" font-family="sans-serif" font-size="9.1" lengthAdjust="spacing" textLength="153.3" x="57.05" y="1054.5315">Confirm Show Proposal was accepted</text><!--SRC=[hLVDRkCW4Bxp5AESaaXzWQYgj9jgfKXRjMeQxPdQfB7MDbwWZVhsEtPi0mOCwQuFYGtCDyFyV0EgK2M3FVlppkgCmNr1tmIj2A6PuW8Ms-S7sFAofAzSK1nP09NmhPqZ3HMgo8g6rWeM3rJytf_u-KdmXajQufA2ryDgV8NRsqOmoMf5sy-xktdvmwwJFUokbDloMWcqbrqirP-8GvkcB38lZ0dH2Pe3A9hpYXQpKlSlZqzKo5wlTwR5KNmAidsNYbTCs03Eg5_OrFFCyA_0o7mw9kWfX17ZHyYK2P8xF4N9gQAlL39OtFTldU3mqMLJyK4LwrE7T7zmSzSdntgzWLzeWWJ5eSAGWaJheHa2W5WqorYZM6vZeMm7rYOOeXrswpLi81CCvwtnJOUuN16Iioa0u3EE7NQ4ODQXaCuT4zIPtC0RKotI1niS9L6F1QfNasx2ICiMo_7l1ev5dN__lC0wQCxw7jMD4w8FGV1YMhWwNCFKC08t0JD_5b81Fy85T5mYHmJ3soDyoDQ9MsUn3ToWExnE7Wjg0qhGMXwvg5wuCTkgNPRuCohqkCf1qpvpAzUxiKTtOx14cPNFTHvrpXRxD0zvpG0tWNLYjZDjRb-AagETBOD0UHLUMprZRRVcR4-SIoqMhxLBETNop0JBJGwJoqnxOKNc2omf_gXe6FqXU8KpjWemdfJ81w8_L-2xt5IvossbILNlqpxF076b4LemdoX5P6Refq-87cARyWSqg2g1BTBBrwibeLZTdFItQ4tKbuxd5i2Ak8panz8B0yS1RuC8wxssPuHsEB1KHp6Z8XXKm-idgDE4DcBv4jfXeAtyW-gOhyDHzdUVoOfow40M_GNuo8jkfxJ_C9hebwL3XG57-5fXk3qbUZ_QjOYdPNrDHq8Nsvk7KaBSPZPit6rgrUIUifIswtndZ6XF2sGMzZLpvjZtjg36_vHFCJx3jZCnORRVnOhiUc9BC-2hlI-qULFbbtlW3BS5ac1MRPpBhkUFeC8uNwJajwU44Z8udBWJ-rCijiy9bgKwrIJ5ovNfYvaK3sUNVQhINYRN9ezBmTxxXUi7crTnmR4GbKsfSBRkvUvLmBvguxt_Bm00]--></g></svg>