<?xml version="1.0" encoding="us-ascii" standalone="no"?><svg xmlns="http://www.w3.org/2000/svg" xmlns:xlink="http://www.w3.org/1999/xlink" contentStyleType="text/css" height="652.8px" preserveAspectRatio="none" style="width:1289px;height:652px;background:#FFFFFF;" version="1.1" viewBox="0 0 1289 652" width="1289.6px" zoomAndPan="magnify"><defs/><g><text fill="#000000" font-family="sans-serif" font-size="11.2" font-weight="bold" lengthAdjust="spacing" textLength="105.6" x="593" y="24.0859">Sequence Diagram</text><rect fill="#FFFFFF" height="465.775" style="stroke:#181818;stroke-width:0.8000000000000002;" width="8" x="47.6" y="106.5938"/><rect fill="#FFFFFF" height="91.5875" style="stroke:#181818;stroke-width:0.8000000000000002;" width="8" x="338.8" y="133.2266"/><rect fill="#FFFFFF" height="225.0234" style="stroke:#181818;stroke-width:0.8000000000000002;" width="8" x="475.2" y="224.8141"/><rect fill="#FFFFFF" height="97.4984" style="stroke:#181818;stroke-width:0.8000000000000002;" width="8" x="475.2" y="474.8703"/><rect fill="#FFFFFF" height="125.1641" style="stroke:#181818;stroke-width:0.8000000000000002;" width="8" x="736" y="299.6406"/><rect fill="#FFFFFF" height="47.4328" style="stroke:#181818;stroke-width:0.8000000000000002;" width="8" x="736" y="499.9031"/><rect fill="#FFFFFF" height="11.2" style="stroke:#181818;stroke-width:0.8000000000000002;" width="8" x="864.4" y="524.9359"/><rect fill="#FFFFFF" height="75.0984" style="stroke:#181818;stroke-width:0.8000000000000002;" width="8" x="996.8" y="324.6734"/><rect fill="#FFFFFF" height="25.0328" style="stroke:#181818;stroke-width:0.8000000000000002;" width="8" x="1257.6" y="349.7063"/><line style="stroke:#181818;stroke-width:0.4000000000000001;stroke-dasharray:5.0,5.0;" x1="51.2" x2="51.2" y1="98.5938" y2="586.7688"/><line style="stroke:#181818;stroke-width:0.4000000000000001;stroke-dasharray:5.0,5.0;" x1="342.8" x2="342.8" y1="139.4906" y2="586.7688"/><line style="stroke:#181818;stroke-width:0.4000000000000001;stroke-dasharray:5.0,5.0;" x1="478.8" x2="478.8" y1="189.2844" y2="586.7688"/><line style="stroke:#181818;stroke-width:0.4000000000000001;stroke-dasharray:5.0,5.0;" x1="739.6" x2="739.6" y1="264.1109" y2="586.7688"/><line style="stroke:#181818;stroke-width:0.4000000000000001;stroke-dasharray:5.0,5.0;" x1="868.4" x2="868.4" y1="98.5938" y2="586.7688"/><line style="stroke:#181818;stroke-width:0.4000000000000001;stroke-dasharray:5.0,5.0;" x1="1000.8" x2="1000.8" y1="98.5938" y2="586.7688"/><line style="stroke:#181818;stroke-width:0.4000000000000001;stroke-dasharray:5.0,5.0;" x1="1261.2" x2="1261.2" y1="98.5938" y2="586.7688"/><text fill="#000000" font-family="sans-serif" font-size="11.2" lengthAdjust="spacing" textLength="90.4" x="4" y="95.7828">CRM Collaborator</text><ellipse cx="51.6" cy="42.4969" fill="#E2E2F0" rx="6.4" ry="6.4" style="stroke:#181818;stroke-width:0.4000000000000001;"/><path d="M51.6,48.8969 L51.6,70.4969 M41.2,55.2969 L62,55.2969 M51.6,70.4969 L41.2,82.4969 M51.6,70.4969 L62,82.4969 " fill="none" style="stroke:#181818;stroke-width:0.4000000000000001;"/><text fill="#000000" font-family="sans-serif" font-size="11.2" lengthAdjust="spacing" textLength="90.4" x="4" y="598.0547">CRM Collaborator</text><ellipse cx="51.6" cy="607.6656" fill="#E2E2F0" rx="6.4" ry="6.4" style="stroke:#181818;stroke-width:0.4000000000000001;"/><path d="M51.6,614.0656 L51.6,635.6656 M41.2,620.4656 L62,620.4656 M51.6,635.6656 L41.2,647.6656 M51.6,635.6656 L62,647.6656 " fill="none" style="stroke:#181818;stroke-width:0.4000000000000001;"/><rect fill="#E2E2F0" height="40.9938" rx="2" ry="2" style="stroke:#181818;stroke-width:0.4000000000000001;" width="139.2" x="273.2" y="585.9688"/><text fill="#000000" font-family="sans-serif" font-size="11.2" font-style="italic" lengthAdjust="spacing" textLength="76" x="304.8" y="603.6547">&#171;presentation&#187;</text><text fill="#000000" font-family="sans-serif" font-size="11.2" lengthAdjust="spacing" textLength="128" x="278.8" y="618.5516">MarkShowProposalAction</text><rect fill="#E2E2F0" height="40.9938" rx="2" ry="2" style="stroke:#181818;stroke-width:0.4000000000000001;" width="117.6" x="420.4" y="585.9688"/><text fill="#000000" font-family="sans-serif" font-size="11.2" font-style="italic" lengthAdjust="spacing" textLength="76" x="441.2" y="603.6547">&#171;presentation&#187;</text><text fill="#000000" font-family="sans-serif" font-size="11.2" lengthAdjust="spacing" textLength="106.4" x="426" y="618.5516">MarkShowProposalUI</text><rect fill="#E2E2F0" height="40.9938" rx="2" ry="2" style="stroke:#181818;stroke-width:0.4000000000000001;" width="157.6" x="661.2" y="585.9688"/><text fill="#000000" font-family="sans-serif" font-size="11.2" font-style="italic" lengthAdjust="spacing" textLength="67.2" x="706.4" y="603.6547">&#171;application&#187;</text><text fill="#000000" font-family="sans-serif" font-size="11.2" lengthAdjust="spacing" textLength="146.4" x="666.8" y="618.5516">MarkShowProposalController</text><rect fill="#E2E2F0" height="40.9938" rx="2" ry="2" style="stroke:#181818;stroke-width:0.4000000000000001;" width="83.2" x="826.8" y="56.8"/><text fill="#000000" font-family="sans-serif" font-size="11.2" font-style="italic" lengthAdjust="spacing" textLength="49.6" x="843.6" y="74.4859">&#171;domain&#187;</text><text fill="#000000" font-family="sans-serif" font-size="11.2" lengthAdjust="spacing" textLength="72" x="832.4" y="89.3828">ShowProposal</text><rect fill="#E2E2F0" height="40.9938" rx="2" ry="2" style="stroke:#181818;stroke-width:0.4000000000000001;" width="83.2" x="826.8" y="585.9688"/><text fill="#000000" font-family="sans-serif" font-size="11.2" font-style="italic" lengthAdjust="spacing" textLength="49.6" x="843.6" y="603.6547">&#171;domain&#187;</text><text fill="#000000" font-family="sans-serif" font-size="11.2" lengthAdjust="spacing" textLength="72" x="832.4" y="618.5516">ShowProposal</text><rect fill="#E2E2F0" height="40.9938" rx="2" ry="2" style="stroke:#181818;stroke-width:0.4000000000000001;" width="137.6" x="932" y="56.8"/><text fill="#000000" font-family="sans-serif" font-size="11.2" font-style="italic" lengthAdjust="spacing" textLength="63.2" x="969.2" y="74.4859">&#171;repository&#187;</text><text fill="#000000" font-family="sans-serif" font-size="11.2" lengthAdjust="spacing" textLength="126.4" x="937.6" y="89.3828">ShowProposalRepository</text><rect fill="#E2E2F0" height="40.9938" rx="2" ry="2" style="stroke:#181818;stroke-width:0.4000000000000001;" width="137.6" x="932" y="585.9688"/><text fill="#000000" font-family="sans-serif" font-size="11.2" font-style="italic" lengthAdjust="spacing" textLength="63.2" x="969.2" y="603.6547">&#171;repository&#187;</text><text fill="#000000" font-family="sans-serif" font-size="11.2" lengthAdjust="spacing" textLength="126.4" x="937.6" y="618.5516">ShowProposalRepository</text><text fill="#000000" font-family="sans-serif" font-size="11.2" lengthAdjust="spacing" textLength="48.8" x="1234.8" y="95.7828">Database</text><path d="M1247.2,54.8969 C1247.2,46.8969 1261.6,46.8969 1261.6,46.8969 C1261.6,46.8969 1276,46.8969 1276,54.8969 L1276,75.6969 C1276,83.6969 1261.6,83.6969 1261.6,83.6969 C1261.6,83.6969 1247.2,83.6969 1247.2,75.6969 L1247.2,54.8969 " fill="#E2E2F0" style="stroke:#181818;stroke-width:1.2000000000000002;"/><path d="M1247.2,54.8969 C1247.2,62.8969 1261.6,62.8969 1261.6,62.8969 C1261.6,62.8969 1276,62.8969 1276,54.8969 " fill="none" style="stroke:#181818;stroke-width:1.2000000000000002;"/><text fill="#000000" font-family="sans-serif" font-size="11.2" lengthAdjust="spacing" textLength="48.8" x="1234.8" y="598.0547">Database</text><path d="M1247.2,608.8656 C1247.2,600.8656 1261.6,600.8656 1261.6,600.8656 C1261.6,600.8656 1276,600.8656 1276,608.8656 L1276,629.6656 C1276,637.6656 1261.6,637.6656 1261.6,637.6656 C1261.6,637.6656 1247.2,637.6656 1247.2,629.6656 L1247.2,608.8656 " fill="#E2E2F0" style="stroke:#181818;stroke-width:1.2000000000000002;"/><path d="M1247.2,608.8656 C1247.2,616.8656 1261.6,616.8656 1261.6,616.8656 C1261.6,616.8656 1276,616.8656 1276,608.8656 " fill="none" style="stroke:#181818;stroke-width:1.2000000000000002;"/><rect fill="#FFFFFF" height="465.775" style="stroke:#181818;stroke-width:0.8000000000000002;" width="8" x="47.6" y="106.5938"/><rect fill="#FFFFFF" height="91.5875" style="stroke:#181818;stroke-width:0.8000000000000002;" width="8" x="338.8" y="133.2266"/><rect fill="#FFFFFF" height="225.0234" style="stroke:#181818;stroke-width:0.8000000000000002;" width="8" x="475.2" y="224.8141"/><rect fill="#FFFFFF" height="97.4984" style="stroke:#181818;stroke-width:0.8000000000000002;" width="8" x="475.2" y="474.8703"/><rect fill="#FFFFFF" height="125.1641" style="stroke:#181818;stroke-width:0.8000000000000002;" width="8" x="736" y="299.6406"/><rect fill="#FFFFFF" height="47.4328" style="stroke:#181818;stroke-width:0.8000000000000002;" width="8" x="736" y="499.9031"/><rect fill="#FFFFFF" height="11.2" style="stroke:#181818;stroke-width:0.8000000000000002;" width="8" x="864.4" y="524.9359"/><rect fill="#FFFFFF" height="75.0984" style="stroke:#181818;stroke-width:0.8000000000000002;" width="8" x="996.8" y="324.6734"/><rect fill="#FFFFFF" height="25.0328" style="stroke:#181818;stroke-width:0.8000000000000002;" width="8" x="1257.6" y="349.7063"/><polygon fill="#181818" points="263.6,122.0266,271.6,125.2266,263.6,128.4266,266.8,125.2266" style="stroke:#181818;stroke-width:0.8000000000000002;"/><line style="stroke:#181818;stroke-width:0.8000000000000002;" x1="55.6" x2="268.4" y1="125.2266" y2="125.2266"/><text fill="#000000" font-family="sans-serif" font-size="10.4" lengthAdjust="spacing" textLength="198.4" x="61.2" y="121.0164">Wants to mark show proposal as accepted</text><rect fill="#E2E2F0" height="40.9938" rx="2" ry="2" style="stroke:#181818;stroke-width:0.4000000000000001;" width="139.2" x="273.2" y="106.5938"/><text fill="#000000" font-family="sans-serif" font-size="11.2" font-style="italic" lengthAdjust="spacing" textLength="76" x="304.8" y="124.2797">&#171;presentation&#187;</text><text fill="#000000" font-family="sans-serif" font-size="11.2" lengthAdjust="spacing" textLength="128" x="278.8" y="139.1766">MarkShowProposalAction</text><polygon fill="#181818" points="410.8,171.8203,418.8,175.0203,410.8,178.2203,414,175.0203" style="stroke:#181818;stroke-width:0.8000000000000002;"/><line style="stroke:#181818;stroke-width:0.8000000000000002;" x1="346.8" x2="415.6" y1="175.0203" y2="175.0203"/><text fill="#000000" font-family="sans-serif" font-size="10.4" lengthAdjust="spacing" textLength="28.8" x="352.4" y="170.8102">create</text><rect fill="#E2E2F0" height="40.9938" rx="2" ry="2" style="stroke:#181818;stroke-width:0.4000000000000001;" width="117.6" x="420.4" y="156.3875"/><text fill="#000000" font-family="sans-serif" font-size="11.2" font-style="italic" lengthAdjust="spacing" textLength="76" x="441.2" y="174.0734">&#171;presentation&#187;</text><text fill="#000000" font-family="sans-serif" font-size="11.2" lengthAdjust="spacing" textLength="106.4" x="426" y="188.9703">MarkShowProposalUI</text><polygon fill="#181818" points="465.6,221.6141,473.6,224.8141,465.6,228.0141,468.8,224.8141" style="stroke:#181818;stroke-width:0.8000000000000002;"/><line style="stroke:#181818;stroke-width:0.8000000000000002;" x1="342.8" x2="470.4" y1="224.8141" y2="224.8141"/><text fill="#000000" font-family="sans-serif" font-size="10.4" lengthAdjust="spacing" textLength="30.4" x="348.4" y="220.6039">show()</text><polygon fill="#181818" points="651.6,246.6469,659.6,249.8469,651.6,253.0469,654.8,249.8469" style="stroke:#181818;stroke-width:0.8000000000000002;"/><line style="stroke:#181818;stroke-width:0.8000000000000002;" x1="483.2" x2="656.4" y1="249.8469" y2="249.8469"/><text fill="#000000" font-family="sans-serif" font-size="10.4" lengthAdjust="spacing" textLength="28.8" x="488.8" y="245.6367">create</text><rect fill="#E2E2F0" height="40.9938" rx="2" ry="2" style="stroke:#181818;stroke-width:0.4000000000000001;" width="157.6" x="661.2" y="231.2141"/><text fill="#000000" font-family="sans-serif" font-size="11.2" font-style="italic" lengthAdjust="spacing" textLength="67.2" x="706.4" y="248.9">&#171;application&#187;</text><text fill="#000000" font-family="sans-serif" font-size="11.2" lengthAdjust="spacing" textLength="146.4" x="666.8" y="263.7969">MarkShowProposalController</text><polygon fill="#181818" points="726.4,296.4406,734.4,299.6406,726.4,302.8406,729.6,299.6406" style="stroke:#181818;stroke-width:0.8000000000000002;"/><line style="stroke:#181818;stroke-width:0.8000000000000002;" x1="483.2" x2="731.2" y1="299.6406" y2="299.6406"/><text fill="#000000" font-family="sans-serif" font-size="10.4" lengthAdjust="spacing" textLength="138.4" x="488.8" y="295.4305">getAnsweredShowProposals()</text><polygon fill="#181818" points="987.2,321.4734,995.2,324.6734,987.2,327.8734,990.4,324.6734" style="stroke:#181818;stroke-width:0.8000000000000002;"/><line style="stroke:#181818;stroke-width:0.8000000000000002;" x1="744" x2="992" y1="324.6734" y2="324.6734"/><text fill="#000000" font-family="sans-serif" font-size="10.4" lengthAdjust="spacing" textLength="125.6" x="749.6" y="320.4633">findByAcceptedProposals()</text><polygon fill="#181818" points="1248,346.5063,1256,349.7063,1248,352.9063,1251.2,349.7063" style="stroke:#181818;stroke-width:0.8000000000000002;"/><line style="stroke:#181818;stroke-width:0.8000000000000002;" x1="1004.8" x2="1252.8" y1="349.7063" y2="349.7063"/><text fill="#000000" font-family="sans-serif" font-size="10.4" lengthAdjust="spacing" textLength="125.6" x="1010.4" y="345.4961">findByAcceptedProposals()</text><polygon fill="#181818" points="1013.6,371.5391,1005.6,374.7391,1013.6,377.9391,1010.4,374.7391" style="stroke:#181818;stroke-width:0.8000000000000002;"/><line style="stroke:#181818;stroke-width:0.8000000000000002;stroke-dasharray:2.0,2.0;" x1="1008.8" x2="1260.8" y1="374.7391" y2="374.7391"/><text fill="#000000" font-family="sans-serif" font-size="10.4" lengthAdjust="spacing" textLength="233.6" x="1018.4" y="370.5289">List of Show Proposals Accepted by the Customer</text><polygon fill="#181818" points="752.8,396.5719,744.8,399.7719,752.8,402.9719,749.6,399.7719" style="stroke:#181818;stroke-width:0.8000000000000002;"/><line style="stroke:#181818;stroke-width:0.8000000000000002;stroke-dasharray:2.0,2.0;" x1="748" x2="1000" y1="399.7719" y2="399.7719"/><text fill="#000000" font-family="sans-serif" font-size="10.4" lengthAdjust="spacing" textLength="233.6" x="757.6" y="395.5617">List of Show Proposals Accepted by the Customer</text><polygon fill="#181818" points="492,421.6047,484,424.8047,492,428.0047,488.8,424.8047" style="stroke:#181818;stroke-width:0.8000000000000002;"/><line style="stroke:#181818;stroke-width:0.8000000000000002;stroke-dasharray:2.0,2.0;" x1="487.2" x2="739.2" y1="424.8047" y2="424.8047"/><text fill="#000000" font-family="sans-serif" font-size="10.4" lengthAdjust="spacing" textLength="233.6" x="496.8" y="420.5945">List of Show Proposals Accepted by the Customer</text><polygon fill="#181818" points="64.4,446.6375,56.4,449.8375,64.4,453.0375,61.2,449.8375" style="stroke:#181818;stroke-width:0.8000000000000002;"/><line style="stroke:#181818;stroke-width:0.8000000000000002;stroke-dasharray:2.0,2.0;" x1="59.6" x2="478.4" y1="449.8375" y2="449.8375"/><text fill="#000000" font-family="sans-serif" font-size="10.4" lengthAdjust="spacing" textLength="262.4" x="69.2" y="445.6273">Show List of Show Proposals Accepted by the Customer</text><polygon fill="#181818" points="465.6,471.6703,473.6,474.8703,465.6,478.0703,468.8,474.8703" style="stroke:#181818;stroke-width:0.8000000000000002;"/><line style="stroke:#181818;stroke-width:0.8000000000000002;" x1="55.6" x2="470.4" y1="474.8703" y2="474.8703"/><text fill="#000000" font-family="sans-serif" font-size="10.4" lengthAdjust="spacing" textLength="106.4" x="61.2" y="470.6602">Choose Show proposal</text><polygon fill="#181818" points="726.4,496.7031,734.4,499.9031,726.4,503.1031,729.6,499.9031" style="stroke:#181818;stroke-width:0.8000000000000002;"/><line style="stroke:#181818;stroke-width:0.8000000000000002;" x1="483.2" x2="731.2" y1="499.9031" y2="499.9031"/><text fill="#000000" font-family="sans-serif" font-size="10.4" lengthAdjust="spacing" textLength="160.8" x="488.8" y="495.693">markShowProposal(showProposal)</text><polygon fill="#181818" points="854.8,521.7359,862.8,524.9359,854.8,528.1359,858,524.9359" style="stroke:#181818;stroke-width:0.8000000000000002;"/><line style="stroke:#181818;stroke-width:0.8000000000000002;" x1="744" x2="859.6" y1="524.9359" y2="524.9359"/><text fill="#000000" font-family="sans-serif" font-size="10.4" lengthAdjust="spacing" textLength="96" x="749.6" y="520.7258">markShowProposal()</text><polygon fill="#181818" points="752.8,532.9359,744.8,536.1359,752.8,539.3359,749.6,536.1359" style="stroke:#181818;stroke-width:0.8000000000000002;"/><line style="stroke:#181818;stroke-width:0.8000000000000002;stroke-dasharray:2.0,2.0;" x1="748" x2="867.6" y1="536.1359" y2="536.1359"/><polygon fill="#181818" points="492,544.1359,484,547.3359,492,550.5359,488.8,547.3359" style="stroke:#181818;stroke-width:0.8000000000000002;"/><line style="stroke:#181818;stroke-width:0.8000000000000002;stroke-dasharray:2.0,2.0;" x1="487.2" x2="739.2" y1="547.3359" y2="547.3359"/><polygon fill="#181818" points="60.4,569.1688,52.4,572.3688,60.4,575.5688,57.2,572.3688" style="stroke:#181818;stroke-width:0.8000000000000002;"/><line style="stroke:#181818;stroke-width:0.8000000000000002;stroke-dasharray:2.0,2.0;" x1="55.6" x2="478.4" y1="572.3688" y2="572.3688"/><text fill="#000000" font-family="sans-serif" font-size="10.4" lengthAdjust="spacing" textLength="175.2" x="65.2" y="568.1586">Confirm Show Proposal was accepted</text><!--SRC=[hLJ1Ri8m3BtdAonE6z9-e498Z5sGXZGDePrDQqQqjkcIR8Y_dnkQDcaB4zDwIHFRxoL-jgsqES66Fh-eJ0cU9BvhB8J0r2eDa-Nh6fOgpt6dDFB91D30ehQ92hMLgQomj31Pe_xO7DJnHQjA6SpPHQhIU_Clp6QL9aEbnNexdr-FtwvSx7PrOznIbLRpVUbyqsxBE5XLkKn7OK885nWUS6Yc2fHNerw95ybvEGtYEnCZwNR3Q1bQtA4Xc3mrVoxORvmAyXijDIaNRe67UPFKwJI1DxwA0QkWu5I0OLwe_CKP2zEKAajPZCMn3gmMXj6sg-aK4aWriJqwJnpYtRqG6VK1WB_sRBiIWjNYe2xd8MZVbi0xsKLfZgGf2xDbQh88kWiw6-el49PXnxETm5wMsUDfqQHWm12nZ6DqZXSKPNOlrpM-0LsdiJVv4tYuyg9dQIoelRD3Im2U4dOdi0TEsPUngk24UV10lPRvjvVrzFe7wWiv7XErgRw_a0Q4OUdK5NZk7CMlSO2teWV8TRsttLZVT7bGofoVs3QW4CCcyOyTDaJHcsLt9jYCbD1jVJ62ts5Ux0GHkKHJCQwFoE-2v97FKEonYXaXY7LaXxtKHImX7AF9ryDa5U9XnfFr1m00]--></g></svg>