<?xml version="1.0" encoding="us-ascii" standalone="no"?><svg xmlns="http://www.w3.org/2000/svg" xmlns:xlink="http://www.w3.org/1999/xlink" contentStyleType="text/css" height="492px" preserveAspectRatio="none" style="width:504px;height:492px;background:#FFFFFF;" version="1.1" viewBox="0 0 504 492" width="504px" zoomAndPan="magnify"><defs/><g><text fill="#000000" font-family="sans-serif" font-size="14" font-weight="bold" lengthAdjust="spacing" textLength="242" x="127.25" y="30.1074">System Sequence Diagram - US317</text><rect fill="#FFFFFF" height="267.6191" style="stroke:#181818;stroke-width:1.0;" width="10" x="59.5" y="133.2422"/><rect fill="#FFFFFF" height="48.582" style="stroke:#181818;stroke-width:1.0;" width="10" x="336.5" y="201.8242"/><rect fill="#FFFFFF" height="110.1641" style="stroke:#181818;stroke-width:1.0;" width="10" x="336.5" y="281.6973"/><line style="stroke:#181818;stroke-width:0.5;stroke-dasharray:5.0,5.0;" x1="64" x2="64" y1="123.2422" y2="409.8613"/><line style="stroke:#181818;stroke-width:0.5;stroke-dasharray:5.0,5.0;" x1="341.5" x2="341.5" y1="123.2422" y2="409.8613"/><text fill="#000000" font-family="sans-serif" font-size="14" lengthAdjust="spacing" textLength="113" x="5" y="119.7285">CRM Collaborator</text><ellipse cx="64.5" cy="53.1211" fill="#E3E3E3" rx="8" ry="8" style="stroke:#181818;stroke-width:0.5;"/><path d="M64.5,61.1211 L64.5,88.1211 M51.5,69.1211 L77.5,69.1211 M64.5,88.1211 L51.5,103.1211 M64.5,88.1211 L77.5,103.1211 " fill="none" style="stroke:#181818;stroke-width:0.5;"/><text fill="#000000" font-family="sans-serif" font-size="14" lengthAdjust="spacing" textLength="113" x="5" y="423.9688">CRM Collaborator</text><ellipse cx="64.5" cy="435.9824" fill="#E3E3E3" rx="8" ry="8" style="stroke:#181818;stroke-width:0.5;"/><path d="M64.5,443.9824 L64.5,470.9824 M51.5,451.9824 L77.5,451.9824 M64.5,470.9824 L51.5,485.9824 M64.5,470.9824 L77.5,485.9824 " fill="none" style="stroke:#181818;stroke-width:0.5;"/><rect fill="#E3E3E3" height="32.6211" rx="2.5" ry="2.5" style="stroke:#181818;stroke-width:0.5;" width="60" x="311.5" y="89.6211"/><text fill="#000000" font-family="sans-serif" font-size="14" lengthAdjust="spacing" textLength="46" x="318.5" y="111.7285">System</text><rect fill="#E3E3E3" height="32.6211" rx="2.5" ry="2.5" style="stroke:#181818;stroke-width:0.5;" width="60" x="311.5" y="408.8613"/><text fill="#000000" font-family="sans-serif" font-size="14" lengthAdjust="spacing" textLength="46" x="318.5" y="430.9688">System</text><rect fill="#FFFFFF" height="267.6191" style="stroke:#181818;stroke-width:1.0;" width="10" x="59.5" y="133.2422"/><rect fill="#FFFFFF" height="48.582" style="stroke:#181818;stroke-width:1.0;" width="10" x="336.5" y="201.8242"/><rect fill="#FFFFFF" height="110.1641" style="stroke:#181818;stroke-width:1.0;" width="10" x="336.5" y="281.6973"/><rect fill="#EEEEEE" height="3" style="stroke:#EEEEEE;stroke-width:1.0;" width="497.5" x="0" y="154.8877"/><line style="stroke:#000000;stroke-width:1.0;" x1="0" x2="497.5" y1="154.8877" y2="154.8877"/><line style="stroke:#000000;stroke-width:1.0;" x1="0" x2="497.5" y1="157.8877" y2="157.8877"/><rect fill="#EEEEEE" height="25.291" style="stroke:#000000;stroke-width:2.0;" width="225" x="136.25" y="143.2422"/><text fill="#000000" font-family="sans-serif" font-size="13" font-weight="bold" lengthAdjust="spacing" textLength="207" x="142.25" y="161.2705">Mark show proposal as accepted</text><polygon fill="#181818" points="324.5,197.8242,334.5,201.8242,324.5,205.8242,328.5,201.8242" style="stroke:#181818;stroke-width:1.0;"/><line style="stroke:#181818;stroke-width:1.0;" x1="69.5" x2="330.5" y1="201.8242" y2="201.8242"/><text fill="#000000" font-family="sans-serif" font-size="13" lengthAdjust="spacing" textLength="248" x="76.5" y="196.5615">Wants to mark show proposal as accepted</text><polygon fill="#181818" points="80.5,246.4063,70.5,250.4063,80.5,254.4063,76.5,250.4063" style="stroke:#181818;stroke-width:1.0;"/><line style="stroke:#181818;stroke-width:1.0;" x1="74.5" x2="340.5" y1="250.4063" y2="250.4063"/><text fill="#000000" font-family="sans-serif" font-size="13" lengthAdjust="spacing" textLength="129" x="86.5" y="227.8525">Displays the accepted</text><text fill="#000000" font-family="sans-serif" font-size="13" lengthAdjust="spacing" textLength="205" x="90.5" y="245.1436">responses received from customers</text><polygon fill="#181818" points="324.5,277.6973,334.5,281.6973,324.5,285.6973,328.5,281.6973" style="stroke:#181818;stroke-width:1.0;"/><line style="stroke:#181818;stroke-width:1.0;" x1="69.5" x2="330.5" y1="281.6973" y2="281.6973"/><text fill="#000000" font-family="sans-serif" font-size="13" lengthAdjust="spacing" textLength="180" x="76.5" y="276.4346">Selects the accepted response</text><line style="stroke:#181818;stroke-width:1.0;" x1="346.5" x2="388.5" y1="347.5703" y2="347.5703"/><line style="stroke:#181818;stroke-width:1.0;" x1="388.5" x2="388.5" y1="347.5703" y2="360.5703"/><line style="stroke:#181818;stroke-width:1.0;" x1="347.5" x2="388.5" y1="360.5703" y2="360.5703"/><polygon fill="#181818" points="357.5,356.5703,347.5,360.5703,357.5,364.5703,353.5,360.5703" style="stroke:#181818;stroke-width:1.0;"/><text fill="#000000" font-family="sans-serif" font-size="13" lengthAdjust="spacing" textLength="116" x="353.5" y="307.7256">Mark show proposal</text><text fill="#000000" font-family="sans-serif" font-size="13" lengthAdjust="spacing" textLength="100" x="357.5" y="325.0166">associated to the</text><text fill="#000000" font-family="sans-serif" font-size="13" lengthAdjust="spacing" textLength="128" x="357.5" y="342.3076">response as accepted</text><polygon fill="#181818" points="80.5,387.8613,70.5,391.8613,80.5,395.8613,76.5,391.8613" style="stroke:#181818;stroke-width:1.0;"/><line style="stroke:#181818;stroke-width:1.0;" x1="74.5" x2="340.5" y1="391.8613" y2="391.8613"/><text fill="#000000" font-family="sans-serif" font-size="13" lengthAdjust="spacing" textLength="219" x="86.5" y="386.5986">Confirm Show Proposal was accepted</text><!--SRC=[VP5DRy8m38Rl_XKMTmxJ3fCgTHTsHPfMJRliuWLJ8j8uYrCG_tukdmKcUegSzF7ZrxhsCL6c3Zk9ubPPEiQIUmOztoHoQsgvARl0cDaLYcqOFz0LBMJhOujB2ie0v8fadCm-vZYJ4EX7CbbbWgJeSZUkWI6ATpvHB3XfTbgusx_J_H6W-69j3nVOy6_FqJ6-UMg7rbFyR9wVNW3g6kUKr-OYMqnPaYY5WKFESIgymBeUlFo62jz9m4q1fwz70QpmozGKYs3tiC65Vb8_4enrYwzi04s1TiPTyHdn7IrVJHALTKYQ_SR4bxOKTBqMsqrMj0yMVDliqG0D1zlQTQjp8xZplcWVJjK_oPefgOhpDB0i6sEFxAzoUHJ3JEBIPrli07y_fReT_tu_Ay0V]--></g></svg>