<?xml version="1.0" encoding="us-ascii" standalone="no"?><svg xmlns="http://www.w3.org/2000/svg" xmlns:xlink="http://www.w3.org/1999/xlink" contentStyleType="text/css" height="520px" preserveAspectRatio="none" style="width:611px;height:520px;background:#FFFFFF;" version="1.1" viewBox="0 0 611 520" width="611px" zoomAndPan="magnify"><defs/><g><text fill="#000000" font-family="sans-serif" font-size="14" font-weight="bold" lengthAdjust="spacing" textLength="242" x="180.75" y="30.1074">System Sequence Diagram - US317</text><rect fill="#FFFFFF" height="295.6191" style="stroke:#181818;stroke-width:1.0;" width="10" x="59.5" y="133.2422"/><rect fill="#FFFFFF" height="31.291" style="stroke:#181818;stroke-width:1.0;" width="10" x="459.5" y="201.8242"/><rect fill="#FFFFFF" height="31.291" style="stroke:#181818;stroke-width:1.0;" width="10" x="459.5" y="264.4063"/><rect fill="#FFFFFF" height="92.873" style="stroke:#181818;stroke-width:1.0;" width="10" x="459.5" y="326.9883"/><line style="stroke:#181818;stroke-width:0.5;stroke-dasharray:5.0,5.0;" x1="64" x2="64" y1="123.2422" y2="437.8613"/><line style="stroke:#181818;stroke-width:0.5;stroke-dasharray:5.0,5.0;" x1="464.5" x2="464.5" y1="123.2422" y2="437.8613"/><text fill="#000000" font-family="sans-serif" font-size="14" lengthAdjust="spacing" textLength="113" x="5" y="119.7285">CRM Collaborator</text><ellipse cx="64.5" cy="53.1211" fill="#E3E3E3" rx="8" ry="8" style="stroke:#181818;stroke-width:0.5;"/><path d="M64.5,61.1211 L64.5,88.1211 M51.5,69.1211 L77.5,69.1211 M64.5,88.1211 L51.5,103.1211 M64.5,88.1211 L77.5,103.1211 " fill="none" style="stroke:#181818;stroke-width:0.5;"/><text fill="#000000" font-family="sans-serif" font-size="14" lengthAdjust="spacing" textLength="113" x="5" y="451.9688">CRM Collaborator</text><ellipse cx="64.5" cy="463.9824" fill="#E3E3E3" rx="8" ry="8" style="stroke:#181818;stroke-width:0.5;"/><path d="M64.5,471.9824 L64.5,498.9824 M51.5,479.9824 L77.5,479.9824 M64.5,498.9824 L51.5,513.9824 M64.5,498.9824 L77.5,513.9824 " fill="none" style="stroke:#181818;stroke-width:0.5;"/><rect fill="#E3E3E3" height="32.6211" rx="2.5" ry="2.5" style="stroke:#181818;stroke-width:0.5;" width="60" x="434.5" y="89.6211"/><text fill="#000000" font-family="sans-serif" font-size="14" lengthAdjust="spacing" textLength="46" x="441.5" y="111.7285">System</text><rect fill="#E3E3E3" height="32.6211" rx="2.5" ry="2.5" style="stroke:#181818;stroke-width:0.5;" width="60" x="434.5" y="436.8613"/><text fill="#000000" font-family="sans-serif" font-size="14" lengthAdjust="spacing" textLength="46" x="441.5" y="458.9688">System</text><rect fill="#FFFFFF" height="295.6191" style="stroke:#181818;stroke-width:1.0;" width="10" x="59.5" y="133.2422"/><rect fill="#FFFFFF" height="31.291" style="stroke:#181818;stroke-width:1.0;" width="10" x="459.5" y="201.8242"/><rect fill="#FFFFFF" height="31.291" style="stroke:#181818;stroke-width:1.0;" width="10" x="459.5" y="264.4063"/><rect fill="#FFFFFF" height="92.873" style="stroke:#181818;stroke-width:1.0;" width="10" x="459.5" y="326.9883"/><rect fill="#EEEEEE" height="3" style="stroke:#EEEEEE;stroke-width:1.0;" width="604.5" x="0" y="154.8877"/><line style="stroke:#000000;stroke-width:1.0;" x1="0" x2="604.5" y1="154.8877" y2="154.8877"/><line style="stroke:#000000;stroke-width:1.0;" x1="0" x2="604.5" y1="157.8877" y2="157.8877"/><rect fill="#EEEEEE" height="25.291" style="stroke:#000000;stroke-width:2.0;" width="225" x="189.75" y="143.2422"/><text fill="#000000" font-family="sans-serif" font-size="13" font-weight="bold" lengthAdjust="spacing" textLength="207" x="195.75" y="161.2705">Mark show proposal as accepted</text><polygon fill="#181818" points="447.5,197.8242,457.5,201.8242,447.5,205.8242,451.5,201.8242" style="stroke:#181818;stroke-width:1.0;"/><line style="stroke:#181818;stroke-width:1.0;" x1="69.5" x2="453.5" y1="201.8242" y2="201.8242"/><text fill="#000000" font-family="sans-serif" font-size="13" lengthAdjust="spacing" textLength="248" x="76.5" y="196.5615">Wants to mark show proposal as accepted</text><polygon fill="#181818" points="80.5,229.1152,70.5,233.1152,80.5,237.1152,76.5,233.1152" style="stroke:#181818;stroke-width:1.0;"/><line style="stroke:#181818;stroke-width:1.0;" x1="74.5" x2="463.5" y1="233.1152" y2="233.1152"/><text fill="#000000" font-family="sans-serif" font-size="13" lengthAdjust="spacing" textLength="211" x="86.5" y="227.8525">Show list of Active Customers (DTO)</text><polygon fill="#181818" points="447.5,260.4063,457.5,264.4063,447.5,268.4063,451.5,264.4063" style="stroke:#181818;stroke-width:1.0;"/><line style="stroke:#181818;stroke-width:1.0;" x1="69.5" x2="453.5" y1="264.4063" y2="264.4063"/><text fill="#000000" font-family="sans-serif" font-size="13" lengthAdjust="spacing" textLength="104" x="76.5" y="259.1436">Choose Customer</text><polygon fill="#181818" points="80.5,291.6973,70.5,295.6973,80.5,299.6973,76.5,295.6973" style="stroke:#181818;stroke-width:1.0;"/><line style="stroke:#181818;stroke-width:1.0;" x1="74.5" x2="463.5" y1="295.6973" y2="295.6973"/><text fill="#000000" font-family="sans-serif" font-size="13" lengthAdjust="spacing" textLength="366" x="86.5" y="290.4346">Show List of Show Proposals Accepted by the Customer (DTO)</text><polygon fill="#181818" points="447.5,322.9883,457.5,326.9883,447.5,330.9883,451.5,326.9883" style="stroke:#181818;stroke-width:1.0;"/><line style="stroke:#181818;stroke-width:1.0;" x1="69.5" x2="453.5" y1="326.9883" y2="326.9883"/><text fill="#000000" font-family="sans-serif" font-size="13" lengthAdjust="spacing" textLength="133" x="76.5" y="321.7256">Choose Show proposal</text><line style="stroke:#181818;stroke-width:1.0;" x1="469.5" x2="511.5" y1="375.5703" y2="375.5703"/><line style="stroke:#181818;stroke-width:1.0;" x1="511.5" x2="511.5" y1="375.5703" y2="388.5703"/><line style="stroke:#181818;stroke-width:1.0;" x1="470.5" x2="511.5" y1="388.5703" y2="388.5703"/><polygon fill="#181818" points="480.5,384.5703,470.5,388.5703,480.5,392.5703,476.5,388.5703" style="stroke:#181818;stroke-width:1.0;"/><text fill="#000000" font-family="sans-serif" font-size="13" lengthAdjust="spacing" textLength="116" x="476.5" y="353.0166">Mark show proposal</text><text fill="#000000" font-family="sans-serif" font-size="13" lengthAdjust="spacing" textLength="71" x="484.5" y="370.3076">as accepted</text><polygon fill="#181818" points="80.5,415.8613,70.5,419.8613,80.5,423.8613,76.5,419.8613" style="stroke:#181818;stroke-width:1.0;"/><line style="stroke:#181818;stroke-width:1.0;" x1="74.5" x2="463.5" y1="419.8613" y2="419.8613"/><text fill="#000000" font-family="sans-serif" font-size="13" lengthAdjust="spacing" textLength="219" x="86.5" y="414.5986">Confirm Show Proposal was accepted</text><!--SRC=[bP4nJyCm48Lt_ufJ9nWw80QaIa52wKW58Y0MbgjxJQpQlc1VgVhlSTgKf0sjrCs-Ex_xtdDS6LzZG0UEFUigi2EGi2OL_perwXMMLCZM4WJIWhwq_O5OuO8tnfUmH1j9ATJ20KRvsmnojXRd731LHe0HT73zcaeIOhIfqGkCYcqKShkvk3ig9KRIsdq32lfUazS4KuDbiteC7yNztODIMGOp3Al4mXke0zSSqJOwg3NLGWl8ieRB_A3G04AT563ys0B013uJMWHXS1SNTEe7z5OXQPt8Jw1eLAo90ho4f-OXGRwEak8F4Mwcxo-tQa43nREO4yWhvjY9N46JBEvvdbkUtUMrjHWJNflWV0jITIlEObuAiyKi-Ycg0Mp7Uh0t_Dml3qVnN_ANir-Qu8wTmQR__9-qrIy0]--></g></svg>