<?xml version="1.0" encoding="us-ascii" standalone="no"?><svg xmlns="http://www.w3.org/2000/svg" xmlns:xlink="http://www.w3.org/1999/xlink" contentStyleType="text/css" height="1197px" preserveAspectRatio="none" style="width:2271px;height:1197px;background:#FFFFFF;" version="1.1" viewBox="0 0 2271 1197" width="2271px" zoomAndPan="magnify"><defs/><g><text fill="#000000" font-family="sans-serif" font-size="14" font-weight="bold" lengthAdjust="spacing" textLength="132" x="1071" y="30.1074">Sequence Diagram</text><rect fill="#FFFFFF" height="963.1289" style="stroke:#181818;stroke-width:1.0;" width="10" x="40.5" y="133.2422"/><rect fill="#FFFFFF" height="93.5332" style="stroke:#181818;stroke-width:1.0;" width="10" x="220.5" y="156.5332"/><rect fill="#FFFFFF" height="93.5332" style="stroke:#181818;stroke-width:1.0;" width="10" x="422.5" y="250.0664"/><rect fill="#FFFFFF" height="281.6191" style="stroke:#181818;stroke-width:1.0;" width="10" x="422.5" y="374.8906"/><rect fill="#FFFFFF" height="408.5703" style="stroke:#181818;stroke-width:1.0;" width="10" x="422.5" y="687.8008"/><rect fill="#FFFFFF" height="219.0371" style="stroke:#181818;stroke-width:1.0;" width="10" x="665.5" y="406.1816"/><rect fill="#FFFFFF" height="345.9883" style="stroke:#181818;stroke-width:1.0;" width="10" x="665.5" y="719.0918"/><rect fill="#FFFFFF" height="269.4063" style="stroke:#181818;stroke-width:1.0;" width="10" x="1204" y="781.6738"/><rect fill="#FFFFFF" height="209.1152" style="stroke:#181818;stroke-width:1.0;" width="10" x="1209" y="820.9648"/><rect fill="#FFFFFF" height="156.4551" style="stroke:#181818;stroke-width:1.0;" width="10" x="1623" y="437.4727"/><rect fill="#FFFFFF" height="52.2422" style="stroke:#181818;stroke-width:1.0;" width="10" x="1781" y="867.2559"/><rect fill="#FFFFFF" height="59.291" style="stroke:#181818;stroke-width:1.0;" width="10" x="1889.5" y="950.7891"/><rect fill="#FFFFFF" height="93.873" style="stroke:#181818;stroke-width:1.0;" width="10" x="2039.5" y="468.7637"/><rect fill="#FFFFFF" height="31.291" style="stroke:#181818;stroke-width:1.0;" width="10" x="2231.5" y="500.0547"/><rect fill="#FFFFFF" height="14" style="stroke:#181818;stroke-width:1.0;" width="10" x="2231.5" y="982.0801"/><line style="stroke:#181818;stroke-width:0.5;stroke-dasharray:5.0,5.0;" x1="45" x2="45" y1="123.2422" y2="1114.3711"/><line style="stroke:#181818;stroke-width:0.5;stroke-dasharray:5.0,5.0;" x1="225" x2="225" y1="123.2422" y2="1114.3711"/><line style="stroke:#181818;stroke-width:0.5;stroke-dasharray:5.0,5.0;" x1="427" x2="427" y1="205.6543" y2="1114.3711"/><line style="stroke:#181818;stroke-width:0.5;stroke-dasharray:5.0,5.0;" x1="670.5" x2="670.5" y1="299.1875" y2="1114.3711"/><line style="stroke:#181818;stroke-width:0.5;stroke-dasharray:5.0,5.0;" x1="1036" x2="1036" y1="123.2422" y2="1114.3711"/><line style="stroke:#181818;stroke-width:0.5;stroke-dasharray:5.0,5.0;" x1="1209" x2="1209" y1="123.2422" y2="1114.3711"/><line style="stroke:#181818;stroke-width:0.5;stroke-dasharray:5.0,5.0;" x1="1628" x2="1628" y1="123.2422" y2="1114.3711"/><line style="stroke:#181818;stroke-width:0.5;stroke-dasharray:5.0,5.0;" x1="1786" x2="1786" y1="875.0859" y2="1114.3711"/><line style="stroke:#181818;stroke-width:0.5;stroke-dasharray:5.0,5.0;" x1="1894" x2="1894" y1="123.2422" y2="1114.3711"/><line style="stroke:#181818;stroke-width:0.5;stroke-dasharray:5.0,5.0;" x1="2044" x2="2044" y1="123.2422" y2="1114.3711"/><line style="stroke:#181818;stroke-width:0.5;stroke-dasharray:5.0,5.0;" x1="2236" x2="2236" y1="123.2422" y2="1114.3711"/><text fill="#000000" font-family="sans-serif" font-size="14" lengthAdjust="spacing" textLength="75" x="5" y="119.7285">Drone Tech</text><ellipse cx="45.5" cy="53.1211" fill="#E2E2F0" rx="8" ry="8" style="stroke:#181818;stroke-width:0.5;"/><path d="M45.5,61.1211 L45.5,88.1211 M32.5,69.1211 L58.5,69.1211 M45.5,88.1211 L32.5,103.1211 M45.5,88.1211 L58.5,103.1211 " fill="none" style="stroke:#181818;stroke-width:0.5;"/><text fill="#000000" font-family="sans-serif" font-size="14" lengthAdjust="spacing" textLength="75" x="5" y="1128.4785">Drone Tech</text><ellipse cx="45.5" cy="1140.4922" fill="#E2E2F0" rx="8" ry="8" style="stroke:#181818;stroke-width:0.5;"/><path d="M45.5,1148.4922 L45.5,1175.4922 M32.5,1156.4922 L58.5,1156.4922 M45.5,1175.4922 L32.5,1190.4922 M45.5,1175.4922 L58.5,1190.4922 " fill="none" style="stroke:#181818;stroke-width:0.5;"/><rect fill="#E2E2F0" height="51.2422" rx="2.5" ry="2.5" style="stroke:#181818;stroke-width:0.5;" width="117" x="167" y="71"/><text fill="#000000" font-family="sans-serif" font-size="14" font-style="italic" lengthAdjust="spacing" textLength="95" x="178" y="93.1074">&#171;presentation&#187;</text><text fill="#000000" font-family="sans-serif" font-size="14" lengthAdjust="spacing" textLength="103" x="174" y="111.7285">AddDroneAction</text><rect fill="#E2E2F0" height="51.2422" rx="2.5" ry="2.5" style="stroke:#181818;stroke-width:0.5;" width="117" x="167" y="1113.3711"/><text fill="#000000" font-family="sans-serif" font-size="14" font-style="italic" lengthAdjust="spacing" textLength="95" x="178" y="1135.4785">&#171;presentation&#187;</text><text fill="#000000" font-family="sans-serif" font-size="14" lengthAdjust="spacing" textLength="103" x="174" y="1154.0996">AddDroneAction</text><rect fill="#E2E2F0" height="51.2422" rx="2.5" ry="2.5" style="stroke:#181818;stroke-width:0.5;" width="109" x="373" y="1113.3711"/><text fill="#000000" font-family="sans-serif" font-size="14" font-style="italic" lengthAdjust="spacing" textLength="95" x="380" y="1135.4785">&#171;presentation&#187;</text><text fill="#000000" font-family="sans-serif" font-size="14" lengthAdjust="spacing" textLength="76" x="389.5" y="1154.0996">AddDroneUI</text><rect fill="#E2E2F0" height="51.2422" rx="2.5" ry="2.5" style="stroke:#181818;stroke-width:0.5;" width="140" x="600.5" y="1113.3711"/><text fill="#000000" font-family="sans-serif" font-size="14" font-style="italic" lengthAdjust="spacing" textLength="84" x="628.5" y="1135.4785">&#171;application&#187;</text><text fill="#000000" font-family="sans-serif" font-size="14" lengthAdjust="spacing" textLength="126" x="607.5" y="1154.0996">AddDroneController</text><rect fill="#E2E2F0" height="51.2422" rx="2.5" ry="2.5" style="stroke:#181818;stroke-width:0.5;" width="143" x="965" y="71"/><text fill="#000000" font-family="sans-serif" font-size="14" font-style="italic" lengthAdjust="spacing" textLength="44" x="1014.5" y="93.1074">&#171;auth&#187;</text><text fill="#000000" font-family="sans-serif" font-size="14" lengthAdjust="spacing" textLength="129" x="972" y="111.7285">AuthorizationService</text><rect fill="#E2E2F0" height="51.2422" rx="2.5" ry="2.5" style="stroke:#181818;stroke-width:0.5;" width="143" x="965" y="1113.3711"/><text fill="#000000" font-family="sans-serif" font-size="14" font-style="italic" lengthAdjust="spacing" textLength="44" x="1014.5" y="1135.4785">&#171;auth&#187;</text><text fill="#000000" font-family="sans-serif" font-size="14" lengthAdjust="spacing" textLength="129" x="972" y="1154.0996">AuthorizationService</text><rect fill="#E2E2F0" height="51.2422" rx="2.5" ry="2.5" style="stroke:#181818;stroke-width:0.5;" width="182" x="1118" y="71"/><text fill="#000000" font-family="sans-serif" font-size="14" font-style="italic" lengthAdjust="spacing" textLength="84" x="1167" y="93.1074">&#171;application&#187;</text><text fill="#000000" font-family="sans-serif" font-size="14" lengthAdjust="spacing" textLength="168" x="1125" y="111.7285">DroneManagementService</text><rect fill="#E2E2F0" height="51.2422" rx="2.5" ry="2.5" style="stroke:#181818;stroke-width:0.5;" width="182" x="1118" y="1113.3711"/><text fill="#000000" font-family="sans-serif" font-size="14" font-style="italic" lengthAdjust="spacing" textLength="84" x="1167" y="1135.4785">&#171;application&#187;</text><text fill="#000000" font-family="sans-serif" font-size="14" lengthAdjust="spacing" textLength="168" x="1125" y="1154.0996">DroneManagementService</text><rect fill="#E2E2F0" height="51.2422" rx="2.5" ry="2.5" style="stroke:#181818;stroke-width:0.5;" width="220" x="1518" y="71"/><text fill="#000000" font-family="sans-serif" font-size="14" font-style="italic" lengthAdjust="spacing" textLength="84" x="1586" y="93.1074">&#171;application&#187;</text><text fill="#000000" font-family="sans-serif" font-size="14" lengthAdjust="spacing" textLength="206" x="1525" y="111.7285">DroneModelManagementService</text><rect fill="#E2E2F0" height="51.2422" rx="2.5" ry="2.5" style="stroke:#181818;stroke-width:0.5;" width="220" x="1518" y="1113.3711"/><text fill="#000000" font-family="sans-serif" font-size="14" font-style="italic" lengthAdjust="spacing" textLength="84" x="1586" y="1135.4785">&#171;application&#187;</text><text fill="#000000" font-family="sans-serif" font-size="14" lengthAdjust="spacing" textLength="206" x="1525" y="1154.0996">DroneModelManagementService</text><rect fill="#E2E2F0" height="51.2422" rx="2.5" ry="2.5" style="stroke:#181818;stroke-width:0.5;" width="76" x="1748" y="1113.3711"/><text fill="#000000" font-family="sans-serif" font-size="14" font-style="italic" lengthAdjust="spacing" textLength="62" x="1755" y="1135.4785">&#171;domain&#187;</text><text fill="#000000" font-family="sans-serif" font-size="14" lengthAdjust="spacing" textLength="39" x="1766.5" y="1154.0996">Drone</text><rect fill="#E2E2F0" height="51.2422" rx="2.5" ry="2.5" style="stroke:#181818;stroke-width:0.5;" width="121" x="1834" y="71"/><text fill="#000000" font-family="sans-serif" font-size="14" font-style="italic" lengthAdjust="spacing" textLength="79" x="1855" y="93.1074">&#171;repository&#187;</text><text fill="#000000" font-family="sans-serif" font-size="14" lengthAdjust="spacing" textLength="107" x="1841" y="111.7285">DroneRepository</text><rect fill="#E2E2F0" height="51.2422" rx="2.5" ry="2.5" style="stroke:#181818;stroke-width:0.5;" width="121" x="1834" y="1113.3711"/><text fill="#000000" font-family="sans-serif" font-size="14" font-style="italic" lengthAdjust="spacing" textLength="79" x="1855" y="1135.4785">&#171;repository&#187;</text><text fill="#000000" font-family="sans-serif" font-size="14" lengthAdjust="spacing" textLength="107" x="1841" y="1154.0996">DroneRepository</text><rect fill="#E2E2F0" height="51.2422" rx="2.5" ry="2.5" style="stroke:#181818;stroke-width:0.5;" width="159" x="1965" y="71"/><text fill="#000000" font-family="sans-serif" font-size="14" font-style="italic" lengthAdjust="spacing" textLength="79" x="2005" y="93.1074">&#171;repository&#187;</text><text fill="#000000" font-family="sans-serif" font-size="14" lengthAdjust="spacing" textLength="145" x="1972" y="111.7285">DroneModelRepository</text><rect fill="#E2E2F0" height="51.2422" rx="2.5" ry="2.5" style="stroke:#181818;stroke-width:0.5;" width="159" x="1965" y="1113.3711"/><text fill="#000000" font-family="sans-serif" font-size="14" font-style="italic" lengthAdjust="spacing" textLength="79" x="2005" y="1135.4785">&#171;repository&#187;</text><text fill="#000000" font-family="sans-serif" font-size="14" lengthAdjust="spacing" textLength="145" x="1972" y="1154.0996">DroneModelRepository</text><text fill="#000000" font-family="sans-serif" font-size="14" lengthAdjust="spacing" textLength="61" x="2203" y="119.7285">Database</text><path d="M2218.5,68.6211 C2218.5,58.6211 2236.5,58.6211 2236.5,58.6211 C2236.5,58.6211 2254.5,58.6211 2254.5,68.6211 L2254.5,94.6211 C2254.5,104.6211 2236.5,104.6211 2236.5,104.6211 C2236.5,104.6211 2218.5,104.6211 2218.5,94.6211 L2218.5,68.6211 " fill="#E2E2F0" style="stroke:#181818;stroke-width:1.5;"/><path d="M2218.5,68.6211 C2218.5,78.6211 2236.5,78.6211 2236.5,78.6211 C2236.5,78.6211 2254.5,78.6211 2254.5,68.6211 " fill="none" style="stroke:#181818;stroke-width:1.5;"/><text fill="#000000" font-family="sans-serif" font-size="14" lengthAdjust="spacing" textLength="61" x="2203" y="1128.4785">Database</text><path d="M2218.5,1141.9922 C2218.5,1131.9922 2236.5,1131.9922 2236.5,1131.9922 C2236.5,1131.9922 2254.5,1131.9922 2254.5,1141.9922 L2254.5,1167.9922 C2254.5,1177.9922 2236.5,1177.9922 2236.5,1177.9922 C2236.5,1177.9922 2218.5,1177.9922 2218.5,1167.9922 L2218.5,1141.9922 " fill="#E2E2F0" style="stroke:#181818;stroke-width:1.5;"/><path d="M2218.5,1141.9922 C2218.5,1151.9922 2236.5,1151.9922 2236.5,1151.9922 C2236.5,1151.9922 2254.5,1151.9922 2254.5,1141.9922 " fill="none" style="stroke:#181818;stroke-width:1.5;"/><rect fill="#FFFFFF" height="963.1289" style="stroke:#181818;stroke-width:1.0;" width="10" x="40.5" y="133.2422"/><rect fill="#FFFFFF" height="93.5332" style="stroke:#181818;stroke-width:1.0;" width="10" x="220.5" y="156.5332"/><rect fill="#FFFFFF" height="93.5332" style="stroke:#181818;stroke-width:1.0;" width="10" x="422.5" y="250.0664"/><rect fill="#FFFFFF" height="281.6191" style="stroke:#181818;stroke-width:1.0;" width="10" x="422.5" y="374.8906"/><rect fill="#FFFFFF" height="408.5703" style="stroke:#181818;stroke-width:1.0;" width="10" x="422.5" y="687.8008"/><rect fill="#FFFFFF" height="219.0371" style="stroke:#181818;stroke-width:1.0;" width="10" x="665.5" y="406.1816"/><rect fill="#FFFFFF" height="345.9883" style="stroke:#181818;stroke-width:1.0;" width="10" x="665.5" y="719.0918"/><rect fill="#FFFFFF" height="269.4063" style="stroke:#181818;stroke-width:1.0;" width="10" x="1204" y="781.6738"/><rect fill="#FFFFFF" height="209.1152" style="stroke:#181818;stroke-width:1.0;" width="10" x="1209" y="820.9648"/><rect fill="#FFFFFF" height="156.4551" style="stroke:#181818;stroke-width:1.0;" width="10" x="1623" y="437.4727"/><rect fill="#FFFFFF" height="52.2422" style="stroke:#181818;stroke-width:1.0;" width="10" x="1781" y="867.2559"/><rect fill="#FFFFFF" height="59.291" style="stroke:#181818;stroke-width:1.0;" width="10" x="1889.5" y="950.7891"/><rect fill="#FFFFFF" height="93.873" style="stroke:#181818;stroke-width:1.0;" width="10" x="2039.5" y="468.7637"/><rect fill="#FFFFFF" height="31.291" style="stroke:#181818;stroke-width:1.0;" width="10" x="2231.5" y="500.0547"/><rect fill="#FFFFFF" height="14" style="stroke:#181818;stroke-width:1.0;" width="10" x="2231.5" y="982.0801"/><polygon fill="#181818" points="208.5,152.5332,218.5,156.5332,208.5,160.5332,212.5,156.5332" style="stroke:#181818;stroke-width:1.0;"/><line style="stroke:#181818;stroke-width:1.0;" x1="50.5" x2="214.5" y1="156.5332" y2="156.5332"/><text fill="#000000" font-family="sans-serif" font-size="13" lengthAdjust="spacing" textLength="151" x="57.5" y="151.2705">Add drone to the inventory</text><polygon fill="#181818" points="361,183.8242,371,187.8242,361,191.8242,365,187.8242" style="stroke:#181818;stroke-width:1.0;"/><line style="stroke:#181818;stroke-width:1.0;" x1="230.5" x2="367" y1="187.8242" y2="187.8242"/><text fill="#000000" font-family="sans-serif" font-size="13" lengthAdjust="spacing" textLength="36" x="237.5" y="182.5615">create</text><rect fill="#E2E2F0" height="51.2422" rx="2.5" ry="2.5" style="stroke:#181818;stroke-width:0.5;" width="109" x="373" y="164.5332"/><text fill="#000000" font-family="sans-serif" font-size="14" font-style="italic" lengthAdjust="spacing" textLength="95" x="380" y="186.6406">&#171;presentation&#187;</text><text fill="#000000" font-family="sans-serif" font-size="14" lengthAdjust="spacing" textLength="76" x="389.5" y="205.2617">AddDroneUI</text><polygon fill="#181818" points="410.5,246.0664,420.5,250.0664,410.5,254.0664,414.5,250.0664" style="stroke:#181818;stroke-width:1.0;"/><line style="stroke:#181818;stroke-width:1.0;" x1="225.5" x2="416.5" y1="250.0664" y2="250.0664"/><text fill="#000000" font-family="sans-serif" font-size="13" lengthAdjust="spacing" textLength="38" x="232.5" y="244.8037">show()</text><polygon fill="#181818" points="588.5,277.3574,598.5,281.3574,588.5,285.3574,592.5,281.3574" style="stroke:#181818;stroke-width:1.0;"/><line style="stroke:#181818;stroke-width:1.0;" x1="432.5" x2="594.5" y1="281.3574" y2="281.3574"/><text fill="#000000" font-family="sans-serif" font-size="13" lengthAdjust="spacing" textLength="36" x="439.5" y="276.0947">create</text><rect fill="#E2E2F0" height="51.2422" rx="2.5" ry="2.5" style="stroke:#181818;stroke-width:0.5;" width="140" x="600.5" y="258.0664"/><text fill="#000000" font-family="sans-serif" font-size="14" font-style="italic" lengthAdjust="spacing" textLength="84" x="628.5" y="280.1738">&#171;application&#187;</text><text fill="#000000" font-family="sans-serif" font-size="14" lengthAdjust="spacing" textLength="126" x="607.5" y="298.7949">AddDroneController</text><polygon fill="#181818" points="61.5,339.5996,51.5,343.5996,61.5,347.5996,57.5,343.5996" style="stroke:#181818;stroke-width:1.0;"/><line style="stroke:#181818;stroke-width:1.0;stroke-dasharray:2.0,2.0;" x1="55.5" x2="426.5" y1="343.5996" y2="343.5996"/><text fill="#000000" font-family="sans-serif" font-size="13" lengthAdjust="spacing" textLength="348" x="67.5" y="338.3369">Request Drone Information (Serial Number, Acquisition date)</text><polygon fill="#181818" points="410.5,370.8906,420.5,374.8906,410.5,378.8906,414.5,374.8906" style="stroke:#181818;stroke-width:1.0;"/><line style="stroke:#181818;stroke-width:1.0;" x1="50.5" x2="416.5" y1="374.8906" y2="374.8906"/><text fill="#000000" font-family="sans-serif" font-size="13" lengthAdjust="spacing" textLength="147" x="57.5" y="369.6279">Provide Drone Information</text><polygon fill="#181818" points="653.5,402.1816,663.5,406.1816,653.5,410.1816,657.5,406.1816" style="stroke:#181818;stroke-width:1.0;"/><line style="stroke:#181818;stroke-width:1.0;" x1="432.5" x2="659.5" y1="406.1816" y2="406.1816"/><text fill="#000000" font-family="sans-serif" font-size="13" lengthAdjust="spacing" textLength="101" x="439.5" y="400.9189">listDroneModels()</text><polygon fill="#181818" points="1611,433.4727,1621,437.4727,1611,441.4727,1615,437.4727" style="stroke:#181818;stroke-width:1.0;"/><line style="stroke:#181818;stroke-width:1.0;" x1="675.5" x2="1617" y1="437.4727" y2="437.4727"/><text fill="#000000" font-family="sans-serif" font-size="13" lengthAdjust="spacing" textLength="136" x="682.5" y="432.21">listActiveDroneModels()</text><polygon fill="#181818" points="2027.5,464.7637,2037.5,468.7637,2027.5,472.7637,2031.5,468.7637" style="stroke:#181818;stroke-width:1.0;"/><line style="stroke:#181818;stroke-width:1.0;" x1="1633" x2="2033.5" y1="468.7637" y2="468.7637"/><text fill="#000000" font-family="sans-serif" font-size="13" lengthAdjust="spacing" textLength="101" x="1640" y="463.501">findByActive(true)</text><polygon fill="#181818" points="2219.5,496.0547,2229.5,500.0547,2219.5,504.0547,2223.5,500.0547" style="stroke:#181818;stroke-width:1.0;"/><line style="stroke:#181818;stroke-width:1.0;" x1="2049.5" x2="2225.5" y1="500.0547" y2="500.0547"/><text fill="#000000" font-family="sans-serif" font-size="13" lengthAdjust="spacing" textLength="101" x="2056.5" y="494.792">findByActive(true)</text><polygon fill="#181818" points="2060.5,527.3457,2050.5,531.3457,2060.5,535.3457,2056.5,531.3457" style="stroke:#181818;stroke-width:1.0;"/><line style="stroke:#181818;stroke-width:1.0;stroke-dasharray:2.0,2.0;" x1="2054.5" x2="2235.5" y1="531.3457" y2="531.3457"/><text fill="#000000" font-family="sans-serif" font-size="13" lengthAdjust="spacing" textLength="158" x="2066.5" y="526.083">List of Active Drone Models</text><polygon fill="#181818" points="1644,558.6367,1634,562.6367,1644,566.6367,1640,562.6367" style="stroke:#181818;stroke-width:1.0;"/><line style="stroke:#181818;stroke-width:1.0;stroke-dasharray:2.0,2.0;" x1="1638" x2="2043.5" y1="562.6367" y2="562.6367"/><text fill="#000000" font-family="sans-serif" font-size="13" lengthAdjust="spacing" textLength="158" x="1650" y="557.374">List of Active Drone Models</text><polygon fill="#181818" points="686.5,589.9277,676.5,593.9277,686.5,597.9277,682.5,593.9277" style="stroke:#181818;stroke-width:1.0;"/><line style="stroke:#181818;stroke-width:1.0;stroke-dasharray:2.0,2.0;" x1="680.5" x2="1627" y1="593.9277" y2="593.9277"/><text fill="#000000" font-family="sans-serif" font-size="13" lengthAdjust="spacing" textLength="158" x="692.5" y="588.665">List of Active Drone Models</text><polygon fill="#181818" points="443.5,621.2188,433.5,625.2188,443.5,629.2188,439.5,625.2188" style="stroke:#181818;stroke-width:1.0;"/><line style="stroke:#181818;stroke-width:1.0;stroke-dasharray:2.0,2.0;" x1="437.5" x2="669.5" y1="625.2188" y2="625.2188"/><text fill="#000000" font-family="sans-serif" font-size="13" lengthAdjust="spacing" textLength="158" x="449.5" y="619.9561">List of Active Drone Models</text><polygon fill="#181818" points="61.5,652.5098,51.5,656.5098,61.5,660.5098,57.5,656.5098" style="stroke:#181818;stroke-width:1.0;"/><line style="stroke:#181818;stroke-width:1.0;stroke-dasharray:2.0,2.0;" x1="55.5" x2="426.5" y1="656.5098" y2="656.5098"/><text fill="#000000" font-family="sans-serif" font-size="13" lengthAdjust="spacing" textLength="194" x="67.5" y="651.2471">Show List of Active Drone Models</text><polygon fill="#181818" points="410.5,683.8008,420.5,687.8008,410.5,691.8008,414.5,687.8008" style="stroke:#181818;stroke-width:1.0;"/><line style="stroke:#181818;stroke-width:1.0;" x1="50.5" x2="416.5" y1="687.8008" y2="687.8008"/><text fill="#000000" font-family="sans-serif" font-size="13" lengthAdjust="spacing" textLength="121" x="57.5" y="682.5381">Choose Drone Model</text><polygon fill="#181818" points="653.5,715.0918,663.5,719.0918,653.5,723.0918,657.5,719.0918" style="stroke:#181818;stroke-width:1.0;"/><line style="stroke:#181818;stroke-width:1.0;" x1="432.5" x2="659.5" y1="719.0918" y2="719.0918"/><text fill="#000000" font-family="sans-serif" font-size="13" lengthAdjust="spacing" textLength="214" x="439.5" y="713.8291">addDrone(serialNumber, droneModel)</text><polygon fill="#181818" points="1024.5,746.3828,1034.5,750.3828,1024.5,754.3828,1028.5,750.3828" style="stroke:#181818;stroke-width:1.0;"/><line style="stroke:#181818;stroke-width:1.0;" x1="675.5" x2="1030.5" y1="750.3828" y2="750.3828"/><text fill="#000000" font-family="sans-serif" font-size="13" lengthAdjust="spacing" textLength="337" x="682.5" y="745.1201">ensureAuthenticatedUserHasAnyOf(Roles.DRONE_TECH)</text><polygon fill="#181818" points="1192,777.6738,1202,781.6738,1192,785.6738,1196,781.6738" style="stroke:#181818;stroke-width:1.0;"/><line style="stroke:#181818;stroke-width:1.0;" x1="675.5" x2="1198" y1="781.6738" y2="781.6738"/><text fill="#000000" font-family="sans-serif" font-size="13" lengthAdjust="spacing" textLength="332" x="682.5" y="776.4111">registerNewDrone(serialNumber, droneModel, createdBy);</text><line style="stroke:#181818;stroke-width:1.0;" x1="1214" x2="1261" y1="807.9648" y2="807.9648"/><line style="stroke:#181818;stroke-width:1.0;" x1="1261" x2="1261" y1="807.9648" y2="820.9648"/><line style="stroke:#181818;stroke-width:1.0;" x1="1220" x2="1261" y1="820.9648" y2="820.9648"/><polygon fill="#181818" points="1230,816.9648,1220,820.9648,1230,824.9648,1226,820.9648" style="stroke:#181818;stroke-width:1.0;"/><text fill="#000000" font-family="sans-serif" font-size="13" lengthAdjust="spacing" textLength="395" x="1226" y="802.7021">registerNewDrone( serialNumber, droneModel, acquisitionDate, user)</text><polygon fill="#181818" points="1736,853.2559,1746,857.2559,1736,861.2559,1740,857.2559" style="stroke:#181818;stroke-width:1.0;"/><line style="stroke:#181818;stroke-width:1.0;" x1="1219" x2="1742" y1="857.2559" y2="857.2559"/><text fill="#000000" font-family="sans-serif" font-size="13" lengthAdjust="spacing" textLength="354" x="1226" y="851.9932">new Drone(serialNumber, droneModel, acquisitionDate, user);</text><rect fill="#E2E2F0" height="51.2422" rx="2.5" ry="2.5" style="stroke:#181818;stroke-width:0.5;" width="76" x="1748" y="833.9648"/><text fill="#000000" font-family="sans-serif" font-size="14" font-style="italic" lengthAdjust="spacing" textLength="62" x="1755" y="856.0723">&#171;domain&#187;</text><text fill="#000000" font-family="sans-serif" font-size="14" lengthAdjust="spacing" textLength="39" x="1766.5" y="874.6934">Drone</text><polygon fill="#181818" points="1230,915.498,1220,919.498,1230,923.498,1226,919.498" style="stroke:#181818;stroke-width:1.0;"/><line style="stroke:#181818;stroke-width:1.0;stroke-dasharray:2.0,2.0;" x1="1224" x2="1785" y1="919.498" y2="919.498"/><text fill="#000000" font-family="sans-serif" font-size="13" lengthAdjust="spacing" textLength="57" x="1236" y="914.2354">newDrone</text><polygon fill="#181818" points="1877.5,946.7891,1887.5,950.7891,1877.5,954.7891,1881.5,950.7891" style="stroke:#181818;stroke-width:1.0;"/><line style="stroke:#181818;stroke-width:1.0;" x1="1219" x2="1883.5" y1="950.7891" y2="950.7891"/><text fill="#000000" font-family="sans-serif" font-size="13" lengthAdjust="spacing" textLength="91" x="1226" y="945.5264">save(newDrone)</text><polygon fill="#181818" points="2219.5,978.0801,2229.5,982.0801,2219.5,986.0801,2223.5,982.0801" style="stroke:#181818;stroke-width:1.0;"/><line style="stroke:#181818;stroke-width:1.0;" x1="1899.5" x2="2225.5" y1="982.0801" y2="982.0801"/><text fill="#000000" font-family="sans-serif" font-size="13" lengthAdjust="spacing" textLength="34" x="1906.5" y="976.8174">save()</text><polygon fill="#181818" points="1910.5,992.0801,1900.5,996.0801,1910.5,1000.0801,1906.5,996.0801" style="stroke:#181818;stroke-width:1.0;"/><line style="stroke:#181818;stroke-width:1.0;stroke-dasharray:2.0,2.0;" x1="1904.5" x2="2235.5" y1="996.0801" y2="996.0801"/><polygon fill="#181818" points="1230,1006.0801,1220,1010.0801,1230,1014.0801,1226,1010.0801" style="stroke:#181818;stroke-width:1.0;"/><line style="stroke:#181818;stroke-width:1.0;stroke-dasharray:2.0,2.0;" x1="1224" x2="1893.5" y1="1010.0801" y2="1010.0801"/><line style="stroke:#181818;stroke-width:1.0;stroke-dasharray:2.0,2.0;" x1="1219" x2="1261" y1="1029.0801" y2="1029.0801"/><line style="stroke:#181818;stroke-width:1.0;stroke-dasharray:2.0,2.0;" x1="1261" x2="1261" y1="1029.0801" y2="1042.0801"/><line style="stroke:#181818;stroke-width:1.0;stroke-dasharray:2.0,2.0;" x1="1214" x2="1261" y1="1042.0801" y2="1042.0801"/><polygon fill="#181818" points="1224,1038.0801,1214,1042.0801,1224,1046.0801,1220,1042.0801" style="stroke:#181818;stroke-width:1.0;"/><polygon fill="#181818" points="686.5,1047.0801,676.5,1051.0801,686.5,1055.0801,682.5,1051.0801" style="stroke:#181818;stroke-width:1.0;"/><line style="stroke:#181818;stroke-width:1.0;stroke-dasharray:2.0,2.0;" x1="680.5" x2="1208" y1="1051.0801" y2="1051.0801"/><polygon fill="#181818" points="443.5,1061.0801,433.5,1065.0801,443.5,1069.0801,439.5,1065.0801" style="stroke:#181818;stroke-width:1.0;"/><line style="stroke:#181818;stroke-width:1.0;stroke-dasharray:2.0,2.0;" x1="437.5" x2="669.5" y1="1065.0801" y2="1065.0801"/><polygon fill="#181818" points="56.5,1092.3711,46.5,1096.3711,56.5,1100.3711,52.5,1096.3711" style="stroke:#181818;stroke-width:1.0;"/><line style="stroke:#181818;stroke-width:1.0;stroke-dasharray:2.0,2.0;" x1="50.5" x2="426.5" y1="1096.3711" y2="1096.3711"/><text fill="#000000" font-family="sans-serif" font-size="13" lengthAdjust="spacing" textLength="234" x="62.5" y="1091.1084">Confirms Drone is added to the inventory</text><!--SRC=[jLVRRjim37tNLn1zYejk7-0M1RAsG0DixP0kpuDgCuq0HqebEKNtzQDylyYNh9rV4blauH557jfMs0JX2LzJb172hU0lckyPuv5L6ivkjP88lp3QdG4ti7HFsO5hAo9nuDB2sJAECoDQ4agMLlGNhguE6WrAoztjzRNVRxFAV3QhcVOtIbgjaWHrvbVVaZy_718H-TrJkrDQ_CaMdr0VHOGvMS-2WwB7NOmi_Wyk-GlkYMOJnRyqJYdtKJ4cOvZUzHd0DGGPnshFXTzkZGTb11thU-rHFoDVNTqCRy07qbde8h6OM_xC3H9EyI_tBMwo4XH7Rh6eEfRzm9Vhehv2e9A0EDkXLM1t248UAKU4ttOcuypR5IMvRrRdvn12f97MMyz3C3lrjWY87FO0WAxguMR569KiUTK5s4HrQpbJfKDOk_OojZYEbTmglSzE3XPqe88dy93kdr5VaCDhAYX7ReqIX44Mji761OOg4uxoJwsE8iO-E9lW6q8YZAtFoYo2zYPhqtptxchq6u6Db6YExf9tn7wCygfYZI2nbeUxnZgZnQekln2sGiRVtdD22wjJ37gu0ung5EPrQLDgbBpZKfHp27C9z8bK7G4JLscPrPu_2z_fK41j8QTH54r-DAFmZHAi-9oMYwboEPLPav7tg4uhcqvhp6NZPJ5Imit-AHfuAbGZHBCZsnBpHC8rYjJHa9Q4tEoKCYrxvj6xSWjT7I7LuyLmNfXCpaerYwkC37IzJs7yIkCTqo6WDAb6jqZ9TkCGumrnkETcATyVjukrIj1ylLq_Fjpz_dLtSnzCnHaOv25eVA7iedx0j_6jNXGpW7ezk6GJyZAjTNNX3ajTlvbwR66OBgzd3hKsNa1AjdvjMlu7zjdObFW6KsdryxoSLCLsogTLjAJSa2nFFSWYivDmNONufoGrX9HUKZWDa39-m6QCiJaJhARXds1buF6fzJbZgy4NJfrA9svmy8nd3Pq9eaEd-h6W7-oxbdYpJmZMcsb34z8JjZd5gCB8OYlqllno4SQD5epxB_WUT8hRVcsdZuQ_]--></g></svg>