<?xml version="1.0" encoding="us-ascii" standalone="no"?><svg xmlns="http://www.w3.org/2000/svg" xmlns:xlink="http://www.w3.org/1999/xlink" contentStyleType="text/css" height="816.2px" preserveAspectRatio="none" style="width:1455px;height:816px;background:#FFFFFF;" version="1.1" viewBox="0 0 1455 816" width="1456px" zoomAndPan="magnify"><defs/><g><text fill="#000000" font-family="sans-serif" font-size="9.8" font-weight="bold" lengthAdjust="spacing" textLength="92.4" x="682.675" y="21.0752">Sequence Diagram</text><rect fill="#FFFFFF" height="652.2865" style="stroke:#181818;stroke-width:0.6999999999999998;" width="7" x="28.35" y="93.2695"/><rect fill="#FFFFFF" height="65.4732" style="stroke:#181818;stroke-width:0.6999999999999998;" width="7" x="198.45" y="109.5732"/><rect fill="#FFFFFF" height="240.7029" style="stroke:#181818;stroke-width:0.6999999999999998;" width="7" x="198.45" y="196.9502"/><rect fill="#FFFFFF" height="285.9992" style="stroke:#181818;stroke-width:0.6999999999999998;" width="7" x="198.45" y="459.5568"/><rect fill="#FFFFFF" height="196.8955" style="stroke:#181818;stroke-width:0.6999999999999998;" width="7" x="368.55" y="218.8539"/><rect fill="#FFFFFF" height="242.1918" style="stroke:#181818;stroke-width:0.6999999999999998;" width="7" x="368.55" y="481.4605"/><rect fill="#FFFFFF" height="188.5844" style="stroke:#181818;stroke-width:0.6999999999999998;" width="7" x="708.75" y="525.268"/><rect fill="#FFFFFF" height="146.3807" style="stroke:#181818;stroke-width:0.6999999999999998;" width="7" x="712.25" y="552.7717"/><rect fill="#FFFFFF" height="109.5186" style="stroke:#181818;stroke-width:0.6999999999999998;" width="7" x="1002.05" y="284.3271"/><rect fill="#FFFFFF" height="36.5695" style="stroke:#181818;stroke-width:0.6999999999999998;" width="7" x="1112.65" y="585.1754"/><rect fill="#FFFFFF" height="41.5037" style="stroke:#181818;stroke-width:0.6999999999999998;" width="7" x="1188.6" y="643.6486"/><rect fill="#FFFFFF" height="65.7111" style="stroke:#181818;stroke-width:0.6999999999999998;" width="7" x="1293.6" y="306.2309"/><rect fill="#FFFFFF" height="21.9037" style="stroke:#181818;stroke-width:0.6999999999999998;" width="7" x="1428" y="328.1346"/><rect fill="#FFFFFF" height="9.8" style="stroke:#181818;stroke-width:0.6999999999999998;" width="7" x="1428" y="665.5523"/><line style="stroke:#181818;stroke-width:0.3499999999999999;stroke-dasharray:5.0,5.0;" x1="31.5" x2="31.5" y1="86.2695" y2="758.1561"/><line style="stroke:#181818;stroke-width:0.3499999999999999;stroke-dasharray:5.0,5.0;" x1="201.6" x2="201.6" y1="86.2695" y2="758.1561"/><line style="stroke:#181818;stroke-width:0.3499999999999999;stroke-dasharray:5.0,5.0;" x1="372.05" x2="372.05" y1="143.958" y2="758.1561"/><line style="stroke:#181818;stroke-width:0.3499999999999999;stroke-dasharray:5.0,5.0;" x1="591.15" x2="591.15" y1="253.2387" y2="758.1561"/><line style="stroke:#181818;stroke-width:0.3499999999999999;stroke-dasharray:5.0,5.0;" x1="712.25" x2="712.25" y1="86.2695" y2="758.1561"/><line style="stroke:#181818;stroke-width:0.3499999999999999;stroke-dasharray:5.0,5.0;" x1="1005.55" x2="1005.55" y1="86.2695" y2="758.1561"/><line style="stroke:#181818;stroke-width:0.3499999999999999;stroke-dasharray:5.0,5.0;" x1="1116.15" x2="1116.15" y1="590.6564" y2="758.1561"/><line style="stroke:#181818;stroke-width:0.3499999999999999;stroke-dasharray:5.0,5.0;" x1="1191.75" x2="1191.75" y1="86.2695" y2="758.1561"/><line style="stroke:#181818;stroke-width:0.3499999999999999;stroke-dasharray:5.0,5.0;" x1="1296.75" x2="1296.75" y1="86.2695" y2="758.1561"/><line style="stroke:#181818;stroke-width:0.3499999999999999;stroke-dasharray:5.0,5.0;" x1="1431.15" x2="1431.15" y1="86.2695" y2="758.1561"/><text fill="#000000" font-family="sans-serif" font-size="9.8" lengthAdjust="spacing" textLength="52.5" x="3.5" y="83.81">Drone Tech</text><ellipse cx="31.85" cy="37.1848" fill="#E2E2F0" rx="5.6" ry="5.6" style="stroke:#181818;stroke-width:0.3499999999999999;"/><path d="M31.85,42.7848 L31.85,61.6848 M22.75,48.3848 L40.95,48.3848 M31.85,61.6848 L22.75,72.1848 M31.85,61.6848 L40.95,72.1848 " fill="none" style="stroke:#181818;stroke-width:0.3499999999999999;"/><text fill="#000000" font-family="sans-serif" font-size="9.8" lengthAdjust="spacing" textLength="52.5" x="3.5" y="768.0312">Drone Tech</text><ellipse cx="31.85" cy="776.4408" fill="#E2E2F0" rx="5.6" ry="5.6" style="stroke:#181818;stroke-width:0.3499999999999999;"/><path d="M31.85,782.0408 L31.85,800.9408 M22.75,787.6408 L40.95,787.6408 M31.85,800.9408 L22.75,811.4408 M31.85,800.9408 L40.95,811.4408 " fill="none" style="stroke:#181818;stroke-width:0.3499999999999999;"/><rect fill="#E2E2F0" height="35.8695" rx="1.75" ry="1.75" style="stroke:#181818;stroke-width:0.3499999999999999;" width="76.3" x="163.8" y="49.7"/><text fill="#000000" font-family="sans-serif" font-size="9.8" font-style="italic" lengthAdjust="spacing" textLength="66.5" x="168.7" y="65.1752">&#171;presentation&#187;</text><text fill="#000000" font-family="sans-serif" font-size="9.8" lengthAdjust="spacing" textLength="53.2" x="175.35" y="78.21">AddDroneUI</text><rect fill="#E2E2F0" height="35.8695" rx="1.75" ry="1.75" style="stroke:#181818;stroke-width:0.3499999999999999;" width="76.3" x="163.8" y="757.4561"/><text fill="#000000" font-family="sans-serif" font-size="9.8" font-style="italic" lengthAdjust="spacing" textLength="66.5" x="168.7" y="772.9312">&#171;presentation&#187;</text><text fill="#000000" font-family="sans-serif" font-size="9.8" lengthAdjust="spacing" textLength="53.2" x="175.35" y="785.966">AddDroneUI</text><rect fill="#E2E2F0" height="35.8695" rx="1.75" ry="1.75" style="stroke:#181818;stroke-width:0.3499999999999999;" width="98" x="323.05" y="757.4561"/><text fill="#000000" font-family="sans-serif" font-size="9.8" font-style="italic" lengthAdjust="spacing" textLength="58.8" x="342.65" y="772.9312">&#171;application&#187;</text><text fill="#000000" font-family="sans-serif" font-size="9.8" lengthAdjust="spacing" textLength="88.2" x="327.95" y="785.966">AddDroneController</text><rect fill="#E2E2F0" height="35.8695" rx="1.75" ry="1.75" style="stroke:#181818;stroke-width:0.3499999999999999;" width="100.1" x="541.45" y="757.4561"/><text fill="#000000" font-family="sans-serif" font-size="9.8" font-style="italic" lengthAdjust="spacing" textLength="30.8" x="576.1" y="772.9312">&#171;auth&#187;</text><text fill="#000000" font-family="sans-serif" font-size="9.8" lengthAdjust="spacing" textLength="90.3" x="546.35" y="785.966">AuthorizationService</text><rect fill="#E2E2F0" height="35.8695" rx="1.75" ry="1.75" style="stroke:#181818;stroke-width:0.3499999999999999;" width="127.4" x="648.55" y="49.7"/><text fill="#000000" font-family="sans-serif" font-size="9.8" font-style="italic" lengthAdjust="spacing" textLength="58.8" x="682.85" y="65.1752">&#171;application&#187;</text><text fill="#000000" font-family="sans-serif" font-size="9.8" lengthAdjust="spacing" textLength="117.6" x="653.45" y="78.21">DroneManagementService</text><rect fill="#E2E2F0" height="35.8695" rx="1.75" ry="1.75" style="stroke:#181818;stroke-width:0.3499999999999999;" width="127.4" x="648.55" y="757.4561"/><text fill="#000000" font-family="sans-serif" font-size="9.8" font-style="italic" lengthAdjust="spacing" textLength="58.8" x="682.85" y="772.9312">&#171;application&#187;</text><text fill="#000000" font-family="sans-serif" font-size="9.8" lengthAdjust="spacing" textLength="117.6" x="653.45" y="785.966">DroneManagementService</text><rect fill="#E2E2F0" height="35.8695" rx="1.75" ry="1.75" style="stroke:#181818;stroke-width:0.3499999999999999;" width="154" x="928.55" y="49.7"/><text fill="#000000" font-family="sans-serif" font-size="9.8" font-style="italic" lengthAdjust="spacing" textLength="58.8" x="976.15" y="65.1752">&#171;application&#187;</text><text fill="#000000" font-family="sans-serif" font-size="9.8" lengthAdjust="spacing" textLength="144.2" x="933.45" y="78.21">DroneModelManagementService</text><rect fill="#E2E2F0" height="35.8695" rx="1.75" ry="1.75" style="stroke:#181818;stroke-width:0.3499999999999999;" width="154" x="928.55" y="757.4561"/><text fill="#000000" font-family="sans-serif" font-size="9.8" font-style="italic" lengthAdjust="spacing" textLength="58.8" x="976.15" y="772.9312">&#171;application&#187;</text><text fill="#000000" font-family="sans-serif" font-size="9.8" lengthAdjust="spacing" textLength="144.2" x="933.45" y="785.966">DroneModelManagementService</text><rect fill="#E2E2F0" height="35.8695" rx="1.75" ry="1.75" style="stroke:#181818;stroke-width:0.3499999999999999;" width="53.2" x="1089.55" y="757.4561"/><text fill="#000000" font-family="sans-serif" font-size="9.8" font-style="italic" lengthAdjust="spacing" textLength="43.4" x="1094.45" y="772.9312">&#171;domain&#187;</text><text fill="#000000" font-family="sans-serif" font-size="9.8" lengthAdjust="spacing" textLength="27.3" x="1102.5" y="785.966">Drone</text><rect fill="#E2E2F0" height="35.8695" rx="1.75" ry="1.75" style="stroke:#181818;stroke-width:0.3499999999999999;" width="84.7" x="1149.75" y="49.7"/><text fill="#000000" font-family="sans-serif" font-size="9.8" font-style="italic" lengthAdjust="spacing" textLength="55.3" x="1164.45" y="65.1752">&#171;repository&#187;</text><text fill="#000000" font-family="sans-serif" font-size="9.8" lengthAdjust="spacing" textLength="74.9" x="1154.65" y="78.21">DroneRepository</text><rect fill="#E2E2F0" height="35.8695" rx="1.75" ry="1.75" style="stroke:#181818;stroke-width:0.3499999999999999;" width="84.7" x="1149.75" y="757.4561"/><text fill="#000000" font-family="sans-serif" font-size="9.8" font-style="italic" lengthAdjust="spacing" textLength="55.3" x="1164.45" y="772.9312">&#171;repository&#187;</text><text fill="#000000" font-family="sans-serif" font-size="9.8" lengthAdjust="spacing" textLength="74.9" x="1154.65" y="785.966">DroneRepository</text><rect fill="#E2E2F0" height="35.8695" rx="1.75" ry="1.75" style="stroke:#181818;stroke-width:0.3499999999999999;" width="111.3" x="1241.45" y="49.7"/><text fill="#000000" font-family="sans-serif" font-size="9.8" font-style="italic" lengthAdjust="spacing" textLength="55.3" x="1269.45" y="65.1752">&#171;repository&#187;</text><text fill="#000000" font-family="sans-serif" font-size="9.8" lengthAdjust="spacing" textLength="101.5" x="1246.35" y="78.21">DroneModelRepository</text><rect fill="#E2E2F0" height="35.8695" rx="1.75" ry="1.75" style="stroke:#181818;stroke-width:0.3499999999999999;" width="111.3" x="1241.45" y="757.4561"/><text fill="#000000" font-family="sans-serif" font-size="9.8" font-style="italic" lengthAdjust="spacing" textLength="55.3" x="1269.45" y="772.9312">&#171;repository&#187;</text><text fill="#000000" font-family="sans-serif" font-size="9.8" lengthAdjust="spacing" textLength="101.5" x="1246.35" y="785.966">DroneModelRepository</text><text fill="#000000" font-family="sans-serif" font-size="9.8" lengthAdjust="spacing" textLength="42.7" x="1408.05" y="83.81">Database</text><path d="M1418.9,48.0348 C1418.9,41.0348 1431.5,41.0348 1431.5,41.0348 C1431.5,41.0348 1444.1,41.0348 1444.1,48.0348 L1444.1,66.2348 C1444.1,73.2348 1431.5,73.2348 1431.5,73.2348 C1431.5,73.2348 1418.9,73.2348 1418.9,66.2348 L1418.9,48.0348 " fill="#E2E2F0" style="stroke:#181818;stroke-width:1.0499999999999998;"/><path d="M1418.9,48.0348 C1418.9,55.0348 1431.5,55.0348 1431.5,55.0348 C1431.5,55.0348 1444.1,55.0348 1444.1,48.0348 " fill="none" style="stroke:#181818;stroke-width:1.0499999999999998;"/><text fill="#000000" font-family="sans-serif" font-size="9.8" lengthAdjust="spacing" textLength="42.7" x="1408.05" y="768.0312">Database</text><path d="M1418.9,777.4908 C1418.9,770.4908 1431.5,770.4908 1431.5,770.4908 C1431.5,770.4908 1444.1,770.4908 1444.1,777.4908 L1444.1,795.6908 C1444.1,802.6908 1431.5,802.6908 1431.5,802.6908 C1431.5,802.6908 1418.9,802.6908 1418.9,795.6908 L1418.9,777.4908 " fill="#E2E2F0" style="stroke:#181818;stroke-width:1.0499999999999998;"/><path d="M1418.9,777.4908 C1418.9,784.4908 1431.5,784.4908 1431.5,784.4908 C1431.5,784.4908 1444.1,784.4908 1444.1,777.4908 " fill="none" style="stroke:#181818;stroke-width:1.0499999999999998;"/><rect fill="#FFFFFF" height="652.2865" style="stroke:#181818;stroke-width:0.6999999999999998;" width="7" x="28.35" y="93.2695"/><rect fill="#FFFFFF" height="65.4732" style="stroke:#181818;stroke-width:0.6999999999999998;" width="7" x="198.45" y="109.5732"/><rect fill="#FFFFFF" height="240.7029" style="stroke:#181818;stroke-width:0.6999999999999998;" width="7" x="198.45" y="196.9502"/><rect fill="#FFFFFF" height="285.9992" style="stroke:#181818;stroke-width:0.6999999999999998;" width="7" x="198.45" y="459.5568"/><rect fill="#FFFFFF" height="196.8955" style="stroke:#181818;stroke-width:0.6999999999999998;" width="7" x="368.55" y="218.8539"/><rect fill="#FFFFFF" height="242.1918" style="stroke:#181818;stroke-width:0.6999999999999998;" width="7" x="368.55" y="481.4605"/><rect fill="#FFFFFF" height="188.5844" style="stroke:#181818;stroke-width:0.6999999999999998;" width="7" x="708.75" y="525.268"/><rect fill="#FFFFFF" height="146.3807" style="stroke:#181818;stroke-width:0.6999999999999998;" width="7" x="712.25" y="552.7717"/><rect fill="#FFFFFF" height="109.5186" style="stroke:#181818;stroke-width:0.6999999999999998;" width="7" x="1002.05" y="284.3271"/><rect fill="#FFFFFF" height="36.5695" style="stroke:#181818;stroke-width:0.6999999999999998;" width="7" x="1112.65" y="585.1754"/><rect fill="#FFFFFF" height="41.5037" style="stroke:#181818;stroke-width:0.6999999999999998;" width="7" x="1188.6" y="643.6486"/><rect fill="#FFFFFF" height="65.7111" style="stroke:#181818;stroke-width:0.6999999999999998;" width="7" x="1293.6" y="306.2309"/><rect fill="#FFFFFF" height="21.9037" style="stroke:#181818;stroke-width:0.6999999999999998;" width="7" x="1428" y="328.1346"/><rect fill="#FFFFFF" height="9.8" style="stroke:#181818;stroke-width:0.6999999999999998;" width="7" x="1428" y="665.5523"/><polygon fill="#181818" points="190.05,106.7732,197.05,109.5732,190.05,112.3732,192.85,109.5732" style="stroke:#181818;stroke-width:0.6999999999999998;"/><line style="stroke:#181818;stroke-width:0.6999999999999998;" x1="35.35" x2="194.25" y1="109.5732" y2="109.5732"/><text fill="#000000" font-family="sans-serif" font-size="9.1" lengthAdjust="spacing" textLength="26.6" x="40.25" y="105.8894">show()</text><polygon fill="#181818" points="314.65,128.677,321.65,131.477,314.65,134.277,317.45,131.477" style="stroke:#181818;stroke-width:0.6999999999999998;"/><line style="stroke:#181818;stroke-width:0.6999999999999998;" x1="205.45" x2="318.85" y1="131.477" y2="131.477"/><text fill="#000000" font-family="sans-serif" font-size="9.1" lengthAdjust="spacing" textLength="30.8" x="210.35" y="127.7931">create()</text><rect fill="#E2E2F0" height="35.8695" rx="1.75" ry="1.75" style="stroke:#181818;stroke-width:0.3499999999999999;" width="98" x="323.05" y="115.1732"/><text fill="#000000" font-family="sans-serif" font-size="9.8" font-style="italic" lengthAdjust="spacing" textLength="58.8" x="342.65" y="130.6484">&#171;application&#187;</text><text fill="#000000" font-family="sans-serif" font-size="9.8" lengthAdjust="spacing" textLength="88.2" x="327.95" y="143.6832">AddDroneController</text><polygon fill="#181818" points="43.05,172.2465,36.05,175.0465,43.05,177.8465,40.25,175.0465" style="stroke:#181818;stroke-width:0.6999999999999998;"/><line style="stroke:#181818;stroke-width:0.6999999999999998;stroke-dasharray:2.0,2.0;" x1="38.85" x2="201.25" y1="175.0465" y2="175.0465"/><text fill="#000000" font-family="sans-serif" font-size="9.1" lengthAdjust="spacing" textLength="146.3" x="47.25" y="171.3626">Request Drone data (Serial Number)</text><polygon fill="#181818" points="190.05,194.1502,197.05,196.9502,190.05,199.7502,192.85,196.9502" style="stroke:#181818;stroke-width:0.6999999999999998;"/><line style="stroke:#181818;stroke-width:0.6999999999999998;" x1="35.35" x2="194.25" y1="196.9502" y2="196.9502"/><text fill="#000000" font-family="sans-serif" font-size="9.1" lengthAdjust="spacing" textLength="69.3" x="40.25" y="193.2663">Insert Drone data</text><polygon fill="#181818" points="360.15,216.0539,367.15,218.8539,360.15,221.6539,362.95,218.8539" style="stroke:#181818;stroke-width:0.6999999999999998;"/><line style="stroke:#181818;stroke-width:0.6999999999999998;" x1="205.45" x2="364.35" y1="218.8539" y2="218.8539"/><text fill="#000000" font-family="sans-serif" font-size="9.1" lengthAdjust="spacing" textLength="70.7" x="210.35" y="215.17">listDroneModels()</text><polygon fill="#181818" points="533.05,237.9576,540.05,240.7576,533.05,243.5576,535.85,240.7576" style="stroke:#181818;stroke-width:0.6999999999999998;"/><line style="stroke:#181818;stroke-width:0.6999999999999998;" x1="375.55" x2="537.25" y1="240.7576" y2="240.7576"/><text fill="#000000" font-family="sans-serif" font-size="9.1" lengthAdjust="spacing" textLength="149.1" x="380.45" y="237.0737">ensureAuthenticatedUserHasAnyOf()</text><rect fill="#E2E2F0" height="35.8695" rx="1.75" ry="1.75" style="stroke:#181818;stroke-width:0.3499999999999999;" width="100.1" x="541.45" y="224.4539"/><text fill="#000000" font-family="sans-serif" font-size="9.8" font-style="italic" lengthAdjust="spacing" textLength="30.8" x="576.1" y="239.9291">&#171;auth&#187;</text><text fill="#000000" font-family="sans-serif" font-size="9.8" lengthAdjust="spacing" textLength="90.3" x="546.35" y="252.9639">AuthorizationService</text><polygon fill="#181818" points="993.65,281.5271,1000.65,284.3271,993.65,287.1271,996.45,284.3271" style="stroke:#181818;stroke-width:0.6999999999999998;"/><line style="stroke:#181818;stroke-width:0.6999999999999998;" x1="375.55" x2="997.85" y1="284.3271" y2="284.3271"/><text fill="#000000" font-family="sans-serif" font-size="9.1" lengthAdjust="spacing" textLength="95.2" x="380.45" y="280.6433">listActiveDroneModels()</text><polygon fill="#181818" points="1285.2,303.4309,1292.2,306.2309,1285.2,309.0309,1288,306.2309" style="stroke:#181818;stroke-width:0.6999999999999998;"/><line style="stroke:#181818;stroke-width:0.6999999999999998;" x1="1009.05" x2="1289.4" y1="306.2309" y2="306.2309"/><text fill="#000000" font-family="sans-serif" font-size="9.1" lengthAdjust="spacing" textLength="70.7" x="1013.95" y="302.547">findByActive(true)</text><polygon fill="#181818" points="1419.6,325.3346,1426.6,328.1346,1419.6,330.9346,1422.4,328.1346" style="stroke:#181818;stroke-width:0.6999999999999998;"/><line style="stroke:#181818;stroke-width:0.6999999999999998;" x1="1300.6" x2="1423.8" y1="328.1346" y2="328.1346"/><text fill="#000000" font-family="sans-serif" font-size="9.1" lengthAdjust="spacing" textLength="70.7" x="1305.5" y="324.4507">findByActive(true)</text><polygon fill="#181818" points="1308.3,347.2383,1301.3,350.0383,1308.3,352.8383,1305.5,350.0383" style="stroke:#181818;stroke-width:0.6999999999999998;"/><line style="stroke:#181818;stroke-width:0.6999999999999998;stroke-dasharray:2.0,2.0;" x1="1304.1" x2="1430.8" y1="350.0383" y2="350.0383"/><text fill="#000000" font-family="sans-serif" font-size="9.1" lengthAdjust="spacing" textLength="110.6" x="1312.5" y="346.3544">List of Active Drone Models</text><polygon fill="#181818" points="1016.75,369.142,1009.75,371.942,1016.75,374.742,1013.95,371.942" style="stroke:#181818;stroke-width:0.6999999999999998;"/><line style="stroke:#181818;stroke-width:0.6999999999999998;stroke-dasharray:2.0,2.0;" x1="1012.55" x2="1296.4" y1="371.942" y2="371.942"/><text fill="#000000" font-family="sans-serif" font-size="9.1" lengthAdjust="spacing" textLength="110.6" x="1020.95" y="368.2581">List of Active Drone Models</text><polygon fill="#181818" points="383.25,391.0457,376.25,393.8457,383.25,396.6457,380.45,393.8457" style="stroke:#181818;stroke-width:0.6999999999999998;"/><line style="stroke:#181818;stroke-width:0.6999999999999998;stroke-dasharray:2.0,2.0;" x1="379.05" x2="1004.85" y1="393.8457" y2="393.8457"/><text fill="#000000" font-family="sans-serif" font-size="9.1" lengthAdjust="spacing" textLength="110.6" x="387.45" y="390.1618">List of Active Drone Models</text><polygon fill="#181818" points="213.15,412.9494,206.15,415.7494,213.15,418.5494,210.35,415.7494" style="stroke:#181818;stroke-width:0.6999999999999998;"/><line style="stroke:#181818;stroke-width:0.6999999999999998;stroke-dasharray:2.0,2.0;" x1="208.95" x2="371.35" y1="415.7494" y2="415.7494"/><text fill="#000000" font-family="sans-serif" font-size="9.1" lengthAdjust="spacing" textLength="110.6" x="217.35" y="412.0655">List of Active Drone Models</text><polygon fill="#181818" points="43.05,434.8531,36.05,437.6531,43.05,440.4531,40.25,437.6531" style="stroke:#181818;stroke-width:0.6999999999999998;"/><line style="stroke:#181818;stroke-width:0.6999999999999998;stroke-dasharray:2.0,2.0;" x1="38.85" x2="201.25" y1="437.6531" y2="437.6531"/><text fill="#000000" font-family="sans-serif" font-size="9.1" lengthAdjust="spacing" textLength="135.8" x="47.25" y="433.9692">Show List of Active Drone Models</text><polygon fill="#181818" points="190.05,456.7568,197.05,459.5568,190.05,462.3568,192.85,459.5568" style="stroke:#181818;stroke-width:0.6999999999999998;"/><line style="stroke:#181818;stroke-width:0.6999999999999998;" x1="35.35" x2="194.25" y1="459.5568" y2="459.5568"/><text fill="#000000" font-family="sans-serif" font-size="9.1" lengthAdjust="spacing" textLength="84.7" x="40.25" y="455.8729">Choose Drone Model</text><polygon fill="#181818" points="360.15,478.6605,367.15,481.4605,360.15,484.2605,362.95,481.4605" style="stroke:#181818;stroke-width:0.6999999999999998;"/><line style="stroke:#181818;stroke-width:0.6999999999999998;" x1="205.45" x2="364.35" y1="481.4605" y2="481.4605"/><text fill="#000000" font-family="sans-serif" font-size="9.1" lengthAdjust="spacing" textLength="149.8" x="210.35" y="477.7767">addDrone(serialNumber, droneModel)</text><polygon fill="#181818" points="583.1,500.5643,590.1,503.3643,583.1,506.1643,585.9,503.3643" style="stroke:#181818;stroke-width:0.6999999999999998;"/><line style="stroke:#181818;stroke-width:0.6999999999999998;" x1="375.55" x2="587.3" y1="503.3643" y2="503.3643"/><text fill="#000000" font-family="sans-serif" font-size="9.1" lengthAdjust="spacing" textLength="149.1" x="380.45" y="499.6804">ensureAuthenticatedUserHasAnyOf()</text><polygon fill="#181818" points="700.35,522.468,707.35,525.268,700.35,528.068,703.15,525.268" style="stroke:#181818;stroke-width:0.6999999999999998;"/><line style="stroke:#181818;stroke-width:0.6999999999999998;" x1="375.55" x2="704.55" y1="525.268" y2="525.268"/><text fill="#000000" font-family="sans-serif" font-size="9.1" lengthAdjust="spacing" textLength="232.4" x="380.45" y="521.5841">registerNewDrone(serialNumber, droneModel, createdBy);</text><line style="stroke:#181818;stroke-width:0.6999999999999998;" x1="715.75" x2="748.65" y1="543.6717" y2="543.6717"/><line style="stroke:#181818;stroke-width:0.6999999999999998;" x1="748.65" x2="748.65" y1="543.6717" y2="552.7717"/><line style="stroke:#181818;stroke-width:0.6999999999999998;" x1="719.95" x2="748.65" y1="552.7717" y2="552.7717"/><polygon fill="#181818" points="726.95,549.9717,719.95,552.7717,726.95,555.5717,724.15,552.7717" style="stroke:#181818;stroke-width:0.6999999999999998;"/><text fill="#000000" font-family="sans-serif" font-size="9.1" lengthAdjust="spacing" textLength="276.5" x="724.15" y="539.9878">registerNewDrone( serialNumber, droneModel, acquisitionDate, user)</text><polygon fill="#181818" points="1081.15,575.3754,1088.15,578.1754,1081.15,580.9754,1083.95,578.1754" style="stroke:#181818;stroke-width:0.6999999999999998;"/><line style="stroke:#181818;stroke-width:0.6999999999999998;" x1="719.25" x2="1085.35" y1="578.1754" y2="578.1754"/><text fill="#000000" font-family="sans-serif" font-size="9.1" lengthAdjust="spacing" textLength="247.8" x="724.15" y="574.4915">new Drone(serialNumber, droneModel, acquisitionDate, user);</text><rect fill="#E2E2F0" height="35.8695" rx="1.75" ry="1.75" style="stroke:#181818;stroke-width:0.3499999999999999;" width="53.2" x="1089.55" y="561.8717"/><text fill="#000000" font-family="sans-serif" font-size="9.8" font-style="italic" lengthAdjust="spacing" textLength="43.4" x="1094.45" y="577.3469">&#171;domain&#187;</text><text fill="#000000" font-family="sans-serif" font-size="9.8" lengthAdjust="spacing" textLength="27.3" x="1102.5" y="590.3816">Drone</text><polygon fill="#181818" points="726.95,618.9449,719.95,621.7449,726.95,624.5449,724.15,621.7449" style="stroke:#181818;stroke-width:0.6999999999999998;"/><line style="stroke:#181818;stroke-width:0.6999999999999998;stroke-dasharray:2.0,2.0;" x1="722.75" x2="1115.45" y1="621.7449" y2="621.7449"/><text fill="#000000" font-family="sans-serif" font-size="9.1" lengthAdjust="spacing" textLength="39.9" x="731.15" y="618.061">newDrone</text><polygon fill="#181818" points="1180.2,640.8486,1187.2,643.6486,1180.2,646.4486,1183,643.6486" style="stroke:#181818;stroke-width:0.6999999999999998;"/><line style="stroke:#181818;stroke-width:0.6999999999999998;" x1="719.25" x2="1184.4" y1="643.6486" y2="643.6486"/><text fill="#000000" font-family="sans-serif" font-size="9.1" lengthAdjust="spacing" textLength="63.7" x="724.15" y="639.9647">save(newDrone)</text><polygon fill="#181818" points="1419.6,662.7523,1426.6,665.5523,1419.6,668.3523,1422.4,665.5523" style="stroke:#181818;stroke-width:0.6999999999999998;"/><line style="stroke:#181818;stroke-width:0.6999999999999998;" x1="1195.6" x2="1423.8" y1="665.5523" y2="665.5523"/><text fill="#000000" font-family="sans-serif" font-size="9.1" lengthAdjust="spacing" textLength="23.8" x="1200.5" y="661.8685">save()</text><polygon fill="#181818" points="1203.3,672.5523,1196.3,675.3523,1203.3,678.1523,1200.5,675.3523" style="stroke:#181818;stroke-width:0.6999999999999998;"/><line style="stroke:#181818;stroke-width:0.6999999999999998;stroke-dasharray:2.0,2.0;" x1="1199.1" x2="1430.8" y1="675.3523" y2="675.3523"/><polygon fill="#181818" points="726.95,682.3523,719.95,685.1523,726.95,687.9523,724.15,685.1523" style="stroke:#181818;stroke-width:0.6999999999999998;"/><line style="stroke:#181818;stroke-width:0.6999999999999998;stroke-dasharray:2.0,2.0;" x1="722.75" x2="1191.4" y1="685.1523" y2="685.1523"/><line style="stroke:#181818;stroke-width:0.6999999999999998;stroke-dasharray:2.0,2.0;" x1="719.25" x2="748.65" y1="698.4523" y2="698.4523"/><line style="stroke:#181818;stroke-width:0.6999999999999998;stroke-dasharray:2.0,2.0;" x1="748.65" x2="748.65" y1="698.4523" y2="707.5523"/><line style="stroke:#181818;stroke-width:0.6999999999999998;stroke-dasharray:2.0,2.0;" x1="715.75" x2="748.65" y1="707.5523" y2="707.5523"/><polygon fill="#181818" points="722.75,704.7523,715.75,707.5523,722.75,710.3523,719.95,707.5523" style="stroke:#181818;stroke-width:0.6999999999999998;"/><polygon fill="#181818" points="383.25,711.0523,376.25,713.8523,383.25,716.6523,380.45,713.8523" style="stroke:#181818;stroke-width:0.6999999999999998;"/><line style="stroke:#181818;stroke-width:0.6999999999999998;stroke-dasharray:2.0,2.0;" x1="379.05" x2="711.55" y1="713.8523" y2="713.8523"/><polygon fill="#181818" points="213.15,720.8523,206.15,723.6523,213.15,726.4523,210.35,723.6523" style="stroke:#181818;stroke-width:0.6999999999999998;"/><line style="stroke:#181818;stroke-width:0.6999999999999998;stroke-dasharray:2.0,2.0;" x1="208.95" x2="371.35" y1="723.6523" y2="723.6523"/><polygon fill="#181818" points="39.55,742.7561,32.55,745.5561,39.55,748.3561,36.75,745.5561" style="stroke:#181818;stroke-width:0.6999999999999998;"/><line style="stroke:#181818;stroke-width:0.6999999999999998;stroke-dasharray:2.0,2.0;" x1="35.35" x2="201.25" y1="745.5561" y2="745.5561"/><text fill="#000000" font-family="sans-serif" font-size="9.1" lengthAdjust="spacing" textLength="101.5" x="43.75" y="741.8722">Inform operation success</text><!--SRC=[jLRRRjim37tNLn1zIehk1zoYGDO-BC3M0Uto0QhD908SoPNa5jtNZvATMBRbIzfEBubDYZoY3WzjXSqHdl2bH9aYt0k-q_p064-jqd1nhvL4-8Ff_WAuWPLxomgkhKX5mQM5YrMMUQVDsdjird1pKsWqA2stGidRsxZ_dP9Mgpn7xVSrZxIV5qKkqlZsqkwL5d-zyGdrgqYnWXOnk53qkXl3v__59T_XWM26KUAcSKZL7fLXFXOpQfyHk0b1pfawS17tUyH26K7NyzxiQDxHNdrw63v0B4Z7q8t4CcxvCpT8SUf_rTxwmLD9l7ABDNkO_u5ljyIL1CnUlIsM36YT_3PhneX7vD6mul8I4aWraftSdPNCFb82ZuwznjPLSdXWGGKMF8U7yl2CkegVOIi3j72ifK4TXc0JW1B8XR5DXKpt58qhymQt0fOx-17A-dEYDAL6PoQgE79WjY5uFxXPoVVVMyeq4764QXNUbKE7VTJ7TK8_4ecrThWrnl0MgeP62Mo5pBw_Lu0MLfUuxCKTGDH4OT4jRKW1THsMcfO9p0NG1t9YDaoiewSdQxmAF-bIG6sXWb7phxgQqV01cKzupgl555tEHHOYYbxLURJfDDjSD54K8nGE-wUMWgbKGOgmnzkQz4IwDXgfeqOjCRhRAsLQ_dNrsW9MhwuoaO3mUiWkZ9V1IWMl83jLPA3hOverNxlEKwun1UlH8G6DEwecwWTy6p_QLJqcgBUNrsn2JgQrhI7giBJrcwU75eRXylIb5DGaL4XgPRo2qXn7LdUj_WDwFt4ali5KMUCuhoTLi5toQTKyGWuaAi87MLTsCbnN4JvKf40uwPk5qy0uvb-o6MDhpiHgOCGdrZ7n-9JwcZ4Lu8Lpfz2P1noyurb3PWBeqAr-Bkad-wubrkmBalLcsD14ZAGDfnQup-2jqWTG1Mglx63AD4NJpDZss0gUge_xVm00]--></g></svg>