<?xml version="1.0" encoding="us-ascii" standalone="no"?><svg xmlns="http://www.w3.org/2000/svg" xmlns:xlink="http://www.w3.org/1999/xlink" contentStyleType="text/css" height="1197px" preserveAspectRatio="none" style="width:2192px;height:1197px;background:#FFFFFF;" version="1.1" viewBox="0 0 2192 1197" width="2192px" zoomAndPan="magnify"><defs/><g><text fill="#000000" font-family="sans-serif" font-size="14" font-weight="bold" lengthAdjust="spacing" textLength="132" x="1031.5" y="30.1074">Sequence Diagram</text><rect fill="#FFFFFF" height="963.1289" style="stroke:#181818;stroke-width:1.0;" width="10" x="40.5" y="133.2422"/><rect fill="#FFFFFF" height="93.5332" style="stroke:#181818;stroke-width:1.0;" width="10" x="220.5" y="156.5332"/><rect fill="#FFFFFF" height="93.5332" style="stroke:#181818;stroke-width:1.0;" width="10" x="343.5" y="250.0664"/><rect fill="#FFFFFF" height="281.6191" style="stroke:#181818;stroke-width:1.0;" width="10" x="343.5" y="374.8906"/><rect fill="#FFFFFF" height="408.5703" style="stroke:#181818;stroke-width:1.0;" width="10" x="343.5" y="687.8008"/><rect fill="#FFFFFF" height="219.0371" style="stroke:#181818;stroke-width:1.0;" width="10" x="586.5" y="406.1816"/><rect fill="#FFFFFF" height="345.9883" style="stroke:#181818;stroke-width:1.0;" width="10" x="586.5" y="719.0918"/><rect fill="#FFFFFF" height="269.4063" style="stroke:#181818;stroke-width:1.0;" width="10" x="1125" y="781.6738"/><rect fill="#FFFFFF" height="209.1152" style="stroke:#181818;stroke-width:1.0;" width="10" x="1130" y="820.9648"/><rect fill="#FFFFFF" height="156.4551" style="stroke:#181818;stroke-width:1.0;" width="10" x="1544" y="437.4727"/><rect fill="#FFFFFF" height="52.2422" style="stroke:#181818;stroke-width:1.0;" width="10" x="1702" y="867.2559"/><rect fill="#FFFFFF" height="59.291" style="stroke:#181818;stroke-width:1.0;" width="10" x="1810.5" y="950.7891"/><rect fill="#FFFFFF" height="93.873" style="stroke:#181818;stroke-width:1.0;" width="10" x="1960.5" y="468.7637"/><rect fill="#FFFFFF" height="31.291" style="stroke:#181818;stroke-width:1.0;" width="10" x="2152.5" y="500.0547"/><rect fill="#FFFFFF" height="14" style="stroke:#181818;stroke-width:1.0;" width="10" x="2152.5" y="982.0801"/><line style="stroke:#181818;stroke-width:0.5;stroke-dasharray:5.0,5.0;" x1="45" x2="45" y1="123.2422" y2="1114.3711"/><line style="stroke:#181818;stroke-width:0.5;stroke-dasharray:5.0,5.0;" x1="225" x2="225" y1="123.2422" y2="1114.3711"/><line style="stroke:#181818;stroke-width:0.5;stroke-dasharray:5.0,5.0;" x1="348" x2="348" y1="205.6543" y2="1114.3711"/><line style="stroke:#181818;stroke-width:0.5;stroke-dasharray:5.0,5.0;" x1="591.5" x2="591.5" y1="299.1875" y2="1114.3711"/><line style="stroke:#181818;stroke-width:0.5;stroke-dasharray:5.0,5.0;" x1="957" x2="957" y1="123.2422" y2="1114.3711"/><line style="stroke:#181818;stroke-width:0.5;stroke-dasharray:5.0,5.0;" x1="1130" x2="1130" y1="123.2422" y2="1114.3711"/><line style="stroke:#181818;stroke-width:0.5;stroke-dasharray:5.0,5.0;" x1="1549" x2="1549" y1="123.2422" y2="1114.3711"/><line style="stroke:#181818;stroke-width:0.5;stroke-dasharray:5.0,5.0;" x1="1707" x2="1707" y1="875.0859" y2="1114.3711"/><line style="stroke:#181818;stroke-width:0.5;stroke-dasharray:5.0,5.0;" x1="1815" x2="1815" y1="123.2422" y2="1114.3711"/><line style="stroke:#181818;stroke-width:0.5;stroke-dasharray:5.0,5.0;" x1="1965" x2="1965" y1="123.2422" y2="1114.3711"/><line style="stroke:#181818;stroke-width:0.5;stroke-dasharray:5.0,5.0;" x1="2157" x2="2157" y1="123.2422" y2="1114.3711"/><text fill="#000000" font-family="sans-serif" font-size="14" lengthAdjust="spacing" textLength="75" x="5" y="119.7285">Drone Tech</text><ellipse cx="45.5" cy="53.1211" fill="#E2E2F0" rx="8" ry="8" style="stroke:#181818;stroke-width:0.5;"/><path d="M45.5,61.1211 L45.5,88.1211 M32.5,69.1211 L58.5,69.1211 M45.5,88.1211 L32.5,103.1211 M45.5,88.1211 L58.5,103.1211 " fill="none" style="stroke:#181818;stroke-width:0.5;"/><text fill="#000000" font-family="sans-serif" font-size="14" lengthAdjust="spacing" textLength="75" x="5" y="1128.4785">Drone Tech</text><ellipse cx="45.5" cy="1140.4922" fill="#E2E2F0" rx="8" ry="8" style="stroke:#181818;stroke-width:0.5;"/><path d="M45.5,1148.4922 L45.5,1175.4922 M32.5,1156.4922 L58.5,1156.4922 M45.5,1175.4922 L32.5,1190.4922 M45.5,1175.4922 L58.5,1190.4922 " fill="none" style="stroke:#181818;stroke-width:0.5;"/><rect fill="#E2E2F0" height="51.2422" rx="2.5" ry="2.5" style="stroke:#181818;stroke-width:0.5;" width="117" x="167" y="71"/><text fill="#000000" font-family="sans-serif" font-size="14" font-style="italic" lengthAdjust="spacing" textLength="95" x="178" y="93.1074">&#171;presentation&#187;</text><text fill="#000000" font-family="sans-serif" font-size="14" lengthAdjust="spacing" textLength="103" x="174" y="111.7285">AddDroneAction</text><rect fill="#E2E2F0" height="51.2422" rx="2.5" ry="2.5" style="stroke:#181818;stroke-width:0.5;" width="117" x="167" y="1113.3711"/><text fill="#000000" font-family="sans-serif" font-size="14" font-style="italic" lengthAdjust="spacing" textLength="95" x="178" y="1135.4785">&#171;presentation&#187;</text><text fill="#000000" font-family="sans-serif" font-size="14" lengthAdjust="spacing" textLength="103" x="174" y="1154.0996">AddDroneAction</text><rect fill="#E2E2F0" height="51.2422" rx="2.5" ry="2.5" style="stroke:#181818;stroke-width:0.5;" width="109" x="294" y="1113.3711"/><text fill="#000000" font-family="sans-serif" font-size="14" font-style="italic" lengthAdjust="spacing" textLength="95" x="301" y="1135.4785">&#171;presentation&#187;</text><text fill="#000000" font-family="sans-serif" font-size="14" lengthAdjust="spacing" textLength="76" x="310.5" y="1154.0996">AddDroneUI</text><rect fill="#E2E2F0" height="51.2422" rx="2.5" ry="2.5" style="stroke:#181818;stroke-width:0.5;" width="140" x="521.5" y="1113.3711"/><text fill="#000000" font-family="sans-serif" font-size="14" font-style="italic" lengthAdjust="spacing" textLength="84" x="549.5" y="1135.4785">&#171;application&#187;</text><text fill="#000000" font-family="sans-serif" font-size="14" lengthAdjust="spacing" textLength="126" x="528.5" y="1154.0996">AddDroneController</text><rect fill="#E2E2F0" height="51.2422" rx="2.5" ry="2.5" style="stroke:#181818;stroke-width:0.5;" width="143" x="886" y="71"/><text fill="#000000" font-family="sans-serif" font-size="14" font-style="italic" lengthAdjust="spacing" textLength="44" x="935.5" y="93.1074">&#171;auth&#187;</text><text fill="#000000" font-family="sans-serif" font-size="14" lengthAdjust="spacing" textLength="129" x="893" y="111.7285">AuthorizationService</text><rect fill="#E2E2F0" height="51.2422" rx="2.5" ry="2.5" style="stroke:#181818;stroke-width:0.5;" width="143" x="886" y="1113.3711"/><text fill="#000000" font-family="sans-serif" font-size="14" font-style="italic" lengthAdjust="spacing" textLength="44" x="935.5" y="1135.4785">&#171;auth&#187;</text><text fill="#000000" font-family="sans-serif" font-size="14" lengthAdjust="spacing" textLength="129" x="893" y="1154.0996">AuthorizationService</text><rect fill="#E2E2F0" height="51.2422" rx="2.5" ry="2.5" style="stroke:#181818;stroke-width:0.5;" width="182" x="1039" y="71"/><text fill="#000000" font-family="sans-serif" font-size="14" font-style="italic" lengthAdjust="spacing" textLength="84" x="1088" y="93.1074">&#171;application&#187;</text><text fill="#000000" font-family="sans-serif" font-size="14" lengthAdjust="spacing" textLength="168" x="1046" y="111.7285">DroneManagementService</text><rect fill="#E2E2F0" height="51.2422" rx="2.5" ry="2.5" style="stroke:#181818;stroke-width:0.5;" width="182" x="1039" y="1113.3711"/><text fill="#000000" font-family="sans-serif" font-size="14" font-style="italic" lengthAdjust="spacing" textLength="84" x="1088" y="1135.4785">&#171;application&#187;</text><text fill="#000000" font-family="sans-serif" font-size="14" lengthAdjust="spacing" textLength="168" x="1046" y="1154.0996">DroneManagementService</text><rect fill="#E2E2F0" height="51.2422" rx="2.5" ry="2.5" style="stroke:#181818;stroke-width:0.5;" width="220" x="1439" y="71"/><text fill="#000000" font-family="sans-serif" font-size="14" font-style="italic" lengthAdjust="spacing" textLength="84" x="1507" y="93.1074">&#171;application&#187;</text><text fill="#000000" font-family="sans-serif" font-size="14" lengthAdjust="spacing" textLength="206" x="1446" y="111.7285">DroneModelManagementService</text><rect fill="#E2E2F0" height="51.2422" rx="2.5" ry="2.5" style="stroke:#181818;stroke-width:0.5;" width="220" x="1439" y="1113.3711"/><text fill="#000000" font-family="sans-serif" font-size="14" font-style="italic" lengthAdjust="spacing" textLength="84" x="1507" y="1135.4785">&#171;application&#187;</text><text fill="#000000" font-family="sans-serif" font-size="14" lengthAdjust="spacing" textLength="206" x="1446" y="1154.0996">DroneModelManagementService</text><rect fill="#E2E2F0" height="51.2422" rx="2.5" ry="2.5" style="stroke:#181818;stroke-width:0.5;" width="76" x="1669" y="1113.3711"/><text fill="#000000" font-family="sans-serif" font-size="14" font-style="italic" lengthAdjust="spacing" textLength="62" x="1676" y="1135.4785">&#171;domain&#187;</text><text fill="#000000" font-family="sans-serif" font-size="14" lengthAdjust="spacing" textLength="39" x="1687.5" y="1154.0996">Drone</text><rect fill="#E2E2F0" height="51.2422" rx="2.5" ry="2.5" style="stroke:#181818;stroke-width:0.5;" width="121" x="1755" y="71"/><text fill="#000000" font-family="sans-serif" font-size="14" font-style="italic" lengthAdjust="spacing" textLength="79" x="1776" y="93.1074">&#171;repository&#187;</text><text fill="#000000" font-family="sans-serif" font-size="14" lengthAdjust="spacing" textLength="107" x="1762" y="111.7285">DroneRepository</text><rect fill="#E2E2F0" height="51.2422" rx="2.5" ry="2.5" style="stroke:#181818;stroke-width:0.5;" width="121" x="1755" y="1113.3711"/><text fill="#000000" font-family="sans-serif" font-size="14" font-style="italic" lengthAdjust="spacing" textLength="79" x="1776" y="1135.4785">&#171;repository&#187;</text><text fill="#000000" font-family="sans-serif" font-size="14" lengthAdjust="spacing" textLength="107" x="1762" y="1154.0996">DroneRepository</text><rect fill="#E2E2F0" height="51.2422" rx="2.5" ry="2.5" style="stroke:#181818;stroke-width:0.5;" width="159" x="1886" y="71"/><text fill="#000000" font-family="sans-serif" font-size="14" font-style="italic" lengthAdjust="spacing" textLength="79" x="1926" y="93.1074">&#171;repository&#187;</text><text fill="#000000" font-family="sans-serif" font-size="14" lengthAdjust="spacing" textLength="145" x="1893" y="111.7285">DroneModelRepository</text><rect fill="#E2E2F0" height="51.2422" rx="2.5" ry="2.5" style="stroke:#181818;stroke-width:0.5;" width="159" x="1886" y="1113.3711"/><text fill="#000000" font-family="sans-serif" font-size="14" font-style="italic" lengthAdjust="spacing" textLength="79" x="1926" y="1135.4785">&#171;repository&#187;</text><text fill="#000000" font-family="sans-serif" font-size="14" lengthAdjust="spacing" textLength="145" x="1893" y="1154.0996">DroneModelRepository</text><text fill="#000000" font-family="sans-serif" font-size="14" lengthAdjust="spacing" textLength="61" x="2124" y="119.7285">Database</text><path d="M2139.5,68.6211 C2139.5,58.6211 2157.5,58.6211 2157.5,58.6211 C2157.5,58.6211 2175.5,58.6211 2175.5,68.6211 L2175.5,94.6211 C2175.5,104.6211 2157.5,104.6211 2157.5,104.6211 C2157.5,104.6211 2139.5,104.6211 2139.5,94.6211 L2139.5,68.6211 " fill="#E2E2F0" style="stroke:#181818;stroke-width:1.5;"/><path d="M2139.5,68.6211 C2139.5,78.6211 2157.5,78.6211 2157.5,78.6211 C2157.5,78.6211 2175.5,78.6211 2175.5,68.6211 " fill="none" style="stroke:#181818;stroke-width:1.5;"/><text fill="#000000" font-family="sans-serif" font-size="14" lengthAdjust="spacing" textLength="61" x="2124" y="1128.4785">Database</text><path d="M2139.5,1141.9922 C2139.5,1131.9922 2157.5,1131.9922 2157.5,1131.9922 C2157.5,1131.9922 2175.5,1131.9922 2175.5,1141.9922 L2175.5,1167.9922 C2175.5,1177.9922 2157.5,1177.9922 2157.5,1177.9922 C2157.5,1177.9922 2139.5,1177.9922 2139.5,1167.9922 L2139.5,1141.9922 " fill="#E2E2F0" style="stroke:#181818;stroke-width:1.5;"/><path d="M2139.5,1141.9922 C2139.5,1151.9922 2157.5,1151.9922 2157.5,1151.9922 C2157.5,1151.9922 2175.5,1151.9922 2175.5,1141.9922 " fill="none" style="stroke:#181818;stroke-width:1.5;"/><rect fill="#FFFFFF" height="963.1289" style="stroke:#181818;stroke-width:1.0;" width="10" x="40.5" y="133.2422"/><rect fill="#FFFFFF" height="93.5332" style="stroke:#181818;stroke-width:1.0;" width="10" x="220.5" y="156.5332"/><rect fill="#FFFFFF" height="93.5332" style="stroke:#181818;stroke-width:1.0;" width="10" x="343.5" y="250.0664"/><rect fill="#FFFFFF" height="281.6191" style="stroke:#181818;stroke-width:1.0;" width="10" x="343.5" y="374.8906"/><rect fill="#FFFFFF" height="408.5703" style="stroke:#181818;stroke-width:1.0;" width="10" x="343.5" y="687.8008"/><rect fill="#FFFFFF" height="219.0371" style="stroke:#181818;stroke-width:1.0;" width="10" x="586.5" y="406.1816"/><rect fill="#FFFFFF" height="345.9883" style="stroke:#181818;stroke-width:1.0;" width="10" x="586.5" y="719.0918"/><rect fill="#FFFFFF" height="269.4063" style="stroke:#181818;stroke-width:1.0;" width="10" x="1125" y="781.6738"/><rect fill="#FFFFFF" height="209.1152" style="stroke:#181818;stroke-width:1.0;" width="10" x="1130" y="820.9648"/><rect fill="#FFFFFF" height="156.4551" style="stroke:#181818;stroke-width:1.0;" width="10" x="1544" y="437.4727"/><rect fill="#FFFFFF" height="52.2422" style="stroke:#181818;stroke-width:1.0;" width="10" x="1702" y="867.2559"/><rect fill="#FFFFFF" height="59.291" style="stroke:#181818;stroke-width:1.0;" width="10" x="1810.5" y="950.7891"/><rect fill="#FFFFFF" height="93.873" style="stroke:#181818;stroke-width:1.0;" width="10" x="1960.5" y="468.7637"/><rect fill="#FFFFFF" height="31.291" style="stroke:#181818;stroke-width:1.0;" width="10" x="2152.5" y="500.0547"/><rect fill="#FFFFFF" height="14" style="stroke:#181818;stroke-width:1.0;" width="10" x="2152.5" y="982.0801"/><polygon fill="#181818" points="208.5,152.5332,218.5,156.5332,208.5,160.5332,212.5,156.5332" style="stroke:#181818;stroke-width:1.0;"/><line style="stroke:#181818;stroke-width:1.0;" x1="50.5" x2="214.5" y1="156.5332" y2="156.5332"/><text fill="#000000" font-family="sans-serif" font-size="13" lengthAdjust="spacing" textLength="151" x="57.5" y="151.2705">Add drone to the inventory</text><polygon fill="#181818" points="282,183.8242,292,187.8242,282,191.8242,286,187.8242" style="stroke:#181818;stroke-width:1.0;"/><line style="stroke:#181818;stroke-width:1.0;" x1="230.5" x2="288" y1="187.8242" y2="187.8242"/><text fill="#000000" font-family="sans-serif" font-size="13" lengthAdjust="spacing" textLength="36" x="237.5" y="182.5615">create</text><rect fill="#E2E2F0" height="51.2422" rx="2.5" ry="2.5" style="stroke:#181818;stroke-width:0.5;" width="109" x="294" y="164.5332"/><text fill="#000000" font-family="sans-serif" font-size="14" font-style="italic" lengthAdjust="spacing" textLength="95" x="301" y="186.6406">&#171;presentation&#187;</text><text fill="#000000" font-family="sans-serif" font-size="14" lengthAdjust="spacing" textLength="76" x="310.5" y="205.2617">AddDroneUI</text><polygon fill="#181818" points="331.5,246.0664,341.5,250.0664,331.5,254.0664,335.5,250.0664" style="stroke:#181818;stroke-width:1.0;"/><line style="stroke:#181818;stroke-width:1.0;" x1="225.5" x2="337.5" y1="250.0664" y2="250.0664"/><text fill="#000000" font-family="sans-serif" font-size="13" lengthAdjust="spacing" textLength="38" x="232.5" y="244.8037">show()</text><polygon fill="#181818" points="509.5,277.3574,519.5,281.3574,509.5,285.3574,513.5,281.3574" style="stroke:#181818;stroke-width:1.0;"/><line style="stroke:#181818;stroke-width:1.0;" x1="353.5" x2="515.5" y1="281.3574" y2="281.3574"/><text fill="#000000" font-family="sans-serif" font-size="13" lengthAdjust="spacing" textLength="36" x="360.5" y="276.0947">create</text><rect fill="#E2E2F0" height="51.2422" rx="2.5" ry="2.5" style="stroke:#181818;stroke-width:0.5;" width="140" x="521.5" y="258.0664"/><text fill="#000000" font-family="sans-serif" font-size="14" font-style="italic" lengthAdjust="spacing" textLength="84" x="549.5" y="280.1738">&#171;application&#187;</text><text fill="#000000" font-family="sans-serif" font-size="14" lengthAdjust="spacing" textLength="126" x="528.5" y="298.7949">AddDroneController</text><polygon fill="#181818" points="61.5,339.5996,51.5,343.5996,61.5,347.5996,57.5,343.5996" style="stroke:#181818;stroke-width:1.0;"/><line style="stroke:#181818;stroke-width:1.0;stroke-dasharray:2.0,2.0;" x1="55.5" x2="347.5" y1="343.5996" y2="343.5996"/><text fill="#000000" font-family="sans-serif" font-size="13" lengthAdjust="spacing" textLength="247" x="67.5" y="338.3369">Request Drone Information (Serial Number)</text><polygon fill="#181818" points="331.5,370.8906,341.5,374.8906,331.5,378.8906,335.5,374.8906" style="stroke:#181818;stroke-width:1.0;"/><line style="stroke:#181818;stroke-width:1.0;" x1="50.5" x2="337.5" y1="374.8906" y2="374.8906"/><text fill="#000000" font-family="sans-serif" font-size="13" lengthAdjust="spacing" textLength="147" x="57.5" y="369.6279">Provide Drone Information</text><polygon fill="#181818" points="574.5,402.1816,584.5,406.1816,574.5,410.1816,578.5,406.1816" style="stroke:#181818;stroke-width:1.0;"/><line style="stroke:#181818;stroke-width:1.0;" x1="353.5" x2="580.5" y1="406.1816" y2="406.1816"/><text fill="#000000" font-family="sans-serif" font-size="13" lengthAdjust="spacing" textLength="101" x="360.5" y="400.9189">listDroneModels()</text><polygon fill="#181818" points="1532,433.4727,1542,437.4727,1532,441.4727,1536,437.4727" style="stroke:#181818;stroke-width:1.0;"/><line style="stroke:#181818;stroke-width:1.0;" x1="596.5" x2="1538" y1="437.4727" y2="437.4727"/><text fill="#000000" font-family="sans-serif" font-size="13" lengthAdjust="spacing" textLength="136" x="603.5" y="432.21">listActiveDroneModels()</text><polygon fill="#181818" points="1948.5,464.7637,1958.5,468.7637,1948.5,472.7637,1952.5,468.7637" style="stroke:#181818;stroke-width:1.0;"/><line style="stroke:#181818;stroke-width:1.0;" x1="1554" x2="1954.5" y1="468.7637" y2="468.7637"/><text fill="#000000" font-family="sans-serif" font-size="13" lengthAdjust="spacing" textLength="101" x="1561" y="463.501">findByActive(true)</text><polygon fill="#181818" points="2140.5,496.0547,2150.5,500.0547,2140.5,504.0547,2144.5,500.0547" style="stroke:#181818;stroke-width:1.0;"/><line style="stroke:#181818;stroke-width:1.0;" x1="1970.5" x2="2146.5" y1="500.0547" y2="500.0547"/><text fill="#000000" font-family="sans-serif" font-size="13" lengthAdjust="spacing" textLength="101" x="1977.5" y="494.792">findByActive(true)</text><polygon fill="#181818" points="1981.5,527.3457,1971.5,531.3457,1981.5,535.3457,1977.5,531.3457" style="stroke:#181818;stroke-width:1.0;"/><line style="stroke:#181818;stroke-width:1.0;stroke-dasharray:2.0,2.0;" x1="1975.5" x2="2156.5" y1="531.3457" y2="531.3457"/><text fill="#000000" font-family="sans-serif" font-size="13" lengthAdjust="spacing" textLength="158" x="1987.5" y="526.083">List of Active Drone Models</text><polygon fill="#181818" points="1565,558.6367,1555,562.6367,1565,566.6367,1561,562.6367" style="stroke:#181818;stroke-width:1.0;"/><line style="stroke:#181818;stroke-width:1.0;stroke-dasharray:2.0,2.0;" x1="1559" x2="1964.5" y1="562.6367" y2="562.6367"/><text fill="#000000" font-family="sans-serif" font-size="13" lengthAdjust="spacing" textLength="158" x="1571" y="557.374">List of Active Drone Models</text><polygon fill="#181818" points="607.5,589.9277,597.5,593.9277,607.5,597.9277,603.5,593.9277" style="stroke:#181818;stroke-width:1.0;"/><line style="stroke:#181818;stroke-width:1.0;stroke-dasharray:2.0,2.0;" x1="601.5" x2="1548" y1="593.9277" y2="593.9277"/><text fill="#000000" font-family="sans-serif" font-size="13" lengthAdjust="spacing" textLength="158" x="613.5" y="588.665">List of Active Drone Models</text><polygon fill="#181818" points="364.5,621.2188,354.5,625.2188,364.5,629.2188,360.5,625.2188" style="stroke:#181818;stroke-width:1.0;"/><line style="stroke:#181818;stroke-width:1.0;stroke-dasharray:2.0,2.0;" x1="358.5" x2="590.5" y1="625.2188" y2="625.2188"/><text fill="#000000" font-family="sans-serif" font-size="13" lengthAdjust="spacing" textLength="158" x="370.5" y="619.9561">List of Active Drone Models</text><polygon fill="#181818" points="61.5,652.5098,51.5,656.5098,61.5,660.5098,57.5,656.5098" style="stroke:#181818;stroke-width:1.0;"/><line style="stroke:#181818;stroke-width:1.0;stroke-dasharray:2.0,2.0;" x1="55.5" x2="347.5" y1="656.5098" y2="656.5098"/><text fill="#000000" font-family="sans-serif" font-size="13" lengthAdjust="spacing" textLength="194" x="67.5" y="651.2471">Show List of Active Drone Models</text><polygon fill="#181818" points="331.5,683.8008,341.5,687.8008,331.5,691.8008,335.5,687.8008" style="stroke:#181818;stroke-width:1.0;"/><line style="stroke:#181818;stroke-width:1.0;" x1="50.5" x2="337.5" y1="687.8008" y2="687.8008"/><text fill="#000000" font-family="sans-serif" font-size="13" lengthAdjust="spacing" textLength="121" x="57.5" y="682.5381">Choose Drone Model</text><polygon fill="#181818" points="574.5,715.0918,584.5,719.0918,574.5,723.0918,578.5,719.0918" style="stroke:#181818;stroke-width:1.0;"/><line style="stroke:#181818;stroke-width:1.0;" x1="353.5" x2="580.5" y1="719.0918" y2="719.0918"/><text fill="#000000" font-family="sans-serif" font-size="13" lengthAdjust="spacing" textLength="214" x="360.5" y="713.8291">addDrone(serialNumber, droneModel)</text><polygon fill="#181818" points="945.5,746.3828,955.5,750.3828,945.5,754.3828,949.5,750.3828" style="stroke:#181818;stroke-width:1.0;"/><line style="stroke:#181818;stroke-width:1.0;" x1="596.5" x2="951.5" y1="750.3828" y2="750.3828"/><text fill="#000000" font-family="sans-serif" font-size="13" lengthAdjust="spacing" textLength="337" x="603.5" y="745.1201">ensureAuthenticatedUserHasAnyOf(Roles.DRONE_TECH)</text><polygon fill="#181818" points="1113,777.6738,1123,781.6738,1113,785.6738,1117,781.6738" style="stroke:#181818;stroke-width:1.0;"/><line style="stroke:#181818;stroke-width:1.0;" x1="596.5" x2="1119" y1="781.6738" y2="781.6738"/><text fill="#000000" font-family="sans-serif" font-size="13" lengthAdjust="spacing" textLength="332" x="603.5" y="776.4111">registerNewDrone(serialNumber, droneModel, createdBy);</text><line style="stroke:#181818;stroke-width:1.0;" x1="1135" x2="1182" y1="807.9648" y2="807.9648"/><line style="stroke:#181818;stroke-width:1.0;" x1="1182" x2="1182" y1="807.9648" y2="820.9648"/><line style="stroke:#181818;stroke-width:1.0;" x1="1141" x2="1182" y1="820.9648" y2="820.9648"/><polygon fill="#181818" points="1151,816.9648,1141,820.9648,1151,824.9648,1147,820.9648" style="stroke:#181818;stroke-width:1.0;"/><text fill="#000000" font-family="sans-serif" font-size="13" lengthAdjust="spacing" textLength="395" x="1147" y="802.7021">registerNewDrone( serialNumber, droneModel, acquisitionDate, user)</text><polygon fill="#181818" points="1657,853.2559,1667,857.2559,1657,861.2559,1661,857.2559" style="stroke:#181818;stroke-width:1.0;"/><line style="stroke:#181818;stroke-width:1.0;" x1="1140" x2="1663" y1="857.2559" y2="857.2559"/><text fill="#000000" font-family="sans-serif" font-size="13" lengthAdjust="spacing" textLength="354" x="1147" y="851.9932">new Drone(serialNumber, droneModel, acquisitionDate, user);</text><rect fill="#E2E2F0" height="51.2422" rx="2.5" ry="2.5" style="stroke:#181818;stroke-width:0.5;" width="76" x="1669" y="833.9648"/><text fill="#000000" font-family="sans-serif" font-size="14" font-style="italic" lengthAdjust="spacing" textLength="62" x="1676" y="856.0723">&#171;domain&#187;</text><text fill="#000000" font-family="sans-serif" font-size="14" lengthAdjust="spacing" textLength="39" x="1687.5" y="874.6934">Drone</text><polygon fill="#181818" points="1151,915.498,1141,919.498,1151,923.498,1147,919.498" style="stroke:#181818;stroke-width:1.0;"/><line style="stroke:#181818;stroke-width:1.0;stroke-dasharray:2.0,2.0;" x1="1145" x2="1706" y1="919.498" y2="919.498"/><text fill="#000000" font-family="sans-serif" font-size="13" lengthAdjust="spacing" textLength="57" x="1157" y="914.2354">newDrone</text><polygon fill="#181818" points="1798.5,946.7891,1808.5,950.7891,1798.5,954.7891,1802.5,950.7891" style="stroke:#181818;stroke-width:1.0;"/><line style="stroke:#181818;stroke-width:1.0;" x1="1140" x2="1804.5" y1="950.7891" y2="950.7891"/><text fill="#000000" font-family="sans-serif" font-size="13" lengthAdjust="spacing" textLength="91" x="1147" y="945.5264">save(newDrone)</text><polygon fill="#181818" points="2140.5,978.0801,2150.5,982.0801,2140.5,986.0801,2144.5,982.0801" style="stroke:#181818;stroke-width:1.0;"/><line style="stroke:#181818;stroke-width:1.0;" x1="1820.5" x2="2146.5" y1="982.0801" y2="982.0801"/><text fill="#000000" font-family="sans-serif" font-size="13" lengthAdjust="spacing" textLength="34" x="1827.5" y="976.8174">save()</text><polygon fill="#181818" points="1831.5,992.0801,1821.5,996.0801,1831.5,1000.0801,1827.5,996.0801" style="stroke:#181818;stroke-width:1.0;"/><line style="stroke:#181818;stroke-width:1.0;stroke-dasharray:2.0,2.0;" x1="1825.5" x2="2156.5" y1="996.0801" y2="996.0801"/><polygon fill="#181818" points="1151,1006.0801,1141,1010.0801,1151,1014.0801,1147,1010.0801" style="stroke:#181818;stroke-width:1.0;"/><line style="stroke:#181818;stroke-width:1.0;stroke-dasharray:2.0,2.0;" x1="1145" x2="1814.5" y1="1010.0801" y2="1010.0801"/><line style="stroke:#181818;stroke-width:1.0;stroke-dasharray:2.0,2.0;" x1="1140" x2="1182" y1="1029.0801" y2="1029.0801"/><line style="stroke:#181818;stroke-width:1.0;stroke-dasharray:2.0,2.0;" x1="1182" x2="1182" y1="1029.0801" y2="1042.0801"/><line style="stroke:#181818;stroke-width:1.0;stroke-dasharray:2.0,2.0;" x1="1135" x2="1182" y1="1042.0801" y2="1042.0801"/><polygon fill="#181818" points="1145,1038.0801,1135,1042.0801,1145,1046.0801,1141,1042.0801" style="stroke:#181818;stroke-width:1.0;"/><polygon fill="#181818" points="607.5,1047.0801,597.5,1051.0801,607.5,1055.0801,603.5,1051.0801" style="stroke:#181818;stroke-width:1.0;"/><line style="stroke:#181818;stroke-width:1.0;stroke-dasharray:2.0,2.0;" x1="601.5" x2="1129" y1="1051.0801" y2="1051.0801"/><polygon fill="#181818" points="364.5,1061.0801,354.5,1065.0801,364.5,1069.0801,360.5,1065.0801" style="stroke:#181818;stroke-width:1.0;"/><line style="stroke:#181818;stroke-width:1.0;stroke-dasharray:2.0,2.0;" x1="358.5" x2="590.5" y1="1065.0801" y2="1065.0801"/><polygon fill="#181818" points="56.5,1092.3711,46.5,1096.3711,56.5,1100.3711,52.5,1096.3711" style="stroke:#181818;stroke-width:1.0;"/><line style="stroke:#181818;stroke-width:1.0;stroke-dasharray:2.0,2.0;" x1="50.5" x2="347.5" y1="1096.3711" y2="1096.3711"/><text fill="#000000" font-family="sans-serif" font-size="13" lengthAdjust="spacing" textLength="234" x="62.5" y="1091.1084">Confirms Drone is added to the inventory</text><!--SRC=[jLVRRjim37ttLn1zYejk7-0M1RAsG0DixP0kpuDgCuq0Hqeb9KNtzQDaEvPj-PArqqjYIJmyeiX3st2J8ppXwnv5Yd3BsOjYsoXYgP4ApcwL50Y_CDsS0TCmjxFHZYd3KxvZmi3PFClS9bhYKbIxw2zSNUqKQXI6sSVhwx3TQk5iLek9-s-aC4hcEIfdLp-IFTljSfw6pVTc8nN_unQVK1ruYWNPm8A5ekasXlF_WmdsWbkYwQE4buOf5JOomtm8CxW-0RY6eCsPt38UthV4dTIShlMzjgZdo5OT7_eF409fBRIHeemPzimq4axvhx0j7rmAyWCpM6PTv7xWotMPNmbGIa3cJcWac0q25mUA4U4tZMcpixP9IUQhnVav990gfFN6V09w8zzcCP733W3GE4wk5b54AKjMTGBwg7QjO2fL0ajRNjgKrx4GQwcsxkPWHXVAMGuF- -qpgjWvyNnRDt0yjoNuKya3px0B5OsmIo3dsjGtesTnyqZrrkAiTdZLHM032LcWsr0TiEkZ6aTV0qXHmyAEeJfeiAgJBO4r5zctzuBGpAWznXtS7aOrIXGqQLBo4jnoAPCtWQa4kaIE-GyZezhfCYqSXUzqAI3NKD0eawQuca5uBmMFV4wBnLYwdChCPnIygjFIfbKQKza4MGoai5y_PG6FkV9S-1NP59Gdagb1f9Q6D2JaPYEbRkoF0kfM7Q6j8wHnh6p5C-t4gz2kYqAA7LvFrOSK9gmqmQQS00gzLsWNATYs-M6s8WxtJC_5- -DwjfGvwg-toyU7kz-_xcxkup4_FMqx0OKl55rK3_WsVDIBKl6frkFBQ4HUnhMkJjn-gUiMKuSjzDDbwUkUKz5GOAcqyGBskceyxJ7_3-nTanJu1cDX3VEy75N5PiZ7LRIYx4bM81z46TbHkBP2_5EGF26bLn963QJo7qSJsjYK3bRJ27Umol5mr_gSjkNnXLExqea7xBtZIKrdX6ZVhNxCwGVhhY7UqISuw_IqlWuPSEjtCSemsh7cQbjzft1jMmjctTVv03hvRRwaqoV2Nm00]--></g></svg>