<?xml version="1.0" encoding="us-ascii" standalone="no"?><svg xmlns="http://www.w3.org/2000/svg" xmlns:xlink="http://www.w3.org/1999/xlink" contentStyleType="text/css" height="1219px" preserveAspectRatio="none" style="width:2498px;height:1219px;background:#FFFFFF;" version="1.1" viewBox="0 0 2498 1219" width="2498px" zoomAndPan="magnify"><defs/><g><text fill="#000000" font-family="sans-serif" font-size="14" font-weight="bold" lengthAdjust="spacing" textLength="132" x="1184.5" y="30.1074">Sequence Diagram</text><rect fill="#FFFFFF" height="985.3711" style="stroke:#181818;stroke-width:1.0;" width="10" x="40.5" y="133.2422"/><rect fill="#FFFFFF" height="93.5332" style="stroke:#181818;stroke-width:1.0;" width="10" x="386.5" y="156.5332"/><rect fill="#FFFFFF" height="343.8613" style="stroke:#181818;stroke-width:1.0;" width="10" x="386.5" y="281.3574"/><rect fill="#FFFFFF" height="462.1035" style="stroke:#181818;stroke-width:1.0;" width="10" x="386.5" y="656.5098"/><rect fill="#FFFFFF" height="281.2793" style="stroke:#181818;stroke-width:1.0;" width="10" x="726.5" y="312.6484"/><rect fill="#FFFFFF" height="399.5215" style="stroke:#181818;stroke-width:1.0;" width="10" x="726.5" y="687.8008"/><rect fill="#FFFFFF" height="322.9395" style="stroke:#181818;stroke-width:1.0;" width="10" x="1212.5" y="750.3828"/><rect fill="#FFFFFF" height="156.4551" style="stroke:#181818;stroke-width:1.0;" width="10" x="1423.5" y="406.1816"/><rect fill="#FFFFFF" height="124.8242" style="stroke:#181818;stroke-width:1.0;" width="10" x="1592" y="843.916"/><rect fill="#FFFFFF" height="52.2422" style="stroke:#181818;stroke-width:1.0;" width="10" x="2047" y="885.207"/><rect fill="#FFFFFF" height="59.291" style="stroke:#181818;stroke-width:1.0;" width="10" x="2155.5" y="1000.0313"/><rect fill="#FFFFFF" height="93.873" style="stroke:#181818;stroke-width:1.0;" width="10" x="2305.5" y="437.4727"/><rect fill="#FFFFFF" height="31.291" style="stroke:#181818;stroke-width:1.0;" width="10" x="2458.5" y="468.7637"/><rect fill="#FFFFFF" height="14" style="stroke:#181818;stroke-width:1.0;" width="10" x="2458.5" y="1031.3223"/><line style="stroke:#181818;stroke-width:0.5;stroke-dasharray:5.0,5.0;" x1="45" x2="45" y1="123.2422" y2="1136.6133"/><line style="stroke:#181818;stroke-width:0.5;stroke-dasharray:5.0,5.0;" x1="391" x2="391" y1="123.2422" y2="1136.6133"/><line style="stroke:#181818;stroke-width:0.5;stroke-dasharray:5.0,5.0;" x1="731.5" x2="731.5" y1="205.6543" y2="1136.6133"/><line style="stroke:#181818;stroke-width:0.5;stroke-dasharray:5.0,5.0;" x1="1044.5" x2="1044.5" y1="361.7695" y2="1136.6133"/><line style="stroke:#181818;stroke-width:0.5;stroke-dasharray:5.0,5.0;" x1="1217.5" x2="1217.5" y1="123.2422" y2="1136.6133"/><line style="stroke:#181818;stroke-width:0.5;stroke-dasharray:5.0,5.0;" x1="1428.5" x2="1428.5" y1="123.2422" y2="1136.6133"/><line style="stroke:#181818;stroke-width:0.5;stroke-dasharray:5.0,5.0;" x1="1596.5" x2="1596.5" y1="799.5039" y2="1136.6133"/><line style="stroke:#181818;stroke-width:0.5;stroke-dasharray:5.0,5.0;" x1="2052" x2="2052" y1="893.0371" y2="1136.6133"/><line style="stroke:#181818;stroke-width:0.5;stroke-dasharray:5.0,5.0;" x1="2160" x2="2160" y1="123.2422" y2="1136.6133"/><line style="stroke:#181818;stroke-width:0.5;stroke-dasharray:5.0,5.0;" x1="2310" x2="2310" y1="123.2422" y2="1136.6133"/><line style="stroke:#181818;stroke-width:0.5;stroke-dasharray:5.0,5.0;" x1="2463" x2="2463" y1="123.2422" y2="1136.6133"/><text fill="#000000" font-family="sans-serif" font-size="14" lengthAdjust="spacing" textLength="75" x="5" y="119.7285">Drone Tech</text><ellipse cx="45.5" cy="53.1211" fill="#E2E2F0" rx="8" ry="8" style="stroke:#181818;stroke-width:0.5;"/><path d="M45.5,61.1211 L45.5,88.1211 M32.5,69.1211 L58.5,69.1211 M45.5,88.1211 L32.5,103.1211 M45.5,88.1211 L58.5,103.1211 " fill="none" style="stroke:#181818;stroke-width:0.5;"/><text fill="#000000" font-family="sans-serif" font-size="14" lengthAdjust="spacing" textLength="75" x="5" y="1150.7207">Drone Tech</text><ellipse cx="45.5" cy="1162.7344" fill="#E2E2F0" rx="8" ry="8" style="stroke:#181818;stroke-width:0.5;"/><path d="M45.5,1170.7344 L45.5,1197.7344 M32.5,1178.7344 L58.5,1178.7344 M45.5,1197.7344 L32.5,1212.7344 M45.5,1197.7344 L58.5,1212.7344 " fill="none" style="stroke:#181818;stroke-width:0.5;"/><rect fill="#E2E2F0" height="51.2422" rx="2.5" ry="2.5" style="stroke:#181818;stroke-width:0.5;" width="109" x="337" y="71"/><text fill="#000000" font-family="sans-serif" font-size="14" font-style="italic" lengthAdjust="spacing" textLength="95" x="344" y="93.1074">&#171;presentation&#187;</text><text fill="#000000" font-family="sans-serif" font-size="14" lengthAdjust="spacing" textLength="76" x="353.5" y="111.7285">AddDroneUI</text><rect fill="#E2E2F0" height="51.2422" rx="2.5" ry="2.5" style="stroke:#181818;stroke-width:0.5;" width="109" x="337" y="1135.6133"/><text fill="#000000" font-family="sans-serif" font-size="14" font-style="italic" lengthAdjust="spacing" textLength="95" x="344" y="1157.7207">&#171;presentation&#187;</text><text fill="#000000" font-family="sans-serif" font-size="14" lengthAdjust="spacing" textLength="76" x="353.5" y="1176.3418">AddDroneUI</text><rect fill="#E2E2F0" height="51.2422" rx="2.5" ry="2.5" style="stroke:#181818;stroke-width:0.5;" width="140" x="661.5" y="1135.6133"/><text fill="#000000" font-family="sans-serif" font-size="14" font-style="italic" lengthAdjust="spacing" textLength="84" x="689.5" y="1157.7207">&#171;application&#187;</text><text fill="#000000" font-family="sans-serif" font-size="14" lengthAdjust="spacing" textLength="126" x="668.5" y="1176.3418">AddDroneController</text><rect fill="#E2E2F0" height="51.2422" rx="2.5" ry="2.5" style="stroke:#181818;stroke-width:0.5;" width="143" x="973.5" y="1135.6133"/><text fill="#000000" font-family="sans-serif" font-size="14" font-style="italic" lengthAdjust="spacing" textLength="44" x="1023" y="1157.7207">&#171;auth&#187;</text><text fill="#000000" font-family="sans-serif" font-size="14" lengthAdjust="spacing" textLength="129" x="980.5" y="1176.3418">AuthorizationService</text><rect fill="#E2E2F0" height="51.2422" rx="2.5" ry="2.5" style="stroke:#181818;stroke-width:0.5;" width="182" x="1126.5" y="71"/><text fill="#000000" font-family="sans-serif" font-size="14" font-style="italic" lengthAdjust="spacing" textLength="84" x="1175.5" y="93.1074">&#171;application&#187;</text><text fill="#000000" font-family="sans-serif" font-size="14" lengthAdjust="spacing" textLength="168" x="1133.5" y="111.7285">DroneManagementService</text><rect fill="#E2E2F0" height="51.2422" rx="2.5" ry="2.5" style="stroke:#181818;stroke-width:0.5;" width="182" x="1126.5" y="1135.6133"/><text fill="#000000" font-family="sans-serif" font-size="14" font-style="italic" lengthAdjust="spacing" textLength="84" x="1175.5" y="1157.7207">&#171;application&#187;</text><text fill="#000000" font-family="sans-serif" font-size="14" lengthAdjust="spacing" textLength="168" x="1133.5" y="1176.3418">DroneManagementService</text><rect fill="#E2E2F0" height="51.2422" rx="2.5" ry="2.5" style="stroke:#181818;stroke-width:0.5;" width="220" x="1318.5" y="71"/><text fill="#000000" font-family="sans-serif" font-size="14" font-style="italic" lengthAdjust="spacing" textLength="84" x="1386.5" y="93.1074">&#171;application&#187;</text><text fill="#000000" font-family="sans-serif" font-size="14" lengthAdjust="spacing" textLength="206" x="1325.5" y="111.7285">DroneModelManagementService</text><rect fill="#E2E2F0" height="51.2422" rx="2.5" ry="2.5" style="stroke:#181818;stroke-width:0.5;" width="220" x="1318.5" y="1135.6133"/><text fill="#000000" font-family="sans-serif" font-size="14" font-style="italic" lengthAdjust="spacing" textLength="84" x="1386.5" y="1157.7207">&#171;application&#187;</text><text fill="#000000" font-family="sans-serif" font-size="14" lengthAdjust="spacing" textLength="206" x="1325.5" y="1176.3418">DroneModelManagementService</text><rect fill="#E2E2F0" height="51.2422" rx="2.5" ry="2.5" style="stroke:#181818;stroke-width:0.5;" width="97" x="1548.5" y="1135.6133"/><text fill="#000000" font-family="sans-serif" font-size="14" font-style="italic" lengthAdjust="spacing" textLength="62" x="1566" y="1157.7207">&#171;domain&#187;</text><text fill="#000000" font-family="sans-serif" font-size="14" lengthAdjust="spacing" textLength="83" x="1555.5" y="1176.3418">DroneBuilder</text><rect fill="#E2E2F0" height="51.2422" rx="2.5" ry="2.5" style="stroke:#181818;stroke-width:0.5;" width="76" x="2014" y="1135.6133"/><text fill="#000000" font-family="sans-serif" font-size="14" font-style="italic" lengthAdjust="spacing" textLength="62" x="2021" y="1157.7207">&#171;domain&#187;</text><text fill="#000000" font-family="sans-serif" font-size="14" lengthAdjust="spacing" textLength="39" x="2032.5" y="1176.3418">Drone</text><rect fill="#E2E2F0" height="51.2422" rx="2.5" ry="2.5" style="stroke:#181818;stroke-width:0.5;" width="121" x="2100" y="71"/><text fill="#000000" font-family="sans-serif" font-size="14" font-style="italic" lengthAdjust="spacing" textLength="79" x="2121" y="93.1074">&#171;repository&#187;</text><text fill="#000000" font-family="sans-serif" font-size="14" lengthAdjust="spacing" textLength="107" x="2107" y="111.7285">DroneRepository</text><rect fill="#E2E2F0" height="51.2422" rx="2.5" ry="2.5" style="stroke:#181818;stroke-width:0.5;" width="121" x="2100" y="1135.6133"/><text fill="#000000" font-family="sans-serif" font-size="14" font-style="italic" lengthAdjust="spacing" textLength="79" x="2121" y="1157.7207">&#171;repository&#187;</text><text fill="#000000" font-family="sans-serif" font-size="14" lengthAdjust="spacing" textLength="107" x="2107" y="1176.3418">DroneRepository</text><rect fill="#E2E2F0" height="51.2422" rx="2.5" ry="2.5" style="stroke:#181818;stroke-width:0.5;" width="159" x="2231" y="71"/><text fill="#000000" font-family="sans-serif" font-size="14" font-style="italic" lengthAdjust="spacing" textLength="79" x="2271" y="93.1074">&#171;repository&#187;</text><text fill="#000000" font-family="sans-serif" font-size="14" lengthAdjust="spacing" textLength="145" x="2238" y="111.7285">DroneModelRepository</text><rect fill="#E2E2F0" height="51.2422" rx="2.5" ry="2.5" style="stroke:#181818;stroke-width:0.5;" width="159" x="2231" y="1135.6133"/><text fill="#000000" font-family="sans-serif" font-size="14" font-style="italic" lengthAdjust="spacing" textLength="79" x="2271" y="1157.7207">&#171;repository&#187;</text><text fill="#000000" font-family="sans-serif" font-size="14" lengthAdjust="spacing" textLength="145" x="2238" y="1176.3418">DroneModelRepository</text><text fill="#000000" font-family="sans-serif" font-size="14" lengthAdjust="spacing" textLength="61" x="2430" y="119.7285">Database</text><path d="M2445.5,68.6211 C2445.5,58.6211 2463.5,58.6211 2463.5,58.6211 C2463.5,58.6211 2481.5,58.6211 2481.5,68.6211 L2481.5,94.6211 C2481.5,104.6211 2463.5,104.6211 2463.5,104.6211 C2463.5,104.6211 2445.5,104.6211 2445.5,94.6211 L2445.5,68.6211 " fill="#E2E2F0" style="stroke:#181818;stroke-width:1.5;"/><path d="M2445.5,68.6211 C2445.5,78.6211 2463.5,78.6211 2463.5,78.6211 C2463.5,78.6211 2481.5,78.6211 2481.5,68.6211 " fill="none" style="stroke:#181818;stroke-width:1.5;"/><text fill="#000000" font-family="sans-serif" font-size="14" lengthAdjust="spacing" textLength="61" x="2430" y="1150.7207">Database</text><path d="M2445.5,1164.2344 C2445.5,1154.2344 2463.5,1154.2344 2463.5,1154.2344 C2463.5,1154.2344 2481.5,1154.2344 2481.5,1164.2344 L2481.5,1190.2344 C2481.5,1200.2344 2463.5,1200.2344 2463.5,1200.2344 C2463.5,1200.2344 2445.5,1200.2344 2445.5,1190.2344 L2445.5,1164.2344 " fill="#E2E2F0" style="stroke:#181818;stroke-width:1.5;"/><path d="M2445.5,1164.2344 C2445.5,1174.2344 2463.5,1174.2344 2463.5,1174.2344 C2463.5,1174.2344 2481.5,1174.2344 2481.5,1164.2344 " fill="none" style="stroke:#181818;stroke-width:1.5;"/><rect fill="#FFFFFF" height="985.3711" style="stroke:#181818;stroke-width:1.0;" width="10" x="40.5" y="133.2422"/><rect fill="#FFFFFF" height="93.5332" style="stroke:#181818;stroke-width:1.0;" width="10" x="386.5" y="156.5332"/><rect fill="#FFFFFF" height="343.8613" style="stroke:#181818;stroke-width:1.0;" width="10" x="386.5" y="281.3574"/><rect fill="#FFFFFF" height="462.1035" style="stroke:#181818;stroke-width:1.0;" width="10" x="386.5" y="656.5098"/><rect fill="#FFFFFF" height="281.2793" style="stroke:#181818;stroke-width:1.0;" width="10" x="726.5" y="312.6484"/><rect fill="#FFFFFF" height="399.5215" style="stroke:#181818;stroke-width:1.0;" width="10" x="726.5" y="687.8008"/><rect fill="#FFFFFF" height="322.9395" style="stroke:#181818;stroke-width:1.0;" width="10" x="1212.5" y="750.3828"/><rect fill="#FFFFFF" height="156.4551" style="stroke:#181818;stroke-width:1.0;" width="10" x="1423.5" y="406.1816"/><rect fill="#FFFFFF" height="124.8242" style="stroke:#181818;stroke-width:1.0;" width="10" x="1592" y="843.916"/><rect fill="#FFFFFF" height="52.2422" style="stroke:#181818;stroke-width:1.0;" width="10" x="2047" y="885.207"/><rect fill="#FFFFFF" height="59.291" style="stroke:#181818;stroke-width:1.0;" width="10" x="2155.5" y="1000.0313"/><rect fill="#FFFFFF" height="93.873" style="stroke:#181818;stroke-width:1.0;" width="10" x="2305.5" y="437.4727"/><rect fill="#FFFFFF" height="31.291" style="stroke:#181818;stroke-width:1.0;" width="10" x="2458.5" y="468.7637"/><rect fill="#FFFFFF" height="14" style="stroke:#181818;stroke-width:1.0;" width="10" x="2458.5" y="1031.3223"/><polygon fill="#181818" points="374.5,152.5332,384.5,156.5332,374.5,160.5332,378.5,156.5332" style="stroke:#181818;stroke-width:1.0;"/><line style="stroke:#181818;stroke-width:1.0;" x1="50.5" x2="380.5" y1="156.5332" y2="156.5332"/><text fill="#000000" font-family="sans-serif" font-size="13" lengthAdjust="spacing" textLength="38" x="57.5" y="151.2705">show()</text><polygon fill="#181818" points="649.5,183.8242,659.5,187.8242,649.5,191.8242,653.5,187.8242" style="stroke:#181818;stroke-width:1.0;"/><line style="stroke:#181818;stroke-width:1.0;" x1="396.5" x2="655.5" y1="187.8242" y2="187.8242"/><text fill="#000000" font-family="sans-serif" font-size="13" lengthAdjust="spacing" textLength="44" x="403.5" y="182.5615">create()</text><rect fill="#E2E2F0" height="51.2422" rx="2.5" ry="2.5" style="stroke:#181818;stroke-width:0.5;" width="140" x="661.5" y="164.5332"/><text fill="#000000" font-family="sans-serif" font-size="14" font-style="italic" lengthAdjust="spacing" textLength="84" x="689.5" y="186.6406">&#171;application&#187;</text><text fill="#000000" font-family="sans-serif" font-size="14" lengthAdjust="spacing" textLength="126" x="668.5" y="205.2617">AddDroneController</text><polygon fill="#181818" points="61.5,246.0664,51.5,250.0664,61.5,254.0664,57.5,250.0664" style="stroke:#181818;stroke-width:1.0;"/><line style="stroke:#181818;stroke-width:1.0;stroke-dasharray:2.0,2.0;" x1="55.5" x2="390.5" y1="250.0664" y2="250.0664"/><text fill="#000000" font-family="sans-serif" font-size="13" lengthAdjust="spacing" textLength="312" x="67.5" y="244.8037">Request Drone data (Serial Number, Acquisition Date)</text><polygon fill="#181818" points="374.5,277.3574,384.5,281.3574,374.5,285.3574,378.5,281.3574" style="stroke:#181818;stroke-width:1.0;"/><line style="stroke:#181818;stroke-width:1.0;" x1="50.5" x2="380.5" y1="281.3574" y2="281.3574"/><text fill="#000000" font-family="sans-serif" font-size="13" lengthAdjust="spacing" textLength="99" x="57.5" y="276.0947">Insert Drone data</text><polygon fill="#181818" points="714.5,308.6484,724.5,312.6484,714.5,316.6484,718.5,312.6484" style="stroke:#181818;stroke-width:1.0;"/><line style="stroke:#181818;stroke-width:1.0;" x1="396.5" x2="720.5" y1="312.6484" y2="312.6484"/><text fill="#000000" font-family="sans-serif" font-size="13" lengthAdjust="spacing" textLength="101" x="403.5" y="307.3857">listDroneModels()</text><polygon fill="#181818" points="961.5,339.9395,971.5,343.9395,961.5,347.9395,965.5,343.9395" style="stroke:#181818;stroke-width:1.0;"/><line style="stroke:#181818;stroke-width:1.0;" x1="736.5" x2="967.5" y1="343.9395" y2="343.9395"/><text fill="#000000" font-family="sans-serif" font-size="13" lengthAdjust="spacing" textLength="213" x="743.5" y="338.6768">ensureAuthenticatedUserHasAnyOf()</text><rect fill="#E2E2F0" height="51.2422" rx="2.5" ry="2.5" style="stroke:#181818;stroke-width:0.5;" width="143" x="973.5" y="320.6484"/><text fill="#000000" font-family="sans-serif" font-size="14" font-style="italic" lengthAdjust="spacing" textLength="44" x="1023" y="342.7559">&#171;auth&#187;</text><text fill="#000000" font-family="sans-serif" font-size="14" lengthAdjust="spacing" textLength="129" x="980.5" y="361.377">AuthorizationService</text><polygon fill="#181818" points="1411.5,402.1816,1421.5,406.1816,1411.5,410.1816,1415.5,406.1816" style="stroke:#181818;stroke-width:1.0;"/><line style="stroke:#181818;stroke-width:1.0;" x1="736.5" x2="1417.5" y1="406.1816" y2="406.1816"/><text fill="#000000" font-family="sans-serif" font-size="13" lengthAdjust="spacing" textLength="101" x="743.5" y="400.9189">listDroneModels()</text><polygon fill="#181818" points="2293.5,433.4727,2303.5,437.4727,2293.5,441.4727,2297.5,437.4727" style="stroke:#181818;stroke-width:1.0;"/><line style="stroke:#181818;stroke-width:1.0;" x1="1433.5" x2="2299.5" y1="437.4727" y2="437.4727"/><text fill="#000000" font-family="sans-serif" font-size="13" lengthAdjust="spacing" textLength="43" x="1440.5" y="432.21">findAll()</text><polygon fill="#181818" points="2446.5,464.7637,2456.5,468.7637,2446.5,472.7637,2450.5,468.7637" style="stroke:#181818;stroke-width:1.0;"/><line style="stroke:#181818;stroke-width:1.0;" x1="2315.5" x2="2452.5" y1="468.7637" y2="468.7637"/><text fill="#000000" font-family="sans-serif" font-size="13" lengthAdjust="spacing" textLength="43" x="2322.5" y="463.501">findAll()</text><polygon fill="#181818" points="2326.5,496.0547,2316.5,500.0547,2326.5,504.0547,2322.5,500.0547" style="stroke:#181818;stroke-width:1.0;"/><line style="stroke:#181818;stroke-width:1.0;stroke-dasharray:2.0,2.0;" x1="2320.5" x2="2462.5" y1="500.0547" y2="500.0547"/><text fill="#000000" font-family="sans-serif" font-size="13" lengthAdjust="spacing" textLength="119" x="2332.5" y="494.792">List of Drone Models</text><polygon fill="#181818" points="1444.5,527.3457,1434.5,531.3457,1444.5,535.3457,1440.5,531.3457" style="stroke:#181818;stroke-width:1.0;"/><line style="stroke:#181818;stroke-width:1.0;stroke-dasharray:2.0,2.0;" x1="1438.5" x2="2309.5" y1="531.3457" y2="531.3457"/><text fill="#000000" font-family="sans-serif" font-size="13" lengthAdjust="spacing" textLength="119" x="1450.5" y="526.083">List of Drone Models</text><polygon fill="#181818" points="747.5,558.6367,737.5,562.6367,747.5,566.6367,743.5,562.6367" style="stroke:#181818;stroke-width:1.0;"/><line style="stroke:#181818;stroke-width:1.0;stroke-dasharray:2.0,2.0;" x1="741.5" x2="1427.5" y1="562.6367" y2="562.6367"/><text fill="#000000" font-family="sans-serif" font-size="13" lengthAdjust="spacing" textLength="119" x="753.5" y="557.374">List of Drone Models</text><polygon fill="#181818" points="407.5,589.9277,397.5,593.9277,407.5,597.9277,403.5,593.9277" style="stroke:#181818;stroke-width:1.0;"/><line style="stroke:#181818;stroke-width:1.0;stroke-dasharray:2.0,2.0;" x1="401.5" x2="730.5" y1="593.9277" y2="593.9277"/><text fill="#000000" font-family="sans-serif" font-size="13" lengthAdjust="spacing" textLength="119" x="413.5" y="588.665">List of Drone Models</text><polygon fill="#181818" points="61.5,621.2188,51.5,625.2188,61.5,629.2188,57.5,625.2188" style="stroke:#181818;stroke-width:1.0;"/><line style="stroke:#181818;stroke-width:1.0;stroke-dasharray:2.0,2.0;" x1="55.5" x2="390.5" y1="625.2188" y2="625.2188"/><text fill="#000000" font-family="sans-serif" font-size="13" lengthAdjust="spacing" textLength="155" x="67.5" y="619.9561">Show List of Drone Models</text><polygon fill="#181818" points="374.5,652.5098,384.5,656.5098,374.5,660.5098,378.5,656.5098" style="stroke:#181818;stroke-width:1.0;"/><line style="stroke:#181818;stroke-width:1.0;" x1="50.5" x2="380.5" y1="656.5098" y2="656.5098"/><text fill="#000000" font-family="sans-serif" font-size="13" lengthAdjust="spacing" textLength="121" x="57.5" y="651.2471">Choose Drone Model</text><polygon fill="#181818" points="714.5,683.8008,724.5,687.8008,714.5,691.8008,718.5,687.8008" style="stroke:#181818;stroke-width:1.0;"/><line style="stroke:#181818;stroke-width:1.0;" x1="396.5" x2="720.5" y1="687.8008" y2="687.8008"/><text fill="#000000" font-family="sans-serif" font-size="13" lengthAdjust="spacing" textLength="311" x="403.5" y="682.5381">addDrone(serialNumber, acquisitionDate, droneModel)</text><polygon fill="#181818" points="1033,715.0918,1043,719.0918,1033,723.0918,1037,719.0918" style="stroke:#181818;stroke-width:1.0;"/><line style="stroke:#181818;stroke-width:1.0;" x1="736.5" x2="1039" y1="719.0918" y2="719.0918"/><text fill="#000000" font-family="sans-serif" font-size="13" lengthAdjust="spacing" textLength="213" x="743.5" y="713.8291">ensureAuthenticatedUserHasAnyOf()</text><polygon fill="#181818" points="1200.5,746.3828,1210.5,750.3828,1200.5,754.3828,1204.5,750.3828" style="stroke:#181818;stroke-width:1.0;"/><line style="stroke:#181818;stroke-width:1.0;" x1="736.5" x2="1206.5" y1="750.3828" y2="750.3828"/><text fill="#000000" font-family="sans-serif" font-size="13" lengthAdjust="spacing" textLength="431" x="743.5" y="745.1201">registerNewFigure(serialNumber, acquisitionDate, droneModel, createdBy);</text><polygon fill="#181818" points="1536.5,777.6738,1546.5,781.6738,1536.5,785.6738,1540.5,781.6738" style="stroke:#181818;stroke-width:1.0;"/><line style="stroke:#181818;stroke-width:1.0;" x1="1222.5" x2="1542.5" y1="781.6738" y2="781.6738"/><text fill="#000000" font-family="sans-serif" font-size="13" lengthAdjust="spacing" textLength="44" x="1229.5" y="776.4111">create()</text><rect fill="#E2E2F0" height="51.2422" rx="2.5" ry="2.5" style="stroke:#181818;stroke-width:0.5;" width="97" x="1548.5" y="758.3828"/><text fill="#000000" font-family="sans-serif" font-size="14" font-style="italic" lengthAdjust="spacing" textLength="62" x="1566" y="780.4902">&#171;domain&#187;</text><text fill="#000000" font-family="sans-serif" font-size="14" lengthAdjust="spacing" textLength="83" x="1555.5" y="799.1113">DroneBuilder</text><polygon fill="#181818" points="1580,839.916,1590,843.916,1580,847.916,1584,843.916" style="stroke:#181818;stroke-width:1.0;"/><line style="stroke:#181818;stroke-width:1.0;" x1="1222.5" x2="1586" y1="843.916" y2="843.916"/><text fill="#000000" font-family="sans-serif" font-size="13" lengthAdjust="spacing" textLength="27" x="1229.5" y="838.6533">build</text><polygon fill="#181818" points="2002,871.207,2012,875.207,2002,879.207,2006,875.207" style="stroke:#181818;stroke-width:1.0;"/><line style="stroke:#181818;stroke-width:1.0;" x1="1602" x2="2008" y1="875.207" y2="875.207"/><text fill="#000000" font-family="sans-serif" font-size="13" lengthAdjust="spacing" textLength="388" x="1609" y="869.9443">new Drone(serialNumber, acquisitionDate, droneModel, createdBy);</text><rect fill="#E2E2F0" height="51.2422" rx="2.5" ry="2.5" style="stroke:#181818;stroke-width:0.5;" width="76" x="2014" y="851.916"/><text fill="#000000" font-family="sans-serif" font-size="14" font-style="italic" lengthAdjust="spacing" textLength="62" x="2021" y="874.0234">&#171;domain&#187;</text><text fill="#000000" font-family="sans-serif" font-size="14" lengthAdjust="spacing" textLength="39" x="2032.5" y="892.6445">Drone</text><polygon fill="#181818" points="1613,933.4492,1603,937.4492,1613,941.4492,1609,937.4492" style="stroke:#181818;stroke-width:1.0;"/><line style="stroke:#181818;stroke-width:1.0;stroke-dasharray:2.0,2.0;" x1="1607" x2="2051" y1="937.4492" y2="937.4492"/><text fill="#000000" font-family="sans-serif" font-size="13" lengthAdjust="spacing" textLength="57" x="1619" y="932.1865">newDrone</text><polygon fill="#181818" points="1233.5,964.7402,1223.5,968.7402,1233.5,972.7402,1229.5,968.7402" style="stroke:#181818;stroke-width:1.0;"/><line style="stroke:#181818;stroke-width:1.0;stroke-dasharray:2.0,2.0;" x1="1227.5" x2="1596" y1="968.7402" y2="968.7402"/><text fill="#000000" font-family="sans-serif" font-size="13" lengthAdjust="spacing" textLength="57" x="1239.5" y="963.4775">newDrone</text><polygon fill="#181818" points="2143.5,996.0313,2153.5,1000.0313,2143.5,1004.0313,2147.5,1000.0313" style="stroke:#181818;stroke-width:1.0;"/><line style="stroke:#181818;stroke-width:1.0;" x1="1222.5" x2="2149.5" y1="1000.0313" y2="1000.0313"/><text fill="#000000" font-family="sans-serif" font-size="13" lengthAdjust="spacing" textLength="91" x="1229.5" y="994.7686">save(newDrone)</text><polygon fill="#181818" points="2446.5,1027.3223,2456.5,1031.3223,2446.5,1035.3223,2450.5,1031.3223" style="stroke:#181818;stroke-width:1.0;"/><line style="stroke:#181818;stroke-width:1.0;" x1="2165.5" x2="2452.5" y1="1031.3223" y2="1031.3223"/><text fill="#000000" font-family="sans-serif" font-size="13" lengthAdjust="spacing" textLength="34" x="2172.5" y="1026.0596">save()</text><polygon fill="#181818" points="2176.5,1041.3223,2166.5,1045.3223,2176.5,1049.3223,2172.5,1045.3223" style="stroke:#181818;stroke-width:1.0;"/><line style="stroke:#181818;stroke-width:1.0;stroke-dasharray:2.0,2.0;" x1="2170.5" x2="2462.5" y1="1045.3223" y2="1045.3223"/><polygon fill="#181818" points="1233.5,1055.3223,1223.5,1059.3223,1233.5,1063.3223,1229.5,1059.3223" style="stroke:#181818;stroke-width:1.0;"/><line style="stroke:#181818;stroke-width:1.0;stroke-dasharray:2.0,2.0;" x1="1227.5" x2="2159.5" y1="1059.3223" y2="1059.3223"/><polygon fill="#181818" points="747.5,1069.3223,737.5,1073.3223,747.5,1077.3223,743.5,1073.3223" style="stroke:#181818;stroke-width:1.0;"/><line style="stroke:#181818;stroke-width:1.0;stroke-dasharray:2.0,2.0;" x1="741.5" x2="1216.5" y1="1073.3223" y2="1073.3223"/><polygon fill="#181818" points="407.5,1083.3223,397.5,1087.3223,407.5,1091.3223,403.5,1087.3223" style="stroke:#181818;stroke-width:1.0;"/><line style="stroke:#181818;stroke-width:1.0;stroke-dasharray:2.0,2.0;" x1="401.5" x2="730.5" y1="1087.3223" y2="1087.3223"/><polygon fill="#181818" points="56.5,1114.6133,46.5,1118.6133,56.5,1122.6133,52.5,1118.6133" style="stroke:#181818;stroke-width:1.0;"/><line style="stroke:#181818;stroke-width:1.0;stroke-dasharray:2.0,2.0;" x1="50.5" x2="390.5" y1="1118.6133" y2="1118.6133"/><text fill="#000000" font-family="sans-serif" font-size="13" lengthAdjust="spacing" textLength="145" x="62.5" y="1113.3506">Inform operation success</text><!--SRC=[hLRRRgCm47ttLupwb4RT7s2hIcchrKRQxKhjvWDSc2IM2AOsjEf-_OuDn8OQ0rNzai3SZiV7PwX4bICyuKkDHOfmB_X1yHDZFAsaWejx9Gk4lvWUBu1hs9YthEIg4gaeUL71nIRBhDDkQprsMxY-BXLgB2fU2LdSt8JzxsHHAPddg6oSUwHuNfQvICFXTNMKIlopnYTKhoB51bh0O5BHws4EM_ytB_W1JmJJpn8snI4rCJB3F9OpQ9-H-BOMUTOsoNz1ePaySH6ESkvnlqSifHPqgEykmhsZM7L-6DzsACd0CCp4CbxnPwwHyhJ_cjZsmH9GlF8AMyun-mFVReXX2UYZV5jTCg1rzjjj6IFsaOVZqdeD2QGAoKxknafccoc1HyDvNRLTCdXWHSSYU0uFzUaPrHLvljI2CDFP66JOLComLnDwoBQ5HkKdPHCG4yY5hbpFz71VpfLPWrdURJ4R2b3VxXmBNIiqPgAS8HbcEuBta-jDyVvdJvL6CaOeEuQtMsVSaHoi5s5Mx8xqy3XA9R0NHRR9ym60210Np88XVIGUUms4bfa9JDJzMF_CQPXOdQUbQNZFlwZv8FSjmPeJYERrs7e6icplKtoO3Sc74ZoJPRGONAD96C7o4MxwLwAztQCrlDp-VUqhpXEfLZZ5G59wYd9tb5AZxzysggz2xHhA2wa0RoVkIbjrwyIDEt4psdO5sRaf8pSwf4Jp5McP7iLqwGCL4b1ueBwYUi2t7-90HUPlzgeT4Ddj- -LtDg4YqqhcQ3igPEq4Nw-zsVJvD0aycpziMeUyeAXaz3upkcfse1Ju1Wkv56zl7EoqOdPedKfrk2tO9ijKXg4mi0NTYP7o383DhToTpcVeu4asVI3nLrnrzI_PZ04vPpOw6E7Ps1ME3yQlcOmUNbWw_nPkSFICPqsvgSQE7MjFnjdaB9rMfW_pR6mw1ihwWmpCL-vUgXF84fMLUD1rcg9syxO_qBodvcl-Fm00]--></g></svg>