<?xml version="1.0" encoding="us-ascii" standalone="no"?><svg xmlns="http://www.w3.org/2000/svg" xmlns:xlink="http://www.w3.org/1999/xlink" contentStyleType="text/css" height="459px" preserveAspectRatio="none" style="width:368px;height:459px;background:#FFFFFF;" version="1.1" viewBox="0 0 368 459" width="368px" zoomAndPan="magnify"><defs/><g><text fill="#000000" font-family="sans-serif" font-size="14" font-weight="bold" lengthAdjust="spacing" textLength="242" x="59.25" y="30.1074">System Sequence Diagram - US241</text><rect fill="#FFFFFF" height="234.0371" style="stroke:#181818;stroke-width:1.0;" width="10" x="40.5" y="133.2422"/><rect fill="#FFFFFF" height="31.291" style="stroke:#181818;stroke-width:1.0;" width="10" x="321.5" y="201.8242"/><rect fill="#FFFFFF" height="31.291" style="stroke:#181818;stroke-width:1.0;" width="10" x="321.5" y="264.4063"/><rect fill="#FFFFFF" height="31.291" style="stroke:#181818;stroke-width:1.0;" width="10" x="321.5" y="326.9883"/><line style="stroke:#181818;stroke-width:0.5;stroke-dasharray:5.0,5.0;" x1="45" x2="45" y1="123.2422" y2="376.2793"/><line style="stroke:#181818;stroke-width:0.5;stroke-dasharray:5.0,5.0;" x1="326.5" x2="326.5" y1="123.2422" y2="376.2793"/><text fill="#000000" font-family="sans-serif" font-size="14" lengthAdjust="spacing" textLength="75" x="5" y="119.7285">Drone Tech</text><ellipse cx="45.5" cy="53.1211" fill="#E3E3E3" rx="8" ry="8" style="stroke:#181818;stroke-width:0.5;"/><path d="M45.5,61.1211 L45.5,88.1211 M32.5,69.1211 L58.5,69.1211 M45.5,88.1211 L32.5,103.1211 M45.5,88.1211 L58.5,103.1211 " fill="none" style="stroke:#181818;stroke-width:0.5;"/><text fill="#000000" font-family="sans-serif" font-size="14" lengthAdjust="spacing" textLength="75" x="5" y="390.3867">Drone Tech</text><ellipse cx="45.5" cy="402.4004" fill="#E3E3E3" rx="8" ry="8" style="stroke:#181818;stroke-width:0.5;"/><path d="M45.5,410.4004 L45.5,437.4004 M32.5,418.4004 L58.5,418.4004 M45.5,437.4004 L32.5,452.4004 M45.5,437.4004 L58.5,452.4004 " fill="none" style="stroke:#181818;stroke-width:0.5;"/><rect fill="#E3E3E3" height="32.6211" rx="2.5" ry="2.5" style="stroke:#181818;stroke-width:0.5;" width="60" x="296.5" y="89.6211"/><text fill="#000000" font-family="sans-serif" font-size="14" lengthAdjust="spacing" textLength="46" x="303.5" y="111.7285">System</text><rect fill="#E3E3E3" height="32.6211" rx="2.5" ry="2.5" style="stroke:#181818;stroke-width:0.5;" width="60" x="296.5" y="375.2793"/><text fill="#000000" font-family="sans-serif" font-size="14" lengthAdjust="spacing" textLength="46" x="303.5" y="397.3867">System</text><rect fill="#FFFFFF" height="234.0371" style="stroke:#181818;stroke-width:1.0;" width="10" x="40.5" y="133.2422"/><rect fill="#FFFFFF" height="31.291" style="stroke:#181818;stroke-width:1.0;" width="10" x="321.5" y="201.8242"/><rect fill="#FFFFFF" height="31.291" style="stroke:#181818;stroke-width:1.0;" width="10" x="321.5" y="264.4063"/><rect fill="#FFFFFF" height="31.291" style="stroke:#181818;stroke-width:1.0;" width="10" x="321.5" y="326.9883"/><rect fill="#EEEEEE" height="3" style="stroke:#EEEEEE;stroke-width:1.0;" width="361.5" x="0" y="154.8877"/><line style="stroke:#000000;stroke-width:1.0;" x1="0" x2="361.5" y1="154.8877" y2="154.8877"/><line style="stroke:#000000;stroke-width:1.0;" x1="0" x2="361.5" y1="157.8877" y2="157.8877"/><rect fill="#EEEEEE" height="25.291" style="stroke:#000000;stroke-width:2.0;" width="191" x="85.25" y="143.2422"/><text fill="#000000" font-family="sans-serif" font-size="13" font-weight="bold" lengthAdjust="spacing" textLength="169" x="91.25" y="161.2705">Add drone to the inventory</text><polygon fill="#181818" points="309.5,197.8242,319.5,201.8242,309.5,205.8242,313.5,201.8242" style="stroke:#181818;stroke-width:1.0;"/><line style="stroke:#181818;stroke-width:1.0;" x1="50.5" x2="315.5" y1="201.8242" y2="201.8242"/><text fill="#000000" font-family="sans-serif" font-size="13" lengthAdjust="spacing" textLength="151" x="57.5" y="196.5615">Add drone to the inventory</text><polygon fill="#181818" points="61.5,229.1152,51.5,233.1152,61.5,237.1152,57.5,233.1152" style="stroke:#181818;stroke-width:1.0;"/><line style="stroke:#181818;stroke-width:1.0;" x1="55.5" x2="325.5" y1="233.1152" y2="233.1152"/><text fill="#000000" font-family="sans-serif" font-size="13" lengthAdjust="spacing" textLength="247" x="67.5" y="227.8525">Request Drone Information (Serial Number)</text><polygon fill="#181818" points="309.5,260.4063,319.5,264.4063,309.5,268.4063,313.5,264.4063" style="stroke:#181818;stroke-width:1.0;"/><line style="stroke:#181818;stroke-width:1.0;" x1="50.5" x2="315.5" y1="264.4063" y2="264.4063"/><text fill="#000000" font-family="sans-serif" font-size="13" lengthAdjust="spacing" textLength="147" x="57.5" y="259.1436">Provide Drone Information</text><polygon fill="#181818" points="61.5,291.6973,51.5,295.6973,61.5,299.6973,57.5,295.6973" style="stroke:#181818;stroke-width:1.0;"/><line style="stroke:#181818;stroke-width:1.0;" x1="55.5" x2="325.5" y1="295.6973" y2="295.6973"/><text fill="#000000" font-family="sans-serif" font-size="13" lengthAdjust="spacing" textLength="194" x="67.5" y="290.4346">Show List of Active Drone Models</text><polygon fill="#181818" points="309.5,322.9883,319.5,326.9883,309.5,330.9883,313.5,326.9883" style="stroke:#181818;stroke-width:1.0;"/><line style="stroke:#181818;stroke-width:1.0;" x1="50.5" x2="315.5" y1="326.9883" y2="326.9883"/><text fill="#000000" font-family="sans-serif" font-size="13" lengthAdjust="spacing" textLength="121" x="57.5" y="321.7256">Choose Drone Model</text><polygon fill="#181818" points="61.5,354.2793,51.5,358.2793,61.5,362.2793,57.5,358.2793" style="stroke:#181818;stroke-width:1.0;"/><line style="stroke:#181818;stroke-width:1.0;" x1="55.5" x2="325.5" y1="358.2793" y2="358.2793"/><text fill="#000000" font-family="sans-serif" font-size="13" lengthAdjust="spacing" textLength="234" x="67.5" y="353.0166">Confirms Drone is added to the inventory</text><!--SRC=[ZP3BJWCn34Nt_WghArXq0M9LQP2gTbC946BW0qpYcR4wYKlYjkhVCzCt5A7k4jdtt9FakSG59GeODAfhaWP6Iqk6V9mioCsfvj8sBMDYPnJhzdmXD-HrBR76YjhC0EHC4mwcIIFZExjcW9JHzzV-1btCnCc2ek6Wt6JZiDt8soE0YNLLkm6M_BNaw1YdGdLVDyIFylxX3g0eSEpzZekcQ0sZn1N7hds3M1IzYAp8-AmRZaSSFkuRSVGFw0GvwEr3NVp46k5RxvaDTw-UnKfJ81EDU5Do4chnPHa-ETs2vz_8lvrUawx4yoKHhdKg6rtZatHMMk6upnnep-gvpN2rowHHpJ_2LqjCD5QIGjw79IDvp_xoeozT0Bu1]--></g></svg>