<svg xmlns="http://www.w3.org/2000/svg" xmlns:xlink="http://www.w3.org/1999/xlink" contentStyleType="text/css" height="1063px" preserveAspectRatio="none" style="width:1496px;height:1063px;background:#FFFFFF;" version="1.1" viewBox="0 0 1496 1063" width="1496px" zoomAndPan="magnify"><title>Sequence Diagram</title><defs/><g><text fill="#000000" font-family="sans-serif" font-size="14" font-weight="bold" lengthAdjust="spacing" textLength="126.0479" x="686.1287" y="30.1074">Sequence Diagram</text><rect fill="#FFFFFF" height="829.5957" style="stroke:#181818;stroke-width:1.0;" width="10" x="39.5723" y="133.2422"/><rect fill="#FFFFFF" height="406.1035" style="stroke:#181818;stroke-width:1.0;" width="10" x="264.3384" y="156.5332"/><rect fill="#FFFFFF" height="31.291" style="stroke:#181818;stroke-width:1.0;" width="10" x="264.3384" y="593.9277"/><rect fill="#FFFFFF" height="306.3281" style="stroke:#181818;stroke-width:1.0;" width="10" x="264.3384" y="656.5098"/><rect fill="#FFFFFF" height="281.2793" style="stroke:#181818;stroke-width:1.0;" width="10" x="460.9736" y="250.0664"/><rect fill="#FFFFFF" height="243.7461" style="stroke:#181818;stroke-width:1.0;" width="10" x="460.9736" y="687.8008"/><rect fill="#FFFFFF" height="156.4551" style="stroke:#181818;stroke-width:1.0;" width="10" x="947.2397" y="343.5996"/><rect fill="#FFFFFF" height="167.1641" style="stroke:#181818;stroke-width:1.0;" width="10" x="947.2397" y="750.3828"/><rect fill="#FFFFFF" height="93.873" style="stroke:#181818;stroke-width:1.0;" width="10" x="1303.1245" y="374.8906"/><rect fill="#FFFFFF" height="59.291" style="stroke:#181818;stroke-width:1.0;" width="10" x="1303.1245" y="844.2559"/><rect fill="#FFFFFF" height="31.291" style="stroke:#181818;stroke-width:1.0;" width="10" x="1456.3398" y="406.1816"/><rect fill="#FFFFFF" height="14" style="stroke:#181818;stroke-width:1.0;" width="10" x="1456.3398" y="875.5469"/><line style="stroke:#181818;stroke-width:0.5;stroke-dasharray:5.0,5.0;" x1="44" x2="44" y1="123.2422" y2="980.8379"/><line style="stroke:#181818;stroke-width:0.5;stroke-dasharray:5.0,5.0;" x1="269.2075" x2="269.2075" y1="123.2422" y2="980.8379"/><line style="stroke:#181818;stroke-width:0.5;stroke-dasharray:5.0,5.0;" x1="465.498" x2="465.498" y1="205.6543" y2="980.8379"/><line style="stroke:#181818;stroke-width:0.5;stroke-dasharray:5.0,5.0;" x1="780.5752" x2="780.5752" y1="299.1875" y2="980.8379"/><line style="stroke:#181818;stroke-width:0.5;stroke-dasharray:5.0,5.0;" x1="951.9746" x2="951.9746" y1="123.2422" y2="980.8379"/><line style="stroke:#181818;stroke-width:0.5;stroke-dasharray:5.0,5.0;" x1="1200.1113" x2="1200.1113" y1="123.2422" y2="980.8379"/><line style="stroke:#181818;stroke-width:0.5;stroke-dasharray:5.0,5.0;" x1="1307.6006" x2="1307.6006" y1="123.2422" y2="980.8379"/><line style="stroke:#181818;stroke-width:0.5;stroke-dasharray:5.0,5.0;" x1="1460.3745" x2="1460.3745" y1="123.2422" y2="980.8379"/><text fill="#000000" font-family="sans-serif" font-size="14" lengthAdjust="spacing" textLength="73.1445" x="5" y="119.7285">Drone Tech</text><ellipse cx="44.5723" cy="53.1211" fill="#E2E2F0" rx="8" ry="8" style="stroke:#181818;stroke-width:0.5;"/><path d="M44.5723,61.1211 L44.5723,88.1211 M31.5723,69.1211 L57.5723,69.1211 M44.5723,88.1211 L31.5723,103.1211 M44.5723,88.1211 L57.5723,103.1211 " fill="none" style="stroke:#181818;stroke-width:0.5;"/><text fill="#000000" font-family="sans-serif" font-size="14" lengthAdjust="spacing" textLength="73.1445" x="5" y="994.9453">Drone Tech</text><ellipse cx="44.5723" cy="1006.959" fill="#E2E2F0" rx="8" ry="8" style="stroke:#181818;stroke-width:0.5;"/><path d="M44.5723,1014.959 L44.5723,1041.959 M31.5723,1022.959 L57.5723,1022.959 M44.5723,1041.959 L31.5723,1056.959 M44.5723,1041.959 L57.5723,1056.959 " fill="none" style="stroke:#181818;stroke-width:0.5;"/><rect fill="#E2E2F0" height="51.2422" rx="2.5" ry="2.5" style="stroke:#181818;stroke-width:0.5;" width="118.2617" x="210.2075" y="71"/><text fill="#000000" font-family="sans-serif" font-size="14" font-style="italic" lengthAdjust="spacing" textLength="92.627" x="223.0249" y="93.1074">&#171;presentation&#187;</text><text fill="#000000" font-family="sans-serif" font-size="14" lengthAdjust="spacing" textLength="104.2617" x="217.2075" y="111.7285">RemoveDroneUI</text><rect fill="#E2E2F0" height="51.2422" rx="2.5" ry="2.5" style="stroke:#181818;stroke-width:0.5;" width="118.2617" x="210.2075" y="979.8379"/><text fill="#000000" font-family="sans-serif" font-size="14" font-style="italic" lengthAdjust="spacing" textLength="92.627" x="223.0249" y="1001.9453">&#171;presentation&#187;</text><text fill="#000000" font-family="sans-serif" font-size="14" lengthAdjust="spacing" textLength="104.2617" x="217.2075" y="1020.5664">RemoveDroneUI</text><rect fill="#E2E2F0" height="51.2422" rx="2.5" ry="2.5" style="stroke:#181818;stroke-width:0.5;" width="164.9512" x="383.498" y="979.8379"/><text fill="#000000" font-family="sans-serif" font-size="14" font-style="italic" lengthAdjust="spacing" textLength="82.5098" x="424.7188" y="1001.9453">&#171;application&#187;</text><text fill="#000000" font-family="sans-serif" font-size="14" lengthAdjust="spacing" textLength="150.9512" x="390.498" y="1020.5664">RemoveDroneController</text><rect fill="#E2E2F0" height="51.2422" rx="2.5" ry="2.5" style="stroke:#181818;stroke-width:0.5;" width="142.3994" x="709.5752" y="979.8379"/><text fill="#000000" font-family="sans-serif" font-size="14" font-style="italic" lengthAdjust="spacing" textLength="42.8203" x="759.3647" y="1001.9453">&#171;auth&#187;</text><text fill="#000000" font-family="sans-serif" font-size="14" lengthAdjust="spacing" textLength="128.3994" x="716.5752" y="1020.5664">AuthorizationService</text><rect fill="#E2E2F0" height="51.2422" rx="2.5" ry="2.5" style="stroke:#181818;stroke-width:0.5;" width="180.5303" x="861.9746" y="71"/><text fill="#000000" font-family="sans-serif" font-size="14" font-style="italic" lengthAdjust="spacing" textLength="82.5098" x="910.9849" y="93.1074">&#171;application&#187;</text><text fill="#000000" font-family="sans-serif" font-size="14" lengthAdjust="spacing" textLength="166.5303" x="868.9746" y="111.7285">DroneManagementService</text><rect fill="#E2E2F0" height="51.2422" rx="2.5" ry="2.5" style="stroke:#181818;stroke-width:0.5;" width="180.5303" x="861.9746" y="979.8379"/><text fill="#000000" font-family="sans-serif" font-size="14" font-style="italic" lengthAdjust="spacing" textLength="82.5098" x="910.9849" y="1001.9453">&#171;application&#187;</text><text fill="#000000" font-family="sans-serif" font-size="14" lengthAdjust="spacing" textLength="166.5303" x="868.9746" y="1020.5664">DroneManagementService</text><rect fill="#E2E2F0" height="51.2422" rx="2.5" ry="2.5" style="stroke:#181818;stroke-width:0.5;" width="75.4893" x="1163.1113" y="71"/><text fill="#000000" font-family="sans-serif" font-size="14" font-style="italic" lengthAdjust="spacing" textLength="61.4893" x="1170.1113" y="93.1074">&#171;domain&#187;</text><text fill="#000000" font-family="sans-serif" font-size="14" lengthAdjust="spacing" textLength="38.1309" x="1181.7905" y="111.7285">Drone</text><rect fill="#E2E2F0" height="51.2422" rx="2.5" ry="2.5" style="stroke:#181818;stroke-width:0.5;" width="75.4893" x="1163.1113" y="979.8379"/><text fill="#000000" font-family="sans-serif" font-size="14" font-style="italic" lengthAdjust="spacing" textLength="61.4893" x="1170.1113" y="1001.9453">&#171;domain&#187;</text><text fill="#000000" font-family="sans-serif" font-size="14" lengthAdjust="spacing" textLength="38.1309" x="1181.7905" y="1020.5664">Drone</text><rect fill="#E2E2F0" height="51.2422" rx="2.5" ry="2.5" style="stroke:#181818;stroke-width:0.5;" width="119.0479" x="1248.6006" y="71"/><text fill="#000000" font-family="sans-serif" font-size="14" font-style="italic" lengthAdjust="spacing" textLength="77.041" x="1269.604" y="93.1074">&#171;repository&#187;</text><text fill="#000000" font-family="sans-serif" font-size="14" lengthAdjust="spacing" textLength="105.0479" x="1255.6006" y="111.7285">DroneRepository</text><rect fill="#E2E2F0" height="51.2422" rx="2.5" ry="2.5" style="stroke:#181818;stroke-width:0.5;" width="119.0479" x="1248.6006" y="979.8379"/><text fill="#000000" font-family="sans-serif" font-size="14" font-style="italic" lengthAdjust="spacing" textLength="77.041" x="1269.604" y="1001.9453">&#171;repository&#187;</text><text fill="#000000" font-family="sans-serif" font-size="14" lengthAdjust="spacing" textLength="105.0479" x="1255.6006" y="1020.5664">DroneRepository</text><text fill="#000000" font-family="sans-serif" font-size="14" lengthAdjust="spacing" textLength="59.9307" x="1428.3745" y="119.7285">Database</text><path d="M1443.3398,68.6211 C1443.3398,58.6211 1461.3398,58.6211 1461.3398,58.6211 C1461.3398,58.6211 1479.3398,58.6211 1479.3398,68.6211 L1479.3398,94.6211 C1479.3398,104.6211 1461.3398,104.6211 1461.3398,104.6211 C1461.3398,104.6211 1443.3398,104.6211 1443.3398,94.6211 L1443.3398,68.6211 " fill="#E2E2F0" style="stroke:#181818;stroke-width:1.5;"/><path d="M1443.3398,68.6211 C1443.3398,78.6211 1461.3398,78.6211 1461.3398,78.6211 C1461.3398,78.6211 1479.3398,78.6211 1479.3398,68.6211 " fill="none" style="stroke:#181818;stroke-width:1.5;"/><text fill="#000000" font-family="sans-serif" font-size="14" lengthAdjust="spacing" textLength="59.9307" x="1428.3745" y="994.9453">Database</text><path d="M1443.3398,1008.459 C1443.3398,998.459 1461.3398,998.459 1461.3398,998.459 C1461.3398,998.459 1479.3398,998.459 1479.3398,1008.459 L1479.3398,1034.459 C1479.3398,1044.459 1461.3398,1044.459 1461.3398,1044.459 C1461.3398,1044.459 1443.3398,1044.459 1443.3398,1034.459 L1443.3398,1008.459 " fill="#E2E2F0" style="stroke:#181818;stroke-width:1.5;"/><path d="M1443.3398,1008.459 C1443.3398,1018.459 1461.3398,1018.459 1461.3398,1018.459 C1461.3398,1018.459 1479.3398,1018.459 1479.3398,1008.459 " fill="none" style="stroke:#181818;stroke-width:1.5;"/><rect fill="#FFFFFF" height="829.5957" style="stroke:#181818;stroke-width:1.0;" width="10" x="39.5723" y="133.2422"/><rect fill="#FFFFFF" height="406.1035" style="stroke:#181818;stroke-width:1.0;" width="10" x="264.3384" y="156.5332"/><rect fill="#FFFFFF" height="31.291" style="stroke:#181818;stroke-width:1.0;" width="10" x="264.3384" y="593.9277"/><rect fill="#FFFFFF" height="306.3281" style="stroke:#181818;stroke-width:1.0;" width="10" x="264.3384" y="656.5098"/><rect fill="#FFFFFF" height="281.2793" style="stroke:#181818;stroke-width:1.0;" width="10" x="460.9736" y="250.0664"/><rect fill="#FFFFFF" height="243.7461" style="stroke:#181818;stroke-width:1.0;" width="10" x="460.9736" y="687.8008"/><rect fill="#FFFFFF" height="156.4551" style="stroke:#181818;stroke-width:1.0;" width="10" x="947.2397" y="343.5996"/><rect fill="#FFFFFF" height="167.1641" style="stroke:#181818;stroke-width:1.0;" width="10" x="947.2397" y="750.3828"/><rect fill="#FFFFFF" height="93.873" style="stroke:#181818;stroke-width:1.0;" width="10" x="1303.1245" y="374.8906"/><rect fill="#FFFFFF" height="59.291" style="stroke:#181818;stroke-width:1.0;" width="10" x="1303.1245" y="844.2559"/><rect fill="#FFFFFF" height="31.291" style="stroke:#181818;stroke-width:1.0;" width="10" x="1456.3398" y="406.1816"/><rect fill="#FFFFFF" height="14" style="stroke:#181818;stroke-width:1.0;" width="10" x="1456.3398" y="875.5469"/><polygon fill="#181818" points="252.3384,152.5332,262.3384,156.5332,252.3384,160.5332,256.3384,156.5332" style="stroke:#181818;stroke-width:1.0;"/><line style="stroke:#181818;stroke-width:1.0;" x1="49.5723" x2="258.3384" y1="156.5332" y2="156.5332"/><text fill="#000000" font-family="sans-serif" font-size="13" lengthAdjust="spacing" textLength="39.0063" x="56.5723" y="151.2705">show()</text><polygon fill="#181818" points="371.498,183.8242,381.498,187.8242,371.498,191.8242,375.498,187.8242" style="stroke:#181818;stroke-width:1.0;"/><line style="stroke:#181818;stroke-width:1.0;" x1="274.3384" x2="377.498" y1="187.8242" y2="187.8242"/><text fill="#000000" font-family="sans-serif" font-size="13" lengthAdjust="spacing" textLength="44.7891" x="281.3384" y="182.5615">create()</text><rect fill="#E2E2F0" height="51.2422" rx="2.5" ry="2.5" style="stroke:#181818;stroke-width:0.5;" width="164.9512" x="383.498" y="164.5332"/><text fill="#000000" font-family="sans-serif" font-size="14" font-style="italic" lengthAdjust="spacing" textLength="82.5098" x="424.7188" y="186.6406">&#171;application&#187;</text><text fill="#000000" font-family="sans-serif" font-size="14" lengthAdjust="spacing" textLength="150.9512" x="390.498" y="205.2617">RemoveDroneController</text><polygon fill="#181818" points="448.9736,246.0664,458.9736,250.0664,448.9736,254.0664,452.9736,250.0664" style="stroke:#181818;stroke-width:1.0;"/><line style="stroke:#181818;stroke-width:1.0;" x1="274.3384" x2="454.9736" y1="250.0664" y2="250.0664"/><text fill="#000000" font-family="sans-serif" font-size="13" lengthAdjust="spacing" textLength="84.5254" x="281.3384" y="244.8037">activeDrones()</text><polygon fill="#181818" points="697.5752,277.3574,707.5752,281.3574,697.5752,285.3574,701.5752,281.3574" style="stroke:#181818;stroke-width:1.0;"/><line style="stroke:#181818;stroke-width:1.0;" x1="470.9736" x2="703.5752" y1="281.3574" y2="281.3574"/><text fill="#000000" font-family="sans-serif" font-size="13" lengthAdjust="spacing" textLength="214.6016" x="477.9736" y="276.0947">ensureAuthenticatedUserHasAnyOf()</text><rect fill="#E2E2F0" height="51.2422" rx="2.5" ry="2.5" style="stroke:#181818;stroke-width:0.5;" width="142.3994" x="709.5752" y="258.0664"/><text fill="#000000" font-family="sans-serif" font-size="14" font-style="italic" lengthAdjust="spacing" textLength="42.8203" x="759.3647" y="280.1738">&#171;auth&#187;</text><text fill="#000000" font-family="sans-serif" font-size="14" lengthAdjust="spacing" textLength="128.3994" x="716.5752" y="298.7949">AuthorizationService</text><polygon fill="#181818" points="935.2397,339.5996,945.2397,343.5996,935.2397,347.5996,939.2397,343.5996" style="stroke:#181818;stroke-width:1.0;"/><line style="stroke:#181818;stroke-width:1.0;" x1="470.9736" x2="941.2397" y1="343.5996" y2="343.5996"/><text fill="#000000" font-family="sans-serif" font-size="13" lengthAdjust="spacing" textLength="84.5254" x="477.9736" y="338.3369">activeDrones()</text><polygon fill="#181818" points="1291.1245,370.8906,1301.1245,374.8906,1291.1245,378.8906,1295.1245,374.8906" style="stroke:#181818;stroke-width:1.0;"/><line style="stroke:#181818;stroke-width:1.0;" x1="957.2397" x2="1297.1245" y1="374.8906" y2="374.8906"/><text fill="#000000" font-family="sans-serif" font-size="13" lengthAdjust="spacing" textLength="102.5908" x="964.2397" y="369.6279">findByActive(true)</text><polygon fill="#181818" points="1444.3398,402.1816,1454.3398,406.1816,1444.3398,410.1816,1448.3398,406.1816" style="stroke:#181818;stroke-width:1.0;"/><line style="stroke:#181818;stroke-width:1.0;" x1="1313.1245" x2="1450.3398" y1="406.1816" y2="406.1816"/><text fill="#000000" font-family="sans-serif" font-size="13" lengthAdjust="spacing" textLength="102.5908" x="1320.1245" y="400.9189">findByActive(true)</text><polygon fill="#181818" points="1324.1245,433.4727,1314.1245,437.4727,1324.1245,441.4727,1320.1245,437.4727" style="stroke:#181818;stroke-width:1.0;"/><line style="stroke:#181818;stroke-width:1.0;stroke-dasharray:2.0,2.0;" x1="1318.1245" x2="1460.3398" y1="437.4727" y2="437.4727"/><text fill="#000000" font-family="sans-serif" font-size="13" lengthAdjust="spacing" textLength="119.2153" x="1330.1245" y="432.21">List of Active Drones</text><polygon fill="#181818" points="968.2397,464.7637,958.2397,468.7637,968.2397,472.7637,964.2397,468.7637" style="stroke:#181818;stroke-width:1.0;"/><line style="stroke:#181818;stroke-width:1.0;stroke-dasharray:2.0,2.0;" x1="962.2397" x2="1307.1245" y1="468.7637" y2="468.7637"/><text fill="#000000" font-family="sans-serif" font-size="13" lengthAdjust="spacing" textLength="119.2153" x="974.2397" y="463.501">List of Active Drones</text><polygon fill="#181818" points="481.9736,496.0547,471.9736,500.0547,481.9736,504.0547,477.9736,500.0547" style="stroke:#181818;stroke-width:1.0;"/><line style="stroke:#181818;stroke-width:1.0;stroke-dasharray:2.0,2.0;" x1="475.9736" x2="951.2397" y1="500.0547" y2="500.0547"/><text fill="#000000" font-family="sans-serif" font-size="13" lengthAdjust="spacing" textLength="119.2153" x="487.9736" y="494.792">List of Active Drones</text><polygon fill="#181818" points="285.3384,527.3457,275.3384,531.3457,285.3384,535.3457,281.3384,531.3457" style="stroke:#181818;stroke-width:1.0;"/><line style="stroke:#181818;stroke-width:1.0;stroke-dasharray:2.0,2.0;" x1="279.3384" x2="464.9736" y1="531.3457" y2="531.3457"/><text fill="#000000" font-family="sans-serif" font-size="13" lengthAdjust="spacing" textLength="119.2153" x="291.3384" y="526.083">List of Active Drones</text><polygon fill="#181818" points="60.5723,558.6367,50.5723,562.6367,60.5723,566.6367,56.5723,562.6367" style="stroke:#181818;stroke-width:1.0;"/><line style="stroke:#181818;stroke-width:1.0;stroke-dasharray:2.0,2.0;" x1="54.5723" x2="268.3384" y1="562.6367" y2="562.6367"/><text fill="#000000" font-family="sans-serif" font-size="13" lengthAdjust="spacing" textLength="155.3462" x="66.5723" y="557.374">Show List of Active Drones</text><polygon fill="#181818" points="252.3384,589.9277,262.3384,593.9277,252.3384,597.9277,256.3384,593.9277" style="stroke:#181818;stroke-width:1.0;"/><line style="stroke:#181818;stroke-width:1.0;" x1="49.5723" x2="258.3384" y1="593.9277" y2="593.9277"/><text fill="#000000" font-family="sans-serif" font-size="13" lengthAdjust="spacing" textLength="150.2998" x="56.5723" y="588.665">Choose Drone to Remove</text><polygon fill="#181818" points="60.5723,621.2188,50.5723,625.2188,60.5723,629.2188,56.5723,625.2188" style="stroke:#181818;stroke-width:1.0;"/><line style="stroke:#181818;stroke-width:1.0;" x1="54.5723" x2="268.3384" y1="625.2188" y2="625.2188"/><text fill="#000000" font-family="sans-serif" font-size="13" lengthAdjust="spacing" textLength="190.7661" x="66.5723" y="619.9561">Request Drone Removal Reason</text><polygon fill="#181818" points="252.3384,652.5098,262.3384,656.5098,252.3384,660.5098,256.3384,656.5098" style="stroke:#181818;stroke-width:1.0;"/><line style="stroke:#181818;stroke-width:1.0;" x1="49.5723" x2="258.3384" y1="656.5098" y2="656.5098"/><text fill="#000000" font-family="sans-serif" font-size="13" lengthAdjust="spacing" textLength="174.8589" x="56.5723" y="651.2471">Insert Drone Removal Reason</text><polygon fill="#181818" points="448.9736,683.8008,458.9736,687.8008,448.9736,691.8008,452.9736,687.8008" style="stroke:#181818;stroke-width:1.0;"/><line style="stroke:#181818;stroke-width:1.0;" x1="274.3384" x2="454.9736" y1="687.8008" y2="687.8008"/><text fill="#000000" font-family="sans-serif" font-size="13" lengthAdjust="spacing" textLength="167.6353" x="281.3384" y="682.5381">removeDrone(drone, reason)</text><polygon fill="#181818" points="768.7749,715.0918,778.7749,719.0918,768.7749,723.0918,772.7749,719.0918" style="stroke:#181818;stroke-width:1.0;"/><line style="stroke:#181818;stroke-width:1.0;" x1="470.9736" x2="774.7749" y1="719.0918" y2="719.0918"/><text fill="#000000" font-family="sans-serif" font-size="13" lengthAdjust="spacing" textLength="214.6016" x="477.9736" y="713.8291">ensureAuthenticatedUserHasAnyOf()</text><polygon fill="#181818" points="935.2397,746.3828,945.2397,750.3828,935.2397,754.3828,939.2397,750.3828" style="stroke:#181818;stroke-width:1.0;"/><line style="stroke:#181818;stroke-width:1.0;" x1="470.9736" x2="941.2397" y1="750.3828" y2="750.3828"/><text fill="#000000" font-family="sans-serif" font-size="13" lengthAdjust="spacing" textLength="167.6353" x="477.9736" y="745.1201">removeDrone(drone, reason)</text><polygon fill="#181818" points="1188.856,777.6738,1198.856,781.6738,1188.856,785.6738,1192.856,781.6738" style="stroke:#181818;stroke-width:1.0;"/><line style="stroke:#181818;stroke-width:1.0;" x1="957.2397" x2="1194.856" y1="781.6738" y2="781.6738"/><text fill="#000000" font-family="sans-serif" font-size="13" lengthAdjust="spacing" textLength="219.6162" x="964.2397" y="776.4111">remove(CurrentTimeCalendars.now())</text><polygon fill="#181818" points="1188.856,808.9648,1198.856,812.9648,1188.856,816.9648,1192.856,812.9648" style="stroke:#181818;stroke-width:1.0;"/><line style="stroke:#181818;stroke-width:1.0;" x1="957.2397" x2="1194.856" y1="812.9648" y2="812.9648"/><text fill="#000000" font-family="sans-serif" font-size="13" lengthAdjust="spacing" textLength="125.0044" x="964.2397" y="807.7021">insertReason(reason)</text><polygon fill="#181818" points="1291.1245,840.2559,1301.1245,844.2559,1291.1245,848.2559,1295.1245,844.2559" style="stroke:#181818;stroke-width:1.0;"/><line style="stroke:#181818;stroke-width:1.0;" x1="957.2397" x2="1297.1245" y1="844.2559" y2="844.2559"/><text fill="#000000" font-family="sans-serif" font-size="13" lengthAdjust="spacing" textLength="69.3672" x="964.2397" y="838.9932">save(drone)</text><polygon fill="#181818" points="1444.3398,871.5469,1454.3398,875.5469,1444.3398,879.5469,1448.3398,875.5469" style="stroke:#181818;stroke-width:1.0;"/><line style="stroke:#181818;stroke-width:1.0;" x1="1313.1245" x2="1450.3398" y1="875.5469" y2="875.5469"/><text fill="#000000" font-family="sans-serif" font-size="13" lengthAdjust="spacing" textLength="36.1182" x="1320.1245" y="870.2842">save()</text><polygon fill="#181818" points="1324.1245,885.5469,1314.1245,889.5469,1324.1245,893.5469,1320.1245,889.5469" style="stroke:#181818;stroke-width:1.0;"/><line style="stroke:#181818;stroke-width:1.0;stroke-dasharray:2.0,2.0;" x1="1318.1245" x2="1460.3398" y1="889.5469" y2="889.5469"/><polygon fill="#181818" points="968.2397,899.5469,958.2397,903.5469,968.2397,907.5469,964.2397,903.5469" style="stroke:#181818;stroke-width:1.0;"/><line style="stroke:#181818;stroke-width:1.0;stroke-dasharray:2.0,2.0;" x1="962.2397" x2="1307.1245" y1="903.5469" y2="903.5469"/><polygon fill="#181818" points="481.9736,913.5469,471.9736,917.5469,481.9736,921.5469,477.9736,917.5469" style="stroke:#181818;stroke-width:1.0;"/><line style="stroke:#181818;stroke-width:1.0;stroke-dasharray:2.0,2.0;" x1="475.9736" x2="951.2397" y1="917.5469" y2="917.5469"/><polygon fill="#181818" points="285.3384,927.5469,275.3384,931.5469,285.3384,935.5469,281.3384,931.5469" style="stroke:#181818;stroke-width:1.0;"/><line style="stroke:#181818;stroke-width:1.0;stroke-dasharray:2.0,2.0;" x1="279.3384" x2="464.9736" y1="931.5469" y2="931.5469"/><polygon fill="#181818" points="55.5723,958.8379,45.5723,962.8379,55.5723,966.8379,51.5723,962.8379" style="stroke:#181818;stroke-width:1.0;"/><line style="stroke:#181818;stroke-width:1.0;stroke-dasharray:2.0,2.0;" x1="49.5723" x2="268.3384" y1="962.8379" y2="962.8379"/><text fill="#000000" font-family="sans-serif" font-size="13" lengthAdjust="spacing" textLength="145.2344" x="61.5723" y="957.5752">Inform operation success</text><!--SRC=[hLR1Zjem4BtxAqPxWbMt7n2ja2XxA5AhIh1yW9iCYwN4Jcr3HR- -OoSXXZWXGUi3OC-yD-CP-nahR8wmnJz7b2d2c-0VcXUCyTGg3KzlMac4TqmFJy0DBDqgAxcs8XKbbnQUDbYe4tg_tTexxTRm-bfgD2WjjqB9nQ8NibBIQfNdg3sqdH85ByjSf566vT4Ub1R_l76B-YHIh1AC61mLBTzo-FW_kUGVM52c8KlSD9oInxHeSivKmKNSRuEbCe9gUMuHxHfXzML2-8nR_fiR973zgqBL4zyiSU8Mw_um_mKl2sf50kQW_ixc36XS_7PhngXDvD5M_FaP4aWraftSE-QaGbTjCxU4hH_p1ZU2PX9Jh3C-94fprEZCL6fNNCns1lLtRfRo_6llSeapnhiKpRCPbtpZM7Rbx4RFIMYYjprBO2zazksyzC5dLXzntc7hfj0IiAZt9OVWTBZWTUiJ61ks6_voUk3EQ3pX9RRj7y9OK7keCgZiPf0pmsuIe_S-qFVncOGPt7PXz16ukHttezz67JX-uK6lht4_Vy0RNaDtWTszSrgGm9PKe8SZm3jTk1AFrK4fKtk2LL19TrsbArYJUgKRTTIDUrSePeNtO9xJDpTAiaXTYAXPlKfZBKaHxj0CP1EKCm7TlZwpp7r-eIN7r2CLCMaRBt7J16wAq8tVoaFADqBzcWHcgwFMP7yN1QvuZZBZsdoLxjcPFyOhVB-h1i-QBJr25KW7lOJyLDUfXsowDjyJw2Rgi2X_jYeFWsFwEt63lOToijnEwUdLJMRteemuunsPxTFhIDXGNi4fr5xf0bI9sbz_CCSqHMDwL2wOLV_P_WC0]--></g></svg>