<svg xmlns="http://www.w3.org/2000/svg" xmlns:xlink="http://www.w3.org/1999/xlink" contentStyleType="text/css" height="1313px" preserveAspectRatio="none" style="width:2342px;height:1313px;background:#FFFFFF;" version="1.1" viewBox="0 0 2342 1313" width="2342px" zoomAndPan="magnify"><title>System Sequence - US224</title><defs/><g><text fill="#000000" font-family="sans-serif" font-size="14" font-weight="bold" lengthAdjust="spacing" textLength="175.082" x="1084.4937" y="30.1074">System Sequence - US224</text><rect fill="#FFFFFF" height="1088.584" style="stroke:#181818;stroke-width:1.0;" width="10" x="59.0171" y="133.2422"/><rect fill="#FFFFFF" height="93.5332" style="stroke:#181818;stroke-width:1.0;" width="10" x="322.855" y="156.5332"/><rect fill="#FFFFFF" height="406.1035" style="stroke:#181818;stroke-width:1.0;" width="10" x="489.7329" y="250.0664"/><rect fill="#FFFFFF" height="281.6191" style="stroke:#181818;stroke-width:1.0;" width="10" x="489.7329" y="687.4609"/><rect fill="#FFFFFF" height="212.4551" style="stroke:#181818;stroke-width:1.0;" width="10" x="489.7329" y="1000.3711"/><rect fill="#FFFFFF" height="281.2793" style="stroke:#181818;stroke-width:1.0;" width="10" x="812.8198" y="343.5996"/><rect fill="#FFFFFF" height="219.0371" style="stroke:#181818;stroke-width:1.0;" width="10" x="812.8198" y="718.752"/><rect fill="#FFFFFF" height="149.873" style="stroke:#181818;stroke-width:1.0;" width="10" x="812.8198" y="1031.6621"/><rect fill="#FFFFFF" height="156.4551" style="stroke:#181818;stroke-width:1.0;" width="10" x="1490.959" y="437.1328"/><rect fill="#FFFFFF" height="156.4551" style="stroke:#181818;stroke-width:1.0;" width="10" x="1720.7822" y="750.043"/><rect fill="#FFFFFF" height="104.582" style="stroke:#181818;stroke-width:1.0;" width="10" x="1720.7822" y="1062.9531"/><rect fill="#FFFFFF" height="93.873" style="stroke:#181818;stroke-width:1.0;" width="10" x="1919.8643" y="468.4238"/><rect fill="#FFFFFF" height="93.873" style="stroke:#181818;stroke-width:1.0;" width="10" x="2088.2051" y="781.334"/><rect fill="#FFFFFF" height="59.291" style="stroke:#181818;stroke-width:1.0;" width="10" x="2088.2051" y="1094.2441"/><rect fill="#FFFFFF" height="31.291" style="stroke:#181818;stroke-width:1.0;" width="10" x="2302.104" y="499.7148"/><rect fill="#FFFFFF" height="31.291" style="stroke:#181818;stroke-width:1.0;" width="10" x="2302.104" y="812.625"/><rect fill="#FFFFFF" height="14" style="stroke:#181818;stroke-width:1.0;" width="10" x="2302.104" y="1125.5352"/><line style="stroke:#181818;stroke-width:0.5;stroke-dasharray:5.0,5.0;" x1="64" x2="64" y1="123.2422" y2="1230.8262"/><line style="stroke:#181818;stroke-width:0.5;stroke-dasharray:5.0,5.0;" x1="327.7139" x2="327.7139" y1="123.2422" y2="1230.8262"/><line style="stroke:#181818;stroke-width:0.5;stroke-dasharray:5.0,5.0;" x1="494.0469" x2="494.0469" y1="205.6543" y2="1230.8262"/><line style="stroke:#181818;stroke-width:0.5;stroke-dasharray:5.0,5.0;" x1="817.7891" x2="817.7891" y1="299.1875" y2="1230.8262"/><line style="stroke:#181818;stroke-width:0.5;stroke-dasharray:5.0,5.0;" x1="1313.0186" x2="1313.0186" y1="392.7207" y2="1230.8262"/><line style="stroke:#181818;stroke-width:0.5;stroke-dasharray:5.0,5.0;" x1="1495.418" x2="1495.418" y1="123.2422" y2="1230.8262"/><line style="stroke:#181818;stroke-width:0.5;stroke-dasharray:5.0,5.0;" x1="1725.5" x2="1725.5" y1="123.2422" y2="1230.8262"/><line style="stroke:#181818;stroke-width:0.5;stroke-dasharray:5.0,5.0;" x1="1924.0645" x2="1924.0645" y1="123.2422" y2="1230.8262"/><line style="stroke:#181818;stroke-width:0.5;stroke-dasharray:5.0,5.0;" x1="2092.6641" x2="2092.6641" y1="123.2422" y2="1230.8262"/><line style="stroke:#181818;stroke-width:0.5;stroke-dasharray:5.0,5.0;" x1="2306.1387" x2="2306.1387" y1="123.2422" y2="1230.8262"/><text fill="#000000" font-family="sans-serif" font-size="14" lengthAdjust="spacing" textLength="112.0342" x="5" y="119.7285">CRM Collaborator</text><ellipse cx="64.0171" cy="53.1211" fill="#E3E3E3" rx="8" ry="8" style="stroke:#181818;stroke-width:0.5;"/><path d="M64.0171,61.1211 L64.0171,88.1211 M51.0171,69.1211 L77.0171,69.1211 M64.0171,88.1211 L51.0171,103.1211 M64.0171,88.1211 L77.0171,103.1211 " fill="none" style="stroke:#181818;stroke-width:0.5;"/><text fill="#000000" font-family="sans-serif" font-size="14" lengthAdjust="spacing" textLength="112.0342" x="5" y="1244.9336">CRM Collaborator</text><ellipse cx="64.0171" cy="1256.9473" fill="#E3E3E3" rx="8" ry="8" style="stroke:#181818;stroke-width:0.5;"/><path d="M64.0171,1264.9473 L64.0171,1291.9473 M51.0171,1272.9473 L77.0171,1272.9473 M64.0171,1291.9473 L51.0171,1306.9473 M64.0171,1291.9473 L77.0171,1306.9473 " fill="none" style="stroke:#181818;stroke-width:0.5;"/><rect fill="#E3E3E3" height="51.2422" rx="2.5" ry="2.5" style="stroke:#181818;stroke-width:0.5;" width="160.2822" x="247.7139" y="71"/><text fill="#000000" font-family="sans-serif" font-size="14" font-style="italic" lengthAdjust="spacing" textLength="92.627" x="281.5415" y="93.1074">&#171;presentation&#187;</text><text fill="#000000" font-family="sans-serif" font-size="14" lengthAdjust="spacing" textLength="146.2822" x="254.7139" y="111.7285">DisableCustomerAction</text><rect fill="#E3E3E3" height="51.2422" rx="2.5" ry="2.5" style="stroke:#181818;stroke-width:0.5;" width="160.2822" x="247.7139" y="1229.8262"/><text fill="#000000" font-family="sans-serif" font-size="14" font-style="italic" lengthAdjust="spacing" textLength="92.627" x="281.5415" y="1251.9336">&#171;presentation&#187;</text><text fill="#000000" font-family="sans-serif" font-size="14" lengthAdjust="spacing" textLength="146.2822" x="254.7139" y="1270.5547">DisableCustomerAction</text><rect fill="#E3E3E3" height="51.2422" rx="2.5" ry="2.5" style="stroke:#181818;stroke-width:0.5;" width="135.3721" x="427.0469" y="1229.8262"/><text fill="#000000" font-family="sans-serif" font-size="14" font-style="italic" lengthAdjust="spacing" textLength="92.627" x="448.4194" y="1251.9336">&#171;presentation&#187;</text><text fill="#000000" font-family="sans-serif" font-size="14" lengthAdjust="spacing" textLength="121.3721" x="434.0469" y="1270.5547">DisableCustomerUI</text><rect fill="#E3E3E3" height="51.2422" rx="2.5" ry="2.5" style="stroke:#181818;stroke-width:0.5;" width="182.0615" x="726.7891" y="1229.8262"/><text fill="#000000" font-family="sans-serif" font-size="14" font-style="italic" lengthAdjust="spacing" textLength="82.5098" x="776.5649" y="1251.9336">&#171;application&#187;</text><text fill="#000000" font-family="sans-serif" font-size="14" lengthAdjust="spacing" textLength="168.0615" x="733.7891" y="1270.5547">DisableCustomerController</text><rect fill="#E3E3E3" height="51.2422" rx="2.5" ry="2.5" style="stroke:#181818;stroke-width:0.5;" width="142.3994" x="1242.0186" y="1229.8262"/><text fill="#000000" font-family="sans-serif" font-size="14" font-style="italic" lengthAdjust="spacing" textLength="42.8203" x="1291.8081" y="1251.9336">&#171;auth&#187;</text><text fill="#000000" font-family="sans-serif" font-size="14" lengthAdjust="spacing" textLength="128.3994" x="1249.0186" y="1270.5547">AuthorizationService</text><rect fill="#E3E3E3" height="51.2422" rx="2.5" ry="2.5" style="stroke:#181818;stroke-width:0.5;" width="203.082" x="1394.418" y="71"/><text fill="#000000" font-family="sans-serif" font-size="14" font-style="italic" lengthAdjust="spacing" textLength="82.5098" x="1454.7041" y="93.1074">&#171;application&#187;</text><text fill="#000000" font-family="sans-serif" font-size="14" lengthAdjust="spacing" textLength="189.082" x="1401.418" y="111.7285">CustomerManagementService</text><rect fill="#E3E3E3" height="51.2422" rx="2.5" ry="2.5" style="stroke:#181818;stroke-width:0.5;" width="203.082" x="1394.418" y="1229.8262"/><text fill="#000000" font-family="sans-serif" font-size="14" font-style="italic" lengthAdjust="spacing" textLength="82.5098" x="1454.7041" y="1251.9336">&#171;application&#187;</text><text fill="#000000" font-family="sans-serif" font-size="14" lengthAdjust="spacing" textLength="189.082" x="1401.418" y="1270.5547">CustomerManagementService</text><rect fill="#E3E3E3" height="51.2422" rx="2.5" ry="2.5" style="stroke:#181818;stroke-width:0.5;" width="236.5645" x="1607.5" y="71"/><text fill="#000000" font-family="sans-serif" font-size="14" font-style="italic" lengthAdjust="spacing" textLength="82.5098" x="1684.5273" y="93.1074">&#171;application&#187;</text><text fill="#000000" font-family="sans-serif" font-size="14" lengthAdjust="spacing" textLength="222.5645" x="1614.5" y="111.7285">RepresentativeManagementService</text><rect fill="#E3E3E3" height="51.2422" rx="2.5" ry="2.5" style="stroke:#181818;stroke-width:0.5;" width="236.5645" x="1607.5" y="1229.8262"/><text fill="#000000" font-family="sans-serif" font-size="14" font-style="italic" lengthAdjust="spacing" textLength="82.5098" x="1684.5273" y="1251.9336">&#171;application&#187;</text><text fill="#000000" font-family="sans-serif" font-size="14" lengthAdjust="spacing" textLength="222.5645" x="1614.5" y="1270.5547">RepresentativeManagementService</text><rect fill="#E3E3E3" height="51.2422" rx="2.5" ry="2.5" style="stroke:#181818;stroke-width:0.5;" width="141.5996" x="1854.0645" y="71"/><text fill="#000000" font-family="sans-serif" font-size="14" font-style="italic" lengthAdjust="spacing" textLength="77.041" x="1886.3438" y="93.1074">&#171;repository&#187;</text><text fill="#000000" font-family="sans-serif" font-size="14" lengthAdjust="spacing" textLength="127.5996" x="1861.0645" y="111.7285">CustomerRepository</text><rect fill="#E3E3E3" height="51.2422" rx="2.5" ry="2.5" style="stroke:#181818;stroke-width:0.5;" width="141.5996" x="1854.0645" y="1229.8262"/><text fill="#000000" font-family="sans-serif" font-size="14" font-style="italic" lengthAdjust="spacing" textLength="77.041" x="1886.3438" y="1251.9336">&#171;repository&#187;</text><text fill="#000000" font-family="sans-serif" font-size="14" lengthAdjust="spacing" textLength="127.5996" x="1861.0645" y="1270.5547">CustomerRepository</text><rect fill="#E3E3E3" height="51.2422" rx="2.5" ry="2.5" style="stroke:#181818;stroke-width:0.5;" width="175.082" x="2005.6641" y="71"/><text fill="#000000" font-family="sans-serif" font-size="14" font-style="italic" lengthAdjust="spacing" textLength="77.041" x="2054.6846" y="93.1074">&#171;repository&#187;</text><text fill="#000000" font-family="sans-serif" font-size="14" lengthAdjust="spacing" textLength="161.082" x="2012.6641" y="111.7285">RepresentativeRepository</text><rect fill="#E3E3E3" height="51.2422" rx="2.5" ry="2.5" style="stroke:#181818;stroke-width:0.5;" width="175.082" x="2005.6641" y="1229.8262"/><text fill="#000000" font-family="sans-serif" font-size="14" font-style="italic" lengthAdjust="spacing" textLength="77.041" x="2054.6846" y="1251.9336">&#171;repository&#187;</text><text fill="#000000" font-family="sans-serif" font-size="14" lengthAdjust="spacing" textLength="161.082" x="2012.6641" y="1270.5547">RepresentativeRepository</text><text fill="#000000" font-family="sans-serif" font-size="14" lengthAdjust="spacing" textLength="59.9307" x="2274.1387" y="119.7285">Database</text><path d="M2289.104,68.6211 C2289.104,58.6211 2307.104,58.6211 2307.104,58.6211 C2307.104,58.6211 2325.104,58.6211 2325.104,68.6211 L2325.104,94.6211 C2325.104,104.6211 2307.104,104.6211 2307.104,104.6211 C2307.104,104.6211 2289.104,104.6211 2289.104,94.6211 L2289.104,68.6211 " fill="#E3E3E3" style="stroke:#181818;stroke-width:1.5;"/><path d="M2289.104,68.6211 C2289.104,78.6211 2307.104,78.6211 2307.104,78.6211 C2307.104,78.6211 2325.104,78.6211 2325.104,68.6211 " fill="none" style="stroke:#181818;stroke-width:1.5;"/><text fill="#000000" font-family="sans-serif" font-size="14" lengthAdjust="spacing" textLength="59.9307" x="2274.1387" y="1244.9336">Database</text><path d="M2289.104,1258.4473 C2289.104,1248.4473 2307.104,1248.4473 2307.104,1248.4473 C2307.104,1248.4473 2325.104,1248.4473 2325.104,1258.4473 L2325.104,1284.4473 C2325.104,1294.4473 2307.104,1294.4473 2307.104,1294.4473 C2307.104,1294.4473 2289.104,1294.4473 2289.104,1284.4473 L2289.104,1258.4473 " fill="#E3E3E3" style="stroke:#181818;stroke-width:1.5;"/><path d="M2289.104,1258.4473 C2289.104,1268.4473 2307.104,1268.4473 2307.104,1268.4473 C2307.104,1268.4473 2325.104,1268.4473 2325.104,1258.4473 " fill="none" style="stroke:#181818;stroke-width:1.5;"/><rect fill="#FFFFFF" height="1088.584" style="stroke:#181818;stroke-width:1.0;" width="10" x="59.0171" y="133.2422"/><rect fill="#FFFFFF" height="93.5332" style="stroke:#181818;stroke-width:1.0;" width="10" x="322.855" y="156.5332"/><rect fill="#FFFFFF" height="406.1035" style="stroke:#181818;stroke-width:1.0;" width="10" x="489.7329" y="250.0664"/><rect fill="#FFFFFF" height="281.6191" style="stroke:#181818;stroke-width:1.0;" width="10" x="489.7329" y="687.4609"/><rect fill="#FFFFFF" height="212.4551" style="stroke:#181818;stroke-width:1.0;" width="10" x="489.7329" y="1000.3711"/><rect fill="#FFFFFF" height="281.2793" style="stroke:#181818;stroke-width:1.0;" width="10" x="812.8198" y="343.5996"/><rect fill="#FFFFFF" height="219.0371" style="stroke:#181818;stroke-width:1.0;" width="10" x="812.8198" y="718.752"/><rect fill="#FFFFFF" height="149.873" style="stroke:#181818;stroke-width:1.0;" width="10" x="812.8198" y="1031.6621"/><rect fill="#FFFFFF" height="156.4551" style="stroke:#181818;stroke-width:1.0;" width="10" x="1490.959" y="437.1328"/><rect fill="#FFFFFF" height="156.4551" style="stroke:#181818;stroke-width:1.0;" width="10" x="1720.7822" y="750.043"/><rect fill="#FFFFFF" height="104.582" style="stroke:#181818;stroke-width:1.0;" width="10" x="1720.7822" y="1062.9531"/><rect fill="#FFFFFF" height="93.873" style="stroke:#181818;stroke-width:1.0;" width="10" x="1919.8643" y="468.4238"/><rect fill="#FFFFFF" height="93.873" style="stroke:#181818;stroke-width:1.0;" width="10" x="2088.2051" y="781.334"/><rect fill="#FFFFFF" height="59.291" style="stroke:#181818;stroke-width:1.0;" width="10" x="2088.2051" y="1094.2441"/><rect fill="#FFFFFF" height="31.291" style="stroke:#181818;stroke-width:1.0;" width="10" x="2302.104" y="499.7148"/><rect fill="#FFFFFF" height="31.291" style="stroke:#181818;stroke-width:1.0;" width="10" x="2302.104" y="812.625"/><rect fill="#FFFFFF" height="14" style="stroke:#181818;stroke-width:1.0;" width="10" x="2302.104" y="1125.5352"/><polygon fill="#181818" points="310.855,152.5332,320.855,156.5332,310.855,160.5332,314.855,156.5332" style="stroke:#181818;stroke-width:1.0;"/><line style="stroke:#181818;stroke-width:1.0;" x1="69.0171" x2="316.855" y1="156.5332" y2="156.5332"/><text fill="#000000" font-family="sans-serif" font-size="13" lengthAdjust="spacing" textLength="234.8379" x="76.0171" y="151.2705">Ask to disable a costumer representative</text><polygon fill="#181818" points="415.0469,183.8242,425.0469,187.8242,415.0469,191.8242,419.0469,187.8242" style="stroke:#181818;stroke-width:1.0;"/><line style="stroke:#181818;stroke-width:1.0;" x1="332.855" x2="421.0469" y1="187.8242" y2="187.8242"/><text fill="#000000" font-family="sans-serif" font-size="13" lengthAdjust="spacing" textLength="36.1309" x="339.855" y="182.5615">create</text><rect fill="#E3E3E3" height="51.2422" rx="2.5" ry="2.5" style="stroke:#181818;stroke-width:0.5;" width="135.3721" x="427.0469" y="164.5332"/><text fill="#000000" font-family="sans-serif" font-size="14" font-style="italic" lengthAdjust="spacing" textLength="92.627" x="448.4194" y="186.6406">&#171;presentation&#187;</text><text fill="#000000" font-family="sans-serif" font-size="14" lengthAdjust="spacing" textLength="121.3721" x="434.0469" y="205.2617">DisableCustomerUI</text><polygon fill="#181818" points="477.7329,246.0664,487.7329,250.0664,477.7329,254.0664,481.7329,250.0664" style="stroke:#181818;stroke-width:1.0;"/><line style="stroke:#181818;stroke-width:1.0;" x1="327.855" x2="483.7329" y1="250.0664" y2="250.0664"/><text fill="#000000" font-family="sans-serif" font-size="13" lengthAdjust="spacing" textLength="39.0063" x="334.855" y="244.8037">show()</text><polygon fill="#181818" points="714.7891,277.3574,724.7891,281.3574,714.7891,285.3574,718.7891,281.3574" style="stroke:#181818;stroke-width:1.0;"/><line style="stroke:#181818;stroke-width:1.0;" x1="499.7329" x2="720.7891" y1="281.3574" y2="281.3574"/><text fill="#000000" font-family="sans-serif" font-size="13" lengthAdjust="spacing" textLength="36.1309" x="506.7329" y="276.0947">create</text><rect fill="#E3E3E3" height="51.2422" rx="2.5" ry="2.5" style="stroke:#181818;stroke-width:0.5;" width="182.0615" x="726.7891" y="258.0664"/><text fill="#000000" font-family="sans-serif" font-size="14" font-style="italic" lengthAdjust="spacing" textLength="82.5098" x="776.5649" y="280.1738">&#171;application&#187;</text><text fill="#000000" font-family="sans-serif" font-size="14" lengthAdjust="spacing" textLength="168.0615" x="733.7891" y="298.7949">DisableCustomerController</text><polygon fill="#181818" points="800.8198,339.5996,810.8198,343.5996,800.8198,347.5996,804.8198,343.5996" style="stroke:#181818;stroke-width:1.0;"/><line style="stroke:#181818;stroke-width:1.0;" x1="499.7329" x2="806.8198" y1="343.5996" y2="343.5996"/><text fill="#000000" font-family="sans-serif" font-size="13" lengthAdjust="spacing" textLength="64.2827" x="506.7329" y="338.3369">listClients()</text><polygon fill="#181818" points="1230.0186,370.8906,1240.0186,374.8906,1230.0186,378.8906,1234.0186,374.8906" style="stroke:#181818;stroke-width:1.0;"/><line style="stroke:#181818;stroke-width:1.0;" x1="822.8198" x2="1236.0186" y1="374.8906" y2="374.8906"/><text fill="#000000" font-family="sans-serif" font-size="13" lengthAdjust="spacing" textLength="395.1987" x="829.8198" y="369.6279">ensureAuthenticatedUserHasAnyOf(Roles.CRM_COLLABORATOR)</text><rect fill="#E3E3E3" height="51.2422" rx="2.5" ry="2.5" style="stroke:#181818;stroke-width:0.5;" width="142.3994" x="1242.0186" y="351.5996"/><text fill="#000000" font-family="sans-serif" font-size="14" font-style="italic" lengthAdjust="spacing" textLength="42.8203" x="1291.8081" y="373.707">&#171;auth&#187;</text><text fill="#000000" font-family="sans-serif" font-size="14" lengthAdjust="spacing" textLength="128.3994" x="1249.0186" y="392.3281">AuthorizationService</text><polygon fill="#181818" points="1478.959,433.1328,1488.959,437.1328,1478.959,441.1328,1482.959,437.1328" style="stroke:#181818;stroke-width:1.0;"/><line style="stroke:#181818;stroke-width:1.0;" x1="822.8198" x2="1484.959" y1="437.1328" y2="437.1328"/><text fill="#000000" font-family="sans-serif" font-size="13" lengthAdjust="spacing" textLength="99.6836" x="829.8198" y="431.8701">listActiveClients()</text><polygon fill="#181818" points="1907.8643,464.4238,1917.8643,468.4238,1907.8643,472.4238,1911.8643,468.4238" style="stroke:#181818;stroke-width:1.0;"/><line style="stroke:#181818;stroke-width:1.0;" x1="1500.959" x2="1913.8643" y1="468.4238" y2="468.4238"/><text fill="#000000" font-family="sans-serif" font-size="13" lengthAdjust="spacing" textLength="102.5908" x="1507.959" y="463.1611">findByActive(true)</text><polygon fill="#181818" points="2290.104,495.7148,2300.104,499.7148,2290.104,503.7148,2294.104,499.7148" style="stroke:#181818;stroke-width:1.0;"/><line style="stroke:#181818;stroke-width:1.0;" x1="1929.8643" x2="2296.104" y1="499.7148" y2="499.7148"/><text fill="#000000" font-family="sans-serif" font-size="13" lengthAdjust="spacing" textLength="102.5908" x="1936.8643" y="494.4521">findByActive(true)</text><polygon fill="#181818" points="1940.8643,527.0059,1930.8643,531.0059,1940.8643,535.0059,1936.8643,531.0059" style="stroke:#181818;stroke-width:1.0;"/><line style="stroke:#181818;stroke-width:1.0;" x1="1934.8643" x2="2306.104" y1="531.0059" y2="531.0059"/><text fill="#000000" font-family="sans-serif" font-size="13" lengthAdjust="spacing" textLength="104.749" x="1946.8643" y="525.7432">listOfActiveClients</text><polygon fill="#181818" points="1511.959,558.2969,1501.959,562.2969,1511.959,566.2969,1507.959,562.2969" style="stroke:#181818;stroke-width:1.0;"/><line style="stroke:#181818;stroke-width:1.0;" x1="1505.959" x2="1923.8643" y1="562.2969" y2="562.2969"/><text fill="#000000" font-family="sans-serif" font-size="13" lengthAdjust="spacing" textLength="104.749" x="1517.959" y="557.0342">listOfActiveClients</text><polygon fill="#181818" points="833.8198,589.5879,823.8198,593.5879,833.8198,597.5879,829.8198,593.5879" style="stroke:#181818;stroke-width:1.0;"/><line style="stroke:#181818;stroke-width:1.0;" x1="827.8198" x2="1494.959" y1="593.5879" y2="593.5879"/><text fill="#000000" font-family="sans-serif" font-size="13" lengthAdjust="spacing" textLength="104.749" x="839.8198" y="588.3252">listOfActiveClients</text><polygon fill="#181818" points="510.7329,620.8789,500.7329,624.8789,510.7329,628.8789,506.7329,624.8789" style="stroke:#181818;stroke-width:1.0;"/><line style="stroke:#181818;stroke-width:1.0;" x1="504.7329" x2="816.8198" y1="624.8789" y2="624.8789"/><text fill="#000000" font-family="sans-serif" font-size="13" lengthAdjust="spacing" textLength="104.749" x="516.7329" y="619.6162">listOfActiveClients</text><polygon fill="#181818" points="80.0171,652.1699,70.0171,656.1699,80.0171,660.1699,76.0171,656.1699" style="stroke:#181818;stroke-width:1.0;"/><line style="stroke:#181818;stroke-width:1.0;" x1="74.0171" x2="493.7329" y1="656.1699" y2="656.1699"/><text fill="#000000" font-family="sans-serif" font-size="13" lengthAdjust="spacing" textLength="113.4326" x="86.0171" y="650.9072">Shows list of clients</text><polygon fill="#181818" points="477.7329,683.4609,487.7329,687.4609,477.7329,691.4609,481.7329,687.4609" style="stroke:#181818;stroke-width:1.0;"/><line style="stroke:#181818;stroke-width:1.0;" x1="69.0171" x2="483.7329" y1="687.4609" y2="687.4609"/><text fill="#000000" font-family="sans-serif" font-size="13" lengthAdjust="spacing" textLength="87.4326" x="76.0171" y="682.1982">Selects a client</text><polygon fill="#181818" points="800.8198,714.752,810.8198,718.752,800.8198,722.752,804.8198,718.752" style="stroke:#181818;stroke-width:1.0;"/><line style="stroke:#181818;stroke-width:1.0;" x1="499.7329" x2="806.8198" y1="718.752" y2="718.752"/><text fill="#000000" font-family="sans-serif" font-size="13" lengthAdjust="spacing" textLength="221.7935" x="506.7329" y="713.4893">listCustomerRepresentative(customer)</text><polygon fill="#181818" points="1708.7822,746.043,1718.7822,750.043,1708.7822,754.043,1712.7822,750.043" style="stroke:#181818;stroke-width:1.0;"/><line style="stroke:#181818;stroke-width:1.0;" x1="822.8198" x2="1714.7822" y1="750.043" y2="750.043"/><text fill="#000000" font-family="sans-serif" font-size="13" lengthAdjust="spacing" textLength="221.7935" x="829.8198" y="744.7803">listCustomerRepresentative(customer)</text><polygon fill="#181818" points="2076.2051,777.334,2086.2051,781.334,2076.2051,785.334,2080.2051,781.334" style="stroke:#181818;stroke-width:1.0;"/><line style="stroke:#181818;stroke-width:1.0;" x1="1730.7822" x2="2082.2051" y1="781.334" y2="781.334"/><text fill="#000000" font-family="sans-serif" font-size="13" lengthAdjust="spacing" textLength="102.5908" x="1737.7822" y="776.0713">findByActive(true)</text><polygon fill="#181818" points="2290.104,808.625,2300.104,812.625,2290.104,816.625,2294.104,812.625" style="stroke:#181818;stroke-width:1.0;"/><line style="stroke:#181818;stroke-width:1.0;" x1="2098.2051" x2="2296.104" y1="812.625" y2="812.625"/><text fill="#000000" font-family="sans-serif" font-size="13" lengthAdjust="spacing" textLength="102.5908" x="2105.2051" y="807.3623">findByActive(true)</text><polygon fill="#181818" points="2109.2051,839.916,2099.2051,843.916,2109.2051,847.916,2105.2051,843.916" style="stroke:#181818;stroke-width:1.0;"/><line style="stroke:#181818;stroke-width:1.0;" x1="2103.2051" x2="2306.104" y1="843.916" y2="843.916"/><text fill="#000000" font-family="sans-serif" font-size="13" lengthAdjust="spacing" textLength="179.8989" x="2115.2051" y="838.6533">listOfCustomerRepresentatives</text><polygon fill="#181818" points="1741.7822,871.207,1731.7822,875.207,1741.7822,879.207,1737.7822,875.207" style="stroke:#181818;stroke-width:1.0;"/><line style="stroke:#181818;stroke-width:1.0;" x1="1735.7822" x2="2092.2051" y1="875.207" y2="875.207"/><text fill="#000000" font-family="sans-serif" font-size="13" lengthAdjust="spacing" textLength="179.8989" x="1747.7822" y="869.9443">listOfCustomerRepresentatives</text><polygon fill="#181818" points="833.8198,902.498,823.8198,906.498,833.8198,910.498,829.8198,906.498" style="stroke:#181818;stroke-width:1.0;"/><line style="stroke:#181818;stroke-width:1.0;" x1="827.8198" x2="1724.7822" y1="906.498" y2="906.498"/><text fill="#000000" font-family="sans-serif" font-size="13" lengthAdjust="spacing" textLength="179.8989" x="839.8198" y="901.2354">listOfCustomerRepresentatives</text><polygon fill="#181818" points="510.7329,933.7891,500.7329,937.7891,510.7329,941.7891,506.7329,937.7891" style="stroke:#181818;stroke-width:1.0;"/><line style="stroke:#181818;stroke-width:1.0;" x1="504.7329" x2="816.8198" y1="937.7891" y2="937.7891"/><text fill="#000000" font-family="sans-serif" font-size="13" lengthAdjust="spacing" textLength="179.8989" x="516.7329" y="932.5264">listOfCustomerRepresentatives</text><polygon fill="#181818" points="80.0171,965.0801,70.0171,969.0801,80.0171,973.0801,76.0171,969.0801" style="stroke:#181818;stroke-width:1.0;"/><line style="stroke:#181818;stroke-width:1.0;" x1="74.0171" x2="493.7329" y1="969.0801" y2="969.0801"/><text fill="#000000" font-family="sans-serif" font-size="13" lengthAdjust="spacing" textLength="249.2915" x="86.0171" y="963.8174">Shows the list of the clients representatives</text><polygon fill="#181818" points="477.7329,996.3711,487.7329,1000.3711,477.7329,1004.3711,481.7329,1000.3711" style="stroke:#181818;stroke-width:1.0;"/><line style="stroke:#181818;stroke-width:1.0;" x1="69.0171" x2="483.7329" y1="1000.3711" y2="1000.3711"/><text fill="#000000" font-family="sans-serif" font-size="13" lengthAdjust="spacing" textLength="137.2935" x="76.0171" y="995.1084">selects a representative</text><polygon fill="#181818" points="800.8198,1027.6621,810.8198,1031.6621,800.8198,1035.6621,804.8198,1031.6621" style="stroke:#181818;stroke-width:1.0;"/><line style="stroke:#181818;stroke-width:1.0;" x1="499.7329" x2="806.8198" y1="1031.6621" y2="1031.6621"/><text fill="#000000" font-family="sans-serif" font-size="13" lengthAdjust="spacing" textLength="294.0869" x="506.7329" y="1026.3994">deactivateCustomerRepresentative(representative)</text><polygon fill="#181818" points="1708.7822,1058.9531,1718.7822,1062.9531,1708.7822,1066.9531,1712.7822,1062.9531" style="stroke:#181818;stroke-width:1.0;"/><line style="stroke:#181818;stroke-width:1.0;" x1="822.8198" x2="1714.7822" y1="1062.9531" y2="1062.9531"/><text fill="#000000" font-family="sans-serif" font-size="13" lengthAdjust="spacing" textLength="294.0869" x="829.8198" y="1057.6904">deactivateCustomerRepresentative(representative)</text><polygon fill="#181818" points="2076.2051,1090.2441,2086.2051,1094.2441,2076.2051,1098.2441,2080.2051,1094.2441" style="stroke:#181818;stroke-width:1.0;"/><line style="stroke:#181818;stroke-width:1.0;" x1="1730.7822" x2="2082.2051" y1="1094.2441" y2="1094.2441"/><text fill="#000000" font-family="sans-serif" font-size="13" lengthAdjust="spacing" textLength="118.498" x="1737.7822" y="1088.9814">save(representative)</text><polygon fill="#181818" points="2290.104,1121.5352,2300.104,1125.5352,2290.104,1129.5352,2294.104,1125.5352" style="stroke:#181818;stroke-width:1.0;"/><line style="stroke:#181818;stroke-width:1.0;" x1="2098.2051" x2="2296.104" y1="1125.5352" y2="1125.5352"/><text fill="#000000" font-family="sans-serif" font-size="13" lengthAdjust="spacing" textLength="36.1182" x="2105.2051" y="1120.2725">save()</text><polygon fill="#181818" points="2109.2051,1135.5352,2099.2051,1139.5352,2109.2051,1143.5352,2105.2051,1139.5352" style="stroke:#181818;stroke-width:1.0;"/><line style="stroke:#181818;stroke-width:1.0;" x1="2103.2051" x2="2306.104" y1="1139.5352" y2="1139.5352"/><polygon fill="#181818" points="1741.7822,1149.5352,1731.7822,1153.5352,1741.7822,1157.5352,1737.7822,1153.5352" style="stroke:#181818;stroke-width:1.0;"/><line style="stroke:#181818;stroke-width:1.0;" x1="1735.7822" x2="2092.2051" y1="1153.5352" y2="1153.5352"/><polygon fill="#181818" points="833.8198,1163.5352,823.8198,1167.5352,833.8198,1171.5352,829.8198,1167.5352" style="stroke:#181818;stroke-width:1.0;"/><line style="stroke:#181818;stroke-width:1.0;" x1="827.8198" x2="1724.7822" y1="1167.5352" y2="1167.5352"/><polygon fill="#181818" points="510.7329,1177.5352,500.7329,1181.5352,510.7329,1185.5352,506.7329,1181.5352" style="stroke:#181818;stroke-width:1.0;"/><line style="stroke:#181818;stroke-width:1.0;" x1="504.7329" x2="816.8198" y1="1181.5352" y2="1181.5352"/><polygon fill="#181818" points="80.0171,1208.8262,70.0171,1212.8262,80.0171,1216.8262,76.0171,1212.8262" style="stroke:#181818;stroke-width:1.0;"/><line style="stroke:#181818;stroke-width:1.0;" x1="74.0171" x2="493.7329" y1="1212.8262" y2="1212.8262"/><text fill="#000000" font-family="sans-serif" font-size="13" lengthAdjust="spacing" textLength="396.7158" x="86.0171" y="1207.5635">disables the costumer representative and displays operation success</text><!--SRC=[nLTDRwCm4BtpAwoUqahTGxMdggf4sSD6QZTIQCuhrqmQgmIpjacL_VKxDW5CC1_9ThkSmEDvxuqzVe1wurbE9TsIhSW4sqYn1Q9b0O6g8pbbR_GLOhrFWKXWccQlgJj1RMWYtddsIjOqLH04b6aXoKMqV2AHI5Fw8YJ5aGj25M5owuu52A4vupdDDBdunXLzII4gb4OXCcIQYyocXT7pVF63tDtb4XHacfh8_VrW-cfkKrVpqz8YaMc94g4K73ql7n60vddAcJS_BFH6IFxR1cEGEywW5Eq962WSFiQeo9zeXckzHQakK6zqMDWIch9tu8SUcJDCKEb24A4uRkU-9RSPHXXPFmpBFCBg2nuZ9bJJ5we0j_DmPzEhXo08DDVOmF5UQTYI67uLa65zrsGLtznyjKtBTrH3fqC3WjVH8Bc-hrhobeJgZMX1ahAD22LCA5rW_NXQNF4MgAOfqqjqSntW47Wrlxf2M2O1vtdZ65KRyJwxjD44lA3ru6hUi60k8fYUzd4qKOobNEaevQXU7OXQg6PMWsikcsSMnjFsbWqoLKWmOGGrBGN9Ie7yJbMOxHVhsLAaeBwWRVoC5e-FuSDY6JulbfTUaluZKIetth63hlvs3NqWxS8iRo-V8yPfprkovbdoi2zrp8odNdP0Eq8QWAu2LuL3XFHLaqyZRH4tvuFqN3LuNvrcjHVhrdfxmPms7MRr5pcsuMCI7Fefgpsytyq96QBrK8vqMjNTzeWFmRlGhODO7k5ZkxebCVg5if14h0bpu1oeoYayRcSLnP3Y-ryPYxC0KtocSf9cpHrBdB73y4a6C_REEf6nnJg2tMsKCJ4TlMURH1-C_nJradwcOGnKNdQtVvF-qa26If_MEzE5EQAcxy-4dcbPp1GnlK9EjvmnkZFD1r_xjG6P-uC97NqbdMnAgZQbeS-jNdDgc7eCeutwmKPrDll_D2r5HuJzUzko4Zx9gYQRaM_UnnlKMHOqAcko9PrhEhtihW6TRp67lw_IPNf-m0ZD4ZCnJ-bU4P63jByeH1MCWV8Ppny0]--></g></svg>