<svg xmlns="http://www.w3.org/2000/svg" xmlns:xlink="http://www.w3.org/1999/xlink" contentStyleType="text/css" height="1359px" preserveAspectRatio="none" style="width:2562px;height:1359px;background:#FFFFFF;" version="1.1" viewBox="0 0 2562 1359" width="2562px" zoomAndPan="magnify"><title>System Sequence - US224</title><defs/><g><text fill="#000000" font-family="sans-serif" font-size="14" font-weight="bold" lengthAdjust="spacing" textLength="175.082" x="1194.71" y="30.1074">System Sequence - US224</text><rect fill="#FFFFFF" height="1133.875" style="stroke:#181818;stroke-width:1.0;" width="10" x="59.0171" y="133.2422"/><rect fill="#FFFFFF" height="93.5332" style="stroke:#181818;stroke-width:1.0;" width="10" x="322.855" y="156.5332"/><rect fill="#FFFFFF" height="406.1035" style="stroke:#181818;stroke-width:1.0;" width="10" x="514.1646" y="250.0664"/><rect fill="#FFFFFF" height="281.6191" style="stroke:#181818;stroke-width:1.0;" width="10" x="514.1646" y="687.4609"/><rect fill="#FFFFFF" height="257.7461" style="stroke:#181818;stroke-width:1.0;" width="10" x="514.1646" y="1000.3711"/><rect fill="#FFFFFF" height="281.2793" style="stroke:#181818;stroke-width:1.0;" width="10" x="837.2515" y="343.5996"/><rect fill="#FFFFFF" height="219.0371" style="stroke:#181818;stroke-width:1.0;" width="10" x="837.2515" y="718.752"/><rect fill="#FFFFFF" height="195.1641" style="stroke:#181818;stroke-width:1.0;" width="10" x="837.2515" y="1031.6621"/><rect fill="#FFFFFF" height="156.4551" style="stroke:#181818;stroke-width:1.0;" width="10" x="1515.3906" y="437.1328"/><rect fill="#FFFFFF" height="156.4551" style="stroke:#181818;stroke-width:1.0;" width="10" x="1745.2139" y="750.043"/><rect fill="#FFFFFF" height="149.873" style="stroke:#181818;stroke-width:1.0;" width="10" x="1745.2139" y="1062.9531"/><rect fill="#FFFFFF" height="14" style="stroke:#181818;stroke-width:1.0;" width="10" x="2005.4146" y="1094.2441"/><rect fill="#FFFFFF" height="93.873" style="stroke:#181818;stroke-width:1.0;" width="10" x="2140.2969" y="468.4238"/><rect fill="#FFFFFF" height="93.873" style="stroke:#181818;stroke-width:1.0;" width="10" x="2308.6377" y="781.334"/><rect fill="#FFFFFF" height="59.291" style="stroke:#181818;stroke-width:1.0;" width="10" x="2308.6377" y="1139.5352"/><rect fill="#FFFFFF" height="31.291" style="stroke:#181818;stroke-width:1.0;" width="10" x="2522.5366" y="499.7148"/><rect fill="#FFFFFF" height="31.291" style="stroke:#181818;stroke-width:1.0;" width="10" x="2522.5366" y="812.625"/><rect fill="#FFFFFF" height="14" style="stroke:#181818;stroke-width:1.0;" width="10" x="2522.5366" y="1170.8262"/><line style="stroke:#181818;stroke-width:0.5;stroke-dasharray:5.0,5.0;" x1="64" x2="64" y1="123.2422" y2="1276.1172"/><line style="stroke:#181818;stroke-width:0.5;stroke-dasharray:5.0,5.0;" x1="326.9727" x2="326.9727" y1="123.2422" y2="1276.1172"/><line style="stroke:#181818;stroke-width:0.5;stroke-dasharray:5.0,5.0;" x1="518.7373" x2="518.7373" y1="205.6543" y2="1276.1172"/><line style="stroke:#181818;stroke-width:0.5;stroke-dasharray:5.0,5.0;" x1="841.4795" x2="841.4795" y1="299.1875" y2="1276.1172"/><line style="stroke:#181818;stroke-width:0.5;stroke-dasharray:5.0,5.0;" x1="1337.4502" x2="1337.4502" y1="392.7207" y2="1276.1172"/><line style="stroke:#181818;stroke-width:0.5;stroke-dasharray:5.0,5.0;" x1="1519.8496" x2="1519.8496" y1="123.2422" y2="1276.1172"/><line style="stroke:#181818;stroke-width:0.5;stroke-dasharray:5.0,5.0;" x1="1749.9316" x2="1749.9316" y1="123.2422" y2="1276.1172"/><line style="stroke:#181818;stroke-width:0.5;stroke-dasharray:5.0,5.0;" x1="2010.332" x2="2010.332" y1="123.2422" y2="1276.1172"/><line style="stroke:#181818;stroke-width:0.5;stroke-dasharray:5.0,5.0;" x1="2144.4971" x2="2144.4971" y1="123.2422" y2="1276.1172"/><line style="stroke:#181818;stroke-width:0.5;stroke-dasharray:5.0,5.0;" x1="2313.0967" x2="2313.0967" y1="123.2422" y2="1276.1172"/><line style="stroke:#181818;stroke-width:0.5;stroke-dasharray:5.0,5.0;" x1="2526.5713" x2="2526.5713" y1="123.2422" y2="1276.1172"/><text fill="#000000" font-family="sans-serif" font-size="14" lengthAdjust="spacing" textLength="112.0342" x="5" y="119.7285">CRM Collaborator</text><ellipse cx="64.0171" cy="53.1211" fill="#E3E3E3" rx="8" ry="8" style="stroke:#181818;stroke-width:0.5;"/><path d="M64.0171,61.1211 L64.0171,88.1211 M51.0171,69.1211 L77.0171,69.1211 M64.0171,88.1211 L51.0171,103.1211 M64.0171,88.1211 L77.0171,103.1211 " fill="none" style="stroke:#181818;stroke-width:0.5;"/><text fill="#000000" font-family="sans-serif" font-size="14" lengthAdjust="spacing" textLength="112.0342" x="5" y="1290.2246">CRM Collaborator</text><ellipse cx="64.0171" cy="1302.2383" fill="#E3E3E3" rx="8" ry="8" style="stroke:#181818;stroke-width:0.5;"/><path d="M64.0171,1310.2383 L64.0171,1337.2383 M51.0171,1318.2383 L77.0171,1318.2383 M64.0171,1337.2383 L51.0171,1352.2383 M64.0171,1337.2383 L77.0171,1352.2383 " fill="none" style="stroke:#181818;stroke-width:0.5;"/><rect fill="#E3E3E3" height="51.2422" rx="2.5" ry="2.5" style="stroke:#181818;stroke-width:0.5;" width="193.7646" x="230.9727" y="71"/><text fill="#000000" font-family="sans-serif" font-size="14" font-style="italic" lengthAdjust="spacing" textLength="92.627" x="281.5415" y="93.1074">&#171;presentation&#187;</text><text fill="#000000" font-family="sans-serif" font-size="14" lengthAdjust="spacing" textLength="179.7646" x="237.9727" y="111.7285">DisableRepresentativeAction</text><rect fill="#E3E3E3" height="51.2422" rx="2.5" ry="2.5" style="stroke:#181818;stroke-width:0.5;" width="193.7646" x="230.9727" y="1275.1172"/><text fill="#000000" font-family="sans-serif" font-size="14" font-style="italic" lengthAdjust="spacing" textLength="92.627" x="281.5415" y="1297.2246">&#171;presentation&#187;</text><text fill="#000000" font-family="sans-serif" font-size="14" lengthAdjust="spacing" textLength="179.7646" x="237.9727" y="1315.8457">DisableRepresentativeAction</text><rect fill="#E3E3E3" height="51.2422" rx="2.5" ry="2.5" style="stroke:#181818;stroke-width:0.5;" width="168.8545" x="434.7373" y="1275.1172"/><text fill="#000000" font-family="sans-serif" font-size="14" font-style="italic" lengthAdjust="spacing" textLength="92.627" x="472.8511" y="1297.2246">&#171;presentation&#187;</text><text fill="#000000" font-family="sans-serif" font-size="14" lengthAdjust="spacing" textLength="154.8545" x="441.7373" y="1315.8457">DisableRepresentativeUI</text><rect fill="#E3E3E3" height="51.2422" rx="2.5" ry="2.5" style="stroke:#181818;stroke-width:0.5;" width="215.5439" x="734.4795" y="1275.1172"/><text fill="#000000" font-family="sans-serif" font-size="14" font-style="italic" lengthAdjust="spacing" textLength="82.5098" x="800.9966" y="1297.2246">&#171;application&#187;</text><text fill="#000000" font-family="sans-serif" font-size="14" lengthAdjust="spacing" textLength="201.5439" x="741.4795" y="1315.8457">DisableRepresentativeController</text><rect fill="#E3E3E3" height="51.2422" rx="2.5" ry="2.5" style="stroke:#181818;stroke-width:0.5;" width="142.3994" x="1266.4502" y="1275.1172"/><text fill="#000000" font-family="sans-serif" font-size="14" font-style="italic" lengthAdjust="spacing" textLength="42.8203" x="1316.2397" y="1297.2246">&#171;auth&#187;</text><text fill="#000000" font-family="sans-serif" font-size="14" lengthAdjust="spacing" textLength="128.3994" x="1273.4502" y="1315.8457">AuthorizationService</text><rect fill="#E3E3E3" height="51.2422" rx="2.5" ry="2.5" style="stroke:#181818;stroke-width:0.5;" width="203.082" x="1418.8496" y="71"/><text fill="#000000" font-family="sans-serif" font-size="14" font-style="italic" lengthAdjust="spacing" textLength="82.5098" x="1479.1357" y="93.1074">&#171;application&#187;</text><text fill="#000000" font-family="sans-serif" font-size="14" lengthAdjust="spacing" textLength="189.082" x="1425.8496" y="111.7285">CustomerManagementService</text><rect fill="#E3E3E3" height="51.2422" rx="2.5" ry="2.5" style="stroke:#181818;stroke-width:0.5;" width="203.082" x="1418.8496" y="1275.1172"/><text fill="#000000" font-family="sans-serif" font-size="14" font-style="italic" lengthAdjust="spacing" textLength="82.5098" x="1479.1357" y="1297.2246">&#171;application&#187;</text><text fill="#000000" font-family="sans-serif" font-size="14" lengthAdjust="spacing" textLength="189.082" x="1425.8496" y="1315.8457">CustomerManagementService</text><rect fill="#E3E3E3" height="51.2422" rx="2.5" ry="2.5" style="stroke:#181818;stroke-width:0.5;" width="236.5645" x="1631.9316" y="71"/><text fill="#000000" font-family="sans-serif" font-size="14" font-style="italic" lengthAdjust="spacing" textLength="82.5098" x="1708.959" y="93.1074">&#171;application&#187;</text><text fill="#000000" font-family="sans-serif" font-size="14" lengthAdjust="spacing" textLength="222.5645" x="1638.9316" y="111.7285">RepresentativeManagementService</text><rect fill="#E3E3E3" height="51.2422" rx="2.5" ry="2.5" style="stroke:#181818;stroke-width:0.5;" width="236.5645" x="1631.9316" y="1275.1172"/><text fill="#000000" font-family="sans-serif" font-size="14" font-style="italic" lengthAdjust="spacing" textLength="82.5098" x="1708.959" y="1297.2246">&#171;application&#187;</text><text fill="#000000" font-family="sans-serif" font-size="14" lengthAdjust="spacing" textLength="222.5645" x="1638.9316" y="1315.8457">RepresentativeManagementService</text><rect fill="#E3E3E3" height="51.2422" rx="2.5" ry="2.5" style="stroke:#181818;stroke-width:0.5;" width="108.165" x="1956.332" y="71"/><text fill="#000000" font-family="sans-serif" font-size="14" font-style="italic" lengthAdjust="spacing" textLength="61.4893" x="1979.6699" y="93.1074">&#171;domain&#187;</text><text fill="#000000" font-family="sans-serif" font-size="14" lengthAdjust="spacing" textLength="94.165" x="1963.332" y="111.7285">Representative</text><rect fill="#E3E3E3" height="51.2422" rx="2.5" ry="2.5" style="stroke:#181818;stroke-width:0.5;" width="108.165" x="1956.332" y="1275.1172"/><text fill="#000000" font-family="sans-serif" font-size="14" font-style="italic" lengthAdjust="spacing" textLength="61.4893" x="1979.6699" y="1297.2246">&#171;domain&#187;</text><text fill="#000000" font-family="sans-serif" font-size="14" lengthAdjust="spacing" textLength="94.165" x="1963.332" y="1315.8457">Representative</text><rect fill="#E3E3E3" height="51.2422" rx="2.5" ry="2.5" style="stroke:#181818;stroke-width:0.5;" width="141.5996" x="2074.4971" y="71"/><text fill="#000000" font-family="sans-serif" font-size="14" font-style="italic" lengthAdjust="spacing" textLength="77.041" x="2106.7764" y="93.1074">&#171;repository&#187;</text><text fill="#000000" font-family="sans-serif" font-size="14" lengthAdjust="spacing" textLength="127.5996" x="2081.4971" y="111.7285">CustomerRepository</text><rect fill="#E3E3E3" height="51.2422" rx="2.5" ry="2.5" style="stroke:#181818;stroke-width:0.5;" width="141.5996" x="2074.4971" y="1275.1172"/><text fill="#000000" font-family="sans-serif" font-size="14" font-style="italic" lengthAdjust="spacing" textLength="77.041" x="2106.7764" y="1297.2246">&#171;repository&#187;</text><text fill="#000000" font-family="sans-serif" font-size="14" lengthAdjust="spacing" textLength="127.5996" x="2081.4971" y="1315.8457">CustomerRepository</text><rect fill="#E3E3E3" height="51.2422" rx="2.5" ry="2.5" style="stroke:#181818;stroke-width:0.5;" width="175.082" x="2226.0967" y="71"/><text fill="#000000" font-family="sans-serif" font-size="14" font-style="italic" lengthAdjust="spacing" textLength="77.041" x="2275.1172" y="93.1074">&#171;repository&#187;</text><text fill="#000000" font-family="sans-serif" font-size="14" lengthAdjust="spacing" textLength="161.082" x="2233.0967" y="111.7285">RepresentativeRepository</text><rect fill="#E3E3E3" height="51.2422" rx="2.5" ry="2.5" style="stroke:#181818;stroke-width:0.5;" width="175.082" x="2226.0967" y="1275.1172"/><text fill="#000000" font-family="sans-serif" font-size="14" font-style="italic" lengthAdjust="spacing" textLength="77.041" x="2275.1172" y="1297.2246">&#171;repository&#187;</text><text fill="#000000" font-family="sans-serif" font-size="14" lengthAdjust="spacing" textLength="161.082" x="2233.0967" y="1315.8457">RepresentativeRepository</text><text fill="#000000" font-family="sans-serif" font-size="14" lengthAdjust="spacing" textLength="59.9307" x="2494.5713" y="119.7285">Database</text><path d="M2509.5366,68.6211 C2509.5366,58.6211 2527.5366,58.6211 2527.5366,58.6211 C2527.5366,58.6211 2545.5366,58.6211 2545.5366,68.6211 L2545.5366,94.6211 C2545.5366,104.6211 2527.5366,104.6211 2527.5366,104.6211 C2527.5366,104.6211 2509.5366,104.6211 2509.5366,94.6211 L2509.5366,68.6211 " fill="#E3E3E3" style="stroke:#181818;stroke-width:1.5;"/><path d="M2509.5366,68.6211 C2509.5366,78.6211 2527.5366,78.6211 2527.5366,78.6211 C2527.5366,78.6211 2545.5366,78.6211 2545.5366,68.6211 " fill="none" style="stroke:#181818;stroke-width:1.5;"/><text fill="#000000" font-family="sans-serif" font-size="14" lengthAdjust="spacing" textLength="59.9307" x="2494.5713" y="1290.2246">Database</text><path d="M2509.5366,1303.7383 C2509.5366,1293.7383 2527.5366,1293.7383 2527.5366,1293.7383 C2527.5366,1293.7383 2545.5366,1293.7383 2545.5366,1303.7383 L2545.5366,1329.7383 C2545.5366,1339.7383 2527.5366,1339.7383 2527.5366,1339.7383 C2527.5366,1339.7383 2509.5366,1339.7383 2509.5366,1329.7383 L2509.5366,1303.7383 " fill="#E3E3E3" style="stroke:#181818;stroke-width:1.5;"/><path d="M2509.5366,1303.7383 C2509.5366,1313.7383 2527.5366,1313.7383 2527.5366,1313.7383 C2527.5366,1313.7383 2545.5366,1313.7383 2545.5366,1303.7383 " fill="none" style="stroke:#181818;stroke-width:1.5;"/><rect fill="#FFFFFF" height="1133.875" style="stroke:#181818;stroke-width:1.0;" width="10" x="59.0171" y="133.2422"/><rect fill="#FFFFFF" height="93.5332" style="stroke:#181818;stroke-width:1.0;" width="10" x="322.855" y="156.5332"/><rect fill="#FFFFFF" height="406.1035" style="stroke:#181818;stroke-width:1.0;" width="10" x="514.1646" y="250.0664"/><rect fill="#FFFFFF" height="281.6191" style="stroke:#181818;stroke-width:1.0;" width="10" x="514.1646" y="687.4609"/><rect fill="#FFFFFF" height="257.7461" style="stroke:#181818;stroke-width:1.0;" width="10" x="514.1646" y="1000.3711"/><rect fill="#FFFFFF" height="281.2793" style="stroke:#181818;stroke-width:1.0;" width="10" x="837.2515" y="343.5996"/><rect fill="#FFFFFF" height="219.0371" style="stroke:#181818;stroke-width:1.0;" width="10" x="837.2515" y="718.752"/><rect fill="#FFFFFF" height="195.1641" style="stroke:#181818;stroke-width:1.0;" width="10" x="837.2515" y="1031.6621"/><rect fill="#FFFFFF" height="156.4551" style="stroke:#181818;stroke-width:1.0;" width="10" x="1515.3906" y="437.1328"/><rect fill="#FFFFFF" height="156.4551" style="stroke:#181818;stroke-width:1.0;" width="10" x="1745.2139" y="750.043"/><rect fill="#FFFFFF" height="149.873" style="stroke:#181818;stroke-width:1.0;" width="10" x="1745.2139" y="1062.9531"/><rect fill="#FFFFFF" height="14" style="stroke:#181818;stroke-width:1.0;" width="10" x="2005.4146" y="1094.2441"/><rect fill="#FFFFFF" height="93.873" style="stroke:#181818;stroke-width:1.0;" width="10" x="2140.2969" y="468.4238"/><rect fill="#FFFFFF" height="93.873" style="stroke:#181818;stroke-width:1.0;" width="10" x="2308.6377" y="781.334"/><rect fill="#FFFFFF" height="59.291" style="stroke:#181818;stroke-width:1.0;" width="10" x="2308.6377" y="1139.5352"/><rect fill="#FFFFFF" height="31.291" style="stroke:#181818;stroke-width:1.0;" width="10" x="2522.5366" y="499.7148"/><rect fill="#FFFFFF" height="31.291" style="stroke:#181818;stroke-width:1.0;" width="10" x="2522.5366" y="812.625"/><rect fill="#FFFFFF" height="14" style="stroke:#181818;stroke-width:1.0;" width="10" x="2522.5366" y="1170.8262"/><polygon fill="#181818" points="310.855,152.5332,320.855,156.5332,310.855,160.5332,314.855,156.5332" style="stroke:#181818;stroke-width:1.0;"/><line style="stroke:#181818;stroke-width:1.0;" x1="69.0171" x2="316.855" y1="156.5332" y2="156.5332"/><text fill="#000000" font-family="sans-serif" font-size="13" lengthAdjust="spacing" textLength="234.8379" x="76.0171" y="151.2705">Ask to disable a costumer representative</text><polygon fill="#181818" points="422.7373,183.8242,432.7373,187.8242,422.7373,191.8242,426.7373,187.8242" style="stroke:#181818;stroke-width:1.0;"/><line style="stroke:#181818;stroke-width:1.0;" x1="332.855" x2="428.7373" y1="187.8242" y2="187.8242"/><text fill="#000000" font-family="sans-serif" font-size="13" lengthAdjust="spacing" textLength="36.1309" x="339.855" y="182.5615">create</text><rect fill="#E3E3E3" height="51.2422" rx="2.5" ry="2.5" style="stroke:#181818;stroke-width:0.5;" width="168.8545" x="434.7373" y="164.5332"/><text fill="#000000" font-family="sans-serif" font-size="14" font-style="italic" lengthAdjust="spacing" textLength="92.627" x="472.8511" y="186.6406">&#171;presentation&#187;</text><text fill="#000000" font-family="sans-serif" font-size="14" lengthAdjust="spacing" textLength="154.8545" x="441.7373" y="205.2617">DisableRepresentativeUI</text><polygon fill="#181818" points="502.1646,246.0664,512.1646,250.0664,502.1646,254.0664,506.1646,250.0664" style="stroke:#181818;stroke-width:1.0;"/><line style="stroke:#181818;stroke-width:1.0;" x1="327.855" x2="508.1646" y1="250.0664" y2="250.0664"/><text fill="#000000" font-family="sans-serif" font-size="13" lengthAdjust="spacing" textLength="39.0063" x="334.855" y="244.8037">show()</text><polygon fill="#181818" points="722.4795,277.3574,732.4795,281.3574,722.4795,285.3574,726.4795,281.3574" style="stroke:#181818;stroke-width:1.0;"/><line style="stroke:#181818;stroke-width:1.0;" x1="524.1646" x2="728.4795" y1="281.3574" y2="281.3574"/><text fill="#000000" font-family="sans-serif" font-size="13" lengthAdjust="spacing" textLength="36.1309" x="531.1646" y="276.0947">create</text><rect fill="#E3E3E3" height="51.2422" rx="2.5" ry="2.5" style="stroke:#181818;stroke-width:0.5;" width="215.5439" x="734.4795" y="258.0664"/><text fill="#000000" font-family="sans-serif" font-size="14" font-style="italic" lengthAdjust="spacing" textLength="82.5098" x="800.9966" y="280.1738">&#171;application&#187;</text><text fill="#000000" font-family="sans-serif" font-size="14" lengthAdjust="spacing" textLength="201.5439" x="741.4795" y="298.7949">DisableRepresentativeController</text><polygon fill="#181818" points="825.2515,339.5996,835.2515,343.5996,825.2515,347.5996,829.2515,343.5996" style="stroke:#181818;stroke-width:1.0;"/><line style="stroke:#181818;stroke-width:1.0;" x1="524.1646" x2="831.2515" y1="343.5996" y2="343.5996"/><text fill="#000000" font-family="sans-serif" font-size="13" lengthAdjust="spacing" textLength="87.3945" x="531.1646" y="338.3369">listCustomers()</text><polygon fill="#181818" points="1254.4502,370.8906,1264.4502,374.8906,1254.4502,378.8906,1258.4502,374.8906" style="stroke:#181818;stroke-width:1.0;"/><line style="stroke:#181818;stroke-width:1.0;" x1="847.2515" x2="1260.4502" y1="374.8906" y2="374.8906"/><text fill="#000000" font-family="sans-serif" font-size="13" lengthAdjust="spacing" textLength="395.1987" x="854.2515" y="369.6279">ensureAuthenticatedUserHasAnyOf(Roles.CRM_COLLABORATOR)</text><rect fill="#E3E3E3" height="51.2422" rx="2.5" ry="2.5" style="stroke:#181818;stroke-width:0.5;" width="142.3994" x="1266.4502" y="351.5996"/><text fill="#000000" font-family="sans-serif" font-size="14" font-style="italic" lengthAdjust="spacing" textLength="42.8203" x="1316.2397" y="373.707">&#171;auth&#187;</text><text fill="#000000" font-family="sans-serif" font-size="14" lengthAdjust="spacing" textLength="128.3994" x="1273.4502" y="392.3281">AuthorizationService</text><polygon fill="#181818" points="1503.3906,433.1328,1513.3906,437.1328,1503.3906,441.1328,1507.3906,437.1328" style="stroke:#181818;stroke-width:1.0;"/><line style="stroke:#181818;stroke-width:1.0;" x1="847.2515" x2="1509.3906" y1="437.1328" y2="437.1328"/><text fill="#000000" font-family="sans-serif" font-size="13" lengthAdjust="spacing" textLength="142.3145" x="854.2515" y="431.8701">findAllActiveCustomers()</text><polygon fill="#181818" points="2128.2969,464.4238,2138.2969,468.4238,2128.2969,472.4238,2132.2969,468.4238" style="stroke:#181818;stroke-width:1.0;"/><line style="stroke:#181818;stroke-width:1.0;" x1="1525.3906" x2="2134.2969" y1="468.4238" y2="468.4238"/><text fill="#000000" font-family="sans-serif" font-size="13" lengthAdjust="spacing" textLength="102.5908" x="1532.3906" y="463.1611">findByActive(true)</text><polygon fill="#181818" points="2510.5366,495.7148,2520.5366,499.7148,2510.5366,503.7148,2514.5366,499.7148" style="stroke:#181818;stroke-width:1.0;"/><line style="stroke:#181818;stroke-width:1.0;" x1="2150.2969" x2="2516.5366" y1="499.7148" y2="499.7148"/><text fill="#000000" font-family="sans-serif" font-size="13" lengthAdjust="spacing" textLength="102.5908" x="2157.2969" y="494.4521">findByActive(true)</text><polygon fill="#181818" points="2161.2969,527.0059,2151.2969,531.0059,2161.2969,535.0059,2157.2969,531.0059" style="stroke:#181818;stroke-width:1.0;"/><line style="stroke:#181818;stroke-width:1.0;" x1="2155.2969" x2="2526.5366" y1="531.0059" y2="531.0059"/><text fill="#000000" font-family="sans-serif" font-size="13" lengthAdjust="spacing" textLength="127.8608" x="2167.2969" y="525.7432">listOfActiveCustomers</text><polygon fill="#181818" points="1536.3906,558.2969,1526.3906,562.2969,1536.3906,566.2969,1532.3906,562.2969" style="stroke:#181818;stroke-width:1.0;"/><line style="stroke:#181818;stroke-width:1.0;" x1="1530.3906" x2="2144.2969" y1="562.2969" y2="562.2969"/><text fill="#000000" font-family="sans-serif" font-size="13" lengthAdjust="spacing" textLength="127.8608" x="1542.3906" y="557.0342">listOfActiveCustomers</text><polygon fill="#181818" points="858.2515,589.5879,848.2515,593.5879,858.2515,597.5879,854.2515,593.5879" style="stroke:#181818;stroke-width:1.0;"/><line style="stroke:#181818;stroke-width:1.0;" x1="852.2515" x2="1519.3906" y1="593.5879" y2="593.5879"/><text fill="#000000" font-family="sans-serif" font-size="13" lengthAdjust="spacing" textLength="127.8608" x="864.2515" y="588.3252">listOfActiveCustomers</text><polygon fill="#181818" points="535.1646,620.8789,525.1646,624.8789,535.1646,628.8789,531.1646,624.8789" style="stroke:#181818;stroke-width:1.0;"/><line style="stroke:#181818;stroke-width:1.0;" x1="529.1646" x2="841.2515" y1="624.8789" y2="624.8789"/><text fill="#000000" font-family="sans-serif" font-size="13" lengthAdjust="spacing" textLength="127.8608" x="541.1646" y="619.6162">listOfActiveCustomers</text><polygon fill="#181818" points="80.0171,652.1699,70.0171,656.1699,80.0171,660.1699,76.0171,656.1699" style="stroke:#181818;stroke-width:1.0;"/><line style="stroke:#181818;stroke-width:1.0;" x1="74.0171" x2="518.1646" y1="656.1699" y2="656.1699"/><text fill="#000000" font-family="sans-serif" font-size="13" lengthAdjust="spacing" textLength="113.4326" x="86.0171" y="650.9072">Shows list of clients</text><polygon fill="#181818" points="502.1646,683.4609,512.1646,687.4609,502.1646,691.4609,506.1646,687.4609" style="stroke:#181818;stroke-width:1.0;"/><line style="stroke:#181818;stroke-width:1.0;" x1="69.0171" x2="508.1646" y1="687.4609" y2="687.4609"/><text fill="#000000" font-family="sans-serif" font-size="13" lengthAdjust="spacing" textLength="87.4326" x="76.0171" y="682.1982">Selects a client</text><polygon fill="#181818" points="825.2515,714.752,835.2515,718.752,825.2515,722.752,829.2515,718.752" style="stroke:#181818;stroke-width:1.0;"/><line style="stroke:#181818;stroke-width:1.0;" x1="524.1646" x2="831.2515" y1="718.752" y2="718.752"/><text fill="#000000" font-family="sans-serif" font-size="13" lengthAdjust="spacing" textLength="228.2935" x="531.1646" y="713.4893">listCustomerRepresentatives(customer)</text><polygon fill="#181818" points="1733.2139,746.043,1743.2139,750.043,1733.2139,754.043,1737.2139,750.043" style="stroke:#181818;stroke-width:1.0;"/><line style="stroke:#181818;stroke-width:1.0;" x1="847.2515" x2="1739.2139" y1="750.043" y2="750.043"/><text fill="#000000" font-family="sans-serif" font-size="13" lengthAdjust="spacing" textLength="218.188" x="854.2515" y="744.7803">findByAssociatedCustomer(customer)</text><polygon fill="#181818" points="2296.6377,777.334,2306.6377,781.334,2296.6377,785.334,2300.6377,781.334" style="stroke:#181818;stroke-width:1.0;"/><line style="stroke:#181818;stroke-width:1.0;" x1="1755.2139" x2="2302.6377" y1="781.334" y2="781.334"/><text fill="#000000" font-family="sans-serif" font-size="13" lengthAdjust="spacing" textLength="218.188" x="1762.2139" y="776.0713">findByAssociatedCustomer(customer)</text><polygon fill="#181818" points="2510.5366,808.625,2520.5366,812.625,2510.5366,816.625,2514.5366,812.625" style="stroke:#181818;stroke-width:1.0;"/><line style="stroke:#181818;stroke-width:1.0;" x1="2318.6377" x2="2516.5366" y1="812.625" y2="812.625"/><text fill="#000000" font-family="sans-serif" font-size="13" lengthAdjust="spacing" textLength="102.5908" x="2325.6377" y="807.3623">findByActive(true)</text><polygon fill="#181818" points="2329.6377,839.916,2319.6377,843.916,2329.6377,847.916,2325.6377,843.916" style="stroke:#181818;stroke-width:1.0;"/><line style="stroke:#181818;stroke-width:1.0;" x1="2323.6377" x2="2526.5366" y1="843.916" y2="843.916"/><text fill="#000000" font-family="sans-serif" font-size="13" lengthAdjust="spacing" textLength="179.8989" x="2335.6377" y="838.6533">listOfCustomerRepresentatives</text><polygon fill="#181818" points="1766.2139,871.207,1756.2139,875.207,1766.2139,879.207,1762.2139,875.207" style="stroke:#181818;stroke-width:1.0;"/><line style="stroke:#181818;stroke-width:1.0;" x1="1760.2139" x2="2312.6377" y1="875.207" y2="875.207"/><text fill="#000000" font-family="sans-serif" font-size="13" lengthAdjust="spacing" textLength="179.8989" x="1772.2139" y="869.9443">listOfCustomerRepresentatives</text><polygon fill="#181818" points="858.2515,902.498,848.2515,906.498,858.2515,910.498,854.2515,906.498" style="stroke:#181818;stroke-width:1.0;"/><line style="stroke:#181818;stroke-width:1.0;" x1="852.2515" x2="1749.2139" y1="906.498" y2="906.498"/><text fill="#000000" font-family="sans-serif" font-size="13" lengthAdjust="spacing" textLength="179.8989" x="864.2515" y="901.2354">listOfCustomerRepresentatives</text><polygon fill="#181818" points="535.1646,933.7891,525.1646,937.7891,535.1646,941.7891,531.1646,937.7891" style="stroke:#181818;stroke-width:1.0;"/><line style="stroke:#181818;stroke-width:1.0;" x1="529.1646" x2="841.2515" y1="937.7891" y2="937.7891"/><text fill="#000000" font-family="sans-serif" font-size="13" lengthAdjust="spacing" textLength="179.8989" x="541.1646" y="932.5264">listOfCustomerRepresentatives</text><polygon fill="#181818" points="80.0171,965.0801,70.0171,969.0801,80.0171,973.0801,76.0171,969.0801" style="stroke:#181818;stroke-width:1.0;"/><line style="stroke:#181818;stroke-width:1.0;" x1="74.0171" x2="518.1646" y1="969.0801" y2="969.0801"/><text fill="#000000" font-family="sans-serif" font-size="13" lengthAdjust="spacing" textLength="249.2915" x="86.0171" y="963.8174">Shows the list of the clients representatives</text><polygon fill="#181818" points="502.1646,996.3711,512.1646,1000.3711,502.1646,1004.3711,506.1646,1000.3711" style="stroke:#181818;stroke-width:1.0;"/><line style="stroke:#181818;stroke-width:1.0;" x1="69.0171" x2="508.1646" y1="1000.3711" y2="1000.3711"/><text fill="#000000" font-family="sans-serif" font-size="13" lengthAdjust="spacing" textLength="137.2935" x="76.0171" y="995.1084">selects a representative</text><polygon fill="#181818" points="825.2515,1027.6621,835.2515,1031.6621,825.2515,1035.6621,829.2515,1031.6621" style="stroke:#181818;stroke-width:1.0;"/><line style="stroke:#181818;stroke-width:1.0;" x1="524.1646" x2="831.2515" y1="1031.6621" y2="1031.6621"/><text fill="#000000" font-family="sans-serif" font-size="13" lengthAdjust="spacing" textLength="294.0869" x="531.1646" y="1026.3994">deactivateCustomerRepresentative(representative)</text><polygon fill="#181818" points="1733.2139,1058.9531,1743.2139,1062.9531,1733.2139,1066.9531,1737.2139,1062.9531" style="stroke:#181818;stroke-width:1.0;"/><line style="stroke:#181818;stroke-width:1.0;" x1="847.2515" x2="1739.2139" y1="1062.9531" y2="1062.9531"/><text fill="#000000" font-family="sans-serif" font-size="13" lengthAdjust="spacing" textLength="294.0869" x="854.2515" y="1057.6904">deactivateCustomerRepresentative(representative)</text><polygon fill="#181818" points="1993.4146,1090.2441,2003.4146,1094.2441,1993.4146,1098.2441,1997.4146,1094.2441" style="stroke:#181818;stroke-width:1.0;"/><line style="stroke:#181818;stroke-width:1.0;" x1="1755.2139" x2="1999.4146" y1="1094.2441" y2="1094.2441"/><text fill="#000000" font-family="sans-serif" font-size="13" lengthAdjust="spacing" textLength="231.2007" x="1762.2139" y="1088.9814">deactivate(CurrentTimeCalendars.now()</text><polygon fill="#181818" points="1766.2139,1104.2441,1756.2139,1108.2441,1766.2139,1112.2441,1762.2139,1108.2441" style="stroke:#181818;stroke-width:1.0;"/><line style="stroke:#181818;stroke-width:1.0;" x1="1760.2139" x2="2009.4146" y1="1108.2441" y2="1108.2441"/><polygon fill="#181818" points="2296.6377,1135.5352,2306.6377,1139.5352,2296.6377,1143.5352,2300.6377,1139.5352" style="stroke:#181818;stroke-width:1.0;"/><line style="stroke:#181818;stroke-width:1.0;" x1="1755.2139" x2="2302.6377" y1="1139.5352" y2="1139.5352"/><text fill="#000000" font-family="sans-serif" font-size="13" lengthAdjust="spacing" textLength="118.498" x="1762.2139" y="1134.2725">save(representative)</text><polygon fill="#181818" points="2510.5366,1166.8262,2520.5366,1170.8262,2510.5366,1174.8262,2514.5366,1170.8262" style="stroke:#181818;stroke-width:1.0;"/><line style="stroke:#181818;stroke-width:1.0;" x1="2318.6377" x2="2516.5366" y1="1170.8262" y2="1170.8262"/><text fill="#000000" font-family="sans-serif" font-size="13" lengthAdjust="spacing" textLength="36.1182" x="2325.6377" y="1165.5635">save()</text><polygon fill="#181818" points="2329.6377,1180.8262,2319.6377,1184.8262,2329.6377,1188.8262,2325.6377,1184.8262" style="stroke:#181818;stroke-width:1.0;"/><line style="stroke:#181818;stroke-width:1.0;" x1="2323.6377" x2="2526.5366" y1="1184.8262" y2="1184.8262"/><polygon fill="#181818" points="1766.2139,1194.8262,1756.2139,1198.8262,1766.2139,1202.8262,1762.2139,1198.8262" style="stroke:#181818;stroke-width:1.0;"/><line style="stroke:#181818;stroke-width:1.0;" x1="1760.2139" x2="2312.6377" y1="1198.8262" y2="1198.8262"/><polygon fill="#181818" points="858.2515,1208.8262,848.2515,1212.8262,858.2515,1216.8262,854.2515,1212.8262" style="stroke:#181818;stroke-width:1.0;"/><line style="stroke:#181818;stroke-width:1.0;" x1="852.2515" x2="1749.2139" y1="1212.8262" y2="1212.8262"/><polygon fill="#181818" points="535.1646,1222.8262,525.1646,1226.8262,535.1646,1230.8262,531.1646,1226.8262" style="stroke:#181818;stroke-width:1.0;"/><line style="stroke:#181818;stroke-width:1.0;" x1="529.1646" x2="841.2515" y1="1226.8262" y2="1226.8262"/><polygon fill="#181818" points="80.0171,1254.1172,70.0171,1258.1172,80.0171,1262.1172,76.0171,1258.1172" style="stroke:#181818;stroke-width:1.0;"/><line style="stroke:#181818;stroke-width:1.0;" x1="74.0171" x2="518.1646" y1="1258.1172" y2="1258.1172"/><text fill="#000000" font-family="sans-serif" font-size="13" lengthAdjust="spacing" textLength="396.7158" x="86.0171" y="1252.8545">disables the costumer representative and displays operation success</text><!--SRC=[nLTDJ-Cm4BtdLrYS2X8Sq9uGGYhPmrQ2hTJIyyeuKsgHs5cF0-h- -fquRRxgVBGBR4wfntxlZJtpwk2hL2atF669LbfiZ4w0MPD1W6KavUALly3IRcDW1eJbwYMkJy0DZ_IxL2zipME48E32QiFEmiKZ2tKSysTjE8sSCOvCcAG-5X24bKAcN5bszbqYVuvX0Qa116MvbMym5LPgvHPFmwVP_2UxlQtYMjtTZG1PpHp0QdRAub0hQqWq52c4Jui7Wk5f6alXHPbcTgED_EE2Ip1lKa2HW2UGGz5m6oFCqD9fc4UkQFSJqb87weps2slcvOSUc7CCWGUFbaSwuL9rvKlJDKegZMqZqMgO44pvev-_XTKLR2D6tF9dZa3bi7jpo_S_WY2mqb8pBBTe8M5B-9s1efsvPAlbzVKtrm3oZLiugFQ0qTCQP9Tt-yA-OLDyPLQpg2X3nfdGQ3FAdpglBju1bJJ5yW8zVtPm1BoQNLmGh310yxnnYk96lq_ENJG2BsWvk9fLBBIM4F9ky75KKOh54kt-9757rS3DvrN8-UDMvblZQHd71mep0tcODYKlHuXM2EO7nwdQpjUJXOu1hyY4VeNpXuVf_NmnVPelphqatUrqmzPIHTCupcs8hC2JH3EHBgHcTewyaxIcg5QbXPJxRQ5aajlq-G7eWP0Au511NKMDYEZtjJwEj45SjGdhU4hmhZppSfclMplkXQlLQp-lFys-SnydeYPWp8xtdtdLBFt47jA1UjiNkkltVe8wUAChYuvkkzSDMv9ze0DbUir4B4a4jjraRnmUytEQbX3JrG9pntC0OsodPInDUyU9s8qVPJT3_tvbFo1g8NFJsTDx-1gS0yY7jJ8avK2jpol6okoHEkGWdIAQFlB9HjAp5KMzTvJ9lzbAN-x3fNISi9geyGSqeeWQjZD6JAUGuqreYEv4Cw8xGMb8-VlEb5gNgADD2akJwhkDTPfLnUHFUz94_M3VEfdzYrsi8NKIPiPGv4ac4F8OLCGDNgdolZf2uvZ67R63uzlnWuqS-S3PVBvrEmbVvDR_qO-_s74_t5DFTytTzsPXd1sVd8ohA9-OndoBJATWt2SPmqm8G9-N_WK0]--></g></svg>