<svg xmlns="http://www.w3.org/2000/svg" xmlns:xlink="http://www.w3.org/1999/xlink" contentStyleType="text/css" height="459px" preserveAspectRatio="none" style="width:526px;height:459px;background:#FFFFFF;" version="1.1" viewBox="0 0 526 459" width="526px" zoomAndPan="magnify"><title>System Sequence Diagram - US224</title><defs/><g><text fill="#000000" font-family="sans-serif" font-size="14" font-weight="bold" lengthAdjust="spacing" textLength="234.9922" x="141.7876" y="30.1074">System Sequence Diagram - US224</text><rect fill="#FFFFFF" height="234.0371" style="stroke:#181818;stroke-width:1.0;" width="10" x="48.5137" y="133.2422"/><rect fill="#FFFFFF" height="31.291" style="stroke:#181818;stroke-width:1.0;" width="10" x="479.2295" y="201.8242"/><rect fill="#FFFFFF" height="31.291" style="stroke:#181818;stroke-width:1.0;" width="10" x="479.2295" y="264.4063"/><rect fill="#FFFFFF" height="31.291" style="stroke:#181818;stroke-width:1.0;" width="10" x="479.2295" y="326.9883"/><line style="stroke:#181818;stroke-width:0.5;stroke-dasharray:5.0,5.0;" x1="53" x2="53" y1="123.2422" y2="376.2793"/><line style="stroke:#181818;stroke-width:0.5;stroke-dasharray:5.0,5.0;" x1="483.8916" x2="483.8916" y1="123.2422" y2="376.2793"/><text fill="#000000" font-family="sans-serif" font-size="14" lengthAdjust="spacing" textLength="91.0273" x="5" y="119.7285">CRM Manager</text><ellipse cx="53.5137" cy="53.1211" fill="#E3E3E3" rx="8" ry="8" style="stroke:#181818;stroke-width:0.5;"/><path d="M53.5137,61.1211 L53.5137,88.1211 M40.5137,69.1211 L66.5137,69.1211 M53.5137,88.1211 L40.5137,103.1211 M53.5137,88.1211 L66.5137,103.1211 " fill="none" style="stroke:#181818;stroke-width:0.5;"/><text fill="#000000" font-family="sans-serif" font-size="14" lengthAdjust="spacing" textLength="91.0273" x="5" y="390.3867">CRM Manager</text><ellipse cx="53.5137" cy="402.4004" fill="#E3E3E3" rx="8" ry="8" style="stroke:#181818;stroke-width:0.5;"/><path d="M53.5137,410.4004 L53.5137,437.4004 M40.5137,418.4004 L66.5137,418.4004 M53.5137,437.4004 L40.5137,452.4004 M53.5137,437.4004 L66.5137,452.4004 " fill="none" style="stroke:#181818;stroke-width:0.5;"/><rect fill="#E3E3E3" height="32.6211" rx="2.5" ry="2.5" style="stroke:#181818;stroke-width:0.5;" width="60.6758" x="453.8916" y="89.6211"/><text fill="#000000" font-family="sans-serif" font-size="14" lengthAdjust="spacing" textLength="46.6758" x="460.8916" y="111.7285">System</text><rect fill="#E3E3E3" height="32.6211" rx="2.5" ry="2.5" style="stroke:#181818;stroke-width:0.5;" width="60.6758" x="453.8916" y="375.2793"/><text fill="#000000" font-family="sans-serif" font-size="14" lengthAdjust="spacing" textLength="46.6758" x="460.8916" y="397.3867">System</text><rect fill="#FFFFFF" height="234.0371" style="stroke:#181818;stroke-width:1.0;" width="10" x="48.5137" y="133.2422"/><rect fill="#FFFFFF" height="31.291" style="stroke:#181818;stroke-width:1.0;" width="10" x="479.2295" y="201.8242"/><rect fill="#FFFFFF" height="31.291" style="stroke:#181818;stroke-width:1.0;" width="10" x="479.2295" y="264.4063"/><rect fill="#FFFFFF" height="31.291" style="stroke:#181818;stroke-width:1.0;" width="10" x="479.2295" y="326.9883"/><rect fill="#EEEEEE" height="3" style="stroke:#EEEEEE;stroke-width:1.0;" width="519.5674" x="0" y="154.8877"/><line style="stroke:#000000;stroke-width:1.0;" x1="0" x2="519.5674" y1="154.8877" y2="154.8877"/><line style="stroke:#000000;stroke-width:1.0;" x1="0" x2="519.5674" y1="157.8877" y2="157.8877"/><rect fill="#EEEEEE" height="25.291" style="stroke:#000000;stroke-width:2.0;" width="229.3188" x="145.1243" y="143.2422"/><text fill="#000000" font-family="sans-serif" font-size="13" font-weight="bold" lengthAdjust="spacing" textLength="211.707" x="151.1243" y="161.2705">Disable a costumer representative</text><polygon fill="#181818" points="467.2295,197.8242,477.2295,201.8242,467.2295,205.8242,471.2295,201.8242" style="stroke:#181818;stroke-width:1.0;"/><line style="stroke:#181818;stroke-width:1.0;" x1="58.5137" x2="473.2295" y1="201.8242" y2="201.8242"/><text fill="#000000" font-family="sans-serif" font-size="13" lengthAdjust="spacing" textLength="234.8379" x="65.5137" y="196.5615">Ask to disable a costumer representative</text><polygon fill="#181818" points="69.5137,229.1152,59.5137,233.1152,69.5137,237.1152,65.5137,233.1152" style="stroke:#181818;stroke-width:1.0;"/><line style="stroke:#181818;stroke-width:1.0;" x1="63.5137" x2="483.2295" y1="233.1152" y2="233.1152"/><text fill="#000000" font-family="sans-serif" font-size="13" lengthAdjust="spacing" textLength="113.4326" x="75.5137" y="227.8525">Shows list of clients</text><polygon fill="#181818" points="467.2295,260.4063,477.2295,264.4063,467.2295,268.4063,471.2295,264.4063" style="stroke:#181818;stroke-width:1.0;"/><line style="stroke:#181818;stroke-width:1.0;" x1="58.5137" x2="473.2295" y1="264.4063" y2="264.4063"/><text fill="#000000" font-family="sans-serif" font-size="13" lengthAdjust="spacing" textLength="87.4326" x="65.5137" y="259.1436">Selects a client</text><polygon fill="#181818" points="69.5137,291.6973,59.5137,295.6973,69.5137,299.6973,65.5137,295.6973" style="stroke:#181818;stroke-width:1.0;"/><line style="stroke:#181818;stroke-width:1.0;" x1="63.5137" x2="483.2295" y1="295.6973" y2="295.6973"/><text fill="#000000" font-family="sans-serif" font-size="13" lengthAdjust="spacing" textLength="249.2915" x="75.5137" y="290.4346">Shows the list of the clients representatives</text><polygon fill="#181818" points="467.2295,322.9883,477.2295,326.9883,467.2295,330.9883,471.2295,326.9883" style="stroke:#181818;stroke-width:1.0;"/><line style="stroke:#181818;stroke-width:1.0;" x1="58.5137" x2="473.2295" y1="326.9883" y2="326.9883"/><text fill="#000000" font-family="sans-serif" font-size="13" lengthAdjust="spacing" textLength="137.2935" x="65.5137" y="321.7256">selects a representative</text><polygon fill="#181818" points="69.5137,354.2793,59.5137,358.2793,69.5137,362.2793,65.5137,358.2793" style="stroke:#181818;stroke-width:1.0;"/><line style="stroke:#181818;stroke-width:1.0;" x1="63.5137" x2="483.2295" y1="358.2793" y2="358.2793"/><text fill="#000000" font-family="sans-serif" font-size="13" lengthAdjust="spacing" textLength="396.7158" x="75.5137" y="353.0166">disables the costumer representative and displays operation success</text><!--SRC=[hP7FJiCm3CRlUOfFlUyoSPfK90JNNQXu09DwRTGqAR6xQMzFsfKo8IOa82V__VnpB9qB0oNgqSSGRPjYpz0qif4rCv3jgE5ApvwHs2g5nbyNI4jrFBdGu41Us1Yo6XEAn-SzzXHoRof00flwnJMvKPrr0mL5KPr5kPzBP3QDKQTvs2M1Yjz63fRnvAYP1cxmKcstTyQKPOu9lUPQWesYOyyfCmw9XOEIkYEZB2SWToJbQmI3_3vzREwNwTZXGJfeHFsJzgonYd_0OtcBN1Q-6hD3rSQJm3jHn0EiTrbDvgQQlzMw0LcnpyUGYMxM-0ECjhm2JVO2zMNRtq3A2laFFxVSuy9xwzmKwgbmy7GMn85J3iS06QrbkRN2Em00]--></g></svg>