<svg xmlns="http://www.w3.org/2000/svg" xmlns:xlink="http://www.w3.org/1999/xlink" contentStyleType="text/css" height="1635px" preserveAspectRatio="none" style="width:2449px;height:1635px;background:#FFFFFF;" version="1.1" viewBox="0 0 2449 1635" width="2449px" zoomAndPan="magnify"><title>System Sequence Diagram - US236</title><defs/><g><text fill="#000000" font-family="sans-serif" font-size="14" font-weight="bold" lengthAdjust="spacing" textLength="234.9922" x="1108.6506" y="30.1074">System Sequence Diagram - US236</text><rect fill="#FFFFFF" height="1410.0859" style="stroke:#181818;stroke-width:1.0;" width="10" x="74.0171" y="133.2422"/><rect fill="#FFFFFF" height="74.9121" style="stroke:#181818;stroke-width:1.0;" width="10" x="255.4878" y="156.5332"/><rect fill="#FFFFFF" height="406.1035" style="stroke:#181818;stroke-width:1.0;" width="10" x="506.1738" y="231.4453"/><rect fill="#FFFFFF" height="281.6191" style="stroke:#181818;stroke-width:1.0;" width="10" x="506.1738" y="668.8398"/><rect fill="#FFFFFF" height="74.873" style="stroke:#181818;stroke-width:1.0;" width="10" x="506.1738" y="981.75"/><rect fill="#FFFFFF" height="31.291" style="stroke:#181818;stroke-width:1.0;" width="10" x="506.1738" y="1087.9141"/><rect fill="#FFFFFF" height="383.832" style="stroke:#181818;stroke-width:1.0;" width="10" x="506.1738" y="1150.4961"/><rect fill="#FFFFFF" height="281.2793" style="stroke:#181818;stroke-width:1.0;" width="10" x="825.6807" y="324.9785"/><rect fill="#FFFFFF" height="219.0371" style="stroke:#181818;stroke-width:1.0;" width="10" x="825.6807" y="700.1309"/><rect fill="#FFFFFF" height="264.3281" style="stroke:#181818;stroke-width:1.0;" width="10" x="825.6807" y="1208.0781"/><rect fill="#FFFFFF" height="156.4551" style="stroke:#181818;stroke-width:1.0;" width="10" x="1503.8198" y="418.5117"/><rect fill="#FFFFFF" height="156.4551" style="stroke:#181818;stroke-width:1.0;" width="10" x="1730.1431" y="731.4219"/><rect fill="#FFFFFF" height="201.7461" style="stroke:#181818;stroke-width:1.0;" width="10" x="1730.1431" y="1239.3691"/><rect fill="#FFFFFF" height="14" style="stroke:#181818;stroke-width:1.0;" width="10" x="1905.5078" y="1270.6602"/><rect fill="#FFFFFF" height="93.873" style="stroke:#181818;stroke-width:1.0;" width="10" x="2036.8901" y="449.8027"/><rect fill="#FFFFFF" height="93.873" style="stroke:#181818;stroke-width:1.0;" width="10" x="2201.731" y="762.7129"/><rect fill="#FFFFFF" height="93.873" style="stroke:#181818;stroke-width:1.0;" width="10" x="2201.731" y="1315.9512"/><rect fill="#FFFFFF" height="31.291" style="stroke:#181818;stroke-width:1.0;" width="10" x="2385.3281" y="481.0938"/><rect fill="#FFFFFF" height="31.291" style="stroke:#181818;stroke-width:1.0;" width="10" x="2385.3281" y="794.0039"/><rect fill="#FFFFFF" height="31.291" style="stroke:#181818;stroke-width:1.0;" width="10" x="2385.3281" y="1347.2422"/><rect fill="none" height="507.2871" style="stroke:#000000;stroke-width:1.5;" width="2433.2935" x="10" y="996.75"/><rect fill="none" height="331.541" style="stroke:#000000;stroke-width:1.5;" width="2001.7642" x="431.5293" y="1165.4961"/><line style="stroke:#181818;stroke-width:0.5;stroke-dasharray:5.0,5.0;" x1="79" x2="79" y1="123.2422" y2="1552.3281"/><line style="stroke:#181818;stroke-width:0.5;stroke-dasharray:5.0,5.0;" x1="260.3882" x2="260.3882" y1="123.2422" y2="1552.3281"/><line style="stroke:#181818;stroke-width:0.5;stroke-dasharray:5.0,5.0;" x1="510.5293" x2="510.5293" y1="196.3438" y2="1552.3281"/><line style="stroke:#181818;stroke-width:0.5;stroke-dasharray:5.0,5.0;" x1="829.6914" x2="829.6914" y1="280.5664" y2="1552.3281"/><line style="stroke:#181818;stroke-width:0.5;stroke-dasharray:5.0,5.0;" x1="1325.8794" x2="1325.8794" y1="374.0996" y2="1552.3281"/><line style="stroke:#181818;stroke-width:0.5;stroke-dasharray:5.0,5.0;" x1="1508.2788" x2="1508.2788" y1="123.2422" y2="1552.3281"/><line style="stroke:#181818;stroke-width:0.5;stroke-dasharray:5.0,5.0;" x1="1734.3608" x2="1734.3608" y1="123.2422" y2="1552.3281"/><line style="stroke:#181818;stroke-width:0.5;stroke-dasharray:5.0,5.0;" x1="1909.9253" x2="1909.9253" y1="123.2422" y2="1552.3281"/><line style="stroke:#181818;stroke-width:0.5;stroke-dasharray:5.0,5.0;" x1="2041.0903" x2="2041.0903" y1="123.2422" y2="1552.3281"/><line style="stroke:#181818;stroke-width:0.5;stroke-dasharray:5.0,5.0;" x1="2206.6899" x2="2206.6899" y1="123.2422" y2="1552.3281"/><line style="stroke:#181818;stroke-width:0.5;stroke-dasharray:5.0,5.0;" x1="2389.3628" x2="2389.3628" y1="123.2422" y2="1552.3281"/><text fill="#000000" font-family="sans-serif" font-size="14" lengthAdjust="spacing" textLength="112.0342" x="20" y="119.7285">CRM Collaborator</text><ellipse cx="79.0171" cy="53.1211" fill="#E3E3E3" rx="8" ry="8" style="stroke:#181818;stroke-width:0.5;"/><path d="M79.0171,61.1211 L79.0171,88.1211 M66.0171,69.1211 L92.0171,69.1211 M79.0171,88.1211 L66.0171,103.1211 M79.0171,88.1211 L92.0171,103.1211 " fill="none" style="stroke:#181818;stroke-width:0.5;"/><text fill="#000000" font-family="sans-serif" font-size="14" lengthAdjust="spacing" textLength="112.0342" x="20" y="1566.4355">CRM Collaborator</text><ellipse cx="79.0171" cy="1578.4492" fill="#E3E3E3" rx="8" ry="8" style="stroke:#181818;stroke-width:0.5;"/><path d="M79.0171,1586.4492 L79.0171,1613.4492 M66.0171,1594.4492 L92.0171,1594.4492 M79.0171,1613.4492 L66.0171,1628.4492 M79.0171,1613.4492 L92.0171,1628.4492 " fill="none" style="stroke:#181818;stroke-width:0.5;"/><rect fill="#E3E3E3" height="32.6211" rx="2.5" ry="2.5" style="stroke:#181818;stroke-width:0.5;" width="164.1992" x="178.3882" y="89.6211"/><text fill="#000000" font-family="sans-serif" font-size="14" lengthAdjust="spacing" textLength="150.1992" x="185.3882" y="111.7285">EditShowRequestAction</text><rect fill="#E3E3E3" height="32.6211" rx="2.5" ry="2.5" style="stroke:#181818;stroke-width:0.5;" width="164.1992" x="178.3882" y="1551.3281"/><text fill="#000000" font-family="sans-serif" font-size="14" lengthAdjust="spacing" textLength="150.1992" x="185.3882" y="1573.4355">EditShowRequestAction</text><rect fill="#E3E3E3" height="32.6211" rx="2.5" ry="2.5" style="stroke:#181818;stroke-width:0.5;" width="139.2891" x="441.5293" y="1551.3281"/><text fill="#000000" font-family="sans-serif" font-size="14" lengthAdjust="spacing" textLength="125.2891" x="448.5293" y="1573.4355">EditShowRequestUI</text><rect fill="#E3E3E3" height="51.2422" rx="2.5" ry="2.5" style="stroke:#181818;stroke-width:0.5;" width="185.9785" x="737.6914" y="1551.3281"/><text fill="#000000" font-family="sans-serif" font-size="14" font-style="italic" lengthAdjust="spacing" textLength="82.5098" x="789.4258" y="1573.4355">&#171;application&#187;</text><text fill="#000000" font-family="sans-serif" font-size="14" lengthAdjust="spacing" textLength="171.9785" x="744.6914" y="1592.0566">EditShowRequestController</text><rect fill="#E3E3E3" height="51.2422" rx="2.5" ry="2.5" style="stroke:#181818;stroke-width:0.5;" width="142.3994" x="1254.8794" y="1551.3281"/><text fill="#000000" font-family="sans-serif" font-size="14" font-style="italic" lengthAdjust="spacing" textLength="42.8203" x="1304.6689" y="1573.4355">&#171;auth&#187;</text><text fill="#000000" font-family="sans-serif" font-size="14" lengthAdjust="spacing" textLength="128.3994" x="1261.8794" y="1592.0566">AuthorizationService</text><rect fill="#E3E3E3" height="51.2422" rx="2.5" ry="2.5" style="stroke:#181818;stroke-width:0.5;" width="203.082" x="1407.2788" y="71"/><text fill="#000000" font-family="sans-serif" font-size="14" font-style="italic" lengthAdjust="spacing" textLength="82.5098" x="1467.5649" y="93.1074">&#171;application&#187;</text><text fill="#000000" font-family="sans-serif" font-size="14" lengthAdjust="spacing" textLength="189.082" x="1414.2788" y="111.7285">CustomerManagementService</text><rect fill="#E3E3E3" height="51.2422" rx="2.5" ry="2.5" style="stroke:#181818;stroke-width:0.5;" width="203.082" x="1407.2788" y="1551.3281"/><text fill="#000000" font-family="sans-serif" font-size="14" font-style="italic" lengthAdjust="spacing" textLength="82.5098" x="1467.5649" y="1573.4355">&#171;application&#187;</text><text fill="#000000" font-family="sans-serif" font-size="14" lengthAdjust="spacing" textLength="189.082" x="1414.2788" y="1592.0566">CustomerManagementService</text><rect fill="#E3E3E3" height="51.2422" rx="2.5" ry="2.5" style="stroke:#181818;stroke-width:0.5;" width="229.5645" x="1620.3608" y="71"/><text fill="#000000" font-family="sans-serif" font-size="14" font-style="italic" lengthAdjust="spacing" textLength="82.5098" x="1693.8882" y="93.1074">&#171;application&#187;</text><text fill="#000000" font-family="sans-serif" font-size="14" lengthAdjust="spacing" textLength="215.5645" x="1627.3608" y="111.7285">ShowRequestManagementService</text><rect fill="#E3E3E3" height="51.2422" rx="2.5" ry="2.5" style="stroke:#181818;stroke-width:0.5;" width="229.5645" x="1620.3608" y="1551.3281"/><text fill="#000000" font-family="sans-serif" font-size="14" font-style="italic" lengthAdjust="spacing" textLength="82.5098" x="1693.8882" y="1573.4355">&#171;application&#187;</text><text fill="#000000" font-family="sans-serif" font-size="14" lengthAdjust="spacing" textLength="215.5645" x="1627.3608" y="1592.0566">ShowRequestManagementService</text><rect fill="#E3E3E3" height="51.2422" rx="2.5" ry="2.5" style="stroke:#181818;stroke-width:0.5;" width="101.165" x="1859.9253" y="71"/><text fill="#000000" font-family="sans-serif" font-size="14" font-style="italic" lengthAdjust="spacing" textLength="61.4893" x="1879.7632" y="93.1074">&#171;domain&#187;</text><text fill="#000000" font-family="sans-serif" font-size="14" lengthAdjust="spacing" textLength="87.165" x="1866.9253" y="111.7285">ShowRequest</text><rect fill="#E3E3E3" height="51.2422" rx="2.5" ry="2.5" style="stroke:#181818;stroke-width:0.5;" width="101.165" x="1859.9253" y="1551.3281"/><text fill="#000000" font-family="sans-serif" font-size="14" font-style="italic" lengthAdjust="spacing" textLength="61.4893" x="1879.7632" y="1573.4355">&#171;domain&#187;</text><text fill="#000000" font-family="sans-serif" font-size="14" lengthAdjust="spacing" textLength="87.165" x="1866.9253" y="1592.0566">ShowRequest</text><rect fill="#E3E3E3" height="51.2422" rx="2.5" ry="2.5" style="stroke:#181818;stroke-width:0.5;" width="141.5996" x="1971.0903" y="71"/><text fill="#000000" font-family="sans-serif" font-size="14" font-style="italic" lengthAdjust="spacing" textLength="77.041" x="2003.3696" y="93.1074">&#171;repository&#187;</text><text fill="#000000" font-family="sans-serif" font-size="14" lengthAdjust="spacing" textLength="127.5996" x="1978.0903" y="111.7285">CustomerRepository</text><rect fill="#E3E3E3" height="51.2422" rx="2.5" ry="2.5" style="stroke:#181818;stroke-width:0.5;" width="141.5996" x="1971.0903" y="1551.3281"/><text fill="#000000" font-family="sans-serif" font-size="14" font-style="italic" lengthAdjust="spacing" textLength="77.041" x="2003.3696" y="1573.4355">&#171;repository&#187;</text><text fill="#000000" font-family="sans-serif" font-size="14" lengthAdjust="spacing" textLength="127.5996" x="1978.0903" y="1592.0566">CustomerRepository</text><rect fill="#E3E3E3" height="51.2422" rx="2.5" ry="2.5" style="stroke:#181818;stroke-width:0.5;" width="168.082" x="2122.6899" y="71"/><text fill="#000000" font-family="sans-serif" font-size="14" font-style="italic" lengthAdjust="spacing" textLength="77.041" x="2168.2104" y="93.1074">&#171;repository&#187;</text><text fill="#000000" font-family="sans-serif" font-size="14" lengthAdjust="spacing" textLength="154.082" x="2129.6899" y="111.7285">ShowRequestRepository</text><rect fill="#E3E3E3" height="51.2422" rx="2.5" ry="2.5" style="stroke:#181818;stroke-width:0.5;" width="168.082" x="2122.6899" y="1551.3281"/><text fill="#000000" font-family="sans-serif" font-size="14" font-style="italic" lengthAdjust="spacing" textLength="77.041" x="2168.2104" y="1573.4355">&#171;repository&#187;</text><text fill="#000000" font-family="sans-serif" font-size="14" lengthAdjust="spacing" textLength="154.082" x="2129.6899" y="1592.0566">ShowRequestRepository</text><text fill="#000000" font-family="sans-serif" font-size="14" lengthAdjust="spacing" textLength="59.9307" x="2357.3628" y="119.7285">Database</text><path d="M2372.3281,68.6211 C2372.3281,58.6211 2390.3281,58.6211 2390.3281,58.6211 C2390.3281,58.6211 2408.3281,58.6211 2408.3281,68.6211 L2408.3281,94.6211 C2408.3281,104.6211 2390.3281,104.6211 2390.3281,104.6211 C2390.3281,104.6211 2372.3281,104.6211 2372.3281,94.6211 L2372.3281,68.6211 " fill="#E3E3E3" style="stroke:#181818;stroke-width:1.5;"/><path d="M2372.3281,68.6211 C2372.3281,78.6211 2390.3281,78.6211 2390.3281,78.6211 C2390.3281,78.6211 2408.3281,78.6211 2408.3281,68.6211 " fill="none" style="stroke:#181818;stroke-width:1.5;"/><text fill="#000000" font-family="sans-serif" font-size="14" lengthAdjust="spacing" textLength="59.9307" x="2357.3628" y="1566.4355">Database</text><path d="M2372.3281,1579.9492 C2372.3281,1569.9492 2390.3281,1569.9492 2390.3281,1569.9492 C2390.3281,1569.9492 2408.3281,1569.9492 2408.3281,1579.9492 L2408.3281,1605.9492 C2408.3281,1615.9492 2390.3281,1615.9492 2390.3281,1615.9492 C2390.3281,1615.9492 2372.3281,1615.9492 2372.3281,1605.9492 L2372.3281,1579.9492 " fill="#E3E3E3" style="stroke:#181818;stroke-width:1.5;"/><path d="M2372.3281,1579.9492 C2372.3281,1589.9492 2390.3281,1589.9492 2390.3281,1589.9492 C2390.3281,1589.9492 2408.3281,1589.9492 2408.3281,1579.9492 " fill="none" style="stroke:#181818;stroke-width:1.5;"/><rect fill="#FFFFFF" height="1410.0859" style="stroke:#181818;stroke-width:1.0;" width="10" x="74.0171" y="133.2422"/><rect fill="#FFFFFF" height="74.9121" style="stroke:#181818;stroke-width:1.0;" width="10" x="255.4878" y="156.5332"/><rect fill="#FFFFFF" height="406.1035" style="stroke:#181818;stroke-width:1.0;" width="10" x="506.1738" y="231.4453"/><rect fill="#FFFFFF" height="281.6191" style="stroke:#181818;stroke-width:1.0;" width="10" x="506.1738" y="668.8398"/><rect fill="#FFFFFF" height="74.873" style="stroke:#181818;stroke-width:1.0;" width="10" x="506.1738" y="981.75"/><rect fill="#FFFFFF" height="31.291" style="stroke:#181818;stroke-width:1.0;" width="10" x="506.1738" y="1087.9141"/><rect fill="#FFFFFF" height="383.832" style="stroke:#181818;stroke-width:1.0;" width="10" x="506.1738" y="1150.4961"/><rect fill="#FFFFFF" height="281.2793" style="stroke:#181818;stroke-width:1.0;" width="10" x="825.6807" y="324.9785"/><rect fill="#FFFFFF" height="219.0371" style="stroke:#181818;stroke-width:1.0;" width="10" x="825.6807" y="700.1309"/><rect fill="#FFFFFF" height="264.3281" style="stroke:#181818;stroke-width:1.0;" width="10" x="825.6807" y="1208.0781"/><rect fill="#FFFFFF" height="156.4551" style="stroke:#181818;stroke-width:1.0;" width="10" x="1503.8198" y="418.5117"/><rect fill="#FFFFFF" height="156.4551" style="stroke:#181818;stroke-width:1.0;" width="10" x="1730.1431" y="731.4219"/><rect fill="#FFFFFF" height="201.7461" style="stroke:#181818;stroke-width:1.0;" width="10" x="1730.1431" y="1239.3691"/><rect fill="#FFFFFF" height="14" style="stroke:#181818;stroke-width:1.0;" width="10" x="1905.5078" y="1270.6602"/><rect fill="#FFFFFF" height="93.873" style="stroke:#181818;stroke-width:1.0;" width="10" x="2036.8901" y="449.8027"/><rect fill="#FFFFFF" height="93.873" style="stroke:#181818;stroke-width:1.0;" width="10" x="2201.731" y="762.7129"/><rect fill="#FFFFFF" height="93.873" style="stroke:#181818;stroke-width:1.0;" width="10" x="2201.731" y="1315.9512"/><rect fill="#FFFFFF" height="31.291" style="stroke:#181818;stroke-width:1.0;" width="10" x="2385.3281" y="481.0938"/><rect fill="#FFFFFF" height="31.291" style="stroke:#181818;stroke-width:1.0;" width="10" x="2385.3281" y="794.0039"/><rect fill="#FFFFFF" height="31.291" style="stroke:#181818;stroke-width:1.0;" width="10" x="2385.3281" y="1347.2422"/><polygon fill="#181818" points="243.4878,152.5332,253.4878,156.5332,243.4878,160.5332,247.4878,156.5332" style="stroke:#181818;stroke-width:1.0;"/><line style="stroke:#181818;stroke-width:1.0;" x1="84.0171" x2="249.4878" y1="156.5332" y2="156.5332"/><text fill="#000000" font-family="sans-serif" font-size="13" lengthAdjust="spacing" textLength="152.4707" x="91.0171" y="151.2705">Ask to edit a show request</text><polygon fill="#181818" points="429.5293,183.8242,439.5293,187.8242,429.5293,191.8242,433.5293,187.8242" style="stroke:#181818;stroke-width:1.0;"/><line style="stroke:#181818;stroke-width:1.0;" x1="265.4878" x2="435.5293" y1="187.8242" y2="187.8242"/><text fill="#000000" font-family="sans-serif" font-size="13" lengthAdjust="spacing" textLength="36.1309" x="272.4878" y="182.5615">create</text><rect fill="#E3E3E3" height="32.6211" rx="2.5" ry="2.5" style="stroke:#181818;stroke-width:0.5;" width="139.2891" x="441.5293" y="164.5332"/><text fill="#000000" font-family="sans-serif" font-size="14" lengthAdjust="spacing" textLength="125.2891" x="448.5293" y="186.6406">EditShowRequestUI</text><polygon fill="#181818" points="494.1738,227.4453,504.1738,231.4453,494.1738,235.4453,498.1738,231.4453" style="stroke:#181818;stroke-width:1.0;"/><line style="stroke:#181818;stroke-width:1.0;" x1="260.4878" x2="500.1738" y1="231.4453" y2="231.4453"/><text fill="#000000" font-family="sans-serif" font-size="13" lengthAdjust="spacing" textLength="39.0063" x="267.4878" y="226.1826">show()</text><polygon fill="#181818" points="725.6914,258.7363,735.6914,262.7363,725.6914,266.7363,729.6914,262.7363" style="stroke:#181818;stroke-width:1.0;"/><line style="stroke:#181818;stroke-width:1.0;" x1="516.1738" x2="731.6914" y1="262.7363" y2="262.7363"/><text fill="#000000" font-family="sans-serif" font-size="13" lengthAdjust="spacing" textLength="36.1309" x="523.1738" y="257.4736">create</text><rect fill="#E3E3E3" height="51.2422" rx="2.5" ry="2.5" style="stroke:#181818;stroke-width:0.5;" width="185.9785" x="737.6914" y="239.4453"/><text fill="#000000" font-family="sans-serif" font-size="14" font-style="italic" lengthAdjust="spacing" textLength="82.5098" x="789.4258" y="261.5527">&#171;application&#187;</text><text fill="#000000" font-family="sans-serif" font-size="14" lengthAdjust="spacing" textLength="171.9785" x="744.6914" y="280.1738">EditShowRequestController</text><polygon fill="#181818" points="813.6807,320.9785,823.6807,324.9785,813.6807,328.9785,817.6807,324.9785" style="stroke:#181818;stroke-width:1.0;"/><line style="stroke:#181818;stroke-width:1.0;" x1="516.1738" x2="819.6807" y1="324.9785" y2="324.9785"/><text fill="#000000" font-family="sans-serif" font-size="13" lengthAdjust="spacing" textLength="87.3945" x="523.1738" y="319.7158">listCustomers()</text><polygon fill="#181818" points="1242.8794,352.2695,1252.8794,356.2695,1242.8794,360.2695,1246.8794,356.2695" style="stroke:#181818;stroke-width:1.0;"/><line style="stroke:#181818;stroke-width:1.0;" x1="835.6807" x2="1248.8794" y1="356.2695" y2="356.2695"/><text fill="#000000" font-family="sans-serif" font-size="13" lengthAdjust="spacing" textLength="395.1987" x="842.6807" y="351.0068">ensureAuthenticatedUserHasAnyOf(Roles.CRM_COLLABORATOR)</text><rect fill="#E3E3E3" height="51.2422" rx="2.5" ry="2.5" style="stroke:#181818;stroke-width:0.5;" width="142.3994" x="1254.8794" y="332.9785"/><text fill="#000000" font-family="sans-serif" font-size="14" font-style="italic" lengthAdjust="spacing" textLength="42.8203" x="1304.6689" y="355.0859">&#171;auth&#187;</text><text fill="#000000" font-family="sans-serif" font-size="14" lengthAdjust="spacing" textLength="128.3994" x="1261.8794" y="373.707">AuthorizationService</text><polygon fill="#181818" points="1491.8198,414.5117,1501.8198,418.5117,1491.8198,422.5117,1495.8198,418.5117" style="stroke:#181818;stroke-width:1.0;"/><line style="stroke:#181818;stroke-width:1.0;" x1="835.6807" x2="1497.8198" y1="418.5117" y2="418.5117"/><text fill="#000000" font-family="sans-serif" font-size="13" lengthAdjust="spacing" textLength="142.3145" x="842.6807" y="413.249">findAllActiveCustomers()</text><polygon fill="#181818" points="2024.8901,445.8027,2034.8901,449.8027,2024.8901,453.8027,2028.8901,449.8027" style="stroke:#181818;stroke-width:1.0;"/><line style="stroke:#181818;stroke-width:1.0;" x1="1513.8198" x2="2030.8901" y1="449.8027" y2="449.8027"/><text fill="#000000" font-family="sans-serif" font-size="13" lengthAdjust="spacing" textLength="102.5908" x="1520.8198" y="444.54">findByActive(true)</text><polygon fill="#181818" points="2373.3281,477.0938,2383.3281,481.0938,2373.3281,485.0938,2377.3281,481.0938" style="stroke:#181818;stroke-width:1.0;"/><line style="stroke:#181818;stroke-width:1.0;" x1="2046.8901" x2="2379.3281" y1="481.0938" y2="481.0938"/><text fill="#000000" font-family="sans-serif" font-size="13" lengthAdjust="spacing" textLength="102.5908" x="2053.8901" y="475.8311">findByActive(true)</text><polygon fill="#181818" points="2057.8901,508.3848,2047.8901,512.3848,2057.8901,516.3848,2053.8901,512.3848" style="stroke:#181818;stroke-width:1.0;"/><line style="stroke:#181818;stroke-width:1.0;" x1="2051.8901" x2="2389.3281" y1="512.3848" y2="512.3848"/><text fill="#000000" font-family="sans-serif" font-size="13" lengthAdjust="spacing" textLength="104.749" x="2063.8901" y="507.1221">listOfActiveClients</text><polygon fill="#181818" points="1524.8198,539.6758,1514.8198,543.6758,1524.8198,547.6758,1520.8198,543.6758" style="stroke:#181818;stroke-width:1.0;"/><line style="stroke:#181818;stroke-width:1.0;" x1="1518.8198" x2="2040.8901" y1="543.6758" y2="543.6758"/><text fill="#000000" font-family="sans-serif" font-size="13" lengthAdjust="spacing" textLength="104.749" x="1530.8198" y="538.4131">listOfActiveClients</text><polygon fill="#181818" points="846.6807,570.9668,836.6807,574.9668,846.6807,578.9668,842.6807,574.9668" style="stroke:#181818;stroke-width:1.0;"/><line style="stroke:#181818;stroke-width:1.0;" x1="840.6807" x2="1507.8198" y1="574.9668" y2="574.9668"/><text fill="#000000" font-family="sans-serif" font-size="13" lengthAdjust="spacing" textLength="104.749" x="852.6807" y="569.7041">listOfActiveClients</text><polygon fill="#181818" points="527.1738,602.2578,517.1738,606.2578,527.1738,610.2578,523.1738,606.2578" style="stroke:#181818;stroke-width:1.0;"/><line style="stroke:#181818;stroke-width:1.0;" x1="521.1738" x2="829.6807" y1="606.2578" y2="606.2578"/><text fill="#000000" font-family="sans-serif" font-size="13" lengthAdjust="spacing" textLength="104.749" x="533.1738" y="600.9951">listOfActiveClients</text><polygon fill="#181818" points="95.0171,633.5488,85.0171,637.5488,95.0171,641.5488,91.0171,637.5488" style="stroke:#181818;stroke-width:1.0;"/><line style="stroke:#181818;stroke-width:1.0;" x1="89.0171" x2="510.1738" y1="637.5488" y2="637.5488"/><text fill="#000000" font-family="sans-serif" font-size="13" lengthAdjust="spacing" textLength="143.0635" x="101.0171" y="632.2861">displays the list of clients</text><polygon fill="#181818" points="494.1738,664.8398,504.1738,668.8398,494.1738,672.8398,498.1738,668.8398" style="stroke:#181818;stroke-width:1.0;"/><line style="stroke:#181818;stroke-width:1.0;" x1="84.0171" x2="500.1738" y1="668.8398" y2="668.8398"/><text fill="#000000" font-family="sans-serif" font-size="13" lengthAdjust="spacing" textLength="98.2744" x="91.0171" y="663.5771">Selects the client</text><polygon fill="#181818" points="813.6807,696.1309,823.6807,700.1309,813.6807,704.1309,817.6807,700.1309" style="stroke:#181818;stroke-width:1.0;"/><line style="stroke:#181818;stroke-width:1.0;" x1="516.1738" x2="819.6807" y1="700.1309" y2="700.1309"/><text fill="#000000" font-family="sans-serif" font-size="13" lengthAdjust="spacing" textLength="221.7935" x="523.1738" y="694.8682">listCustomerShowRequests(customer)</text><polygon fill="#181818" points="1718.1431,727.4219,1728.1431,731.4219,1718.1431,735.4219,1722.1431,731.4219" style="stroke:#181818;stroke-width:1.0;"/><line style="stroke:#181818;stroke-width:1.0;" x1="835.6807" x2="1724.1431" y1="731.4219" y2="731.4219"/><text fill="#000000" font-family="sans-serif" font-size="13" lengthAdjust="spacing" textLength="154.5972" x="842.6807" y="726.1592">findByCustomer(customer)</text><polygon fill="#181818" points="2189.731,758.7129,2199.731,762.7129,2189.731,766.7129,2193.731,762.7129" style="stroke:#181818;stroke-width:1.0;"/><line style="stroke:#181818;stroke-width:1.0;" x1="1740.1431" x2="2195.731" y1="762.7129" y2="762.7129"/><text fill="#000000" font-family="sans-serif" font-size="13" lengthAdjust="spacing" textLength="154.5972" x="1747.1431" y="757.4502">findByCustomer(customer)</text><polygon fill="#181818" points="2373.3281,790.0039,2383.3281,794.0039,2373.3281,798.0039,2377.3281,794.0039" style="stroke:#181818;stroke-width:1.0;"/><line style="stroke:#181818;stroke-width:1.0;" x1="2211.731" x2="2379.3281" y1="794.0039" y2="794.0039"/><text fill="#000000" font-family="sans-serif" font-size="13" lengthAdjust="spacing" textLength="154.5972" x="2218.731" y="788.7412">findByCustomer(customer)</text><polygon fill="#181818" points="2222.731,821.2949,2212.731,825.2949,2222.731,829.2949,2218.731,825.2949" style="stroke:#181818;stroke-width:1.0;"/><line style="stroke:#181818;stroke-width:1.0;" x1="2216.731" x2="2389.3281" y1="825.2949" y2="825.2949"/><text fill="#000000" font-family="sans-serif" font-size="13" lengthAdjust="spacing" textLength="85.2681" x="2228.731" y="820.0322">showRequests</text><polygon fill="#181818" points="1751.1431,852.5859,1741.1431,856.5859,1751.1431,860.5859,1747.1431,856.5859" style="stroke:#181818;stroke-width:1.0;"/><line style="stroke:#181818;stroke-width:1.0;" x1="1745.1431" x2="2205.731" y1="856.5859" y2="856.5859"/><text fill="#000000" font-family="sans-serif" font-size="13" lengthAdjust="spacing" textLength="85.2681" x="1757.1431" y="851.3232">showRequests</text><polygon fill="#181818" points="846.6807,883.877,836.6807,887.877,846.6807,891.877,842.6807,887.877" style="stroke:#181818;stroke-width:1.0;"/><line style="stroke:#181818;stroke-width:1.0;" x1="840.6807" x2="1734.1431" y1="887.877" y2="887.877"/><text fill="#000000" font-family="sans-serif" font-size="13" lengthAdjust="spacing" textLength="85.2681" x="852.6807" y="882.6143">showRequests</text><polygon fill="#181818" points="527.1738,915.168,517.1738,919.168,527.1738,923.168,523.1738,919.168" style="stroke:#181818;stroke-width:1.0;"/><line style="stroke:#181818;stroke-width:1.0;" x1="521.1738" x2="829.6807" y1="919.168" y2="919.168"/><text fill="#000000" font-family="sans-serif" font-size="13" lengthAdjust="spacing" textLength="85.2681" x="533.1738" y="913.9053">showRequests</text><polygon fill="#181818" points="95.0171,946.459,85.0171,950.459,95.0171,954.459,91.0171,950.459" style="stroke:#181818;stroke-width:1.0;"/><line style="stroke:#181818;stroke-width:1.0;" x1="89.0171" x2="510.1738" y1="950.459" y2="950.459"/><text fill="#000000" font-family="sans-serif" font-size="13" lengthAdjust="spacing" textLength="270.2578" x="101.0171" y="945.1963">displays show requests associated to the client</text><polygon fill="#181818" points="494.1738,977.75,504.1738,981.75,494.1738,985.75,498.1738,981.75" style="stroke:#181818;stroke-width:1.0;"/><line style="stroke:#181818;stroke-width:1.0;" x1="84.0171" x2="500.1738" y1="981.75" y2="981.75"/><text fill="#000000" font-family="sans-serif" font-size="13" lengthAdjust="spacing" textLength="145.2471" x="91.0171" y="976.4873">Selects the show request</text><path d="M10,996.75 L82.4346,996.75 L82.4346,1006.041 L72.4346,1016.041 L10,1016.041 L10,996.75 " fill="#EEEEEE" style="stroke:#000000;stroke-width:1.5;"/><rect fill="none" height="507.2871" style="stroke:#000000;stroke-width:1.5;" width="2433.2935" x="10" y="996.75"/><text fill="#000000" font-family="sans-serif" font-size="13" font-weight="bold" lengthAdjust="spacing" textLength="27.4346" x="25" y="1011.7783">loop</text><text fill="#000000" font-family="sans-serif" font-size="11" font-weight="bold" lengthAdjust="spacing" textLength="279.3184" x="97.4346" y="1010.6201">[While user wants to change show request attributes]</text><polygon fill="#181818" points="95.0171,1052.623,85.0171,1056.623,95.0171,1060.623,91.0171,1056.623" style="stroke:#181818;stroke-width:1.0;"/><line style="stroke:#181818;stroke-width:1.0;" x1="89.0171" x2="510.1738" y1="1056.623" y2="1056.623"/><text fill="#000000" font-family="sans-serif" font-size="13" lengthAdjust="spacing" textLength="394.5449" x="101.0171" y="1034.0693">displays the current attributes of the show request and asks to select</text><text fill="#000000" font-family="sans-serif" font-size="13" lengthAdjust="spacing" textLength="224.0278" x="101.0171" y="1051.3604">the attributes the user wants to change</text><polygon fill="#181818" points="494.1738,1083.9141,504.1738,1087.9141,494.1738,1091.9141,498.1738,1087.9141" style="stroke:#181818;stroke-width:1.0;"/><line style="stroke:#181818;stroke-width:1.0;" x1="84.0171" x2="500.1738" y1="1087.9141" y2="1087.9141"/><text fill="#000000" font-family="sans-serif" font-size="13" lengthAdjust="spacing" textLength="229.7979" x="91.0171" y="1082.6514">selects the attribute of the show request</text><polygon fill="#181818" points="95.0171,1115.2051,85.0171,1119.2051,95.0171,1123.2051,91.0171,1119.2051" style="stroke:#181818;stroke-width:1.0;"/><line style="stroke:#181818;stroke-width:1.0;" x1="89.0171" x2="510.1738" y1="1119.2051" y2="1119.2051"/><text fill="#000000" font-family="sans-serif" font-size="13" lengthAdjust="spacing" textLength="177.0679" x="101.0171" y="1113.9424">request the data of the atribute</text><polygon fill="#181818" points="494.1738,1146.4961,504.1738,1150.4961,494.1738,1154.4961,498.1738,1150.4961" style="stroke:#181818;stroke-width:1.0;"/><line style="stroke:#181818;stroke-width:1.0;" x1="84.0171" x2="500.1738" y1="1150.4961" y2="1150.4961"/><text fill="#000000" font-family="sans-serif" font-size="13" lengthAdjust="spacing" textLength="143.1016" x="91.0171" y="1145.2334">types the requested data</text><path d="M431.5293,1165.4961 L491.7002,1165.4961 L491.7002,1174.7871 L481.7002,1184.7871 L431.5293,1184.7871 L431.5293,1165.4961 " fill="#EEEEEE" style="stroke:#000000;stroke-width:1.5;"/><rect fill="none" height="331.541" style="stroke:#000000;stroke-width:1.5;" width="2001.7642" x="431.5293" y="1165.4961"/><text fill="#000000" font-family="sans-serif" font-size="13" font-weight="bold" lengthAdjust="spacing" textLength="15.1709" x="446.5293" y="1180.5244">alt</text><text fill="#000000" font-family="sans-serif" font-size="11" font-weight="bold" lengthAdjust="spacing" textLength="155.8315" x="506.7002" y="1179.3662">[Edit Show Request Location]</text><polygon fill="#181818" points="813.6807,1204.0781,823.6807,1208.0781,813.6807,1212.0781,817.6807,1208.0781" style="stroke:#181818;stroke-width:1.0;"/><line style="stroke:#181818;stroke-width:1.0;" x1="516.1738" x2="819.6807" y1="1208.0781" y2="1208.0781"/><text fill="#000000" font-family="sans-serif" font-size="13" lengthAdjust="spacing" textLength="290.5068" x="523.1738" y="1202.8154">editShowRequestLocation(showRequest, location)</text><polygon fill="#181818" points="1718.1431,1235.3691,1728.1431,1239.3691,1718.1431,1243.3691,1722.1431,1239.3691" style="stroke:#181818;stroke-width:1.0;"/><line style="stroke:#181818;stroke-width:1.0;" x1="835.6807" x2="1724.1431" y1="1239.3691" y2="1239.3691"/><text fill="#000000" font-family="sans-serif" font-size="13" lengthAdjust="spacing" textLength="290.5068" x="842.6807" y="1234.1064">editShowRequestLocation(showRequest, location)</text><polygon fill="#181818" points="1893.5078,1266.6602,1903.5078,1270.6602,1893.5078,1274.6602,1897.5078,1270.6602" style="stroke:#181818;stroke-width:1.0;"/><line style="stroke:#181818;stroke-width:1.0;" x1="1740.1431" x2="1899.5078" y1="1270.6602" y2="1270.6602"/><text fill="#000000" font-family="sans-serif" font-size="13" lengthAdjust="spacing" textLength="145.2661" x="1747.1431" y="1265.3975">changeLocation(location)</text><polygon fill="#181818" points="1751.1431,1280.6602,1741.1431,1284.6602,1751.1431,1288.6602,1747.1431,1284.6602" style="stroke:#181818;stroke-width:1.0;"/><line style="stroke:#181818;stroke-width:1.0;" x1="1745.1431" x2="1909.5078" y1="1284.6602" y2="1284.6602"/><polygon fill="#181818" points="2189.731,1311.9512,2199.731,1315.9512,2189.731,1319.9512,2193.731,1315.9512" style="stroke:#181818;stroke-width:1.0;"/><line style="stroke:#181818;stroke-width:1.0;" x1="1740.1431" x2="2195.731" y1="1315.9512" y2="1315.9512"/><text fill="#000000" font-family="sans-serif" font-size="13" lengthAdjust="spacing" textLength="114.8862" x="1747.1431" y="1310.6885">save(showRequest)</text><polygon fill="#181818" points="2373.3281,1343.2422,2383.3281,1347.2422,2373.3281,1351.2422,2377.3281,1347.2422" style="stroke:#181818;stroke-width:1.0;"/><line style="stroke:#181818;stroke-width:1.0;" x1="2211.731" x2="2379.3281" y1="1347.2422" y2="1347.2422"/><text fill="#000000" font-family="sans-serif" font-size="13" lengthAdjust="spacing" textLength="36.1182" x="2218.731" y="1341.9795">save()</text><polygon fill="#181818" points="2222.731,1374.5332,2212.731,1378.5332,2222.731,1382.5332,2218.731,1378.5332" style="stroke:#181818;stroke-width:1.0;"/><line style="stroke:#181818;stroke-width:1.0;" x1="2216.731" x2="2389.3281" y1="1378.5332" y2="1378.5332"/><text fill="#000000" font-family="sans-serif" font-size="13" lengthAdjust="spacing" textLength="78.7681" x="2228.731" y="1373.2705">showRequest</text><polygon fill="#181818" points="1751.1431,1405.8242,1741.1431,1409.8242,1751.1431,1413.8242,1747.1431,1409.8242" style="stroke:#181818;stroke-width:1.0;"/><line style="stroke:#181818;stroke-width:1.0;" x1="1745.1431" x2="2205.731" y1="1409.8242" y2="1409.8242"/><text fill="#000000" font-family="sans-serif" font-size="13" lengthAdjust="spacing" textLength="78.7681" x="1757.1431" y="1404.5615">showRequest</text><polygon fill="#181818" points="846.6807,1437.1152,836.6807,1441.1152,846.6807,1445.1152,842.6807,1441.1152" style="stroke:#181818;stroke-width:1.0;"/><line style="stroke:#181818;stroke-width:1.0;" x1="840.6807" x2="1734.1431" y1="1441.1152" y2="1441.1152"/><text fill="#000000" font-family="sans-serif" font-size="13" lengthAdjust="spacing" textLength="78.7681" x="852.6807" y="1435.8525">showRequest</text><polygon fill="#181818" points="527.1738,1468.4063,517.1738,1472.4063,527.1738,1476.4063,523.1738,1472.4063" style="stroke:#181818;stroke-width:1.0;"/><line style="stroke:#181818;stroke-width:1.0;" x1="521.1738" x2="829.6807" y1="1472.4063" y2="1472.4063"/><text fill="#000000" font-family="sans-serif" font-size="13" lengthAdjust="spacing" textLength="78.7681" x="533.1738" y="1467.1436">showRequest</text><line style="stroke:#000000;stroke-width:1.0;stroke-dasharray:2.0,2.0;" x1="431.5293" x2="2433.2935" y1="1481.4063" y2="1481.4063"/><text fill="#000000" font-family="sans-serif" font-size="11" font-weight="bold" lengthAdjust="spacing" textLength="118.5508" x="436.5293" y="1493.2764">[Edit Other Atribbutes]</text><polygon fill="#181818" points="95.0171,1530.3281,85.0171,1534.3281,95.0171,1538.3281,91.0171,1534.3281" style="stroke:#181818;stroke-width:1.0;"/><line style="stroke:#181818;stroke-width:1.0;" x1="89.0171" x2="510.1738" y1="1534.3281" y2="1534.3281"/><text fill="#000000" font-family="sans-serif" font-size="13" lengthAdjust="spacing" textLength="155.3589" x="101.0171" y="1529.0654">displays operation success</text><!--SRC=[nLVRRkCs47tNLmpoP0TDi4aNcuMm2EeuAUhKhXU-xBuKA1Y9jed8f4fI3jolxr0tKpProUusrPDDKkSS3cVEKEgPyPX8ieMju2BOIB6be6L2FLNEn2Hu9ciwr_k8WgI19dmTsGlKXeJYXV4rh4YagEUHG0i9PyFP18OYYiYJa0H7pe0e2EJM7lCGGhE0nOHhE7i8cPvlnCkC_frGfGU1PeAdhms6Yz7qZyRLor6wSZbgN3KKN4iKG3CvmyLi39y-aJYEM40CtUrjzVr1eZT2id_IoJcLEnRGJ99Zma3Xy376C54Q8oidX6CajvHh6wXsjbcOjIatRjE2pj37IFXYABQ4yRezpcWi5CEZtLSsTnX615d-QM0-0dBE76E5H9CdeYYStUU_qdUBFvwdcSOidk-LfbkO6pYEmRXdP6qo-GAMy-kVFwGPp7P4qvDqzS0yHwDmSPidAFWmKC-W1L1CEo1O6-85YoQLdRrRGkSfdOtYaoCWrd9qVkuZ2SLbpccaCS2zVZaRqbhSSW8henmq3-8Wcga01rrr0H9638idFqnbCLSepDegYNbI11CZHyMSdoCsvIgHr4nZXfgSfE5IKVaRKGE-dwvwCn5HTOb-yjTmEXuFxgQpmM8wwzSIrLUK3ol6mq4K6M_PqReDLJTLXtQwqrH4BRcbp4hXJDBTFbFKC-xRTmAV23g0k9NOQYn2b54KH7VoYe13FK73KvBKxTkar7ILdqJ4C5Ag5j1Ay7PszwQRigAh54j6rrDepeT3SRNHEwWxP6HH4gbfjD7O5AQIJytWsFby29cA8x9NWCMR4e1OGM23MwYb1JaSD5Kufn7UC3Am3CIhDx5QVx9wXUe5-M3Vws1NHRWQUsTHD0MTWw92qmHsUcADr5Lf3XTfqLIdgos9tQGk9-aWu9LUOlj8tUQLTUBUT_b7xKvRKg9HWSNUCUXjMP1dVIshcx4b_IfcuOG-TWYliptODo65bp8b0cOQlRai7LVxjpf6msshUlc9X8ZXwuRXNJ31YmQyuELJ6IN11hzkga10j9RiAT7KZd0dEmmIAN5J5e8nnsEbG7Y80NbE1QXqE_0dDwkizynVbzJN1qnP0Ii9NBfQdVTqzyME39IvYnUm9ATvfLeVz3xEDvz3Oy8Ou0Pj9D9WFlhIl8VYisKiiayTT_EWrO_4Od7Fge6VC6coqH_PIBwH-6tQ2-hBagoKvLPIfwRLODi3rD59VrmNLGIlmLRqtwvzfinltIp_zrxv-bRv_PtolskKxNsIHdWsgJrDqTKa38mpLfiBvQ7pTslB4J6LQNc2IeA0gfhxzoy8ccmZp_iSOIzPJiQmmozWyzhLvVMxw_UNDxqvGVkaCRoxWQjh_-gZVtK3Nn_c2p3pVQyt6Ir0YKHYX94zC_VK5Xx9Zi0imQ_uBVLX6bF-UFzxCG0FVCUau2QitkENoM71X_SNTyQnCTOOaoyJxvwkI6ACd0SYP7pjmtBnwyL7RunsbE39-11hRoWGL-vz-Bpu5m00]--></g></svg>