<svg xmlns="http://www.w3.org/2000/svg" xmlns:xlink="http://www.w3.org/1999/xlink" contentStyleType="text/css" height="1289px" preserveAspectRatio="none" style="width:2293px;height:1289px;background:#FFFFFF;" version="1.1" viewBox="0 0 2293 1289" width="2293px" zoomAndPan="magnify"><title>System Sequence Diagram - US236</title><defs/><g><text fill="#000000" font-family="sans-serif" font-size="14" font-weight="bold" lengthAdjust="spacing" textLength="234.9922" x="1030.3699" y="30.1074">System Sequence Diagram - US236</text><rect fill="#FFFFFF" height="1064.5449" style="stroke:#181818;stroke-width:1.0;" width="10" x="74.0171" y="133.2422"/><rect fill="#FFFFFF" height="74.9121" style="stroke:#181818;stroke-width:1.0;" width="10" x="255.4878" y="156.5332"/><rect fill="#FFFFFF" height="406.1035" style="stroke:#181818;stroke-width:1.0;" width="10" x="506.1738" y="231.4453"/><rect fill="#FFFFFF" height="281.6191" style="stroke:#181818;stroke-width:1.0;" width="10" x="506.1738" y="668.8398"/><rect fill="#FFFFFF" height="74.873" style="stroke:#181818;stroke-width:1.0;" width="10" x="506.1738" y="981.75"/><rect fill="#FFFFFF" height="31.291" style="stroke:#181818;stroke-width:1.0;" width="10" x="506.1738" y="1087.9141"/><rect fill="#FFFFFF" height="38.291" style="stroke:#181818;stroke-width:1.0;" width="10" x="506.1738" y="1150.4961"/><rect fill="#FFFFFF" height="281.2793" style="stroke:#181818;stroke-width:1.0;" width="10" x="694.1191" y="324.9785"/><rect fill="#FFFFFF" height="219.0371" style="stroke:#181818;stroke-width:1.0;" width="10" x="694.1191" y="700.1309"/><rect fill="#FFFFFF" height="156.4551" style="stroke:#181818;stroke-width:1.0;" width="10" x="1372.2583" y="418.5117"/><rect fill="#FFFFFF" height="156.4551" style="stroke:#181818;stroke-width:1.0;" width="10" x="1598.5815" y="731.4219"/><rect fill="#FFFFFF" height="93.873" style="stroke:#181818;stroke-width:1.0;" width="10" x="1905.3286" y="449.8027"/><rect fill="#FFFFFF" height="93.873" style="stroke:#181818;stroke-width:1.0;" width="10" x="2070.1694" y="762.7129"/><rect fill="#FFFFFF" height="31.291" style="stroke:#181818;stroke-width:1.0;" width="10" x="2253.7666" y="481.0938"/><rect fill="#FFFFFF" height="31.291" style="stroke:#181818;stroke-width:1.0;" width="10" x="2253.7666" y="794.0039"/><rect fill="none" height="161.7461" style="stroke:#000000;stroke-width:1.5;" width="580.8184" x="10" y="996.75"/><line style="stroke:#181818;stroke-width:0.5;stroke-dasharray:5.0,5.0;" x1="79" x2="79" y1="123.2422" y2="1206.7871"/><line style="stroke:#181818;stroke-width:0.5;stroke-dasharray:5.0,5.0;" x1="260.3882" x2="260.3882" y1="123.2422" y2="1206.7871"/><line style="stroke:#181818;stroke-width:0.5;stroke-dasharray:5.0,5.0;" x1="510.5293" x2="510.5293" y1="196.3438" y2="1206.7871"/><line style="stroke:#181818;stroke-width:0.5;stroke-dasharray:5.0,5.0;" x1="698.1299" x2="698.1299" y1="280.5664" y2="1206.7871"/><line style="stroke:#181818;stroke-width:0.5;stroke-dasharray:5.0,5.0;" x1="1194.3179" x2="1194.3179" y1="374.0996" y2="1206.7871"/><line style="stroke:#181818;stroke-width:0.5;stroke-dasharray:5.0,5.0;" x1="1376.7173" x2="1376.7173" y1="123.2422" y2="1206.7871"/><line style="stroke:#181818;stroke-width:0.5;stroke-dasharray:5.0,5.0;" x1="1602.7993" x2="1602.7993" y1="123.2422" y2="1206.7871"/><line style="stroke:#181818;stroke-width:0.5;stroke-dasharray:5.0,5.0;" x1="1778.3638" x2="1778.3638" y1="123.2422" y2="1206.7871"/><line style="stroke:#181818;stroke-width:0.5;stroke-dasharray:5.0,5.0;" x1="1909.5288" x2="1909.5288" y1="123.2422" y2="1206.7871"/><line style="stroke:#181818;stroke-width:0.5;stroke-dasharray:5.0,5.0;" x1="2075.1284" x2="2075.1284" y1="123.2422" y2="1206.7871"/><line style="stroke:#181818;stroke-width:0.5;stroke-dasharray:5.0,5.0;" x1="2257.8013" x2="2257.8013" y1="123.2422" y2="1206.7871"/><text fill="#000000" font-family="sans-serif" font-size="14" lengthAdjust="spacing" textLength="112.0342" x="20" y="119.7285">CRM Collaborator</text><ellipse cx="79.0171" cy="53.1211" fill="#E3E3E3" rx="8" ry="8" style="stroke:#181818;stroke-width:0.5;"/><path d="M79.0171,61.1211 L79.0171,88.1211 M66.0171,69.1211 L92.0171,69.1211 M79.0171,88.1211 L66.0171,103.1211 M79.0171,88.1211 L92.0171,103.1211 " fill="none" style="stroke:#181818;stroke-width:0.5;"/><text fill="#000000" font-family="sans-serif" font-size="14" lengthAdjust="spacing" textLength="112.0342" x="20" y="1220.8945">CRM Collaborator</text><ellipse cx="79.0171" cy="1232.9082" fill="#E3E3E3" rx="8" ry="8" style="stroke:#181818;stroke-width:0.5;"/><path d="M79.0171,1240.9082 L79.0171,1267.9082 M66.0171,1248.9082 L92.0171,1248.9082 M79.0171,1267.9082 L66.0171,1282.9082 M79.0171,1267.9082 L92.0171,1282.9082 " fill="none" style="stroke:#181818;stroke-width:0.5;"/><rect fill="#E3E3E3" height="32.6211" rx="2.5" ry="2.5" style="stroke:#181818;stroke-width:0.5;" width="164.1992" x="178.3882" y="89.6211"/><text fill="#000000" font-family="sans-serif" font-size="14" lengthAdjust="spacing" textLength="150.1992" x="185.3882" y="111.7285">EditShowRequestAction</text><rect fill="#E3E3E3" height="32.6211" rx="2.5" ry="2.5" style="stroke:#181818;stroke-width:0.5;" width="164.1992" x="178.3882" y="1205.7871"/><text fill="#000000" font-family="sans-serif" font-size="14" lengthAdjust="spacing" textLength="150.1992" x="185.3882" y="1227.8945">EditShowRequestAction</text><rect fill="#E3E3E3" height="32.6211" rx="2.5" ry="2.5" style="stroke:#181818;stroke-width:0.5;" width="139.2891" x="441.5293" y="1205.7871"/><text fill="#000000" font-family="sans-serif" font-size="14" lengthAdjust="spacing" textLength="125.2891" x="448.5293" y="1227.8945">EditShowRequestUI</text><rect fill="#E3E3E3" height="51.2422" rx="2.5" ry="2.5" style="stroke:#181818;stroke-width:0.5;" width="185.9785" x="606.1299" y="1205.7871"/><text fill="#000000" font-family="sans-serif" font-size="14" font-style="italic" lengthAdjust="spacing" textLength="82.5098" x="657.8643" y="1227.8945">&#171;application&#187;</text><text fill="#000000" font-family="sans-serif" font-size="14" lengthAdjust="spacing" textLength="171.9785" x="613.1299" y="1246.5156">EditShowRequestController</text><rect fill="#E3E3E3" height="51.2422" rx="2.5" ry="2.5" style="stroke:#181818;stroke-width:0.5;" width="142.3994" x="1123.3179" y="1205.7871"/><text fill="#000000" font-family="sans-serif" font-size="14" font-style="italic" lengthAdjust="spacing" textLength="42.8203" x="1173.1074" y="1227.8945">&#171;auth&#187;</text><text fill="#000000" font-family="sans-serif" font-size="14" lengthAdjust="spacing" textLength="128.3994" x="1130.3179" y="1246.5156">AuthorizationService</text><rect fill="#E3E3E3" height="51.2422" rx="2.5" ry="2.5" style="stroke:#181818;stroke-width:0.5;" width="203.082" x="1275.7173" y="71"/><text fill="#000000" font-family="sans-serif" font-size="14" font-style="italic" lengthAdjust="spacing" textLength="82.5098" x="1336.0034" y="93.1074">&#171;application&#187;</text><text fill="#000000" font-family="sans-serif" font-size="14" lengthAdjust="spacing" textLength="189.082" x="1282.7173" y="111.7285">CustomerManagementService</text><rect fill="#E3E3E3" height="51.2422" rx="2.5" ry="2.5" style="stroke:#181818;stroke-width:0.5;" width="203.082" x="1275.7173" y="1205.7871"/><text fill="#000000" font-family="sans-serif" font-size="14" font-style="italic" lengthAdjust="spacing" textLength="82.5098" x="1336.0034" y="1227.8945">&#171;application&#187;</text><text fill="#000000" font-family="sans-serif" font-size="14" lengthAdjust="spacing" textLength="189.082" x="1282.7173" y="1246.5156">CustomerManagementService</text><rect fill="#E3E3E3" height="51.2422" rx="2.5" ry="2.5" style="stroke:#181818;stroke-width:0.5;" width="229.5645" x="1488.7993" y="71"/><text fill="#000000" font-family="sans-serif" font-size="14" font-style="italic" lengthAdjust="spacing" textLength="82.5098" x="1562.3267" y="93.1074">&#171;application&#187;</text><text fill="#000000" font-family="sans-serif" font-size="14" lengthAdjust="spacing" textLength="215.5645" x="1495.7993" y="111.7285">ShowRequestManagementService</text><rect fill="#E3E3E3" height="51.2422" rx="2.5" ry="2.5" style="stroke:#181818;stroke-width:0.5;" width="229.5645" x="1488.7993" y="1205.7871"/><text fill="#000000" font-family="sans-serif" font-size="14" font-style="italic" lengthAdjust="spacing" textLength="82.5098" x="1562.3267" y="1227.8945">&#171;application&#187;</text><text fill="#000000" font-family="sans-serif" font-size="14" lengthAdjust="spacing" textLength="215.5645" x="1495.7993" y="1246.5156">ShowRequestManagementService</text><rect fill="#E3E3E3" height="51.2422" rx="2.5" ry="2.5" style="stroke:#181818;stroke-width:0.5;" width="101.165" x="1728.3638" y="71"/><text fill="#000000" font-family="sans-serif" font-size="14" font-style="italic" lengthAdjust="spacing" textLength="61.4893" x="1748.2017" y="93.1074">&#171;domain&#187;</text><text fill="#000000" font-family="sans-serif" font-size="14" lengthAdjust="spacing" textLength="87.165" x="1735.3638" y="111.7285">ShowRequest</text><rect fill="#E3E3E3" height="51.2422" rx="2.5" ry="2.5" style="stroke:#181818;stroke-width:0.5;" width="101.165" x="1728.3638" y="1205.7871"/><text fill="#000000" font-family="sans-serif" font-size="14" font-style="italic" lengthAdjust="spacing" textLength="61.4893" x="1748.2017" y="1227.8945">&#171;domain&#187;</text><text fill="#000000" font-family="sans-serif" font-size="14" lengthAdjust="spacing" textLength="87.165" x="1735.3638" y="1246.5156">ShowRequest</text><rect fill="#E3E3E3" height="51.2422" rx="2.5" ry="2.5" style="stroke:#181818;stroke-width:0.5;" width="141.5996" x="1839.5288" y="71"/><text fill="#000000" font-family="sans-serif" font-size="14" font-style="italic" lengthAdjust="spacing" textLength="77.041" x="1871.8081" y="93.1074">&#171;repository&#187;</text><text fill="#000000" font-family="sans-serif" font-size="14" lengthAdjust="spacing" textLength="127.5996" x="1846.5288" y="111.7285">CustomerRepository</text><rect fill="#E3E3E3" height="51.2422" rx="2.5" ry="2.5" style="stroke:#181818;stroke-width:0.5;" width="141.5996" x="1839.5288" y="1205.7871"/><text fill="#000000" font-family="sans-serif" font-size="14" font-style="italic" lengthAdjust="spacing" textLength="77.041" x="1871.8081" y="1227.8945">&#171;repository&#187;</text><text fill="#000000" font-family="sans-serif" font-size="14" lengthAdjust="spacing" textLength="127.5996" x="1846.5288" y="1246.5156">CustomerRepository</text><rect fill="#E3E3E3" height="51.2422" rx="2.5" ry="2.5" style="stroke:#181818;stroke-width:0.5;" width="168.082" x="1991.1284" y="71"/><text fill="#000000" font-family="sans-serif" font-size="14" font-style="italic" lengthAdjust="spacing" textLength="77.041" x="2036.6489" y="93.1074">&#171;repository&#187;</text><text fill="#000000" font-family="sans-serif" font-size="14" lengthAdjust="spacing" textLength="154.082" x="1998.1284" y="111.7285">ShowRequestRepository</text><rect fill="#E3E3E3" height="51.2422" rx="2.5" ry="2.5" style="stroke:#181818;stroke-width:0.5;" width="168.082" x="1991.1284" y="1205.7871"/><text fill="#000000" font-family="sans-serif" font-size="14" font-style="italic" lengthAdjust="spacing" textLength="77.041" x="2036.6489" y="1227.8945">&#171;repository&#187;</text><text fill="#000000" font-family="sans-serif" font-size="14" lengthAdjust="spacing" textLength="154.082" x="1998.1284" y="1246.5156">ShowRequestRepository</text><text fill="#000000" font-family="sans-serif" font-size="14" lengthAdjust="spacing" textLength="59.9307" x="2225.8013" y="119.7285">Database</text><path d="M2240.7666,68.6211 C2240.7666,58.6211 2258.7666,58.6211 2258.7666,58.6211 C2258.7666,58.6211 2276.7666,58.6211 2276.7666,68.6211 L2276.7666,94.6211 C2276.7666,104.6211 2258.7666,104.6211 2258.7666,104.6211 C2258.7666,104.6211 2240.7666,104.6211 2240.7666,94.6211 L2240.7666,68.6211 " fill="#E3E3E3" style="stroke:#181818;stroke-width:1.5;"/><path d="M2240.7666,68.6211 C2240.7666,78.6211 2258.7666,78.6211 2258.7666,78.6211 C2258.7666,78.6211 2276.7666,78.6211 2276.7666,68.6211 " fill="none" style="stroke:#181818;stroke-width:1.5;"/><text fill="#000000" font-family="sans-serif" font-size="14" lengthAdjust="spacing" textLength="59.9307" x="2225.8013" y="1220.8945">Database</text><path d="M2240.7666,1234.4082 C2240.7666,1224.4082 2258.7666,1224.4082 2258.7666,1224.4082 C2258.7666,1224.4082 2276.7666,1224.4082 2276.7666,1234.4082 L2276.7666,1260.4082 C2276.7666,1270.4082 2258.7666,1270.4082 2258.7666,1270.4082 C2258.7666,1270.4082 2240.7666,1270.4082 2240.7666,1260.4082 L2240.7666,1234.4082 " fill="#E3E3E3" style="stroke:#181818;stroke-width:1.5;"/><path d="M2240.7666,1234.4082 C2240.7666,1244.4082 2258.7666,1244.4082 2258.7666,1244.4082 C2258.7666,1244.4082 2276.7666,1244.4082 2276.7666,1234.4082 " fill="none" style="stroke:#181818;stroke-width:1.5;"/><rect fill="#FFFFFF" height="1064.5449" style="stroke:#181818;stroke-width:1.0;" width="10" x="74.0171" y="133.2422"/><rect fill="#FFFFFF" height="74.9121" style="stroke:#181818;stroke-width:1.0;" width="10" x="255.4878" y="156.5332"/><rect fill="#FFFFFF" height="406.1035" style="stroke:#181818;stroke-width:1.0;" width="10" x="506.1738" y="231.4453"/><rect fill="#FFFFFF" height="281.6191" style="stroke:#181818;stroke-width:1.0;" width="10" x="506.1738" y="668.8398"/><rect fill="#FFFFFF" height="74.873" style="stroke:#181818;stroke-width:1.0;" width="10" x="506.1738" y="981.75"/><rect fill="#FFFFFF" height="31.291" style="stroke:#181818;stroke-width:1.0;" width="10" x="506.1738" y="1087.9141"/><rect fill="#FFFFFF" height="38.291" style="stroke:#181818;stroke-width:1.0;" width="10" x="506.1738" y="1150.4961"/><rect fill="#FFFFFF" height="281.2793" style="stroke:#181818;stroke-width:1.0;" width="10" x="694.1191" y="324.9785"/><rect fill="#FFFFFF" height="219.0371" style="stroke:#181818;stroke-width:1.0;" width="10" x="694.1191" y="700.1309"/><rect fill="#FFFFFF" height="156.4551" style="stroke:#181818;stroke-width:1.0;" width="10" x="1372.2583" y="418.5117"/><rect fill="#FFFFFF" height="156.4551" style="stroke:#181818;stroke-width:1.0;" width="10" x="1598.5815" y="731.4219"/><rect fill="#FFFFFF" height="93.873" style="stroke:#181818;stroke-width:1.0;" width="10" x="1905.3286" y="449.8027"/><rect fill="#FFFFFF" height="93.873" style="stroke:#181818;stroke-width:1.0;" width="10" x="2070.1694" y="762.7129"/><rect fill="#FFFFFF" height="31.291" style="stroke:#181818;stroke-width:1.0;" width="10" x="2253.7666" y="481.0938"/><rect fill="#FFFFFF" height="31.291" style="stroke:#181818;stroke-width:1.0;" width="10" x="2253.7666" y="794.0039"/><polygon fill="#181818" points="243.4878,152.5332,253.4878,156.5332,243.4878,160.5332,247.4878,156.5332" style="stroke:#181818;stroke-width:1.0;"/><line style="stroke:#181818;stroke-width:1.0;" x1="84.0171" x2="249.4878" y1="156.5332" y2="156.5332"/><text fill="#000000" font-family="sans-serif" font-size="13" lengthAdjust="spacing" textLength="152.4707" x="91.0171" y="151.2705">Ask to edit a show request</text><polygon fill="#181818" points="429.5293,183.8242,439.5293,187.8242,429.5293,191.8242,433.5293,187.8242" style="stroke:#181818;stroke-width:1.0;"/><line style="stroke:#181818;stroke-width:1.0;" x1="265.4878" x2="435.5293" y1="187.8242" y2="187.8242"/><text fill="#000000" font-family="sans-serif" font-size="13" lengthAdjust="spacing" textLength="36.1309" x="272.4878" y="182.5615">create</text><rect fill="#E3E3E3" height="32.6211" rx="2.5" ry="2.5" style="stroke:#181818;stroke-width:0.5;" width="139.2891" x="441.5293" y="164.5332"/><text fill="#000000" font-family="sans-serif" font-size="14" lengthAdjust="spacing" textLength="125.2891" x="448.5293" y="186.6406">EditShowRequestUI</text><polygon fill="#181818" points="494.1738,227.4453,504.1738,231.4453,494.1738,235.4453,498.1738,231.4453" style="stroke:#181818;stroke-width:1.0;"/><line style="stroke:#181818;stroke-width:1.0;" x1="260.4878" x2="500.1738" y1="231.4453" y2="231.4453"/><text fill="#000000" font-family="sans-serif" font-size="13" lengthAdjust="spacing" textLength="39.0063" x="267.4878" y="226.1826">show()</text><polygon fill="#181818" points="594.1299,258.7363,604.1299,262.7363,594.1299,266.7363,598.1299,262.7363" style="stroke:#181818;stroke-width:1.0;"/><line style="stroke:#181818;stroke-width:1.0;" x1="516.1738" x2="600.1299" y1="262.7363" y2="262.7363"/><text fill="#000000" font-family="sans-serif" font-size="13" lengthAdjust="spacing" textLength="36.1309" x="523.1738" y="257.4736">create</text><rect fill="#E3E3E3" height="51.2422" rx="2.5" ry="2.5" style="stroke:#181818;stroke-width:0.5;" width="185.9785" x="606.1299" y="239.4453"/><text fill="#000000" font-family="sans-serif" font-size="14" font-style="italic" lengthAdjust="spacing" textLength="82.5098" x="657.8643" y="261.5527">&#171;application&#187;</text><text fill="#000000" font-family="sans-serif" font-size="14" lengthAdjust="spacing" textLength="171.9785" x="613.1299" y="280.1738">EditShowRequestController</text><polygon fill="#181818" points="682.1191,320.9785,692.1191,324.9785,682.1191,328.9785,686.1191,324.9785" style="stroke:#181818;stroke-width:1.0;"/><line style="stroke:#181818;stroke-width:1.0;" x1="516.1738" x2="688.1191" y1="324.9785" y2="324.9785"/><text fill="#000000" font-family="sans-serif" font-size="13" lengthAdjust="spacing" textLength="64.2827" x="523.1738" y="319.7158">listClients()</text><polygon fill="#181818" points="1111.3179,352.2695,1121.3179,356.2695,1111.3179,360.2695,1115.3179,356.2695" style="stroke:#181818;stroke-width:1.0;"/><line style="stroke:#181818;stroke-width:1.0;" x1="704.1191" x2="1117.3179" y1="356.2695" y2="356.2695"/><text fill="#000000" font-family="sans-serif" font-size="13" lengthAdjust="spacing" textLength="395.1987" x="711.1191" y="351.0068">ensureAuthenticatedUserHasAnyOf(Roles.CRM_COLLABORATOR)</text><rect fill="#E3E3E3" height="51.2422" rx="2.5" ry="2.5" style="stroke:#181818;stroke-width:0.5;" width="142.3994" x="1123.3179" y="332.9785"/><text fill="#000000" font-family="sans-serif" font-size="14" font-style="italic" lengthAdjust="spacing" textLength="42.8203" x="1173.1074" y="355.0859">&#171;auth&#187;</text><text fill="#000000" font-family="sans-serif" font-size="14" lengthAdjust="spacing" textLength="128.3994" x="1130.3179" y="373.707">AuthorizationService</text><polygon fill="#181818" points="1360.2583,414.5117,1370.2583,418.5117,1360.2583,422.5117,1364.2583,418.5117" style="stroke:#181818;stroke-width:1.0;"/><line style="stroke:#181818;stroke-width:1.0;" x1="704.1191" x2="1366.2583" y1="418.5117" y2="418.5117"/><text fill="#000000" font-family="sans-serif" font-size="13" lengthAdjust="spacing" textLength="99.6836" x="711.1191" y="413.249">listActiveClients()</text><polygon fill="#181818" points="1893.3286,445.8027,1903.3286,449.8027,1893.3286,453.8027,1897.3286,449.8027" style="stroke:#181818;stroke-width:1.0;"/><line style="stroke:#181818;stroke-width:1.0;" x1="1382.2583" x2="1899.3286" y1="449.8027" y2="449.8027"/><text fill="#000000" font-family="sans-serif" font-size="13" lengthAdjust="spacing" textLength="102.5908" x="1389.2583" y="444.54">findByActive(true)</text><polygon fill="#181818" points="2241.7666,477.0938,2251.7666,481.0938,2241.7666,485.0938,2245.7666,481.0938" style="stroke:#181818;stroke-width:1.0;"/><line style="stroke:#181818;stroke-width:1.0;" x1="1915.3286" x2="2247.7666" y1="481.0938" y2="481.0938"/><text fill="#000000" font-family="sans-serif" font-size="13" lengthAdjust="spacing" textLength="102.5908" x="1922.3286" y="475.8311">findByActive(true)</text><polygon fill="#181818" points="1926.3286,508.3848,1916.3286,512.3848,1926.3286,516.3848,1922.3286,512.3848" style="stroke:#181818;stroke-width:1.0;"/><line style="stroke:#181818;stroke-width:1.0;" x1="1920.3286" x2="2257.7666" y1="512.3848" y2="512.3848"/><text fill="#000000" font-family="sans-serif" font-size="13" lengthAdjust="spacing" textLength="104.749" x="1932.3286" y="507.1221">listOfActiveClients</text><polygon fill="#181818" points="1393.2583,539.6758,1383.2583,543.6758,1393.2583,547.6758,1389.2583,543.6758" style="stroke:#181818;stroke-width:1.0;"/><line style="stroke:#181818;stroke-width:1.0;" x1="1387.2583" x2="1909.3286" y1="543.6758" y2="543.6758"/><text fill="#000000" font-family="sans-serif" font-size="13" lengthAdjust="spacing" textLength="104.749" x="1399.2583" y="538.4131">listOfActiveClients</text><polygon fill="#181818" points="715.1191,570.9668,705.1191,574.9668,715.1191,578.9668,711.1191,574.9668" style="stroke:#181818;stroke-width:1.0;"/><line style="stroke:#181818;stroke-width:1.0;" x1="709.1191" x2="1376.2583" y1="574.9668" y2="574.9668"/><text fill="#000000" font-family="sans-serif" font-size="13" lengthAdjust="spacing" textLength="104.749" x="721.1191" y="569.7041">listOfActiveClients</text><polygon fill="#181818" points="527.1738,602.2578,517.1738,606.2578,527.1738,610.2578,523.1738,606.2578" style="stroke:#181818;stroke-width:1.0;"/><line style="stroke:#181818;stroke-width:1.0;" x1="521.1738" x2="698.1191" y1="606.2578" y2="606.2578"/><text fill="#000000" font-family="sans-serif" font-size="13" lengthAdjust="spacing" textLength="104.749" x="533.1738" y="600.9951">listOfActiveClients</text><polygon fill="#181818" points="95.0171,633.5488,85.0171,637.5488,95.0171,641.5488,91.0171,637.5488" style="stroke:#181818;stroke-width:1.0;"/><line style="stroke:#181818;stroke-width:1.0;" x1="89.0171" x2="510.1738" y1="637.5488" y2="637.5488"/><text fill="#000000" font-family="sans-serif" font-size="13" lengthAdjust="spacing" textLength="143.0635" x="101.0171" y="632.2861">displays the list of clients</text><polygon fill="#181818" points="494.1738,664.8398,504.1738,668.8398,494.1738,672.8398,498.1738,668.8398" style="stroke:#181818;stroke-width:1.0;"/><line style="stroke:#181818;stroke-width:1.0;" x1="84.0171" x2="500.1738" y1="668.8398" y2="668.8398"/><text fill="#000000" font-family="sans-serif" font-size="13" lengthAdjust="spacing" textLength="98.2744" x="91.0171" y="663.5771">Selects the client</text><polygon fill="#181818" points="682.1191,696.1309,692.1191,700.1309,682.1191,704.1309,686.1191,700.1309" style="stroke:#181818;stroke-width:1.0;"/><line style="stroke:#181818;stroke-width:1.0;" x1="516.1738" x2="688.1191" y1="700.1309" y2="700.1309"/><text fill="#000000" font-family="sans-serif" font-size="13" lengthAdjust="spacing" textLength="158.9453" x="523.1738" y="694.8682">listShowRequest(customer)</text><polygon fill="#181818" points="1586.5815,727.4219,1596.5815,731.4219,1586.5815,735.4219,1590.5815,731.4219" style="stroke:#181818;stroke-width:1.0;"/><line style="stroke:#181818;stroke-width:1.0;" x1="704.1191" x2="1592.5815" y1="731.4219" y2="731.4219"/><text fill="#000000" font-family="sans-serif" font-size="13" lengthAdjust="spacing" textLength="158.9453" x="711.1191" y="726.1592">listShowRequest(customer)</text><polygon fill="#181818" points="2058.1694,758.7129,2068.1694,762.7129,2058.1694,766.7129,2062.1694,762.7129" style="stroke:#181818;stroke-width:1.0;"/><line style="stroke:#181818;stroke-width:1.0;" x1="1608.5815" x2="2064.1694" y1="762.7129" y2="762.7129"/><text fill="#000000" font-family="sans-serif" font-size="13" lengthAdjust="spacing" textLength="154.5972" x="1615.5815" y="757.4502">findByCustomer(customer)</text><polygon fill="#181818" points="2241.7666,790.0039,2251.7666,794.0039,2241.7666,798.0039,2245.7666,794.0039" style="stroke:#181818;stroke-width:1.0;"/><line style="stroke:#181818;stroke-width:1.0;" x1="2080.1694" x2="2247.7666" y1="794.0039" y2="794.0039"/><text fill="#000000" font-family="sans-serif" font-size="13" lengthAdjust="spacing" textLength="154.5972" x="2087.1694" y="788.7412">findByCustomer(customer)</text><polygon fill="#181818" points="2091.1694,821.2949,2081.1694,825.2949,2091.1694,829.2949,2087.1694,825.2949" style="stroke:#181818;stroke-width:1.0;"/><line style="stroke:#181818;stroke-width:1.0;" x1="2085.1694" x2="2257.7666" y1="825.2949" y2="825.2949"/><text fill="#000000" font-family="sans-serif" font-size="13" lengthAdjust="spacing" textLength="78.7681" x="2097.1694" y="820.0322">showRequest</text><polygon fill="#181818" points="1619.5815,852.5859,1609.5815,856.5859,1619.5815,860.5859,1615.5815,856.5859" style="stroke:#181818;stroke-width:1.0;"/><line style="stroke:#181818;stroke-width:1.0;" x1="1613.5815" x2="2074.1694" y1="856.5859" y2="856.5859"/><text fill="#000000" font-family="sans-serif" font-size="13" lengthAdjust="spacing" textLength="78.7681" x="1625.5815" y="851.3232">showRequest</text><polygon fill="#181818" points="715.1191,883.877,705.1191,887.877,715.1191,891.877,711.1191,887.877" style="stroke:#181818;stroke-width:1.0;"/><line style="stroke:#181818;stroke-width:1.0;" x1="709.1191" x2="1602.5815" y1="887.877" y2="887.877"/><text fill="#000000" font-family="sans-serif" font-size="13" lengthAdjust="spacing" textLength="78.7681" x="721.1191" y="882.6143">showRequest</text><polygon fill="#181818" points="527.1738,915.168,517.1738,919.168,527.1738,923.168,523.1738,919.168" style="stroke:#181818;stroke-width:1.0;"/><line style="stroke:#181818;stroke-width:1.0;" x1="521.1738" x2="698.1191" y1="919.168" y2="919.168"/><text fill="#000000" font-family="sans-serif" font-size="13" lengthAdjust="spacing" textLength="78.7681" x="533.1738" y="913.9053">showRequest</text><polygon fill="#181818" points="95.0171,946.459,85.0171,950.459,95.0171,954.459,91.0171,950.459" style="stroke:#181818;stroke-width:1.0;"/><line style="stroke:#181818;stroke-width:1.0;" x1="89.0171" x2="510.1738" y1="950.459" y2="950.459"/><text fill="#000000" font-family="sans-serif" font-size="13" lengthAdjust="spacing" textLength="263.7578" x="101.0171" y="945.1963">displays show request associated to the client</text><polygon fill="#181818" points="494.1738,977.75,504.1738,981.75,494.1738,985.75,498.1738,981.75" style="stroke:#181818;stroke-width:1.0;"/><line style="stroke:#181818;stroke-width:1.0;" x1="84.0171" x2="500.1738" y1="981.75" y2="981.75"/><text fill="#000000" font-family="sans-serif" font-size="13" lengthAdjust="spacing" textLength="145.2471" x="91.0171" y="976.4873">Selects the show request</text><path d="M10,996.75 L82.4346,996.75 L82.4346,1006.041 L72.4346,1016.041 L10,1016.041 L10,996.75 " fill="#EEEEEE" style="stroke:#000000;stroke-width:1.5;"/><rect fill="none" height="161.7461" style="stroke:#000000;stroke-width:1.5;" width="580.8184" x="10" y="996.75"/><text fill="#000000" font-family="sans-serif" font-size="13" font-weight="bold" lengthAdjust="spacing" textLength="27.4346" x="25" y="1011.7783">loop</text><text fill="#000000" font-family="sans-serif" font-size="11" font-weight="bold" lengthAdjust="spacing" textLength="279.3184" x="97.4346" y="1010.6201">[While user wants to change show request attributes]</text><polygon fill="#181818" points="95.0171,1052.623,85.0171,1056.623,95.0171,1060.623,91.0171,1056.623" style="stroke:#181818;stroke-width:1.0;"/><line style="stroke:#181818;stroke-width:1.0;" x1="89.0171" x2="510.1738" y1="1056.623" y2="1056.623"/><text fill="#000000" font-family="sans-serif" font-size="13" lengthAdjust="spacing" textLength="394.5449" x="101.0171" y="1034.0693">displays the current attributes of the show request and asks to select</text><text fill="#000000" font-family="sans-serif" font-size="13" lengthAdjust="spacing" textLength="224.0278" x="101.0171" y="1051.3604">the attributes the user wants to change</text><polygon fill="#181818" points="494.1738,1083.9141,504.1738,1087.9141,494.1738,1091.9141,498.1738,1087.9141" style="stroke:#181818;stroke-width:1.0;"/><line style="stroke:#181818;stroke-width:1.0;" x1="84.0171" x2="500.1738" y1="1087.9141" y2="1087.9141"/><text fill="#000000" font-family="sans-serif" font-size="13" lengthAdjust="spacing" textLength="229.7979" x="91.0171" y="1082.6514">selects the attribute of the show request</text><polygon fill="#181818" points="95.0171,1115.2051,85.0171,1119.2051,95.0171,1123.2051,91.0171,1119.2051" style="stroke:#181818;stroke-width:1.0;"/><line style="stroke:#181818;stroke-width:1.0;" x1="89.0171" x2="510.1738" y1="1119.2051" y2="1119.2051"/><text fill="#000000" font-family="sans-serif" font-size="13" lengthAdjust="spacing" textLength="177.0679" x="101.0171" y="1113.9424">request the data of the atribute</text><polygon fill="#181818" points="494.1738,1146.4961,504.1738,1150.4961,494.1738,1154.4961,498.1738,1150.4961" style="stroke:#181818;stroke-width:1.0;"/><line style="stroke:#181818;stroke-width:1.0;" x1="84.0171" x2="500.1738" y1="1150.4961" y2="1150.4961"/><text fill="#000000" font-family="sans-serif" font-size="13" lengthAdjust="spacing" textLength="143.1016" x="91.0171" y="1145.2334">types the requested data</text><polygon fill="#181818" points="95.0171,1184.7871,85.0171,1188.7871,95.0171,1192.7871,91.0171,1188.7871" style="stroke:#181818;stroke-width:1.0;"/><line style="stroke:#181818;stroke-width:1.0;" x1="89.0171" x2="510.1738" y1="1188.7871" y2="1188.7871"/><text fill="#000000" font-family="sans-serif" font-size="13" lengthAdjust="spacing" textLength="155.3589" x="101.0171" y="1183.5244">displays operation success</text><!--SRC=[fLVRRjiu47tdLmpoP0T8q6IBfX2Ae8wJnJgrwyANzgN0Wf7ec8XCgYJbmFtw3YLPfcHALdRrPF5opXbovcYiNxX8gA8Rs4WXmxMI6mP6fOpeSYQXuGjzPdEpYnae5XegdcDtWLxJIBvoyGmh6cj620sDL70sd4rWAEEOFab5SUGCg8PGRTmnWX26XpoXmi3PGyJDV2rVP-nNohGPX8PBaMqR31UZwTVMrSjHjd8vQbqrbC8e5C1oESF5R0oVFj4aYNb8BTtjRNN_83LhgVZlR7BEr9Q7B9VacR1GE5p76ARQuCcg2HLuaXicZ0lKEDikp0dAZzkse3Dq7GatHd93kMYASSOIgJbUxQuIt64O4LJvqi9S0_BErB4YQkWJrGpExejVsTxz2o666ypY-KuRje6vXHDu6FUSFjjCle3b_Fgl3uG0fZ3VKiEEyfM0VMgZS75RP2W4CD0lO2Gmp3kWM1po5QicqvtlBQ6BdCv7yIaG46ivEZyFa8JXCkyqqbZWNh-SZLWZRZc1fL4EsWTn4CsMW8UkkW09OuxL4tFC8UtmLWZioYg5VRBzzeGy1ND-ZiXCw5GnEutWDYLPjDHC_KFrGEocgzvCnanVeftyEvoEnuExwMomcCxwZKJD1PL7ONrbo_onLEDf0ZeECkDlv7L4ESaRm8gBw6wNw-bPt-rxWOy47K3yIbmr3Y7As9T2T_AAW4CbGSjJaZJ5RMzXkghSGoEWazcdsVr1dqg8Bb8S6LrleJqV3bLrYjv3tI4ZzzMGkSKf6fV25l6n2zGjBu28woIcEmrOjna1o1M4BhY3MdgFnpepXNCMOs-HW-KWfDczZep9-JhqmkAC-gI3GUrFgVLZsOMZmjE6TdnJhTnLRHxtsAT4WwOcNQUIrq_gSv0E0jxe8Qv_D0Ml3-FaVzb6Ow0dKg9DW4FkF_BwXZVdH97xJIBy0evpiL53nJryB7N789tjmcs9i3lJCkJsas-Rfdhn_rS3QUcwgarGB6K2FzOScy8KMmvunIvKMoNX6l_ci9fMOnH_IWrplREJEuQfKXYKWs2ziguKg8ZmG5uo0JeB1tuAkyhPPrzzKjz-ODevi9B0f-ka4Hz7lu_8GjccV0zB2vetgWt0x98Y-08Q4yO2jzqk4n7fVayoOIfhJK6dOSXqmpViCwAccvYGRp5Um78oXYrJscwxkhn-T_t-ygOtfmQpCO5tDt1r7Lnz3AvkuCV3V05slazwaz42j4mLLZAovoU207toIBSKPYasmHiMm3HXul7-otu07iIMAobi-PB7xvF3WW_lB-wufLGe1RvFo3rRqJGsk2EK4Vun3s2v-FlY8nbZegJe004aXWmbugfT0DyMVm00]--></g></svg>