<svg xmlns="http://www.w3.org/2000/svg" xmlns:xlink="http://www.w3.org/1999/xlink" contentStyleType="text/css" height="589px" preserveAspectRatio="none" style="width:568px;height:589px;background:#FFFFFF;" version="1.1" viewBox="0 0 568 589" width="568px" zoomAndPan="magnify"><title>System Sequence Diagram - US236</title><defs/><g><text fill="#000000" font-family="sans-serif" font-size="14" font-weight="bold" lengthAdjust="spacing" textLength="234.9922" x="162.7598" y="30.1074">System Sequence Diagram - US236</text><rect fill="#FFFFFF" height="364.4922" style="stroke:#181818;stroke-width:1.0;" width="10" x="74.0171" y="133.2422"/><rect fill="#FFFFFF" height="31.291" style="stroke:#181818;stroke-width:1.0;" width="10" x="506.1738" y="201.8242"/><rect fill="#FFFFFF" height="74.873" style="stroke:#181818;stroke-width:1.0;" width="10" x="506.1738" y="264.4063"/><rect fill="#FFFFFF" height="31.291" style="stroke:#181818;stroke-width:1.0;" width="10" x="506.1738" y="370.5703"/><rect fill="#FFFFFF" height="55.582" style="stroke:#181818;stroke-width:1.0;" width="10" x="506.1738" y="433.1523"/><rect fill="none" height="161.7461" style="stroke:#000000;stroke-width:1.5;" width="541.5117" x="10" y="279.4063"/><line style="stroke:#181818;stroke-width:0.5;stroke-dasharray:5.0,5.0;" x1="79" x2="79" y1="123.2422" y2="506.7344"/><line style="stroke:#181818;stroke-width:0.5;stroke-dasharray:5.0,5.0;" x1="510.8359" x2="510.8359" y1="123.2422" y2="506.7344"/><text fill="#000000" font-family="sans-serif" font-size="14" lengthAdjust="spacing" textLength="112.0342" x="20" y="119.7285">CRM Collaborator</text><ellipse cx="79.0171" cy="53.1211" fill="#E3E3E3" rx="8" ry="8" style="stroke:#181818;stroke-width:0.5;"/><path d="M79.0171,61.1211 L79.0171,88.1211 M66.0171,69.1211 L92.0171,69.1211 M79.0171,88.1211 L66.0171,103.1211 M79.0171,88.1211 L92.0171,103.1211 " fill="none" style="stroke:#181818;stroke-width:0.5;"/><text fill="#000000" font-family="sans-serif" font-size="14" lengthAdjust="spacing" textLength="112.0342" x="20" y="520.8418">CRM Collaborator</text><ellipse cx="79.0171" cy="532.8555" fill="#E3E3E3" rx="8" ry="8" style="stroke:#181818;stroke-width:0.5;"/><path d="M79.0171,540.8555 L79.0171,567.8555 M66.0171,548.8555 L92.0171,548.8555 M79.0171,567.8555 L66.0171,582.8555 M79.0171,567.8555 L92.0171,582.8555 " fill="none" style="stroke:#181818;stroke-width:0.5;"/><rect fill="#E3E3E3" height="32.6211" rx="2.5" ry="2.5" style="stroke:#181818;stroke-width:0.5;" width="60.6758" x="480.8359" y="89.6211"/><text fill="#000000" font-family="sans-serif" font-size="14" lengthAdjust="spacing" textLength="46.6758" x="487.8359" y="111.7285">System</text><rect fill="#E3E3E3" height="32.6211" rx="2.5" ry="2.5" style="stroke:#181818;stroke-width:0.5;" width="60.6758" x="480.8359" y="505.7344"/><text fill="#000000" font-family="sans-serif" font-size="14" lengthAdjust="spacing" textLength="46.6758" x="487.8359" y="527.8418">System</text><rect fill="#FFFFFF" height="364.4922" style="stroke:#181818;stroke-width:1.0;" width="10" x="74.0171" y="133.2422"/><rect fill="#FFFFFF" height="31.291" style="stroke:#181818;stroke-width:1.0;" width="10" x="506.1738" y="201.8242"/><rect fill="#FFFFFF" height="74.873" style="stroke:#181818;stroke-width:1.0;" width="10" x="506.1738" y="264.4063"/><rect fill="#FFFFFF" height="31.291" style="stroke:#181818;stroke-width:1.0;" width="10" x="506.1738" y="370.5703"/><rect fill="#FFFFFF" height="55.582" style="stroke:#181818;stroke-width:1.0;" width="10" x="506.1738" y="433.1523"/><rect fill="#EEEEEE" height="3" style="stroke:#EEEEEE;stroke-width:1.0;" width="561.5117" x="0" y="154.8877"/><line style="stroke:#000000;stroke-width:1.0;" x1="0" x2="561.5117" y1="154.8877" y2="154.8877"/><line style="stroke:#000000;stroke-width:1.0;" x1="0" x2="561.5117" y1="157.8877" y2="157.8877"/><rect fill="#EEEEEE" height="25.291" style="stroke:#000000;stroke-width:2.0;" width="140.4136" x="210.5491" y="143.2422"/><text fill="#000000" font-family="sans-serif" font-size="13" font-weight="bold" lengthAdjust="spacing" textLength="122.8018" x="216.5491" y="161.2705">Edit a show request</text><polygon fill="#181818" points="494.1738,197.8242,504.1738,201.8242,494.1738,205.8242,498.1738,201.8242" style="stroke:#181818;stroke-width:1.0;"/><line style="stroke:#181818;stroke-width:1.0;" x1="84.0171" x2="500.1738" y1="201.8242" y2="201.8242"/><text fill="#000000" font-family="sans-serif" font-size="13" lengthAdjust="spacing" textLength="152.4707" x="91.0171" y="196.5615">Ask to edit a show request</text><polygon fill="#181818" points="95.0171,229.1152,85.0171,233.1152,95.0171,237.1152,91.0171,233.1152" style="stroke:#181818;stroke-width:1.0;"/><line style="stroke:#181818;stroke-width:1.0;" x1="89.0171" x2="510.1738" y1="233.1152" y2="233.1152"/><text fill="#000000" font-family="sans-serif" font-size="13" lengthAdjust="spacing" textLength="143.0635" x="101.0171" y="227.8525">displays the list of clients</text><polygon fill="#181818" points="494.1738,260.4063,504.1738,264.4063,494.1738,268.4063,498.1738,264.4063" style="stroke:#181818;stroke-width:1.0;"/><line style="stroke:#181818;stroke-width:1.0;" x1="84.0171" x2="500.1738" y1="264.4063" y2="264.4063"/><text fill="#000000" font-family="sans-serif" font-size="13" lengthAdjust="spacing" textLength="98.2744" x="91.0171" y="259.1436">Selects the client</text><path d="M10,279.4063 L82.4346,279.4063 L82.4346,288.6973 L72.4346,298.6973 L10,298.6973 L10,279.4063 " fill="#EEEEEE" style="stroke:#000000;stroke-width:1.5;"/><rect fill="none" height="161.7461" style="stroke:#000000;stroke-width:1.5;" width="541.5117" x="10" y="279.4063"/><text fill="#000000" font-family="sans-serif" font-size="13" font-weight="bold" lengthAdjust="spacing" textLength="27.4346" x="25" y="294.4346">loop</text><text fill="#000000" font-family="sans-serif" font-size="11" font-weight="bold" lengthAdjust="spacing" textLength="279.3184" x="97.4346" y="293.2764">[While user wants to change show request attributes]</text><polygon fill="#181818" points="95.0171,335.2793,85.0171,339.2793,95.0171,343.2793,91.0171,339.2793" style="stroke:#181818;stroke-width:1.0;"/><line style="stroke:#181818;stroke-width:1.0;" x1="89.0171" x2="510.1738" y1="339.2793" y2="339.2793"/><text fill="#000000" font-family="sans-serif" font-size="13" lengthAdjust="spacing" textLength="394.5449" x="101.0171" y="316.7256">displays the current attributes of the show request and asks to select</text><text fill="#000000" font-family="sans-serif" font-size="13" lengthAdjust="spacing" textLength="224.0278" x="101.0171" y="334.0166">the attributes the user wants to change</text><polygon fill="#181818" points="494.1738,366.5703,504.1738,370.5703,494.1738,374.5703,498.1738,370.5703" style="stroke:#181818;stroke-width:1.0;"/><line style="stroke:#181818;stroke-width:1.0;" x1="84.0171" x2="500.1738" y1="370.5703" y2="370.5703"/><text fill="#000000" font-family="sans-serif" font-size="13" lengthAdjust="spacing" textLength="229.7979" x="91.0171" y="365.3076">selects the attribute of the show request</text><polygon fill="#181818" points="95.0171,397.8613,85.0171,401.8613,95.0171,405.8613,91.0171,401.8613" style="stroke:#181818;stroke-width:1.0;"/><line style="stroke:#181818;stroke-width:1.0;" x1="89.0171" x2="510.1738" y1="401.8613" y2="401.8613"/><text fill="#000000" font-family="sans-serif" font-size="13" lengthAdjust="spacing" textLength="177.0679" x="101.0171" y="396.5986">request the data of the atribute</text><polygon fill="#181818" points="494.1738,429.1523,504.1738,433.1523,494.1738,437.1523,498.1738,433.1523" style="stroke:#181818;stroke-width:1.0;"/><line style="stroke:#181818;stroke-width:1.0;" x1="84.0171" x2="500.1738" y1="433.1523" y2="433.1523"/><text fill="#000000" font-family="sans-serif" font-size="13" lengthAdjust="spacing" textLength="143.1016" x="91.0171" y="427.8896">types the requested data</text><polygon fill="#181818" points="95.0171,484.7344,85.0171,488.7344,95.0171,492.7344,91.0171,488.7344" style="stroke:#181818;stroke-width:1.0;"/><line style="stroke:#181818;stroke-width:1.0;" x1="89.0171" x2="510.1738" y1="488.7344" y2="488.7344"/><text fill="#000000" font-family="sans-serif" font-size="13" lengthAdjust="spacing" textLength="303.4878" x="101.0171" y="466.1807">displays the list of figures and asks the user to select</text><text fill="#000000" font-family="sans-serif" font-size="13" lengthAdjust="spacing" textLength="249.3042" x="101.0171" y="483.4717">the figures according with the desired order</text><!--SRC=[fLHBRnen4BxxLumu9GUYGACGhPIeBL2fDAXH5f9BBuvt00kllRLdGVpxZbaU6m9frFha7O-_nyoimrpRGdgPG-wiKpFlSWJo9OgmEocaciiffhGo21uLIJirzOGmavbRQZk5YJG1XP2Ad8T6zt48NMUCV75USgG1Ce3oUJqc68AqqeMq18rq5GZpTLvORuKWJKnR7K2Alqkq2g6dvJHIDs6SjZzT2m6tjz3FD85aEMx9EZap48S5i1oza8Hlk0N4TH25vjs671Bu4kP03l0jSdLt1xsL2zkrWM2mG_m4CXqA8rS1Q8PWDCjq4r16ewLG8MHu7FazhIaQRau5Me4TrmZxLTiRvmfudcakTXdGmv8R4g9tDUD-u-kgIYAlNqh2K4Fui6DLUi_gQYZHVpnvJM8p7eJvMaHOUuDVDcRLxiNFOtB_lOgXLiKTqJ5zxnHNVAGaMviHDvCajnnomtdAGetXf8y4Q5LiohFXmMpDyfUHsE_GPlynp1CzBJqBsFTmswZ3PkuobN8-Yu_8KjEigWe6xLatnz6VxkXdbbhcHeW7mqCm7jx30dtGpaBhedtPlhhedAMI-FSeuB83hNRIkabQ7NZkfoE8v-VYRFXz1C6LdbyMjbCrW07EnK0k93oMbdIE2Vmiq0vwFxO1wDk5zixcyLSRF0tt2TTNpQywKdgM0az3qSE9B0tn3UMYoGJ6es_D6t7Fmrhouvf0GQBh6DUl4dWO_G40]--></g></svg>