<svg xmlns="http://www.w3.org/2000/svg" xmlns:xlink="http://www.w3.org/1999/xlink" contentStyleType="text/css" height="652px" preserveAspectRatio="none" style="width:568px;height:652px;background:#FFFFFF;" version="1.1" viewBox="0 0 568 652" width="568px" zoomAndPan="magnify"><title>System Sequence Diagram - US236</title><defs/><g><text fill="#000000" font-family="sans-serif" font-size="14" font-weight="bold" lengthAdjust="spacing" textLength="234.9922" x="162.7598" y="30.1074">System Sequence Diagram - US236</text><rect fill="#FFFFFF" height="427.0742" style="stroke:#181818;stroke-width:1.0;" width="10" x="74.0171" y="133.2422"/><rect fill="#FFFFFF" height="31.291" style="stroke:#181818;stroke-width:1.0;" width="10" x="506.1738" y="201.8242"/><rect fill="#FFFFFF" height="31.291" style="stroke:#181818;stroke-width:1.0;" width="10" x="506.1738" y="264.4063"/><rect fill="#FFFFFF" height="74.873" style="stroke:#181818;stroke-width:1.0;" width="10" x="506.1738" y="326.9883"/><rect fill="#FFFFFF" height="31.291" style="stroke:#181818;stroke-width:1.0;" width="10" x="506.1738" y="433.1523"/><rect fill="#FFFFFF" height="55.582" style="stroke:#181818;stroke-width:1.0;" width="10" x="506.1738" y="495.7344"/><rect fill="none" height="161.7461" style="stroke:#000000;stroke-width:1.5;" width="541.5117" x="10" y="341.9883"/><line style="stroke:#181818;stroke-width:0.5;stroke-dasharray:5.0,5.0;" x1="79" x2="79" y1="123.2422" y2="569.3164"/><line style="stroke:#181818;stroke-width:0.5;stroke-dasharray:5.0,5.0;" x1="510.8359" x2="510.8359" y1="123.2422" y2="569.3164"/><text fill="#000000" font-family="sans-serif" font-size="14" lengthAdjust="spacing" textLength="112.0342" x="20" y="119.7285">CRM Collaborator</text><ellipse cx="79.0171" cy="53.1211" fill="#E3E3E3" rx="8" ry="8" style="stroke:#181818;stroke-width:0.5;"/><path d="M79.0171,61.1211 L79.0171,88.1211 M66.0171,69.1211 L92.0171,69.1211 M79.0171,88.1211 L66.0171,103.1211 M79.0171,88.1211 L92.0171,103.1211 " fill="none" style="stroke:#181818;stroke-width:0.5;"/><text fill="#000000" font-family="sans-serif" font-size="14" lengthAdjust="spacing" textLength="112.0342" x="20" y="583.4238">CRM Collaborator</text><ellipse cx="79.0171" cy="595.4375" fill="#E3E3E3" rx="8" ry="8" style="stroke:#181818;stroke-width:0.5;"/><path d="M79.0171,603.4375 L79.0171,630.4375 M66.0171,611.4375 L92.0171,611.4375 M79.0171,630.4375 L66.0171,645.4375 M79.0171,630.4375 L92.0171,645.4375 " fill="none" style="stroke:#181818;stroke-width:0.5;"/><rect fill="#E3E3E3" height="32.6211" rx="2.5" ry="2.5" style="stroke:#181818;stroke-width:0.5;" width="60.6758" x="480.8359" y="89.6211"/><text fill="#000000" font-family="sans-serif" font-size="14" lengthAdjust="spacing" textLength="46.6758" x="487.8359" y="111.7285">System</text><rect fill="#E3E3E3" height="32.6211" rx="2.5" ry="2.5" style="stroke:#181818;stroke-width:0.5;" width="60.6758" x="480.8359" y="568.3164"/><text fill="#000000" font-family="sans-serif" font-size="14" lengthAdjust="spacing" textLength="46.6758" x="487.8359" y="590.4238">System</text><rect fill="#FFFFFF" height="427.0742" style="stroke:#181818;stroke-width:1.0;" width="10" x="74.0171" y="133.2422"/><rect fill="#FFFFFF" height="31.291" style="stroke:#181818;stroke-width:1.0;" width="10" x="506.1738" y="201.8242"/><rect fill="#FFFFFF" height="31.291" style="stroke:#181818;stroke-width:1.0;" width="10" x="506.1738" y="264.4063"/><rect fill="#FFFFFF" height="74.873" style="stroke:#181818;stroke-width:1.0;" width="10" x="506.1738" y="326.9883"/><rect fill="#FFFFFF" height="31.291" style="stroke:#181818;stroke-width:1.0;" width="10" x="506.1738" y="433.1523"/><rect fill="#FFFFFF" height="55.582" style="stroke:#181818;stroke-width:1.0;" width="10" x="506.1738" y="495.7344"/><rect fill="#EEEEEE" height="3" style="stroke:#EEEEEE;stroke-width:1.0;" width="561.5117" x="0" y="154.8877"/><line style="stroke:#000000;stroke-width:1.0;" x1="0" x2="561.5117" y1="154.8877" y2="154.8877"/><line style="stroke:#000000;stroke-width:1.0;" x1="0" x2="561.5117" y1="157.8877" y2="157.8877"/><rect fill="#EEEEEE" height="25.291" style="stroke:#000000;stroke-width:2.0;" width="140.4136" x="210.5491" y="143.2422"/><text fill="#000000" font-family="sans-serif" font-size="13" font-weight="bold" lengthAdjust="spacing" textLength="122.8018" x="216.5491" y="161.2705">Edit a show request</text><polygon fill="#181818" points="494.1738,197.8242,504.1738,201.8242,494.1738,205.8242,498.1738,201.8242" style="stroke:#181818;stroke-width:1.0;"/><line style="stroke:#181818;stroke-width:1.0;" x1="84.0171" x2="500.1738" y1="201.8242" y2="201.8242"/><text fill="#000000" font-family="sans-serif" font-size="13" lengthAdjust="spacing" textLength="152.4707" x="91.0171" y="196.5615">Ask to edit a show request</text><polygon fill="#181818" points="95.0171,229.1152,85.0171,233.1152,95.0171,237.1152,91.0171,233.1152" style="stroke:#181818;stroke-width:1.0;"/><line style="stroke:#181818;stroke-width:1.0;" x1="89.0171" x2="510.1738" y1="233.1152" y2="233.1152"/><text fill="#000000" font-family="sans-serif" font-size="13" lengthAdjust="spacing" textLength="143.0635" x="101.0171" y="227.8525">displays the list of clients</text><polygon fill="#181818" points="494.1738,260.4063,504.1738,264.4063,494.1738,268.4063,498.1738,264.4063" style="stroke:#181818;stroke-width:1.0;"/><line style="stroke:#181818;stroke-width:1.0;" x1="84.0171" x2="500.1738" y1="264.4063" y2="264.4063"/><text fill="#000000" font-family="sans-serif" font-size="13" lengthAdjust="spacing" textLength="98.2744" x="91.0171" y="259.1436">Selects the client</text><polygon fill="#181818" points="95.0171,291.6973,85.0171,295.6973,95.0171,299.6973,91.0171,295.6973" style="stroke:#181818;stroke-width:1.0;"/><line style="stroke:#181818;stroke-width:1.0;" x1="89.0171" x2="510.1738" y1="295.6973" y2="295.6973"/><text fill="#000000" font-family="sans-serif" font-size="13" lengthAdjust="spacing" textLength="263.7578" x="101.0171" y="290.4346">displays show request associated to the client</text><polygon fill="#181818" points="494.1738,322.9883,504.1738,326.9883,494.1738,330.9883,498.1738,326.9883" style="stroke:#181818;stroke-width:1.0;"/><line style="stroke:#181818;stroke-width:1.0;" x1="84.0171" x2="500.1738" y1="326.9883" y2="326.9883"/><text fill="#000000" font-family="sans-serif" font-size="13" lengthAdjust="spacing" textLength="145.2471" x="91.0171" y="321.7256">Selects the show request</text><path d="M10,341.9883 L82.4346,341.9883 L82.4346,351.2793 L72.4346,361.2793 L10,361.2793 L10,341.9883 " fill="#EEEEEE" style="stroke:#000000;stroke-width:1.5;"/><rect fill="none" height="161.7461" style="stroke:#000000;stroke-width:1.5;" width="541.5117" x="10" y="341.9883"/><text fill="#000000" font-family="sans-serif" font-size="13" font-weight="bold" lengthAdjust="spacing" textLength="27.4346" x="25" y="357.0166">loop</text><text fill="#000000" font-family="sans-serif" font-size="11" font-weight="bold" lengthAdjust="spacing" textLength="279.3184" x="97.4346" y="355.8584">[While user wants to change show request attributes]</text><polygon fill="#181818" points="95.0171,397.8613,85.0171,401.8613,95.0171,405.8613,91.0171,401.8613" style="stroke:#181818;stroke-width:1.0;"/><line style="stroke:#181818;stroke-width:1.0;" x1="89.0171" x2="510.1738" y1="401.8613" y2="401.8613"/><text fill="#000000" font-family="sans-serif" font-size="13" lengthAdjust="spacing" textLength="394.5449" x="101.0171" y="379.3076">displays the current attributes of the show request and asks to select</text><text fill="#000000" font-family="sans-serif" font-size="13" lengthAdjust="spacing" textLength="224.0278" x="101.0171" y="396.5986">the attributes the user wants to change</text><polygon fill="#181818" points="494.1738,429.1523,504.1738,433.1523,494.1738,437.1523,498.1738,433.1523" style="stroke:#181818;stroke-width:1.0;"/><line style="stroke:#181818;stroke-width:1.0;" x1="84.0171" x2="500.1738" y1="433.1523" y2="433.1523"/><text fill="#000000" font-family="sans-serif" font-size="13" lengthAdjust="spacing" textLength="229.7979" x="91.0171" y="427.8896">selects the attribute of the show request</text><polygon fill="#181818" points="95.0171,460.4434,85.0171,464.4434,95.0171,468.4434,91.0171,464.4434" style="stroke:#181818;stroke-width:1.0;"/><line style="stroke:#181818;stroke-width:1.0;" x1="89.0171" x2="510.1738" y1="464.4434" y2="464.4434"/><text fill="#000000" font-family="sans-serif" font-size="13" lengthAdjust="spacing" textLength="177.0679" x="101.0171" y="459.1807">request the data of the atribute</text><polygon fill="#181818" points="494.1738,491.7344,504.1738,495.7344,494.1738,499.7344,498.1738,495.7344" style="stroke:#181818;stroke-width:1.0;"/><line style="stroke:#181818;stroke-width:1.0;" x1="84.0171" x2="500.1738" y1="495.7344" y2="495.7344"/><text fill="#000000" font-family="sans-serif" font-size="13" lengthAdjust="spacing" textLength="143.1016" x="91.0171" y="490.4717">types the requested data</text><polygon fill="#181818" points="95.0171,547.3164,85.0171,551.3164,95.0171,555.3164,91.0171,551.3164" style="stroke:#181818;stroke-width:1.0;"/><line style="stroke:#181818;stroke-width:1.0;" x1="89.0171" x2="510.1738" y1="551.3164" y2="551.3164"/><text fill="#000000" font-family="sans-serif" font-size="13" lengthAdjust="spacing" textLength="303.4878" x="101.0171" y="528.7627">displays the list of figures and asks the user to select</text><text fill="#000000" font-family="sans-serif" font-size="13" lengthAdjust="spacing" textLength="249.3042" x="101.0171" y="546.0537">the figures according with the desired order</text><!--SRC=[fLJ1JXin4BtxAqQSu114KWHe9Qgs2PLAYOhO09TU1kyaiUArj_PielnznzaaX4190Pzsn-FtthmPEqwCgp1W2QLtNe-3BmaurAJYUgT2FS4HvJot184qenlPpOGuniBFZ1l146qafL2p3x3NlUb3rrkB3pwWHFO08-XGRiQKGB3HfaB7i9VF8rEvo8kBJwNOiD0s6v3JdvgS9kWP72Ng5jpcdKydIi7vELmKXW55Zf-9JicCB6458iTCaUaPjuAqjgBG-hmaXmo-nWcm1tgEt9nTGw_amcej8GHi6p-3miJAuZm2Zmci4Pb-2DeQSXmRX89UHdvDQqvMcjE0Dc2xDFwVo2T-OenU6q4haY_RL1-L_HQ3mNfVmVtOo7ZKaGBCP8HYKgN7Cg6qfPivc8UQARwr_4MDTGXIv0PAwjYsOa1NY46JXOYuA0j-kvIrSIxzlYJt_GR63GFNH2_fs-7eQswiAaoG1JAku759zqxr6V2yMfgof931IWIxka-k-C1T6vfH7OJtiM6hhcntRfsfjGz5UkDcXiUD3nHD4BaIf_1l0xw8rBgqIbrRwVXj_mgc5ABn3jg7dQFEyU7fVeuirw22erDeTxBsMTO-XVkBV01f_q3jztyC8FewoCCdvJIM2y21kiGfmatjs9IKmQ-At6Nlvoe05svgWdTbkfwNT_t7X9FZrZUJA8D8WRk-wj4GQyjoGljKP0QtW- -jCtKbardBsvz1nQhh1JVCCxWU_0K0]--></g></svg>