<svg xmlns="http://www.w3.org/2000/svg" xmlns:xlink="http://www.w3.org/1999/xlink" contentStyleType="text/css" height="667px" preserveAspectRatio="none" style="width:488px;height:667px;background:#FFFFFF;" version="1.1" viewBox="0 0 488 667" width="488px" zoomAndPan="magnify"><title>System Sequence Diagram - Add figures to a proposal</title><defs/><g><text fill="#000000" font-family="sans-serif" font-size="14" font-weight="bold" lengthAdjust="spacing" textLength="361.751" x="59.1641" y="30.1074">System Sequence Diagram - Add figures to a proposal</text><rect fill="#FFFFFF" height="442.4141" style="stroke:#181818;stroke-width:1.0;" width="10" x="84.0171" y="133.2422"/><rect fill="#FFFFFF" height="31.291" style="stroke:#181818;stroke-width:1.0;" width="10" x="415.7412" y="201.8242"/><rect fill="#FFFFFF" height="31.291" style="stroke:#181818;stroke-width:1.0;" width="10" x="415.7412" y="264.4063"/><rect fill="#FFFFFF" height="83.873" style="stroke:#181818;stroke-width:1.0;" width="10" x="415.7412" y="326.9883"/><rect fill="#FFFFFF" height="124.5039" style="stroke:#181818;stroke-width:1.0;" width="10" x="415.7412" y="442.1523"/><rect fill="none" height="194.377" style="stroke:#000000;stroke-width:1.5;" width="461.0791" x="10" y="341.9883"/><rect fill="none" height="81.873" style="stroke:#000000;stroke-width:1.5;" width="441.0791" x="20" y="368.2793"/><line style="stroke:#181818;stroke-width:0.5;stroke-dasharray:5.0,5.0;" x1="89" x2="89" y1="123.2422" y2="584.6563"/><line style="stroke:#181818;stroke-width:0.5;stroke-dasharray:5.0,5.0;" x1="420.4033" x2="420.4033" y1="123.2422" y2="584.6563"/><text fill="#000000" font-family="sans-serif" font-size="14" lengthAdjust="spacing" textLength="112.0342" x="30" y="119.7285">CRM Collaborator</text><ellipse cx="89.0171" cy="53.1211" fill="#E3E3E3" rx="8" ry="8" style="stroke:#181818;stroke-width:0.5;"/><path d="M89.0171,61.1211 L89.0171,88.1211 M76.0171,69.1211 L102.0171,69.1211 M89.0171,88.1211 L76.0171,103.1211 M89.0171,88.1211 L102.0171,103.1211 " fill="none" style="stroke:#181818;stroke-width:0.5;"/><text fill="#000000" font-family="sans-serif" font-size="14" lengthAdjust="spacing" textLength="112.0342" x="30" y="598.7637">CRM Collaborator</text><ellipse cx="89.0171" cy="610.7773" fill="#E3E3E3" rx="8" ry="8" style="stroke:#181818;stroke-width:0.5;"/><path d="M89.0171,618.7773 L89.0171,645.7773 M76.0171,626.7773 L102.0171,626.7773 M89.0171,645.7773 L76.0171,660.7773 M89.0171,645.7773 L102.0171,660.7773 " fill="none" style="stroke:#181818;stroke-width:0.5;"/><rect fill="#E3E3E3" height="32.6211" rx="2.5" ry="2.5" style="stroke:#181818;stroke-width:0.5;" width="60.6758" x="390.4033" y="89.6211"/><text fill="#000000" font-family="sans-serif" font-size="14" lengthAdjust="spacing" textLength="46.6758" x="397.4033" y="111.7285">System</text><rect fill="#E3E3E3" height="32.6211" rx="2.5" ry="2.5" style="stroke:#181818;stroke-width:0.5;" width="60.6758" x="390.4033" y="583.6563"/><text fill="#000000" font-family="sans-serif" font-size="14" lengthAdjust="spacing" textLength="46.6758" x="397.4033" y="605.7637">System</text><rect fill="#FFFFFF" height="442.4141" style="stroke:#181818;stroke-width:1.0;" width="10" x="84.0171" y="133.2422"/><rect fill="#FFFFFF" height="31.291" style="stroke:#181818;stroke-width:1.0;" width="10" x="415.7412" y="201.8242"/><rect fill="#FFFFFF" height="31.291" style="stroke:#181818;stroke-width:1.0;" width="10" x="415.7412" y="264.4063"/><rect fill="#FFFFFF" height="83.873" style="stroke:#181818;stroke-width:1.0;" width="10" x="415.7412" y="326.9883"/><rect fill="#FFFFFF" height="124.5039" style="stroke:#181818;stroke-width:1.0;" width="10" x="415.7412" y="442.1523"/><rect fill="#EEEEEE" height="3" style="stroke:#EEEEEE;stroke-width:1.0;" width="481.0791" x="0" y="154.8877"/><line style="stroke:#000000;stroke-width:1.0;" x1="0" x2="481.0791" y1="154.8877" y2="154.8877"/><line style="stroke:#000000;stroke-width:1.0;" x1="0" x2="481.0791" y1="157.8877" y2="157.8877"/><rect fill="#EEEEEE" height="25.291" style="stroke:#000000;stroke-width:2.0;" width="175.0654" x="153.0068" y="143.2422"/><text fill="#000000" font-family="sans-serif" font-size="13" font-weight="bold" lengthAdjust="spacing" textLength="157.4536" x="159.0068" y="161.2705">Add figures to a proposal</text><polygon fill="#181818" points="403.7412,197.8242,413.7412,201.8242,403.7412,205.8242,407.7412,201.8242" style="stroke:#181818;stroke-width:1.0;"/><line style="stroke:#181818;stroke-width:1.0;" x1="94.0171" x2="409.7412" y1="201.8242" y2="201.8242"/><text fill="#000000" font-family="sans-serif" font-size="13" lengthAdjust="spacing" textLength="231.9624" x="101.0171" y="196.5615">Wants to add figures to a show proposal</text><polygon fill="#181818" points="105.0171,229.1152,95.0171,233.1152,105.0171,237.1152,101.0171,233.1152" style="stroke:#181818;stroke-width:1.0;"/><line style="stroke:#181818;stroke-width:1.0;stroke-dasharray:2.0,2.0;" x1="99.0171" x2="419.7412" y1="233.1152" y2="233.1152"/><text fill="#000000" font-family="sans-serif" font-size="13" lengthAdjust="spacing" textLength="216.7915" x="111.0171" y="227.8525">Shows list of pending show proposals</text><polygon fill="#181818" points="403.7412,260.4063,413.7412,264.4063,403.7412,268.4063,407.7412,264.4063" style="stroke:#181818;stroke-width:1.0;"/><line style="stroke:#181818;stroke-width:1.0;" x1="94.0171" x2="409.7412" y1="264.4063" y2="264.4063"/><text fill="#000000" font-family="sans-serif" font-size="13" lengthAdjust="spacing" textLength="140.9116" x="101.0171" y="259.1436">Selects a show proposal</text><polygon fill="#181818" points="105.0171,291.6973,95.0171,295.6973,105.0171,299.6973,101.0171,295.6973" style="stroke:#181818;stroke-width:1.0;"/><line style="stroke:#181818;stroke-width:1.0;stroke-dasharray:2.0,2.0;" x1="99.0171" x2="419.7412" y1="295.6973" y2="295.6973"/><text fill="#000000" font-family="sans-serif" font-size="13" lengthAdjust="spacing" textLength="297.7241" x="111.0171" y="290.4346">Do you want to create a new figure sequence? (y/n)</text><polygon fill="#181818" points="403.7412,322.9883,413.7412,326.9883,403.7412,330.9883,407.7412,326.9883" style="stroke:#181818;stroke-width:1.0;"/><line style="stroke:#181818;stroke-width:1.0;" x1="94.0171" x2="409.7412" y1="326.9883" y2="326.9883"/><text fill="#000000" font-family="sans-serif" font-size="13" lengthAdjust="spacing" textLength="88.1499" x="101.0171" y="321.7256">Responds (y/n)</text><path d="M10,341.9883 L70.1709,341.9883 L70.1709,351.2793 L60.1709,361.2793 L10,361.2793 L10,341.9883 " fill="#EEEEEE" style="stroke:#000000;stroke-width:1.5;"/><rect fill="none" height="194.377" style="stroke:#000000;stroke-width:1.5;" width="461.0791" x="10" y="341.9883"/><text fill="#000000" font-family="sans-serif" font-size="13" font-weight="bold" lengthAdjust="spacing" textLength="15.1709" x="25" y="357.0166">alt</text><text fill="#000000" font-family="sans-serif" font-size="11" font-weight="bold" lengthAdjust="spacing" textLength="93.876" x="85.1709" y="355.8584">[User chooses 'y']</text><path d="M20,368.2793 L92.4346,368.2793 L92.4346,377.5703 L82.4346,387.5703 L20,387.5703 L20,368.2793 " fill="#EEEEEE" style="stroke:#000000;stroke-width:1.5;"/><rect fill="none" height="81.873" style="stroke:#000000;stroke-width:1.5;" width="441.0791" x="20" y="368.2793"/><text fill="#000000" font-family="sans-serif" font-size="13" font-weight="bold" lengthAdjust="spacing" textLength="27.4346" x="35" y="383.3076">loop</text><text fill="#000000" font-family="sans-serif" font-size="11" font-weight="bold" lengthAdjust="spacing" textLength="172.96" x="107.4346" y="382.1494">[While user wants to add figures]</text><polygon fill="#181818" points="105.0171,406.8613,95.0171,410.8613,105.0171,414.8613,101.0171,410.8613" style="stroke:#181818;stroke-width:1.0;"/><line style="stroke:#181818;stroke-width:1.0;stroke-dasharray:2.0,2.0;" x1="99.0171" x2="419.7412" y1="410.8613" y2="410.8613"/><text fill="#000000" font-family="sans-serif" font-size="13" lengthAdjust="spacing" textLength="115.6035" x="111.0171" y="405.5986">Shows list of figures</text><polygon fill="#181818" points="403.7412,438.1523,413.7412,442.1523,403.7412,446.1523,407.7412,442.1523" style="stroke:#181818;stroke-width:1.0;"/><line style="stroke:#181818;stroke-width:1.0;" x1="94.0171" x2="409.7412" y1="442.1523" y2="442.1523"/><text fill="#000000" font-family="sans-serif" font-size="13" lengthAdjust="spacing" textLength="133.6753" x="101.0171" y="436.8896">Selects figure(s) to add</text><line style="stroke:#000000;stroke-width:1.0;stroke-dasharray:2.0,2.0;" x1="10" x2="471.0791" y1="458.1523" y2="458.1523"/><text fill="#000000" font-family="sans-serif" font-size="11" font-weight="bold" lengthAdjust="spacing" textLength="94.4775" x="15" y="470.0225">[User chooses 'n']</text><polygon fill="#181818" points="105.0171,493.0742,95.0171,497.0742,105.0171,501.0742,101.0171,497.0742" style="stroke:#181818;stroke-width:1.0;"/><line style="stroke:#181818;stroke-width:1.0;stroke-dasharray:2.0,2.0;" x1="99.0171" x2="414.7412" y1="497.0742" y2="497.0742"/><text fill="#000000" font-family="sans-serif" font-size="13" lengthAdjust="spacing" textLength="176.3252" x="111.0171" y="491.8115">Assign figure to a drone model</text><polygon fill="#181818" points="403.7412,524.3652,413.7412,528.3652,403.7412,532.3652,407.7412,528.3652" style="stroke:#181818;stroke-width:1.0;"/><line style="stroke:#181818;stroke-width:1.0;" x1="94.0171" x2="409.7412" y1="528.3652" y2="528.3652"/><text fill="#000000" font-family="sans-serif" font-size="13" lengthAdjust="spacing" textLength="118.5107" x="101.0171" y="523.1025">Selects drone model</text><polygon fill="#181818" points="105.0171,562.6563,95.0171,566.6563,105.0171,570.6563,101.0171,566.6563" style="stroke:#181818;stroke-width:1.0;"/><line style="stroke:#181818;stroke-width:1.0;stroke-dasharray:2.0,2.0;" x1="99.0171" x2="419.7412" y1="566.6563" y2="566.6563"/><text fill="#000000" font-family="sans-serif" font-size="13" lengthAdjust="spacing" textLength="145.9707" x="111.0171" y="561.3936">Confirmation of operation</text><!--SRC=[fLF1JiCm3BtdAwnT68U9-wI1qBXoeK8xczHh8z8un2bL_vwawyRenZH4Jgtjz_AUxSYxSHu3Dj2mOrq7RWXYQ4d98UDHlsD5HUmjGI0TqLNsk41gBBaphe8jMY6bK4SEC5k_FCEQhSKt3fWYCq017PhZc4eKqMZZqKMO5Rr4QeOw6JwLYYQcQtS9AEYZ9QS9dWnM-Ue5F9ObR4tL1XA830W-i6T1gzHgzNiMLgiiqtnYf1DDQXA0nVse1vQmIKftP5DkgRdxllx0FZeP2HQ9Qqg_X2911QoH2Bm5JwxCxVn1AAgaAUT5eGNPD2pvdx0dXfvRwF9uaaaTA2CH77MZUP1nA0ymx-_SxLzblf1uTgMCw1CisWYlGW5qpIofrpVzZO9qBBE7JMtIUhGvtvqPp52Opn-wFuMUyRDFNTF-7TrSRaTf1_2KDSVIu1MbDpHnx7QEBvfu536LsmzbMCWoiAFqiakoLstASNrMSdarrkos9ZGO3RlSD_OKXfyp6_05]--></g></svg>