<svg xmlns="http://www.w3.org/2000/svg" xmlns:xlink="http://www.w3.org/1999/xlink" contentStyleType="text/css" height="459px" preserveAspectRatio="none" style="width:337px;height:459px;background:#FFFFFF;" version="1.1" viewBox="0 0 337 459" width="337px" zoomAndPan="magnify"><title>System Sequence Diagram - US312</title><defs/><g><text fill="#000000" font-family="sans-serif" font-size="14" font-weight="bold" lengthAdjust="spacing" textLength="234.9922" x="47.3535" y="30.1074">System Sequence Diagram - US312</text><rect fill="#FFFFFF" height="234.0371" style="stroke:#181818;stroke-width:1.0;" width="10" x="59.0171" y="133.2422"/><rect fill="#FFFFFF" height="31.291" style="stroke:#181818;stroke-width:1.0;" width="10" x="290.3613" y="201.8242"/><rect fill="#FFFFFF" height="31.291" style="stroke:#181818;stroke-width:1.0;" width="10" x="290.3613" y="264.4063"/><rect fill="#FFFFFF" height="31.291" style="stroke:#181818;stroke-width:1.0;" width="10" x="290.3613" y="326.9883"/><line style="stroke:#181818;stroke-width:0.5;stroke-dasharray:5.0,5.0;" x1="64" x2="64" y1="123.2422" y2="376.2793"/><line style="stroke:#181818;stroke-width:0.5;stroke-dasharray:5.0,5.0;" x1="295.0234" x2="295.0234" y1="123.2422" y2="376.2793"/><text fill="#000000" font-family="sans-serif" font-size="14" lengthAdjust="spacing" textLength="112.0342" x="5" y="119.7285">CRM Collaborator</text><ellipse cx="64.0171" cy="53.1211" fill="#E3E3E3" rx="8" ry="8" style="stroke:#181818;stroke-width:0.5;"/><path d="M64.0171,61.1211 L64.0171,88.1211 M51.0171,69.1211 L77.0171,69.1211 M64.0171,88.1211 L51.0171,103.1211 M64.0171,88.1211 L77.0171,103.1211 " fill="none" style="stroke:#181818;stroke-width:0.5;"/><text fill="#000000" font-family="sans-serif" font-size="14" lengthAdjust="spacing" textLength="112.0342" x="5" y="390.3867">CRM Collaborator</text><ellipse cx="64.0171" cy="402.4004" fill="#E3E3E3" rx="8" ry="8" style="stroke:#181818;stroke-width:0.5;"/><path d="M64.0171,410.4004 L64.0171,437.4004 M51.0171,418.4004 L77.0171,418.4004 M64.0171,437.4004 L51.0171,452.4004 M64.0171,437.4004 L77.0171,452.4004 " fill="none" style="stroke:#181818;stroke-width:0.5;"/><rect fill="#E3E3E3" height="32.6211" rx="2.5" ry="2.5" style="stroke:#181818;stroke-width:0.5;" width="60.6758" x="265.0234" y="89.6211"/><text fill="#000000" font-family="sans-serif" font-size="14" lengthAdjust="spacing" textLength="46.6758" x="272.0234" y="111.7285">System</text><rect fill="#E3E3E3" height="32.6211" rx="2.5" ry="2.5" style="stroke:#181818;stroke-width:0.5;" width="60.6758" x="265.0234" y="375.2793"/><text fill="#000000" font-family="sans-serif" font-size="14" lengthAdjust="spacing" textLength="46.6758" x="272.0234" y="397.3867">System</text><rect fill="#FFFFFF" height="234.0371" style="stroke:#181818;stroke-width:1.0;" width="10" x="59.0171" y="133.2422"/><rect fill="#FFFFFF" height="31.291" style="stroke:#181818;stroke-width:1.0;" width="10" x="290.3613" y="201.8242"/><rect fill="#FFFFFF" height="31.291" style="stroke:#181818;stroke-width:1.0;" width="10" x="290.3613" y="264.4063"/><rect fill="#FFFFFF" height="31.291" style="stroke:#181818;stroke-width:1.0;" width="10" x="290.3613" y="326.9883"/><rect fill="#EEEEEE" height="3" style="stroke:#EEEEEE;stroke-width:1.0;" width="330.6992" x="0" y="154.8877"/><line style="stroke:#000000;stroke-width:1.0;" x1="0" x2="330.6992" y1="154.8877" y2="154.8877"/><line style="stroke:#000000;stroke-width:1.0;" x1="0" x2="330.6992" y1="157.8877" y2="157.8877"/><rect fill="#EEEEEE" height="25.291" style="stroke:#000000;stroke-width:2.0;" width="171.4536" x="79.6228" y="143.2422"/><text fill="#000000" font-family="sans-serif" font-size="13" font-weight="bold" lengthAdjust="spacing" textLength="157.4536" x="85.6228" y="161.2705">Add figures to a proposal</text><polygon fill="#181818" points="278.3613,197.8242,288.3613,201.8242,278.3613,205.8242,282.3613,201.8242" style="stroke:#181818;stroke-width:1.0;"/><line style="stroke:#181818;stroke-width:1.0;" x1="69.0171" x2="284.3613" y1="201.8242" y2="201.8242"/><text fill="#000000" font-family="sans-serif" font-size="13" lengthAdjust="spacing" textLength="135.1353" x="76.0171" y="196.5615">Selects proposal to edit</text><polygon fill="#181818" points="80.0171,229.1152,70.0171,233.1152,80.0171,237.1152,76.0171,233.1152" style="stroke:#181818;stroke-width:1.0;"/><line style="stroke:#181818;stroke-width:1.0;stroke-dasharray:2.0,2.0;" x1="74.0171" x2="294.3613" y1="233.1152" y2="233.1152"/><text fill="#000000" font-family="sans-serif" font-size="13" lengthAdjust="spacing" textLength="139.4517" x="86.0171" y="227.8525">Returns list of proposals</text><polygon fill="#181818" points="278.3613,260.4063,288.3613,264.4063,278.3613,268.4063,282.3613,264.4063" style="stroke:#181818;stroke-width:1.0;"/><line style="stroke:#181818;stroke-width:1.0;" x1="69.0171" x2="284.3613" y1="264.4063" y2="264.4063"/><text fill="#000000" font-family="sans-serif" font-size="13" lengthAdjust="spacing" textLength="202.3442" x="76.0171" y="259.1436">Wants to add a figure to a proposal</text><polygon fill="#181818" points="80.0171,291.6973,70.0171,295.6973,80.0171,299.6973,76.0171,295.6973" style="stroke:#181818;stroke-width:1.0;"/><line style="stroke:#181818;stroke-width:1.0;stroke-dasharray:2.0,2.0;" x1="74.0171" x2="294.3613" y1="295.6973" y2="295.6973"/><text fill="#000000" font-family="sans-serif" font-size="13" lengthAdjust="spacing" textLength="153.1753" x="86.0171" y="290.4346">Shows list of active figures</text><polygon fill="#181818" points="278.3613,322.9883,288.3613,326.9883,278.3613,330.9883,282.3613,326.9883" style="stroke:#181818;stroke-width:1.0;"/><line style="stroke:#181818;stroke-width:1.0;" x1="69.0171" x2="284.3613" y1="326.9883" y2="326.9883"/><text fill="#000000" font-family="sans-serif" font-size="13" lengthAdjust="spacing" textLength="128.6289" x="76.0171" y="321.7256">Selects figure/s to add</text><polygon fill="#181818" points="80.0171,354.2793,70.0171,358.2793,80.0171,362.2793,76.0171,358.2793" style="stroke:#181818;stroke-width:1.0;"/><line style="stroke:#181818;stroke-width:1.0;stroke-dasharray:2.0,2.0;" x1="74.0171" x2="294.3613" y1="358.2793" y2="358.2793"/><text fill="#000000" font-family="sans-serif" font-size="13" lengthAdjust="spacing" textLength="192.9116" x="86.0171" y="353.0166">Confirm Customer Added figure/s</text><!--SRC=[bP91JyCm38Nl-HLMxnK2RfEAXCgLooh4sQHk5osDkzXbshydMxjkRDC4jyYnt_kU4rcxq6F43ZeER5UHEmAD0ncPRtgqQsofqfqdY6GLG-lF6sI5DMzTQA51BsGCMkK8MRbyXvAzno-Ec2ePe82DtNdD90brrlKO5B9g9qhTeKyEHsFKQR8TBw2YpK314hmvRFVMENnKpuzFnXJ5Qrr3uzeXae0o8FIHUnRqHR47Sj-eTELkBWgGlqpEi4XkFgMLMMWlIxNJazm4EKtaQVXIRm5BqY460Uz4WPjPJKnDbq9tSJxJYiPeAIbEMNz7lIAxZrQjU7i2EypISOStwFwogt7wuSXf_abKScXSxA0SHDDNZ91UbUfPzTRAp0y0]--></g></svg>