<?xml version="1.0" encoding="UTF-8" standalone="no"?><svg xmlns="http://www.w3.org/2000/svg" xmlns:xlink="http://www.w3.org/1999/xlink" contentScriptType="application/ecmascript" contentStyleType="text/css" height="99px" preserveAspectRatio="none" style="width:202px;height:99px;" version="1.1" viewBox="0 0 202 99" width="202px" zoomAndPan="magnify"><defs><filter height="300%" id="fu7baey89vkyc" width="300%" x="-1" y="-1"><feGaussianBlur result="blurOut" stdDeviation="2.0"/><feColorMatrix in="blurOut" result="blurOut2" type="matrix" values="0 0 0 0 0 0 0 0 0 0 0 0 0 0 0 0 0 0 .4 0"/><feOffset dx="4.0" dy="4.0" in="blurOut2" result="blurOut3"/><feBlend in="SourceGraphic" in2="blurOut3" mode="normal"/></filter></defs><g><!--MD5=[52baea1aba08aa699ed390a34ed9f354]
class hello2.Greeter--><a href="Greeter.html" target="_top" title="Greeter.html" xlink:actuate="onRequest" xlink:href="Greeter.html" xlink:show="new" xlink:title="Greeter.html" xlink:type="simple"><rect codeLine="5" fill="#FEFECE" filter="url(#fu7baey89vkyc)" height="62.0234" id="hello2.Greeter" style="stroke: #A80036; stroke-width: 1.5;" width="109" x="40.5" y="7"/><ellipse cx="68.1" cy="27.0938" fill="#ADD1B2" rx="11" ry="11" style="stroke: #A80036; stroke-width: 1.0;"/><path d="M70.8656,22.9688 Q71.0219,22.75 71.2094,22.6406 Q71.3969,22.5313 71.6156,22.5313 Q71.9906,22.5313 72.225,22.7969 Q72.4594,23.0469 72.4594,23.6563 L72.4594,25.1094 Q72.4594,25.7188 72.225,25.9844 Q71.9906,26.25 71.6156,26.25 Q71.2719,26.25 71.0688,26.0469 Q70.8656,25.8594 70.7563,25.3438 Q70.7094,24.9844 70.5219,24.7969 Q70.1938,24.4219 69.5844,24.2031 Q68.975,23.9844 68.35,23.9844 Q67.5844,23.9844 66.9438,24.3125 Q66.3188,24.6406 65.8188,25.3906 Q65.3344,26.1406 65.3344,27.1719 L65.3344,28.2656 Q65.3344,29.5 66.225,30.3281 Q67.1156,31.1406 68.7094,31.1406 Q69.6469,31.1406 70.3031,30.8906 Q70.6938,30.7344 71.1156,30.2969 Q71.3813,30.0313 71.5219,29.9531 Q71.6781,29.875 71.8813,29.875 Q72.2094,29.875 72.4594,30.1406 Q72.725,30.3906 72.725,30.7344 Q72.725,31.0781 72.3813,31.4844 Q71.8813,32.0625 71.0844,32.3906 Q70.0063,32.8438 68.7094,32.8438 Q67.1938,32.8438 65.9906,32.2188 Q65.0063,31.7188 64.3188,30.6563 Q63.6312,29.5781 63.6312,28.2969 L63.6312,27.1406 Q63.6312,25.8125 64.2406,24.6719 Q64.8656,23.5156 65.9594,22.9063 Q67.0531,22.2813 68.2875,22.2813 Q69.0219,22.2813 69.6625,22.4531 Q70.3188,22.6094 70.8656,22.9688 Z "/><text fill="#000000" font-family="sans-serif" font-size="14" lengthAdjust="spacingAndGlyphs" textLength="49" x="84.9" y="26.5332">Greeter</text><text fill="#000000" font-family="sans-serif" font-size="10" lengthAdjust="spacingAndGlyphs" textLength="30" x="94.4" y="39.9902">hello2</text><line style="stroke: #A80036; stroke-width: 1.5;" x1="41.5" x2="148.5" y1="47.1875" y2="47.1875"/><ellipse cx="51.5" cy="58.1875" fill="#84BE84" rx="3" ry="3" style="stroke: #038048; stroke-width: 1.0;"/><text fill="#000000" font-family="sans-serif" font-size="11" lengthAdjust="spacingAndGlyphs" textLength="83" x="60.5" y="62.6064">sayHello(): String</text></a><text fill="#888888" font-family="sans-serif" font-size="10" lengthAdjust="spacingAndGlyphs" textLength="190" x="0" y="86.4043">UMLDoclet 2.0.12, PlantUML 1.2020.16</text><!--MD5=[b339a81c8a68979464c7df1b7a9fc888]
@startuml
    set namespaceSeparator none
    hide empty fields
    hide empty methods

    class "<size:14>Greeter\n<size:10>hello2" as hello2.Greeter [[Greeter.html]] {
        +sayHello(): String
    }

    center footer UMLDoclet 2.0.12, PlantUML 1.2020.16
@enduml

PlantUML version 1.2020.16(Sun Aug 23 21:20:43 WEST 2020)
(APACHE source distribution)
Java Runtime: Java(TM) SE Runtime Environment
JVM: Java HotSpot(TM) 64-Bit Server VM
Default Encoding: UTF-8
Language: pt
Country: PT
--></g></svg>