<svg xmlns="http://www.w3.org/2000/svg" xmlns:xlink="http://www.w3.org/1999/xlink" contentStyleType="text/css" height="924px" preserveAspectRatio="none" style="width:1912px;height:924px;background:#FFFFFF;" version="1.1" viewBox="0 0 1912 924" width="1912px" zoomAndPan="magnify"><title>Sequence Diagram</title><defs/><g><text fill="#000000" font-family="sans-serif" font-size="14" font-weight="bold" lengthAdjust="spacing" textLength="126.0479" x="894.2468" y="30.1074">Sequence Diagram</text><rect fill="#FFFFFF" height="690.4316" style="stroke:#181818;stroke-width:1.0;" width="10" x="59.0171" y="133.2422"/><rect fill="#FFFFFF" height="388.8125" style="stroke:#181818;stroke-width:1.0;" width="10" x="269.3042" y="156.5332"/><rect fill="#FFFFFF" height="247.0371" style="stroke:#181818;stroke-width:1.0;" width="10" x="269.3042" y="576.6367"/><rect fill="#FFFFFF" height="263.9883" style="stroke:#181818;stroke-width:1.0;" width="10" x="473.1377" y="250.0664"/><rect fill="#FFFFFF" height="184.4551" style="stroke:#181818;stroke-width:1.0;" width="10" x="473.1377" y="607.9277"/><rect fill="#FFFFFF" height="139.1641" style="stroke:#181818;stroke-width:1.0;" width="10" x="970.6797" y="343.5996"/><rect fill="#FFFFFF" height="139.1641" style="stroke:#181818;stroke-width:1.0;" width="10" x="1200.5029" y="639.2188"/><rect fill="#FFFFFF" height="93.873" style="stroke:#181818;stroke-width:1.0;" width="10" x="1517.75" y="374.8906"/><rect fill="#FFFFFF" height="93.873" style="stroke:#181818;stroke-width:1.0;" width="10" x="1686.0908" y="670.5098"/><rect fill="#FFFFFF" height="31.291" style="stroke:#181818;stroke-width:1.0;" width="10" x="1872.5762" y="406.1816"/><rect fill="#FFFFFF" height="31.291" style="stroke:#181818;stroke-width:1.0;" width="10" x="1872.5762" y="701.8008"/><line style="stroke:#181818;stroke-width:0.5;stroke-dasharray:5.0,5.0;" x1="64" x2="64" y1="123.2422" y2="841.6738"/><line style="stroke:#181818;stroke-width:0.5;stroke-dasharray:5.0,5.0;" x1="274.1563" x2="274.1563" y1="123.2422" y2="841.6738"/><line style="stroke:#181818;stroke-width:0.5;stroke-dasharray:5.0,5.0;" x1="477.3174" x2="477.3174" y1="205.6543" y2="841.6738"/><line style="stroke:#181818;stroke-width:0.5;stroke-dasharray:5.0,5.0;" x1="792.7393" x2="792.7393" y1="299.1875" y2="841.6738"/><line style="stroke:#181818;stroke-width:0.5;stroke-dasharray:5.0,5.0;" x1="975.1387" x2="975.1387" y1="123.2422" y2="841.6738"/><line style="stroke:#181818;stroke-width:0.5;stroke-dasharray:5.0,5.0;" x1="1205.2207" x2="1205.2207" y1="123.2422" y2="841.6738"/><line style="stroke:#181818;stroke-width:0.5;stroke-dasharray:5.0,5.0;" x1="1387.7852" x2="1387.7852" y1="123.2422" y2="841.6738"/><line style="stroke:#181818;stroke-width:0.5;stroke-dasharray:5.0,5.0;" x1="1521.9502" x2="1521.9502" y1="123.2422" y2="841.6738"/><line style="stroke:#181818;stroke-width:0.5;stroke-dasharray:5.0,5.0;" x1="1690.5498" x2="1690.5498" y1="123.2422" y2="841.6738"/><line style="stroke:#181818;stroke-width:0.5;stroke-dasharray:5.0,5.0;" x1="1876.6108" x2="1876.6108" y1="123.2422" y2="841.6738"/><text fill="#000000" font-family="sans-serif" font-size="14" lengthAdjust="spacing" textLength="112.0342" x="5" y="119.7285">CRM Collaborator</text><ellipse cx="64.0171" cy="53.1211" fill="#E2E2F0" rx="8" ry="8" style="stroke:#181818;stroke-width:0.5;"/><path d="M64.0171,61.1211 L64.0171,88.1211 M51.0171,69.1211 L77.0171,69.1211 M64.0171,88.1211 L51.0171,103.1211 M64.0171,88.1211 L77.0171,103.1211 " fill="none" style="stroke:#181818;stroke-width:0.5;"/><text fill="#000000" font-family="sans-serif" font-size="14" lengthAdjust="spacing" textLength="112.0342" x="5" y="855.7813">CRM Collaborator</text><ellipse cx="64.0171" cy="867.7949" fill="#E2E2F0" rx="8" ry="8" style="stroke:#181818;stroke-width:0.5;"/><path d="M64.0171,875.7949 L64.0171,902.7949 M51.0171,883.7949 L77.0171,883.7949 M64.0171,902.7949 L51.0171,917.7949 M64.0171,902.7949 L77.0171,917.7949 " fill="none" style="stroke:#181818;stroke-width:0.5;"/><rect fill="#E2E2F0" height="51.2422" rx="2.5" ry="2.5" style="stroke:#181818;stroke-width:0.5;" width="174.2959" x="187.1563" y="71"/><text fill="#000000" font-family="sans-serif" font-size="14" font-style="italic" lengthAdjust="spacing" textLength="92.627" x="227.9907" y="93.1074">&#171;presentation&#187;</text><text fill="#000000" font-family="sans-serif" font-size="14" lengthAdjust="spacing" textLength="160.2959" x="194.1563" y="111.7285">RegisterRepresentativeUI</text><rect fill="#E2E2F0" height="51.2422" rx="2.5" ry="2.5" style="stroke:#181818;stroke-width:0.5;" width="174.2959" x="187.1563" y="840.6738"/><text fill="#000000" font-family="sans-serif" font-size="14" font-style="italic" lengthAdjust="spacing" textLength="92.627" x="227.9907" y="862.7813">&#171;presentation&#187;</text><text fill="#000000" font-family="sans-serif" font-size="14" lengthAdjust="spacing" textLength="160.2959" x="194.1563" y="881.4023">RegisterRepresentativeUI</text><rect fill="#E2E2F0" height="51.2422" rx="2.5" ry="2.5" style="stroke:#181818;stroke-width:0.5;" width="197.6406" x="379.3174" y="840.6738"/><text fill="#000000" font-family="sans-serif" font-size="14" font-style="italic" lengthAdjust="spacing" textLength="82.5098" x="436.8828" y="862.7813">&#171;application&#187;</text><text fill="#000000" font-family="sans-serif" font-size="14" lengthAdjust="spacing" textLength="183.6406" x="386.3174" y="881.4023">ListRepresentativesController</text><rect fill="#E2E2F0" height="51.2422" rx="2.5" ry="2.5" style="stroke:#181818;stroke-width:0.5;" width="142.3994" x="721.7393" y="840.6738"/><text fill="#000000" font-family="sans-serif" font-size="14" font-style="italic" lengthAdjust="spacing" textLength="42.8203" x="771.5288" y="862.7813">&#171;auth&#187;</text><text fill="#000000" font-family="sans-serif" font-size="14" lengthAdjust="spacing" textLength="128.3994" x="728.7393" y="881.4023">AuthorizationService</text><rect fill="#E2E2F0" height="51.2422" rx="2.5" ry="2.5" style="stroke:#181818;stroke-width:0.5;" width="203.082" x="874.1387" y="71"/><text fill="#000000" font-family="sans-serif" font-size="14" font-style="italic" lengthAdjust="spacing" textLength="82.5098" x="934.4248" y="93.1074">&#171;application&#187;</text><text fill="#000000" font-family="sans-serif" font-size="14" lengthAdjust="spacing" textLength="189.082" x="881.1387" y="111.7285">CustomerManagementService</text><rect fill="#E2E2F0" height="51.2422" rx="2.5" ry="2.5" style="stroke:#181818;stroke-width:0.5;" width="203.082" x="874.1387" y="840.6738"/><text fill="#000000" font-family="sans-serif" font-size="14" font-style="italic" lengthAdjust="spacing" textLength="82.5098" x="934.4248" y="862.7813">&#171;application&#187;</text><text fill="#000000" font-family="sans-serif" font-size="14" lengthAdjust="spacing" textLength="189.082" x="881.1387" y="881.4023">CustomerManagementService</text><rect fill="#E2E2F0" height="51.2422" rx="2.5" ry="2.5" style="stroke:#181818;stroke-width:0.5;" width="236.5645" x="1087.2207" y="71"/><text fill="#000000" font-family="sans-serif" font-size="14" font-style="italic" lengthAdjust="spacing" textLength="82.5098" x="1164.248" y="93.1074">&#171;application&#187;</text><text fill="#000000" font-family="sans-serif" font-size="14" lengthAdjust="spacing" textLength="222.5645" x="1094.2207" y="111.7285">RepresentativeManagementService</text><rect fill="#E2E2F0" height="51.2422" rx="2.5" ry="2.5" style="stroke:#181818;stroke-width:0.5;" width="236.5645" x="1087.2207" y="840.6738"/><text fill="#000000" font-family="sans-serif" font-size="14" font-style="italic" lengthAdjust="spacing" textLength="82.5098" x="1164.248" y="862.7813">&#171;application&#187;</text><text fill="#000000" font-family="sans-serif" font-size="14" lengthAdjust="spacing" textLength="222.5645" x="1094.2207" y="881.4023">RepresentativeManagementService</text><rect fill="#E2E2F0" height="51.2422" rx="2.5" ry="2.5" style="stroke:#181818;stroke-width:0.5;" width="108.165" x="1333.7852" y="71"/><text fill="#000000" font-family="sans-serif" font-size="14" font-style="italic" lengthAdjust="spacing" textLength="61.4893" x="1357.123" y="93.1074">&#171;domain&#187;</text><text fill="#000000" font-family="sans-serif" font-size="14" lengthAdjust="spacing" textLength="94.165" x="1340.7852" y="111.7285">Representative</text><rect fill="#E2E2F0" height="51.2422" rx="2.5" ry="2.5" style="stroke:#181818;stroke-width:0.5;" width="108.165" x="1333.7852" y="840.6738"/><text fill="#000000" font-family="sans-serif" font-size="14" font-style="italic" lengthAdjust="spacing" textLength="61.4893" x="1357.123" y="862.7813">&#171;domain&#187;</text><text fill="#000000" font-family="sans-serif" font-size="14" lengthAdjust="spacing" textLength="94.165" x="1340.7852" y="881.4023">Representative</text><rect fill="#E2E2F0" height="51.2422" rx="2.5" ry="2.5" style="stroke:#181818;stroke-width:0.5;" width="141.5996" x="1451.9502" y="71"/><text fill="#000000" font-family="sans-serif" font-size="14" font-style="italic" lengthAdjust="spacing" textLength="77.041" x="1484.2295" y="93.1074">&#171;repository&#187;</text><text fill="#000000" font-family="sans-serif" font-size="14" lengthAdjust="spacing" textLength="127.5996" x="1458.9502" y="111.7285">CustomerRepository</text><rect fill="#E2E2F0" height="51.2422" rx="2.5" ry="2.5" style="stroke:#181818;stroke-width:0.5;" width="141.5996" x="1451.9502" y="840.6738"/><text fill="#000000" font-family="sans-serif" font-size="14" font-style="italic" lengthAdjust="spacing" textLength="77.041" x="1484.2295" y="862.7813">&#171;repository&#187;</text><text fill="#000000" font-family="sans-serif" font-size="14" lengthAdjust="spacing" textLength="127.5996" x="1458.9502" y="881.4023">CustomerRepository</text><rect fill="#E2E2F0" height="51.2422" rx="2.5" ry="2.5" style="stroke:#181818;stroke-width:0.5;" width="175.082" x="1603.5498" y="71"/><text fill="#000000" font-family="sans-serif" font-size="14" font-style="italic" lengthAdjust="spacing" textLength="77.041" x="1652.5703" y="93.1074">&#171;repository&#187;</text><text fill="#000000" font-family="sans-serif" font-size="14" lengthAdjust="spacing" textLength="161.082" x="1610.5498" y="111.7285">RepresentativeRepository</text><rect fill="#E2E2F0" height="51.2422" rx="2.5" ry="2.5" style="stroke:#181818;stroke-width:0.5;" width="175.082" x="1603.5498" y="840.6738"/><text fill="#000000" font-family="sans-serif" font-size="14" font-style="italic" lengthAdjust="spacing" textLength="77.041" x="1652.5703" y="862.7813">&#171;repository&#187;</text><text fill="#000000" font-family="sans-serif" font-size="14" lengthAdjust="spacing" textLength="161.082" x="1610.5498" y="881.4023">RepresentativeRepository</text><text fill="#000000" font-family="sans-serif" font-size="14" lengthAdjust="spacing" textLength="59.9307" x="1844.6108" y="119.7285">Database</text><path d="M1859.5762,68.6211 C1859.5762,58.6211 1877.5762,58.6211 1877.5762,58.6211 C1877.5762,58.6211 1895.5762,58.6211 1895.5762,68.6211 L1895.5762,94.6211 C1895.5762,104.6211 1877.5762,104.6211 1877.5762,104.6211 C1877.5762,104.6211 1859.5762,104.6211 1859.5762,94.6211 L1859.5762,68.6211 " fill="#E2E2F0" style="stroke:#181818;stroke-width:1.5;"/><path d="M1859.5762,68.6211 C1859.5762,78.6211 1877.5762,78.6211 1877.5762,78.6211 C1877.5762,78.6211 1895.5762,78.6211 1895.5762,68.6211 " fill="none" style="stroke:#181818;stroke-width:1.5;"/><text fill="#000000" font-family="sans-serif" font-size="14" lengthAdjust="spacing" textLength="59.9307" x="1844.6108" y="855.7813">Database</text><path d="M1859.5762,869.2949 C1859.5762,859.2949 1877.5762,859.2949 1877.5762,859.2949 C1877.5762,859.2949 1895.5762,859.2949 1895.5762,869.2949 L1895.5762,895.2949 C1895.5762,905.2949 1877.5762,905.2949 1877.5762,905.2949 C1877.5762,905.2949 1859.5762,905.2949 1859.5762,895.2949 L1859.5762,869.2949 " fill="#E2E2F0" style="stroke:#181818;stroke-width:1.5;"/><path d="M1859.5762,869.2949 C1859.5762,879.2949 1877.5762,879.2949 1877.5762,879.2949 C1877.5762,879.2949 1895.5762,879.2949 1895.5762,869.2949 " fill="none" style="stroke:#181818;stroke-width:1.5;"/><rect fill="#FFFFFF" height="690.4316" style="stroke:#181818;stroke-width:1.0;" width="10" x="59.0171" y="133.2422"/><rect fill="#FFFFFF" height="388.8125" style="stroke:#181818;stroke-width:1.0;" width="10" x="269.3042" y="156.5332"/><rect fill="#FFFFFF" height="247.0371" style="stroke:#181818;stroke-width:1.0;" width="10" x="269.3042" y="576.6367"/><rect fill="#FFFFFF" height="263.9883" style="stroke:#181818;stroke-width:1.0;" width="10" x="473.1377" y="250.0664"/><rect fill="#FFFFFF" height="184.4551" style="stroke:#181818;stroke-width:1.0;" width="10" x="473.1377" y="607.9277"/><rect fill="#FFFFFF" height="139.1641" style="stroke:#181818;stroke-width:1.0;" width="10" x="970.6797" y="343.5996"/><rect fill="#FFFFFF" height="139.1641" style="stroke:#181818;stroke-width:1.0;" width="10" x="1200.5029" y="639.2188"/><rect fill="#FFFFFF" height="93.873" style="stroke:#181818;stroke-width:1.0;" width="10" x="1517.75" y="374.8906"/><rect fill="#FFFFFF" height="93.873" style="stroke:#181818;stroke-width:1.0;" width="10" x="1686.0908" y="670.5098"/><rect fill="#FFFFFF" height="31.291" style="stroke:#181818;stroke-width:1.0;" width="10" x="1872.5762" y="406.1816"/><rect fill="#FFFFFF" height="31.291" style="stroke:#181818;stroke-width:1.0;" width="10" x="1872.5762" y="701.8008"/><polygon fill="#181818" points="257.3042,152.5332,267.3042,156.5332,257.3042,160.5332,261.3042,156.5332" style="stroke:#181818;stroke-width:1.0;"/><line style="stroke:#181818;stroke-width:1.0;" x1="69.0171" x2="263.3042" y1="156.5332" y2="156.5332"/><text fill="#000000" font-family="sans-serif" font-size="13" lengthAdjust="spacing" textLength="39.0063" x="76.0171" y="151.2705">show()</text><polygon fill="#181818" points="367.3174,183.8242,377.3174,187.8242,367.3174,191.8242,371.3174,187.8242" style="stroke:#181818;stroke-width:1.0;"/><line style="stroke:#181818;stroke-width:1.0;" x1="279.3042" x2="373.3174" y1="187.8242" y2="187.8242"/><text fill="#000000" font-family="sans-serif" font-size="13" lengthAdjust="spacing" textLength="44.7891" x="286.3042" y="182.5615">create()</text><rect fill="#E2E2F0" height="51.2422" rx="2.5" ry="2.5" style="stroke:#181818;stroke-width:0.5;" width="197.6406" x="379.3174" y="164.5332"/><text fill="#000000" font-family="sans-serif" font-size="14" font-style="italic" lengthAdjust="spacing" textLength="82.5098" x="436.8828" y="186.6406">&#171;application&#187;</text><text fill="#000000" font-family="sans-serif" font-size="14" lengthAdjust="spacing" textLength="183.6406" x="386.3174" y="205.2617">ListRepresentativesController</text><polygon fill="#181818" points="461.1377,246.0664,471.1377,250.0664,461.1377,254.0664,465.1377,250.0664" style="stroke:#181818;stroke-width:1.0;"/><line style="stroke:#181818;stroke-width:1.0;" x1="279.3042" x2="467.1377" y1="250.0664" y2="250.0664"/><text fill="#000000" font-family="sans-serif" font-size="13" lengthAdjust="spacing" textLength="87.3945" x="286.3042" y="244.8037">listCustomers()</text><polygon fill="#181818" points="709.7393,277.3574,719.7393,281.3574,709.7393,285.3574,713.7393,281.3574" style="stroke:#181818;stroke-width:1.0;"/><line style="stroke:#181818;stroke-width:1.0;" x1="483.1377" x2="715.7393" y1="281.3574" y2="281.3574"/><text fill="#000000" font-family="sans-serif" font-size="13" lengthAdjust="spacing" textLength="214.6016" x="490.1377" y="276.0947">ensureAuthenticatedUserHasAnyOf()</text><rect fill="#E2E2F0" height="51.2422" rx="2.5" ry="2.5" style="stroke:#181818;stroke-width:0.5;" width="142.3994" x="721.7393" y="258.0664"/><text fill="#000000" font-family="sans-serif" font-size="14" font-style="italic" lengthAdjust="spacing" textLength="42.8203" x="771.5288" y="280.1738">&#171;auth&#187;</text><text fill="#000000" font-family="sans-serif" font-size="14" lengthAdjust="spacing" textLength="128.3994" x="728.7393" y="298.7949">AuthorizationService</text><polygon fill="#181818" points="958.6797,339.5996,968.6797,343.5996,958.6797,347.5996,962.6797,343.5996" style="stroke:#181818;stroke-width:1.0;"/><line style="stroke:#181818;stroke-width:1.0;" x1="483.1377" x2="964.6797" y1="343.5996" y2="343.5996"/><text fill="#000000" font-family="sans-serif" font-size="13" lengthAdjust="spacing" textLength="122.7954" x="490.1377" y="338.3369">listActiveCustomers()</text><polygon fill="#181818" points="1505.75,370.8906,1515.75,374.8906,1505.75,378.8906,1509.75,374.8906" style="stroke:#181818;stroke-width:1.0;"/><line style="stroke:#181818;stroke-width:1.0;" x1="980.6797" x2="1511.75" y1="374.8906" y2="374.8906"/><text fill="#000000" font-family="sans-serif" font-size="13" lengthAdjust="spacing" textLength="102.5908" x="987.6797" y="369.6279">findByActive(true)</text><polygon fill="#181818" points="1860.5762,402.1816,1870.5762,406.1816,1860.5762,410.1816,1864.5762,406.1816" style="stroke:#181818;stroke-width:1.0;"/><line style="stroke:#181818;stroke-width:1.0;" x1="1527.75" x2="1866.5762" y1="406.1816" y2="406.1816"/><text fill="#000000" font-family="sans-serif" font-size="13" lengthAdjust="spacing" textLength="102.5908" x="1534.75" y="400.9189">findByActive(true)</text><polygon fill="#181818" points="1538.75,433.4727,1528.75,437.4727,1538.75,441.4727,1534.75,437.4727" style="stroke:#181818;stroke-width:1.0;"/><line style="stroke:#181818;stroke-width:1.0;stroke-dasharray:2.0,2.0;" x1="1532.75" x2="1876.5762" y1="437.4727" y2="437.4727"/><text fill="#000000" font-family="sans-serif" font-size="13" lengthAdjust="spacing" textLength="140.1563" x="1544.75" y="432.21">List of Active Customers</text><polygon fill="#181818" points="991.6797,464.7637,981.6797,468.7637,991.6797,472.7637,987.6797,468.7637" style="stroke:#181818;stroke-width:1.0;"/><line style="stroke:#181818;stroke-width:1.0;" x1="985.6797" x2="1521.75" y1="468.7637" y2="468.7637"/><text fill="#000000" font-family="sans-serif" font-size="13" lengthAdjust="spacing" textLength="140.1563" x="997.6797" y="463.501">List of Active Customers</text><polygon fill="#181818" points="494.1377,478.7637,484.1377,482.7637,494.1377,486.7637,490.1377,482.7637" style="stroke:#181818;stroke-width:1.0;"/><line style="stroke:#181818;stroke-width:1.0;" x1="488.1377" x2="974.6797" y1="482.7637" y2="482.7637"/><polygon fill="#181818" points="290.3042,510.0547,280.3042,514.0547,290.3042,518.0547,286.3042,514.0547" style="stroke:#181818;stroke-width:1.0;"/><line style="stroke:#181818;stroke-width:1.0;stroke-dasharray:2.0,2.0;" x1="284.3042" x2="477.1377" y1="514.0547" y2="514.0547"/><text fill="#000000" font-family="sans-serif" font-size="13" lengthAdjust="spacing" textLength="140.1563" x="296.3042" y="508.792">List of Active Customers</text><polygon fill="#181818" points="80.0171,541.3457,70.0171,545.3457,80.0171,549.3457,76.0171,545.3457" style="stroke:#181818;stroke-width:1.0;"/><line style="stroke:#181818;stroke-width:1.0;stroke-dasharray:2.0,2.0;" x1="74.0171" x2="273.3042" y1="545.3457" y2="545.3457"/><text fill="#000000" font-family="sans-serif" font-size="13" lengthAdjust="spacing" textLength="176.2871" x="86.0171" y="540.083">Show List of Active Customers</text><polygon fill="#181818" points="257.3042,572.6367,267.3042,576.6367,257.3042,580.6367,261.3042,576.6367" style="stroke:#181818;stroke-width:1.0;"/><line style="stroke:#181818;stroke-width:1.0;" x1="69.0171" x2="263.3042" y1="576.6367" y2="576.6367"/><text fill="#000000" font-family="sans-serif" font-size="13" lengthAdjust="spacing" textLength="104.7681" x="76.0171" y="571.374">Choose Customer</text><polygon fill="#181818" points="461.1377,603.9277,471.1377,607.9277,461.1377,611.9277,465.1377,607.9277" style="stroke:#181818;stroke-width:1.0;"/><line style="stroke:#181818;stroke-width:1.0;" x1="279.3042" x2="467.1377" y1="607.9277" y2="607.9277"/><text fill="#000000" font-family="sans-serif" font-size="13" lengthAdjust="spacing" textLength="174.8335" x="286.3042" y="602.665">listRepresentatives(Customer)</text><polygon fill="#181818" points="1188.5029,635.2188,1198.5029,639.2188,1188.5029,643.2188,1192.5029,639.2188" style="stroke:#181818;stroke-width:1.0;"/><line style="stroke:#181818;stroke-width:1.0;" x1="483.1377" x2="1194.5029" y1="639.2188" y2="639.2188"/><text fill="#000000" font-family="sans-serif" font-size="13" lengthAdjust="spacing" textLength="174.8335" x="490.1377" y="633.9561">listRepresentatives(Customer)</text><polygon fill="#181818" points="1674.0908,666.5098,1684.0908,670.5098,1674.0908,674.5098,1678.0908,670.5098" style="stroke:#181818;stroke-width:1.0;"/><line style="stroke:#181818;stroke-width:1.0;" x1="1210.5029" x2="1680.0908" y1="670.5098" y2="670.5098"/><text fill="#000000" font-family="sans-serif" font-size="13" lengthAdjust="spacing" textLength="157.4854" x="1217.5029" y="665.2471">findByCustomer(Customer)</text><polygon fill="#181818" points="1860.5762,697.8008,1870.5762,701.8008,1860.5762,705.8008,1864.5762,701.8008" style="stroke:#181818;stroke-width:1.0;"/><line style="stroke:#181818;stroke-width:1.0;" x1="1696.0908" x2="1866.5762" y1="701.8008" y2="701.8008"/><text fill="#000000" font-family="sans-serif" font-size="13" lengthAdjust="spacing" textLength="157.4854" x="1703.0908" y="696.5381">findByCustomer(Customer)</text><polygon fill="#181818" points="1707.0908,729.0918,1697.0908,733.0918,1707.0908,737.0918,1703.0908,733.0918" style="stroke:#181818;stroke-width:1.0;"/><line style="stroke:#181818;stroke-width:1.0;stroke-dasharray:2.0,2.0;" x1="1701.0908" x2="1876.5762" y1="733.0918" y2="733.0918"/><text fill="#000000" font-family="sans-serif" font-size="13" lengthAdjust="spacing" textLength="132.2344" x="1713.0908" y="727.8291">List of Representatives</text><polygon fill="#181818" points="1221.5029,760.3828,1211.5029,764.3828,1221.5029,768.3828,1217.5029,764.3828" style="stroke:#181818;stroke-width:1.0;"/><line style="stroke:#181818;stroke-width:1.0;" x1="1215.5029" x2="1690.0908" y1="764.3828" y2="764.3828"/><text fill="#000000" font-family="sans-serif" font-size="13" lengthAdjust="spacing" textLength="132.2344" x="1227.5029" y="759.1201">List of Representatives</text><polygon fill="#181818" points="494.1377,774.3828,484.1377,778.3828,494.1377,782.3828,490.1377,778.3828" style="stroke:#181818;stroke-width:1.0;"/><line style="stroke:#181818;stroke-width:1.0;stroke-dasharray:2.0,2.0;" x1="488.1377" x2="1204.5029" y1="778.3828" y2="778.3828"/><polygon fill="#181818" points="290.3042,788.3828,280.3042,792.3828,290.3042,796.3828,286.3042,792.3828" style="stroke:#181818;stroke-width:1.0;"/><line style="stroke:#181818;stroke-width:1.0;stroke-dasharray:2.0,2.0;" x1="284.3042" x2="477.1377" y1="792.3828" y2="792.3828"/><polygon fill="#181818" points="75.0171,819.6738,65.0171,823.6738,75.0171,827.6738,71.0171,823.6738" style="stroke:#181818;stroke-width:1.0;"/><line style="stroke:#181818;stroke-width:1.0;stroke-dasharray:2.0,2.0;" x1="69.0171" x2="273.3042" y1="823.6738" y2="823.6738"/><text fill="#000000" font-family="sans-serif" font-size="13" lengthAdjust="spacing" textLength="145.2344" x="81.0171" y="818.4111">Inform operation success</text><!--SRC=[dLR1Rk8m4BtxAqQSQAN-G5GXiVImI5kj1E83t3209M9dROSL-_KxJWXn4Zk6-j8wCtxpRBzvnWfxHjZYdmfbZl0X-57pWZ6UMwLXjjfymagTp_nBQKvVPi0DB5sCbLnRaOkIImkp3Hw5iQWtM6eqA2stueAxTPs_MyFxU_TToSMYl_eNhUslD2ibhQR2s9JifWJ5o_8iyY3Iih8dfSM_EhX5VH4vDfm30GT5duSOgyfOLQ3-v98ViI1AFb0qEasilxqmT2BdcG81F5g-LmKNChPVIbT6qDLUUnljFXE2la-cwm-mOi4X8jjpox-uGPXztFwhrxUJMfVYmYtUHCZgF_2s895bO4xgx_o50OrxtcxD60cGCZeDlRv21hb6YbEw6yEC3CwaoVO8p12qIsHrm0rFeWGLqbjT5gMfDBem7OUxIzpl3EgVt2pbzVV1yGaZHeNNS5qwRZXat8wEUGo5zVBhyb6bUsoykypW8EJ-nxLXChUwmfSHw8X81p1cuBFm2b7vLX0PF5AqLxZJ4aH6cm5lmOrcuFmAr06QelSK4qJSuxZqunkTkFM7MNWC0gV-pBLxkayKcD2NB-jRuqvknKVt-iwrh6iqPm0PRAdrup0UXFE3dcciJagPBfcniN-qp8Sk0Kth3PwkUGiLQy60UOHRFlKWF5D-H2C17c-F5AiHyO17j1mJP2S8ftnZp3JX8D-XbFQIaP_4E7LDCBZFAFIZnf8wYSHzFaVC8nMzhs-9gjTupvL-vAqRUbBKtyOSV2CYWQ_bGUa2L8cwVlp1L7cEfZkklXbvi-OdpNy0]--></g></svg>