<svg xmlns="http://www.w3.org/2000/svg" xmlns:xlink="http://www.w3.org/1999/xlink" contentStyleType="text/css" height="485px" preserveAspectRatio="none" style="width:482px;height:485px;background:#FFFFFF;" version="1.1" viewBox="0 0 482 485" width="482px" zoomAndPan="magnify"><title>System Sequence Diagram - US222</title><defs/><g><text fill="#000000" font-family="sans-serif" font-size="14" font-weight="bold" lengthAdjust="spacing" textLength="234.9922" x="119.9736" y="30.1074">System Sequence Diagram - US222</text><rect fill="#FFFFFF" height="260.0371" style="stroke:#181818;stroke-width:1.0;" width="10" x="59.0171" y="133.2422"/><rect fill="#FFFFFF" height="75.582" style="stroke:#181818;stroke-width:1.0;" width="10" x="220.1924" y="201.8242"/><rect fill="#FFFFFF" height="75.582" style="stroke:#181818;stroke-width:1.0;" width="10" x="220.1924" y="308.6973"/><line style="stroke:#181818;stroke-width:0.5;stroke-dasharray:5.0,5.0;" x1="64" x2="64" y1="123.2422" y2="402.2793"/><line style="stroke:#181818;stroke-width:0.5;stroke-dasharray:5.0,5.0;" x1="224.8545" x2="224.8545" y1="123.2422" y2="402.2793"/><text fill="#000000" font-family="sans-serif" font-size="14" lengthAdjust="spacing" textLength="112.0342" x="5" y="119.7285">CRM Collaborator</text><ellipse cx="64.0171" cy="53.1211" fill="#E3E3E3" rx="8" ry="8" style="stroke:#181818;stroke-width:0.5;"/><path d="M64.0171,61.1211 L64.0171,88.1211 M51.0171,69.1211 L77.0171,69.1211 M64.0171,88.1211 L51.0171,103.1211 M64.0171,88.1211 L77.0171,103.1211 " fill="none" style="stroke:#181818;stroke-width:0.5;"/><text fill="#000000" font-family="sans-serif" font-size="14" lengthAdjust="spacing" textLength="112.0342" x="5" y="416.3867">CRM Collaborator</text><ellipse cx="64.0171" cy="428.4004" fill="#E3E3E3" rx="8" ry="8" style="stroke:#181818;stroke-width:0.5;"/><path d="M64.0171,436.4004 L64.0171,463.4004 M51.0171,444.4004 L77.0171,444.4004 M64.0171,463.4004 L51.0171,478.4004 M64.0171,463.4004 L77.0171,478.4004 " fill="none" style="stroke:#181818;stroke-width:0.5;"/><rect fill="#E3E3E3" height="32.6211" rx="2.5" ry="2.5" style="stroke:#181818;stroke-width:0.5;" width="60.6758" x="194.8545" y="89.6211"/><text fill="#000000" font-family="sans-serif" font-size="14" lengthAdjust="spacing" textLength="46.6758" x="201.8545" y="111.7285">System</text><rect fill="#E3E3E3" height="32.6211" rx="2.5" ry="2.5" style="stroke:#181818;stroke-width:0.5;" width="60.6758" x="194.8545" y="401.2793"/><text fill="#000000" font-family="sans-serif" font-size="14" lengthAdjust="spacing" textLength="46.6758" x="201.8545" y="423.3867">System</text><rect fill="#FFFFFF" height="260.0371" style="stroke:#181818;stroke-width:1.0;" width="10" x="59.0171" y="133.2422"/><rect fill="#FFFFFF" height="75.582" style="stroke:#181818;stroke-width:1.0;" width="10" x="220.1924" y="201.8242"/><rect fill="#FFFFFF" height="75.582" style="stroke:#181818;stroke-width:1.0;" width="10" x="220.1924" y="308.6973"/><rect fill="#EEEEEE" height="3" style="stroke:#EEEEEE;stroke-width:1.0;" width="475.9395" x="0" y="154.8877"/><line style="stroke:#000000;stroke-width:1.0;" x1="0" x2="475.9395" y1="154.8877" y2="154.8877"/><line style="stroke:#000000;stroke-width:1.0;" x1="0" x2="475.9395" y1="157.8877" y2="157.8877"/><rect fill="#EEEEEE" height="25.291" style="stroke:#000000;stroke-width:2.0;" width="140.4453" x="167.7471" y="143.2422"/><text fill="#000000" font-family="sans-serif" font-size="13" font-weight="bold" lengthAdjust="spacing" textLength="122.8335" x="173.7471" y="161.2705">List representatives</text><polygon fill="#181818" points="208.1924,197.8242,218.1924,201.8242,208.1924,205.8242,212.1924,201.8242" style="stroke:#181818;stroke-width:1.0;"/><line style="stroke:#181818;stroke-width:1.0;" x1="69.0171" x2="214.1924" y1="201.8242" y2="201.8242"/><text fill="#000000" font-family="sans-serif" font-size="13" lengthAdjust="spacing" textLength="112.7217" x="76.0171" y="196.5615">List representatives</text><line style="stroke:#181818;stroke-width:1.0;" x1="230.1924" x2="272.1924" y1="233.1152" y2="233.1152"/><line style="stroke:#181818;stroke-width:1.0;" x1="272.1924" x2="272.1924" y1="233.1152" y2="246.1152"/><line style="stroke:#181818;stroke-width:1.0;" x1="231.1924" x2="272.1924" y1="246.1152" y2="246.1152"/><polygon fill="#181818" points="241.1924,242.1152,231.1924,246.1152,241.1924,250.1152,237.1924,246.1152" style="stroke:#181818;stroke-width:1.0;"/><text fill="#000000" font-family="sans-serif" font-size="13" lengthAdjust="spacing" textLength="101.1436" x="237.1924" y="227.8525">Get all customers</text><polygon fill="#181818" points="80.0171,273.4063,70.0171,277.4063,80.0171,281.4063,76.0171,277.4063" style="stroke:#181818;stroke-width:1.0;"/><line style="stroke:#181818;stroke-width:1.0;" x1="74.0171" x2="224.1924" y1="277.4063" y2="277.4063"/><text fill="#000000" font-family="sans-serif" font-size="13" lengthAdjust="spacing" textLength="115.6099" x="86.0171" y="272.1436">Choose a Customer</text><polygon fill="#181818" points="208.1924,304.6973,218.1924,308.6973,208.1924,312.6973,212.1924,308.6973" style="stroke:#181818;stroke-width:1.0;"/><line style="stroke:#181818;stroke-width:1.0;" x1="69.0171" x2="214.1924" y1="308.6973" y2="308.6973"/><text fill="#000000" font-family="sans-serif" font-size="13" lengthAdjust="spacing" textLength="104.0381" x="76.0171" y="303.4346">Provide Customer</text><line style="stroke:#181818;stroke-width:1.0;" x1="230.1924" x2="272.1924" y1="339.9883" y2="339.9883"/><line style="stroke:#181818;stroke-width:1.0;" x1="272.1924" x2="272.1924" y1="339.9883" y2="352.9883"/><line style="stroke:#181818;stroke-width:1.0;" x1="231.1924" x2="272.1924" y1="352.9883" y2="352.9883"/><polygon fill="#181818" points="241.1924,348.9883,231.1924,352.9883,241.1924,356.9883,237.1924,352.9883" style="stroke:#181818;stroke-width:1.0;"/><text fill="#000000" font-family="sans-serif" font-size="13" lengthAdjust="spacing" textLength="216.7471" x="237.1924" y="334.7256">Get all representatives from customer</text><polygon fill="#181818" points="80.0171,380.2793,70.0171,384.2793,80.0171,388.2793,76.0171,384.2793" style="stroke:#181818;stroke-width:1.0;"/><line style="stroke:#181818;stroke-width:1.0;" x1="74.0171" x2="224.1924" y1="384.2793" y2="384.2793"/><text fill="#000000" font-family="sans-serif" font-size="13" lengthAdjust="spacing" textLength="127.1753" x="86.0171" y="379.0166">List of representatives</text><!--SRC=[bP91QuH038Nl-HN1-ruyBjYBXLvQA9N-W7ICEkmuuqwYPVzzPwtTYfQ5teQNbxoFnyZ9-e4YzTW77qmNGy-eSMIGssGWSwAMAxquniX6oRTkRP2Ewl1fVOiDEM40CXeYPkNR2vR1EVe8aPAI8GcQsAyrI2VK6ZkGLyogYoZtiq_c9u1QJR7V0wpuFB8tZ8-Msclq0T-hFCy1YWAVhMZY6o8BUoMr4miMnPN6JgIyYuQDW8U79HQFVrxxFVL3jzZNYq-iICwX6KLJcr7MhctY4Sik164aB1S_GCtRd7kWhp5CjkRL_dyejtqrwGVSqE-Jpms5PbVI7X_W2m00]--></g></svg>