<?xml version="1.0" encoding="us-ascii" standalone="no"?><svg xmlns="http://www.w3.org/2000/svg" xmlns:xlink="http://www.w3.org/1999/xlink" contentStyleType="text/css" height="640.5px" preserveAspectRatio="none" style="width:1654px;height:640px;background:#FFFFFF;" version="1.1" viewBox="0 0 1654 640" width="1654.8px" zoomAndPan="magnify"><defs/><g><text fill="#000000" font-family="sans-serif" font-size="9.8" font-weight="bold" lengthAdjust="spacing" textLength="92.4" x="782.25" y="21.0752">Sequence Diagram</text><rect fill="#FFFFFF" height="476.8189" style="stroke:#181818;stroke-width:0.6999999999999998;" width="7" x="28.35" y="93.2695"/><rect fill="#FFFFFF" height="80.1391" style="stroke:#181818;stroke-width:0.6999999999999998;" width="7" x="189.7" y="116.5732"/><rect fill="#FFFFFF" height="65.4732" style="stroke:#181818;stroke-width:0.6999999999999998;" width="7" x="365.05" y="196.7123"/><rect fill="#FFFFFF" height="285.9992" style="stroke:#181818;stroke-width:0.6999999999999998;" width="7" x="365.05" y="284.0893"/><rect fill="#FFFFFF" height="242.1918" style="stroke:#181818;stroke-width:0.6999999999999998;" width="7" x="618.45" y="305.993"/><rect fill="#FFFFFF" height="166.9186" style="stroke:#181818;stroke-width:0.6999999999999998;" width="7" x="1058.75" y="371.4662"/><rect fill="#FFFFFF" height="124.7148" style="stroke:#181818;stroke-width:0.6999999999999998;" width="7" x="1062.25" y="398.9699"/><rect fill="#FFFFFF" height="21.9037" style="stroke:#181818;stroke-width:0.6999999999999998;" width="7" x="1446.55" y="424.3736"/><rect fill="#FFFFFF" height="41.5037" style="stroke:#181818;stroke-width:0.6999999999999998;" width="7" x="1541.05" y="468.1811"/><rect fill="#FFFFFF" height="9.8" style="stroke:#181818;stroke-width:0.6999999999999998;" width="7" x="1627.15" y="490.0848"/><line style="stroke:#181818;stroke-width:0.3499999999999999;stroke-dasharray:5.0,5.0;" x1="31.5" x2="31.5" y1="86.2695" y2="582.6885"/><line style="stroke:#181818;stroke-width:0.3499999999999999;stroke-dasharray:5.0,5.0;" x1="192.85" x2="192.85" y1="122.0543" y2="582.6885"/><line style="stroke:#181818;stroke-width:0.3499999999999999;stroke-dasharray:5.0,5.0;" x1="368.55" x2="368.55" y1="165.6238" y2="582.6885"/><line style="stroke:#181818;stroke-width:0.3499999999999999;stroke-dasharray:5.0,5.0;" x1="621.95" x2="621.95" y1="231.0971" y2="582.6885"/><line style="stroke:#181818;stroke-width:0.3499999999999999;stroke-dasharray:5.0,5.0;" x1="927.85" x2="927.85" y1="340.3777" y2="582.6885"/><line style="stroke:#181818;stroke-width:0.3499999999999999;stroke-dasharray:5.0,5.0;" x1="1062.25" x2="1062.25" y1="86.2695" y2="582.6885"/><line style="stroke:#181818;stroke-width:0.3499999999999999;stroke-dasharray:5.0,5.0;" x1="1449.7" x2="1449.7" y1="86.2695" y2="582.6885"/><line style="stroke:#181818;stroke-width:0.3499999999999999;stroke-dasharray:5.0,5.0;" x1="1544.2" x2="1544.2" y1="86.2695" y2="582.6885"/><line style="stroke:#181818;stroke-width:0.3499999999999999;stroke-dasharray:5.0,5.0;" x1="1630.3" x2="1630.3" y1="86.2695" y2="582.6885"/><text fill="#000000" font-family="sans-serif" font-size="9.8" lengthAdjust="spacing" textLength="52.5" x="3.5" y="83.81">Drone Tech</text><ellipse cx="31.85" cy="37.1848" fill="#E2E2F0" rx="5.6" ry="5.6" style="stroke:#181818;stroke-width:0.3499999999999999;"/><path d="M31.85,42.7848 L31.85,61.6848 M22.75,48.3848 L40.95,48.3848 M31.85,61.6848 L22.75,72.1848 M31.85,61.6848 L40.95,72.1848 " fill="none" style="stroke:#181818;stroke-width:0.3499999999999999;"/><text fill="#000000" font-family="sans-serif" font-size="9.8" lengthAdjust="spacing" textLength="52.5" x="3.5" y="592.5637">Drone Tech</text><ellipse cx="31.85" cy="600.9732" fill="#E2E2F0" rx="5.6" ry="5.6" style="stroke:#181818;stroke-width:0.3499999999999999;"/><path d="M31.85,606.5732 L31.85,625.4732 M22.75,612.1732 L40.95,612.1732 M31.85,625.4732 L22.75,635.9732 M31.85,625.4732 L40.95,635.9732 " fill="none" style="stroke:#181818;stroke-width:0.3499999999999999;"/><rect fill="#E2E2F0" height="35.8695" rx="1.75" ry="1.75" style="stroke:#181818;stroke-width:0.3499999999999999;" width="108.5" x="138.95" y="581.9885"/><text fill="#000000" font-family="sans-serif" font-size="9.8" font-style="italic" lengthAdjust="spacing" textLength="66.5" x="159.95" y="597.4637">&#171;presentation&#187;</text><text fill="#000000" font-family="sans-serif" font-size="9.8" lengthAdjust="spacing" textLength="98.7" x="143.85" y="610.4984">AddDroneModelAction</text><rect fill="#E2E2F0" height="35.8695" rx="1.75" ry="1.75" style="stroke:#181818;stroke-width:0.3499999999999999;" width="89.6" x="323.75" y="581.9885"/><text fill="#000000" font-family="sans-serif" font-size="9.8" font-style="italic" lengthAdjust="spacing" textLength="66.5" x="335.3" y="597.4637">&#171;presentation&#187;</text><text fill="#000000" font-family="sans-serif" font-size="9.8" lengthAdjust="spacing" textLength="79.8" x="328.65" y="610.4984">AddDroneModelUI</text><rect fill="#E2E2F0" height="35.8695" rx="1.75" ry="1.75" style="stroke:#181818;stroke-width:0.3499999999999999;" width="124.6" x="559.65" y="581.9885"/><text fill="#000000" font-family="sans-serif" font-size="9.8" font-style="italic" lengthAdjust="spacing" textLength="58.8" x="592.55" y="597.4637">&#171;application&#187;</text><text fill="#000000" font-family="sans-serif" font-size="9.8" lengthAdjust="spacing" textLength="114.8" x="564.55" y="610.4984">AddDroneModelController</text><rect fill="#E2E2F0" height="35.8695" rx="1.75" ry="1.75" style="stroke:#181818;stroke-width:0.3499999999999999;" width="100.1" x="878.15" y="581.9885"/><text fill="#000000" font-family="sans-serif" font-size="9.8" font-style="italic" lengthAdjust="spacing" textLength="30.8" x="912.8" y="597.4637">&#171;auth&#187;</text><text fill="#000000" font-family="sans-serif" font-size="9.8" lengthAdjust="spacing" textLength="90.3" x="883.05" y="610.4984">AuthorizationService</text><rect fill="#E2E2F0" height="35.8695" rx="1.75" ry="1.75" style="stroke:#181818;stroke-width:0.3499999999999999;" width="154" x="985.25" y="49.7"/><text fill="#000000" font-family="sans-serif" font-size="9.8" font-style="italic" lengthAdjust="spacing" textLength="58.8" x="1032.85" y="65.1752">&#171;application&#187;</text><text fill="#000000" font-family="sans-serif" font-size="9.8" lengthAdjust="spacing" textLength="144.2" x="990.15" y="78.21">DroneModelManagementService</text><rect fill="#E2E2F0" height="35.8695" rx="1.75" ry="1.75" style="stroke:#181818;stroke-width:0.3499999999999999;" width="154" x="985.25" y="581.9885"/><text fill="#000000" font-family="sans-serif" font-size="9.8" font-style="italic" lengthAdjust="spacing" textLength="58.8" x="1032.85" y="597.4637">&#171;application&#187;</text><text fill="#000000" font-family="sans-serif" font-size="9.8" lengthAdjust="spacing" textLength="144.2" x="990.15" y="610.4984">DroneModelManagementService</text><rect fill="#E2E2F0" height="35.8695" rx="1.75" ry="1.75" style="stroke:#181818;stroke-width:0.3499999999999999;" width="63.7" x="1418.2" y="49.7"/><text fill="#000000" font-family="sans-serif" font-size="9.8" font-style="italic" lengthAdjust="spacing" textLength="43.4" x="1428.35" y="65.1752">&#171;domain&#187;</text><text fill="#000000" font-family="sans-serif" font-size="9.8" lengthAdjust="spacing" textLength="53.9" x="1423.1" y="78.21">DroneModel</text><rect fill="#E2E2F0" height="35.8695" rx="1.75" ry="1.75" style="stroke:#181818;stroke-width:0.3499999999999999;" width="63.7" x="1418.2" y="581.9885"/><text fill="#000000" font-family="sans-serif" font-size="9.8" font-style="italic" lengthAdjust="spacing" textLength="43.4" x="1428.35" y="597.4637">&#171;domain&#187;</text><text fill="#000000" font-family="sans-serif" font-size="9.8" lengthAdjust="spacing" textLength="53.9" x="1423.1" y="610.4984">DroneModel</text><rect fill="#E2E2F0" height="35.8695" rx="1.75" ry="1.75" style="stroke:#181818;stroke-width:0.3499999999999999;" width="111.3" x="1488.9" y="49.7"/><text fill="#000000" font-family="sans-serif" font-size="9.8" font-style="italic" lengthAdjust="spacing" textLength="55.3" x="1516.9" y="65.1752">&#171;repository&#187;</text><text fill="#000000" font-family="sans-serif" font-size="9.8" lengthAdjust="spacing" textLength="101.5" x="1493.8" y="78.21">DroneModelRepository</text><rect fill="#E2E2F0" height="35.8695" rx="1.75" ry="1.75" style="stroke:#181818;stroke-width:0.3499999999999999;" width="111.3" x="1488.9" y="581.9885"/><text fill="#000000" font-family="sans-serif" font-size="9.8" font-style="italic" lengthAdjust="spacing" textLength="55.3" x="1516.9" y="597.4637">&#171;repository&#187;</text><text fill="#000000" font-family="sans-serif" font-size="9.8" lengthAdjust="spacing" textLength="101.5" x="1493.8" y="610.4984">DroneModelRepository</text><text fill="#000000" font-family="sans-serif" font-size="9.8" lengthAdjust="spacing" textLength="42.7" x="1607.2" y="83.81">Database</text><path d="M1618.05,48.0348 C1618.05,41.0348 1630.65,41.0348 1630.65,41.0348 C1630.65,41.0348 1643.25,41.0348 1643.25,48.0348 L1643.25,66.2348 C1643.25,73.2348 1630.65,73.2348 1630.65,73.2348 C1630.65,73.2348 1618.05,73.2348 1618.05,66.2348 L1618.05,48.0348 " fill="#E2E2F0" style="stroke:#181818;stroke-width:1.0499999999999998;"/><path d="M1618.05,48.0348 C1618.05,55.0348 1630.65,55.0348 1630.65,55.0348 C1630.65,55.0348 1643.25,55.0348 1643.25,48.0348 " fill="none" style="stroke:#181818;stroke-width:1.0499999999999998;"/><text fill="#000000" font-family="sans-serif" font-size="9.8" lengthAdjust="spacing" textLength="42.7" x="1607.2" y="592.5637">Database</text><path d="M1618.05,602.0232 C1618.05,595.0232 1630.65,595.0232 1630.65,595.0232 C1630.65,595.0232 1643.25,595.0232 1643.25,602.0232 L1643.25,620.2232 C1643.25,627.2232 1630.65,627.2232 1630.65,627.2232 C1630.65,627.2232 1618.05,627.2232 1618.05,620.2232 L1618.05,602.0232 " fill="#E2E2F0" style="stroke:#181818;stroke-width:1.0499999999999998;"/><path d="M1618.05,602.0232 C1618.05,609.0232 1630.65,609.0232 1630.65,609.0232 C1630.65,609.0232 1643.25,609.0232 1643.25,602.0232 " fill="none" style="stroke:#181818;stroke-width:1.0499999999999998;"/><rect fill="#FFFFFF" height="476.8189" style="stroke:#181818;stroke-width:0.6999999999999998;" width="7" x="28.35" y="93.2695"/><rect fill="#FFFFFF" height="80.1391" style="stroke:#181818;stroke-width:0.6999999999999998;" width="7" x="189.7" y="116.5732"/><rect fill="#FFFFFF" height="65.4732" style="stroke:#181818;stroke-width:0.6999999999999998;" width="7" x="365.05" y="196.7123"/><rect fill="#FFFFFF" height="285.9992" style="stroke:#181818;stroke-width:0.6999999999999998;" width="7" x="365.05" y="284.0893"/><rect fill="#FFFFFF" height="242.1918" style="stroke:#181818;stroke-width:0.6999999999999998;" width="7" x="618.45" y="305.993"/><rect fill="#FFFFFF" height="166.9186" style="stroke:#181818;stroke-width:0.6999999999999998;" width="7" x="1058.75" y="371.4662"/><rect fill="#FFFFFF" height="124.7148" style="stroke:#181818;stroke-width:0.6999999999999998;" width="7" x="1062.25" y="398.9699"/><rect fill="#FFFFFF" height="21.9037" style="stroke:#181818;stroke-width:0.6999999999999998;" width="7" x="1446.55" y="424.3736"/><rect fill="#FFFFFF" height="41.5037" style="stroke:#181818;stroke-width:0.6999999999999998;" width="7" x="1541.05" y="468.1811"/><rect fill="#FFFFFF" height="9.8" style="stroke:#181818;stroke-width:0.6999999999999998;" width="7" x="1627.15" y="490.0848"/><polygon fill="#181818" points="130.55,106.7732,137.55,109.5732,130.55,112.3732,133.35,109.5732" style="stroke:#181818;stroke-width:0.6999999999999998;"/><line style="stroke:#181818;stroke-width:0.6999999999999998;" x1="35.35" x2="134.75" y1="109.5732" y2="109.5732"/><text fill="#000000" font-family="sans-serif" font-size="9.1" lengthAdjust="spacing" textLength="86.8" x="40.25" y="105.8894">Create a drone model</text><rect fill="#E2E2F0" height="35.8695" rx="1.75" ry="1.75" style="stroke:#181818;stroke-width:0.3499999999999999;" width="108.5" x="138.95" y="93.2695"/><text fill="#000000" font-family="sans-serif" font-size="9.8" font-style="italic" lengthAdjust="spacing" textLength="66.5" x="159.95" y="108.7447">&#171;presentation&#187;</text><text fill="#000000" font-family="sans-serif" font-size="9.8" lengthAdjust="spacing" textLength="98.7" x="143.85" y="121.7795">AddDroneModelAction</text><polygon fill="#181818" points="315.35,150.3428,322.35,153.1428,315.35,155.9428,318.15,153.1428" style="stroke:#181818;stroke-width:0.6999999999999998;"/><line style="stroke:#181818;stroke-width:0.6999999999999998;" x1="196.7" x2="319.55" y1="153.1428" y2="153.1428"/><text fill="#000000" font-family="sans-serif" font-size="9.1" lengthAdjust="spacing" textLength="25.2" x="201.6" y="149.4589">create</text><rect fill="#E2E2F0" height="35.8695" rx="1.75" ry="1.75" style="stroke:#181818;stroke-width:0.3499999999999999;" width="89.6" x="323.75" y="136.8391"/><text fill="#000000" font-family="sans-serif" font-size="9.8" font-style="italic" lengthAdjust="spacing" textLength="66.5" x="335.3" y="152.3143">&#171;presentation&#187;</text><text fill="#000000" font-family="sans-serif" font-size="9.8" lengthAdjust="spacing" textLength="79.8" x="328.65" y="165.349">AddDroneModelUI</text><polygon fill="#181818" points="356.65,193.9123,363.65,196.7123,356.65,199.5123,359.45,196.7123" style="stroke:#181818;stroke-width:0.6999999999999998;"/><line style="stroke:#181818;stroke-width:0.6999999999999998;" x1="193.2" x2="360.85" y1="196.7123" y2="196.7123"/><text fill="#000000" font-family="sans-serif" font-size="9.1" lengthAdjust="spacing" textLength="26.6" x="198.1" y="193.0284">show()</text><polygon fill="#181818" points="551.25,215.816,558.25,218.616,551.25,221.416,554.05,218.616" style="stroke:#181818;stroke-width:0.6999999999999998;"/><line style="stroke:#181818;stroke-width:0.6999999999999998;" x1="372.05" x2="555.45" y1="218.616" y2="218.616"/><text fill="#000000" font-family="sans-serif" font-size="9.1" lengthAdjust="spacing" textLength="25.2" x="376.95" y="214.9321">create</text><rect fill="#E2E2F0" height="35.8695" rx="1.75" ry="1.75" style="stroke:#181818;stroke-width:0.3499999999999999;" width="124.6" x="559.65" y="202.3123"/><text fill="#000000" font-family="sans-serif" font-size="9.8" font-style="italic" lengthAdjust="spacing" textLength="58.8" x="592.55" y="217.7875">&#171;application&#187;</text><text fill="#000000" font-family="sans-serif" font-size="9.8" lengthAdjust="spacing" textLength="114.8" x="564.55" y="230.8223">AddDroneModelController</text><polygon fill="#181818" points="43.05,259.3855,36.05,262.1855,43.05,264.9855,40.25,262.1855" style="stroke:#181818;stroke-width:0.6999999999999998;"/><line style="stroke:#181818;stroke-width:0.6999999999999998;stroke-dasharray:2.0,2.0;" x1="38.85" x2="367.85" y1="262.1855" y2="262.1855"/><text fill="#000000" font-family="sans-serif" font-size="9.1" lengthAdjust="spacing" textLength="312.9" x="47.25" y="258.5017">Request Drone Model Information (Model Name, Manufacturer, WindBehavior)</text><polygon fill="#181818" points="356.65,281.2893,363.65,284.0893,356.65,286.8893,359.45,284.0893" style="stroke:#181818;stroke-width:0.6999999999999998;"/><line style="stroke:#181818;stroke-width:0.6999999999999998;" x1="35.35" x2="360.85" y1="284.0893" y2="284.0893"/><text fill="#000000" font-family="sans-serif" font-size="9.1" lengthAdjust="spacing" textLength="130.2" x="40.25" y="280.4054">Provide Drone Model Information</text><polygon fill="#181818" points="610.05,303.193,617.05,305.993,610.05,308.793,612.85,305.993" style="stroke:#181818;stroke-width:0.6999999999999998;"/><line style="stroke:#181818;stroke-width:0.6999999999999998;" x1="372.05" x2="614.25" y1="305.993" y2="305.993"/><text fill="#000000" font-family="sans-serif" font-size="9.1" lengthAdjust="spacing" textLength="233.1" x="376.95" y="302.3091">addDroneModel(modelName, manufacturer, windBehavior)</text><polygon fill="#181818" points="869.75,325.0967,876.75,327.8967,869.75,330.6967,872.55,327.8967" style="stroke:#181818;stroke-width:0.6999999999999998;"/><line style="stroke:#181818;stroke-width:0.6999999999999998;" x1="625.45" x2="873.95" y1="327.8967" y2="327.8967"/><text fill="#000000" font-family="sans-serif" font-size="9.1" lengthAdjust="spacing" textLength="235.9" x="630.35" y="324.2128">ensureAuthenticatedUserHasAnyOf(Roles.DRONE_TECH)</text><rect fill="#E2E2F0" height="35.8695" rx="1.75" ry="1.75" style="stroke:#181818;stroke-width:0.3499999999999999;" width="100.1" x="878.15" y="311.593"/><text fill="#000000" font-family="sans-serif" font-size="9.8" font-style="italic" lengthAdjust="spacing" textLength="30.8" x="912.8" y="327.0682">&#171;auth&#187;</text><text fill="#000000" font-family="sans-serif" font-size="9.8" lengthAdjust="spacing" textLength="90.3" x="883.05" y="340.1029">AuthorizationService</text><polygon fill="#181818" points="1050.35,368.6662,1057.35,371.4662,1050.35,374.2662,1053.15,371.4662" style="stroke:#181818;stroke-width:0.6999999999999998;"/><line style="stroke:#181818;stroke-width:0.6999999999999998;" x1="625.45" x2="1054.55" y1="371.4662" y2="371.4662"/><text fill="#000000" font-family="sans-serif" font-size="9.1" lengthAdjust="spacing" textLength="326.2" x="630.35" y="367.7823">registerNewDroneModel(modelName, manufacturer , systemUser , windBehavior)</text><line style="stroke:#181818;stroke-width:0.6999999999999998;" x1="1065.75" x2="1098.65" y1="389.8699" y2="389.8699"/><line style="stroke:#181818;stroke-width:0.6999999999999998;" x1="1098.65" x2="1098.65" y1="389.8699" y2="398.9699"/><line style="stroke:#181818;stroke-width:0.6999999999999998;" x1="1069.95" x2="1098.65" y1="398.9699" y2="398.9699"/><polygon fill="#181818" points="1076.95,396.1699,1069.95,398.9699,1076.95,401.7699,1074.15,398.9699" style="stroke:#181818;stroke-width:0.6999999999999998;"/><text fill="#000000" font-family="sans-serif" font-size="9.1" lengthAdjust="spacing" textLength="371" x="1074.15" y="386.186">registerNewDroneModel(modelName, manufacturer, createdOn , systemUser, windBehavior)</text><polygon fill="#181818" points="1438.15,421.5736,1445.15,424.3736,1438.15,427.1736,1440.95,424.3736" style="stroke:#181818;stroke-width:0.6999999999999998;"/><line style="stroke:#181818;stroke-width:0.6999999999999998;" x1="1069.25" x2="1442.35" y1="424.3736" y2="424.3736"/><text fill="#000000" font-family="sans-serif" font-size="9.1" lengthAdjust="spacing" textLength="339.5" x="1074.15" y="420.6897">new DroneModel(modelName, manufacturer, createdOn, systemUser, windBehavior)</text><polygon fill="#181818" points="1076.95,443.4773,1069.95,446.2773,1076.95,449.0773,1074.15,446.2773" style="stroke:#181818;stroke-width:0.6999999999999998;"/><line style="stroke:#181818;stroke-width:0.6999999999999998;stroke-dasharray:2.0,2.0;" x1="1072.75" x2="1449.35" y1="446.2773" y2="446.2773"/><text fill="#000000" font-family="sans-serif" font-size="9.1" lengthAdjust="spacing" textLength="67.2" x="1081.15" y="442.5935">new DroneModel</text><polygon fill="#181818" points="1532.65,465.3811,1539.65,468.1811,1532.65,470.9811,1535.45,468.1811" style="stroke:#181818;stroke-width:0.6999999999999998;"/><line style="stroke:#181818;stroke-width:0.6999999999999998;" x1="1069.25" x2="1536.85" y1="468.1811" y2="468.1811"/><text fill="#000000" font-family="sans-serif" font-size="9.1" lengthAdjust="spacing" textLength="88.2" x="1074.15" y="464.4972">save(newDroneModel)</text><polygon fill="#181818" points="1618.75,487.2848,1625.75,490.0848,1618.75,492.8848,1621.55,490.0848" style="stroke:#181818;stroke-width:0.6999999999999998;"/><line style="stroke:#181818;stroke-width:0.6999999999999998;" x1="1548.05" x2="1622.95" y1="490.0848" y2="490.0848"/><text fill="#000000" font-family="sans-serif" font-size="9.1" lengthAdjust="spacing" textLength="23.8" x="1552.95" y="486.4009">save()</text><polygon fill="#181818" points="1555.75,497.0848,1548.75,499.8848,1555.75,502.6848,1552.95,499.8848" style="stroke:#181818;stroke-width:0.6999999999999998;"/><line style="stroke:#181818;stroke-width:0.6999999999999998;stroke-dasharray:2.0,2.0;" x1="1551.55" x2="1629.95" y1="499.8848" y2="499.8848"/><polygon fill="#181818" points="1076.95,506.8848,1069.95,509.6848,1076.95,512.4848,1074.15,509.6848" style="stroke:#181818;stroke-width:0.6999999999999998;"/><line style="stroke:#181818;stroke-width:0.6999999999999998;stroke-dasharray:2.0,2.0;" x1="1072.75" x2="1543.85" y1="509.6848" y2="509.6848"/><line style="stroke:#181818;stroke-width:0.6999999999999998;stroke-dasharray:2.0,2.0;" x1="1069.25" x2="1098.65" y1="522.9848" y2="522.9848"/><line style="stroke:#181818;stroke-width:0.6999999999999998;stroke-dasharray:2.0,2.0;" x1="1098.65" x2="1098.65" y1="522.9848" y2="532.0848"/><line style="stroke:#181818;stroke-width:0.6999999999999998;stroke-dasharray:2.0,2.0;" x1="1065.75" x2="1098.65" y1="532.0848" y2="532.0848"/><polygon fill="#181818" points="1072.75,529.2848,1065.75,532.0848,1072.75,534.8848,1069.95,532.0848" style="stroke:#181818;stroke-width:0.6999999999999998;"/><polygon fill="#181818" points="633.15,535.5848,626.15,538.3848,633.15,541.1848,630.35,538.3848" style="stroke:#181818;stroke-width:0.6999999999999998;"/><line style="stroke:#181818;stroke-width:0.6999999999999998;stroke-dasharray:2.0,2.0;" x1="628.95" x2="1061.55" y1="538.3848" y2="538.3848"/><polygon fill="#181818" points="379.75,545.3848,372.75,548.1848,379.75,550.9848,376.95,548.1848" style="stroke:#181818;stroke-width:0.6999999999999998;"/><line style="stroke:#181818;stroke-width:0.6999999999999998;stroke-dasharray:2.0,2.0;" x1="375.55" x2="621.25" y1="548.1848" y2="548.1848"/><polygon fill="#181818" points="39.55,567.2885,32.55,570.0885,39.55,572.8885,36.75,570.0885" style="stroke:#181818;stroke-width:0.6999999999999998;"/><line style="stroke:#181818;stroke-width:0.6999999999999998;stroke-dasharray:2.0,2.0;" x1="35.35" x2="367.85" y1="570.0885" y2="570.0885"/><text fill="#000000" font-family="sans-serif" font-size="9.1" lengthAdjust="spacing" textLength="113.4" x="43.75" y="566.4046">Confirm Drone Model Added</text><!--SRC=[hLR1Zjem4BtxAqQS0B7zW6Y5H9ULbiD2nIxgiNBZ0ImbTke44FtwZfr0d10IsE8BsEDvyzxCn7OcimZX0__iK8K8KyatXiUCyJ3J1dfJenN29uRR7l0K9dQL9TnaCfG9Lndq9aAuJUzQO4HsgTLfA_s5v-V4O8egutOw7hSuhsRESJMxn-b5gypeA4BZdCifWV0aYMJOZB7Bjjh8lyxuWMOlGynfDnWi52tNCKeIxrpn3SP4s8TgiRUJAnrhEEGcTCnbYySI4vrAgjAnvbiQ2CMS9uGaUCP_ynG9flYNknOJrmjoppCioi_S3poDYneFXm6y6BGRE0ZNCB6DM7MaZSxJDWMvhcR38GGGEh_AUW3fLX_w0yO4rW60ndbjDMECceMSoghxeCwOizGcWANjyJJBKm9vFcTghKtiYW3zV6dEOnm1LMotfaWxWsO4FwKItt7BzrARWK_BKZXdmrB_OVHU2hmMXB5B2L2CkXGImlrExxkavlJY2hr3XHvuunoeX6ML3NPu8Mss6Zu0brLKAOMpPkfZsxaeLYcQDvvEr76nxYzrXEctwN8nV_tr-VhoDhYCv1Uq8KmNjROFAW236vbcQEPuw4uQZ20zqkxOIe2s55RIsCBWahmTRPGVgsXKjBrOg8guBct_h_5khG4eFC1TahwYg4KPOvrULKNk86aHM9VK2Uzz2fsqRawiTyRJAShts5T-wmoQuHk8b40TYMgCRJcTxfI2HqULIWhdIwUpDgS8JrTIm6xE_sqncwMsjmMxkVGty6vjWqVnUCIvLhd6sAF2-dU1kstP5TI6sFvBW5gITgobYIktDBqgKR06E0fKVOZG4-WV]--></g></svg>