<?xml version="1.0" encoding="us-ascii" standalone="no"?><svg xmlns="http://www.w3.org/2000/svg" xmlns:xlink="http://www.w3.org/1999/xlink" contentStyleType="text/css" height="875px" preserveAspectRatio="none" style="width:2649px;height:875px;background:#FFFFFF;" version="1.1" viewBox="0 0 2649 875" width="2649px" zoomAndPan="magnify"><defs/><g><text fill="#000000" font-family="sans-serif" font-size="14" font-weight="bold" lengthAdjust="spacing" textLength="132" x="1260" y="30.1074">Sequence Diagram</text><rect fill="#FFFFFF" height="641.1699" style="stroke:#181818;stroke-width:1.0;" width="10" x="40.5" y="133.2422"/><rect fill="#FFFFFF" height="93.5332" style="stroke:#181818;stroke-width:1.0;" width="10" x="537.5" y="156.5332"/><rect fill="#FFFFFF" height="493.0547" style="stroke:#181818;stroke-width:1.0;" width="10" x="537.5" y="281.3574"/><rect fill="#FFFFFF" height="430.4727" style="stroke:#181818;stroke-width:1.0;" width="10" x="955.5" y="312.6484"/><rect fill="#FFFFFF" height="322.9395" style="stroke:#181818;stroke-width:1.0;" width="10" x="1555.5" y="406.1816"/><rect fill="#FFFFFF" height="124.8242" style="stroke:#181818;stroke-width:1.0;" width="10" x="1743" y="499.7148"/><rect fill="#FFFFFF" height="52.2422" style="stroke:#181818;stroke-width:1.0;" width="10" x="2351.5" y="541.0059"/><rect fill="#FFFFFF" height="59.291" style="stroke:#181818;stroke-width:1.0;" width="10" x="2486.5" y="655.8301"/><rect fill="#FFFFFF" height="14" style="stroke:#181818;stroke-width:1.0;" width="10" x="2609.5" y="687.1211"/><line style="stroke:#181818;stroke-width:0.5;stroke-dasharray:5.0,5.0;" x1="45" x2="45" y1="123.2422" y2="792.4121"/><line style="stroke:#181818;stroke-width:0.5;stroke-dasharray:5.0,5.0;" x1="542.5" x2="542.5" y1="123.2422" y2="792.4121"/><line style="stroke:#181818;stroke-width:0.5;stroke-dasharray:5.0,5.0;" x1="960.5" x2="960.5" y1="205.6543" y2="792.4121"/><line style="stroke:#181818;stroke-width:0.5;stroke-dasharray:5.0,5.0;" x1="1273.5" x2="1273.5" y1="361.7695" y2="792.4121"/><line style="stroke:#181818;stroke-width:0.5;stroke-dasharray:5.0,5.0;" x1="1560.5" x2="1560.5" y1="123.2422" y2="792.4121"/><line style="stroke:#181818;stroke-width:0.5;stroke-dasharray:5.0,5.0;" x1="1747.5" x2="1747.5" y1="455.3027" y2="792.4121"/><line style="stroke:#181818;stroke-width:0.5;stroke-dasharray:5.0,5.0;" x1="2356" x2="2356" y1="548.8359" y2="792.4121"/><line style="stroke:#181818;stroke-width:0.5;stroke-dasharray:5.0,5.0;" x1="2491" x2="2491" y1="123.2422" y2="792.4121"/><line style="stroke:#181818;stroke-width:0.5;stroke-dasharray:5.0,5.0;" x1="2614" x2="2614" y1="123.2422" y2="792.4121"/><text fill="#000000" font-family="sans-serif" font-size="14" lengthAdjust="spacing" textLength="75" x="5" y="119.7285">Drone Tech</text><ellipse cx="45.5" cy="53.1211" fill="#E2E2F0" rx="8" ry="8" style="stroke:#181818;stroke-width:0.5;"/><path d="M45.5,61.1211 L45.5,88.1211 M32.5,69.1211 L58.5,69.1211 M45.5,88.1211 L32.5,103.1211 M45.5,88.1211 L58.5,103.1211 " fill="none" style="stroke:#181818;stroke-width:0.5;"/><text fill="#000000" font-family="sans-serif" font-size="14" lengthAdjust="spacing" textLength="75" x="5" y="806.5195">Drone Tech</text><ellipse cx="45.5" cy="818.5332" fill="#E2E2F0" rx="8" ry="8" style="stroke:#181818;stroke-width:0.5;"/><path d="M45.5,826.5332 L45.5,853.5332 M32.5,834.5332 L58.5,834.5332 M45.5,853.5332 L32.5,868.5332 M45.5,853.5332 L58.5,868.5332 " fill="none" style="stroke:#181818;stroke-width:0.5;"/><rect fill="#E2E2F0" height="51.2422" rx="2.5" ry="2.5" style="stroke:#181818;stroke-width:0.5;" width="128" x="478.5" y="71"/><text fill="#000000" font-family="sans-serif" font-size="14" font-style="italic" lengthAdjust="spacing" textLength="95" x="495" y="93.1074">&#171;presentation&#187;</text><text fill="#000000" font-family="sans-serif" font-size="14" lengthAdjust="spacing" textLength="114" x="485.5" y="111.7285">AddDroneModelUI</text><rect fill="#E2E2F0" height="51.2422" rx="2.5" ry="2.5" style="stroke:#181818;stroke-width:0.5;" width="128" x="478.5" y="791.4121"/><text fill="#000000" font-family="sans-serif" font-size="14" font-style="italic" lengthAdjust="spacing" textLength="95" x="495" y="813.5195">&#171;presentation&#187;</text><text fill="#000000" font-family="sans-serif" font-size="14" lengthAdjust="spacing" textLength="114" x="485.5" y="832.1406">AddDroneModelUI</text><rect fill="#E2E2F0" height="51.2422" rx="2.5" ry="2.5" style="stroke:#181818;stroke-width:0.5;" width="178" x="871.5" y="791.4121"/><text fill="#000000" font-family="sans-serif" font-size="14" font-style="italic" lengthAdjust="spacing" textLength="84" x="918.5" y="813.5195">&#171;application&#187;</text><text fill="#000000" font-family="sans-serif" font-size="14" lengthAdjust="spacing" textLength="164" x="878.5" y="832.1406">AddDroneModelController</text><rect fill="#E2E2F0" height="51.2422" rx="2.5" ry="2.5" style="stroke:#181818;stroke-width:0.5;" width="143" x="1202.5" y="791.4121"/><text fill="#000000" font-family="sans-serif" font-size="14" font-style="italic" lengthAdjust="spacing" textLength="44" x="1252" y="813.5195">&#171;auth&#187;</text><text fill="#000000" font-family="sans-serif" font-size="14" lengthAdjust="spacing" textLength="129" x="1209.5" y="832.1406">AuthorizationService</text><rect fill="#E2E2F0" height="51.2422" rx="2.5" ry="2.5" style="stroke:#181818;stroke-width:0.5;" width="220" x="1450.5" y="71"/><text fill="#000000" font-family="sans-serif" font-size="14" font-style="italic" lengthAdjust="spacing" textLength="84" x="1518.5" y="93.1074">&#171;application&#187;</text><text fill="#000000" font-family="sans-serif" font-size="14" lengthAdjust="spacing" textLength="206" x="1457.5" y="111.7285">DroneModelManagementService</text><rect fill="#E2E2F0" height="51.2422" rx="2.5" ry="2.5" style="stroke:#181818;stroke-width:0.5;" width="220" x="1450.5" y="791.4121"/><text fill="#000000" font-family="sans-serif" font-size="14" font-style="italic" lengthAdjust="spacing" textLength="84" x="1518.5" y="813.5195">&#171;application&#187;</text><text fill="#000000" font-family="sans-serif" font-size="14" lengthAdjust="spacing" textLength="206" x="1457.5" y="832.1406">DroneModelManagementService</text><rect fill="#E2E2F0" height="51.2422" rx="2.5" ry="2.5" style="stroke:#181818;stroke-width:0.5;" width="135" x="1680.5" y="791.4121"/><text fill="#000000" font-family="sans-serif" font-size="14" font-style="italic" lengthAdjust="spacing" textLength="62" x="1717" y="813.5195">&#171;domain&#187;</text><text fill="#000000" font-family="sans-serif" font-size="14" lengthAdjust="spacing" textLength="121" x="1687.5" y="832.1406">DroneModelBuilder</text><rect fill="#E2E2F0" height="51.2422" rx="2.5" ry="2.5" style="stroke:#181818;stroke-width:0.5;" width="91" x="2311" y="791.4121"/><text fill="#000000" font-family="sans-serif" font-size="14" font-style="italic" lengthAdjust="spacing" textLength="62" x="2325.5" y="813.5195">&#171;domain&#187;</text><text fill="#000000" font-family="sans-serif" font-size="14" lengthAdjust="spacing" textLength="77" x="2318" y="832.1406">DroneModel</text><rect fill="#E2E2F0" height="51.2422" rx="2.5" ry="2.5" style="stroke:#181818;stroke-width:0.5;" width="159" x="2412" y="71"/><text fill="#000000" font-family="sans-serif" font-size="14" font-style="italic" lengthAdjust="spacing" textLength="79" x="2452" y="93.1074">&#171;repository&#187;</text><text fill="#000000" font-family="sans-serif" font-size="14" lengthAdjust="spacing" textLength="145" x="2419" y="111.7285">DroneModelRepository</text><rect fill="#E2E2F0" height="51.2422" rx="2.5" ry="2.5" style="stroke:#181818;stroke-width:0.5;" width="159" x="2412" y="791.4121"/><text fill="#000000" font-family="sans-serif" font-size="14" font-style="italic" lengthAdjust="spacing" textLength="79" x="2452" y="813.5195">&#171;repository&#187;</text><text fill="#000000" font-family="sans-serif" font-size="14" lengthAdjust="spacing" textLength="145" x="2419" y="832.1406">DroneModelRepository</text><text fill="#000000" font-family="sans-serif" font-size="14" lengthAdjust="spacing" textLength="61" x="2581" y="119.7285">Database</text><path d="M2596.5,68.6211 C2596.5,58.6211 2614.5,58.6211 2614.5,58.6211 C2614.5,58.6211 2632.5,58.6211 2632.5,68.6211 L2632.5,94.6211 C2632.5,104.6211 2614.5,104.6211 2614.5,104.6211 C2614.5,104.6211 2596.5,104.6211 2596.5,94.6211 L2596.5,68.6211 " fill="#E2E2F0" style="stroke:#181818;stroke-width:1.5;"/><path d="M2596.5,68.6211 C2596.5,78.6211 2614.5,78.6211 2614.5,78.6211 C2614.5,78.6211 2632.5,78.6211 2632.5,68.6211 " fill="none" style="stroke:#181818;stroke-width:1.5;"/><text fill="#000000" font-family="sans-serif" font-size="14" lengthAdjust="spacing" textLength="61" x="2581" y="806.5195">Database</text><path d="M2596.5,820.0332 C2596.5,810.0332 2614.5,810.0332 2614.5,810.0332 C2614.5,810.0332 2632.5,810.0332 2632.5,820.0332 L2632.5,846.0332 C2632.5,856.0332 2614.5,856.0332 2614.5,856.0332 C2614.5,856.0332 2596.5,856.0332 2596.5,846.0332 L2596.5,820.0332 " fill="#E2E2F0" style="stroke:#181818;stroke-width:1.5;"/><path d="M2596.5,820.0332 C2596.5,830.0332 2614.5,830.0332 2614.5,830.0332 C2614.5,830.0332 2632.5,830.0332 2632.5,820.0332 " fill="none" style="stroke:#181818;stroke-width:1.5;"/><rect fill="#FFFFFF" height="641.1699" style="stroke:#181818;stroke-width:1.0;" width="10" x="40.5" y="133.2422"/><rect fill="#FFFFFF" height="93.5332" style="stroke:#181818;stroke-width:1.0;" width="10" x="537.5" y="156.5332"/><rect fill="#FFFFFF" height="493.0547" style="stroke:#181818;stroke-width:1.0;" width="10" x="537.5" y="281.3574"/><rect fill="#FFFFFF" height="430.4727" style="stroke:#181818;stroke-width:1.0;" width="10" x="955.5" y="312.6484"/><rect fill="#FFFFFF" height="322.9395" style="stroke:#181818;stroke-width:1.0;" width="10" x="1555.5" y="406.1816"/><rect fill="#FFFFFF" height="124.8242" style="stroke:#181818;stroke-width:1.0;" width="10" x="1743" y="499.7148"/><rect fill="#FFFFFF" height="52.2422" style="stroke:#181818;stroke-width:1.0;" width="10" x="2351.5" y="541.0059"/><rect fill="#FFFFFF" height="59.291" style="stroke:#181818;stroke-width:1.0;" width="10" x="2486.5" y="655.8301"/><rect fill="#FFFFFF" height="14" style="stroke:#181818;stroke-width:1.0;" width="10" x="2609.5" y="687.1211"/><polygon fill="#181818" points="525.5,152.5332,535.5,156.5332,525.5,160.5332,529.5,156.5332" style="stroke:#181818;stroke-width:1.0;"/><line style="stroke:#181818;stroke-width:1.0;" x1="50.5" x2="531.5" y1="156.5332" y2="156.5332"/><text fill="#000000" font-family="sans-serif" font-size="13" lengthAdjust="spacing" textLength="38" x="57.5" y="151.2705">show()</text><polygon fill="#181818" points="859.5,183.8242,869.5,187.8242,859.5,191.8242,863.5,187.8242" style="stroke:#181818;stroke-width:1.0;"/><line style="stroke:#181818;stroke-width:1.0;" x1="547.5" x2="865.5" y1="187.8242" y2="187.8242"/><text fill="#000000" font-family="sans-serif" font-size="13" lengthAdjust="spacing" textLength="44" x="554.5" y="182.5615">create()</text><rect fill="#E2E2F0" height="51.2422" rx="2.5" ry="2.5" style="stroke:#181818;stroke-width:0.5;" width="178" x="871.5" y="164.5332"/><text fill="#000000" font-family="sans-serif" font-size="14" font-style="italic" lengthAdjust="spacing" textLength="84" x="918.5" y="186.6406">&#171;application&#187;</text><text fill="#000000" font-family="sans-serif" font-size="14" lengthAdjust="spacing" textLength="164" x="878.5" y="205.2617">AddDroneModelController</text><polygon fill="#181818" points="61.5,246.0664,51.5,250.0664,61.5,254.0664,57.5,250.0664" style="stroke:#181818;stroke-width:1.0;"/><line style="stroke:#181818;stroke-width:1.0;stroke-dasharray:2.0,2.0;" x1="55.5" x2="541.5" y1="250.0664" y2="250.0664"/><text fill="#000000" font-family="sans-serif" font-size="13" lengthAdjust="spacing" textLength="463" x="67.5" y="244.8037">Request DroneModel data (Model Name, Manufacturer, Programming Language)</text><polygon fill="#181818" points="525.5,277.3574,535.5,281.3574,525.5,285.3574,529.5,281.3574" style="stroke:#181818;stroke-width:1.0;"/><line style="stroke:#181818;stroke-width:1.0;" x1="50.5" x2="531.5" y1="281.3574" y2="281.3574"/><text fill="#000000" font-family="sans-serif" font-size="13" lengthAdjust="spacing" textLength="134" x="57.5" y="276.0947">Insert DroneModel data</text><polygon fill="#181818" points="943.5,308.6484,953.5,312.6484,943.5,316.6484,947.5,312.6484" style="stroke:#181818;stroke-width:1.0;"/><line style="stroke:#181818;stroke-width:1.0;" x1="547.5" x2="949.5" y1="312.6484" y2="312.6484"/><text fill="#000000" font-family="sans-serif" font-size="13" lengthAdjust="spacing" textLength="389" x="554.5" y="307.3857">addDroneModel(modelName, manufacturer, programmingLanguage)</text><polygon fill="#181818" points="1190.5,339.9395,1200.5,343.9395,1190.5,347.9395,1194.5,343.9395" style="stroke:#181818;stroke-width:1.0;"/><line style="stroke:#181818;stroke-width:1.0;" x1="965.5" x2="1196.5" y1="343.9395" y2="343.9395"/><text fill="#000000" font-family="sans-serif" font-size="13" lengthAdjust="spacing" textLength="213" x="972.5" y="338.6768">ensureAuthenticatedUserHasAnyOf()</text><rect fill="#E2E2F0" height="51.2422" rx="2.5" ry="2.5" style="stroke:#181818;stroke-width:0.5;" width="143" x="1202.5" y="320.6484"/><text fill="#000000" font-family="sans-serif" font-size="14" font-style="italic" lengthAdjust="spacing" textLength="44" x="1252" y="342.7559">&#171;auth&#187;</text><text fill="#000000" font-family="sans-serif" font-size="14" lengthAdjust="spacing" textLength="129" x="1209.5" y="361.377">AuthorizationService</text><polygon fill="#181818" points="1543.5,402.1816,1553.5,406.1816,1543.5,410.1816,1547.5,406.1816" style="stroke:#181818;stroke-width:1.0;"/><line style="stroke:#181818;stroke-width:1.0;" x1="965.5" x2="1549.5" y1="406.1816" y2="406.1816"/><text fill="#000000" font-family="sans-serif" font-size="13" lengthAdjust="spacing" textLength="571" x="972.5" y="400.9189">registerNewDroneModel(modelName, manufacturer,programmingLanguage, createdOn, createdBy);</text><polygon fill="#181818" points="1668.5,433.4727,1678.5,437.4727,1668.5,441.4727,1672.5,437.4727" style="stroke:#181818;stroke-width:1.0;"/><line style="stroke:#181818;stroke-width:1.0;" x1="1565.5" x2="1674.5" y1="437.4727" y2="437.4727"/><text fill="#000000" font-family="sans-serif" font-size="13" lengthAdjust="spacing" textLength="44" x="1572.5" y="432.21">create()</text><rect fill="#E2E2F0" height="51.2422" rx="2.5" ry="2.5" style="stroke:#181818;stroke-width:0.5;" width="135" x="1680.5" y="414.1816"/><text fill="#000000" font-family="sans-serif" font-size="14" font-style="italic" lengthAdjust="spacing" textLength="62" x="1717" y="436.2891">&#171;domain&#187;</text><text fill="#000000" font-family="sans-serif" font-size="14" lengthAdjust="spacing" textLength="121" x="1687.5" y="454.9102">DroneModelBuilder</text><polygon fill="#181818" points="1731,495.7148,1741,499.7148,1731,503.7148,1735,499.7148" style="stroke:#181818;stroke-width:1.0;"/><line style="stroke:#181818;stroke-width:1.0;" x1="1565.5" x2="1737" y1="499.7148" y2="499.7148"/><text fill="#000000" font-family="sans-serif" font-size="13" lengthAdjust="spacing" textLength="35" x="1572.5" y="494.4521">build()</text><polygon fill="#181818" points="2299,527.0059,2309,531.0059,2299,535.0059,2303,531.0059" style="stroke:#181818;stroke-width:1.0;"/><line style="stroke:#181818;stroke-width:1.0;" x1="1753" x2="2305" y1="531.0059" y2="531.0059"/><text fill="#000000" font-family="sans-serif" font-size="13" lengthAdjust="spacing" textLength="534" x="1760" y="525.7432">new DroneModel(modelName, manufacturer, programmingLanguage, createdOn, createdBy);</text><rect fill="#E2E2F0" height="51.2422" rx="2.5" ry="2.5" style="stroke:#181818;stroke-width:0.5;" width="91" x="2311" y="507.7148"/><text fill="#000000" font-family="sans-serif" font-size="14" font-style="italic" lengthAdjust="spacing" textLength="62" x="2325.5" y="529.8223">&#171;domain&#187;</text><text fill="#000000" font-family="sans-serif" font-size="14" lengthAdjust="spacing" textLength="77" x="2318" y="548.4434">DroneModel</text><polygon fill="#181818" points="1764,589.248,1754,593.248,1764,597.248,1760,593.248" style="stroke:#181818;stroke-width:1.0;"/><line style="stroke:#181818;stroke-width:1.0;stroke-dasharray:2.0,2.0;" x1="1758" x2="2355.5" y1="593.248" y2="593.248"/><text fill="#000000" font-family="sans-serif" font-size="13" lengthAdjust="spacing" textLength="92" x="1770" y="587.9854">newDroneModel</text><polygon fill="#181818" points="1576.5,620.5391,1566.5,624.5391,1576.5,628.5391,1572.5,624.5391" style="stroke:#181818;stroke-width:1.0;"/><line style="stroke:#181818;stroke-width:1.0;stroke-dasharray:2.0,2.0;" x1="1570.5" x2="1747" y1="624.5391" y2="624.5391"/><text fill="#000000" font-family="sans-serif" font-size="13" lengthAdjust="spacing" textLength="92" x="1582.5" y="619.2764">newDroneModel</text><polygon fill="#181818" points="2474.5,651.8301,2484.5,655.8301,2474.5,659.8301,2478.5,655.8301" style="stroke:#181818;stroke-width:1.0;"/><line style="stroke:#181818;stroke-width:1.0;" x1="1565.5" x2="2480.5" y1="655.8301" y2="655.8301"/><text fill="#000000" font-family="sans-serif" font-size="13" lengthAdjust="spacing" textLength="126" x="1572.5" y="650.5674">save(newDroneModel)</text><polygon fill="#181818" points="2597.5,683.1211,2607.5,687.1211,2597.5,691.1211,2601.5,687.1211" style="stroke:#181818;stroke-width:1.0;"/><line style="stroke:#181818;stroke-width:1.0;" x1="2496.5" x2="2603.5" y1="687.1211" y2="687.1211"/><text fill="#000000" font-family="sans-serif" font-size="13" lengthAdjust="spacing" textLength="34" x="2503.5" y="681.8584">save()</text><polygon fill="#181818" points="2507.5,697.1211,2497.5,701.1211,2507.5,705.1211,2503.5,701.1211" style="stroke:#181818;stroke-width:1.0;"/><line style="stroke:#181818;stroke-width:1.0;stroke-dasharray:2.0,2.0;" x1="2501.5" x2="2613.5" y1="701.1211" y2="701.1211"/><polygon fill="#181818" points="1576.5,711.1211,1566.5,715.1211,1576.5,719.1211,1572.5,715.1211" style="stroke:#181818;stroke-width:1.0;"/><line style="stroke:#181818;stroke-width:1.0;stroke-dasharray:2.0,2.0;" x1="1570.5" x2="2490.5" y1="715.1211" y2="715.1211"/><polygon fill="#181818" points="976.5,725.1211,966.5,729.1211,976.5,733.1211,972.5,729.1211" style="stroke:#181818;stroke-width:1.0;"/><line style="stroke:#181818;stroke-width:1.0;stroke-dasharray:2.0,2.0;" x1="970.5" x2="1559.5" y1="729.1211" y2="729.1211"/><polygon fill="#181818" points="558.5,739.1211,548.5,743.1211,558.5,747.1211,554.5,743.1211" style="stroke:#181818;stroke-width:1.0;"/><line style="stroke:#181818;stroke-width:1.0;stroke-dasharray:2.0,2.0;" x1="552.5" x2="959.5" y1="743.1211" y2="743.1211"/><polygon fill="#181818" points="56.5,770.4121,46.5,774.4121,56.5,778.4121,52.5,774.4121" style="stroke:#181818;stroke-width:1.0;"/><line style="stroke:#181818;stroke-width:1.0;stroke-dasharray:2.0,2.0;" x1="50.5" x2="541.5" y1="774.4121" y2="774.4121"/><text fill="#000000" font-family="sans-serif" font-size="13" lengthAdjust="spacing" textLength="145" x="62.5" y="769.1494">Inform operation success</text><!--SRC=[hLPHRzem47xthpZn10Z-0AkGwFemfBMTsl43tEG0IyJER0V4VltE8KriS4oqpG-ja_DzzztT5nzMs0F2E_wgK6O8JuBlD2yOuvbL6aPFMac4dvZjHy0DhDnRLd9jHIPABYsCLdbU7tfMEHusw_hOPWqF3wL6Wz9oAvHSBXDENvMqMXqEg6ldxf50U5aUH1R7gEnUQV6xDhwZFeeCBoGZ1WT5hwynEXBFNF8T5aJOXqhOq-GwnyTA7F8cjPkt19AhWek4_vNZ08ytB9KHrAZpbMzd81JTFX1IpYt_u0O9fjbTN9k7MWxYo2qs2c3rFvWlgTKBC7jr6ayOq6hFRTQCaGpeHDVFwHGMa6aaEnslpMIleHRmvYHeh9-gOmNZo_w55pW3waArfHYLHZs37reviHP2xk0xbxkAEZHXEGOa0gPhQL3Vn63ibZiqwpe7oe3xuXqNxk-5NH6mApjs7JdmLXklGsV10RUyoAvM4MdNLKLfAAepaqAT9Z7VKAhVk5d9y-lMbViQsQjJ3FOUbTIdiG2DEs4iwXSy3QXLf5IpHYZvgsotZ-V9bnjMRH89GhUvk9NA84Ym-LX3-VuFHCBxSBiUk4XgZMCyeP32PumWy7Iw08ad-4i1ztQbbqyiYSHfxykSzrHC-fBgH_BaFIXoh79tPHvoOODvj6tyDnbv5phTmlo8uu3GX0sLLGUKgb10pOljE7qEa8R790tJKMWd3DnPROHvJmdI27uRXiMCfvgMn705tAjuKWF1H6A3uWsu4_txlPwNh0Sr4jkVvU3cx5Rf0bI9kfufOAeiGsDO18tY-AEe_dtn1m00]--></g></svg>