<?xml version="1.0" encoding="us-ascii" standalone="no"?><svg xmlns="http://www.w3.org/2000/svg" xmlns:xlink="http://www.w3.org/1999/xlink" contentStyleType="text/css" height="1000px" preserveAspectRatio="none" style="width:2575px;height:1000px;background:#FFFFFF;" version="1.1" viewBox="0 0 2575 1000" width="2575px" zoomAndPan="magnify"><defs/><g><text fill="#000000" font-family="sans-serif" font-size="14" font-weight="bold" lengthAdjust="spacing" textLength="132" x="1223" y="30.1074">Sequence Diagram</text><rect fill="#FFFFFF" height="765.6543" style="stroke:#181818;stroke-width:1.0;" width="10" x="40.5" y="133.2422"/><rect fill="#FFFFFF" height="114.4844" style="stroke:#181818;stroke-width:1.0;" width="10" x="271" y="166.5332"/><rect fill="#FFFFFF" height="93.5332" style="stroke:#181818;stroke-width:1.0;" width="10" x="434.5" y="281.0176"/><rect fill="#FFFFFF" height="493.0547" style="stroke:#181818;stroke-width:1.0;" width="10" x="434.5" y="405.8418"/><rect fill="#FFFFFF" height="430.4727" style="stroke:#181818;stroke-width:1.0;" width="10" x="852.5" y="437.1328"/><rect fill="#FFFFFF" height="322.9395" style="stroke:#181818;stroke-width:1.0;" width="10" x="1481.5" y="530.666"/><rect fill="#FFFFFF" height="124.8242" style="stroke:#181818;stroke-width:1.0;" width="10" x="1669" y="624.1992"/><rect fill="#FFFFFF" height="52.2422" style="stroke:#181818;stroke-width:1.0;" width="10" x="2277.5" y="665.4902"/><rect fill="#FFFFFF" height="59.291" style="stroke:#181818;stroke-width:1.0;" width="10" x="2412.5" y="780.3145"/><rect fill="#FFFFFF" height="14" style="stroke:#181818;stroke-width:1.0;" width="10" x="2535.5" y="811.6055"/><line style="stroke:#181818;stroke-width:0.5;stroke-dasharray:5.0,5.0;" x1="45" x2="45" y1="123.2422" y2="916.8965"/><line style="stroke:#181818;stroke-width:0.5;stroke-dasharray:5.0,5.0;" x1="275.5" x2="275.5" y1="174.3633" y2="916.8965"/><line style="stroke:#181818;stroke-width:0.5;stroke-dasharray:5.0,5.0;" x1="439.5" x2="439.5" y1="236.6055" y2="916.8965"/><line style="stroke:#181818;stroke-width:0.5;stroke-dasharray:5.0,5.0;" x1="857.5" x2="857.5" y1="330.1387" y2="916.8965"/><line style="stroke:#181818;stroke-width:0.5;stroke-dasharray:5.0,5.0;" x1="1294.5" x2="1294.5" y1="486.2539" y2="916.8965"/><line style="stroke:#181818;stroke-width:0.5;stroke-dasharray:5.0,5.0;" x1="1486.5" x2="1486.5" y1="123.2422" y2="916.8965"/><line style="stroke:#181818;stroke-width:0.5;stroke-dasharray:5.0,5.0;" x1="1673.5" x2="1673.5" y1="579.7871" y2="916.8965"/><line style="stroke:#181818;stroke-width:0.5;stroke-dasharray:5.0,5.0;" x1="2282" x2="2282" y1="673.3203" y2="916.8965"/><line style="stroke:#181818;stroke-width:0.5;stroke-dasharray:5.0,5.0;" x1="2417" x2="2417" y1="123.2422" y2="916.8965"/><line style="stroke:#181818;stroke-width:0.5;stroke-dasharray:5.0,5.0;" x1="2540" x2="2540" y1="123.2422" y2="916.8965"/><text fill="#000000" font-family="sans-serif" font-size="14" lengthAdjust="spacing" textLength="75" x="5" y="119.7285">Drone Tech</text><ellipse cx="45.5" cy="53.1211" fill="#E2E2F0" rx="8" ry="8" style="stroke:#181818;stroke-width:0.5;"/><path d="M45.5,61.1211 L45.5,88.1211 M32.5,69.1211 L58.5,69.1211 M45.5,88.1211 L32.5,103.1211 M45.5,88.1211 L58.5,103.1211 " fill="none" style="stroke:#181818;stroke-width:0.5;"/><text fill="#000000" font-family="sans-serif" font-size="14" lengthAdjust="spacing" textLength="75" x="5" y="931.0039">Drone Tech</text><ellipse cx="45.5" cy="943.0176" fill="#E2E2F0" rx="8" ry="8" style="stroke:#181818;stroke-width:0.5;"/><path d="M45.5,951.0176 L45.5,978.0176 M32.5,959.0176 L58.5,959.0176 M45.5,978.0176 L32.5,993.0176 M45.5,978.0176 L58.5,993.0176 " fill="none" style="stroke:#181818;stroke-width:0.5;"/><rect fill="#E2E2F0" height="51.2422" rx="2.5" ry="2.5" style="stroke:#181818;stroke-width:0.5;" width="155" x="198.5" y="915.8965"/><text fill="#000000" font-family="sans-serif" font-size="14" font-style="italic" lengthAdjust="spacing" textLength="95" x="228.5" y="938.0039">&#171;presentation&#187;</text><text fill="#000000" font-family="sans-serif" font-size="14" lengthAdjust="spacing" textLength="141" x="205.5" y="956.625">AddDroneModelAction</text><rect fill="#E2E2F0" height="51.2422" rx="2.5" ry="2.5" style="stroke:#181818;stroke-width:0.5;" width="128" x="375.5" y="915.8965"/><text fill="#000000" font-family="sans-serif" font-size="14" font-style="italic" lengthAdjust="spacing" textLength="95" x="392" y="938.0039">&#171;presentation&#187;</text><text fill="#000000" font-family="sans-serif" font-size="14" lengthAdjust="spacing" textLength="114" x="382.5" y="956.625">AddDroneModelUI</text><rect fill="#E2E2F0" height="51.2422" rx="2.5" ry="2.5" style="stroke:#181818;stroke-width:0.5;" width="178" x="768.5" y="915.8965"/><text fill="#000000" font-family="sans-serif" font-size="14" font-style="italic" lengthAdjust="spacing" textLength="84" x="815.5" y="938.0039">&#171;application&#187;</text><text fill="#000000" font-family="sans-serif" font-size="14" lengthAdjust="spacing" textLength="164" x="775.5" y="956.625">AddDroneModelController</text><rect fill="#E2E2F0" height="51.2422" rx="2.5" ry="2.5" style="stroke:#181818;stroke-width:0.5;" width="143" x="1223.5" y="915.8965"/><text fill="#000000" font-family="sans-serif" font-size="14" font-style="italic" lengthAdjust="spacing" textLength="44" x="1273" y="938.0039">&#171;auth&#187;</text><text fill="#000000" font-family="sans-serif" font-size="14" lengthAdjust="spacing" textLength="129" x="1230.5" y="956.625">AuthorizationService</text><rect fill="#E2E2F0" height="51.2422" rx="2.5" ry="2.5" style="stroke:#181818;stroke-width:0.5;" width="220" x="1376.5" y="71"/><text fill="#000000" font-family="sans-serif" font-size="14" font-style="italic" lengthAdjust="spacing" textLength="84" x="1444.5" y="93.1074">&#171;application&#187;</text><text fill="#000000" font-family="sans-serif" font-size="14" lengthAdjust="spacing" textLength="206" x="1383.5" y="111.7285">DroneModelManagementService</text><rect fill="#E2E2F0" height="51.2422" rx="2.5" ry="2.5" style="stroke:#181818;stroke-width:0.5;" width="220" x="1376.5" y="915.8965"/><text fill="#000000" font-family="sans-serif" font-size="14" font-style="italic" lengthAdjust="spacing" textLength="84" x="1444.5" y="938.0039">&#171;application&#187;</text><text fill="#000000" font-family="sans-serif" font-size="14" lengthAdjust="spacing" textLength="206" x="1383.5" y="956.625">DroneModelManagementService</text><rect fill="#E2E2F0" height="51.2422" rx="2.5" ry="2.5" style="stroke:#181818;stroke-width:0.5;" width="135" x="1606.5" y="915.8965"/><text fill="#000000" font-family="sans-serif" font-size="14" font-style="italic" lengthAdjust="spacing" textLength="62" x="1643" y="938.0039">&#171;domain&#187;</text><text fill="#000000" font-family="sans-serif" font-size="14" lengthAdjust="spacing" textLength="121" x="1613.5" y="956.625">DroneModelBuilder</text><rect fill="#E2E2F0" height="51.2422" rx="2.5" ry="2.5" style="stroke:#181818;stroke-width:0.5;" width="91" x="2237" y="915.8965"/><text fill="#000000" font-family="sans-serif" font-size="14" font-style="italic" lengthAdjust="spacing" textLength="62" x="2251.5" y="938.0039">&#171;domain&#187;</text><text fill="#000000" font-family="sans-serif" font-size="14" lengthAdjust="spacing" textLength="77" x="2244" y="956.625">DroneModel</text><rect fill="#E2E2F0" height="51.2422" rx="2.5" ry="2.5" style="stroke:#181818;stroke-width:0.5;" width="159" x="2338" y="71"/><text fill="#000000" font-family="sans-serif" font-size="14" font-style="italic" lengthAdjust="spacing" textLength="79" x="2378" y="93.1074">&#171;repository&#187;</text><text fill="#000000" font-family="sans-serif" font-size="14" lengthAdjust="spacing" textLength="145" x="2345" y="111.7285">DroneModelRepository</text><rect fill="#E2E2F0" height="51.2422" rx="2.5" ry="2.5" style="stroke:#181818;stroke-width:0.5;" width="159" x="2338" y="915.8965"/><text fill="#000000" font-family="sans-serif" font-size="14" font-style="italic" lengthAdjust="spacing" textLength="79" x="2378" y="938.0039">&#171;repository&#187;</text><text fill="#000000" font-family="sans-serif" font-size="14" lengthAdjust="spacing" textLength="145" x="2345" y="956.625">DroneModelRepository</text><text fill="#000000" font-family="sans-serif" font-size="14" lengthAdjust="spacing" textLength="61" x="2507" y="119.7285">Database</text><path d="M2522.5,68.6211 C2522.5,58.6211 2540.5,58.6211 2540.5,58.6211 C2540.5,58.6211 2558.5,58.6211 2558.5,68.6211 L2558.5,94.6211 C2558.5,104.6211 2540.5,104.6211 2540.5,104.6211 C2540.5,104.6211 2522.5,104.6211 2522.5,94.6211 L2522.5,68.6211 " fill="#E2E2F0" style="stroke:#181818;stroke-width:1.5;"/><path d="M2522.5,68.6211 C2522.5,78.6211 2540.5,78.6211 2540.5,78.6211 C2540.5,78.6211 2558.5,78.6211 2558.5,68.6211 " fill="none" style="stroke:#181818;stroke-width:1.5;"/><text fill="#000000" font-family="sans-serif" font-size="14" lengthAdjust="spacing" textLength="61" x="2507" y="931.0039">Database</text><path d="M2522.5,944.5176 C2522.5,934.5176 2540.5,934.5176 2540.5,934.5176 C2540.5,934.5176 2558.5,934.5176 2558.5,944.5176 L2558.5,970.5176 C2558.5,980.5176 2540.5,980.5176 2540.5,980.5176 C2540.5,980.5176 2522.5,980.5176 2522.5,970.5176 L2522.5,944.5176 " fill="#E2E2F0" style="stroke:#181818;stroke-width:1.5;"/><path d="M2522.5,944.5176 C2522.5,954.5176 2540.5,954.5176 2540.5,954.5176 C2540.5,954.5176 2558.5,954.5176 2558.5,944.5176 " fill="none" style="stroke:#181818;stroke-width:1.5;"/><rect fill="#FFFFFF" height="765.6543" style="stroke:#181818;stroke-width:1.0;" width="10" x="40.5" y="133.2422"/><rect fill="#FFFFFF" height="114.4844" style="stroke:#181818;stroke-width:1.0;" width="10" x="271" y="166.5332"/><rect fill="#FFFFFF" height="93.5332" style="stroke:#181818;stroke-width:1.0;" width="10" x="434.5" y="281.0176"/><rect fill="#FFFFFF" height="493.0547" style="stroke:#181818;stroke-width:1.0;" width="10" x="434.5" y="405.8418"/><rect fill="#FFFFFF" height="430.4727" style="stroke:#181818;stroke-width:1.0;" width="10" x="852.5" y="437.1328"/><rect fill="#FFFFFF" height="322.9395" style="stroke:#181818;stroke-width:1.0;" width="10" x="1481.5" y="530.666"/><rect fill="#FFFFFF" height="124.8242" style="stroke:#181818;stroke-width:1.0;" width="10" x="1669" y="624.1992"/><rect fill="#FFFFFF" height="52.2422" style="stroke:#181818;stroke-width:1.0;" width="10" x="2277.5" y="665.4902"/><rect fill="#FFFFFF" height="59.291" style="stroke:#181818;stroke-width:1.0;" width="10" x="2412.5" y="780.3145"/><rect fill="#FFFFFF" height="14" style="stroke:#181818;stroke-width:1.0;" width="10" x="2535.5" y="811.6055"/><polygon fill="#181818" points="186.5,152.5332,196.5,156.5332,186.5,160.5332,190.5,156.5332" style="stroke:#181818;stroke-width:1.0;"/><line style="stroke:#181818;stroke-width:1.0;" x1="50.5" x2="192.5" y1="156.5332" y2="156.5332"/><text fill="#000000" font-family="sans-serif" font-size="13" lengthAdjust="spacing" textLength="124" x="57.5" y="151.2705">Create a drone model</text><rect fill="#E2E2F0" height="51.2422" rx="2.5" ry="2.5" style="stroke:#181818;stroke-width:0.5;" width="155" x="198.5" y="133.2422"/><text fill="#000000" font-family="sans-serif" font-size="14" font-style="italic" lengthAdjust="spacing" textLength="95" x="228.5" y="155.3496">&#171;presentation&#187;</text><text fill="#000000" font-family="sans-serif" font-size="14" lengthAdjust="spacing" textLength="141" x="205.5" y="173.9707">AddDroneModelAction</text><polygon fill="#181818" points="363.5,214.7754,373.5,218.7754,363.5,222.7754,367.5,218.7754" style="stroke:#181818;stroke-width:1.0;"/><line style="stroke:#181818;stroke-width:1.0;" x1="281" x2="369.5" y1="218.7754" y2="218.7754"/><text fill="#000000" font-family="sans-serif" font-size="13" lengthAdjust="spacing" textLength="36" x="288" y="213.5127">create</text><rect fill="#E2E2F0" height="51.2422" rx="2.5" ry="2.5" style="stroke:#181818;stroke-width:0.5;" width="128" x="375.5" y="195.4844"/><text fill="#000000" font-family="sans-serif" font-size="14" font-style="italic" lengthAdjust="spacing" textLength="95" x="392" y="217.5918">&#171;presentation&#187;</text><text fill="#000000" font-family="sans-serif" font-size="14" lengthAdjust="spacing" textLength="114" x="382.5" y="236.2129">AddDroneModelUI</text><polygon fill="#181818" points="422.5,277.0176,432.5,281.0176,422.5,285.0176,426.5,281.0176" style="stroke:#181818;stroke-width:1.0;"/><line style="stroke:#181818;stroke-width:1.0;" x1="276" x2="428.5" y1="281.0176" y2="281.0176"/><text fill="#000000" font-family="sans-serif" font-size="13" lengthAdjust="spacing" textLength="38" x="283" y="275.7549">show()</text><polygon fill="#181818" points="756.5,308.3086,766.5,312.3086,756.5,316.3086,760.5,312.3086" style="stroke:#181818;stroke-width:1.0;"/><line style="stroke:#181818;stroke-width:1.0;" x1="444.5" x2="762.5" y1="312.3086" y2="312.3086"/><text fill="#000000" font-family="sans-serif" font-size="13" lengthAdjust="spacing" textLength="36" x="451.5" y="307.0459">create</text><rect fill="#E2E2F0" height="51.2422" rx="2.5" ry="2.5" style="stroke:#181818;stroke-width:0.5;" width="178" x="768.5" y="289.0176"/><text fill="#000000" font-family="sans-serif" font-size="14" font-style="italic" lengthAdjust="spacing" textLength="84" x="815.5" y="311.125">&#171;application&#187;</text><text fill="#000000" font-family="sans-serif" font-size="14" lengthAdjust="spacing" textLength="164" x="775.5" y="329.7461">AddDroneModelController</text><polygon fill="#181818" points="61.5,370.5508,51.5,374.5508,61.5,378.5508,57.5,374.5508" style="stroke:#181818;stroke-width:1.0;"/><line style="stroke:#181818;stroke-width:1.0;stroke-dasharray:2.0,2.0;" x1="55.5" x2="438.5" y1="374.5508" y2="374.5508"/><text fill="#000000" font-family="sans-serif" font-size="13" lengthAdjust="spacing" textLength="360" x="67.5" y="369.2881">Request Drone Model Information (Model Name, Manufacturer)</text><polygon fill="#181818" points="422.5,401.8418,432.5,405.8418,422.5,409.8418,426.5,405.8418" style="stroke:#181818;stroke-width:1.0;"/><line style="stroke:#181818;stroke-width:1.0;" x1="50.5" x2="428.5" y1="405.8418" y2="405.8418"/><text fill="#000000" font-family="sans-serif" font-size="13" lengthAdjust="spacing" textLength="186" x="57.5" y="400.5791">Provide Drone Model Information</text><polygon fill="#181818" points="840.5,433.1328,850.5,437.1328,840.5,441.1328,844.5,437.1328" style="stroke:#181818;stroke-width:1.0;"/><line style="stroke:#181818;stroke-width:1.0;" x1="444.5" x2="846.5" y1="437.1328" y2="437.1328"/><text fill="#000000" font-family="sans-serif" font-size="13" lengthAdjust="spacing" textLength="389" x="451.5" y="431.8701">addDroneModel(modelName, manufacturer, programmingLanguage)</text><polygon fill="#181818" points="1211.5,464.4238,1221.5,468.4238,1211.5,472.4238,1215.5,468.4238" style="stroke:#181818;stroke-width:1.0;"/><line style="stroke:#181818;stroke-width:1.0;" x1="862.5" x2="1217.5" y1="468.4238" y2="468.4238"/><text fill="#000000" font-family="sans-serif" font-size="13" lengthAdjust="spacing" textLength="337" x="869.5" y="463.1611">ensureAuthenticatedUserHasAnyOf(Roles.DRONE_TECH)</text><rect fill="#E2E2F0" height="51.2422" rx="2.5" ry="2.5" style="stroke:#181818;stroke-width:0.5;" width="143" x="1223.5" y="445.1328"/><text fill="#000000" font-family="sans-serif" font-size="14" font-style="italic" lengthAdjust="spacing" textLength="44" x="1273" y="467.2402">&#171;auth&#187;</text><text fill="#000000" font-family="sans-serif" font-size="14" lengthAdjust="spacing" textLength="129" x="1230.5" y="485.8613">AuthorizationService</text><polygon fill="#181818" points="1469.5,526.666,1479.5,530.666,1469.5,534.666,1473.5,530.666" style="stroke:#181818;stroke-width:1.0;"/><line style="stroke:#181818;stroke-width:1.0;" x1="862.5" x2="1475.5" y1="530.666" y2="530.666"/><text fill="#000000" font-family="sans-serif" font-size="13" lengthAdjust="spacing" textLength="571" x="869.5" y="525.4033">registerNewDroneModel(modelName, manufacturer,programmingLanguage, createdOn, createdBy);</text><polygon fill="#181818" points="1594.5,557.957,1604.5,561.957,1594.5,565.957,1598.5,561.957" style="stroke:#181818;stroke-width:1.0;"/><line style="stroke:#181818;stroke-width:1.0;" x1="1491.5" x2="1600.5" y1="561.957" y2="561.957"/><text fill="#000000" font-family="sans-serif" font-size="13" lengthAdjust="spacing" textLength="36" x="1498.5" y="556.6943">create</text><rect fill="#E2E2F0" height="51.2422" rx="2.5" ry="2.5" style="stroke:#181818;stroke-width:0.5;" width="135" x="1606.5" y="538.666"/><text fill="#000000" font-family="sans-serif" font-size="14" font-style="italic" lengthAdjust="spacing" textLength="62" x="1643" y="560.7734">&#171;domain&#187;</text><text fill="#000000" font-family="sans-serif" font-size="14" lengthAdjust="spacing" textLength="121" x="1613.5" y="579.3945">DroneModelBuilder</text><polygon fill="#181818" points="1657,620.1992,1667,624.1992,1657,628.1992,1661,624.1992" style="stroke:#181818;stroke-width:1.0;"/><line style="stroke:#181818;stroke-width:1.0;" x1="1491.5" x2="1663" y1="624.1992" y2="624.1992"/><text fill="#000000" font-family="sans-serif" font-size="13" lengthAdjust="spacing" textLength="35" x="1498.5" y="618.9365">build()</text><polygon fill="#181818" points="2225,651.4902,2235,655.4902,2225,659.4902,2229,655.4902" style="stroke:#181818;stroke-width:1.0;"/><line style="stroke:#181818;stroke-width:1.0;" x1="1679" x2="2231" y1="655.4902" y2="655.4902"/><text fill="#000000" font-family="sans-serif" font-size="13" lengthAdjust="spacing" textLength="534" x="1686" y="650.2275">new DroneModel(modelName, manufacturer, programmingLanguage, createdOn, createdBy);</text><rect fill="#E2E2F0" height="51.2422" rx="2.5" ry="2.5" style="stroke:#181818;stroke-width:0.5;" width="91" x="2237" y="632.1992"/><text fill="#000000" font-family="sans-serif" font-size="14" font-style="italic" lengthAdjust="spacing" textLength="62" x="2251.5" y="654.3066">&#171;domain&#187;</text><text fill="#000000" font-family="sans-serif" font-size="14" lengthAdjust="spacing" textLength="77" x="2244" y="672.9277">DroneModel</text><polygon fill="#181818" points="1690,713.7324,1680,717.7324,1690,721.7324,1686,717.7324" style="stroke:#181818;stroke-width:1.0;"/><line style="stroke:#181818;stroke-width:1.0;stroke-dasharray:2.0,2.0;" x1="1684" x2="2281.5" y1="717.7324" y2="717.7324"/><text fill="#000000" font-family="sans-serif" font-size="13" lengthAdjust="spacing" textLength="92" x="1696" y="712.4697">newDroneModel</text><polygon fill="#181818" points="1502.5,745.0234,1492.5,749.0234,1502.5,753.0234,1498.5,749.0234" style="stroke:#181818;stroke-width:1.0;"/><line style="stroke:#181818;stroke-width:1.0;stroke-dasharray:2.0,2.0;" x1="1496.5" x2="1673" y1="749.0234" y2="749.0234"/><text fill="#000000" font-family="sans-serif" font-size="13" lengthAdjust="spacing" textLength="92" x="1508.5" y="743.7607">newDroneModel</text><polygon fill="#181818" points="2400.5,776.3145,2410.5,780.3145,2400.5,784.3145,2404.5,780.3145" style="stroke:#181818;stroke-width:1.0;"/><line style="stroke:#181818;stroke-width:1.0;" x1="1491.5" x2="2406.5" y1="780.3145" y2="780.3145"/><text fill="#000000" font-family="sans-serif" font-size="13" lengthAdjust="spacing" textLength="126" x="1498.5" y="775.0518">save(newDroneModel)</text><polygon fill="#181818" points="2523.5,807.6055,2533.5,811.6055,2523.5,815.6055,2527.5,811.6055" style="stroke:#181818;stroke-width:1.0;"/><line style="stroke:#181818;stroke-width:1.0;" x1="2422.5" x2="2529.5" y1="811.6055" y2="811.6055"/><text fill="#000000" font-family="sans-serif" font-size="13" lengthAdjust="spacing" textLength="34" x="2429.5" y="806.3428">save()</text><polygon fill="#181818" points="2433.5,821.6055,2423.5,825.6055,2433.5,829.6055,2429.5,825.6055" style="stroke:#181818;stroke-width:1.0;"/><line style="stroke:#181818;stroke-width:1.0;stroke-dasharray:2.0,2.0;" x1="2427.5" x2="2539.5" y1="825.6055" y2="825.6055"/><polygon fill="#181818" points="1502.5,835.6055,1492.5,839.6055,1502.5,843.6055,1498.5,839.6055" style="stroke:#181818;stroke-width:1.0;"/><line style="stroke:#181818;stroke-width:1.0;stroke-dasharray:2.0,2.0;" x1="1496.5" x2="2416.5" y1="839.6055" y2="839.6055"/><polygon fill="#181818" points="873.5,849.6055,863.5,853.6055,873.5,857.6055,869.5,853.6055" style="stroke:#181818;stroke-width:1.0;"/><line style="stroke:#181818;stroke-width:1.0;stroke-dasharray:2.0,2.0;" x1="867.5" x2="1485.5" y1="853.6055" y2="853.6055"/><polygon fill="#181818" points="455.5,863.6055,445.5,867.6055,455.5,871.6055,451.5,867.6055" style="stroke:#181818;stroke-width:1.0;"/><line style="stroke:#181818;stroke-width:1.0;stroke-dasharray:2.0,2.0;" x1="449.5" x2="856.5" y1="867.6055" y2="867.6055"/><polygon fill="#181818" points="56.5,894.8965,46.5,898.8965,56.5,902.8965,52.5,898.8965" style="stroke:#181818;stroke-width:1.0;"/><line style="stroke:#181818;stroke-width:1.0;stroke-dasharray:2.0,2.0;" x1="50.5" x2="438.5" y1="898.8965" y2="898.8965"/><text fill="#000000" font-family="sans-serif" font-size="13" lengthAdjust="spacing" textLength="162" x="62.5" y="893.6338">Confirm Drone Model Added</text><!--SRC=[hLRRRkCW47tdAr2UuYZT3yXMbTgqKYDjcrNQFA-eFKcHRF1YdAZxzJjWruO44- -55zl0d7DcE80rrpdG5_XPWqY1tdEsLwmWXALQAZgvLr80VONqVK9PHMzDBocPqZpb9HEQJcwpp4vwaXdaECwb-9oAh_JwkbHGWT3CVDxSH8AtAnkuNVr9q58AhMIUWxB1_IU2iBBCUHh6gFMxLFoN7Nm1TU0fDB830mOAkqynUX5FJB0z52ZOXOgCnyNrWNSrpxCsjRDU1CbamNWa_YHmHCG6IbbnNEMFazX-055Kzu586TFiZLM0CErR4zf-M2_n0zFGseVO1xswQJqocoteKe6Pm6Xc3LSOHZyG9zf8OoeCtQvcCxgWgOtp-XUqUfV7QK981gS055lNjrqHWcR3eDurBgWTR5HAjQ0RiqSgtPI4DlLSYPrKXLr4Ecswdba1SuehNk-GgLQW4bU88UtoDsA_AtdW6Gp14d8kchRjL3nAP-xUcDeoDe8AHz2SbagQRLvmiV_6nBv6ToOThCVNenDlWcaEiobJOEVOSeAeaDKCumOmbeTiMu5wPDMj-5ZlfXkPG_NbVhD-VlZn-h1yJCwPt9KCq5oI5jk92wfWpoiDwXcE8seNADsyTKos5jthtKVozKnLbqH4q7akfiKoy19ipmRNn_y33z7UpDiq2S854ci3m-du4ZuvF69pAWWuqh-qy-2Q3Ee99H6PxPogLmCL4wwXXf4SSuzY3bNkeibzBMIqZcuP_yr6pks1vpCxmDGJb92njkg1OXNof3dSHjFdRTNgIE8mlOJkEgCNMiTmDL22E8Ax3ECumwd6BJ7U0PSg7lM0Tp-HKNmZJaJtTBVNA1b03N2xbpfw06Vik2gywnT_C24Z0JWaylyfy6_cDm00]--></g></svg>