<?xml version="1.0" encoding="us-ascii" standalone="no"?><svg xmlns="http://www.w3.org/2000/svg" xmlns:xlink="http://www.w3.org/1999/xlink" contentStyleType="text/css" height="1000px" preserveAspectRatio="none" style="width:2546px;height:1000px;background:#FFFFFF;" version="1.1" viewBox="0 0 2546 1000" width="2546px" zoomAndPan="magnify"><defs/><g><text fill="#000000" font-family="sans-serif" font-size="14" font-weight="bold" lengthAdjust="spacing" textLength="132" x="1208.5" y="30.1074">Sequence Diagram</text><rect fill="#FFFFFF" height="765.6543" style="stroke:#181818;stroke-width:1.0;" width="10" x="40.5" y="133.2422"/><rect fill="#FFFFFF" height="114.4844" style="stroke:#181818;stroke-width:1.0;" width="10" x="271" y="166.5332"/><rect fill="#FFFFFF" height="93.5332" style="stroke:#181818;stroke-width:1.0;" width="10" x="434.5" y="281.0176"/><rect fill="#FFFFFF" height="493.0547" style="stroke:#181818;stroke-width:1.0;" width="10" x="434.5" y="405.8418"/><rect fill="#FFFFFF" height="430.4727" style="stroke:#181818;stroke-width:1.0;" width="10" x="852.5" y="437.1328"/><rect fill="#FFFFFF" height="322.9395" style="stroke:#181818;stroke-width:1.0;" width="10" x="1452.5" y="530.666"/><rect fill="#FFFFFF" height="124.8242" style="stroke:#181818;stroke-width:1.0;" width="10" x="1640" y="624.1992"/><rect fill="#FFFFFF" height="52.2422" style="stroke:#181818;stroke-width:1.0;" width="10" x="2248.5" y="665.4902"/><rect fill="#FFFFFF" height="59.291" style="stroke:#181818;stroke-width:1.0;" width="10" x="2383.5" y="780.3145"/><rect fill="#FFFFFF" height="14" style="stroke:#181818;stroke-width:1.0;" width="10" x="2506.5" y="811.6055"/><line style="stroke:#181818;stroke-width:0.5;stroke-dasharray:5.0,5.0;" x1="45" x2="45" y1="123.2422" y2="916.8965"/><line style="stroke:#181818;stroke-width:0.5;stroke-dasharray:5.0,5.0;" x1="275.5" x2="275.5" y1="174.3633" y2="916.8965"/><line style="stroke:#181818;stroke-width:0.5;stroke-dasharray:5.0,5.0;" x1="439.5" x2="439.5" y1="236.6055" y2="916.8965"/><line style="stroke:#181818;stroke-width:0.5;stroke-dasharray:5.0,5.0;" x1="857.5" x2="857.5" y1="330.1387" y2="916.8965"/><line style="stroke:#181818;stroke-width:0.5;stroke-dasharray:5.0,5.0;" x1="1170.5" x2="1170.5" y1="486.2539" y2="916.8965"/><line style="stroke:#181818;stroke-width:0.5;stroke-dasharray:5.0,5.0;" x1="1457.5" x2="1457.5" y1="123.2422" y2="916.8965"/><line style="stroke:#181818;stroke-width:0.5;stroke-dasharray:5.0,5.0;" x1="1644.5" x2="1644.5" y1="579.7871" y2="916.8965"/><line style="stroke:#181818;stroke-width:0.5;stroke-dasharray:5.0,5.0;" x1="2253" x2="2253" y1="673.3203" y2="916.8965"/><line style="stroke:#181818;stroke-width:0.5;stroke-dasharray:5.0,5.0;" x1="2388" x2="2388" y1="123.2422" y2="916.8965"/><line style="stroke:#181818;stroke-width:0.5;stroke-dasharray:5.0,5.0;" x1="2511" x2="2511" y1="123.2422" y2="916.8965"/><text fill="#000000" font-family="sans-serif" font-size="14" lengthAdjust="spacing" textLength="75" x="5" y="119.7285">Drone Tech</text><ellipse cx="45.5" cy="53.1211" fill="#E2E2F0" rx="8" ry="8" style="stroke:#181818;stroke-width:0.5;"/><path d="M45.5,61.1211 L45.5,88.1211 M32.5,69.1211 L58.5,69.1211 M45.5,88.1211 L32.5,103.1211 M45.5,88.1211 L58.5,103.1211 " fill="none" style="stroke:#181818;stroke-width:0.5;"/><text fill="#000000" font-family="sans-serif" font-size="14" lengthAdjust="spacing" textLength="75" x="5" y="931.0039">Drone Tech</text><ellipse cx="45.5" cy="943.0176" fill="#E2E2F0" rx="8" ry="8" style="stroke:#181818;stroke-width:0.5;"/><path d="M45.5,951.0176 L45.5,978.0176 M32.5,959.0176 L58.5,959.0176 M45.5,978.0176 L32.5,993.0176 M45.5,978.0176 L58.5,993.0176 " fill="none" style="stroke:#181818;stroke-width:0.5;"/><rect fill="#E2E2F0" height="51.2422" rx="2.5" ry="2.5" style="stroke:#181818;stroke-width:0.5;" width="155" x="198.5" y="915.8965"/><text fill="#000000" font-family="sans-serif" font-size="14" font-style="italic" lengthAdjust="spacing" textLength="95" x="228.5" y="938.0039">&#171;presentation&#187;</text><text fill="#000000" font-family="sans-serif" font-size="14" lengthAdjust="spacing" textLength="141" x="205.5" y="956.625">AddDroneModelAction</text><rect fill="#E2E2F0" height="51.2422" rx="2.5" ry="2.5" style="stroke:#181818;stroke-width:0.5;" width="128" x="375.5" y="915.8965"/><text fill="#000000" font-family="sans-serif" font-size="14" font-style="italic" lengthAdjust="spacing" textLength="95" x="392" y="938.0039">&#171;presentation&#187;</text><text fill="#000000" font-family="sans-serif" font-size="14" lengthAdjust="spacing" textLength="114" x="382.5" y="956.625">AddDroneModelUI</text><rect fill="#E2E2F0" height="51.2422" rx="2.5" ry="2.5" style="stroke:#181818;stroke-width:0.5;" width="178" x="768.5" y="915.8965"/><text fill="#000000" font-family="sans-serif" font-size="14" font-style="italic" lengthAdjust="spacing" textLength="84" x="815.5" y="938.0039">&#171;application&#187;</text><text fill="#000000" font-family="sans-serif" font-size="14" lengthAdjust="spacing" textLength="164" x="775.5" y="956.625">AddDroneModelController</text><rect fill="#E2E2F0" height="51.2422" rx="2.5" ry="2.5" style="stroke:#181818;stroke-width:0.5;" width="143" x="1099.5" y="915.8965"/><text fill="#000000" font-family="sans-serif" font-size="14" font-style="italic" lengthAdjust="spacing" textLength="44" x="1149" y="938.0039">&#171;auth&#187;</text><text fill="#000000" font-family="sans-serif" font-size="14" lengthAdjust="spacing" textLength="129" x="1106.5" y="956.625">AuthorizationService</text><rect fill="#E2E2F0" height="51.2422" rx="2.5" ry="2.5" style="stroke:#181818;stroke-width:0.5;" width="220" x="1347.5" y="71"/><text fill="#000000" font-family="sans-serif" font-size="14" font-style="italic" lengthAdjust="spacing" textLength="84" x="1415.5" y="93.1074">&#171;application&#187;</text><text fill="#000000" font-family="sans-serif" font-size="14" lengthAdjust="spacing" textLength="206" x="1354.5" y="111.7285">DroneModelManagementService</text><rect fill="#E2E2F0" height="51.2422" rx="2.5" ry="2.5" style="stroke:#181818;stroke-width:0.5;" width="220" x="1347.5" y="915.8965"/><text fill="#000000" font-family="sans-serif" font-size="14" font-style="italic" lengthAdjust="spacing" textLength="84" x="1415.5" y="938.0039">&#171;application&#187;</text><text fill="#000000" font-family="sans-serif" font-size="14" lengthAdjust="spacing" textLength="206" x="1354.5" y="956.625">DroneModelManagementService</text><rect fill="#E2E2F0" height="51.2422" rx="2.5" ry="2.5" style="stroke:#181818;stroke-width:0.5;" width="135" x="1577.5" y="915.8965"/><text fill="#000000" font-family="sans-serif" font-size="14" font-style="italic" lengthAdjust="spacing" textLength="62" x="1614" y="938.0039">&#171;domain&#187;</text><text fill="#000000" font-family="sans-serif" font-size="14" lengthAdjust="spacing" textLength="121" x="1584.5" y="956.625">DroneModelBuilder</text><rect fill="#E2E2F0" height="51.2422" rx="2.5" ry="2.5" style="stroke:#181818;stroke-width:0.5;" width="91" x="2208" y="915.8965"/><text fill="#000000" font-family="sans-serif" font-size="14" font-style="italic" lengthAdjust="spacing" textLength="62" x="2222.5" y="938.0039">&#171;domain&#187;</text><text fill="#000000" font-family="sans-serif" font-size="14" lengthAdjust="spacing" textLength="77" x="2215" y="956.625">DroneModel</text><rect fill="#E2E2F0" height="51.2422" rx="2.5" ry="2.5" style="stroke:#181818;stroke-width:0.5;" width="159" x="2309" y="71"/><text fill="#000000" font-family="sans-serif" font-size="14" font-style="italic" lengthAdjust="spacing" textLength="79" x="2349" y="93.1074">&#171;repository&#187;</text><text fill="#000000" font-family="sans-serif" font-size="14" lengthAdjust="spacing" textLength="145" x="2316" y="111.7285">DroneModelRepository</text><rect fill="#E2E2F0" height="51.2422" rx="2.5" ry="2.5" style="stroke:#181818;stroke-width:0.5;" width="159" x="2309" y="915.8965"/><text fill="#000000" font-family="sans-serif" font-size="14" font-style="italic" lengthAdjust="spacing" textLength="79" x="2349" y="938.0039">&#171;repository&#187;</text><text fill="#000000" font-family="sans-serif" font-size="14" lengthAdjust="spacing" textLength="145" x="2316" y="956.625">DroneModelRepository</text><text fill="#000000" font-family="sans-serif" font-size="14" lengthAdjust="spacing" textLength="61" x="2478" y="119.7285">Database</text><path d="M2493.5,68.6211 C2493.5,58.6211 2511.5,58.6211 2511.5,58.6211 C2511.5,58.6211 2529.5,58.6211 2529.5,68.6211 L2529.5,94.6211 C2529.5,104.6211 2511.5,104.6211 2511.5,104.6211 C2511.5,104.6211 2493.5,104.6211 2493.5,94.6211 L2493.5,68.6211 " fill="#E2E2F0" style="stroke:#181818;stroke-width:1.5;"/><path d="M2493.5,68.6211 C2493.5,78.6211 2511.5,78.6211 2511.5,78.6211 C2511.5,78.6211 2529.5,78.6211 2529.5,68.6211 " fill="none" style="stroke:#181818;stroke-width:1.5;"/><text fill="#000000" font-family="sans-serif" font-size="14" lengthAdjust="spacing" textLength="61" x="2478" y="931.0039">Database</text><path d="M2493.5,944.5176 C2493.5,934.5176 2511.5,934.5176 2511.5,934.5176 C2511.5,934.5176 2529.5,934.5176 2529.5,944.5176 L2529.5,970.5176 C2529.5,980.5176 2511.5,980.5176 2511.5,980.5176 C2511.5,980.5176 2493.5,980.5176 2493.5,970.5176 L2493.5,944.5176 " fill="#E2E2F0" style="stroke:#181818;stroke-width:1.5;"/><path d="M2493.5,944.5176 C2493.5,954.5176 2511.5,954.5176 2511.5,954.5176 C2511.5,954.5176 2529.5,954.5176 2529.5,944.5176 " fill="none" style="stroke:#181818;stroke-width:1.5;"/><rect fill="#FFFFFF" height="765.6543" style="stroke:#181818;stroke-width:1.0;" width="10" x="40.5" y="133.2422"/><rect fill="#FFFFFF" height="114.4844" style="stroke:#181818;stroke-width:1.0;" width="10" x="271" y="166.5332"/><rect fill="#FFFFFF" height="93.5332" style="stroke:#181818;stroke-width:1.0;" width="10" x="434.5" y="281.0176"/><rect fill="#FFFFFF" height="493.0547" style="stroke:#181818;stroke-width:1.0;" width="10" x="434.5" y="405.8418"/><rect fill="#FFFFFF" height="430.4727" style="stroke:#181818;stroke-width:1.0;" width="10" x="852.5" y="437.1328"/><rect fill="#FFFFFF" height="322.9395" style="stroke:#181818;stroke-width:1.0;" width="10" x="1452.5" y="530.666"/><rect fill="#FFFFFF" height="124.8242" style="stroke:#181818;stroke-width:1.0;" width="10" x="1640" y="624.1992"/><rect fill="#FFFFFF" height="52.2422" style="stroke:#181818;stroke-width:1.0;" width="10" x="2248.5" y="665.4902"/><rect fill="#FFFFFF" height="59.291" style="stroke:#181818;stroke-width:1.0;" width="10" x="2383.5" y="780.3145"/><rect fill="#FFFFFF" height="14" style="stroke:#181818;stroke-width:1.0;" width="10" x="2506.5" y="811.6055"/><polygon fill="#181818" points="186.5,152.5332,196.5,156.5332,186.5,160.5332,190.5,156.5332" style="stroke:#181818;stroke-width:1.0;"/><line style="stroke:#181818;stroke-width:1.0;" x1="50.5" x2="192.5" y1="156.5332" y2="156.5332"/><text fill="#000000" font-family="sans-serif" font-size="13" lengthAdjust="spacing" textLength="124" x="57.5" y="151.2705">Create a drone model</text><rect fill="#E2E2F0" height="51.2422" rx="2.5" ry="2.5" style="stroke:#181818;stroke-width:0.5;" width="155" x="198.5" y="133.2422"/><text fill="#000000" font-family="sans-serif" font-size="14" font-style="italic" lengthAdjust="spacing" textLength="95" x="228.5" y="155.3496">&#171;presentation&#187;</text><text fill="#000000" font-family="sans-serif" font-size="14" lengthAdjust="spacing" textLength="141" x="205.5" y="173.9707">AddDroneModelAction</text><polygon fill="#181818" points="363.5,214.7754,373.5,218.7754,363.5,222.7754,367.5,218.7754" style="stroke:#181818;stroke-width:1.0;"/><line style="stroke:#181818;stroke-width:1.0;" x1="281" x2="369.5" y1="218.7754" y2="218.7754"/><text fill="#000000" font-family="sans-serif" font-size="13" lengthAdjust="spacing" textLength="36" x="288" y="213.5127">create</text><rect fill="#E2E2F0" height="51.2422" rx="2.5" ry="2.5" style="stroke:#181818;stroke-width:0.5;" width="128" x="375.5" y="195.4844"/><text fill="#000000" font-family="sans-serif" font-size="14" font-style="italic" lengthAdjust="spacing" textLength="95" x="392" y="217.5918">&#171;presentation&#187;</text><text fill="#000000" font-family="sans-serif" font-size="14" lengthAdjust="spacing" textLength="114" x="382.5" y="236.2129">AddDroneModelUI</text><polygon fill="#181818" points="422.5,277.0176,432.5,281.0176,422.5,285.0176,426.5,281.0176" style="stroke:#181818;stroke-width:1.0;"/><line style="stroke:#181818;stroke-width:1.0;" x1="276" x2="428.5" y1="281.0176" y2="281.0176"/><text fill="#000000" font-family="sans-serif" font-size="13" lengthAdjust="spacing" textLength="38" x="283" y="275.7549">show()</text><polygon fill="#181818" points="756.5,308.3086,766.5,312.3086,756.5,316.3086,760.5,312.3086" style="stroke:#181818;stroke-width:1.0;"/><line style="stroke:#181818;stroke-width:1.0;" x1="444.5" x2="762.5" y1="312.3086" y2="312.3086"/><text fill="#000000" font-family="sans-serif" font-size="13" lengthAdjust="spacing" textLength="44" x="451.5" y="307.0459">create()</text><rect fill="#E2E2F0" height="51.2422" rx="2.5" ry="2.5" style="stroke:#181818;stroke-width:0.5;" width="178" x="768.5" y="289.0176"/><text fill="#000000" font-family="sans-serif" font-size="14" font-style="italic" lengthAdjust="spacing" textLength="84" x="815.5" y="311.125">&#171;application&#187;</text><text fill="#000000" font-family="sans-serif" font-size="14" lengthAdjust="spacing" textLength="164" x="775.5" y="329.7461">AddDroneModelController</text><polygon fill="#181818" points="61.5,370.5508,51.5,374.5508,61.5,378.5508,57.5,374.5508" style="stroke:#181818;stroke-width:1.0;"/><line style="stroke:#181818;stroke-width:1.0;stroke-dasharray:2.0,2.0;" x1="55.5" x2="438.5" y1="374.5508" y2="374.5508"/><text fill="#000000" font-family="sans-serif" font-size="13" lengthAdjust="spacing" textLength="360" x="67.5" y="369.2881">Request Drone Model Information (Model Name, Manufacturer)</text><polygon fill="#181818" points="422.5,401.8418,432.5,405.8418,422.5,409.8418,426.5,405.8418" style="stroke:#181818;stroke-width:1.0;"/><line style="stroke:#181818;stroke-width:1.0;" x1="50.5" x2="428.5" y1="405.8418" y2="405.8418"/><text fill="#000000" font-family="sans-serif" font-size="13" lengthAdjust="spacing" textLength="186" x="57.5" y="400.5791">Provide Drone Model Information</text><polygon fill="#181818" points="840.5,433.1328,850.5,437.1328,840.5,441.1328,844.5,437.1328" style="stroke:#181818;stroke-width:1.0;"/><line style="stroke:#181818;stroke-width:1.0;" x1="444.5" x2="846.5" y1="437.1328" y2="437.1328"/><text fill="#000000" font-family="sans-serif" font-size="13" lengthAdjust="spacing" textLength="389" x="451.5" y="431.8701">addDroneModel(modelName, manufacturer, programmingLanguage)</text><polygon fill="#181818" points="1087.5,464.4238,1097.5,468.4238,1087.5,472.4238,1091.5,468.4238" style="stroke:#181818;stroke-width:1.0;"/><line style="stroke:#181818;stroke-width:1.0;" x1="862.5" x2="1093.5" y1="468.4238" y2="468.4238"/><text fill="#000000" font-family="sans-serif" font-size="13" lengthAdjust="spacing" textLength="213" x="869.5" y="463.1611">ensureAuthenticatedUserHasAnyOf()</text><rect fill="#E2E2F0" height="51.2422" rx="2.5" ry="2.5" style="stroke:#181818;stroke-width:0.5;" width="143" x="1099.5" y="445.1328"/><text fill="#000000" font-family="sans-serif" font-size="14" font-style="italic" lengthAdjust="spacing" textLength="44" x="1149" y="467.2402">&#171;auth&#187;</text><text fill="#000000" font-family="sans-serif" font-size="14" lengthAdjust="spacing" textLength="129" x="1106.5" y="485.8613">AuthorizationService</text><polygon fill="#181818" points="1440.5,526.666,1450.5,530.666,1440.5,534.666,1444.5,530.666" style="stroke:#181818;stroke-width:1.0;"/><line style="stroke:#181818;stroke-width:1.0;" x1="862.5" x2="1446.5" y1="530.666" y2="530.666"/><text fill="#000000" font-family="sans-serif" font-size="13" lengthAdjust="spacing" textLength="571" x="869.5" y="525.4033">registerNewDroneModel(modelName, manufacturer,programmingLanguage, createdOn, createdBy);</text><polygon fill="#181818" points="1565.5,557.957,1575.5,561.957,1565.5,565.957,1569.5,561.957" style="stroke:#181818;stroke-width:1.0;"/><line style="stroke:#181818;stroke-width:1.0;" x1="1462.5" x2="1571.5" y1="561.957" y2="561.957"/><text fill="#000000" font-family="sans-serif" font-size="13" lengthAdjust="spacing" textLength="44" x="1469.5" y="556.6943">create()</text><rect fill="#E2E2F0" height="51.2422" rx="2.5" ry="2.5" style="stroke:#181818;stroke-width:0.5;" width="135" x="1577.5" y="538.666"/><text fill="#000000" font-family="sans-serif" font-size="14" font-style="italic" lengthAdjust="spacing" textLength="62" x="1614" y="560.7734">&#171;domain&#187;</text><text fill="#000000" font-family="sans-serif" font-size="14" lengthAdjust="spacing" textLength="121" x="1584.5" y="579.3945">DroneModelBuilder</text><polygon fill="#181818" points="1628,620.1992,1638,624.1992,1628,628.1992,1632,624.1992" style="stroke:#181818;stroke-width:1.0;"/><line style="stroke:#181818;stroke-width:1.0;" x1="1462.5" x2="1634" y1="624.1992" y2="624.1992"/><text fill="#000000" font-family="sans-serif" font-size="13" lengthAdjust="spacing" textLength="35" x="1469.5" y="618.9365">build()</text><polygon fill="#181818" points="2196,651.4902,2206,655.4902,2196,659.4902,2200,655.4902" style="stroke:#181818;stroke-width:1.0;"/><line style="stroke:#181818;stroke-width:1.0;" x1="1650" x2="2202" y1="655.4902" y2="655.4902"/><text fill="#000000" font-family="sans-serif" font-size="13" lengthAdjust="spacing" textLength="534" x="1657" y="650.2275">new DroneModel(modelName, manufacturer, programmingLanguage, createdOn, createdBy);</text><rect fill="#E2E2F0" height="51.2422" rx="2.5" ry="2.5" style="stroke:#181818;stroke-width:0.5;" width="91" x="2208" y="632.1992"/><text fill="#000000" font-family="sans-serif" font-size="14" font-style="italic" lengthAdjust="spacing" textLength="62" x="2222.5" y="654.3066">&#171;domain&#187;</text><text fill="#000000" font-family="sans-serif" font-size="14" lengthAdjust="spacing" textLength="77" x="2215" y="672.9277">DroneModel</text><polygon fill="#181818" points="1661,713.7324,1651,717.7324,1661,721.7324,1657,717.7324" style="stroke:#181818;stroke-width:1.0;"/><line style="stroke:#181818;stroke-width:1.0;stroke-dasharray:2.0,2.0;" x1="1655" x2="2252.5" y1="717.7324" y2="717.7324"/><text fill="#000000" font-family="sans-serif" font-size="13" lengthAdjust="spacing" textLength="92" x="1667" y="712.4697">newDroneModel</text><polygon fill="#181818" points="1473.5,745.0234,1463.5,749.0234,1473.5,753.0234,1469.5,749.0234" style="stroke:#181818;stroke-width:1.0;"/><line style="stroke:#181818;stroke-width:1.0;stroke-dasharray:2.0,2.0;" x1="1467.5" x2="1644" y1="749.0234" y2="749.0234"/><text fill="#000000" font-family="sans-serif" font-size="13" lengthAdjust="spacing" textLength="92" x="1479.5" y="743.7607">newDroneModel</text><polygon fill="#181818" points="2371.5,776.3145,2381.5,780.3145,2371.5,784.3145,2375.5,780.3145" style="stroke:#181818;stroke-width:1.0;"/><line style="stroke:#181818;stroke-width:1.0;" x1="1462.5" x2="2377.5" y1="780.3145" y2="780.3145"/><text fill="#000000" font-family="sans-serif" font-size="13" lengthAdjust="spacing" textLength="126" x="1469.5" y="775.0518">save(newDroneModel)</text><polygon fill="#181818" points="2494.5,807.6055,2504.5,811.6055,2494.5,815.6055,2498.5,811.6055" style="stroke:#181818;stroke-width:1.0;"/><line style="stroke:#181818;stroke-width:1.0;" x1="2393.5" x2="2500.5" y1="811.6055" y2="811.6055"/><text fill="#000000" font-family="sans-serif" font-size="13" lengthAdjust="spacing" textLength="34" x="2400.5" y="806.3428">save()</text><polygon fill="#181818" points="2404.5,821.6055,2394.5,825.6055,2404.5,829.6055,2400.5,825.6055" style="stroke:#181818;stroke-width:1.0;"/><line style="stroke:#181818;stroke-width:1.0;stroke-dasharray:2.0,2.0;" x1="2398.5" x2="2510.5" y1="825.6055" y2="825.6055"/><polygon fill="#181818" points="1473.5,835.6055,1463.5,839.6055,1473.5,843.6055,1469.5,839.6055" style="stroke:#181818;stroke-width:1.0;"/><line style="stroke:#181818;stroke-width:1.0;stroke-dasharray:2.0,2.0;" x1="1467.5" x2="2387.5" y1="839.6055" y2="839.6055"/><polygon fill="#181818" points="873.5,849.6055,863.5,853.6055,873.5,857.6055,869.5,853.6055" style="stroke:#181818;stroke-width:1.0;"/><line style="stroke:#181818;stroke-width:1.0;stroke-dasharray:2.0,2.0;" x1="867.5" x2="1456.5" y1="853.6055" y2="853.6055"/><polygon fill="#181818" points="455.5,863.6055,445.5,867.6055,455.5,871.6055,451.5,867.6055" style="stroke:#181818;stroke-width:1.0;"/><line style="stroke:#181818;stroke-width:1.0;stroke-dasharray:2.0,2.0;" x1="449.5" x2="856.5" y1="867.6055" y2="867.6055"/><polygon fill="#181818" points="56.5,894.8965,46.5,898.8965,56.5,902.8965,52.5,898.8965" style="stroke:#181818;stroke-width:1.0;"/><line style="stroke:#181818;stroke-width:1.0;stroke-dasharray:2.0,2.0;" x1="50.5" x2="438.5" y1="898.8965" y2="898.8965"/><text fill="#000000" font-family="sans-serif" font-size="13" lengthAdjust="spacing" textLength="162" x="62.5" y="893.6338">Confirm Drone Model Added</text><!--SRC=[hLRRRkCW47tdAr2UaYZvWMmLAMqVDjAsNRMR3w3s946omOjnekpNxu0T6nnCl1TUR0Fdp9dX0DPSPq0_u6S58W7wpDb1iPmGbcYfwEHPIG7q1oJ72MKbtPXUKZ2bUS8B9ZITRDBKJdgHAMGupgMuJiLN-l1GA2X1Q6O-r-i8UBUrmDtsJq1FKcWbimoK1NUVICAA8kD9cAFIHwduBplu0Uh44wXb1mOC5NRtEJeHBqom0-GesAMAZCV5TS37YcTfazfDBvAaCcSyWky1Ho3UeP0bnrM-zB3T0BAezWEPKgRP9oi1QPgt6jfyM2_n4zFGs8VO1rsk6u_CvolwfC1CO3IrXijDH1-84otIc0gXk-ryJbSqiJYlVqNBepnFPuIaq2UWsDg-tPOGD1k2EjSuf8R13DSwfLhHTxDBIbqNXTOLtOgzLBbTHZgjkrvP3WkAQrxjCLQbGCrSAIPiMm4ZzxkI9vx242qXjx9fq_hoKJnpTyVK5h8Mb3k25hHGqcpqd8l3DoOE5Vfprj9wyJfsuaqmpObioXJOExQW84gCQePn2nZJGxehGNrbvKPStlQcqdrcT-q2jFUanFRUYYeuy5A3UeNpY5e5IhLeF9A-YVRryJBxSgEgJI8Yw3ONqs8PU0asfu7ltF_1Y7oVvcs0Bf1Q0mmdv4kunl02cvD0m9d-fO47LsLGJoY9o6pd95qEL4oubXfcSkmzAdAeSdTjxciXetMqo_XlDd9k33oJsGccdg0P6MkhZYXM8K-Q4zjekjvGZOvPdAQJq5vXz4vh8om7IX1dS9TXNCnmgd5BZ7V0lOf7FU3TI6HKl15dedk-sukJ3B06OhlNE7e0P-ovohqB5tyg8IK1EWpa_qVW7ynl]--></g></svg>