<svg xmlns="http://www.w3.org/2000/svg" xmlns:xlink="http://www.w3.org/1999/xlink" contentStyleType="text/css" height="1807px" preserveAspectRatio="none" style="width:3253px;height:1807px;background:#FFFFFF;" version="1.1" viewBox="0 0 3253 1807" width="3253px" zoomAndPan="magnify"><title>Sequence Diagram - US230</title><defs/><g><text fill="#000000" font-family="sans-serif" font-size="14" font-weight="bold" lengthAdjust="spacing" textLength="181.2959" x="1537.4827" y="30.1074">Sequence Diagram - US230</text><rect fill="#FFFFFF" height="1581.9199" style="stroke:#181818;stroke-width:1.0;" width="10" x="84.0171" y="133.2422"/><rect fill="#FFFFFF" height="93.5332" style="stroke:#181818;stroke-width:1.0;" width="10" x="287.876" y="156.5332"/><rect fill="#FFFFFF" height="423.3945" style="stroke:#181818;stroke-width:1.0;" width="10" x="509.6992" y="250.0664"/><rect fill="#FFFFFF" height="31.291" style="stroke:#181818;stroke-width:1.0;" width="10" x="509.6992" y="704.752"/><rect fill="#FFFFFF" height="74.873" style="stroke:#181818;stroke-width:1.0;" width="10" x="509.6992" y="767.334"/><rect fill="#FFFFFF" height="438.123" style="stroke:#181818;stroke-width:1.0;" width="10" x="509.6992" y="873.498"/><rect fill="#FFFFFF" height="336.959" style="stroke:#181818;stroke-width:1.0;" width="10" x="509.6992" y="1369.2031"/><rect fill="#FFFFFF" height="281.2793" style="stroke:#181818;stroke-width:1.0;" width="10" x="1032.2549" y="343.5996"/><rect fill="#FFFFFF" height="212.4551" style="stroke:#181818;stroke-width:1.0;" width="10" x="1032.2549" y="993.6621"/><rect fill="#FFFFFF" height="212.4551" style="stroke:#181818;stroke-width:1.0;" width="10" x="1032.2549" y="1462.416"/><rect fill="#FFFFFF" height="156.4551" style="stroke:#181818;stroke-width:1.0;" width="10" x="1710.394" y="437.1328"/><rect fill="#FFFFFF" height="167.1641" style="stroke:#181818;stroke-width:1.0;" width="10" x="1912.9761" y="1024.9531"/><rect fill="#FFFFFF" height="167.1641" style="stroke:#181818;stroke-width:1.0;" width="10" x="2128.7993" y="1493.707"/><rect fill="#FFFFFF" height="31.291" style="stroke:#181818;stroke-width:1.0;" width="10" x="2356.6938" y="1056.2441"/><rect fill="#FFFFFF" height="31.291" style="stroke:#181818;stroke-width:1.0;" width="10" x="2635.4668" y="1524.998"/><rect fill="#FFFFFF" height="93.873" style="stroke:#181818;stroke-width:1.0;" width="10" x="2766.8491" y="468.4238"/><rect fill="#FFFFFF" height="59.291" style="stroke:#181818;stroke-width:1.0;" width="10" x="2907.9487" y="1118.8262"/><rect fill="#FFFFFF" height="59.291" style="stroke:#181818;stroke-width:1.0;" width="10" x="3062.2896" y="1587.5801"/><rect fill="#FFFFFF" height="31.291" style="stroke:#181818;stroke-width:1.0;" width="10" x="3189.2959" y="499.7148"/><rect fill="#FFFFFF" height="14" style="stroke:#181818;stroke-width:1.0;" width="10" x="3189.2959" y="1150.1172"/><rect fill="#FFFFFF" height="14" style="stroke:#181818;stroke-width:1.0;" width="10" x="3189.2959" y="1618.8711"/><rect fill="none" height="455.4141" style="stroke:#000000;stroke-width:1.5;" width="3237.2612" x="10" y="782.334"/><rect fill="none" height="342.25" style="stroke:#000000;stroke-width:1.5;" width="3217.2612" x="20" y="888.498"/><rect fill="none" height="180.377" style="stroke:#000000;stroke-width:1.5;" width="608.3472" x="10" y="1251.748"/><rect fill="none" height="98.5039" style="stroke:#000000;stroke-width:1.5;" width="588.3472" x="20" y="1326.6211"/><line style="stroke:#181818;stroke-width:0.5;stroke-dasharray:5.0,5.0;" x1="89" x2="89" y1="123.2422" y2="1724.1621"/><line style="stroke:#181818;stroke-width:0.5;stroke-dasharray:5.0,5.0;" x1="292.7729" x2="292.7729" y1="123.2422" y2="1724.1621"/><line style="stroke:#181818;stroke-width:0.5;stroke-dasharray:5.0,5.0;" x1="514.0513" x2="514.0513" y1="205.6543" y2="1724.1621"/><line style="stroke:#181818;stroke-width:0.5;stroke-dasharray:5.0,5.0;" x1="1036.2622" x2="1036.2622" y1="299.1875" y2="1724.1621"/><line style="stroke:#181818;stroke-width:0.5;stroke-dasharray:5.0,5.0;" x1="1532.4536" x2="1532.4536" y1="392.7207" y2="1724.1621"/><line style="stroke:#181818;stroke-width:0.5;stroke-dasharray:5.0,5.0;" x1="1714.853" x2="1714.853" y1="123.2422" y2="1724.1621"/><line style="stroke:#181818;stroke-width:0.5;stroke-dasharray:5.0,5.0;" x1="1917.9351" x2="1917.9351" y1="123.2422" y2="1724.1621"/><line style="stroke:#181818;stroke-width:0.5;stroke-dasharray:5.0,5.0;" x1="2133.0171" x2="2133.0171" y1="123.2422" y2="1724.1621"/><line style="stroke:#181818;stroke-width:0.5;stroke-dasharray:5.0,5.0;" x1="2360.9492" x2="2360.9492" y1="123.2422" y2="1724.1621"/><line style="stroke:#181818;stroke-width:0.5;stroke-dasharray:5.0,5.0;" x1="2639.8843" x2="2639.8843" y1="123.2422" y2="1724.1621"/><line style="stroke:#181818;stroke-width:0.5;stroke-dasharray:5.0,5.0;" x1="2771.0493" x2="2771.0493" y1="123.2422" y2="1724.1621"/><line style="stroke:#181818;stroke-width:0.5;stroke-dasharray:5.0,5.0;" x1="2912.6489" x2="2912.6489" y1="123.2422" y2="1724.1621"/><line style="stroke:#181818;stroke-width:0.5;stroke-dasharray:5.0,5.0;" x1="3067.2485" x2="3067.2485" y1="123.2422" y2="1724.1621"/><line style="stroke:#181818;stroke-width:0.5;stroke-dasharray:5.0,5.0;" x1="3193.3306" x2="3193.3306" y1="123.2422" y2="1724.1621"/><text fill="#000000" font-family="sans-serif" font-size="14" lengthAdjust="spacing" textLength="112.0342" x="30" y="119.7285">CRM Collaborator</text><ellipse cx="89.0171" cy="53.1211" fill="#E3E3E3" rx="8" ry="8" style="stroke:#181818;stroke-width:0.5;"/><path d="M89.0171,61.1211 L89.0171,88.1211 M76.0171,69.1211 L102.0171,69.1211 M89.0171,88.1211 L76.0171,103.1211 M89.0171,88.1211 L102.0171,103.1211 " fill="none" style="stroke:#181818;stroke-width:0.5;"/><text fill="#000000" font-family="sans-serif" font-size="14" lengthAdjust="spacing" textLength="112.0342" x="30" y="1738.2695">CRM Collaborator</text><ellipse cx="89.0171" cy="1750.2832" fill="#E3E3E3" rx="8" ry="8" style="stroke:#181818;stroke-width:0.5;"/><path d="M89.0171,1758.2832 L89.0171,1785.2832 M76.0171,1766.2832 L102.0171,1766.2832 M89.0171,1785.2832 L76.0171,1800.2832 M89.0171,1785.2832 L102.0171,1800.2832 " fill="none" style="stroke:#181818;stroke-width:0.5;"/><rect fill="#E3E3E3" height="51.2422" rx="2.5" ry="2.5" style="stroke:#181818;stroke-width:0.5;" width="192.2061" x="196.7729" y="71"/><text fill="#000000" font-family="sans-serif" font-size="14" font-style="italic" lengthAdjust="spacing" textLength="92.627" x="246.5625" y="93.1074">&#171;presentation&#187;</text><text fill="#000000" font-family="sans-serif" font-size="14" lengthAdjust="spacing" textLength="178.2061" x="203.7729" y="111.7285">RegisterShowRequestAction</text><rect fill="#E3E3E3" height="51.2422" rx="2.5" ry="2.5" style="stroke:#181818;stroke-width:0.5;" width="192.2061" x="196.7729" y="1723.1621"/><text fill="#000000" font-family="sans-serif" font-size="14" font-style="italic" lengthAdjust="spacing" textLength="92.627" x="246.5625" y="1745.2695">&#171;presentation&#187;</text><text fill="#000000" font-family="sans-serif" font-size="14" lengthAdjust="spacing" textLength="178.2061" x="203.7729" y="1763.8906">RegisterShowRequestAction</text><rect fill="#E3E3E3" height="51.2422" rx="2.5" ry="2.5" style="stroke:#181818;stroke-width:0.5;" width="167.2959" x="431.0513" y="1723.1621"/><text fill="#000000" font-family="sans-serif" font-size="14" font-style="italic" lengthAdjust="spacing" textLength="92.627" x="468.3857" y="1745.2695">&#171;presentation&#187;</text><text fill="#000000" font-family="sans-serif" font-size="14" lengthAdjust="spacing" textLength="153.2959" x="438.0513" y="1763.8906">RegisterShowRequestUI</text><rect fill="#E3E3E3" height="51.2422" rx="2.5" ry="2.5" style="stroke:#181818;stroke-width:0.5;" width="213.9854" x="930.2622" y="1723.1621"/><text fill="#000000" font-family="sans-serif" font-size="14" font-style="italic" lengthAdjust="spacing" textLength="82.5098" x="996" y="1745.2695">&#171;application&#187;</text><text fill="#000000" font-family="sans-serif" font-size="14" lengthAdjust="spacing" textLength="199.9854" x="937.2622" y="1763.8906">RegisterShowRequestController</text><rect fill="#E3E3E3" height="51.2422" rx="2.5" ry="2.5" style="stroke:#181818;stroke-width:0.5;" width="142.3994" x="1461.4536" y="1723.1621"/><text fill="#000000" font-family="sans-serif" font-size="14" font-style="italic" lengthAdjust="spacing" textLength="42.8203" x="1511.2432" y="1745.2695">&#171;auth&#187;</text><text fill="#000000" font-family="sans-serif" font-size="14" lengthAdjust="spacing" textLength="128.3994" x="1468.4536" y="1763.8906">AuthorizationService</text><rect fill="#E3E3E3" height="51.2422" rx="2.5" ry="2.5" style="stroke:#181818;stroke-width:0.5;" width="203.082" x="1613.853" y="71"/><text fill="#000000" font-family="sans-serif" font-size="14" font-style="italic" lengthAdjust="spacing" textLength="82.5098" x="1674.1392" y="93.1074">&#171;application&#187;</text><text fill="#000000" font-family="sans-serif" font-size="14" lengthAdjust="spacing" textLength="189.082" x="1620.853" y="111.7285">CustomerManagementService</text><rect fill="#E3E3E3" height="51.2422" rx="2.5" ry="2.5" style="stroke:#181818;stroke-width:0.5;" width="203.082" x="1613.853" y="1723.1621"/><text fill="#000000" font-family="sans-serif" font-size="14" font-style="italic" lengthAdjust="spacing" textLength="82.5098" x="1674.1392" y="1745.2695">&#171;application&#187;</text><text fill="#000000" font-family="sans-serif" font-size="14" lengthAdjust="spacing" textLength="189.082" x="1620.853" y="1763.8906">CustomerManagementService</text><rect fill="#E3E3E3" height="51.2422" rx="2.5" ry="2.5" style="stroke:#181818;stroke-width:0.5;" width="182.082" x="1826.9351" y="71"/><text fill="#000000" font-family="sans-serif" font-size="14" font-style="italic" lengthAdjust="spacing" textLength="82.5098" x="1876.7212" y="93.1074">&#171;application&#187;</text><text fill="#000000" font-family="sans-serif" font-size="14" lengthAdjust="spacing" textLength="168.082" x="1833.9351" y="111.7285">FigureManagementService</text><rect fill="#E3E3E3" height="51.2422" rx="2.5" ry="2.5" style="stroke:#181818;stroke-width:0.5;" width="182.082" x="1826.9351" y="1723.1621"/><text fill="#000000" font-family="sans-serif" font-size="14" font-style="italic" lengthAdjust="spacing" textLength="82.5098" x="1876.7212" y="1745.2695">&#171;application&#187;</text><text fill="#000000" font-family="sans-serif" font-size="14" lengthAdjust="spacing" textLength="168.082" x="1833.9351" y="1763.8906">FigureManagementService</text><rect fill="#E3E3E3" height="51.2422" rx="2.5" ry="2.5" style="stroke:#181818;stroke-width:0.5;" width="229.5645" x="2019.0171" y="71"/><text fill="#000000" font-family="sans-serif" font-size="14" font-style="italic" lengthAdjust="spacing" textLength="82.5098" x="2092.5444" y="93.1074">&#171;application&#187;</text><text fill="#000000" font-family="sans-serif" font-size="14" lengthAdjust="spacing" textLength="215.5645" x="2026.0171" y="111.7285">ShowRequestManagementService</text><rect fill="#E3E3E3" height="51.2422" rx="2.5" ry="2.5" style="stroke:#181818;stroke-width:0.5;" width="229.5645" x="2019.0171" y="1723.1621"/><text fill="#000000" font-family="sans-serif" font-size="14" font-style="italic" lengthAdjust="spacing" textLength="82.5098" x="2092.5444" y="1745.2695">&#171;application&#187;</text><text fill="#000000" font-family="sans-serif" font-size="14" lengthAdjust="spacing" textLength="215.5645" x="2026.0171" y="1763.8906">ShowRequestManagementService</text><rect fill="#E3E3E3" height="51.2422" rx="2.5" ry="2.5" style="stroke:#181818;stroke-width:0.5;" width="75.4893" x="2323.9492" y="71"/><text fill="#000000" font-family="sans-serif" font-size="14" font-style="italic" lengthAdjust="spacing" textLength="61.4893" x="2330.9492" y="93.1074">&#171;domain&#187;</text><text fill="#000000" font-family="sans-serif" font-size="14" lengthAdjust="spacing" textLength="39.6826" x="2341.8525" y="111.7285">Figure</text><rect fill="#E3E3E3" height="51.2422" rx="2.5" ry="2.5" style="stroke:#181818;stroke-width:0.5;" width="75.4893" x="2323.9492" y="1723.1621"/><text fill="#000000" font-family="sans-serif" font-size="14" font-style="italic" lengthAdjust="spacing" textLength="61.4893" x="2330.9492" y="1745.2695">&#171;domain&#187;</text><text fill="#000000" font-family="sans-serif" font-size="14" lengthAdjust="spacing" textLength="39.6826" x="2341.8525" y="1763.8906">Figure</text><rect fill="#E3E3E3" height="51.2422" rx="2.5" ry="2.5" style="stroke:#181818;stroke-width:0.5;" width="101.165" x="2589.8843" y="71"/><text fill="#000000" font-family="sans-serif" font-size="14" font-style="italic" lengthAdjust="spacing" textLength="61.4893" x="2609.7222" y="93.1074">&#171;domain&#187;</text><text fill="#000000" font-family="sans-serif" font-size="14" lengthAdjust="spacing" textLength="87.165" x="2596.8843" y="111.7285">ShowRequest</text><rect fill="#E3E3E3" height="51.2422" rx="2.5" ry="2.5" style="stroke:#181818;stroke-width:0.5;" width="101.165" x="2589.8843" y="1723.1621"/><text fill="#000000" font-family="sans-serif" font-size="14" font-style="italic" lengthAdjust="spacing" textLength="61.4893" x="2609.7222" y="1745.2695">&#171;domain&#187;</text><text fill="#000000" font-family="sans-serif" font-size="14" lengthAdjust="spacing" textLength="87.165" x="2596.8843" y="1763.8906">ShowRequest</text><rect fill="#E3E3E3" height="51.2422" rx="2.5" ry="2.5" style="stroke:#181818;stroke-width:0.5;" width="141.5996" x="2701.0493" y="71"/><text fill="#000000" font-family="sans-serif" font-size="14" font-style="italic" lengthAdjust="spacing" textLength="77.041" x="2733.3286" y="93.1074">&#171;repository&#187;</text><text fill="#000000" font-family="sans-serif" font-size="14" lengthAdjust="spacing" textLength="127.5996" x="2708.0493" y="111.7285">CustomerRepository</text><rect fill="#E3E3E3" height="51.2422" rx="2.5" ry="2.5" style="stroke:#181818;stroke-width:0.5;" width="141.5996" x="2701.0493" y="1723.1621"/><text fill="#000000" font-family="sans-serif" font-size="14" font-style="italic" lengthAdjust="spacing" textLength="77.041" x="2733.3286" y="1745.2695">&#171;repository&#187;</text><text fill="#000000" font-family="sans-serif" font-size="14" lengthAdjust="spacing" textLength="127.5996" x="2708.0493" y="1763.8906">CustomerRepository</text><rect fill="#E3E3E3" height="51.2422" rx="2.5" ry="2.5" style="stroke:#181818;stroke-width:0.5;" width="120.5996" x="2852.6489" y="71"/><text fill="#000000" font-family="sans-serif" font-size="14" font-style="italic" lengthAdjust="spacing" textLength="77.041" x="2874.4282" y="93.1074">&#171;repository&#187;</text><text fill="#000000" font-family="sans-serif" font-size="14" lengthAdjust="spacing" textLength="106.5996" x="2859.6489" y="111.7285">FigureRepository</text><rect fill="#E3E3E3" height="51.2422" rx="2.5" ry="2.5" style="stroke:#181818;stroke-width:0.5;" width="120.5996" x="2852.6489" y="1723.1621"/><text fill="#000000" font-family="sans-serif" font-size="14" font-style="italic" lengthAdjust="spacing" textLength="77.041" x="2874.4282" y="1745.2695">&#171;repository&#187;</text><text fill="#000000" font-family="sans-serif" font-size="14" lengthAdjust="spacing" textLength="106.5996" x="2859.6489" y="1763.8906">FigureRepository</text><rect fill="#E3E3E3" height="51.2422" rx="2.5" ry="2.5" style="stroke:#181818;stroke-width:0.5;" width="168.082" x="2983.2485" y="71"/><text fill="#000000" font-family="sans-serif" font-size="14" font-style="italic" lengthAdjust="spacing" textLength="77.041" x="3028.769" y="93.1074">&#171;repository&#187;</text><text fill="#000000" font-family="sans-serif" font-size="14" lengthAdjust="spacing" textLength="154.082" x="2990.2485" y="111.7285">ShowRequestRepository</text><rect fill="#E3E3E3" height="51.2422" rx="2.5" ry="2.5" style="stroke:#181818;stroke-width:0.5;" width="168.082" x="2983.2485" y="1723.1621"/><text fill="#000000" font-family="sans-serif" font-size="14" font-style="italic" lengthAdjust="spacing" textLength="77.041" x="3028.769" y="1745.2695">&#171;repository&#187;</text><text fill="#000000" font-family="sans-serif" font-size="14" lengthAdjust="spacing" textLength="154.082" x="2990.2485" y="1763.8906">ShowRequestRepository</text><text fill="#000000" font-family="sans-serif" font-size="14" lengthAdjust="spacing" textLength="59.9307" x="3161.3306" y="119.7285">Database</text><path d="M3176.2959,68.6211 C3176.2959,58.6211 3194.2959,58.6211 3194.2959,58.6211 C3194.2959,58.6211 3212.2959,58.6211 3212.2959,68.6211 L3212.2959,94.6211 C3212.2959,104.6211 3194.2959,104.6211 3194.2959,104.6211 C3194.2959,104.6211 3176.2959,104.6211 3176.2959,94.6211 L3176.2959,68.6211 " fill="#E3E3E3" style="stroke:#181818;stroke-width:1.5;"/><path d="M3176.2959,68.6211 C3176.2959,78.6211 3194.2959,78.6211 3194.2959,78.6211 C3194.2959,78.6211 3212.2959,78.6211 3212.2959,68.6211 " fill="none" style="stroke:#181818;stroke-width:1.5;"/><text fill="#000000" font-family="sans-serif" font-size="14" lengthAdjust="spacing" textLength="59.9307" x="3161.3306" y="1738.2695">Database</text><path d="M3176.2959,1751.7832 C3176.2959,1741.7832 3194.2959,1741.7832 3194.2959,1741.7832 C3194.2959,1741.7832 3212.2959,1741.7832 3212.2959,1751.7832 L3212.2959,1777.7832 C3212.2959,1787.7832 3194.2959,1787.7832 3194.2959,1787.7832 C3194.2959,1787.7832 3176.2959,1787.7832 3176.2959,1777.7832 L3176.2959,1751.7832 " fill="#E3E3E3" style="stroke:#181818;stroke-width:1.5;"/><path d="M3176.2959,1751.7832 C3176.2959,1761.7832 3194.2959,1761.7832 3194.2959,1761.7832 C3194.2959,1761.7832 3212.2959,1761.7832 3212.2959,1751.7832 " fill="none" style="stroke:#181818;stroke-width:1.5;"/><rect fill="#FFFFFF" height="1581.9199" style="stroke:#181818;stroke-width:1.0;" width="10" x="84.0171" y="133.2422"/><rect fill="#FFFFFF" height="93.5332" style="stroke:#181818;stroke-width:1.0;" width="10" x="287.876" y="156.5332"/><rect fill="#FFFFFF" height="423.3945" style="stroke:#181818;stroke-width:1.0;" width="10" x="509.6992" y="250.0664"/><rect fill="#FFFFFF" height="31.291" style="stroke:#181818;stroke-width:1.0;" width="10" x="509.6992" y="704.752"/><rect fill="#FFFFFF" height="74.873" style="stroke:#181818;stroke-width:1.0;" width="10" x="509.6992" y="767.334"/><rect fill="#FFFFFF" height="438.123" style="stroke:#181818;stroke-width:1.0;" width="10" x="509.6992" y="873.498"/><rect fill="#FFFFFF" height="336.959" style="stroke:#181818;stroke-width:1.0;" width="10" x="509.6992" y="1369.2031"/><rect fill="#FFFFFF" height="281.2793" style="stroke:#181818;stroke-width:1.0;" width="10" x="1032.2549" y="343.5996"/><rect fill="#FFFFFF" height="212.4551" style="stroke:#181818;stroke-width:1.0;" width="10" x="1032.2549" y="993.6621"/><rect fill="#FFFFFF" height="212.4551" style="stroke:#181818;stroke-width:1.0;" width="10" x="1032.2549" y="1462.416"/><rect fill="#FFFFFF" height="156.4551" style="stroke:#181818;stroke-width:1.0;" width="10" x="1710.394" y="437.1328"/><rect fill="#FFFFFF" height="167.1641" style="stroke:#181818;stroke-width:1.0;" width="10" x="1912.9761" y="1024.9531"/><rect fill="#FFFFFF" height="167.1641" style="stroke:#181818;stroke-width:1.0;" width="10" x="2128.7993" y="1493.707"/><rect fill="#FFFFFF" height="31.291" style="stroke:#181818;stroke-width:1.0;" width="10" x="2356.6938" y="1056.2441"/><rect fill="#FFFFFF" height="31.291" style="stroke:#181818;stroke-width:1.0;" width="10" x="2635.4668" y="1524.998"/><rect fill="#FFFFFF" height="93.873" style="stroke:#181818;stroke-width:1.0;" width="10" x="2766.8491" y="468.4238"/><rect fill="#FFFFFF" height="59.291" style="stroke:#181818;stroke-width:1.0;" width="10" x="2907.9487" y="1118.8262"/><rect fill="#FFFFFF" height="59.291" style="stroke:#181818;stroke-width:1.0;" width="10" x="3062.2896" y="1587.5801"/><rect fill="#FFFFFF" height="31.291" style="stroke:#181818;stroke-width:1.0;" width="10" x="3189.2959" y="499.7148"/><rect fill="#FFFFFF" height="14" style="stroke:#181818;stroke-width:1.0;" width="10" x="3189.2959" y="1150.1172"/><rect fill="#FFFFFF" height="14" style="stroke:#181818;stroke-width:1.0;" width="10" x="3189.2959" y="1618.8711"/><polygon fill="#181818" points="275.876,152.5332,285.876,156.5332,275.876,160.5332,279.876,156.5332" style="stroke:#181818;stroke-width:1.0;"/><line style="stroke:#181818;stroke-width:1.0;" x1="94.0171" x2="281.876" y1="156.5332" y2="156.5332"/><text fill="#000000" font-family="sans-serif" font-size="13" lengthAdjust="spacing" textLength="174.8589" x="101.0171" y="151.2705">Ask to register a show request</text><polygon fill="#181818" points="419.0513,183.8242,429.0513,187.8242,419.0513,191.8242,423.0513,187.8242" style="stroke:#181818;stroke-width:1.0;"/><line style="stroke:#181818;stroke-width:1.0;" x1="297.876" x2="425.0513" y1="187.8242" y2="187.8242"/><text fill="#000000" font-family="sans-serif" font-size="13" lengthAdjust="spacing" textLength="36.1309" x="304.876" y="182.5615">create</text><rect fill="#E3E3E3" height="51.2422" rx="2.5" ry="2.5" style="stroke:#181818;stroke-width:0.5;" width="167.2959" x="431.0513" y="164.5332"/><text fill="#000000" font-family="sans-serif" font-size="14" font-style="italic" lengthAdjust="spacing" textLength="92.627" x="468.3857" y="186.6406">&#171;presentation&#187;</text><text fill="#000000" font-family="sans-serif" font-size="14" lengthAdjust="spacing" textLength="153.2959" x="438.0513" y="205.2617">RegisterShowRequestUI</text><polygon fill="#181818" points="497.6992,246.0664,507.6992,250.0664,497.6992,254.0664,501.6992,250.0664" style="stroke:#181818;stroke-width:1.0;"/><line style="stroke:#181818;stroke-width:1.0;" x1="292.876" x2="503.6992" y1="250.0664" y2="250.0664"/><text fill="#000000" font-family="sans-serif" font-size="13" lengthAdjust="spacing" textLength="39.0063" x="299.876" y="244.8037">show()</text><polygon fill="#181818" points="918.2622,277.3574,928.2622,281.3574,918.2622,285.3574,922.2622,281.3574" style="stroke:#181818;stroke-width:1.0;"/><line style="stroke:#181818;stroke-width:1.0;" x1="519.6992" x2="924.2622" y1="281.3574" y2="281.3574"/><text fill="#000000" font-family="sans-serif" font-size="13" lengthAdjust="spacing" textLength="36.1309" x="526.6992" y="276.0947">create</text><rect fill="#E3E3E3" height="51.2422" rx="2.5" ry="2.5" style="stroke:#181818;stroke-width:0.5;" width="213.9854" x="930.2622" y="258.0664"/><text fill="#000000" font-family="sans-serif" font-size="14" font-style="italic" lengthAdjust="spacing" textLength="82.5098" x="996" y="280.1738">&#171;application&#187;</text><text fill="#000000" font-family="sans-serif" font-size="14" lengthAdjust="spacing" textLength="199.9854" x="937.2622" y="298.7949">RegisterShowRequestController</text><polygon fill="#181818" points="1020.2549,339.5996,1030.2549,343.5996,1020.2549,347.5996,1024.2549,343.5996" style="stroke:#181818;stroke-width:1.0;"/><line style="stroke:#181818;stroke-width:1.0;" x1="519.6992" x2="1026.2549" y1="343.5996" y2="343.5996"/><text fill="#000000" font-family="sans-serif" font-size="13" lengthAdjust="spacing" textLength="87.3945" x="526.6992" y="338.3369">listCustomers()</text><polygon fill="#181818" points="1449.4536,370.8906,1459.4536,374.8906,1449.4536,378.8906,1453.4536,374.8906" style="stroke:#181818;stroke-width:1.0;"/><line style="stroke:#181818;stroke-width:1.0;" x1="1042.2549" x2="1455.4536" y1="374.8906" y2="374.8906"/><text fill="#000000" font-family="sans-serif" font-size="13" lengthAdjust="spacing" textLength="395.1987" x="1049.2549" y="369.6279">ensureAuthenticatedUserHasAnyOf(Roles.CRM_COLLABORATOR)</text><rect fill="#E3E3E3" height="51.2422" rx="2.5" ry="2.5" style="stroke:#181818;stroke-width:0.5;" width="142.3994" x="1461.4536" y="351.5996"/><text fill="#000000" font-family="sans-serif" font-size="14" font-style="italic" lengthAdjust="spacing" textLength="42.8203" x="1511.2432" y="373.707">&#171;auth&#187;</text><text fill="#000000" font-family="sans-serif" font-size="14" lengthAdjust="spacing" textLength="128.3994" x="1468.4536" y="392.3281">AuthorizationService</text><polygon fill="#181818" points="1698.394,433.1328,1708.394,437.1328,1698.394,441.1328,1702.394,437.1328" style="stroke:#181818;stroke-width:1.0;"/><line style="stroke:#181818;stroke-width:1.0;" x1="1042.2549" x2="1704.394" y1="437.1328" y2="437.1328"/><text fill="#000000" font-family="sans-serif" font-size="13" lengthAdjust="spacing" textLength="142.3145" x="1049.2549" y="431.8701">findAllActiveCustomers()</text><polygon fill="#181818" points="2754.8491,464.4238,2764.8491,468.4238,2754.8491,472.4238,2758.8491,468.4238" style="stroke:#181818;stroke-width:1.0;"/><line style="stroke:#181818;stroke-width:1.0;" x1="1720.394" x2="2760.8491" y1="468.4238" y2="468.4238"/><text fill="#000000" font-family="sans-serif" font-size="13" lengthAdjust="spacing" textLength="102.5908" x="1727.394" y="463.1611">findByActive(true)</text><polygon fill="#181818" points="3177.2959,495.7148,3187.2959,499.7148,3177.2959,503.7148,3181.2959,499.7148" style="stroke:#181818;stroke-width:1.0;"/><line style="stroke:#181818;stroke-width:1.0;" x1="2776.8491" x2="3183.2959" y1="499.7148" y2="499.7148"/><text fill="#000000" font-family="sans-serif" font-size="13" lengthAdjust="spacing" textLength="102.5908" x="2783.8491" y="494.4521">findByActive(true)</text><polygon fill="#181818" points="2787.8491,527.0059,2777.8491,531.0059,2787.8491,535.0059,2783.8491,531.0059" style="stroke:#181818;stroke-width:1.0;"/><line style="stroke:#181818;stroke-width:1.0;" x1="2781.8491" x2="3193.2959" y1="531.0059" y2="531.0059"/><text fill="#000000" font-family="sans-serif" font-size="13" lengthAdjust="spacing" textLength="104.749" x="2793.8491" y="525.7432">listOfActiveClients</text><polygon fill="#181818" points="1731.394,558.2969,1721.394,562.2969,1731.394,566.2969,1727.394,562.2969" style="stroke:#181818;stroke-width:1.0;"/><line style="stroke:#181818;stroke-width:1.0;" x1="1725.394" x2="2770.8491" y1="562.2969" y2="562.2969"/><text fill="#000000" font-family="sans-serif" font-size="13" lengthAdjust="spacing" textLength="104.749" x="1737.394" y="557.0342">listOfActiveClients</text><polygon fill="#181818" points="1053.2549,589.5879,1043.2549,593.5879,1053.2549,597.5879,1049.2549,593.5879" style="stroke:#181818;stroke-width:1.0;"/><line style="stroke:#181818;stroke-width:1.0;" x1="1047.2549" x2="1714.394" y1="593.5879" y2="593.5879"/><text fill="#000000" font-family="sans-serif" font-size="13" lengthAdjust="spacing" textLength="104.749" x="1059.2549" y="588.3252">listOfActiveClients</text><polygon fill="#181818" points="530.6992,620.8789,520.6992,624.8789,530.6992,628.8789,526.6992,624.8789" style="stroke:#181818;stroke-width:1.0;"/><line style="stroke:#181818;stroke-width:1.0;" x1="524.6992" x2="1036.2549" y1="624.8789" y2="624.8789"/><text fill="#000000" font-family="sans-serif" font-size="13" lengthAdjust="spacing" textLength="104.749" x="536.6992" y="619.6162">listOfActiveClients</text><polygon fill="#181818" points="105.0171,669.4609,95.0171,673.4609,105.0171,677.4609,101.0171,673.4609" style="stroke:#181818;stroke-width:1.0;"/><line style="stroke:#181818;stroke-width:1.0;" x1="99.0171" x2="513.6992" y1="673.4609" y2="673.4609"/><text fill="#000000" font-family="sans-serif" font-size="13" lengthAdjust="spacing" textLength="385.8486" x="111.0171" y="650.9072">displays the list and asks which of the customers will be associated</text><text fill="#000000" font-family="sans-serif" font-size="13" lengthAdjust="spacing" textLength="78.7617" x="111.0171" y="668.1982">with the show</text><polygon fill="#181818" points="497.6992,700.752,507.6992,704.752,497.6992,708.752,501.6992,704.752" style="stroke:#181818;stroke-width:1.0;"/><line style="stroke:#181818;stroke-width:1.0;" x1="94.0171" x2="503.6992" y1="704.752" y2="704.752"/><text fill="#000000" font-family="sans-serif" font-size="13" lengthAdjust="spacing" textLength="96.1035" x="101.0171" y="699.4893">selects the client</text><polygon fill="#181818" points="105.0171,732.043,95.0171,736.043,105.0171,740.043,101.0171,736.043" style="stroke:#181818;stroke-width:1.0;"/><line style="stroke:#181818;stroke-width:1.0;" x1="99.0171" x2="513.6992" y1="736.043" y2="736.043"/><text fill="#000000" font-family="sans-serif" font-size="13" lengthAdjust="spacing" textLength="391.6821" x="111.0171" y="730.7803">request data(location, date, duration, number of drones of the show)</text><polygon fill="#181818" points="497.6992,763.334,507.6992,767.334,497.6992,771.334,501.6992,767.334" style="stroke:#181818;stroke-width:1.0;"/><line style="stroke:#181818;stroke-width:1.0;" x1="94.0171" x2="503.6992" y1="767.334" y2="767.334"/><text fill="#000000" font-family="sans-serif" font-size="13" lengthAdjust="spacing" textLength="121.418" x="101.0171" y="762.0713">types requested data</text><path d="M10,782.334 L82.4346,782.334 L82.4346,791.625 L72.4346,801.625 L10,801.625 L10,782.334 " fill="#EEEEEE" style="stroke:#000000;stroke-width:1.5;"/><rect fill="none" height="455.4141" style="stroke:#000000;stroke-width:1.5;" width="3237.2612" x="10" y="782.334"/><text fill="#000000" font-family="sans-serif" font-size="13" font-weight="bold" lengthAdjust="spacing" textLength="27.4346" x="25" y="797.3623">loop</text><text fill="#000000" font-family="sans-serif" font-size="11" font-weight="bold" lengthAdjust="spacing" textLength="185.8184" x="97.4346" y="796.2041">[While user wants to create figures]</text><polygon fill="#181818" points="105.0171,838.207,95.0171,842.207,105.0171,846.207,101.0171,842.207" style="stroke:#181818;stroke-width:1.0;"/><line style="stroke:#181818;stroke-width:1.0;" x1="99.0171" x2="513.6992" y1="842.207" y2="842.207"/><text fill="#000000" font-family="sans-serif" font-size="13" lengthAdjust="spacing" textLength="306.395" x="111.0171" y="819.6533">displays the list of the current figures in the catalogue</text><text fill="#000000" font-family="sans-serif" font-size="13" lengthAdjust="spacing" textLength="278.9287" x="111.0171" y="836.9443">and asks if the user wants to create a new figure</text><polygon fill="#181818" points="497.6992,869.498,507.6992,873.498,497.6992,877.498,501.6992,873.498" style="stroke:#181818;stroke-width:1.0;"/><line style="stroke:#181818;stroke-width:1.0;" x1="94.0171" x2="503.6992" y1="873.498" y2="873.498"/><text fill="#000000" font-family="sans-serif" font-size="13" lengthAdjust="spacing" textLength="132.2217" x="101.0171" y="868.2354">answers with yes or no</text><path d="M20,888.498 L80.1709,888.498 L80.1709,897.7891 L70.1709,907.7891 L20,907.7891 L20,888.498 " fill="#EEEEEE" style="stroke:#000000;stroke-width:1.5;"/><rect fill="none" height="342.25" style="stroke:#000000;stroke-width:1.5;" width="3217.2612" x="20" y="888.498"/><text fill="#000000" font-family="sans-serif" font-size="13" font-weight="bold" lengthAdjust="spacing" textLength="15.1709" x="35" y="903.5264">alt</text><text fill="#000000" font-family="sans-serif" font-size="11" font-weight="bold" lengthAdjust="spacing" textLength="182.1606" x="95.1709" y="902.3682">[User wants to create a new figure]</text><polygon fill="#181818" points="105.0171,927.0801,95.0171,931.0801,105.0171,935.0801,101.0171,931.0801" style="stroke:#181818;stroke-width:1.0;"/><line style="stroke:#181818;stroke-width:1.0;" x1="99.0171" x2="508.6992" y1="931.0801" y2="931.0801"/><text fill="#000000" font-family="sans-serif" font-size="13" lengthAdjust="spacing" textLength="304.916" x="111.0171" y="925.8174">request figure data (Description, keywords, category)</text><polygon fill="#181818" points="497.6992,958.3711,507.6992,962.3711,497.6992,966.3711,501.6992,962.3711" style="stroke:#181818;stroke-width:1.0;"/><line style="stroke:#181818;stroke-width:1.0;" x1="94.0171" x2="503.6992" y1="962.3711" y2="962.3711"/><text fill="#000000" font-family="sans-serif" font-size="13" lengthAdjust="spacing" textLength="96.1162" x="101.0171" y="957.1084">types figure data</text><polygon fill="#181818" points="1020.2549,989.6621,1030.2549,993.6621,1020.2549,997.6621,1024.2549,993.6621" style="stroke:#181818;stroke-width:1.0;"/><line style="stroke:#181818;stroke-width:1.0;" x1="519.6992" x2="1026.2549" y1="993.6621" y2="993.6621"/><text fill="#000000" font-family="sans-serif" font-size="13" lengthAdjust="spacing" textLength="249.2788" x="526.6992" y="988.3994">addFigure(description, keywords, category)</text><polygon fill="#181818" points="1900.9761,1020.9531,1910.9761,1024.9531,1900.9761,1028.9531,1904.9761,1024.9531" style="stroke:#181818;stroke-width:1.0;"/><line style="stroke:#181818;stroke-width:1.0;" x1="1042.2549" x2="1906.9761" y1="1024.9531" y2="1024.9531"/><text fill="#000000" font-family="sans-serif" font-size="13" lengthAdjust="spacing" textLength="430.625" x="1049.2549" y="1019.6904">registerNewFigure(description, keywords, category, createdOn, createdBy)</text><polygon fill="#181818" points="2344.6938,1052.2441,2354.6938,1056.2441,2344.6938,1060.2441,2348.6938,1056.2441" style="stroke:#181818;stroke-width:1.0;"/><line style="stroke:#181818;stroke-width:1.0;" x1="1922.9761" x2="2350.6938" y1="1056.2441" y2="1056.2441"/><text fill="#000000" font-family="sans-serif" font-size="13" lengthAdjust="spacing" textLength="414.7178" x="1929.9761" y="1050.9814">new Figure(description, keywords, figureCategory, exclusive, Customer)</text><polygon fill="#181818" points="1933.9761,1083.5352,1923.9761,1087.5352,1933.9761,1091.5352,1929.9761,1087.5352" style="stroke:#181818;stroke-width:1.0;"/><line style="stroke:#181818;stroke-width:1.0;" x1="1927.9761" x2="2360.6938" y1="1087.5352" y2="1087.5352"/><text fill="#000000" font-family="sans-serif" font-size="13" lengthAdjust="spacing" textLength="64.3081" x="1939.9761" y="1082.2725">new Figure</text><polygon fill="#181818" points="2895.9487,1114.8262,2905.9487,1118.8262,2895.9487,1122.8262,2899.9487,1118.8262" style="stroke:#181818;stroke-width:1.0;"/><line style="stroke:#181818;stroke-width:1.0;" x1="1922.9761" x2="2901.9487" y1="1118.8262" y2="1118.8262"/><text fill="#000000" font-family="sans-serif" font-size="13" lengthAdjust="spacing" textLength="96.8145" x="1929.9761" y="1113.5635">save(newFigure)</text><polygon fill="#181818" points="3177.2959,1146.1172,3187.2959,1150.1172,3177.2959,1154.1172,3181.2959,1150.1172" style="stroke:#181818;stroke-width:1.0;"/><line style="stroke:#181818;stroke-width:1.0;" x1="2917.9487" x2="3183.2959" y1="1150.1172" y2="1150.1172"/><text fill="#000000" font-family="sans-serif" font-size="13" lengthAdjust="spacing" textLength="36.1182" x="2924.9487" y="1144.8545">save()</text><polygon fill="#181818" points="2928.9487,1160.1172,2918.9487,1164.1172,2928.9487,1168.1172,2924.9487,1164.1172" style="stroke:#181818;stroke-width:1.0;"/><line style="stroke:#181818;stroke-width:1.0;stroke-dasharray:2.0,2.0;" x1="2922.9487" x2="3193.2959" y1="1164.1172" y2="1164.1172"/><polygon fill="#181818" points="1933.9761,1174.1172,1923.9761,1178.1172,1933.9761,1182.1172,1929.9761,1178.1172" style="stroke:#181818;stroke-width:1.0;"/><line style="stroke:#181818;stroke-width:1.0;stroke-dasharray:2.0,2.0;" x1="1927.9761" x2="2911.9487" y1="1178.1172" y2="1178.1172"/><polygon fill="#181818" points="1053.2549,1188.1172,1043.2549,1192.1172,1053.2549,1196.1172,1049.2549,1192.1172" style="stroke:#181818;stroke-width:1.0;"/><line style="stroke:#181818;stroke-width:1.0;stroke-dasharray:2.0,2.0;" x1="1047.2549" x2="1916.9761" y1="1192.1172" y2="1192.1172"/><polygon fill="#181818" points="530.6992,1202.1172,520.6992,1206.1172,530.6992,1210.1172,526.6992,1206.1172" style="stroke:#181818;stroke-width:1.0;"/><line style="stroke:#181818;stroke-width:1.0;stroke-dasharray:2.0,2.0;" x1="524.6992" x2="1036.2549" y1="1206.1172" y2="1206.1172"/><line style="stroke:#000000;stroke-width:1.0;stroke-dasharray:2.0,2.0;" x1="20" x2="3237.2612" y1="1215.1172" y2="1215.1172"/><text fill="#000000" font-family="sans-serif" font-size="11" font-weight="bold" lengthAdjust="spacing" textLength="200.4814" x="25" y="1226.9873">[User does not want to create a figure]</text><path d="M10,1251.748 L82.4346,1251.748 L82.4346,1261.0391 L72.4346,1271.0391 L10,1271.0391 L10,1251.748 " fill="#EEEEEE" style="stroke:#000000;stroke-width:1.5;"/><rect fill="none" height="180.377" style="stroke:#000000;stroke-width:1.5;" width="608.3472" x="10" y="1251.748"/><text fill="#000000" font-family="sans-serif" font-size="13" font-weight="bold" lengthAdjust="spacing" textLength="27.4346" x="25" y="1266.7764">loop</text><text fill="#000000" font-family="sans-serif" font-size="11" font-weight="bold" lengthAdjust="spacing" textLength="237.123" x="97.4346" y="1265.6182">[While user wants to add figures to the show]</text><polygon fill="#181818" points="105.0171,1307.6211,95.0171,1311.6211,105.0171,1315.6211,101.0171,1311.6211" style="stroke:#181818;stroke-width:1.0;"/><line style="stroke:#181818;stroke-width:1.0;" x1="99.0171" x2="513.6992" y1="1311.6211" y2="1311.6211"/><text fill="#000000" font-family="sans-serif" font-size="13" lengthAdjust="spacing" textLength="303.4878" x="111.0171" y="1289.0674">displays the list of figures and asks the user to select</text><text fill="#000000" font-family="sans-serif" font-size="13" lengthAdjust="spacing" textLength="249.3042" x="111.0171" y="1306.3584">the figures according with the desired order</text><path d="M20,1326.6211 L80.1709,1326.6211 L80.1709,1335.9121 L70.1709,1345.9121 L20,1345.9121 L20,1326.6211 " fill="#EEEEEE" style="stroke:#000000;stroke-width:1.5;"/><rect fill="none" height="98.5039" style="stroke:#000000;stroke-width:1.5;" width="588.3472" x="20" y="1326.6211"/><text fill="#000000" font-family="sans-serif" font-size="13" font-weight="bold" lengthAdjust="spacing" textLength="15.1709" x="35" y="1341.6494">alt</text><text fill="#000000" font-family="sans-serif" font-size="11" font-weight="bold" lengthAdjust="spacing" textLength="183.3799" x="95.1709" y="1340.4912">[User selects a figure for the show]</text><polygon fill="#181818" points="497.6992,1365.2031,507.6992,1369.2031,497.6992,1373.2031,501.6992,1369.2031" style="stroke:#181818;stroke-width:1.0;"/><line style="stroke:#181818;stroke-width:1.0;" x1="94.0171" x2="503.6992" y1="1369.2031" y2="1369.2031"/><text fill="#000000" font-family="sans-serif" font-size="13" lengthAdjust="spacing" textLength="122.8398" x="101.0171" y="1363.9404">selects desired figure</text><polygon fill="#181818" points="105.0171,1396.4941,95.0171,1400.4941,105.0171,1404.4941,101.0171,1400.4941" style="stroke:#181818;stroke-width:1.0;"/><line style="stroke:#181818;stroke-width:1.0;" x1="99.0171" x2="508.6992" y1="1400.4941" y2="1400.4941"/><text fill="#000000" font-family="sans-serif" font-size="13" lengthAdjust="spacing" textLength="240.646" x="111.0171" y="1395.2314">displays the sequence figures in the show</text><line style="stroke:#000000;stroke-width:1.0;stroke-dasharray:2.0,2.0;" x1="20" x2="608.3472" y1="1409.4941" y2="1409.4941"/><text fill="#000000" font-family="sans-serif" font-size="11" font-weight="bold" lengthAdjust="spacing" textLength="290.3184" x="25" y="1421.3643">[User does not want to select more figures to the show]</text><polygon fill="#181818" points="1020.2549,1458.416,1030.2549,1462.416,1020.2549,1466.416,1024.2549,1462.416" style="stroke:#181818;stroke-width:1.0;"/><line style="stroke:#181818;stroke-width:1.0;" x1="519.6992" x2="1026.2549" y1="1462.416" y2="1462.416"/><text fill="#000000" font-family="sans-serif" font-size="13" lengthAdjust="spacing" textLength="493.5557" x="526.6992" y="1457.1533">registerShowRequest(client, location, date, duration, numberDrones, figureSequence)</text><polygon fill="#181818" points="2116.7993,1489.707,2126.7993,1493.707,2116.7993,1497.707,2120.7993,1493.707" style="stroke:#181818;stroke-width:1.0;"/><line style="stroke:#181818;stroke-width:1.0;" x1="1042.2549" x2="2122.7993" y1="1493.707" y2="1493.707"/><text fill="#000000" font-family="sans-serif" font-size="13" lengthAdjust="spacing" textLength="493.5557" x="1049.2549" y="1488.4443">registerShowRequest(client, location, date, duration, numberDrones, figureSequence)</text><polygon fill="#181818" points="2623.4668,1520.998,2633.4668,1524.998,2623.4668,1528.998,2627.4668,1524.998" style="stroke:#181818;stroke-width:1.0;"/><line style="stroke:#181818;stroke-width:1.0;" x1="2138.7993" x2="2629.4668" y1="1524.998" y2="1524.998"/><text fill="#000000" font-family="sans-serif" font-size="13" lengthAdjust="spacing" textLength="477.6675" x="2145.7993" y="1519.7354">new ShowRequest(client, location, date, duration, numberDrones, figureSequence)</text><polygon fill="#181818" points="2149.7993,1552.2891,2139.7993,1556.2891,2149.7993,1560.2891,2145.7993,1556.2891" style="stroke:#181818;stroke-width:1.0;"/><line style="stroke:#181818;stroke-width:1.0;" x1="2143.7993" x2="2639.4668" y1="1556.2891" y2="1556.2891"/><text fill="#000000" font-family="sans-serif" font-size="13" lengthAdjust="spacing" textLength="108.3989" x="2155.7993" y="1551.0264">new ShowRequest</text><polygon fill="#181818" points="3050.2896,1583.5801,3060.2896,1587.5801,3050.2896,1591.5801,3054.2896,1587.5801" style="stroke:#181818;stroke-width:1.0;"/><line style="stroke:#181818;stroke-width:1.0;" x1="2138.7993" x2="3056.2896" y1="1587.5801" y2="1587.5801"/><text fill="#000000" font-family="sans-serif" font-size="13" lengthAdjust="spacing" textLength="140.9053" x="2145.7993" y="1582.3174">save(newShowRequest)</text><polygon fill="#181818" points="3177.2959,1614.8711,3187.2959,1618.8711,3177.2959,1622.8711,3181.2959,1618.8711" style="stroke:#181818;stroke-width:1.0;"/><line style="stroke:#181818;stroke-width:1.0;" x1="3072.2896" x2="3183.2959" y1="1618.8711" y2="1618.8711"/><text fill="#000000" font-family="sans-serif" font-size="13" lengthAdjust="spacing" textLength="36.1182" x="3079.2896" y="1613.6084">save()</text><polygon fill="#181818" points="3083.2896,1628.8711,3073.2896,1632.8711,3083.2896,1636.8711,3079.2896,1632.8711" style="stroke:#181818;stroke-width:1.0;"/><line style="stroke:#181818;stroke-width:1.0;stroke-dasharray:2.0,2.0;" x1="3077.2896" x2="3193.2959" y1="1632.8711" y2="1632.8711"/><polygon fill="#181818" points="2149.7993,1642.8711,2139.7993,1646.8711,2149.7993,1650.8711,2145.7993,1646.8711" style="stroke:#181818;stroke-width:1.0;"/><line style="stroke:#181818;stroke-width:1.0;stroke-dasharray:2.0,2.0;" x1="2143.7993" x2="3066.2896" y1="1646.8711" y2="1646.8711"/><polygon fill="#181818" points="1053.2549,1656.8711,1043.2549,1660.8711,1053.2549,1664.8711,1049.2549,1660.8711" style="stroke:#181818;stroke-width:1.0;"/><line style="stroke:#181818;stroke-width:1.0;stroke-dasharray:2.0,2.0;" x1="1047.2549" x2="2132.7993" y1="1660.8711" y2="1660.8711"/><polygon fill="#181818" points="530.6992,1670.8711,520.6992,1674.8711,530.6992,1678.8711,526.6992,1674.8711" style="stroke:#181818;stroke-width:1.0;"/><line style="stroke:#181818;stroke-width:1.0;stroke-dasharray:2.0,2.0;" x1="524.6992" x2="1036.2549" y1="1674.8711" y2="1674.8711"/><polygon fill="#181818" points="105.0171,1702.1621,95.0171,1706.1621,105.0171,1710.1621,101.0171,1706.1621" style="stroke:#181818;stroke-width:1.0;"/><line style="stroke:#181818;stroke-width:1.0;" x1="99.0171" x2="513.6992" y1="1706.1621" y2="1706.1621"/><text fill="#000000" font-family="sans-serif" font-size="13" lengthAdjust="spacing" textLength="155.3589" x="111.0171" y="1700.8994">displays operation success</text><!--SRC=[jLXjRzis4FwkNt789pj8WYGhbi8eWZbsYZbBwi8lxPS10oFHDX6Pr4WghlVhTzIR9PcYv0trXw8YnUUUk-CzTufwOpmYacnXAxZmDr9iAMWPKqyLEn7ntyYQplK-f22fhmbVX-KNr8O4OiVu6bOaLDJpYA-5XBFHx0L68Wp9gv04Lyw0AF3bjhpc8OHcFei8rt0seskcD9NpZTZDwDynLNheQoPuSdGuMaocN-3JfqXIHRacPkV-lXLYEKcEBoUd7nq9hYNIfIdvqMBsZ20aYaBcMp66iTu8oVv9DkTKlZEVfkGj6mOAb-iOerXfp8Dy8HpZlaMwPQ36NJUnpsmTIsg7RDXp0vQYP4TrlT25QuaQlXw8BM4k4dMRZMVo0Cve91J3ExYlnFMmZ0YoUB1ph67K5vq89Qur6EjE7IiWchmIHU5idFqlEPi_U9vc6WjsRd0uHdpCoDfKwoKivxU_N7iUO9coTwBfKKrwO7wrLRYypojm04Fr1bgW6gGL0mH5GEpmEI6TdY_WqrCPAluo5CHRJixF4SsN5D-pxkEkGUxrYzs0DW8N6yl9OH4n4CbKxldvaQd39XeAqPVy5gYInGBMl7S0Dh_af0cCfReJroXNU2FCDbv-Szrfi5HK_axKaE-dgzvCX5HTeLB-DPe-FmyVfhFXOZhhMuqqL_u0Lem7mp0qQlbERKvK7Mb2gdgN66yqMc9KkgKfbOTzogHdUad_2FI8o07Wc46PHSaGci_lUZUZ5SE7Ce66Nm7UvAUvBjDL5l6GOMIK5QnqOTrMxKwwijw5GibybsYxytqe59TPYycMcvPVyQJWNV1bQ5EDrKAkIzO00gQYaEmLO04cm41uW3hvfc2tOVu6n2hPylEIWHqBGtYb-8uIFZC52t_o7TERv3qZHbwTII4t5ibC9Oo6E3Ub9Fp48wzDi8vToSGLZF3tGf6spWlpIF7VM6RFFDw-eYAZNu4KdAhSGyEyVpfrlOyG8xEDiJ3M7UGX52A2xnk6hIT6eOCTzZfbUaMgl5YefaMMxaltp1MfaX8Zc2C1u-ao4Wl5EgQOhYB7B3rYPKA0qrs6SdfS25UxzBhWpTYRC4lWmXKP4cfOTYFIyIQaHvAKG6zCbIzPb5w2DxhV2Hce2nCMkiPAh-gXEzibN0kVJ0H84AJZJYyunRAZcPQ5e6aa7HGpnnUwwsR_8ejpCEN5Vn_sZgRKODiksar42n-GiaclcsiQyL71cFxmmrYX_bqK2jhIq5ByvdQMaN66zi2phP6vhBL6fD955S66pVDSTdAoRLWua6WS5nAh_SRJ9um9rL71ucFZoSvpWTqVLoQxfQyjZes9B4J0QxNHPS9CIZvJeCOvejpiWOOOx4HB0u5wnOLEHBMYgQlw5QKyg3vqQ5eeSaMVmSVg171ozygHYlPKz2R4JcS4R5vciNZJzr4Wp9zMYWa45OH9RCIuJgMjRrMRJJvwv0615VAh-j4sjUGMontgfCcb4WoLVv3M-dSbheu4Pt7Q2acTgIcdkvBjIXUJnt_pwQKJsWMqpLZZPBxAnJl_q3xfkz7vDvAVowx2qCNZk6AThAjUPLtbPpdGv8HTqCgyseDVu-tIEgVb4w9bxOob_MxEj-cwtM3d1lcVlg6R_Vn_tymDlhHcjsCsNQ5qvzNU8-rMEdqSrnjalJbsLs4HqRJIGCM-JvMoTf7VK3JZRUXvNqDKtkNBCxpZzuuvTNDrUttxuUgkDoSQvZI2wpkukHtSV1pStC7tn_a2p7xVwxrC5g14B34UQ5nBzXeRittlYRmJcCLSioqTm3IY_6dyHxu0Z_oTOUsRU7XFtruEB_pwuVA16PCIgS2t5szCLoJ6JlV8VM6wv02MYy-N7xrdmjSnXdG0aVP60d7bVW1V5_y2]--></g></svg>