<svg xmlns="http://www.w3.org/2000/svg" xmlns:xlink="http://www.w3.org/1999/xlink" contentStyleType="text/css" height="896px" preserveAspectRatio="none" style="width:582px;height:896px;background:#FFFFFF;" version="1.1" viewBox="0 0 582 896" width="582px" zoomAndPan="magnify"><title>System Sequence Diagram - US230</title><defs/><g><text fill="#000000" font-family="sans-serif" font-size="14" font-weight="bold" lengthAdjust="spacing" textLength="234.9922" x="169.5225" y="30.1074">System Sequence Diagram - US230</text><rect fill="#FFFFFF" height="671.373" style="stroke:#181818;stroke-width:1.0;" width="10" x="84.0171" y="133.2422"/><rect fill="#FFFFFF" height="48.582" style="stroke:#181818;stroke-width:1.0;" width="10" x="509.6992" y="201.8242"/><rect fill="#FFFFFF" height="31.291" style="stroke:#181818;stroke-width:1.0;" width="10" x="509.6992" y="281.6973"/><rect fill="#FFFFFF" height="74.873" style="stroke:#181818;stroke-width:1.0;" width="10" x="509.6992" y="344.2793"/><rect fill="#FFFFFF" height="194.377" style="stroke:#181818;stroke-width:1.0;" width="10" x="509.6992" y="450.4434"/><rect fill="#FFFFFF" height="93.2129" style="stroke:#181818;stroke-width:1.0;" width="10" x="509.6992" y="702.4023"/><rect fill="none" height="211.668" style="stroke:#000000;stroke-width:1.5;" width="555.0371" x="10" y="359.2793"/><rect fill="none" height="98.5039" style="stroke:#000000;stroke-width:1.5;" width="535.0371" x="20" y="465.4434"/><rect fill="none" height="180.377" style="stroke:#000000;stroke-width:1.5;" width="555.0371" x="10" y="584.9473"/><rect fill="none" height="98.5039" style="stroke:#000000;stroke-width:1.5;" width="535.0371" x="20" y="659.8203"/><line style="stroke:#181818;stroke-width:0.5;stroke-dasharray:5.0,5.0;" x1="89" x2="89" y1="123.2422" y2="813.6152"/><line style="stroke:#181818;stroke-width:0.5;stroke-dasharray:5.0,5.0;" x1="514.3613" x2="514.3613" y1="123.2422" y2="813.6152"/><text fill="#000000" font-family="sans-serif" font-size="14" lengthAdjust="spacing" textLength="112.0342" x="30" y="119.7285">CRM Collaborator</text><ellipse cx="89.0171" cy="53.1211" fill="#E3E3E3" rx="8" ry="8" style="stroke:#181818;stroke-width:0.5;"/><path d="M89.0171,61.1211 L89.0171,88.1211 M76.0171,69.1211 L102.0171,69.1211 M89.0171,88.1211 L76.0171,103.1211 M89.0171,88.1211 L102.0171,103.1211 " fill="none" style="stroke:#181818;stroke-width:0.5;"/><text fill="#000000" font-family="sans-serif" font-size="14" lengthAdjust="spacing" textLength="112.0342" x="30" y="827.7227">CRM Collaborator</text><ellipse cx="89.0171" cy="839.7363" fill="#E3E3E3" rx="8" ry="8" style="stroke:#181818;stroke-width:0.5;"/><path d="M89.0171,847.7363 L89.0171,874.7363 M76.0171,855.7363 L102.0171,855.7363 M89.0171,874.7363 L76.0171,889.7363 M89.0171,874.7363 L102.0171,889.7363 " fill="none" style="stroke:#181818;stroke-width:0.5;"/><rect fill="#E3E3E3" height="32.6211" rx="2.5" ry="2.5" style="stroke:#181818;stroke-width:0.5;" width="60.6758" x="484.3613" y="89.6211"/><text fill="#000000" font-family="sans-serif" font-size="14" lengthAdjust="spacing" textLength="46.6758" x="491.3613" y="111.7285">System</text><rect fill="#E3E3E3" height="32.6211" rx="2.5" ry="2.5" style="stroke:#181818;stroke-width:0.5;" width="60.6758" x="484.3613" y="812.6152"/><text fill="#000000" font-family="sans-serif" font-size="14" lengthAdjust="spacing" textLength="46.6758" x="491.3613" y="834.7227">System</text><rect fill="#FFFFFF" height="671.373" style="stroke:#181818;stroke-width:1.0;" width="10" x="84.0171" y="133.2422"/><rect fill="#FFFFFF" height="48.582" style="stroke:#181818;stroke-width:1.0;" width="10" x="509.6992" y="201.8242"/><rect fill="#FFFFFF" height="31.291" style="stroke:#181818;stroke-width:1.0;" width="10" x="509.6992" y="281.6973"/><rect fill="#FFFFFF" height="74.873" style="stroke:#181818;stroke-width:1.0;" width="10" x="509.6992" y="344.2793"/><rect fill="#FFFFFF" height="194.377" style="stroke:#181818;stroke-width:1.0;" width="10" x="509.6992" y="450.4434"/><rect fill="#FFFFFF" height="93.2129" style="stroke:#181818;stroke-width:1.0;" width="10" x="509.6992" y="702.4023"/><rect fill="#EEEEEE" height="3" style="stroke:#EEEEEE;stroke-width:1.0;" width="575.0371" x="0" y="154.8877"/><line style="stroke:#000000;stroke-width:1.0;" x1="0" x2="575.0371" y1="154.8877" y2="154.8877"/><line style="stroke:#000000;stroke-width:1.0;" x1="0" x2="575.0371" y1="157.8877" y2="157.8877"/><rect fill="#EEEEEE" height="25.291" style="stroke:#000000;stroke-width:2.0;" width="167.8799" x="203.5786" y="143.2422"/><text fill="#000000" font-family="sans-serif" font-size="13" font-weight="bold" lengthAdjust="spacing" textLength="150.2681" x="209.5786" y="161.2705">Register a show request</text><polygon fill="#181818" points="497.6992,197.8242,507.6992,201.8242,497.6992,205.8242,501.6992,201.8242" style="stroke:#181818;stroke-width:1.0;"/><line style="stroke:#181818;stroke-width:1.0;" x1="94.0171" x2="503.6992" y1="201.8242" y2="201.8242"/><text fill="#000000" font-family="sans-serif" font-size="13" lengthAdjust="spacing" textLength="174.8589" x="101.0171" y="196.5615">Ask to register a show request</text><polygon fill="#181818" points="105.0171,246.4063,95.0171,250.4063,105.0171,254.4063,101.0171,250.4063" style="stroke:#181818;stroke-width:1.0;"/><line style="stroke:#181818;stroke-width:1.0;" x1="99.0171" x2="513.6992" y1="250.4063" y2="250.4063"/><text fill="#000000" font-family="sans-serif" font-size="13" lengthAdjust="spacing" textLength="385.8486" x="111.0171" y="227.8525">displays the list and asks which of the customers will be associated</text><text fill="#000000" font-family="sans-serif" font-size="13" lengthAdjust="spacing" textLength="78.7617" x="111.0171" y="245.1436">with the show</text><polygon fill="#181818" points="497.6992,277.6973,507.6992,281.6973,497.6992,285.6973,501.6992,281.6973" style="stroke:#181818;stroke-width:1.0;"/><line style="stroke:#181818;stroke-width:1.0;" x1="94.0171" x2="503.6992" y1="281.6973" y2="281.6973"/><text fill="#000000" font-family="sans-serif" font-size="13" lengthAdjust="spacing" textLength="96.1035" x="101.0171" y="276.4346">selects the client</text><polygon fill="#181818" points="105.0171,308.9883,95.0171,312.9883,105.0171,316.9883,101.0171,312.9883" style="stroke:#181818;stroke-width:1.0;"/><line style="stroke:#181818;stroke-width:1.0;" x1="99.0171" x2="513.6992" y1="312.9883" y2="312.9883"/><text fill="#000000" font-family="sans-serif" font-size="13" lengthAdjust="spacing" textLength="391.6821" x="111.0171" y="307.7256">request data(location, date, duration, number of drones of the show)</text><polygon fill="#181818" points="497.6992,340.2793,507.6992,344.2793,497.6992,348.2793,501.6992,344.2793" style="stroke:#181818;stroke-width:1.0;"/><line style="stroke:#181818;stroke-width:1.0;" x1="94.0171" x2="503.6992" y1="344.2793" y2="344.2793"/><text fill="#000000" font-family="sans-serif" font-size="13" lengthAdjust="spacing" textLength="121.418" x="101.0171" y="339.0166">types requested data</text><path d="M10,359.2793 L82.4346,359.2793 L82.4346,368.5703 L72.4346,378.5703 L10,378.5703 L10,359.2793 " fill="#EEEEEE" style="stroke:#000000;stroke-width:1.5;"/><rect fill="none" height="211.668" style="stroke:#000000;stroke-width:1.5;" width="555.0371" x="10" y="359.2793"/><text fill="#000000" font-family="sans-serif" font-size="13" font-weight="bold" lengthAdjust="spacing" textLength="27.4346" x="25" y="374.3076">loop</text><text fill="#000000" font-family="sans-serif" font-size="11" font-weight="bold" lengthAdjust="spacing" textLength="185.8184" x="97.4346" y="373.1494">[While user wants to create figures]</text><polygon fill="#181818" points="105.0171,415.1523,95.0171,419.1523,105.0171,423.1523,101.0171,419.1523" style="stroke:#181818;stroke-width:1.0;"/><line style="stroke:#181818;stroke-width:1.0;" x1="99.0171" x2="513.6992" y1="419.1523" y2="419.1523"/><text fill="#000000" font-family="sans-serif" font-size="13" lengthAdjust="spacing" textLength="306.395" x="111.0171" y="396.5986">displays the list of the current figures in the catalogue</text><text fill="#000000" font-family="sans-serif" font-size="13" lengthAdjust="spacing" textLength="278.9287" x="111.0171" y="413.8896">and asks if the user wants to create a new figure</text><polygon fill="#181818" points="497.6992,446.4434,507.6992,450.4434,497.6992,454.4434,501.6992,450.4434" style="stroke:#181818;stroke-width:1.0;"/><line style="stroke:#181818;stroke-width:1.0;" x1="94.0171" x2="503.6992" y1="450.4434" y2="450.4434"/><text fill="#000000" font-family="sans-serif" font-size="13" lengthAdjust="spacing" textLength="132.2217" x="101.0171" y="445.1807">answers with yes or no</text><path d="M20,465.4434 L80.1709,465.4434 L80.1709,474.7344 L70.1709,484.7344 L20,484.7344 L20,465.4434 " fill="#EEEEEE" style="stroke:#000000;stroke-width:1.5;"/><rect fill="none" height="98.5039" style="stroke:#000000;stroke-width:1.5;" width="535.0371" x="20" y="465.4434"/><text fill="#000000" font-family="sans-serif" font-size="13" font-weight="bold" lengthAdjust="spacing" textLength="15.1709" x="35" y="480.4717">alt</text><text fill="#000000" font-family="sans-serif" font-size="11" font-weight="bold" lengthAdjust="spacing" textLength="182.1606" x="95.1709" y="479.3135">[User wants to create a new figure]</text><polygon fill="#181818" points="105.0171,504.0254,95.0171,508.0254,105.0171,512.0254,101.0171,508.0254" style="stroke:#181818;stroke-width:1.0;"/><line style="stroke:#181818;stroke-width:1.0;" x1="99.0171" x2="508.6992" y1="508.0254" y2="508.0254"/><text fill="#000000" font-family="sans-serif" font-size="13" lengthAdjust="spacing" textLength="304.916" x="111.0171" y="502.7627">request figure data (Description, keywords, category)</text><polygon fill="#181818" points="497.6992,535.3164,507.6992,539.3164,497.6992,543.3164,501.6992,539.3164" style="stroke:#181818;stroke-width:1.0;"/><line style="stroke:#181818;stroke-width:1.0;" x1="94.0171" x2="503.6992" y1="539.3164" y2="539.3164"/><text fill="#000000" font-family="sans-serif" font-size="13" lengthAdjust="spacing" textLength="96.1162" x="101.0171" y="534.0537">types figure data</text><line style="stroke:#000000;stroke-width:1.0;stroke-dasharray:2.0,2.0;" x1="20" x2="555.0371" y1="548.3164" y2="548.3164"/><text fill="#000000" font-family="sans-serif" font-size="11" font-weight="bold" lengthAdjust="spacing" textLength="200.4814" x="25" y="560.1865">[User does not want to create a figure]</text><path d="M10,584.9473 L82.4346,584.9473 L82.4346,594.2383 L72.4346,604.2383 L10,604.2383 L10,584.9473 " fill="#EEEEEE" style="stroke:#000000;stroke-width:1.5;"/><rect fill="none" height="180.377" style="stroke:#000000;stroke-width:1.5;" width="555.0371" x="10" y="584.9473"/><text fill="#000000" font-family="sans-serif" font-size="13" font-weight="bold" lengthAdjust="spacing" textLength="27.4346" x="25" y="599.9756">loop</text><text fill="#000000" font-family="sans-serif" font-size="11" font-weight="bold" lengthAdjust="spacing" textLength="237.123" x="97.4346" y="598.8174">[While user wants to add figures to the show]</text><polygon fill="#181818" points="105.0171,640.8203,95.0171,644.8203,105.0171,648.8203,101.0171,644.8203" style="stroke:#181818;stroke-width:1.0;"/><line style="stroke:#181818;stroke-width:1.0;" x1="99.0171" x2="513.6992" y1="644.8203" y2="644.8203"/><text fill="#000000" font-family="sans-serif" font-size="13" lengthAdjust="spacing" textLength="303.4878" x="111.0171" y="622.2666">displays the list of figures and asks the user to select</text><text fill="#000000" font-family="sans-serif" font-size="13" lengthAdjust="spacing" textLength="249.3042" x="111.0171" y="639.5576">the figures according with the desired order</text><path d="M20,659.8203 L80.1709,659.8203 L80.1709,669.1113 L70.1709,679.1113 L20,679.1113 L20,659.8203 " fill="#EEEEEE" style="stroke:#000000;stroke-width:1.5;"/><rect fill="none" height="98.5039" style="stroke:#000000;stroke-width:1.5;" width="535.0371" x="20" y="659.8203"/><text fill="#000000" font-family="sans-serif" font-size="13" font-weight="bold" lengthAdjust="spacing" textLength="15.1709" x="35" y="674.8486">alt</text><text fill="#000000" font-family="sans-serif" font-size="11" font-weight="bold" lengthAdjust="spacing" textLength="183.3799" x="95.1709" y="673.6904">[User selects a figure for the show]</text><polygon fill="#181818" points="497.6992,698.4023,507.6992,702.4023,497.6992,706.4023,501.6992,702.4023" style="stroke:#181818;stroke-width:1.0;"/><line style="stroke:#181818;stroke-width:1.0;" x1="94.0171" x2="503.6992" y1="702.4023" y2="702.4023"/><text fill="#000000" font-family="sans-serif" font-size="13" lengthAdjust="spacing" textLength="122.8398" x="101.0171" y="697.1396">selects desired figure</text><polygon fill="#181818" points="105.0171,729.6934,95.0171,733.6934,105.0171,737.6934,101.0171,733.6934" style="stroke:#181818;stroke-width:1.0;"/><line style="stroke:#181818;stroke-width:1.0;" x1="99.0171" x2="508.6992" y1="733.6934" y2="733.6934"/><text fill="#000000" font-family="sans-serif" font-size="13" lengthAdjust="spacing" textLength="240.646" x="111.0171" y="728.4307">displays the sequence figures in the show</text><line style="stroke:#000000;stroke-width:1.0;stroke-dasharray:2.0,2.0;" x1="20" x2="555.0371" y1="742.6934" y2="742.6934"/><text fill="#000000" font-family="sans-serif" font-size="11" font-weight="bold" lengthAdjust="spacing" textLength="290.3184" x="25" y="754.5635">[User does not want to select more figures to the show]</text><polygon fill="#181818" points="105.0171,791.6152,95.0171,795.6152,105.0171,799.6152,101.0171,795.6152" style="stroke:#181818;stroke-width:1.0;"/><line style="stroke:#181818;stroke-width:1.0;" x1="99.0171" x2="513.6992" y1="795.6152" y2="795.6152"/><text fill="#000000" font-family="sans-serif" font-size="13" lengthAdjust="spacing" textLength="155.3589" x="111.0171" y="790.3525">displays operation success</text><!--SRC=[fLPDRzim3BthLn0z9K1JD5cn5WOwR6iwO5s35KtINdPHPCOH8akU9CVmlnyLVpJk-f6sFWGHHJq-aa-qtLhgZ5kUGcgq4IjhKWHlSsIktScuMFC4fxvK21Q5vpfHkmvknMDJI9t0aYk7Z77XZOM3Yzi9N1Yb-C9OJfO3u0w4JNTjZ22y53BZsiF1j7GUqwsVs_vbp4jFOQiDcEBV7BL064kUXD03c4z7duuPW_DpkCL4afi5JfHCGLp9stdQOa2Kv8Px_2y-W_0yiiBWIqq08lZcrk0DeJs9NfrluHlQK3yr2k4z3X51B5scUEd0hn0KWGFNCUM-Tb2if5Y1MMwtHEuyzSMIMIe52oGVPuIaU37yqONqgwrVe5K5Zl5fGY-bwL1HRoioGadK7qcjANtCFUyf8xYNHX-69T9lRkkrpjC5LPJoZAtHw9gCGoRzzwVYouomQWvKey3YbMH06PF1_KgIs797d0eIf0jz5nR3WQLCSelkuS3REjksqbggR8C6KbTc8gXCaYErizM0h8uyoOQ3ng96UN-Tk7P59IjIK1dARq6Rroh5bOVvVgJUe9JgsBPLq1kZ4rPcbKZMM1R6nkumb0aJOyj-1_rr9UnWFvn46bLL7h4X7styDg5EFdKkEuTqt5ti8I0Unss_QTczgUzIKeFMIgNL2U5NzvY458ojfn1KmZ2YssaHevEMBWVPqJwdeMx3cn7H50QMnB6RppuJfecygvIF3r3Nl1iUtQrEhLzeUbstr5XyiLsx4kWeO2-c9iDg-87BXK3ddgtyLmBFKyNOZIA6yyarREYkXfF3ez7nwEJej3Vbdbw96HoVmd0K3S-YuIdSNqvd4FRxh3VvEGDdSaj58GBUoaKUGlVP5TzmkCsrbob6y3j3VJN-rHZWKcyaZUCql0AkxYOF3fzF1jzb26c92jnDs1YNF2TrN6fXWheYcCz-3CxODNqYvFJD447csOKXN5j6S3Fx1m00]--></g></svg>