<svg xmlns="http://www.w3.org/2000/svg" xmlns:xlink="http://www.w3.org/1999/xlink" contentStyleType="text/css" height="459px" preserveAspectRatio="none" style="width:537px;height:459px;background:#FFFFFF;" version="1.1" viewBox="0 0 537 459" width="537px" zoomAndPan="magnify"><title>System Sequence Diagram - US230</title><defs/><g><text fill="#000000" font-family="sans-serif" font-size="14" font-weight="bold" lengthAdjust="spacing" textLength="234.9922" x="147.0393" y="30.1074">System Sequence Diagram - US230</text><rect fill="#FFFFFF" height="234.0371" style="stroke:#181818;stroke-width:1.0;" width="10" x="59.0171" y="133.2422"/><rect fill="#FFFFFF" height="31.291" style="stroke:#181818;stroke-width:1.0;" width="10" x="489.7329" y="201.8242"/><rect fill="#FFFFFF" height="31.291" style="stroke:#181818;stroke-width:1.0;" width="10" x="489.7329" y="264.4063"/><rect fill="#FFFFFF" height="31.291" style="stroke:#181818;stroke-width:1.0;" width="10" x="489.7329" y="326.9883"/><line style="stroke:#181818;stroke-width:0.5;stroke-dasharray:5.0,5.0;" x1="64" x2="64" y1="123.2422" y2="376.2793"/><line style="stroke:#181818;stroke-width:0.5;stroke-dasharray:5.0,5.0;" x1="494.395" x2="494.395" y1="123.2422" y2="376.2793"/><text fill="#000000" font-family="sans-serif" font-size="14" lengthAdjust="spacing" textLength="112.0342" x="5" y="119.7285">CRM Collaborator</text><ellipse cx="64.0171" cy="53.1211" fill="#E3E3E3" rx="8" ry="8" style="stroke:#181818;stroke-width:0.5;"/><path d="M64.0171,61.1211 L64.0171,88.1211 M51.0171,69.1211 L77.0171,69.1211 M64.0171,88.1211 L51.0171,103.1211 M64.0171,88.1211 L77.0171,103.1211 " fill="none" style="stroke:#181818;stroke-width:0.5;"/><text fill="#000000" font-family="sans-serif" font-size="14" lengthAdjust="spacing" textLength="112.0342" x="5" y="390.3867">CRM Collaborator</text><ellipse cx="64.0171" cy="402.4004" fill="#E3E3E3" rx="8" ry="8" style="stroke:#181818;stroke-width:0.5;"/><path d="M64.0171,410.4004 L64.0171,437.4004 M51.0171,418.4004 L77.0171,418.4004 M64.0171,437.4004 L51.0171,452.4004 M64.0171,437.4004 L77.0171,452.4004 " fill="none" style="stroke:#181818;stroke-width:0.5;"/><rect fill="#E3E3E3" height="32.6211" rx="2.5" ry="2.5" style="stroke:#181818;stroke-width:0.5;" width="60.6758" x="464.395" y="89.6211"/><text fill="#000000" font-family="sans-serif" font-size="14" lengthAdjust="spacing" textLength="46.6758" x="471.395" y="111.7285">System</text><rect fill="#E3E3E3" height="32.6211" rx="2.5" ry="2.5" style="stroke:#181818;stroke-width:0.5;" width="60.6758" x="464.395" y="375.2793"/><text fill="#000000" font-family="sans-serif" font-size="14" lengthAdjust="spacing" textLength="46.6758" x="471.395" y="397.3867">System</text><rect fill="#FFFFFF" height="234.0371" style="stroke:#181818;stroke-width:1.0;" width="10" x="59.0171" y="133.2422"/><rect fill="#FFFFFF" height="31.291" style="stroke:#181818;stroke-width:1.0;" width="10" x="489.7329" y="201.8242"/><rect fill="#FFFFFF" height="31.291" style="stroke:#181818;stroke-width:1.0;" width="10" x="489.7329" y="264.4063"/><rect fill="#FFFFFF" height="31.291" style="stroke:#181818;stroke-width:1.0;" width="10" x="489.7329" y="326.9883"/><rect fill="#EEEEEE" height="3" style="stroke:#EEEEEE;stroke-width:1.0;" width="530.0708" x="0" y="154.8877"/><line style="stroke:#000000;stroke-width:1.0;" x1="0" x2="530.0708" y1="154.8877" y2="154.8877"/><line style="stroke:#000000;stroke-width:1.0;" x1="0" x2="530.0708" y1="157.8877" y2="157.8877"/><rect fill="#EEEEEE" height="25.291" style="stroke:#000000;stroke-width:2.0;" width="167.8799" x="181.0955" y="143.2422"/><text fill="#000000" font-family="sans-serif" font-size="13" font-weight="bold" lengthAdjust="spacing" textLength="150.2681" x="187.0955" y="161.2705">Register a show request</text><polygon fill="#181818" points="477.7329,197.8242,487.7329,201.8242,477.7329,205.8242,481.7329,201.8242" style="stroke:#181818;stroke-width:1.0;"/><line style="stroke:#181818;stroke-width:1.0;" x1="69.0171" x2="483.7329" y1="201.8242" y2="201.8242"/><text fill="#000000" font-family="sans-serif" font-size="13" lengthAdjust="spacing" textLength="174.8589" x="76.0171" y="196.5615">Ask to register a show request</text><polygon fill="#181818" points="80.0171,229.1152,70.0171,233.1152,80.0171,237.1152,76.0171,233.1152" style="stroke:#181818;stroke-width:1.0;"/><line style="stroke:#181818;stroke-width:1.0;" x1="74.0171" x2="493.7329" y1="233.1152" y2="233.1152"/><text fill="#000000" font-family="sans-serif" font-size="13" lengthAdjust="spacing" textLength="391.6821" x="86.0171" y="227.8525">request data(location, date, duration, number of drones of the show)</text><polygon fill="#181818" points="477.7329,260.4063,487.7329,264.4063,477.7329,268.4063,481.7329,264.4063" style="stroke:#181818;stroke-width:1.0;"/><line style="stroke:#181818;stroke-width:1.0;" x1="69.0171" x2="483.7329" y1="264.4063" y2="264.4063"/><text fill="#000000" font-family="sans-serif" font-size="13" lengthAdjust="spacing" textLength="121.418" x="76.0171" y="259.1436">types requested date</text><polygon fill="#181818" points="80.0171,291.6973,70.0171,295.6973,80.0171,299.6973,76.0171,295.6973" style="stroke:#181818;stroke-width:1.0;"/><line style="stroke:#181818;stroke-width:1.0;" x1="74.0171" x2="493.7329" y1="295.6973" y2="295.6973"/><text fill="#000000" font-family="sans-serif" font-size="13" lengthAdjust="spacing" textLength="249.2915" x="86.0171" y="290.4346">Shows the list of the clients representatives</text><polygon fill="#181818" points="477.7329,322.9883,487.7329,326.9883,477.7329,330.9883,481.7329,326.9883" style="stroke:#181818;stroke-width:1.0;"/><line style="stroke:#181818;stroke-width:1.0;" x1="69.0171" x2="483.7329" y1="326.9883" y2="326.9883"/><text fill="#000000" font-family="sans-serif" font-size="13" lengthAdjust="spacing" textLength="137.2935" x="76.0171" y="321.7256">selects a representative</text><polygon fill="#181818" points="80.0171,354.2793,70.0171,358.2793,80.0171,362.2793,76.0171,358.2793" style="stroke:#181818;stroke-width:1.0;"/><line style="stroke:#181818;stroke-width:1.0;" x1="74.0171" x2="493.7329" y1="358.2793" y2="358.2793"/><text fill="#000000" font-family="sans-serif" font-size="13" lengthAdjust="spacing" textLength="396.7158" x="86.0171" y="353.0166">disables the costumer representative and displays operation success</text><!--SRC=[fPDDRnen48Rl_XKZJY2L26XKefLIjOLKAWrAn49w7hm3M7ZjhJqcujztTlbeaaOvD3wixF7uVPzPZ-FMk0e3bb1wv_Kc-9A0Go8LppiLwYskAUUz9GYa6TtQFas86opyet5hMA6Df1HgzW5QezaKHjvQNFg04ca1Hj2XV1fJ8i56cmeTGolVHwQooOlDL2asBBQ73SZfToAd2SO6rxLr5nRvu6DFARY-XXcjZQG5G47oZy8gsP5bIu4WcHqo_UEle1ulej3zV0I03Bx6BR0NjLVL3-VFyYTiE8sZZ0Y-zCZEW0KojgtNoCQx3_MIv9l2SUrIkHHVlu8YU4Undl666epEmQcWrmdUgeltbMWT6QXeRDzJJIuuiG6pygDEaDeQSbpxL86YJAMe7SN_nuvafGUZNCDpoVUW5oRYqjA1Nll8gPGV_bmVq1LrOcLnBrTGqU5w82QjARvHq1ToHIgjKlTMcdmnlOKTXLWVxLyCUeFBYs4xHvRUhg0tXFuWwrzb_I7ykiddKEztL7lwOmxHfo2TBmGSp3BLtXqrmHt2B3as9MLmLv6RZ7-U0d3ZTaOwffGIrEHX-ZVXqsNtcwajWw30mrIDQON9ifpGlf2NdC5Y_hrxfMxbhITv_1bKh4PUTCC-W_lv7m00]--></g></svg>