<svg xmlns="http://www.w3.org/2000/svg" xmlns:xlink="http://www.w3.org/1999/xlink" contentStyleType="text/css" height="816px" preserveAspectRatio="none" style="width:582px;height:816px;background:#FFFFFF;" version="1.1" viewBox="0 0 582 816" width="582px" zoomAndPan="magnify"><title>System Sequence Diagram - US230</title><defs/><g><text fill="#000000" font-family="sans-serif" font-size="14" font-weight="bold" lengthAdjust="spacing" textLength="234.9922" x="169.5225" y="30.1074">System Sequence Diagram - US230</text><rect fill="#FFFFFF" height="591.5" style="stroke:#181818;stroke-width:1.0;" width="10" x="84.0171" y="133.2422"/><rect fill="#FFFFFF" height="31.291" style="stroke:#181818;stroke-width:1.0;" width="10" x="509.6992" y="201.8242"/><rect fill="#FFFFFF" height="74.873" style="stroke:#181818;stroke-width:1.0;" width="10" x="509.6992" y="264.4063"/><rect fill="#FFFFFF" height="194.377" style="stroke:#181818;stroke-width:1.0;" width="10" x="509.6992" y="370.5703"/><rect fill="#FFFFFF" height="93.2129" style="stroke:#181818;stroke-width:1.0;" width="10" x="509.6992" y="622.5293"/><rect fill="none" height="211.668" style="stroke:#000000;stroke-width:1.5;" width="555.0371" x="10" y="279.4063"/><rect fill="none" height="98.5039" style="stroke:#000000;stroke-width:1.5;" width="535.0371" x="20" y="385.5703"/><rect fill="none" height="180.377" style="stroke:#000000;stroke-width:1.5;" width="555.0371" x="10" y="505.0742"/><rect fill="none" height="98.5039" style="stroke:#000000;stroke-width:1.5;" width="535.0371" x="20" y="579.9473"/><line style="stroke:#181818;stroke-width:0.5;stroke-dasharray:5.0,5.0;" x1="89" x2="89" y1="123.2422" y2="733.7422"/><line style="stroke:#181818;stroke-width:0.5;stroke-dasharray:5.0,5.0;" x1="514.3613" x2="514.3613" y1="123.2422" y2="733.7422"/><text fill="#000000" font-family="sans-serif" font-size="14" lengthAdjust="spacing" textLength="112.0342" x="30" y="119.7285">CRM Collaborator</text><ellipse cx="89.0171" cy="53.1211" fill="#E3E3E3" rx="8" ry="8" style="stroke:#181818;stroke-width:0.5;"/><path d="M89.0171,61.1211 L89.0171,88.1211 M76.0171,69.1211 L102.0171,69.1211 M89.0171,88.1211 L76.0171,103.1211 M89.0171,88.1211 L102.0171,103.1211 " fill="none" style="stroke:#181818;stroke-width:0.5;"/><text fill="#000000" font-family="sans-serif" font-size="14" lengthAdjust="spacing" textLength="112.0342" x="30" y="747.8496">CRM Collaborator</text><ellipse cx="89.0171" cy="759.8633" fill="#E3E3E3" rx="8" ry="8" style="stroke:#181818;stroke-width:0.5;"/><path d="M89.0171,767.8633 L89.0171,794.8633 M76.0171,775.8633 L102.0171,775.8633 M89.0171,794.8633 L76.0171,809.8633 M89.0171,794.8633 L102.0171,809.8633 " fill="none" style="stroke:#181818;stroke-width:0.5;"/><rect fill="#E3E3E3" height="32.6211" rx="2.5" ry="2.5" style="stroke:#181818;stroke-width:0.5;" width="60.6758" x="484.3613" y="89.6211"/><text fill="#000000" font-family="sans-serif" font-size="14" lengthAdjust="spacing" textLength="46.6758" x="491.3613" y="111.7285">System</text><rect fill="#E3E3E3" height="32.6211" rx="2.5" ry="2.5" style="stroke:#181818;stroke-width:0.5;" width="60.6758" x="484.3613" y="732.7422"/><text fill="#000000" font-family="sans-serif" font-size="14" lengthAdjust="spacing" textLength="46.6758" x="491.3613" y="754.8496">System</text><rect fill="#FFFFFF" height="591.5" style="stroke:#181818;stroke-width:1.0;" width="10" x="84.0171" y="133.2422"/><rect fill="#FFFFFF" height="31.291" style="stroke:#181818;stroke-width:1.0;" width="10" x="509.6992" y="201.8242"/><rect fill="#FFFFFF" height="74.873" style="stroke:#181818;stroke-width:1.0;" width="10" x="509.6992" y="264.4063"/><rect fill="#FFFFFF" height="194.377" style="stroke:#181818;stroke-width:1.0;" width="10" x="509.6992" y="370.5703"/><rect fill="#FFFFFF" height="93.2129" style="stroke:#181818;stroke-width:1.0;" width="10" x="509.6992" y="622.5293"/><rect fill="#EEEEEE" height="3" style="stroke:#EEEEEE;stroke-width:1.0;" width="575.0371" x="0" y="154.8877"/><line style="stroke:#000000;stroke-width:1.0;" x1="0" x2="575.0371" y1="154.8877" y2="154.8877"/><line style="stroke:#000000;stroke-width:1.0;" x1="0" x2="575.0371" y1="157.8877" y2="157.8877"/><rect fill="#EEEEEE" height="25.291" style="stroke:#000000;stroke-width:2.0;" width="167.8799" x="203.5786" y="143.2422"/><text fill="#000000" font-family="sans-serif" font-size="13" font-weight="bold" lengthAdjust="spacing" textLength="150.2681" x="209.5786" y="161.2705">Register a show request</text><polygon fill="#181818" points="497.6992,197.8242,507.6992,201.8242,497.6992,205.8242,501.6992,201.8242" style="stroke:#181818;stroke-width:1.0;"/><line style="stroke:#181818;stroke-width:1.0;" x1="94.0171" x2="503.6992" y1="201.8242" y2="201.8242"/><text fill="#000000" font-family="sans-serif" font-size="13" lengthAdjust="spacing" textLength="174.8589" x="101.0171" y="196.5615">Ask to register a show request</text><polygon fill="#181818" points="105.0171,229.1152,95.0171,233.1152,105.0171,237.1152,101.0171,233.1152" style="stroke:#181818;stroke-width:1.0;"/><line style="stroke:#181818;stroke-width:1.0;" x1="99.0171" x2="513.6992" y1="233.1152" y2="233.1152"/><text fill="#000000" font-family="sans-serif" font-size="13" lengthAdjust="spacing" textLength="391.6821" x="111.0171" y="227.8525">request data(location, date, duration, number of drones of the show)</text><polygon fill="#181818" points="497.6992,260.4063,507.6992,264.4063,497.6992,268.4063,501.6992,264.4063" style="stroke:#181818;stroke-width:1.0;"/><line style="stroke:#181818;stroke-width:1.0;" x1="94.0171" x2="503.6992" y1="264.4063" y2="264.4063"/><text fill="#000000" font-family="sans-serif" font-size="13" lengthAdjust="spacing" textLength="121.418" x="101.0171" y="259.1436">types requested date</text><path d="M10,279.4063 L82.4346,279.4063 L82.4346,288.6973 L72.4346,298.6973 L10,298.6973 L10,279.4063 " fill="#EEEEEE" style="stroke:#000000;stroke-width:1.5;"/><rect fill="none" height="211.668" style="stroke:#000000;stroke-width:1.5;" width="555.0371" x="10" y="279.4063"/><text fill="#000000" font-family="sans-serif" font-size="13" font-weight="bold" lengthAdjust="spacing" textLength="27.4346" x="25" y="294.4346">loop</text><text fill="#000000" font-family="sans-serif" font-size="11" font-weight="bold" lengthAdjust="spacing" textLength="185.8184" x="97.4346" y="293.2764">[While user wants to create figures]</text><polygon fill="#181818" points="105.0171,335.2793,95.0171,339.2793,105.0171,343.2793,101.0171,339.2793" style="stroke:#181818;stroke-width:1.0;"/><line style="stroke:#181818;stroke-width:1.0;" x1="99.0171" x2="513.6992" y1="339.2793" y2="339.2793"/><text fill="#000000" font-family="sans-serif" font-size="13" lengthAdjust="spacing" textLength="306.395" x="111.0171" y="316.7256">displays the list of the current figures in the catalogue</text><text fill="#000000" font-family="sans-serif" font-size="13" lengthAdjust="spacing" textLength="278.9287" x="111.0171" y="334.0166">and asks if the user wants to create a new figure</text><polygon fill="#181818" points="497.6992,366.5703,507.6992,370.5703,497.6992,374.5703,501.6992,370.5703" style="stroke:#181818;stroke-width:1.0;"/><line style="stroke:#181818;stroke-width:1.0;" x1="94.0171" x2="503.6992" y1="370.5703" y2="370.5703"/><text fill="#000000" font-family="sans-serif" font-size="13" lengthAdjust="spacing" textLength="132.2217" x="101.0171" y="365.3076">answers with yes or no</text><path d="M20,385.5703 L80.1709,385.5703 L80.1709,394.8613 L70.1709,404.8613 L20,404.8613 L20,385.5703 " fill="#EEEEEE" style="stroke:#000000;stroke-width:1.5;"/><rect fill="none" height="98.5039" style="stroke:#000000;stroke-width:1.5;" width="535.0371" x="20" y="385.5703"/><text fill="#000000" font-family="sans-serif" font-size="13" font-weight="bold" lengthAdjust="spacing" textLength="15.1709" x="35" y="400.5986">alt</text><text fill="#000000" font-family="sans-serif" font-size="11" font-weight="bold" lengthAdjust="spacing" textLength="182.1606" x="95.1709" y="399.4404">[User wants to create a new figure]</text><polygon fill="#181818" points="105.0171,424.1523,95.0171,428.1523,105.0171,432.1523,101.0171,428.1523" style="stroke:#181818;stroke-width:1.0;"/><line style="stroke:#181818;stroke-width:1.0;" x1="99.0171" x2="508.6992" y1="428.1523" y2="428.1523"/><text fill="#000000" font-family="sans-serif" font-size="13" lengthAdjust="spacing" textLength="108.4053" x="111.0171" y="422.8896">request figure data</text><polygon fill="#181818" points="497.6992,455.4434,507.6992,459.4434,497.6992,463.4434,501.6992,459.4434" style="stroke:#181818;stroke-width:1.0;"/><line style="stroke:#181818;stroke-width:1.0;" x1="94.0171" x2="503.6992" y1="459.4434" y2="459.4434"/><text fill="#000000" font-family="sans-serif" font-size="13" lengthAdjust="spacing" textLength="96.1162" x="101.0171" y="454.1807">types figure data</text><line style="stroke:#000000;stroke-width:1.0;stroke-dasharray:2.0,2.0;" x1="20" x2="555.0371" y1="468.4434" y2="468.4434"/><text fill="#000000" font-family="sans-serif" font-size="11" font-weight="bold" lengthAdjust="spacing" textLength="200.4814" x="25" y="480.3135">[User does not want to create a figure]</text><path d="M10,505.0742 L82.4346,505.0742 L82.4346,514.3652 L72.4346,524.3652 L10,524.3652 L10,505.0742 " fill="#EEEEEE" style="stroke:#000000;stroke-width:1.5;"/><rect fill="none" height="180.377" style="stroke:#000000;stroke-width:1.5;" width="555.0371" x="10" y="505.0742"/><text fill="#000000" font-family="sans-serif" font-size="13" font-weight="bold" lengthAdjust="spacing" textLength="27.4346" x="25" y="520.1025">loop</text><text fill="#000000" font-family="sans-serif" font-size="11" font-weight="bold" lengthAdjust="spacing" textLength="237.123" x="97.4346" y="518.9443">[While user wants to add figures to the show]</text><polygon fill="#181818" points="105.0171,560.9473,95.0171,564.9473,105.0171,568.9473,101.0171,564.9473" style="stroke:#181818;stroke-width:1.0;"/><line style="stroke:#181818;stroke-width:1.0;" x1="99.0171" x2="513.6992" y1="564.9473" y2="564.9473"/><text fill="#000000" font-family="sans-serif" font-size="13" lengthAdjust="spacing" textLength="303.4878" x="111.0171" y="542.3936">displays the list of figures and asks the user to select</text><text fill="#000000" font-family="sans-serif" font-size="13" lengthAdjust="spacing" textLength="249.3042" x="111.0171" y="559.6846">the figures according with the desired order</text><path d="M20,579.9473 L80.1709,579.9473 L80.1709,589.2383 L70.1709,599.2383 L20,599.2383 L20,579.9473 " fill="#EEEEEE" style="stroke:#000000;stroke-width:1.5;"/><rect fill="none" height="98.5039" style="stroke:#000000;stroke-width:1.5;" width="535.0371" x="20" y="579.9473"/><text fill="#000000" font-family="sans-serif" font-size="13" font-weight="bold" lengthAdjust="spacing" textLength="15.1709" x="35" y="594.9756">alt</text><text fill="#000000" font-family="sans-serif" font-size="11" font-weight="bold" lengthAdjust="spacing" textLength="183.3799" x="95.1709" y="593.8174">[User selects a figure for the show]</text><polygon fill="#181818" points="497.6992,618.5293,507.6992,622.5293,497.6992,626.5293,501.6992,622.5293" style="stroke:#181818;stroke-width:1.0;"/><line style="stroke:#181818;stroke-width:1.0;" x1="94.0171" x2="503.6992" y1="622.5293" y2="622.5293"/><text fill="#000000" font-family="sans-serif" font-size="13" lengthAdjust="spacing" textLength="122.8398" x="101.0171" y="617.2666">selects desired figure</text><polygon fill="#181818" points="105.0171,649.8203,95.0171,653.8203,105.0171,657.8203,101.0171,653.8203" style="stroke:#181818;stroke-width:1.0;"/><line style="stroke:#181818;stroke-width:1.0;" x1="99.0171" x2="508.6992" y1="653.8203" y2="653.8203"/><text fill="#000000" font-family="sans-serif" font-size="13" lengthAdjust="spacing" textLength="240.646" x="111.0171" y="648.5576">displays the sequence figures in the show</text><line style="stroke:#000000;stroke-width:1.0;stroke-dasharray:2.0,2.0;" x1="20" x2="555.0371" y1="662.8203" y2="662.8203"/><text fill="#000000" font-family="sans-serif" font-size="11" font-weight="bold" lengthAdjust="spacing" textLength="290.3184" x="25" y="674.6904">[User does not want to select more figures to the show]</text><polygon fill="#181818" points="105.0171,711.7422,95.0171,715.7422,105.0171,719.7422,101.0171,715.7422" style="stroke:#181818;stroke-width:1.0;"/><line style="stroke:#181818;stroke-width:1.0;" x1="99.0171" x2="513.6992" y1="715.7422" y2="715.7422"/><text fill="#000000" font-family="sans-serif" font-size="13" lengthAdjust="spacing" textLength="155.3589" x="111.0171" y="710.4795">displays operation success</text><!--SRC=[fLLDJnin4BtxLumuWTGWagA2Lg9g2rGg9IeY2Lnw6RoJnCgklVL7elpxZlUh6nf2QFUmMezdtZpFFC-wXT85MimXDzh8kJKvWRU1X6jt2fGBdD78hpC2IzAZdcLT1pV7rAoKdi4KCqT2eFJ6mi7b_H0kJPRXax78bWD01zBcNPjW2A-aAb1xE1YjdQUyz7Fbfn1UUKvRRS28VWNIak1AuIocxi5aD7X_8WHSNC0zpHIxMK2cP5RCbRsTvoq1J4ajqTDV-GN4vvaLUXzh0f30PxS0RnXjAteLty8tjA5vQXW6V9uZQGccwF4mCnAzClfTN1A_WwtNEkHFdDTC8RL6aujVVaubZQCgKqhR6UmwbryNZ5LpeBHC-zffCcCAU9mhRabmp6d5RNEnEj9I39YgMR3azZj-gboHuTgLXycukCt1PB2MM0yr6YXTcRbCcPa5WfyQTSegMV1U5RAL3OAcLOtoxtL2xLPa7QoKdyCwbj-2DgzL2ZCFa_r8lK4fLLWfc8tOr_kyDPBukbOiKyC-slYIxWRRccadIASlBFRG2QPfsrPUDZB-3y4qQAqYMZamlgEC1nRh9HfRJocDJUEyAbiQjr9ool8TO3i7lgILpSPMsAuj4KoPvEQ1ThMb2MzITnMnDN6tm7jNoJKJyzbTsYZw3XdK1SoDfPrzOnrqw7LLyJREfg1gx84BKf9pB_IY1Fx4UKAU2N6NCTt9y1QMV55ZSFzuS38uFJux7A7dlqO19sVG7oJzywH_1e_Nep74_IDnEFms1cU2vGen1s_LKuZPZyGDBX7kW_OgfmH-5AHlhhut1hZMIyMpEESf9MuUXdySFfpslgYOqZ8LU1YAAvfYOCbSQscYvXAOZB_spiKj_qK3_rOJABouD8nhrmdSZNy3]--></g></svg>