<svg xmlns="http://www.w3.org/2000/svg" xmlns:xlink="http://www.w3.org/1999/xlink" contentStyleType="text/css" height="459px" preserveAspectRatio="none" style="width:308px;height:459px;background:#FFFFFF;" version="1.1" viewBox="0 0 308 459" width="308px" zoomAndPan="magnify"><title>System Sequence Diagram - US327</title><defs/><g><text fill="#000000" font-family="sans-serif" font-size="14" font-weight="bold" lengthAdjust="spacing" textLength="234.9922" x="32.5625" y="30.1074">System Sequence Diagram - US327</text><rect fill="#FFFFFF" height="234.0371" style="stroke:#181818;stroke-width:1.0;" width="10" x="39.5723" y="133.2422"/><rect fill="#FFFFFF" height="31.291" style="stroke:#181818;stroke-width:1.0;" width="10" x="260.7793" y="201.8242"/><rect fill="#FFFFFF" height="31.291" style="stroke:#181818;stroke-width:1.0;" width="10" x="260.7793" y="264.4063"/><rect fill="#FFFFFF" height="31.291" style="stroke:#181818;stroke-width:1.0;" width="10" x="260.7793" y="326.9883"/><line style="stroke:#181818;stroke-width:0.5;stroke-dasharray:5.0,5.0;" x1="44" x2="44" y1="123.2422" y2="376.2793"/><line style="stroke:#181818;stroke-width:0.5;stroke-dasharray:5.0,5.0;" x1="265.4414" x2="265.4414" y1="123.2422" y2="376.2793"/><text fill="#000000" font-family="sans-serif" font-size="14" lengthAdjust="spacing" textLength="73.1445" x="5" y="119.7285">Drone Tech</text><ellipse cx="44.5723" cy="53.1211" fill="#E3E3E3" rx="8" ry="8" style="stroke:#181818;stroke-width:0.5;"/><path d="M44.5723,61.1211 L44.5723,88.1211 M31.5723,69.1211 L57.5723,69.1211 M44.5723,88.1211 L31.5723,103.1211 M44.5723,88.1211 L57.5723,103.1211 " fill="none" style="stroke:#181818;stroke-width:0.5;"/><text fill="#000000" font-family="sans-serif" font-size="14" lengthAdjust="spacing" textLength="73.1445" x="5" y="390.3867">Drone Tech</text><ellipse cx="44.5723" cy="402.4004" fill="#E3E3E3" rx="8" ry="8" style="stroke:#181818;stroke-width:0.5;"/><path d="M44.5723,410.4004 L44.5723,437.4004 M31.5723,418.4004 L57.5723,418.4004 M44.5723,437.4004 L31.5723,452.4004 M44.5723,437.4004 L57.5723,452.4004 " fill="none" style="stroke:#181818;stroke-width:0.5;"/><rect fill="#E3E3E3" height="32.6211" rx="2.5" ry="2.5" style="stroke:#181818;stroke-width:0.5;" width="60.6758" x="235.4414" y="89.6211"/><text fill="#000000" font-family="sans-serif" font-size="14" lengthAdjust="spacing" textLength="46.6758" x="242.4414" y="111.7285">System</text><rect fill="#E3E3E3" height="32.6211" rx="2.5" ry="2.5" style="stroke:#181818;stroke-width:0.5;" width="60.6758" x="235.4414" y="375.2793"/><text fill="#000000" font-family="sans-serif" font-size="14" lengthAdjust="spacing" textLength="46.6758" x="242.4414" y="397.3867">System</text><rect fill="#FFFFFF" height="234.0371" style="stroke:#181818;stroke-width:1.0;" width="10" x="39.5723" y="133.2422"/><rect fill="#FFFFFF" height="31.291" style="stroke:#181818;stroke-width:1.0;" width="10" x="260.7793" y="201.8242"/><rect fill="#FFFFFF" height="31.291" style="stroke:#181818;stroke-width:1.0;" width="10" x="260.7793" y="264.4063"/><rect fill="#FFFFFF" height="31.291" style="stroke:#181818;stroke-width:1.0;" width="10" x="260.7793" y="326.9883"/><rect fill="#EEEEEE" height="3" style="stroke:#EEEEEE;stroke-width:1.0;" width="301.1172" x="0" y="154.8877"/><line style="stroke:#000000;stroke-width:1.0;" x1="0" x2="301.1172" y1="154.8877" y2="154.8877"/><line style="stroke:#000000;stroke-width:1.0;" x1="0" x2="301.1172" y1="157.8877" y2="157.8877"/><rect fill="#EEEEEE" height="25.291" style="stroke:#000000;stroke-width:2.0;" width="180.8799" x="60.1187" y="143.2422"/><text fill="#000000" font-family="sans-serif" font-size="13" font-weight="bold" lengthAdjust="spacing" textLength="163.2681" x="66.1187" y="161.2705">Register drone usage time</text><polygon fill="#181818" points="248.7793,197.8242,258.7793,201.8242,248.7793,205.8242,252.7793,201.8242" style="stroke:#181818;stroke-width:1.0;"/><line style="stroke:#181818;stroke-width:1.0;" x1="49.5723" x2="254.7793" y1="201.8242" y2="201.8242"/><text fill="#000000" font-family="sans-serif" font-size="13" lengthAdjust="spacing" textLength="192.207" x="56.5723" y="196.5615">asks to register drone usage time</text><polygon fill="#181818" points="60.5723,229.1152,50.5723,233.1152,60.5723,237.1152,56.5723,233.1152" style="stroke:#181818;stroke-width:1.0;"/><line style="stroke:#181818;stroke-width:1.0;stroke-dasharray:2.0,2.0;" x1="54.5723" x2="264.7793" y1="233.1152" y2="233.1152"/><text fill="#000000" font-family="sans-serif" font-size="13" lengthAdjust="spacing" textLength="114.1626" x="66.5723" y="227.8525">shows list of drones</text><polygon fill="#181818" points="248.7793,260.4063,258.7793,264.4063,248.7793,268.4063,252.7793,264.4063" style="stroke:#181818;stroke-width:1.0;"/><line style="stroke:#181818;stroke-width:1.0;" x1="49.5723" x2="254.7793" y1="264.4063" y2="264.4063"/><text fill="#000000" font-family="sans-serif" font-size="13" lengthAdjust="spacing" textLength="77.3208" x="56.5723" y="259.1436">selects drone</text><polygon fill="#181818" points="60.5723,291.6973,50.5723,295.6973,60.5723,299.6973,56.5723,295.6973" style="stroke:#181818;stroke-width:1.0;"/><line style="stroke:#181818;stroke-width:1.0;stroke-dasharray:2.0,2.0;" x1="54.5723" x2="264.7793" y1="295.6973" y2="295.6973"/><text fill="#000000" font-family="sans-serif" font-size="13" lengthAdjust="spacing" textLength="112.7153" x="66.5723" y="290.4346">asks for usage time</text><polygon fill="#181818" points="248.7793,322.9883,258.7793,326.9883,248.7793,330.9883,252.7793,326.9883" style="stroke:#181818;stroke-width:1.0;"/><line style="stroke:#181818;stroke-width:1.0;" x1="49.5723" x2="254.7793" y1="326.9883" y2="326.9883"/><text fill="#000000" font-family="sans-serif" font-size="13" lengthAdjust="spacing" textLength="116.3398" x="56.5723" y="321.7256">provides usage time</text><polygon fill="#181818" points="60.5723,354.2793,50.5723,358.2793,60.5723,362.2793,56.5723,358.2793" style="stroke:#181818;stroke-width:1.0;"/><line style="stroke:#181818;stroke-width:1.0;stroke-dasharray:2.0,2.0;" x1="54.5723" x2="264.7793" y1="358.2793" y2="358.2793"/><text fill="#000000" font-family="sans-serif" font-size="13" lengthAdjust="spacing" textLength="117.0381" x="66.5723" y="353.0166">confirms registration</text><!--SRC=[ZP1DReD038NtFeMLFPjsKIaINUK4fJs0DHWO0MCwDebo-mu_JL0RgkvisNxVyzFMXu4YzTXB4DT4wHajZWnwcmpaMggvi6l76DaPXRhRBcX3fLnygB6YJXc0d4d4mobAO7ndrnoG5CkfdJf8P-QT7oWO7egh6lVpXiubW7bBg6M01N-E71pZoLCzuJByA9wVNW3o7D-uzcahBk8uQZAAvjCJUJxPy6Sotf3XLcBsklBmcDYjeadwRaVkhlNjSRtDainTyvYoa8jYbrHGgcMYKFBFyySsbBiKxvhKB-GESVPUfRmtRlyB7AASVSdwrwSxM2UXyh7NDRD8vYKy00Dy0G00]--></g></svg>