<svg xmlns="http://www.w3.org/2000/svg" xmlns:xlink="http://www.w3.org/1999/xlink" contentStyleType="text/css" height="976px" preserveAspectRatio="none" style="width:1349px;height:976px;background:#FFFFFF;" version="1.1" viewBox="0 0 1349 976" width="1349px" zoomAndPan="magnify"><title>Sequence Diagram</title><defs/><g><text fill="#000000" font-family="sans-serif" font-size="14" font-weight="bold" lengthAdjust="spacing" textLength="126.0479" x="612.6555" y="30.1074">Sequence Diagram</text><rect fill="#FFFFFF" height="742.3047" style="stroke:#181818;stroke-width:1.0;" width="10" x="39.5723" y="133.2422"/><rect fill="#FFFFFF" height="406.1035" style="stroke:#181818;stroke-width:1.0;" width="10" x="229.7139" y="156.5332"/><rect fill="#FFFFFF" height="281.6191" style="stroke:#181818;stroke-width:1.0;" width="10" x="229.7139" y="593.9277"/><rect fill="#FFFFFF" height="281.2793" style="stroke:#181818;stroke-width:1.0;" width="10" x="396.0996" y="250.0664"/><rect fill="#FFFFFF" height="219.0371" style="stroke:#181818;stroke-width:1.0;" width="10" x="396.0996" y="625.2188"/><rect fill="#FFFFFF" height="156.4551" style="stroke:#181818;stroke-width:1.0;" width="10" x="882.3657" y="343.5996"/><rect fill="#FFFFFF" height="156.4551" style="stroke:#181818;stroke-width:1.0;" width="10" x="882.3657" y="656.5098"/><rect fill="#FFFFFF" height="93.873" style="stroke:#181818;stroke-width:1.0;" width="10" x="1142.3892" y="374.8906"/><rect fill="#FFFFFF" height="93.873" style="stroke:#181818;stroke-width:1.0;" width="10" x="1142.3892" y="687.8008"/><rect fill="#FFFFFF" height="31.291" style="stroke:#181818;stroke-width:1.0;" width="10" x="1309.3936" y="406.1816"/><rect fill="#FFFFFF" height="31.291" style="stroke:#181818;stroke-width:1.0;" width="10" x="1309.3936" y="719.0918"/><line style="stroke:#181818;stroke-width:0.5;stroke-dasharray:5.0,5.0;" x1="44" x2="44" y1="123.2422" y2="893.5469"/><line style="stroke:#181818;stroke-width:0.5;stroke-dasharray:5.0,5.0;" x1="234.1934" x2="234.1934" y1="123.2422" y2="893.5469"/><line style="stroke:#181818;stroke-width:0.5;stroke-dasharray:5.0,5.0;" x1="400.2344" x2="400.2344" y1="205.6543" y2="893.5469"/><line style="stroke:#181818;stroke-width:0.5;stroke-dasharray:5.0,5.0;" x1="715.7012" x2="715.7012" y1="299.1875" y2="893.5469"/><line style="stroke:#181818;stroke-width:0.5;stroke-dasharray:5.0,5.0;" x1="887.1006" x2="887.1006" y1="123.2422" y2="893.5469"/><line style="stroke:#181818;stroke-width:0.5;stroke-dasharray:5.0,5.0;" x1="1032.6309" x2="1032.6309" y1="123.2422" y2="893.5469"/><line style="stroke:#181818;stroke-width:0.5;stroke-dasharray:5.0,5.0;" x1="1146.8652" x2="1146.8652" y1="123.2422" y2="893.5469"/><line style="stroke:#181818;stroke-width:0.5;stroke-dasharray:5.0,5.0;" x1="1313.4282" x2="1313.4282" y1="123.2422" y2="893.5469"/><text fill="#000000" font-family="sans-serif" font-size="14" lengthAdjust="spacing" textLength="73.1445" x="5" y="119.7285">Drone Tech</text><ellipse cx="44.5723" cy="53.1211" fill="#E2E2F0" rx="8" ry="8" style="stroke:#181818;stroke-width:0.5;"/><path d="M44.5723,61.1211 L44.5723,88.1211 M31.5723,69.1211 L57.5723,69.1211 M44.5723,88.1211 L31.5723,103.1211 M44.5723,88.1211 L57.5723,103.1211 " fill="none" style="stroke:#181818;stroke-width:0.5;"/><text fill="#000000" font-family="sans-serif" font-size="14" lengthAdjust="spacing" textLength="73.1445" x="5" y="907.6543">Drone Tech</text><ellipse cx="44.5723" cy="919.668" fill="#E2E2F0" rx="8" ry="8" style="stroke:#181818;stroke-width:0.5;"/><path d="M44.5723,927.668 L44.5723,954.668 M31.5723,935.668 L57.5723,935.668 M44.5723,954.668 L31.5723,969.668 M44.5723,954.668 L57.5723,969.668 " fill="none" style="stroke:#181818;stroke-width:0.5;"/><rect fill="#E2E2F0" height="51.2422" rx="2.5" ry="2.5" style="stroke:#181818;stroke-width:0.5;" width="133.041" x="168.1934" y="71"/><text fill="#000000" font-family="sans-serif" font-size="14" font-style="italic" lengthAdjust="spacing" textLength="92.627" x="188.4004" y="93.1074">&#171;presentation&#187;</text><text fill="#000000" font-family="sans-serif" font-size="14" lengthAdjust="spacing" textLength="119.041" x="175.1934" y="111.7285">ListActiveDronesUI</text><rect fill="#E2E2F0" height="51.2422" rx="2.5" ry="2.5" style="stroke:#181818;stroke-width:0.5;" width="133.041" x="168.1934" y="892.5469"/><text fill="#000000" font-family="sans-serif" font-size="14" font-style="italic" lengthAdjust="spacing" textLength="92.627" x="188.4004" y="914.6543">&#171;presentation&#187;</text><text fill="#000000" font-family="sans-serif" font-size="14" lengthAdjust="spacing" textLength="119.041" x="175.1934" y="933.2754">ListActiveDronesUI</text><rect fill="#E2E2F0" height="51.2422" rx="2.5" ry="2.5" style="stroke:#181818;stroke-width:0.5;" width="179.7305" x="311.2344" y="892.5469"/><text fill="#000000" font-family="sans-serif" font-size="14" font-style="italic" lengthAdjust="spacing" textLength="82.5098" x="359.8447" y="914.6543">&#171;application&#187;</text><text fill="#000000" font-family="sans-serif" font-size="14" lengthAdjust="spacing" textLength="165.7305" x="318.2344" y="933.2754">ListActiveDronesController</text><rect fill="#E2E2F0" height="51.2422" rx="2.5" ry="2.5" style="stroke:#181818;stroke-width:0.5;" width="142.3994" x="644.7012" y="892.5469"/><text fill="#000000" font-family="sans-serif" font-size="14" font-style="italic" lengthAdjust="spacing" textLength="42.8203" x="694.4907" y="914.6543">&#171;auth&#187;</text><text fill="#000000" font-family="sans-serif" font-size="14" lengthAdjust="spacing" textLength="128.3994" x="651.7012" y="933.2754">AuthorizationService</text><rect fill="#E2E2F0" height="51.2422" rx="2.5" ry="2.5" style="stroke:#181818;stroke-width:0.5;" width="180.5303" x="797.1006" y="71"/><text fill="#000000" font-family="sans-serif" font-size="14" font-style="italic" lengthAdjust="spacing" textLength="82.5098" x="846.1108" y="93.1074">&#171;application&#187;</text><text fill="#000000" font-family="sans-serif" font-size="14" lengthAdjust="spacing" textLength="166.5303" x="804.1006" y="111.7285">DroneManagementService</text><rect fill="#E2E2F0" height="51.2422" rx="2.5" ry="2.5" style="stroke:#181818;stroke-width:0.5;" width="180.5303" x="797.1006" y="892.5469"/><text fill="#000000" font-family="sans-serif" font-size="14" font-style="italic" lengthAdjust="spacing" textLength="82.5098" x="846.1108" y="914.6543">&#171;application&#187;</text><text fill="#000000" font-family="sans-serif" font-size="14" lengthAdjust="spacing" textLength="166.5303" x="804.1006" y="933.2754">DroneManagementService</text><rect fill="#E2E2F0" height="51.2422" rx="2.5" ry="2.5" style="stroke:#181818;stroke-width:0.5;" width="90.2344" x="987.6309" y="71"/><text fill="#000000" font-family="sans-serif" font-size="14" font-style="italic" lengthAdjust="spacing" textLength="61.4893" x="1002.0034" y="93.1074">&#171;domain&#187;</text><text fill="#000000" font-family="sans-serif" font-size="14" lengthAdjust="spacing" textLength="76.2344" x="994.6309" y="111.7285">SystemUser</text><rect fill="#E2E2F0" height="51.2422" rx="2.5" ry="2.5" style="stroke:#181818;stroke-width:0.5;" width="90.2344" x="987.6309" y="892.5469"/><text fill="#000000" font-family="sans-serif" font-size="14" font-style="italic" lengthAdjust="spacing" textLength="61.4893" x="1002.0034" y="914.6543">&#171;domain&#187;</text><text fill="#000000" font-family="sans-serif" font-size="14" lengthAdjust="spacing" textLength="76.2344" x="994.6309" y="933.2754">SystemUser</text><rect fill="#E2E2F0" height="51.2422" rx="2.5" ry="2.5" style="stroke:#181818;stroke-width:0.5;" width="119.0479" x="1087.8652" y="71"/><text fill="#000000" font-family="sans-serif" font-size="14" font-style="italic" lengthAdjust="spacing" textLength="77.041" x="1108.8687" y="93.1074">&#171;repository&#187;</text><text fill="#000000" font-family="sans-serif" font-size="14" lengthAdjust="spacing" textLength="105.0479" x="1094.8652" y="111.7285">DroneRepository</text><rect fill="#E2E2F0" height="51.2422" rx="2.5" ry="2.5" style="stroke:#181818;stroke-width:0.5;" width="119.0479" x="1087.8652" y="892.5469"/><text fill="#000000" font-family="sans-serif" font-size="14" font-style="italic" lengthAdjust="spacing" textLength="77.041" x="1108.8687" y="914.6543">&#171;repository&#187;</text><text fill="#000000" font-family="sans-serif" font-size="14" lengthAdjust="spacing" textLength="105.0479" x="1094.8652" y="933.2754">DroneRepository</text><text fill="#000000" font-family="sans-serif" font-size="14" lengthAdjust="spacing" textLength="59.9307" x="1281.4282" y="119.7285">Database</text><path d="M1296.3936,68.6211 C1296.3936,58.6211 1314.3936,58.6211 1314.3936,58.6211 C1314.3936,58.6211 1332.3936,58.6211 1332.3936,68.6211 L1332.3936,94.6211 C1332.3936,104.6211 1314.3936,104.6211 1314.3936,104.6211 C1314.3936,104.6211 1296.3936,104.6211 1296.3936,94.6211 L1296.3936,68.6211 " fill="#E2E2F0" style="stroke:#181818;stroke-width:1.5;"/><path d="M1296.3936,68.6211 C1296.3936,78.6211 1314.3936,78.6211 1314.3936,78.6211 C1314.3936,78.6211 1332.3936,78.6211 1332.3936,68.6211 " fill="none" style="stroke:#181818;stroke-width:1.5;"/><text fill="#000000" font-family="sans-serif" font-size="14" lengthAdjust="spacing" textLength="59.9307" x="1281.4282" y="907.6543">Database</text><path d="M1296.3936,921.168 C1296.3936,911.168 1314.3936,911.168 1314.3936,911.168 C1314.3936,911.168 1332.3936,911.168 1332.3936,921.168 L1332.3936,947.168 C1332.3936,957.168 1314.3936,957.168 1314.3936,957.168 C1314.3936,957.168 1296.3936,957.168 1296.3936,947.168 L1296.3936,921.168 " fill="#E2E2F0" style="stroke:#181818;stroke-width:1.5;"/><path d="M1296.3936,921.168 C1296.3936,931.168 1314.3936,931.168 1314.3936,931.168 C1314.3936,931.168 1332.3936,931.168 1332.3936,921.168 " fill="none" style="stroke:#181818;stroke-width:1.5;"/><rect fill="#FFFFFF" height="742.3047" style="stroke:#181818;stroke-width:1.0;" width="10" x="39.5723" y="133.2422"/><rect fill="#FFFFFF" height="406.1035" style="stroke:#181818;stroke-width:1.0;" width="10" x="229.7139" y="156.5332"/><rect fill="#FFFFFF" height="281.6191" style="stroke:#181818;stroke-width:1.0;" width="10" x="229.7139" y="593.9277"/><rect fill="#FFFFFF" height="281.2793" style="stroke:#181818;stroke-width:1.0;" width="10" x="396.0996" y="250.0664"/><rect fill="#FFFFFF" height="219.0371" style="stroke:#181818;stroke-width:1.0;" width="10" x="396.0996" y="625.2188"/><rect fill="#FFFFFF" height="156.4551" style="stroke:#181818;stroke-width:1.0;" width="10" x="882.3657" y="343.5996"/><rect fill="#FFFFFF" height="156.4551" style="stroke:#181818;stroke-width:1.0;" width="10" x="882.3657" y="656.5098"/><rect fill="#FFFFFF" height="93.873" style="stroke:#181818;stroke-width:1.0;" width="10" x="1142.3892" y="374.8906"/><rect fill="#FFFFFF" height="93.873" style="stroke:#181818;stroke-width:1.0;" width="10" x="1142.3892" y="687.8008"/><rect fill="#FFFFFF" height="31.291" style="stroke:#181818;stroke-width:1.0;" width="10" x="1309.3936" y="406.1816"/><rect fill="#FFFFFF" height="31.291" style="stroke:#181818;stroke-width:1.0;" width="10" x="1309.3936" y="719.0918"/><polygon fill="#181818" points="217.7139,152.5332,227.7139,156.5332,217.7139,160.5332,221.7139,156.5332" style="stroke:#181818;stroke-width:1.0;"/><line style="stroke:#181818;stroke-width:1.0;" x1="49.5723" x2="223.7139" y1="156.5332" y2="156.5332"/><text fill="#000000" font-family="sans-serif" font-size="13" lengthAdjust="spacing" textLength="39.0063" x="56.5723" y="151.2705">show()</text><polygon fill="#181818" points="299.2344,183.8242,309.2344,187.8242,299.2344,191.8242,303.2344,187.8242" style="stroke:#181818;stroke-width:1.0;"/><line style="stroke:#181818;stroke-width:1.0;" x1="239.7139" x2="305.2344" y1="187.8242" y2="187.8242"/><text fill="#000000" font-family="sans-serif" font-size="13" lengthAdjust="spacing" textLength="44.7891" x="246.7139" y="182.5615">create()</text><rect fill="#E2E2F0" height="51.2422" rx="2.5" ry="2.5" style="stroke:#181818;stroke-width:0.5;" width="179.7305" x="311.2344" y="164.5332"/><text fill="#000000" font-family="sans-serif" font-size="14" font-style="italic" lengthAdjust="spacing" textLength="82.5098" x="359.8447" y="186.6406">&#171;application&#187;</text><text fill="#000000" font-family="sans-serif" font-size="14" lengthAdjust="spacing" textLength="165.7305" x="318.2344" y="205.2617">ListActiveDronesController</text><polygon fill="#181818" points="384.0996,246.0664,394.0996,250.0664,384.0996,254.0664,388.0996,250.0664" style="stroke:#181818;stroke-width:1.0;"/><line style="stroke:#181818;stroke-width:1.0;" x1="239.7139" x2="390.0996" y1="250.0664" y2="250.0664"/><text fill="#000000" font-family="sans-serif" font-size="13" lengthAdjust="spacing" textLength="101.8608" x="246.7139" y="244.8037">listDroneModels()</text><polygon fill="#181818" points="632.7012,277.3574,642.7012,281.3574,632.7012,285.3574,636.7012,281.3574" style="stroke:#181818;stroke-width:1.0;"/><line style="stroke:#181818;stroke-width:1.0;" x1="406.0996" x2="638.7012" y1="281.3574" y2="281.3574"/><text fill="#000000" font-family="sans-serif" font-size="13" lengthAdjust="spacing" textLength="214.6016" x="413.0996" y="276.0947">ensureAuthenticatedUserHasAnyOf()</text><rect fill="#E2E2F0" height="51.2422" rx="2.5" ry="2.5" style="stroke:#181818;stroke-width:0.5;" width="142.3994" x="644.7012" y="258.0664"/><text fill="#000000" font-family="sans-serif" font-size="14" font-style="italic" lengthAdjust="spacing" textLength="42.8203" x="694.4907" y="280.1738">&#171;auth&#187;</text><text fill="#000000" font-family="sans-serif" font-size="14" lengthAdjust="spacing" textLength="128.3994" x="651.7012" y="298.7949">AuthorizationService</text><polygon fill="#181818" points="870.3657,339.5996,880.3657,343.5996,870.3657,347.5996,874.3657,343.5996" style="stroke:#181818;stroke-width:1.0;"/><line style="stroke:#181818;stroke-width:1.0;" x1="406.0996" x2="876.3657" y1="343.5996" y2="343.5996"/><text fill="#000000" font-family="sans-serif" font-size="13" lengthAdjust="spacing" textLength="101.8608" x="413.0996" y="338.3369">listDroneModels()</text><polygon fill="#181818" points="1130.3892,370.8906,1140.3892,374.8906,1130.3892,378.8906,1134.3892,374.8906" style="stroke:#181818;stroke-width:1.0;"/><line style="stroke:#181818;stroke-width:1.0;" x1="892.3657" x2="1136.3892" y1="374.8906" y2="374.8906"/><text fill="#000000" font-family="sans-serif" font-size="13" lengthAdjust="spacing" textLength="102.5908" x="899.3657" y="369.6279">findByActive(true)</text><polygon fill="#181818" points="1297.3936,402.1816,1307.3936,406.1816,1297.3936,410.1816,1301.3936,406.1816" style="stroke:#181818;stroke-width:1.0;"/><line style="stroke:#181818;stroke-width:1.0;" x1="1152.3892" x2="1303.3936" y1="406.1816" y2="406.1816"/><text fill="#000000" font-family="sans-serif" font-size="13" lengthAdjust="spacing" textLength="102.5908" x="1159.3892" y="400.9189">findByActive(true)</text><polygon fill="#181818" points="1163.3892,433.4727,1153.3892,437.4727,1163.3892,441.4727,1159.3892,437.4727" style="stroke:#181818;stroke-width:1.0;"/><line style="stroke:#181818;stroke-width:1.0;stroke-dasharray:2.0,2.0;" x1="1157.3892" x2="1313.3936" y1="437.4727" y2="437.4727"/><text fill="#000000" font-family="sans-serif" font-size="13" lengthAdjust="spacing" textLength="119.2217" x="1169.3892" y="432.21">List of Drone Models</text><polygon fill="#181818" points="903.3657,464.7637,893.3657,468.7637,903.3657,472.7637,899.3657,468.7637" style="stroke:#181818;stroke-width:1.0;"/><line style="stroke:#181818;stroke-width:1.0;stroke-dasharray:2.0,2.0;" x1="897.3657" x2="1146.3892" y1="468.7637" y2="468.7637"/><text fill="#000000" font-family="sans-serif" font-size="13" lengthAdjust="spacing" textLength="119.2217" x="909.3657" y="463.501">List of Drone Models</text><polygon fill="#181818" points="417.0996,496.0547,407.0996,500.0547,417.0996,504.0547,413.0996,500.0547" style="stroke:#181818;stroke-width:1.0;"/><line style="stroke:#181818;stroke-width:1.0;stroke-dasharray:2.0,2.0;" x1="411.0996" x2="886.3657" y1="500.0547" y2="500.0547"/><text fill="#000000" font-family="sans-serif" font-size="13" lengthAdjust="spacing" textLength="119.2217" x="423.0996" y="494.792">List of Drone Models</text><polygon fill="#181818" points="250.7139,527.3457,240.7139,531.3457,250.7139,535.3457,246.7139,531.3457" style="stroke:#181818;stroke-width:1.0;"/><line style="stroke:#181818;stroke-width:1.0;stroke-dasharray:2.0,2.0;" x1="244.7139" x2="400.0996" y1="531.3457" y2="531.3457"/><text fill="#000000" font-family="sans-serif" font-size="13" lengthAdjust="spacing" textLength="119.2217" x="256.7139" y="526.083">List of Drone Models</text><polygon fill="#181818" points="60.5723,558.6367,50.5723,562.6367,60.5723,566.6367,56.5723,562.6367" style="stroke:#181818;stroke-width:1.0;"/><line style="stroke:#181818;stroke-width:1.0;stroke-dasharray:2.0,2.0;" x1="54.5723" x2="233.7139" y1="562.6367" y2="562.6367"/><text fill="#000000" font-family="sans-serif" font-size="13" lengthAdjust="spacing" textLength="155.3525" x="66.5723" y="557.374">Show List of Drone Models</text><polygon fill="#181818" points="217.7139,589.9277,227.7139,593.9277,217.7139,597.9277,221.7139,593.9277" style="stroke:#181818;stroke-width:1.0;"/><line style="stroke:#181818;stroke-width:1.0;" x1="49.5723" x2="223.7139" y1="593.9277" y2="593.9277"/><text fill="#000000" font-family="sans-serif" font-size="13" lengthAdjust="spacing" textLength="161.1416" x="56.5723" y="588.665">Choose Drone Model to List</text><polygon fill="#181818" points="384.0996,621.2188,394.0996,625.2188,384.0996,629.2188,388.0996,625.2188" style="stroke:#181818;stroke-width:1.0;"/><line style="stroke:#181818;stroke-width:1.0;" x1="239.7139" x2="390.0996" y1="625.2188" y2="625.2188"/><text fill="#000000" font-family="sans-serif" font-size="13" lengthAdjust="spacing" textLength="135.1099" x="246.7139" y="619.9561">listDrones(droneModel)</text><polygon fill="#181818" points="870.3657,652.5098,880.3657,656.5098,870.3657,660.5098,874.3657,656.5098" style="stroke:#181818;stroke-width:1.0;"/><line style="stroke:#181818;stroke-width:1.0;" x1="406.0996" x2="876.3657" y1="656.5098" y2="656.5098"/><text fill="#000000" font-family="sans-serif" font-size="13" lengthAdjust="spacing" textLength="135.1099" x="413.0996" y="651.2471">listDrones(droneModel)</text><polygon fill="#181818" points="1130.3892,683.8008,1140.3892,687.8008,1130.3892,691.8008,1134.3892,687.8008" style="stroke:#181818;stroke-width:1.0;"/><line style="stroke:#181818;stroke-width:1.0;" x1="892.3657" x2="1136.3892" y1="687.8008" y2="687.8008"/><text fill="#000000" font-family="sans-serif" font-size="13" lengthAdjust="spacing" textLength="138.0044" x="899.3657" y="682.5381">findByDroneModel(true)</text><polygon fill="#181818" points="1297.3936,715.0918,1307.3936,719.0918,1297.3936,723.0918,1301.3936,719.0918" style="stroke:#181818;stroke-width:1.0;"/><line style="stroke:#181818;stroke-width:1.0;" x1="1152.3892" x2="1303.3936" y1="719.0918" y2="719.0918"/><text fill="#000000" font-family="sans-serif" font-size="13" lengthAdjust="spacing" textLength="138.0044" x="1159.3892" y="713.8291">findByDroneModel(true)</text><polygon fill="#181818" points="1163.3892,746.3828,1153.3892,750.3828,1163.3892,754.3828,1159.3892,750.3828" style="stroke:#181818;stroke-width:1.0;"/><line style="stroke:#181818;stroke-width:1.0;stroke-dasharray:2.0,2.0;" x1="1157.3892" x2="1313.3936" y1="750.3828" y2="750.3828"/><text fill="#000000" font-family="sans-serif" font-size="13" lengthAdjust="spacing" textLength="119.2153" x="1169.3892" y="745.1201">List of Active Drones</text><polygon fill="#181818" points="903.3657,777.6738,893.3657,781.6738,903.3657,785.6738,899.3657,781.6738" style="stroke:#181818;stroke-width:1.0;"/><line style="stroke:#181818;stroke-width:1.0;stroke-dasharray:2.0,2.0;" x1="897.3657" x2="1146.3892" y1="781.6738" y2="781.6738"/><text fill="#000000" font-family="sans-serif" font-size="13" lengthAdjust="spacing" textLength="119.2153" x="909.3657" y="776.4111">List of Active Drones</text><polygon fill="#181818" points="417.0996,808.9648,407.0996,812.9648,417.0996,816.9648,413.0996,812.9648" style="stroke:#181818;stroke-width:1.0;"/><line style="stroke:#181818;stroke-width:1.0;stroke-dasharray:2.0,2.0;" x1="411.0996" x2="886.3657" y1="812.9648" y2="812.9648"/><text fill="#000000" font-family="sans-serif" font-size="13" lengthAdjust="spacing" textLength="119.2153" x="423.0996" y="807.7021">List of Active Drones</text><polygon fill="#181818" points="250.7139,840.2559,240.7139,844.2559,250.7139,848.2559,246.7139,844.2559" style="stroke:#181818;stroke-width:1.0;"/><line style="stroke:#181818;stroke-width:1.0;stroke-dasharray:2.0,2.0;" x1="244.7139" x2="400.0996" y1="844.2559" y2="844.2559"/><text fill="#000000" font-family="sans-serif" font-size="13" lengthAdjust="spacing" textLength="119.2153" x="256.7139" y="838.9932">List of Active Drones</text><polygon fill="#181818" points="55.5723,871.5469,45.5723,875.5469,55.5723,879.5469,51.5723,875.5469" style="stroke:#181818;stroke-width:1.0;"/><line style="stroke:#181818;stroke-width:1.0;" x1="49.5723" x2="233.7139" y1="875.5469" y2="875.5469"/><text fill="#000000" font-family="sans-serif" font-size="13" lengthAdjust="spacing" textLength="155.3462" x="61.5723" y="870.2842">Show List of Active Drones</text><!--SRC=[nLPBRjim4Dtp50Eld02vW10OS9D53RG8KDS7OALnJ40c5P9suPw-Gr8MQOcMXQ19kKd8cNdpD9y7Ms5hX3M-7L2M2C-2lsg-PuoNLccOFMib4NvYkPi1Dx1qhwpXsefID5nQc7qJnjApEABtDPkLzzoiuF6nqMXGMcw5ael5UDoJabQhkaRju-ELS7ZJrABCmYmFTgUq-EEDQzH7KMAWcZ4uA7hkOtW2txdahxWdkYbAtZHEQNqo5lSRqtv9l59OfVPSo2o17zWe8wY-fvWvlb6ixYuKNt7BVt635Dp-5wBQYs-WE7ABRS-O_mCF2-fC0MQdVi_l6D3f_3OhngXhv15hVtyF1PGQoKxk0tC1DNKnr4XLM9i-PdHbtk1Eqba2oxN9PqLf3XgTcUhkAesLg-5NRfRozB9rTFA8-PPTete-7ULyEBjmTkVAP9m9nCuLi1Mo-d8Ampwt-e1t0xGXXGZ0ijuTXsH6NF9s00gOcdQOlfiXk77Edl2G-sotuQ2smG2XwgEG5GuvJFxqaSvF9f8IwFTWyW3qDkHcydxIaTbB1xtTv57u13hTn0Ze5jejeTE60jQa2fC1dLoSdo-qvMcdbC4q7gpoi6mmQZdDIJRLpAjkOKUKvRr2C8J_F3M8IlJfYZ0fzOUhGj2bOF-_id2RoKVgmlNi_qOOXlXNL27LX4uIBZKXpxKd2iar_FJu2m00]--></g></svg>