<svg xmlns="http://www.w3.org/2000/svg" xmlns:xlink="http://www.w3.org/1999/xlink" contentStyleType="text/css" height="1323px" preserveAspectRatio="none" style="width:2020px;height:1323px;background:#FFFFFF;" version="1.1" viewBox="0 0 2020 1323" width="2020px" zoomAndPan="magnify"><title>Sequence Diagram - US232</title><defs/><g><text fill="#000000" font-family="sans-serif" font-size="14" font-weight="bold" lengthAdjust="spacing" textLength="181.2959" x="920.6616" y="30.1074">Sequence Diagram - US232</text><rect fill="#FFFFFF" height="1098.1465" style="stroke:#181818;stroke-width:1.0;" width="10" x="59.0171" y="133.2422"/><rect fill="#FFFFFF" height="31.291" style="stroke:#181818;stroke-width:1.0;" width="10" x="383.5513" y="156.5332"/><rect fill="#FFFFFF" height="33.6211" style="stroke:#181818;stroke-width:1.0;" width="10" x="518.0474" y="197.8242"/><rect fill="#FFFFFF" height="959.6523" style="stroke:#181818;stroke-width:1.0;" width="10" x="518.0474" y="262.7363"/><rect fill="#FFFFFF" height="31.291" style="stroke:#181818;stroke-width:1.0;" width="10" x="867.1343" y="294.0273"/><rect fill="#FFFFFF" height="219.0371" style="stroke:#181818;stroke-width:1.0;" width="10" x="867.1343" y="413.8516"/><rect fill="#FFFFFF" height="219.0371" style="stroke:#181818;stroke-width:1.0;" width="10" x="867.1343" y="680.8105"/><rect fill="#FFFFFF" height="219.0371" style="stroke:#181818;stroke-width:1.0;" width="10" x="867.1343" y="947.7695"/><rect fill="#FFFFFF" height="156.4551" style="stroke:#181818;stroke-width:1.0;" width="10" x="1354.1763" y="445.1426"/><rect fill="#FFFFFF" height="156.4551" style="stroke:#181818;stroke-width:1.0;" width="10" x="1354.1763" y="712.1016"/><rect fill="#FFFFFF" height="156.4551" style="stroke:#181818;stroke-width:1.0;" width="10" x="1354.1763" y="979.0605"/><rect fill="#FFFFFF" height="93.873" style="stroke:#181818;stroke-width:1.0;" width="10" x="1659.915" y="476.4336"/><rect fill="#FFFFFF" height="93.873" style="stroke:#181818;stroke-width:1.0;" width="10" x="1659.915" y="743.3926"/><rect fill="#FFFFFF" height="93.873" style="stroke:#181818;stroke-width:1.0;" width="10" x="1659.915" y="1010.3516"/><rect fill="#FFFFFF" height="31.291" style="stroke:#181818;stroke-width:1.0;" width="10" x="1965.6538" y="507.7246"/><rect fill="#FFFFFF" height="31.291" style="stroke:#181818;stroke-width:1.0;" width="10" x="1965.6538" y="774.6836"/><rect fill="#FFFFFF" height="31.291" style="stroke:#181818;stroke-width:1.0;" width="10" x="1965.6538" y="1041.6426"/><rect fill="none" height="803.5371" style="stroke:#000000;stroke-width:1.5;" width="1556.5923" x="457.0269" y="371.2695"/><line style="stroke:#181818;stroke-width:0.5;stroke-dasharray:5.0,5.0;" x1="64" x2="64" y1="123.2422" y2="1240.3887"/><line style="stroke:#181818;stroke-width:0.5;stroke-dasharray:5.0,5.0;" x1="388.0757" x2="388.0757" y1="123.2422" y2="1240.3887"/><line style="stroke:#181818;stroke-width:0.5;stroke-dasharray:5.0,5.0;" x1="523.0269" x2="523.0269" y1="196.3438" y2="1240.3887"/><line style="stroke:#181818;stroke-width:0.5;stroke-dasharray:5.0,5.0;" x1="871.769" x2="871.769" y1="123.2422" y2="1240.3887"/><line style="stroke:#181818;stroke-width:0.5;stroke-dasharray:5.0,5.0;" x1="1186.7358" x2="1186.7358" y1="343.1484" y2="1240.3887"/><line style="stroke:#181818;stroke-width:0.5;stroke-dasharray:5.0,5.0;" x1="1359.1353" x2="1359.1353" y1="123.2422" y2="1240.3887"/><line style="stroke:#181818;stroke-width:0.5;stroke-dasharray:5.0,5.0;" x1="1664.6152" x2="1664.6152" y1="123.2422" y2="1240.3887"/><line style="stroke:#181818;stroke-width:0.5;stroke-dasharray:5.0,5.0;" x1="1969.6885" x2="1969.6885" y1="123.2422" y2="1240.3887"/><text fill="#000000" font-family="sans-serif" font-size="14" lengthAdjust="spacing" textLength="112.0342" x="5" y="119.7285">CRM Collaborator</text><ellipse cx="64.0171" cy="53.1211" fill="#E3E3E3" rx="8" ry="8" style="stroke:#181818;stroke-width:0.5;"/><path d="M64.0171,61.1211 L64.0171,88.1211 M51.0171,69.1211 L77.0171,69.1211 M64.0171,88.1211 L51.0171,103.1211 M64.0171,88.1211 L77.0171,103.1211 " fill="none" style="stroke:#181818;stroke-width:0.5;"/><text fill="#000000" font-family="sans-serif" font-size="14" lengthAdjust="spacing" textLength="112.0342" x="5" y="1254.4961">CRM Collaborator</text><ellipse cx="64.0171" cy="1266.5098" fill="#E3E3E3" rx="8" ry="8" style="stroke:#181818;stroke-width:0.5;"/><path d="M64.0171,1274.5098 L64.0171,1301.5098 M51.0171,1282.5098 L77.0171,1282.5098 M64.0171,1301.5098 L51.0171,1316.5098 M64.0171,1301.5098 L77.0171,1316.5098 " fill="none" style="stroke:#181818;stroke-width:0.5;"/><rect fill="#E3E3E3" height="32.6211" rx="2.5" ry="2.5" style="stroke:#181818;stroke-width:0.5;" width="136.9512" x="320.0757" y="89.6211"/><text fill="#000000" font-family="sans-serif" font-size="14" lengthAdjust="spacing" textLength="122.9512" x="327.0757" y="111.7285">SearchFigureAction</text><rect fill="#E3E3E3" height="32.6211" rx="2.5" ry="2.5" style="stroke:#181818;stroke-width:0.5;" width="136.9512" x="320.0757" y="1239.3887"/><text fill="#000000" font-family="sans-serif" font-size="14" lengthAdjust="spacing" textLength="122.9512" x="327.0757" y="1261.4961">SearchFigureAction</text><rect fill="#E3E3E3" height="32.6211" rx="2.5" ry="2.5" style="stroke:#181818;stroke-width:0.5;" width="112.041" x="467.0269" y="1239.3887"/><text fill="#000000" font-family="sans-serif" font-size="14" lengthAdjust="spacing" textLength="98.041" x="474.0269" y="1261.4961">SearchFigureUI</text><rect fill="#E3E3E3" height="51.2422" rx="2.5" ry="2.5" style="stroke:#181818;stroke-width:0.5;" width="158.7305" x="792.769" y="71"/><text fill="#000000" font-family="sans-serif" font-size="14" font-style="italic" lengthAdjust="spacing" textLength="82.5098" x="830.8794" y="93.1074">&#171;application&#187;</text><text fill="#000000" font-family="sans-serif" font-size="14" lengthAdjust="spacing" textLength="144.7305" x="799.769" y="111.7285">SearchFigureController</text><rect fill="#E3E3E3" height="51.2422" rx="2.5" ry="2.5" style="stroke:#181818;stroke-width:0.5;" width="158.7305" x="792.769" y="1239.3887"/><text fill="#000000" font-family="sans-serif" font-size="14" font-style="italic" lengthAdjust="spacing" textLength="82.5098" x="830.8794" y="1261.4961">&#171;application&#187;</text><text fill="#000000" font-family="sans-serif" font-size="14" lengthAdjust="spacing" textLength="144.7305" x="799.769" y="1280.1172">SearchFigureController</text><rect fill="#E3E3E3" height="51.2422" rx="2.5" ry="2.5" style="stroke:#181818;stroke-width:0.5;" width="142.3994" x="1115.7358" y="1239.3887"/><text fill="#000000" font-family="sans-serif" font-size="14" font-style="italic" lengthAdjust="spacing" textLength="42.8203" x="1165.5254" y="1261.4961">&#171;auth&#187;</text><text fill="#000000" font-family="sans-serif" font-size="14" lengthAdjust="spacing" textLength="128.3994" x="1122.7358" y="1280.1172">AuthorizationService</text><rect fill="#E3E3E3" height="51.2422" rx="2.5" ry="2.5" style="stroke:#181818;stroke-width:0.5;" width="182.082" x="1268.1353" y="71"/><text fill="#000000" font-family="sans-serif" font-size="14" font-style="italic" lengthAdjust="spacing" textLength="82.5098" x="1317.9214" y="93.1074">&#171;application&#187;</text><text fill="#000000" font-family="sans-serif" font-size="14" lengthAdjust="spacing" textLength="168.082" x="1275.1353" y="111.7285">FigureManagementService</text><rect fill="#E3E3E3" height="51.2422" rx="2.5" ry="2.5" style="stroke:#181818;stroke-width:0.5;" width="182.082" x="1268.1353" y="1239.3887"/><text fill="#000000" font-family="sans-serif" font-size="14" font-style="italic" lengthAdjust="spacing" textLength="82.5098" x="1317.9214" y="1261.4961">&#171;application&#187;</text><text fill="#000000" font-family="sans-serif" font-size="14" lengthAdjust="spacing" textLength="168.082" x="1275.1353" y="1280.1172">FigureManagementService</text><rect fill="#E3E3E3" height="51.2422" rx="2.5" ry="2.5" style="stroke:#181818;stroke-width:0.5;" width="120.5996" x="1604.6152" y="71"/><text fill="#000000" font-family="sans-serif" font-size="14" font-style="italic" lengthAdjust="spacing" textLength="77.041" x="1626.3945" y="93.1074">&#171;repository&#187;</text><text fill="#000000" font-family="sans-serif" font-size="14" lengthAdjust="spacing" textLength="106.5996" x="1611.6152" y="111.7285">FigureRepository</text><rect fill="#E3E3E3" height="51.2422" rx="2.5" ry="2.5" style="stroke:#181818;stroke-width:0.5;" width="120.5996" x="1604.6152" y="1239.3887"/><text fill="#000000" font-family="sans-serif" font-size="14" font-style="italic" lengthAdjust="spacing" textLength="77.041" x="1626.3945" y="1261.4961">&#171;repository&#187;</text><text fill="#000000" font-family="sans-serif" font-size="14" lengthAdjust="spacing" textLength="106.5996" x="1611.6152" y="1280.1172">FigureRepository</text><text fill="#000000" font-family="sans-serif" font-size="14" lengthAdjust="spacing" textLength="59.9307" x="1937.6885" y="119.7285">Database</text><path d="M1952.6538,68.6211 C1952.6538,58.6211 1970.6538,58.6211 1970.6538,58.6211 C1970.6538,58.6211 1988.6538,58.6211 1988.6538,68.6211 L1988.6538,94.6211 C1988.6538,104.6211 1970.6538,104.6211 1970.6538,104.6211 C1970.6538,104.6211 1952.6538,104.6211 1952.6538,94.6211 L1952.6538,68.6211 " fill="#E3E3E3" style="stroke:#181818;stroke-width:1.5;"/><path d="M1952.6538,68.6211 C1952.6538,78.6211 1970.6538,78.6211 1970.6538,78.6211 C1970.6538,78.6211 1988.6538,78.6211 1988.6538,68.6211 " fill="none" style="stroke:#181818;stroke-width:1.5;"/><text fill="#000000" font-family="sans-serif" font-size="14" lengthAdjust="spacing" textLength="59.9307" x="1937.6885" y="1254.4961">Database</text><path d="M1952.6538,1268.0098 C1952.6538,1258.0098 1970.6538,1258.0098 1970.6538,1258.0098 C1970.6538,1258.0098 1988.6538,1258.0098 1988.6538,1268.0098 L1988.6538,1294.0098 C1988.6538,1304.0098 1970.6538,1304.0098 1970.6538,1304.0098 C1970.6538,1304.0098 1952.6538,1304.0098 1952.6538,1294.0098 L1952.6538,1268.0098 " fill="#E3E3E3" style="stroke:#181818;stroke-width:1.5;"/><path d="M1952.6538,1268.0098 C1952.6538,1278.0098 1970.6538,1278.0098 1970.6538,1278.0098 C1970.6538,1278.0098 1988.6538,1278.0098 1988.6538,1268.0098 " fill="none" style="stroke:#181818;stroke-width:1.5;"/><rect fill="#FFFFFF" height="1098.1465" style="stroke:#181818;stroke-width:1.0;" width="10" x="59.0171" y="133.2422"/><rect fill="#FFFFFF" height="31.291" style="stroke:#181818;stroke-width:1.0;" width="10" x="383.5513" y="156.5332"/><rect fill="#FFFFFF" height="33.6211" style="stroke:#181818;stroke-width:1.0;" width="10" x="518.0474" y="197.8242"/><rect fill="#FFFFFF" height="959.6523" style="stroke:#181818;stroke-width:1.0;" width="10" x="518.0474" y="262.7363"/><rect fill="#FFFFFF" height="31.291" style="stroke:#181818;stroke-width:1.0;" width="10" x="867.1343" y="294.0273"/><rect fill="#FFFFFF" height="219.0371" style="stroke:#181818;stroke-width:1.0;" width="10" x="867.1343" y="413.8516"/><rect fill="#FFFFFF" height="219.0371" style="stroke:#181818;stroke-width:1.0;" width="10" x="867.1343" y="680.8105"/><rect fill="#FFFFFF" height="219.0371" style="stroke:#181818;stroke-width:1.0;" width="10" x="867.1343" y="947.7695"/><rect fill="#FFFFFF" height="156.4551" style="stroke:#181818;stroke-width:1.0;" width="10" x="1354.1763" y="445.1426"/><rect fill="#FFFFFF" height="156.4551" style="stroke:#181818;stroke-width:1.0;" width="10" x="1354.1763" y="712.1016"/><rect fill="#FFFFFF" height="156.4551" style="stroke:#181818;stroke-width:1.0;" width="10" x="1354.1763" y="979.0605"/><rect fill="#FFFFFF" height="93.873" style="stroke:#181818;stroke-width:1.0;" width="10" x="1659.915" y="476.4336"/><rect fill="#FFFFFF" height="93.873" style="stroke:#181818;stroke-width:1.0;" width="10" x="1659.915" y="743.3926"/><rect fill="#FFFFFF" height="93.873" style="stroke:#181818;stroke-width:1.0;" width="10" x="1659.915" y="1010.3516"/><rect fill="#FFFFFF" height="31.291" style="stroke:#181818;stroke-width:1.0;" width="10" x="1965.6538" y="507.7246"/><rect fill="#FFFFFF" height="31.291" style="stroke:#181818;stroke-width:1.0;" width="10" x="1965.6538" y="774.6836"/><rect fill="#FFFFFF" height="31.291" style="stroke:#181818;stroke-width:1.0;" width="10" x="1965.6538" y="1041.6426"/><polygon fill="#181818" points="371.5513,152.5332,381.5513,156.5332,371.5513,160.5332,375.5513,156.5332" style="stroke:#181818;stroke-width:1.0;"/><line style="stroke:#181818;stroke-width:1.0;" x1="69.0171" x2="377.5513" y1="156.5332" y2="156.5332"/><text fill="#000000" font-family="sans-serif" font-size="13" lengthAdjust="spacing" textLength="295.5342" x="76.0171" y="151.2705">Asks to search a figure by category and/or keyword</text><polygon fill="#181818" points="455.0269,183.8242,465.0269,187.8242,455.0269,191.8242,459.0269,187.8242" style="stroke:#181818;stroke-width:1.0;"/><line style="stroke:#181818;stroke-width:1.0;" x1="388.5513" x2="461.0269" y1="187.8242" y2="187.8242"/><text fill="#000000" font-family="sans-serif" font-size="13" lengthAdjust="spacing" textLength="36.1309" x="395.5513" y="182.5615">create</text><rect fill="#E3E3E3" height="32.6211" rx="2.5" ry="2.5" style="stroke:#181818;stroke-width:0.5;" width="112.041" x="467.0269" y="164.5332"/><text fill="#000000" font-family="sans-serif" font-size="14" lengthAdjust="spacing" textLength="98.041" x="474.0269" y="186.6406">SearchFigureUI</text><polygon fill="#181818" points="80.0171,227.4453,70.0171,231.4453,80.0171,235.4453,76.0171,231.4453" style="stroke:#181818;stroke-width:1.0;"/><line style="stroke:#181818;stroke-width:1.0;" x1="74.0171" x2="522.0474" y1="231.4453" y2="231.4453"/><text fill="#000000" font-family="sans-serif" font-size="13" lengthAdjust="spacing" textLength="228.3442" x="86.0171" y="226.1826">Request data(category and/or keyword)</text><polygon fill="#181818" points="506.0474,258.7363,516.0474,262.7363,506.0474,266.7363,510.0474,262.7363" style="stroke:#181818;stroke-width:1.0;"/><line style="stroke:#181818;stroke-width:1.0;" x1="69.0171" x2="512.0474" y1="262.7363" y2="262.7363"/><text fill="#000000" font-family="sans-serif" font-size="13" lengthAdjust="spacing" textLength="181.3652" x="76.0171" y="257.4736">Types category and/or keyword</text><polygon fill="#181818" points="855.1343,290.0273,865.1343,294.0273,855.1343,298.0273,859.1343,294.0273" style="stroke:#181818;stroke-width:1.0;"/><line style="stroke:#181818;stroke-width:1.0;" x1="528.0474" x2="861.1343" y1="294.0273" y2="294.0273"/><text fill="#000000" font-family="sans-serif" font-size="13" lengthAdjust="spacing" textLength="155.3589" x="535.0474" y="288.7646">ensureAuthenticatedUser()</text><polygon fill="#181818" points="1103.7358,321.3184,1113.7358,325.3184,1103.7358,329.3184,1107.7358,325.3184" style="stroke:#181818;stroke-width:1.0;"/><line style="stroke:#181818;stroke-width:1.0;" x1="872.1343" x2="1109.7358" y1="325.3184" y2="325.3184"/><text fill="#000000" font-family="sans-serif" font-size="13" lengthAdjust="spacing" textLength="214.6016" x="879.1343" y="320.0557">ensureAuthenticatedUserHasAnyOf()</text><rect fill="#E3E3E3" height="51.2422" rx="2.5" ry="2.5" style="stroke:#181818;stroke-width:0.5;" width="142.3994" x="1115.7358" y="302.0273"/><text fill="#000000" font-family="sans-serif" font-size="14" font-style="italic" lengthAdjust="spacing" textLength="42.8203" x="1165.5254" y="324.1348">&#171;auth&#187;</text><text fill="#000000" font-family="sans-serif" font-size="14" lengthAdjust="spacing" textLength="128.3994" x="1122.7358" y="342.7559">AuthorizationService</text><path d="M457.0269,371.2695 L517.1978,371.2695 L517.1978,380.5605 L507.1978,390.5605 L457.0269,390.5605 L457.0269,371.2695 " fill="#EEEEEE" style="stroke:#000000;stroke-width:1.5;"/><rect fill="none" height="803.5371" style="stroke:#000000;stroke-width:1.5;" width="1556.5923" x="457.0269" y="371.2695"/><text fill="#000000" font-family="sans-serif" font-size="13" font-weight="bold" lengthAdjust="spacing" textLength="15.1709" x="472.0269" y="386.2979">alt</text><text fill="#000000" font-family="sans-serif" font-size="11" font-weight="bold" lengthAdjust="spacing" textLength="176.0322" x="532.1978" y="385.1396">[Search figure only with keyword]</text><polygon fill="#181818" points="855.1343,409.8516,865.1343,413.8516,855.1343,417.8516,859.1343,413.8516" style="stroke:#181818;stroke-width:1.0;"/><line style="stroke:#181818;stroke-width:1.0;" x1="528.0474" x2="861.1343" y1="413.8516" y2="413.8516"/><text fill="#000000" font-family="sans-serif" font-size="13" lengthAdjust="spacing" textLength="187.1226" x="535.0474" y="408.5889">findFiguresByKeyword(keyword)</text><polygon fill="#181818" points="1342.1763,441.1426,1352.1763,445.1426,1342.1763,449.1426,1346.1763,445.1426" style="stroke:#181818;stroke-width:1.0;"/><line style="stroke:#181818;stroke-width:1.0;" x1="877.1343" x2="1348.1763" y1="445.1426" y2="445.1426"/><text fill="#000000" font-family="sans-serif" font-size="13" lengthAdjust="spacing" textLength="114.8735" x="884.1343" y="439.8799">findFigure(keyword)</text><polygon fill="#181818" points="1647.915,472.4336,1657.915,476.4336,1647.915,480.4336,1651.915,476.4336" style="stroke:#181818;stroke-width:1.0;"/><line style="stroke:#181818;stroke-width:1.0;" x1="1364.1763" x2="1653.915" y1="476.4336" y2="476.4336"/><text fill="#000000" font-family="sans-serif" font-size="13" lengthAdjust="spacing" textLength="143.7744" x="1371.1763" y="471.1709">findByKeyword(keyword)</text><polygon fill="#181818" points="1953.6538,503.7246,1963.6538,507.7246,1953.6538,511.7246,1957.6538,507.7246" style="stroke:#181818;stroke-width:1.0;"/><line style="stroke:#181818;stroke-width:1.0;" x1="1669.915" x2="1959.6538" y1="507.7246" y2="507.7246"/><text fill="#000000" font-family="sans-serif" font-size="13" lengthAdjust="spacing" textLength="143.7744" x="1676.915" y="502.4619">findByKeyword(keyword)</text><polygon fill="#181818" points="1680.915,535.0156,1670.915,539.0156,1680.915,543.0156,1676.915,539.0156" style="stroke:#181818;stroke-width:1.0;"/><line style="stroke:#181818;stroke-width:1.0;" x1="1674.915" x2="1969.6538" y1="539.0156" y2="539.0156"/><text fill="#000000" font-family="sans-serif" font-size="13" lengthAdjust="spacing" textLength="32.519" x="1686.915" y="533.7529">figure</text><polygon fill="#181818" points="1375.1763,566.3066,1365.1763,570.3066,1375.1763,574.3066,1371.1763,570.3066" style="stroke:#181818;stroke-width:1.0;"/><line style="stroke:#181818;stroke-width:1.0;" x1="1369.1763" x2="1663.915" y1="570.3066" y2="570.3066"/><text fill="#000000" font-family="sans-serif" font-size="13" lengthAdjust="spacing" textLength="32.519" x="1381.1763" y="565.0439">figure</text><polygon fill="#181818" points="888.1343,597.5977,878.1343,601.5977,888.1343,605.5977,884.1343,601.5977" style="stroke:#181818;stroke-width:1.0;"/><line style="stroke:#181818;stroke-width:1.0;" x1="882.1343" x2="1358.1763" y1="601.5977" y2="601.5977"/><text fill="#000000" font-family="sans-serif" font-size="13" lengthAdjust="spacing" textLength="32.519" x="894.1343" y="596.335">figure</text><polygon fill="#181818" points="539.0474,628.8887,529.0474,632.8887,539.0474,636.8887,535.0474,632.8887" style="stroke:#181818;stroke-width:1.0;"/><line style="stroke:#181818;stroke-width:1.0;" x1="533.0474" x2="871.1343" y1="632.8887" y2="632.8887"/><text fill="#000000" font-family="sans-serif" font-size="13" lengthAdjust="spacing" textLength="32.519" x="545.0474" y="627.626">figure</text><line style="stroke:#000000;stroke-width:1.0;stroke-dasharray:2.0,2.0;" x1="457.0269" x2="2013.6191" y1="641.8887" y2="641.8887"/><text fill="#000000" font-family="sans-serif" font-size="11" font-weight="bold" lengthAdjust="spacing" textLength="177.2568" x="462.0269" y="653.7588">[Search figure only with category]</text><polygon fill="#181818" points="855.1343,676.8105,865.1343,680.8105,855.1343,684.8105,859.1343,680.8105" style="stroke:#181818;stroke-width:1.0;"/><line style="stroke:#181818;stroke-width:1.0;" x1="528.0474" x2="861.1343" y1="680.8105" y2="680.8105"/><text fill="#000000" font-family="sans-serif" font-size="13" lengthAdjust="spacing" textLength="190.7471" x="535.0474" y="675.5479">findFiguresByCategory(category)</text><polygon fill="#181818" points="1342.1763,708.1016,1352.1763,712.1016,1342.1763,716.1016,1346.1763,712.1016" style="stroke:#181818;stroke-width:1.0;"/><line style="stroke:#181818;stroke-width:1.0;" x1="877.1343" x2="1348.1763" y1="712.1016" y2="712.1016"/><text fill="#000000" font-family="sans-serif" font-size="13" lengthAdjust="spacing" textLength="182.8062" x="884.1343" y="706.8389">findByCategory(figureCategory)</text><polygon fill="#181818" points="1647.915,739.3926,1657.915,743.3926,1647.915,747.3926,1651.915,743.3926" style="stroke:#181818;stroke-width:1.0;"/><line style="stroke:#181818;stroke-width:1.0;" x1="1364.1763" x2="1653.915" y1="743.3926" y2="743.3926"/><text fill="#000000" font-family="sans-serif" font-size="13" lengthAdjust="spacing" textLength="184.2471" x="1371.1763" y="738.1299">findByFigureCategory(category)</text><polygon fill="#181818" points="1953.6538,770.6836,1963.6538,774.6836,1953.6538,778.6836,1957.6538,774.6836" style="stroke:#181818;stroke-width:1.0;"/><line style="stroke:#181818;stroke-width:1.0;" x1="1669.915" x2="1959.6538" y1="774.6836" y2="774.6836"/><text fill="#000000" font-family="sans-serif" font-size="13" lengthAdjust="spacing" textLength="184.2471" x="1676.915" y="769.4209">findByFigureCategory(category)</text><polygon fill="#181818" points="1680.915,801.9746,1670.915,805.9746,1680.915,809.9746,1676.915,805.9746" style="stroke:#181818;stroke-width:1.0;"/><line style="stroke:#181818;stroke-width:1.0;" x1="1674.915" x2="1969.6538" y1="805.9746" y2="805.9746"/><text fill="#000000" font-family="sans-serif" font-size="13" lengthAdjust="spacing" textLength="32.519" x="1686.915" y="800.7119">figure</text><polygon fill="#181818" points="1375.1763,833.2656,1365.1763,837.2656,1375.1763,841.2656,1371.1763,837.2656" style="stroke:#181818;stroke-width:1.0;"/><line style="stroke:#181818;stroke-width:1.0;" x1="1369.1763" x2="1663.915" y1="837.2656" y2="837.2656"/><text fill="#000000" font-family="sans-serif" font-size="13" lengthAdjust="spacing" textLength="32.519" x="1381.1763" y="832.0029">figure</text><polygon fill="#181818" points="888.1343,864.5566,878.1343,868.5566,888.1343,872.5566,884.1343,868.5566" style="stroke:#181818;stroke-width:1.0;"/><line style="stroke:#181818;stroke-width:1.0;" x1="882.1343" x2="1358.1763" y1="868.5566" y2="868.5566"/><text fill="#000000" font-family="sans-serif" font-size="13" lengthAdjust="spacing" textLength="32.519" x="894.1343" y="863.2939">figure</text><polygon fill="#181818" points="539.0474,895.8477,529.0474,899.8477,539.0474,903.8477,535.0474,899.8477" style="stroke:#181818;stroke-width:1.0;"/><line style="stroke:#181818;stroke-width:1.0;" x1="533.0474" x2="871.1343" y1="899.8477" y2="899.8477"/><text fill="#000000" font-family="sans-serif" font-size="13" lengthAdjust="spacing" textLength="32.519" x="545.0474" y="894.585">figure</text><line style="stroke:#000000;stroke-width:1.0;stroke-dasharray:2.0,2.0;" x1="457.0269" x2="2013.6191" y1="908.8477" y2="908.8477"/><text fill="#000000" font-family="sans-serif" font-size="11" font-weight="bold" lengthAdjust="spacing" textLength="221.8853" x="462.0269" y="920.7178">[Search figure with keyword and category]</text><polygon fill="#181818" points="855.1343,943.7695,865.1343,947.7695,855.1343,951.7695,859.1343,947.7695" style="stroke:#181818;stroke-width:1.0;"/><line style="stroke:#181818;stroke-width:1.0;" x1="528.0474" x2="861.1343" y1="947.7695" y2="947.7695"/><text fill="#000000" font-family="sans-serif" font-size="13" lengthAdjust="spacing" textLength="320.0869" x="535.0474" y="942.5068">findFiguresByKeywordAndCategory(keyword, category)</text><polygon fill="#181818" points="1342.1763,975.0605,1352.1763,979.0605,1342.1763,983.0605,1346.1763,979.0605" style="stroke:#181818;stroke-width:1.0;"/><line style="stroke:#181818;stroke-width:1.0;" x1="877.1343" x2="1348.1763" y1="979.0605" y2="979.0605"/><text fill="#000000" font-family="sans-serif" font-size="13" lengthAdjust="spacing" textLength="276.7388" x="884.1343" y="973.7979">findByKeywordAndCategory(keyword, category)</text><polygon fill="#181818" points="1647.915,1006.3516,1657.915,1010.3516,1647.915,1014.3516,1651.915,1010.3516" style="stroke:#181818;stroke-width:1.0;"/><line style="stroke:#181818;stroke-width:1.0;" x1="1364.1763" x2="1653.915" y1="1010.3516" y2="1010.3516"/><text fill="#000000" font-family="sans-serif" font-size="13" lengthAdjust="spacing" textLength="276.7388" x="1371.1763" y="1005.0889">findByKeywordAndCategory(keyword, category)</text><polygon fill="#181818" points="1953.6538,1037.6426,1963.6538,1041.6426,1953.6538,1045.6426,1957.6538,1041.6426" style="stroke:#181818;stroke-width:1.0;"/><line style="stroke:#181818;stroke-width:1.0;" x1="1669.915" x2="1959.6538" y1="1041.6426" y2="1041.6426"/><text fill="#000000" font-family="sans-serif" font-size="13" lengthAdjust="spacing" textLength="276.7388" x="1676.915" y="1036.3799">findByKeywordAndCategory(keyword, category)</text><polygon fill="#181818" points="1680.915,1068.9336,1670.915,1072.9336,1680.915,1076.9336,1676.915,1072.9336" style="stroke:#181818;stroke-width:1.0;"/><line style="stroke:#181818;stroke-width:1.0;" x1="1674.915" x2="1969.6538" y1="1072.9336" y2="1072.9336"/><text fill="#000000" font-family="sans-serif" font-size="13" lengthAdjust="spacing" textLength="32.519" x="1686.915" y="1067.6709">figure</text><polygon fill="#181818" points="1375.1763,1100.2246,1365.1763,1104.2246,1375.1763,1108.2246,1371.1763,1104.2246" style="stroke:#181818;stroke-width:1.0;"/><line style="stroke:#181818;stroke-width:1.0;" x1="1369.1763" x2="1663.915" y1="1104.2246" y2="1104.2246"/><text fill="#000000" font-family="sans-serif" font-size="13" lengthAdjust="spacing" textLength="32.519" x="1381.1763" y="1098.9619">figure</text><polygon fill="#181818" points="888.1343,1131.5156,878.1343,1135.5156,888.1343,1139.5156,884.1343,1135.5156" style="stroke:#181818;stroke-width:1.0;"/><line style="stroke:#181818;stroke-width:1.0;" x1="882.1343" x2="1358.1763" y1="1135.5156" y2="1135.5156"/><text fill="#000000" font-family="sans-serif" font-size="13" lengthAdjust="spacing" textLength="32.519" x="894.1343" y="1130.2529">figure</text><polygon fill="#181818" points="539.0474,1162.8066,529.0474,1166.8066,539.0474,1170.8066,535.0474,1166.8066" style="stroke:#181818;stroke-width:1.0;"/><line style="stroke:#181818;stroke-width:1.0;" x1="533.0474" x2="871.1343" y1="1166.8066" y2="1166.8066"/><text fill="#000000" font-family="sans-serif" font-size="13" lengthAdjust="spacing" textLength="32.519" x="545.0474" y="1161.5439">figure</text><polygon fill="#181818" points="80.0171,1218.3887,70.0171,1222.3887,80.0171,1226.3887,76.0171,1222.3887" style="stroke:#181818;stroke-width:1.0;"/><line style="stroke:#181818;stroke-width:1.0;" x1="74.0171" x2="522.0474" y1="1222.3887" y2="1222.3887"/><text fill="#000000" font-family="sans-serif" font-size="13" lengthAdjust="spacing" textLength="227.6079" x="86.0171" y="1199.835">Displays the search results of the figure</text><text fill="#000000" font-family="sans-serif" font-size="13" lengthAdjust="spacing" textLength="180.6606" x="86.0171" y="1217.126">and displays operation success</text><!--SRC=[xLTRQzim57xthpZagHqhW-ujb4BcKXQshf0qRtivjKyI4KVo9AN5-_MJv4laYz84rh91zMGVITztRfzagmtZEKhSmbPmaQobs19ekQD8DJCv9XjSqLmN6O6aH2DVPVu2jSPKF3E-WYLcYg884oqaZEBP7SGYo_1HI3IM4Q22H6vzMsGWD4jOZbp3Q4uea_KjM-qaJHBD17Tx9l73zFv7UEbYwfOjfk4biU1Q6buglOWVPj_XwWhpF6C9MgBhw_RcoKwlXMI_tUISv1DBg7HcOC926NCNewI-GsxIjoMkVPZ0t66doaqpoeLY9dc5XxGt6WZPl1Y453K-eY8OtLHFRblz4aMQQLFPEVtQ4JSUt31SsR9Um69- -VdIbPCzeQPUxI8mesE4Y-kgNZ26YTeeq0AKgmGWB9sly5Y02P1MrblawIUpRKF5iv2fWsm8gy8xenqLiA5OJ3zyC0I99BEkcK-fkxMUQUocIHgZ7OkfXUi6COQPJOVIOBDt5d3sFEgG6l10IWpD61wAd5GmyYZeP-cZwzan45TM7QRTJDVOFg5qeKYUdVTZjJlQqJeCMw619dO93Q1_HJNXnVtIO_72RlDWfg6KNbrkmRC2dfbUjwhSYsp9U5esi_fIV2jNdhLIVMHq8Mtv57tW5dW0eirdHuYhSSCJPib_8BQ06tk8Fl_U1u_8aDVoFfwqHRm_7I0m6e9GfDOqkDlhdCCqGt4TgkqWeyVsSZOFLBDfqXvBZ-65jgdRr9q97RoWgiZSh45PrKVA4RgAgwNDcVONbUMXbox6FOwt4zbjouE1S5zJR4UJlulkFnETVutP6_mKxLL7y8IdJMTKI1_XLUHu6k6RNu0d-FNAj-A9dhohzfzMBUz-OFO_xs-OoZCipD_9ckhV4wFHNQOLYAMpLeB_oQtAqtgzo4cwhsPGkoGXfGR-0QBe3m00]--></g></svg>