<svg xmlns="http://www.w3.org/2000/svg" xmlns:xlink="http://www.w3.org/1999/xlink" contentStyleType="text/css" height="1167px" preserveAspectRatio="none" style="width:1909px;height:1167px;background:#FFFFFF;" version="1.1" viewBox="0 0 1909 1167" width="1909px" zoomAndPan="magnify"><title>Sequence Diagram - US232</title><defs/><g><text fill="#000000" font-family="sans-serif" font-size="14" font-weight="bold" lengthAdjust="spacing" textLength="181.2959" x="865.0276" y="30.1074">Sequence Diagram - US232</text><rect fill="#FFFFFF" height="941.6914" style="stroke:#181818;stroke-width:1.0;" width="10" x="59.0171" y="133.2422"/><rect fill="#FFFFFF" height="31.291" style="stroke:#181818;stroke-width:1.0;" width="10" x="383.5513" y="156.5332"/><rect fill="#FFFFFF" height="33.6211" style="stroke:#181818;stroke-width:1.0;" width="10" x="518.0474" y="197.8242"/><rect fill="#FFFFFF" height="803.1973" style="stroke:#181818;stroke-width:1.0;" width="10" x="518.0474" y="262.7363"/><rect fill="#FFFFFF" height="723.3242" style="stroke:#181818;stroke-width:1.0;" width="10" x="755.8662" y="294.0273"/><rect fill="#FFFFFF" height="156.4551" style="stroke:#181818;stroke-width:1.0;" width="10" x="1242.9082" y="413.8516"/><rect fill="#FFFFFF" height="156.4551" style="stroke:#181818;stroke-width:1.0;" width="10" x="1242.9082" y="618.2285"/><rect fill="#FFFFFF" height="156.4551" style="stroke:#181818;stroke-width:1.0;" width="10" x="1242.9082" y="822.6055"/><rect fill="#FFFFFF" height="93.873" style="stroke:#181818;stroke-width:1.0;" width="10" x="1548.647" y="445.1426"/><rect fill="#FFFFFF" height="93.873" style="stroke:#181818;stroke-width:1.0;" width="10" x="1548.647" y="649.5195"/><rect fill="#FFFFFF" height="93.873" style="stroke:#181818;stroke-width:1.0;" width="10" x="1548.647" y="853.8965"/><rect fill="#FFFFFF" height="31.291" style="stroke:#181818;stroke-width:1.0;" width="10" x="1854.3857" y="476.4336"/><rect fill="#FFFFFF" height="31.291" style="stroke:#181818;stroke-width:1.0;" width="10" x="1854.3857" y="680.8105"/><rect fill="#FFFFFF" height="31.291" style="stroke:#181818;stroke-width:1.0;" width="10" x="1854.3857" y="885.1875"/><rect fill="none" height="615.791" style="stroke:#000000;stroke-width:1.5;" width="1230.8501" x="671.501" y="371.2695"/><line style="stroke:#181818;stroke-width:0.5;stroke-dasharray:5.0,5.0;" x1="64" x2="64" y1="123.2422" y2="1083.9336"/><line style="stroke:#181818;stroke-width:0.5;stroke-dasharray:5.0,5.0;" x1="388.0757" x2="388.0757" y1="123.2422" y2="1083.9336"/><line style="stroke:#181818;stroke-width:0.5;stroke-dasharray:5.0,5.0;" x1="523.0269" x2="523.0269" y1="196.3438" y2="1083.9336"/><line style="stroke:#181818;stroke-width:0.5;stroke-dasharray:5.0,5.0;" x1="760.501" x2="760.501" y1="123.2422" y2="1083.9336"/><line style="stroke:#181818;stroke-width:0.5;stroke-dasharray:5.0,5.0;" x1="1075.4678" x2="1075.4678" y1="343.1484" y2="1083.9336"/><line style="stroke:#181818;stroke-width:0.5;stroke-dasharray:5.0,5.0;" x1="1247.8672" x2="1247.8672" y1="123.2422" y2="1083.9336"/><line style="stroke:#181818;stroke-width:0.5;stroke-dasharray:5.0,5.0;" x1="1553.3472" x2="1553.3472" y1="123.2422" y2="1083.9336"/><line style="stroke:#181818;stroke-width:0.5;stroke-dasharray:5.0,5.0;" x1="1858.4204" x2="1858.4204" y1="123.2422" y2="1083.9336"/><text fill="#000000" font-family="sans-serif" font-size="14" lengthAdjust="spacing" textLength="112.0342" x="5" y="119.7285">CRM Collaborator</text><ellipse cx="64.0171" cy="53.1211" fill="#E3E3E3" rx="8" ry="8" style="stroke:#181818;stroke-width:0.5;"/><path d="M64.0171,61.1211 L64.0171,88.1211 M51.0171,69.1211 L77.0171,69.1211 M64.0171,88.1211 L51.0171,103.1211 M64.0171,88.1211 L77.0171,103.1211 " fill="none" style="stroke:#181818;stroke-width:0.5;"/><text fill="#000000" font-family="sans-serif" font-size="14" lengthAdjust="spacing" textLength="112.0342" x="5" y="1098.041">CRM Collaborator</text><ellipse cx="64.0171" cy="1110.0547" fill="#E3E3E3" rx="8" ry="8" style="stroke:#181818;stroke-width:0.5;"/><path d="M64.0171,1118.0547 L64.0171,1145.0547 M51.0171,1126.0547 L77.0171,1126.0547 M64.0171,1145.0547 L51.0171,1160.0547 M64.0171,1145.0547 L77.0171,1160.0547 " fill="none" style="stroke:#181818;stroke-width:0.5;"/><rect fill="#E3E3E3" height="32.6211" rx="2.5" ry="2.5" style="stroke:#181818;stroke-width:0.5;" width="136.9512" x="320.0757" y="89.6211"/><text fill="#000000" font-family="sans-serif" font-size="14" lengthAdjust="spacing" textLength="122.9512" x="327.0757" y="111.7285">SearchFigureAction</text><rect fill="#E3E3E3" height="32.6211" rx="2.5" ry="2.5" style="stroke:#181818;stroke-width:0.5;" width="136.9512" x="320.0757" y="1082.9336"/><text fill="#000000" font-family="sans-serif" font-size="14" lengthAdjust="spacing" textLength="122.9512" x="327.0757" y="1105.041">SearchFigureAction</text><rect fill="#E3E3E3" height="32.6211" rx="2.5" ry="2.5" style="stroke:#181818;stroke-width:0.5;" width="112.041" x="467.0269" y="1082.9336"/><text fill="#000000" font-family="sans-serif" font-size="14" lengthAdjust="spacing" textLength="98.041" x="474.0269" y="1105.041">SearchFigureUI</text><rect fill="#E3E3E3" height="51.2422" rx="2.5" ry="2.5" style="stroke:#181818;stroke-width:0.5;" width="158.7305" x="681.501" y="71"/><text fill="#000000" font-family="sans-serif" font-size="14" font-style="italic" lengthAdjust="spacing" textLength="82.5098" x="719.6113" y="93.1074">&#171;application&#187;</text><text fill="#000000" font-family="sans-serif" font-size="14" lengthAdjust="spacing" textLength="144.7305" x="688.501" y="111.7285">SearchFigureController</text><rect fill="#E3E3E3" height="51.2422" rx="2.5" ry="2.5" style="stroke:#181818;stroke-width:0.5;" width="158.7305" x="681.501" y="1082.9336"/><text fill="#000000" font-family="sans-serif" font-size="14" font-style="italic" lengthAdjust="spacing" textLength="82.5098" x="719.6113" y="1105.041">&#171;application&#187;</text><text fill="#000000" font-family="sans-serif" font-size="14" lengthAdjust="spacing" textLength="144.7305" x="688.501" y="1123.6621">SearchFigureController</text><rect fill="#E3E3E3" height="51.2422" rx="2.5" ry="2.5" style="stroke:#181818;stroke-width:0.5;" width="142.3994" x="1004.4678" y="1082.9336"/><text fill="#000000" font-family="sans-serif" font-size="14" font-style="italic" lengthAdjust="spacing" textLength="42.8203" x="1054.2573" y="1105.041">&#171;auth&#187;</text><text fill="#000000" font-family="sans-serif" font-size="14" lengthAdjust="spacing" textLength="128.3994" x="1011.4678" y="1123.6621">AuthorizationService</text><rect fill="#E3E3E3" height="51.2422" rx="2.5" ry="2.5" style="stroke:#181818;stroke-width:0.5;" width="182.082" x="1156.8672" y="71"/><text fill="#000000" font-family="sans-serif" font-size="14" font-style="italic" lengthAdjust="spacing" textLength="82.5098" x="1206.6533" y="93.1074">&#171;application&#187;</text><text fill="#000000" font-family="sans-serif" font-size="14" lengthAdjust="spacing" textLength="168.082" x="1163.8672" y="111.7285">FigureManagementService</text><rect fill="#E3E3E3" height="51.2422" rx="2.5" ry="2.5" style="stroke:#181818;stroke-width:0.5;" width="182.082" x="1156.8672" y="1082.9336"/><text fill="#000000" font-family="sans-serif" font-size="14" font-style="italic" lengthAdjust="spacing" textLength="82.5098" x="1206.6533" y="1105.041">&#171;application&#187;</text><text fill="#000000" font-family="sans-serif" font-size="14" lengthAdjust="spacing" textLength="168.082" x="1163.8672" y="1123.6621">FigureManagementService</text><rect fill="#E3E3E3" height="51.2422" rx="2.5" ry="2.5" style="stroke:#181818;stroke-width:0.5;" width="120.5996" x="1493.3472" y="71"/><text fill="#000000" font-family="sans-serif" font-size="14" font-style="italic" lengthAdjust="spacing" textLength="77.041" x="1515.1265" y="93.1074">&#171;repository&#187;</text><text fill="#000000" font-family="sans-serif" font-size="14" lengthAdjust="spacing" textLength="106.5996" x="1500.3472" y="111.7285">FigureRepository</text><rect fill="#E3E3E3" height="51.2422" rx="2.5" ry="2.5" style="stroke:#181818;stroke-width:0.5;" width="120.5996" x="1493.3472" y="1082.9336"/><text fill="#000000" font-family="sans-serif" font-size="14" font-style="italic" lengthAdjust="spacing" textLength="77.041" x="1515.1265" y="1105.041">&#171;repository&#187;</text><text fill="#000000" font-family="sans-serif" font-size="14" lengthAdjust="spacing" textLength="106.5996" x="1500.3472" y="1123.6621">FigureRepository</text><text fill="#000000" font-family="sans-serif" font-size="14" lengthAdjust="spacing" textLength="59.9307" x="1826.4204" y="119.7285">Database</text><path d="M1841.3857,68.6211 C1841.3857,58.6211 1859.3857,58.6211 1859.3857,58.6211 C1859.3857,58.6211 1877.3857,58.6211 1877.3857,68.6211 L1877.3857,94.6211 C1877.3857,104.6211 1859.3857,104.6211 1859.3857,104.6211 C1859.3857,104.6211 1841.3857,104.6211 1841.3857,94.6211 L1841.3857,68.6211 " fill="#E3E3E3" style="stroke:#181818;stroke-width:1.5;"/><path d="M1841.3857,68.6211 C1841.3857,78.6211 1859.3857,78.6211 1859.3857,78.6211 C1859.3857,78.6211 1877.3857,78.6211 1877.3857,68.6211 " fill="none" style="stroke:#181818;stroke-width:1.5;"/><text fill="#000000" font-family="sans-serif" font-size="14" lengthAdjust="spacing" textLength="59.9307" x="1826.4204" y="1098.041">Database</text><path d="M1841.3857,1111.5547 C1841.3857,1101.5547 1859.3857,1101.5547 1859.3857,1101.5547 C1859.3857,1101.5547 1877.3857,1101.5547 1877.3857,1111.5547 L1877.3857,1137.5547 C1877.3857,1147.5547 1859.3857,1147.5547 1859.3857,1147.5547 C1859.3857,1147.5547 1841.3857,1147.5547 1841.3857,1137.5547 L1841.3857,1111.5547 " fill="#E3E3E3" style="stroke:#181818;stroke-width:1.5;"/><path d="M1841.3857,1111.5547 C1841.3857,1121.5547 1859.3857,1121.5547 1859.3857,1121.5547 C1859.3857,1121.5547 1877.3857,1121.5547 1877.3857,1111.5547 " fill="none" style="stroke:#181818;stroke-width:1.5;"/><rect fill="#FFFFFF" height="941.6914" style="stroke:#181818;stroke-width:1.0;" width="10" x="59.0171" y="133.2422"/><rect fill="#FFFFFF" height="31.291" style="stroke:#181818;stroke-width:1.0;" width="10" x="383.5513" y="156.5332"/><rect fill="#FFFFFF" height="33.6211" style="stroke:#181818;stroke-width:1.0;" width="10" x="518.0474" y="197.8242"/><rect fill="#FFFFFF" height="803.1973" style="stroke:#181818;stroke-width:1.0;" width="10" x="518.0474" y="262.7363"/><rect fill="#FFFFFF" height="723.3242" style="stroke:#181818;stroke-width:1.0;" width="10" x="755.8662" y="294.0273"/><rect fill="#FFFFFF" height="156.4551" style="stroke:#181818;stroke-width:1.0;" width="10" x="1242.9082" y="413.8516"/><rect fill="#FFFFFF" height="156.4551" style="stroke:#181818;stroke-width:1.0;" width="10" x="1242.9082" y="618.2285"/><rect fill="#FFFFFF" height="156.4551" style="stroke:#181818;stroke-width:1.0;" width="10" x="1242.9082" y="822.6055"/><rect fill="#FFFFFF" height="93.873" style="stroke:#181818;stroke-width:1.0;" width="10" x="1548.647" y="445.1426"/><rect fill="#FFFFFF" height="93.873" style="stroke:#181818;stroke-width:1.0;" width="10" x="1548.647" y="649.5195"/><rect fill="#FFFFFF" height="93.873" style="stroke:#181818;stroke-width:1.0;" width="10" x="1548.647" y="853.8965"/><rect fill="#FFFFFF" height="31.291" style="stroke:#181818;stroke-width:1.0;" width="10" x="1854.3857" y="476.4336"/><rect fill="#FFFFFF" height="31.291" style="stroke:#181818;stroke-width:1.0;" width="10" x="1854.3857" y="680.8105"/><rect fill="#FFFFFF" height="31.291" style="stroke:#181818;stroke-width:1.0;" width="10" x="1854.3857" y="885.1875"/><polygon fill="#181818" points="371.5513,152.5332,381.5513,156.5332,371.5513,160.5332,375.5513,156.5332" style="stroke:#181818;stroke-width:1.0;"/><line style="stroke:#181818;stroke-width:1.0;" x1="69.0171" x2="377.5513" y1="156.5332" y2="156.5332"/><text fill="#000000" font-family="sans-serif" font-size="13" lengthAdjust="spacing" textLength="295.5342" x="76.0171" y="151.2705">Asks to search a figure by category and/or keyword</text><polygon fill="#181818" points="455.0269,183.8242,465.0269,187.8242,455.0269,191.8242,459.0269,187.8242" style="stroke:#181818;stroke-width:1.0;"/><line style="stroke:#181818;stroke-width:1.0;" x1="388.5513" x2="461.0269" y1="187.8242" y2="187.8242"/><text fill="#000000" font-family="sans-serif" font-size="13" lengthAdjust="spacing" textLength="36.1309" x="395.5513" y="182.5615">create</text><rect fill="#E3E3E3" height="32.6211" rx="2.5" ry="2.5" style="stroke:#181818;stroke-width:0.5;" width="112.041" x="467.0269" y="164.5332"/><text fill="#000000" font-family="sans-serif" font-size="14" lengthAdjust="spacing" textLength="98.041" x="474.0269" y="186.6406">SearchFigureUI</text><polygon fill="#181818" points="80.0171,227.4453,70.0171,231.4453,80.0171,235.4453,76.0171,231.4453" style="stroke:#181818;stroke-width:1.0;"/><line style="stroke:#181818;stroke-width:1.0;" x1="74.0171" x2="522.0474" y1="231.4453" y2="231.4453"/><text fill="#000000" font-family="sans-serif" font-size="13" lengthAdjust="spacing" textLength="228.3442" x="86.0171" y="226.1826">Request data(category and/or keyword)</text><polygon fill="#181818" points="506.0474,258.7363,516.0474,262.7363,506.0474,266.7363,510.0474,262.7363" style="stroke:#181818;stroke-width:1.0;"/><line style="stroke:#181818;stroke-width:1.0;" x1="69.0171" x2="512.0474" y1="262.7363" y2="262.7363"/><text fill="#000000" font-family="sans-serif" font-size="13" lengthAdjust="spacing" textLength="181.3652" x="76.0171" y="257.4736">Types category and/or keyword</text><polygon fill="#181818" points="743.8662,290.0273,753.8662,294.0273,743.8662,298.0273,747.8662,294.0273" style="stroke:#181818;stroke-width:1.0;"/><line style="stroke:#181818;stroke-width:1.0;" x1="528.0474" x2="749.8662" y1="294.0273" y2="294.0273"/><text fill="#000000" font-family="sans-serif" font-size="13" lengthAdjust="spacing" textLength="208.8188" x="535.0474" y="288.7646">findFigure(category and/or keyword)</text><polygon fill="#181818" points="992.4678,321.3184,1002.4678,325.3184,992.4678,329.3184,996.4678,325.3184" style="stroke:#181818;stroke-width:1.0;"/><line style="stroke:#181818;stroke-width:1.0;" x1="765.8662" x2="998.4678" y1="325.3184" y2="325.3184"/><text fill="#000000" font-family="sans-serif" font-size="13" lengthAdjust="spacing" textLength="214.6016" x="772.8662" y="320.0557">ensureAuthenticatedUserHasAnyOf()</text><rect fill="#E3E3E3" height="51.2422" rx="2.5" ry="2.5" style="stroke:#181818;stroke-width:0.5;" width="142.3994" x="1004.4678" y="302.0273"/><text fill="#000000" font-family="sans-serif" font-size="14" font-style="italic" lengthAdjust="spacing" textLength="42.8203" x="1054.2573" y="324.1348">&#171;auth&#187;</text><text fill="#000000" font-family="sans-serif" font-size="14" lengthAdjust="spacing" textLength="128.3994" x="1011.4678" y="342.7559">AuthorizationService</text><path d="M671.501,371.2695 L731.6719,371.2695 L731.6719,380.5605 L721.6719,390.5605 L671.501,390.5605 L671.501,371.2695 " fill="#EEEEEE" style="stroke:#000000;stroke-width:1.5;"/><rect fill="none" height="615.791" style="stroke:#000000;stroke-width:1.5;" width="1230.8501" x="671.501" y="371.2695"/><text fill="#000000" font-family="sans-serif" font-size="13" font-weight="bold" lengthAdjust="spacing" textLength="15.1709" x="686.501" y="386.2979">alt</text><text fill="#000000" font-family="sans-serif" font-size="11" font-weight="bold" lengthAdjust="spacing" textLength="176.0322" x="746.6719" y="385.1396">[Search figure only with keyword]</text><polygon fill="#181818" points="1230.9082,409.8516,1240.9082,413.8516,1230.9082,417.8516,1234.9082,413.8516" style="stroke:#181818;stroke-width:1.0;"/><line style="stroke:#181818;stroke-width:1.0;" x1="765.8662" x2="1236.9082" y1="413.8516" y2="413.8516"/><text fill="#000000" font-family="sans-serif" font-size="13" lengthAdjust="spacing" textLength="114.8735" x="772.8662" y="408.5889">findFigure(keyword)</text><polygon fill="#181818" points="1536.647,441.1426,1546.647,445.1426,1536.647,449.1426,1540.647,445.1426" style="stroke:#181818;stroke-width:1.0;"/><line style="stroke:#181818;stroke-width:1.0;" x1="1252.9082" x2="1542.647" y1="445.1426" y2="445.1426"/><text fill="#000000" font-family="sans-serif" font-size="13" lengthAdjust="spacing" textLength="143.7744" x="1259.9082" y="439.8799">findByKeyword(keyword)</text><polygon fill="#181818" points="1842.3857,472.4336,1852.3857,476.4336,1842.3857,480.4336,1846.3857,476.4336" style="stroke:#181818;stroke-width:1.0;"/><line style="stroke:#181818;stroke-width:1.0;" x1="1558.647" x2="1848.3857" y1="476.4336" y2="476.4336"/><text fill="#000000" font-family="sans-serif" font-size="13" lengthAdjust="spacing" textLength="143.7744" x="1565.647" y="471.1709">findByKeyword(keyword)</text><polygon fill="#181818" points="1569.647,503.7246,1559.647,507.7246,1569.647,511.7246,1565.647,507.7246" style="stroke:#181818;stroke-width:1.0;"/><line style="stroke:#181818;stroke-width:1.0;" x1="1563.647" x2="1858.3857" y1="507.7246" y2="507.7246"/><text fill="#000000" font-family="sans-serif" font-size="13" lengthAdjust="spacing" textLength="32.519" x="1575.647" y="502.4619">figure</text><polygon fill="#181818" points="1263.9082,535.0156,1253.9082,539.0156,1263.9082,543.0156,1259.9082,539.0156" style="stroke:#181818;stroke-width:1.0;"/><line style="stroke:#181818;stroke-width:1.0;" x1="1257.9082" x2="1552.647" y1="539.0156" y2="539.0156"/><text fill="#000000" font-family="sans-serif" font-size="13" lengthAdjust="spacing" textLength="32.519" x="1269.9082" y="533.7529">figure</text><polygon fill="#181818" points="776.8662,566.3066,766.8662,570.3066,776.8662,574.3066,772.8662,570.3066" style="stroke:#181818;stroke-width:1.0;"/><line style="stroke:#181818;stroke-width:1.0;" x1="770.8662" x2="1246.9082" y1="570.3066" y2="570.3066"/><text fill="#000000" font-family="sans-serif" font-size="13" lengthAdjust="spacing" textLength="32.519" x="782.8662" y="565.0439">figure</text><line style="stroke:#000000;stroke-width:1.0;stroke-dasharray:2.0,2.0;" x1="671.501" x2="1902.3511" y1="579.3066" y2="579.3066"/><text fill="#000000" font-family="sans-serif" font-size="11" font-weight="bold" lengthAdjust="spacing" textLength="177.2568" x="676.501" y="591.1768">[Search figure only with category]</text><polygon fill="#181818" points="1230.9082,614.2285,1240.9082,618.2285,1230.9082,622.2285,1234.9082,618.2285" style="stroke:#181818;stroke-width:1.0;"/><line style="stroke:#181818;stroke-width:1.0;" x1="765.8662" x2="1236.9082" y1="618.2285" y2="618.2285"/><text fill="#000000" font-family="sans-serif" font-size="13" lengthAdjust="spacing" textLength="116.3271" x="772.8662" y="612.9658">findFigure(category)</text><polygon fill="#181818" points="1536.647,645.5195,1546.647,649.5195,1536.647,653.5195,1540.647,649.5195" style="stroke:#181818;stroke-width:1.0;"/><line style="stroke:#181818;stroke-width:1.0;" x1="1252.9082" x2="1542.647" y1="649.5195" y2="649.5195"/><text fill="#000000" font-family="sans-serif" font-size="13" lengthAdjust="spacing" textLength="184.2471" x="1259.9082" y="644.2568">findByFigureCategory(category)</text><polygon fill="#181818" points="1842.3857,676.8105,1852.3857,680.8105,1842.3857,684.8105,1846.3857,680.8105" style="stroke:#181818;stroke-width:1.0;"/><line style="stroke:#181818;stroke-width:1.0;" x1="1558.647" x2="1848.3857" y1="680.8105" y2="680.8105"/><text fill="#000000" font-family="sans-serif" font-size="13" lengthAdjust="spacing" textLength="184.2471" x="1565.647" y="675.5479">findByFigureCategory(category)</text><polygon fill="#181818" points="1569.647,708.1016,1559.647,712.1016,1569.647,716.1016,1565.647,712.1016" style="stroke:#181818;stroke-width:1.0;"/><line style="stroke:#181818;stroke-width:1.0;" x1="1563.647" x2="1858.3857" y1="712.1016" y2="712.1016"/><text fill="#000000" font-family="sans-serif" font-size="13" lengthAdjust="spacing" textLength="32.519" x="1575.647" y="706.8389">figure</text><polygon fill="#181818" points="1263.9082,739.3926,1253.9082,743.3926,1263.9082,747.3926,1259.9082,743.3926" style="stroke:#181818;stroke-width:1.0;"/><line style="stroke:#181818;stroke-width:1.0;" x1="1257.9082" x2="1552.647" y1="743.3926" y2="743.3926"/><text fill="#000000" font-family="sans-serif" font-size="13" lengthAdjust="spacing" textLength="32.519" x="1269.9082" y="738.1299">figure</text><polygon fill="#181818" points="776.8662,770.6836,766.8662,774.6836,776.8662,778.6836,772.8662,774.6836" style="stroke:#181818;stroke-width:1.0;"/><line style="stroke:#181818;stroke-width:1.0;" x1="770.8662" x2="1246.9082" y1="774.6836" y2="774.6836"/><text fill="#000000" font-family="sans-serif" font-size="13" lengthAdjust="spacing" textLength="32.519" x="782.8662" y="769.4209">figure</text><line style="stroke:#000000;stroke-width:1.0;stroke-dasharray:2.0,2.0;" x1="671.501" x2="1902.3511" y1="783.6836" y2="783.6836"/><text fill="#000000" font-family="sans-serif" font-size="11" font-weight="bold" lengthAdjust="spacing" textLength="221.8853" x="676.501" y="795.5537">[Search figure with keyword and category]</text><polygon fill="#181818" points="1230.9082,818.6055,1240.9082,822.6055,1230.9082,826.6055,1234.9082,822.6055" style="stroke:#181818;stroke-width:1.0;"/><line style="stroke:#181818;stroke-width:1.0;" x1="765.8662" x2="1236.9082" y1="822.6055" y2="822.6055"/><text fill="#000000" font-family="sans-serif" font-size="13" lengthAdjust="spacing" textLength="116.3271" x="772.8662" y="817.3428">findFigure(category)</text><polygon fill="#181818" points="1536.647,849.8965,1546.647,853.8965,1536.647,857.8965,1540.647,853.8965" style="stroke:#181818;stroke-width:1.0;"/><line style="stroke:#181818;stroke-width:1.0;" x1="1252.9082" x2="1542.647" y1="853.8965" y2="853.8965"/><text fill="#000000" font-family="sans-serif" font-size="13" lengthAdjust="spacing" textLength="276.7388" x="1259.9082" y="848.6338">findByKeywordAndCategory(keyword, category)</text><polygon fill="#181818" points="1842.3857,881.1875,1852.3857,885.1875,1842.3857,889.1875,1846.3857,885.1875" style="stroke:#181818;stroke-width:1.0;"/><line style="stroke:#181818;stroke-width:1.0;" x1="1558.647" x2="1848.3857" y1="885.1875" y2="885.1875"/><text fill="#000000" font-family="sans-serif" font-size="13" lengthAdjust="spacing" textLength="276.7388" x="1565.647" y="879.9248">findByKeywordAndCategory(keyword, category)</text><polygon fill="#181818" points="1569.647,912.4785,1559.647,916.4785,1569.647,920.4785,1565.647,916.4785" style="stroke:#181818;stroke-width:1.0;"/><line style="stroke:#181818;stroke-width:1.0;" x1="1563.647" x2="1858.3857" y1="916.4785" y2="916.4785"/><text fill="#000000" font-family="sans-serif" font-size="13" lengthAdjust="spacing" textLength="32.519" x="1575.647" y="911.2158">figure</text><polygon fill="#181818" points="1263.9082,943.7695,1253.9082,947.7695,1263.9082,951.7695,1259.9082,947.7695" style="stroke:#181818;stroke-width:1.0;"/><line style="stroke:#181818;stroke-width:1.0;" x1="1257.9082" x2="1552.647" y1="947.7695" y2="947.7695"/><text fill="#000000" font-family="sans-serif" font-size="13" lengthAdjust="spacing" textLength="32.519" x="1269.9082" y="942.5068">figure</text><polygon fill="#181818" points="776.8662,975.0605,766.8662,979.0605,776.8662,983.0605,772.8662,979.0605" style="stroke:#181818;stroke-width:1.0;"/><line style="stroke:#181818;stroke-width:1.0;" x1="770.8662" x2="1246.9082" y1="979.0605" y2="979.0605"/><text fill="#000000" font-family="sans-serif" font-size="13" lengthAdjust="spacing" textLength="32.519" x="782.8662" y="973.7979">figure</text><polygon fill="#181818" points="539.0474,1013.3516,529.0474,1017.3516,539.0474,1021.3516,535.0474,1017.3516" style="stroke:#181818;stroke-width:1.0;"/><line style="stroke:#181818;stroke-width:1.0;" x1="533.0474" x2="759.8662" y1="1017.3516" y2="1017.3516"/><text fill="#000000" font-family="sans-serif" font-size="13" lengthAdjust="spacing" textLength="32.519" x="545.0474" y="1012.0889">figure</text><polygon fill="#181818" points="80.0171,1061.9336,70.0171,1065.9336,80.0171,1069.9336,76.0171,1065.9336" style="stroke:#181818;stroke-width:1.0;"/><line style="stroke:#181818;stroke-width:1.0;" x1="74.0171" x2="522.0474" y1="1065.9336" y2="1065.9336"/><text fill="#000000" font-family="sans-serif" font-size="13" lengthAdjust="spacing" textLength="227.6079" x="86.0171" y="1043.3799">Displays the search results of the figure</text><text fill="#000000" font-family="sans-serif" font-size="13" lengthAdjust="spacing" textLength="180.6606" x="86.0171" y="1060.6709">and displays operation success</text><!--SRC=[xLPDRnCn4BtlhnZbr5PKIEKMLPL2AaG4fLBItBXClPF4oiPURAVLykiPUp-ocwnJ2e8YL9-oO_kzDnw_UEnQgXmDRc2ZbHOhepS4pcmfiSrCZcADIvgv8YCm91ogPTPUO5UOwaUfbh30p5AIe73Qm60ylO6npZAyrmOvCW2q8Coc7KiOmaaXSrGE1ZD28rOVv79hQ2ISr2hi6Otl9hTVualdax1iFeal6Mlb3FDIgM9yD_qCbvUOvvaKw8ckhhgRHrktqaP-3vCpCWzIK2ccPy93SNWVewI-GSN7jo7bsZ2HkUEYoarJohMLV7X52saNP0ZJV312YWxlqH8ChgjVOLlzaIHEEgxiZBvjIR62QubBNzPpcCyktbs4Sie7T7HGkmHux0NX_Agg5mnXPDSMd0ORAW48Yw0LxWlW16dfrQ9At_AsDHMFsgG1iY6i2X-2VbJ0J36Vd9qnWJ34wvhvbFQtrZDDd2z94_HZFl5m-qaCOUgFmphmftSI4NkQx94oUEH8c6O8TqLEDffv4jLPQWntTiX7gDAovCTbTT3ytcxU0StNgkSwXwCbPRqBUPflfx-FbCujcOzeHwguNPoSTk0mSr3whQwnLba1ZzAjkWdsQOXvePFiGN87IKPW3ddzY74sSbg6AdMyBpwL4k9IUkJiOFfrxBIq25b4RS_daNS4x1mEHqP35ClSXw88hSl_D5rVdiTg7sLkiVxSAH-fTcEhNhO3fYUk5_4363L2xTVVT48Dyv9Mg5xLIiaHIN_I4iyIyMgDVyyQxUV1FsB_aqEg_-kHIfiBMcNw1bx6Bh-kwDKxVzyx7UkejBzx2stb7aSBkzlsnLhTQsdp30lkr5TKj-g6x3Pp5lGYH2k_VbNUf6czNkTaGjy8TYi4MTlJ3oV93m00]--></g></svg>