<?xml version="1.0" encoding="us-ascii" standalone="no"?><svg xmlns="http://www.w3.org/2000/svg" xmlns:xlink="http://www.w3.org/1999/xlink" contentStyleType="text/css" height="663px" preserveAspectRatio="none" style="width:1225px;height:663px;background:#FFFFFF;" version="1.1" viewBox="0 0 1225 663" width="1225px" zoomAndPan="magnify"><defs/><g><text fill="#000000" font-family="sans-serif" font-size="14" font-weight="bold" lengthAdjust="spacing" textLength="132" x="548" y="30.1074">Sequence Diagram</text><rect fill="#FFFFFF" height="429.3945" style="stroke:#181818;stroke-width:1.0;" width="10" x="44.5" y="133.2422"/><rect fill="#FFFFFF" height="406.1035" style="stroke:#181818;stroke-width:1.0;" width="10" x="236.5" y="156.5332"/><rect fill="#FFFFFF" height="281.2793" style="stroke:#181818;stroke-width:1.0;" width="10" x="392.5" y="250.0664"/><rect fill="#FFFFFF" height="156.4551" style="stroke:#181818;stroke-width:1.0;" width="10" x="873.5" y="343.5996"/><rect fill="#FFFFFF" height="93.873" style="stroke:#181818;stroke-width:1.0;" width="10" x="1029.5" y="374.8906"/><rect fill="#FFFFFF" height="31.291" style="stroke:#181818;stroke-width:1.0;" width="10" x="1185.5" y="406.1816"/><line style="stroke:#181818;stroke-width:0.5;stroke-dasharray:5.0,5.0;" x1="49" x2="49" y1="123.2422" y2="580.6367"/><line style="stroke:#181818;stroke-width:0.5;stroke-dasharray:5.0,5.0;" x1="241" x2="241" y1="123.2422" y2="580.6367"/><line style="stroke:#181818;stroke-width:0.5;stroke-dasharray:5.0,5.0;" x1="397.5" x2="397.5" y1="205.6543" y2="580.6367"/><line style="stroke:#181818;stroke-width:0.5;stroke-dasharray:5.0,5.0;" x1="710.5" x2="710.5" y1="299.1875" y2="580.6367"/><line style="stroke:#181818;stroke-width:0.5;stroke-dasharray:5.0,5.0;" x1="878.5" x2="878.5" y1="123.2422" y2="580.6367"/><line style="stroke:#181818;stroke-width:0.5;stroke-dasharray:5.0,5.0;" x1="1034" x2="1034" y1="123.2422" y2="580.6367"/><line style="stroke:#181818;stroke-width:0.5;stroke-dasharray:5.0,5.0;" x1="1190" x2="1190" y1="123.2422" y2="580.6367"/><text fill="#000000" font-family="sans-serif" font-size="14" lengthAdjust="spacing" textLength="83" x="5" y="119.7285">Administrator</text><ellipse cx="49.5" cy="53.1211" fill="#E2E2F0" rx="8" ry="8" style="stroke:#181818;stroke-width:0.5;"/><path d="M49.5,61.1211 L49.5,88.1211 M36.5,69.1211 L62.5,69.1211 M49.5,88.1211 L36.5,103.1211 M49.5,88.1211 L62.5,103.1211 " fill="none" style="stroke:#181818;stroke-width:0.5;"/><text fill="#000000" font-family="sans-serif" font-size="14" lengthAdjust="spacing" textLength="83" x="5" y="594.7441">Administrator</text><ellipse cx="49.5" cy="606.7578" fill="#E2E2F0" rx="8" ry="8" style="stroke:#181818;stroke-width:0.5;"/><path d="M49.5,614.7578 L49.5,641.7578 M36.5,622.7578 L62.5,622.7578 M49.5,641.7578 L36.5,656.7578 M49.5,641.7578 L62.5,656.7578 " fill="none" style="stroke:#181818;stroke-width:0.5;"/><rect fill="#E2E2F0" height="51.2422" rx="2.5" ry="2.5" style="stroke:#181818;stroke-width:0.5;" width="109" x="187" y="71"/><text fill="#000000" font-family="sans-serif" font-size="14" font-style="italic" lengthAdjust="spacing" textLength="95" x="194" y="93.1074">&#171;presentation&#187;</text><text fill="#000000" font-family="sans-serif" font-size="14" lengthAdjust="spacing" textLength="70" x="206.5" y="111.7285">ListUsersUI</text><rect fill="#E2E2F0" height="51.2422" rx="2.5" ry="2.5" style="stroke:#181818;stroke-width:0.5;" width="109" x="187" y="579.6367"/><text fill="#000000" font-family="sans-serif" font-size="14" font-style="italic" lengthAdjust="spacing" textLength="95" x="194" y="601.7441">&#171;presentation&#187;</text><text fill="#000000" font-family="sans-serif" font-size="14" lengthAdjust="spacing" textLength="70" x="206.5" y="620.3652">ListUsersUI</text><rect fill="#E2E2F0" height="51.2422" rx="2.5" ry="2.5" style="stroke:#181818;stroke-width:0.5;" width="134" x="330.5" y="579.6367"/><text fill="#000000" font-family="sans-serif" font-size="14" font-style="italic" lengthAdjust="spacing" textLength="84" x="355.5" y="601.7441">&#171;application&#187;</text><text fill="#000000" font-family="sans-serif" font-size="14" lengthAdjust="spacing" textLength="120" x="337.5" y="620.3652">ListUsersController</text><rect fill="#E2E2F0" height="51.2422" rx="2.5" ry="2.5" style="stroke:#181818;stroke-width:0.5;" width="143" x="639.5" y="579.6367"/><text fill="#000000" font-family="sans-serif" font-size="14" font-style="italic" lengthAdjust="spacing" textLength="44" x="689" y="601.7441">&#171;auth&#187;</text><text fill="#000000" font-family="sans-serif" font-size="14" lengthAdjust="spacing" textLength="129" x="646.5" y="620.3652">AuthorizationService</text><rect fill="#E2E2F0" height="51.2422" rx="2.5" ry="2.5" style="stroke:#181818;stroke-width:0.5;" width="172" x="792.5" y="71"/><text fill="#000000" font-family="sans-serif" font-size="14" font-style="italic" lengthAdjust="spacing" textLength="84" x="836.5" y="93.1074">&#171;application&#187;</text><text fill="#000000" font-family="sans-serif" font-size="14" lengthAdjust="spacing" textLength="158" x="799.5" y="111.7285">UserManagementService</text><rect fill="#E2E2F0" height="51.2422" rx="2.5" ry="2.5" style="stroke:#181818;stroke-width:0.5;" width="172" x="792.5" y="579.6367"/><text fill="#000000" font-family="sans-serif" font-size="14" font-style="italic" lengthAdjust="spacing" textLength="84" x="836.5" y="601.7441">&#171;application&#187;</text><text fill="#000000" font-family="sans-serif" font-size="14" lengthAdjust="spacing" textLength="158" x="799.5" y="620.3652">UserManagementService</text><rect fill="#E2E2F0" height="51.2422" rx="2.5" ry="2.5" style="stroke:#181818;stroke-width:0.5;" width="111" x="979" y="71"/><text fill="#000000" font-family="sans-serif" font-size="14" font-style="italic" lengthAdjust="spacing" textLength="79" x="995" y="93.1074">&#171;repository&#187;</text><text fill="#000000" font-family="sans-serif" font-size="14" lengthAdjust="spacing" textLength="97" x="986" y="111.7285">UserRepository</text><rect fill="#E2E2F0" height="51.2422" rx="2.5" ry="2.5" style="stroke:#181818;stroke-width:0.5;" width="111" x="979" y="579.6367"/><text fill="#000000" font-family="sans-serif" font-size="14" font-style="italic" lengthAdjust="spacing" textLength="79" x="995" y="601.7441">&#171;repository&#187;</text><text fill="#000000" font-family="sans-serif" font-size="14" lengthAdjust="spacing" textLength="97" x="986" y="620.3652">UserRepository</text><text fill="#000000" font-family="sans-serif" font-size="14" lengthAdjust="spacing" textLength="61" x="1157" y="119.7285">Database</text><path d="M1172.5,68.6211 C1172.5,58.6211 1190.5,58.6211 1190.5,58.6211 C1190.5,58.6211 1208.5,58.6211 1208.5,68.6211 L1208.5,94.6211 C1208.5,104.6211 1190.5,104.6211 1190.5,104.6211 C1190.5,104.6211 1172.5,104.6211 1172.5,94.6211 L1172.5,68.6211 " fill="#E2E2F0" style="stroke:#181818;stroke-width:1.5;"/><path d="M1172.5,68.6211 C1172.5,78.6211 1190.5,78.6211 1190.5,78.6211 C1190.5,78.6211 1208.5,78.6211 1208.5,68.6211 " fill="none" style="stroke:#181818;stroke-width:1.5;"/><text fill="#000000" font-family="sans-serif" font-size="14" lengthAdjust="spacing" textLength="61" x="1157" y="594.7441">Database</text><path d="M1172.5,608.2578 C1172.5,598.2578 1190.5,598.2578 1190.5,598.2578 C1190.5,598.2578 1208.5,598.2578 1208.5,608.2578 L1208.5,634.2578 C1208.5,644.2578 1190.5,644.2578 1190.5,644.2578 C1190.5,644.2578 1172.5,644.2578 1172.5,634.2578 L1172.5,608.2578 " fill="#E2E2F0" style="stroke:#181818;stroke-width:1.5;"/><path d="M1172.5,608.2578 C1172.5,618.2578 1190.5,618.2578 1190.5,618.2578 C1190.5,618.2578 1208.5,618.2578 1208.5,608.2578 " fill="none" style="stroke:#181818;stroke-width:1.5;"/><rect fill="#FFFFFF" height="429.3945" style="stroke:#181818;stroke-width:1.0;" width="10" x="44.5" y="133.2422"/><rect fill="#FFFFFF" height="406.1035" style="stroke:#181818;stroke-width:1.0;" width="10" x="236.5" y="156.5332"/><rect fill="#FFFFFF" height="281.2793" style="stroke:#181818;stroke-width:1.0;" width="10" x="392.5" y="250.0664"/><rect fill="#FFFFFF" height="156.4551" style="stroke:#181818;stroke-width:1.0;" width="10" x="873.5" y="343.5996"/><rect fill="#FFFFFF" height="93.873" style="stroke:#181818;stroke-width:1.0;" width="10" x="1029.5" y="374.8906"/><rect fill="#FFFFFF" height="31.291" style="stroke:#181818;stroke-width:1.0;" width="10" x="1185.5" y="406.1816"/><polygon fill="#181818" points="224.5,152.5332,234.5,156.5332,224.5,160.5332,228.5,156.5332" style="stroke:#181818;stroke-width:1.0;"/><line style="stroke:#181818;stroke-width:1.0;" x1="54.5" x2="230.5" y1="156.5332" y2="156.5332"/><text fill="#000000" font-family="sans-serif" font-size="13" lengthAdjust="spacing" textLength="38" x="61.5" y="151.2705">show()</text><polygon fill="#181818" points="318.5,183.8242,328.5,187.8242,318.5,191.8242,322.5,187.8242" style="stroke:#181818;stroke-width:1.0;"/><line style="stroke:#181818;stroke-width:1.0;" x1="246.5" x2="324.5" y1="187.8242" y2="187.8242"/><text fill="#000000" font-family="sans-serif" font-size="13" lengthAdjust="spacing" textLength="44" x="253.5" y="182.5615">create()</text><rect fill="#E2E2F0" height="51.2422" rx="2.5" ry="2.5" style="stroke:#181818;stroke-width:0.5;" width="134" x="330.5" y="164.5332"/><text fill="#000000" font-family="sans-serif" font-size="14" font-style="italic" lengthAdjust="spacing" textLength="84" x="355.5" y="186.6406">&#171;application&#187;</text><text fill="#000000" font-family="sans-serif" font-size="14" lengthAdjust="spacing" textLength="120" x="337.5" y="205.2617">ListUsersController</text><polygon fill="#181818" points="380.5,246.0664,390.5,250.0664,380.5,254.0664,384.5,250.0664" style="stroke:#181818;stroke-width:1.0;"/><line style="stroke:#181818;stroke-width:1.0;" x1="246.5" x2="386.5" y1="250.0664" y2="250.0664"/><text fill="#000000" font-family="sans-serif" font-size="13" lengthAdjust="spacing" textLength="55" x="253.5" y="244.8037">allUsers()</text><polygon fill="#181818" points="627.5,277.3574,637.5,281.3574,627.5,285.3574,631.5,281.3574" style="stroke:#181818;stroke-width:1.0;"/><line style="stroke:#181818;stroke-width:1.0;" x1="402.5" x2="633.5" y1="281.3574" y2="281.3574"/><text fill="#000000" font-family="sans-serif" font-size="13" lengthAdjust="spacing" textLength="213" x="409.5" y="276.0947">ensureAuthenticatedUserHasAnyOf()</text><rect fill="#E2E2F0" height="51.2422" rx="2.5" ry="2.5" style="stroke:#181818;stroke-width:0.5;" width="143" x="639.5" y="258.0664"/><text fill="#000000" font-family="sans-serif" font-size="14" font-style="italic" lengthAdjust="spacing" textLength="44" x="689" y="280.1738">&#171;auth&#187;</text><text fill="#000000" font-family="sans-serif" font-size="14" lengthAdjust="spacing" textLength="129" x="646.5" y="298.7949">AuthorizationService</text><polygon fill="#181818" points="861.5,339.5996,871.5,343.5996,861.5,347.5996,865.5,343.5996" style="stroke:#181818;stroke-width:1.0;"/><line style="stroke:#181818;stroke-width:1.0;" x1="402.5" x2="867.5" y1="343.5996" y2="343.5996"/><text fill="#000000" font-family="sans-serif" font-size="13" lengthAdjust="spacing" textLength="55" x="409.5" y="338.3369">allUsers()</text><polygon fill="#181818" points="1017.5,370.8906,1027.5,374.8906,1017.5,378.8906,1021.5,374.8906" style="stroke:#181818;stroke-width:1.0;"/><line style="stroke:#181818;stroke-width:1.0;" x1="883.5" x2="1023.5" y1="374.8906" y2="374.8906"/><text fill="#000000" font-family="sans-serif" font-size="13" lengthAdjust="spacing" textLength="43" x="890.5" y="369.6279">findAll()</text><polygon fill="#181818" points="1173.5,402.1816,1183.5,406.1816,1173.5,410.1816,1177.5,406.1816" style="stroke:#181818;stroke-width:1.0;"/><line style="stroke:#181818;stroke-width:1.0;" x1="1039.5" x2="1179.5" y1="406.1816" y2="406.1816"/><text fill="#000000" font-family="sans-serif" font-size="13" lengthAdjust="spacing" textLength="43" x="1046.5" y="400.9189">findAll()</text><polygon fill="#181818" points="1050.5,433.4727,1040.5,437.4727,1050.5,441.4727,1046.5,437.4727" style="stroke:#181818;stroke-width:1.0;"/><line style="stroke:#181818;stroke-width:1.0;stroke-dasharray:2.0,2.0;" x1="1044.5" x2="1189.5" y1="437.4727" y2="437.4727"/><text fill="#000000" font-family="sans-serif" font-size="13" lengthAdjust="spacing" textLength="122" x="1056.5" y="432.21">List of System Users</text><polygon fill="#181818" points="894.5,464.7637,884.5,468.7637,894.5,472.7637,890.5,468.7637" style="stroke:#181818;stroke-width:1.0;"/><line style="stroke:#181818;stroke-width:1.0;stroke-dasharray:2.0,2.0;" x1="888.5" x2="1033.5" y1="468.7637" y2="468.7637"/><text fill="#000000" font-family="sans-serif" font-size="13" lengthAdjust="spacing" textLength="122" x="900.5" y="463.501">List of System Users</text><polygon fill="#181818" points="413.5,496.0547,403.5,500.0547,413.5,504.0547,409.5,500.0547" style="stroke:#181818;stroke-width:1.0;"/><line style="stroke:#181818;stroke-width:1.0;stroke-dasharray:2.0,2.0;" x1="407.5" x2="877.5" y1="500.0547" y2="500.0547"/><text fill="#000000" font-family="sans-serif" font-size="13" lengthAdjust="spacing" textLength="122" x="419.5" y="494.792">List of System Users</text><polygon fill="#181818" points="257.5,527.3457,247.5,531.3457,257.5,535.3457,253.5,531.3457" style="stroke:#181818;stroke-width:1.0;"/><line style="stroke:#181818;stroke-width:1.0;stroke-dasharray:2.0,2.0;" x1="251.5" x2="396.5" y1="531.3457" y2="531.3457"/><text fill="#000000" font-family="sans-serif" font-size="13" lengthAdjust="spacing" textLength="122" x="263.5" y="526.083">List of System Users</text><polygon fill="#181818" points="60.5,558.6367,50.5,562.6367,60.5,566.6367,56.5,562.6367" style="stroke:#181818;stroke-width:1.0;"/><line style="stroke:#181818;stroke-width:1.0;stroke-dasharray:2.0,2.0;" x1="54.5" x2="240.5" y1="562.6367" y2="562.6367"/><text fill="#000000" font-family="sans-serif" font-size="13" lengthAdjust="spacing" textLength="158" x="66.5" y="557.374">Show List of System Users</text><!--SRC=[ZLJRQiCm37ttLuW-RONzG2Y5i3uii35Oo0TeYTeQ4ZkptOxkwoURfd5JzwAdoD8vHvQiEEbQWf9-TgHgWfN4ZS5E2AoTDf0tdLJIEeFiYHwDaxNiKJcOlVDnPSdOgfW1MgWAM2nwGvQKGoUrMYwl05wrSaQtBPa075qcmBvlPPt4vpktrKR-XM19PYzh2WIfWAVYuoc7r_z0XHlgkCoO91cvNP27V56lhUJc74uiun73pSbXT8CElz4Ip5R7hm0QdD1qkKT7axwBCnTUbjpi3EnM_puz2s0xuQf221u4PunTdSyXWzeGnpdz8fm1jcsOovHip14Xu2qQ5hEaEX_aIDcT8H_cPlhsKUCbtj3cwl2vzdMa6PDZk2XniF7UAPWuo_MM7l9HTfnR1ckfchnj9t99sH4caic3RlGiM72OUGPtj2uqnzS2Tsp8X9V43VqsWbv3UR2EkX2sDnaRkYpXqVjU7-p3PKJoqwu_EkR9ixyhFP6yyRxYDtpSpgli4MkyO7uj_KR5cvv1oJkUfegBAsBl_DVn3m00]--></g></svg>