<svg xmlns="http://www.w3.org/2000/svg" xmlns:xlink="http://www.w3.org/1999/xlink" contentStyleType="text/css" height="1261px" preserveAspectRatio="none" style="width:1691px;height:1261px;background:#FFFFFF;" version="1.1" viewBox="0 0 1691 1261" width="1691px" zoomAndPan="magnify"><defs/><g><rect fill="#FFFFFF" height="1075.2637" style="stroke:#181818;stroke-width:1.0;" width="10" x="50.4688" y="93.6211"/><rect fill="#FFFFFF" height="371.8613" style="stroke:#181818;stroke-width:1.0;" width="10" x="285.353" y="116.9121"/><rect fill="#FFFFFF" height="31.291" style="stroke:#181818;stroke-width:1.0;" width="10" x="285.353" y="520.0645"/><rect fill="#FFFFFF" height="31.291" style="stroke:#181818;stroke-width:1.0;" width="10" x="285.353" y="582.6465"/><rect fill="#FFFFFF" height="523.6563" style="stroke:#181818;stroke-width:1.0;" width="10" x="285.353" y="645.2285"/><rect fill="#FFFFFF" height="247.0371" style="stroke:#181818;stroke-width:1.0;" width="10" x="685.0117" y="210.4453"/><rect fill="#FFFFFF" height="452.0742" style="stroke:#181818;stroke-width:1.0;" width="10" x="685.0117" y="676.5195"/><rect fill="#FFFFFF" height="31.291" style="stroke:#181818;stroke-width:1.0;" width="10" x="928.6133" y="241.7363"/><rect fill="#FFFFFF" height="31.291" style="stroke:#181818;stroke-width:1.0;" width="10" x="928.6133" y="707.8105"/><rect fill="#FFFFFF" height="121.873" style="stroke:#181818;stroke-width:1.0;" width="10" x="1129.2573" y="304.3184"/><rect fill="#FFFFFF" height="326.9102" style="stroke:#181818;stroke-width:1.0;" width="10" x="1129.2573" y="770.3926"/><rect fill="#FFFFFF" height="76.582" style="stroke:#181818;stroke-width:1.0;" width="10" x="1389.4517" y="335.6094"/><rect fill="#FFFFFF" height="76.582" style="stroke:#181818;stroke-width:1.0;" width="10" x="1389.4517" y="801.6836"/><rect fill="#FFFFFF" height="93.873" style="stroke:#181818;stroke-width:1.0;" width="10" x="1389.4517" y="972.1387"/><rect fill="#FFFFFF" height="31.291" style="stroke:#181818;stroke-width:1.0;" width="10" x="1526.7725" y="366.9004"/><rect fill="#FFFFFF" height="31.291" style="stroke:#181818;stroke-width:1.0;" width="10" x="1526.7725" y="832.9746"/><rect fill="#FFFFFF" height="31.291" style="stroke:#181818;stroke-width:1.0;" width="10" x="1526.7725" y="1003.4297"/><rect fill="#FFFFFF" height="31.291" style="stroke:#181818;stroke-width:1.0;" width="10" x="1624.9824" y="909.5566"/><line style="stroke:#181818;stroke-width:0.5;stroke-dasharray:5.0,5.0;" x1="55" x2="55" y1="83.6211" y2="1177.8848"/><line style="stroke:#181818;stroke-width:0.5;stroke-dasharray:5.0,5.0;" x1="290.0464" x2="290.0464" y1="83.6211" y2="1177.8848"/><line style="stroke:#181818;stroke-width:0.5;stroke-dasharray:5.0,5.0;" x1="689.3604" x2="689.3604" y1="166.0332" y2="1177.8848"/><line style="stroke:#181818;stroke-width:0.5;stroke-dasharray:5.0,5.0;" x1="933.4136" x2="933.4136" y1="83.6211" y2="1177.8848"/><line style="stroke:#181818;stroke-width:0.5;stroke-dasharray:5.0,5.0;" x1="1133.813" x2="1133.813" y1="83.6211" y2="1177.8848"/><line style="stroke:#181818;stroke-width:0.5;stroke-dasharray:5.0,5.0;" x1="1393.7485" x2="1393.7485" y1="83.6211" y2="1177.8848"/><line style="stroke:#181818;stroke-width:0.5;stroke-dasharray:5.0,5.0;" x1="1530.8071" x2="1530.8071" y1="83.6211" y2="1177.8848"/><line style="stroke:#181818;stroke-width:0.5;stroke-dasharray:5.0,5.0;" x1="1629.7378" x2="1629.7378" y1="83.6211" y2="1177.8848"/><text fill="#000000" font-family="sans-serif" font-size="14" lengthAdjust="spacing" textLength="94.9375" x="5" y="80.1074">Show Designer</text><ellipse cx="55.4688" cy="13.5" fill="#E2E2F0" rx="8" ry="8" style="stroke:#181818;stroke-width:0.5;"/><path d="M55.4688,21.5 L55.4688,48.5 M42.4688,29.5 L68.4688,29.5 M55.4688,48.5 L42.4688,63.5 M55.4688,48.5 L68.4688,63.5 " fill="none" style="stroke:#181818;stroke-width:0.5;"/><text fill="#000000" font-family="sans-serif" font-size="14" lengthAdjust="spacing" textLength="94.9375" x="5" y="1191.9922">Show Designer</text><ellipse cx="55.4688" cy="1204.0059" fill="#E2E2F0" rx="8" ry="8" style="stroke:#181818;stroke-width:0.5;"/><path d="M55.4688,1212.0059 L55.4688,1239.0059 M42.4688,1220.0059 L68.4688,1220.0059 M55.4688,1239.0059 L42.4688,1254.0059 M55.4688,1239.0059 L68.4688,1254.0059 " fill="none" style="stroke:#181818;stroke-width:0.5;"/><rect fill="#E2E2F0" height="51.2422" rx="2.5" ry="2.5" style="stroke:#181818;stroke-width:0.5;" width="148.6133" x="216.0464" y="31.3789"/><text fill="#000000" font-family="sans-serif" font-size="14" lengthAdjust="spacing" textLength="92.627" x="244.0396" y="53.4863">&#171;presentation&#187;</text><text fill="#000000" font-family="sans-serif" font-size="14" lengthAdjust="spacing" textLength="134.6133" x="223.0464" y="72.1074">EditFigureCategoryUI</text><rect fill="#E2E2F0" height="51.2422" rx="2.5" ry="2.5" style="stroke:#181818;stroke-width:0.5;" width="148.6133" x="216.0464" y="1176.8848"/><text fill="#000000" font-family="sans-serif" font-size="14" lengthAdjust="spacing" textLength="92.627" x="244.0396" y="1198.9922">&#171;presentation&#187;</text><text fill="#000000" font-family="sans-serif" font-size="14" lengthAdjust="spacing" textLength="134.6133" x="223.0464" y="1217.6133">EditFigureCategoryUI</text><rect fill="#E2E2F0" height="51.2422" rx="2.5" ry="2.5" style="stroke:#181818;stroke-width:0.5;" width="195.3027" x="592.3604" y="1176.8848"/><text fill="#000000" font-family="sans-serif" font-size="14" lengthAdjust="spacing" textLength="82.5098" x="648.7568" y="1198.9922">&#171;application&#187;</text><text fill="#000000" font-family="sans-serif" font-size="14" lengthAdjust="spacing" textLength="181.3027" x="599.3604" y="1217.6133">EditFigureCategoryController</text><rect fill="#E2E2F0" height="51.2422" rx="2.5" ry="2.5" style="stroke:#181818;stroke-width:0.5;" width="142.3994" x="862.4136" y="31.3789"/><text fill="#000000" font-family="sans-serif" font-size="14" lengthAdjust="spacing" textLength="42.8203" x="912.2031" y="53.4863">&#171;auth&#187;</text><text fill="#000000" font-family="sans-serif" font-size="14" lengthAdjust="spacing" textLength="128.3994" x="869.4136" y="72.1074">AuthorizationService</text><rect fill="#E2E2F0" height="51.2422" rx="2.5" ry="2.5" style="stroke:#181818;stroke-width:0.5;" width="142.3994" x="862.4136" y="1176.8848"/><text fill="#000000" font-family="sans-serif" font-size="14" lengthAdjust="spacing" textLength="42.8203" x="912.2031" y="1198.9922">&#171;auth&#187;</text><text fill="#000000" font-family="sans-serif" font-size="14" lengthAdjust="spacing" textLength="128.3994" x="869.4136" y="1217.6133">AuthorizationService</text><rect fill="#E2E2F0" height="51.2422" rx="2.5" ry="2.5" style="stroke:#181818;stroke-width:0.5;" width="238.8887" x="1014.813" y="31.3789"/><text fill="#000000" font-family="sans-serif" font-size="14" lengthAdjust="spacing" textLength="82.5098" x="1093.0024" y="53.4863">&#171;application&#187;</text><text fill="#000000" font-family="sans-serif" font-size="14" lengthAdjust="spacing" textLength="224.8887" x="1021.813" y="72.1074">FigureCategoryManagementService</text><rect fill="#E2E2F0" height="51.2422" rx="2.5" ry="2.5" style="stroke:#181818;stroke-width:0.5;" width="238.8887" x="1014.813" y="1176.8848"/><text fill="#000000" font-family="sans-serif" font-size="14" lengthAdjust="spacing" textLength="82.5098" x="1093.0024" y="1198.9922">&#171;application&#187;</text><text fill="#000000" font-family="sans-serif" font-size="14" lengthAdjust="spacing" textLength="224.8887" x="1021.813" y="1217.6133">FigureCategoryManagementService</text><rect fill="#E2E2F0" height="51.2422" rx="2.5" ry="2.5" style="stroke:#181818;stroke-width:0.5;" width="177.4063" x="1305.7485" y="31.3789"/><text fill="#000000" font-family="sans-serif" font-size="14" lengthAdjust="spacing" textLength="77.041" x="1355.9312" y="53.4863">&#171;repository&#187;</text><text fill="#000000" font-family="sans-serif" font-size="14" lengthAdjust="spacing" textLength="163.4063" x="1312.7485" y="72.1074">FigureCategoryRepository</text><rect fill="#E2E2F0" height="51.2422" rx="2.5" ry="2.5" style="stroke:#181818;stroke-width:0.5;" width="177.4063" x="1305.7485" y="1176.8848"/><text fill="#000000" font-family="sans-serif" font-size="14" lengthAdjust="spacing" textLength="77.041" x="1355.9312" y="1198.9922">&#171;repository&#187;</text><text fill="#000000" font-family="sans-serif" font-size="14" lengthAdjust="spacing" textLength="163.4063" x="1312.7485" y="1217.6133">FigureCategoryRepository</text><text fill="#000000" font-family="sans-serif" font-size="14" lengthAdjust="spacing" textLength="59.9307" x="1498.8071" y="80.1074">Database</text><path d="M1513.7725,29 C1513.7725,19 1531.7725,19 1531.7725,19 C1531.7725,19 1549.7725,19 1549.7725,29 L1549.7725,55 C1549.7725,65 1531.7725,65 1531.7725,65 C1531.7725,65 1513.7725,65 1513.7725,55 L1513.7725,29 " fill="#E2E2F0" style="stroke:#181818;stroke-width:1.5;"/><path d="M1513.7725,29 C1513.7725,39 1531.7725,39 1531.7725,39 C1531.7725,39 1549.7725,39 1549.7725,29 " fill="none" style="stroke:#181818;stroke-width:1.5;"/><text fill="#000000" font-family="sans-serif" font-size="14" lengthAdjust="spacing" textLength="59.9307" x="1498.8071" y="1191.9922">Database</text><path d="M1513.7725,1205.5059 C1513.7725,1195.5059 1531.7725,1195.5059 1531.7725,1195.5059 C1531.7725,1195.5059 1549.7725,1195.5059 1549.7725,1205.5059 L1549.7725,1231.5059 C1549.7725,1241.5059 1531.7725,1241.5059 1531.7725,1241.5059 C1531.7725,1241.5059 1513.7725,1241.5059 1513.7725,1231.5059 L1513.7725,1205.5059 " fill="#E2E2F0" style="stroke:#181818;stroke-width:1.5;"/><path d="M1513.7725,1205.5059 C1513.7725,1215.5059 1531.7725,1215.5059 1531.7725,1215.5059 C1531.7725,1215.5059 1549.7725,1215.5059 1549.7725,1205.5059 " fill="none" style="stroke:#181818;stroke-width:1.5;"/><rect fill="#E2E2F0" height="51.2422" rx="2.5" ry="2.5" style="stroke:#181818;stroke-width:0.5;" width="110.4893" x="1574.7378" y="31.3789"/><text fill="#000000" font-family="sans-serif" font-size="14" lengthAdjust="spacing" textLength="61.4893" x="1599.2378" y="53.4863">&#171;domain&#187;</text><text fill="#000000" font-family="sans-serif" font-size="14" lengthAdjust="spacing" textLength="96.4893" x="1581.7378" y="72.1074">FigureCategory</text><rect fill="#E2E2F0" height="51.2422" rx="2.5" ry="2.5" style="stroke:#181818;stroke-width:0.5;" width="110.4893" x="1574.7378" y="1176.8848"/><text fill="#000000" font-family="sans-serif" font-size="14" lengthAdjust="spacing" textLength="61.4893" x="1599.2378" y="1198.9922">&#171;domain&#187;</text><text fill="#000000" font-family="sans-serif" font-size="14" lengthAdjust="spacing" textLength="96.4893" x="1581.7378" y="1217.6133">FigureCategory</text><rect fill="#FFFFFF" height="1075.2637" style="stroke:#181818;stroke-width:1.0;" width="10" x="50.4688" y="93.6211"/><rect fill="#FFFFFF" height="371.8613" style="stroke:#181818;stroke-width:1.0;" width="10" x="285.353" y="116.9121"/><rect fill="#FFFFFF" height="31.291" style="stroke:#181818;stroke-width:1.0;" width="10" x="285.353" y="520.0645"/><rect fill="#FFFFFF" height="31.291" style="stroke:#181818;stroke-width:1.0;" width="10" x="285.353" y="582.6465"/><rect fill="#FFFFFF" height="523.6563" style="stroke:#181818;stroke-width:1.0;" width="10" x="285.353" y="645.2285"/><rect fill="#FFFFFF" height="247.0371" style="stroke:#181818;stroke-width:1.0;" width="10" x="685.0117" y="210.4453"/><rect fill="#FFFFFF" height="452.0742" style="stroke:#181818;stroke-width:1.0;" width="10" x="685.0117" y="676.5195"/><rect fill="#FFFFFF" height="31.291" style="stroke:#181818;stroke-width:1.0;" width="10" x="928.6133" y="241.7363"/><rect fill="#FFFFFF" height="31.291" style="stroke:#181818;stroke-width:1.0;" width="10" x="928.6133" y="707.8105"/><rect fill="#FFFFFF" height="121.873" style="stroke:#181818;stroke-width:1.0;" width="10" x="1129.2573" y="304.3184"/><rect fill="#FFFFFF" height="326.9102" style="stroke:#181818;stroke-width:1.0;" width="10" x="1129.2573" y="770.3926"/><rect fill="#FFFFFF" height="76.582" style="stroke:#181818;stroke-width:1.0;" width="10" x="1389.4517" y="335.6094"/><rect fill="#FFFFFF" height="76.582" style="stroke:#181818;stroke-width:1.0;" width="10" x="1389.4517" y="801.6836"/><rect fill="#FFFFFF" height="93.873" style="stroke:#181818;stroke-width:1.0;" width="10" x="1389.4517" y="972.1387"/><rect fill="#FFFFFF" height="31.291" style="stroke:#181818;stroke-width:1.0;" width="10" x="1526.7725" y="366.9004"/><rect fill="#FFFFFF" height="31.291" style="stroke:#181818;stroke-width:1.0;" width="10" x="1526.7725" y="832.9746"/><rect fill="#FFFFFF" height="31.291" style="stroke:#181818;stroke-width:1.0;" width="10" x="1526.7725" y="1003.4297"/><rect fill="#FFFFFF" height="31.291" style="stroke:#181818;stroke-width:1.0;" width="10" x="1624.9824" y="909.5566"/><polygon fill="#181818" points="273.353,112.9121,283.353,116.9121,273.353,120.9121,277.353,116.9121" style="stroke:#181818;stroke-width:1.0;"/><line style="stroke:#181818;stroke-width:1.0;" x1="60.4688" x2="279.353" y1="116.9121" y2="116.9121"/><text fill="#000000" font-family="sans-serif" font-size="13" lengthAdjust="spacing" textLength="164.0171" x="67.4688" y="111.6494">Asks to edit Figure Category</text><polygon fill="#181818" points="580.3604,144.2031,590.3604,148.2031,580.3604,152.2031,584.3604,148.2031" style="stroke:#181818;stroke-width:1.0;"/><line style="stroke:#181818;stroke-width:1.0;" x1="295.353" x2="586.3604" y1="148.2031" y2="148.2031"/><text fill="#000000" font-family="sans-serif" font-size="13" lengthAdjust="spacing" textLength="44.7891" x="302.353" y="142.9404">create()</text><rect fill="#E2E2F0" height="51.2422" rx="2.5" ry="2.5" style="stroke:#181818;stroke-width:0.5;" width="195.3027" x="592.3604" y="124.9121"/><text fill="#000000" font-family="sans-serif" font-size="14" lengthAdjust="spacing" textLength="82.5098" x="648.7568" y="147.0195">&#171;application&#187;</text><text fill="#000000" font-family="sans-serif" font-size="14" lengthAdjust="spacing" textLength="181.3027" x="599.3604" y="165.6406">EditFigureCategoryController</text><polygon fill="#181818" points="673.0117,206.4453,683.0117,210.4453,673.0117,214.4453,677.0117,210.4453" style="stroke:#181818;stroke-width:1.0;"/><line style="stroke:#181818;stroke-width:1.0;" x1="295.353" x2="679.0117" y1="210.4453" y2="210.4453"/><text fill="#000000" font-family="sans-serif" font-size="13" lengthAdjust="spacing" textLength="156.7808" x="302.353" y="205.1826">allActiveFigureCategories()</text><polygon fill="#181818" points="916.6133,237.7363,926.6133,241.7363,916.6133,245.7363,920.6133,241.7363" style="stroke:#181818;stroke-width:1.0;"/><line style="stroke:#181818;stroke-width:1.0;" x1="695.0117" x2="922.6133" y1="241.7363" y2="241.7363"/><text fill="#000000" font-family="sans-serif" font-size="13" lengthAdjust="spacing" textLength="214.6016" x="702.0117" y="236.4736">ensureAuthenticatedUserHasAnyOf()</text><polygon fill="#181818" points="706.0117,269.0273,696.0117,273.0273,706.0117,277.0273,702.0117,273.0273" style="stroke:#181818;stroke-width:1.0;"/><line style="stroke:#181818;stroke-width:1.0;stroke-dasharray:2.0,2.0;" x1="700.0117" x2="932.6133" y1="273.0273" y2="273.0273"/><text fill="#000000" font-family="sans-serif" font-size="13" lengthAdjust="spacing" textLength="22.4009" x="712.0117" y="267.7646">true</text><polygon fill="#181818" points="1117.2573,300.3184,1127.2573,304.3184,1117.2573,308.3184,1121.2573,304.3184" style="stroke:#181818;stroke-width:1.0;"/><line style="stroke:#181818;stroke-width:1.0;" x1="695.0117" x2="1123.2573" y1="304.3184" y2="304.3184"/><text fill="#000000" font-family="sans-serif" font-size="13" lengthAdjust="spacing" textLength="102.5908" x="702.0117" y="299.0557">findByActive(true)</text><polygon fill="#181818" points="1377.4517,331.6094,1387.4517,335.6094,1377.4517,339.6094,1381.4517,335.6094" style="stroke:#181818;stroke-width:1.0;"/><line style="stroke:#181818;stroke-width:1.0;" x1="1139.2573" x2="1383.4517" y1="335.6094" y2="335.6094"/><text fill="#000000" font-family="sans-serif" font-size="13" lengthAdjust="spacing" textLength="102.5908" x="1146.2573" y="330.3467">findByActive(true)</text><polygon fill="#181818" points="1514.7725,362.9004,1524.7725,366.9004,1514.7725,370.9004,1518.7725,366.9004" style="stroke:#181818;stroke-width:1.0;"/><line style="stroke:#181818;stroke-width:1.0;" x1="1399.4517" x2="1520.7725" y1="366.9004" y2="366.9004"/><text fill="#000000" font-family="sans-serif" font-size="13" lengthAdjust="spacing" textLength="32.519" x="1406.4517" y="361.6377">query</text><polygon fill="#181818" points="1410.4517,394.1914,1400.4517,398.1914,1410.4517,402.1914,1406.4517,398.1914" style="stroke:#181818;stroke-width:1.0;"/><line style="stroke:#181818;stroke-width:1.0;stroke-dasharray:2.0,2.0;" x1="1404.4517" x2="1530.7725" y1="398.1914" y2="398.1914"/><text fill="#000000" font-family="sans-serif" font-size="13" lengthAdjust="spacing" textLength="97.5508" x="1416.4517" y="392.9287">active categories</text><polygon fill="#181818" points="1150.2573,408.1914,1140.2573,412.1914,1150.2573,416.1914,1146.2573,412.1914" style="stroke:#181818;stroke-width:1.0;"/><line style="stroke:#181818;stroke-width:1.0;stroke-dasharray:2.0,2.0;" x1="1144.2573" x2="1393.4517" y1="412.1914" y2="412.1914"/><polygon fill="#181818" points="706.0117,422.1914,696.0117,426.1914,706.0117,430.1914,702.0117,426.1914" style="stroke:#181818;stroke-width:1.0;"/><line style="stroke:#181818;stroke-width:1.0;stroke-dasharray:2.0,2.0;" x1="700.0117" x2="1133.2573" y1="426.1914" y2="426.1914"/><polygon fill="#181818" points="306.353,453.4824,296.353,457.4824,306.353,461.4824,302.353,457.4824" style="stroke:#181818;stroke-width:1.0;"/><line style="stroke:#181818;stroke-width:1.0;stroke-dasharray:2.0,2.0;" x1="300.353" x2="689.0117" y1="457.4824" y2="457.4824"/><text fill="#000000" font-family="sans-serif" font-size="13" lengthAdjust="spacing" textLength="148.1416" x="312.353" y="452.2197">Iterable&lt;FigureCategory&gt;</text><polygon fill="#181818" points="71.4688,484.7734,61.4688,488.7734,71.4688,492.7734,67.4688,488.7734" style="stroke:#181818;stroke-width:1.0;"/><line style="stroke:#181818;stroke-width:1.0;stroke-dasharray:2.0,2.0;" x1="65.4688" x2="289.353" y1="488.7734" y2="488.7734"/><text fill="#000000" font-family="sans-serif" font-size="13" lengthAdjust="spacing" textLength="171.9644" x="77.4688" y="483.5107">shows list of active categories</text><polygon fill="#181818" points="273.353,516.0645,283.353,520.0645,273.353,524.0645,277.353,520.0645" style="stroke:#181818;stroke-width:1.0;"/><line style="stroke:#181818;stroke-width:1.0;" x1="60.4688" x2="279.353" y1="520.0645" y2="520.0645"/><text fill="#000000" font-family="sans-serif" font-size="13" lengthAdjust="spacing" textLength="106.9453" x="67.4688" y="514.8018">Selects a category</text><polygon fill="#181818" points="71.4688,547.3555,61.4688,551.3555,71.4688,555.3555,67.4688,551.3555" style="stroke:#181818;stroke-width:1.0;"/><line style="stroke:#181818;stroke-width:1.0;stroke-dasharray:2.0,2.0;" x1="65.4688" x2="289.353" y1="551.3555" y2="551.3555"/><text fill="#000000" font-family="sans-serif" font-size="13" lengthAdjust="spacing" textLength="141.6289" x="77.4688" y="546.0928">shows categories details</text><polygon fill="#181818" points="273.353,578.6465,283.353,582.6465,273.353,586.6465,277.353,582.6465" style="stroke:#181818;stroke-width:1.0;"/><line style="stroke:#181818;stroke-width:1.0;" x1="60.4688" x2="279.353" y1="582.6465" y2="582.6465"/><text fill="#000000" font-family="sans-serif" font-size="13" lengthAdjust="spacing" textLength="145.9707" x="67.4688" y="577.3838">Selects a category to edit</text><polygon fill="#181818" points="71.4688,609.9375,61.4688,613.9375,71.4688,617.9375,67.4688,613.9375" style="stroke:#181818;stroke-width:1.0;"/><line style="stroke:#181818;stroke-width:1.0;stroke-dasharray:2.0,2.0;" x1="65.4688" x2="289.353" y1="613.9375" y2="613.9375"/><text fill="#000000" font-family="sans-serif" font-size="13" lengthAdjust="spacing" textLength="200.8843" x="77.4688" y="608.6748">asks for new name and description</text><polygon fill="#181818" points="273.353,641.2285,283.353,645.2285,273.353,649.2285,277.353,645.2285" style="stroke:#181818;stroke-width:1.0;"/><line style="stroke:#181818;stroke-width:1.0;" x1="60.4688" x2="279.353" y1="645.2285" y2="645.2285"/><text fill="#000000" font-family="sans-serif" font-size="13" lengthAdjust="spacing" textLength="194.3843" x="67.4688" y="639.9658">Inserts new name and description</text><polygon fill="#181818" points="673.0117,672.5195,683.0117,676.5195,673.0117,680.5195,677.0117,676.5195" style="stroke:#181818;stroke-width:1.0;"/><line style="stroke:#181818;stroke-width:1.0;" x1="295.353" x2="679.0117" y1="676.5195" y2="676.5195"/><text fill="#000000" font-family="sans-serif" font-size="13" lengthAdjust="spacing" textLength="370.6587" x="302.353" y="671.2568">editFigureCategory(FigureCategory, newName, newDescription)</text><polygon fill="#181818" points="916.6133,703.8105,926.6133,707.8105,916.6133,711.8105,920.6133,707.8105" style="stroke:#181818;stroke-width:1.0;"/><line style="stroke:#181818;stroke-width:1.0;" x1="695.0117" x2="922.6133" y1="707.8105" y2="707.8105"/><text fill="#000000" font-family="sans-serif" font-size="13" lengthAdjust="spacing" textLength="214.6016" x="702.0117" y="702.5479">ensureAuthenticatedUserHasAnyOf()</text><polygon fill="#181818" points="706.0117,735.1016,696.0117,739.1016,706.0117,743.1016,702.0117,739.1016" style="stroke:#181818;stroke-width:1.0;"/><line style="stroke:#181818;stroke-width:1.0;stroke-dasharray:2.0,2.0;" x1="700.0117" x2="932.6133" y1="739.1016" y2="739.1016"/><text fill="#000000" font-family="sans-serif" font-size="13" lengthAdjust="spacing" textLength="22.4009" x="712.0117" y="733.8389">true</text><polygon fill="#181818" points="1117.2573,766.3926,1127.2573,770.3926,1117.2573,774.3926,1121.2573,770.3926" style="stroke:#181818;stroke-width:1.0;"/><line style="stroke:#181818;stroke-width:1.0;" x1="695.0117" x2="1123.2573" y1="770.3926" y2="770.3926"/><text fill="#000000" font-family="sans-serif" font-size="13" lengthAdjust="spacing" textLength="370.6587" x="702.0117" y="765.1299">editFigureCategory(FigureCategory, newName, newDescription)</text><polygon fill="#181818" points="1377.4517,797.6836,1387.4517,801.6836,1377.4517,805.6836,1381.4517,801.6836" style="stroke:#181818;stroke-width:1.0;"/><line style="stroke:#181818;stroke-width:1.0;" x1="1139.2573" x2="1383.4517" y1="801.6836" y2="801.6836"/><text fill="#000000" font-family="sans-serif" font-size="13" lengthAdjust="spacing" textLength="231.1943" x="1146.2573" y="796.4209">isFigureCategoryNameUsed(newName)</text><polygon fill="#181818" points="1514.7725,828.9746,1524.7725,832.9746,1514.7725,836.9746,1518.7725,832.9746" style="stroke:#181818;stroke-width:1.0;"/><line style="stroke:#181818;stroke-width:1.0;" x1="1399.4517" x2="1520.7725" y1="832.9746" y2="832.9746"/><text fill="#000000" font-family="sans-serif" font-size="13" lengthAdjust="spacing" textLength="87.439" x="1406.4517" y="827.7119">Consulta nome</text><polygon fill="#181818" points="1410.4517,860.2656,1400.4517,864.2656,1410.4517,868.2656,1406.4517,864.2656" style="stroke:#181818;stroke-width:1.0;"/><line style="stroke:#181818;stroke-width:1.0;stroke-dasharray:2.0,2.0;" x1="1404.4517" x2="1530.7725" y1="864.2656" y2="864.2656"/><text fill="#000000" font-family="sans-serif" font-size="13" lengthAdjust="spacing" textLength="27.46" x="1416.4517" y="859.0029">false</text><polygon fill="#181818" points="1150.2573,874.2656,1140.2573,878.2656,1150.2573,882.2656,1146.2573,878.2656" style="stroke:#181818;stroke-width:1.0;"/><line style="stroke:#181818;stroke-width:1.0;stroke-dasharray:2.0,2.0;" x1="1144.2573" x2="1393.4517" y1="878.2656" y2="878.2656"/><polygon fill="#181818" points="1612.9824,905.5566,1622.9824,909.5566,1612.9824,913.5566,1616.9824,909.5566" style="stroke:#181818;stroke-width:1.0;"/><line style="stroke:#181818;stroke-width:1.0;" x1="1139.2573" x2="1618.9824" y1="909.5566" y2="909.5566"/><text fill="#000000" font-family="sans-serif" font-size="13" lengthAdjust="spacing" textLength="144.5107" x="1146.2573" y="904.2939">changeName(newName)</text><polygon fill="#181818" points="1617.9824,936.8477,1627.9824,940.8477,1617.9824,944.8477,1621.9824,940.8477" style="stroke:#181818;stroke-width:1.0;"/><line style="stroke:#181818;stroke-width:1.0;" x1="1139.2573" x2="1623.9824" y1="940.8477" y2="940.8477"/><text fill="#000000" font-family="sans-serif" font-size="13" lengthAdjust="spacing" textLength="205.207" x="1146.2573" y="935.585">changeDescription(newDescription)</text><polygon fill="#181818" points="1377.4517,968.1387,1387.4517,972.1387,1377.4517,976.1387,1381.4517,972.1387" style="stroke:#181818;stroke-width:1.0;"/><line style="stroke:#181818;stroke-width:1.0;" x1="1139.2573" x2="1383.4517" y1="972.1387" y2="972.1387"/><text fill="#000000" font-family="sans-serif" font-size="13" lengthAdjust="spacing" textLength="121.3862" x="1146.2573" y="966.876">save(figureCategory)</text><polygon fill="#181818" points="1514.7725,999.4297,1524.7725,1003.4297,1514.7725,1007.4297,1518.7725,1003.4297" style="stroke:#181818;stroke-width:1.0;"/><line style="stroke:#181818;stroke-width:1.0;" x1="1399.4517" x2="1520.7725" y1="1003.4297" y2="1003.4297"/><text fill="#000000" font-family="sans-serif" font-size="13" lengthAdjust="spacing" textLength="39.7617" x="1406.4517" y="998.167">update</text><polygon fill="#181818" points="1410.4517,1030.7207,1400.4517,1034.7207,1410.4517,1038.7207,1406.4517,1034.7207" style="stroke:#181818;stroke-width:1.0;"/><line style="stroke:#181818;stroke-width:1.0;stroke-dasharray:2.0,2.0;" x1="1404.4517" x2="1530.7725" y1="1034.7207" y2="1034.7207"/><text fill="#000000" font-family="sans-serif" font-size="13" lengthAdjust="spacing" textLength="103.3208" x="1416.4517" y="1029.458">success message</text><polygon fill="#181818" points="1150.2573,1062.0117,1140.2573,1066.0117,1150.2573,1070.0117,1146.2573,1066.0117" style="stroke:#181818;stroke-width:1.0;"/><line style="stroke:#181818;stroke-width:1.0;stroke-dasharray:2.0,2.0;" x1="1144.2573" x2="1393.4517" y1="1066.0117" y2="1066.0117"/><text fill="#000000" font-family="sans-serif" font-size="13" lengthAdjust="spacing" textLength="103.3208" x="1156.2573" y="1060.749">success message</text><polygon fill="#181818" points="706.0117,1093.3027,696.0117,1097.3027,706.0117,1101.3027,702.0117,1097.3027" style="stroke:#181818;stroke-width:1.0;"/><line style="stroke:#181818;stroke-width:1.0;stroke-dasharray:2.0,2.0;" x1="700.0117" x2="1133.2573" y1="1097.3027" y2="1097.3027"/><text fill="#000000" font-family="sans-serif" font-size="13" lengthAdjust="spacing" textLength="103.3208" x="712.0117" y="1092.04">success message</text><polygon fill="#181818" points="306.353,1124.5938,296.353,1128.5938,306.353,1132.5938,302.353,1128.5938" style="stroke:#181818;stroke-width:1.0;"/><line style="stroke:#181818;stroke-width:1.0;stroke-dasharray:2.0,2.0;" x1="300.353" x2="689.0117" y1="1128.5938" y2="1128.5938"/><text fill="#000000" font-family="sans-serif" font-size="13" lengthAdjust="spacing" textLength="103.3208" x="312.353" y="1123.3311">success message</text><polygon fill="#181818" points="71.4688,1155.8848,61.4688,1159.8848,71.4688,1163.8848,67.4688,1159.8848" style="stroke:#181818;stroke-width:1.0;"/><line style="stroke:#181818;stroke-width:1.0;stroke-dasharray:2.0,2.0;" x1="65.4688" x2="284.353" y1="1159.8848" y2="1159.8848"/><text fill="#000000" font-family="sans-serif" font-size="13" lengthAdjust="spacing" textLength="103.3208" x="77.4688" y="1154.6221">success message</text><!--SRC=[pLLBRjim4Dth50EltA2-G504iECMzQ8jKCExRYRIo2OYaog7Ik1SgKVeBYVhK5zAikKMw28Rc_JCUpDyyp76pbYORG_c6TR4Qg_9pW2vlKHHZjQfMEMe7SnUV-MMcBH3fun-_Vr3VqoK-wJsXQLxTBGtzhJRb0oxpH2AUPwfU09vRxIp9ilg7BhhYAbm1q-nb6zZrKl9kINxf68geTxmSYL-F_ONrBYdepmjvAdFGoPBkM4bqft6HDzRMydWhr623X-G2MRh-bI9l1eI9-Q8wansbNjfZ2ACdNeIGr2avWIBEn4URc79ZmpE08d8K751GzOHI8t4Mp2Tr3StWeujYNd-RcGL6sRPqkEfbw4Y5lUME2XT01QgiZ32Gfe5x6-Yk2yA9Jic-nbvgK_Vqf2hgcK5N0opSRQWAA61SpzcNKJnJfLELgSg_Rc71c6QKZVU0lIrku8gorlwYVzw9Tu_2mebbXhBpukMhJGGnAriOVRYN75rMOVcCbYRNq-AqAr1XYeqVR5nPF4Xem_z_heByG6hhxz_MDDUjy2oAXWonGvC2fElaUuQD-QMCeeT0pQWVZjUZDY5W8GSgcmOwYyYDGCn6e1-GFIpayfUrFGC6ey4g1E9oh5LkTyUro9ljBIoHBw8dnf0FnoZpJZlNzzxwg_2N1xM7VFR7y7_yhQcmyyCg-8-dMUIPoNpcdLoTYLfBZA7eCsHBiymf9Wn_UlWXibMgznlsWFgFVd4pYHOB_pBk42T-L2iCBiHJ_qEHjbeQK-lINsANFx9feJX8ew96Oxo8N-dLoIQ1aniksbWsntd5k04Rdhl3N1_0000]--></g></svg>