<svg xmlns="http://www.w3.org/2000/svg" xmlns:xlink="http://www.w3.org/1999/xlink" contentStyleType="text/css" height="459px" preserveAspectRatio="none" style="width:435px;height:459px;background:#FFFFFF;" version="1.1" viewBox="0 0 435 459" width="435px" zoomAndPan="magnify"><title>System Sequence Diagram - US246</title><defs/><g><text fill="#000000" font-family="sans-serif" font-size="14" font-weight="bold" lengthAdjust="spacing" textLength="234.9922" x="96.1902" y="30.1074">System Sequence Diagram - US246</text><rect fill="#FFFFFF" height="234.0371" style="stroke:#181818;stroke-width:1.0;" width="10" x="50.4688" y="133.2422"/><rect fill="#FFFFFF" height="31.291" style="stroke:#181818;stroke-width:1.0;" width="10" x="388.0347" y="201.8242"/><rect fill="#FFFFFF" height="31.291" style="stroke:#181818;stroke-width:1.0;" width="10" x="388.0347" y="264.4063"/><rect fill="#FFFFFF" height="31.291" style="stroke:#181818;stroke-width:1.0;" width="10" x="388.0347" y="326.9883"/><line style="stroke:#181818;stroke-width:0.5;stroke-dasharray:5.0,5.0;" x1="55" x2="55" y1="123.2422" y2="376.2793"/><line style="stroke:#181818;stroke-width:0.5;stroke-dasharray:5.0,5.0;" x1="392.6968" x2="392.6968" y1="123.2422" y2="376.2793"/><text fill="#000000" font-family="sans-serif" font-size="14" lengthAdjust="spacing" textLength="94.9375" x="5" y="119.7285">Show Designer</text><ellipse cx="55.4688" cy="53.1211" fill="#E3E3E3" rx="8" ry="8" style="stroke:#181818;stroke-width:0.5;"/><path d="M55.4688,61.1211 L55.4688,88.1211 M42.4688,69.1211 L68.4688,69.1211 M55.4688,88.1211 L42.4688,103.1211 M55.4688,88.1211 L68.4688,103.1211 " fill="none" style="stroke:#181818;stroke-width:0.5;"/><text fill="#000000" font-family="sans-serif" font-size="14" lengthAdjust="spacing" textLength="94.9375" x="5" y="390.3867">Show Designer</text><ellipse cx="55.4688" cy="402.4004" fill="#E3E3E3" rx="8" ry="8" style="stroke:#181818;stroke-width:0.5;"/><path d="M55.4688,410.4004 L55.4688,437.4004 M42.4688,418.4004 L68.4688,418.4004 M55.4688,437.4004 L42.4688,452.4004 M55.4688,437.4004 L68.4688,452.4004 " fill="none" style="stroke:#181818;stroke-width:0.5;"/><rect fill="#E3E3E3" height="32.6211" rx="2.5" ry="2.5" style="stroke:#181818;stroke-width:0.5;" width="60.6758" x="362.6968" y="89.6211"/><text fill="#000000" font-family="sans-serif" font-size="14" lengthAdjust="spacing" textLength="46.6758" x="369.6968" y="111.7285">System</text><rect fill="#E3E3E3" height="32.6211" rx="2.5" ry="2.5" style="stroke:#181818;stroke-width:0.5;" width="60.6758" x="362.6968" y="375.2793"/><text fill="#000000" font-family="sans-serif" font-size="14" lengthAdjust="spacing" textLength="46.6758" x="369.6968" y="397.3867">System</text><rect fill="#FFFFFF" height="234.0371" style="stroke:#181818;stroke-width:1.0;" width="10" x="50.4688" y="133.2422"/><rect fill="#FFFFFF" height="31.291" style="stroke:#181818;stroke-width:1.0;" width="10" x="388.0347" y="201.8242"/><rect fill="#FFFFFF" height="31.291" style="stroke:#181818;stroke-width:1.0;" width="10" x="388.0347" y="264.4063"/><rect fill="#FFFFFF" height="31.291" style="stroke:#181818;stroke-width:1.0;" width="10" x="388.0347" y="326.9883"/><rect fill="#EEEEEE" height="3" style="stroke:#EEEEEE;stroke-width:1.0;" width="428.3726" x="0" y="154.8877"/><line style="stroke:#000000;stroke-width:1.0;" x1="0" x2="428.3726" y1="154.8877" y2="154.8877"/><line style="stroke:#000000;stroke-width:1.0;" x1="0" x2="428.3726" y1="157.8877" y2="157.8877"/><rect fill="#EEEEEE" height="25.291" style="stroke:#000000;stroke-width:2.0;" width="143.3018" x="142.5354" y="143.2422"/><text fill="#000000" font-family="sans-serif" font-size="13" font-weight="bold" lengthAdjust="spacing" textLength="122.0781" x="148.5354" y="161.2705">Edit figure category</text><polygon fill="#181818" points="376.0347,197.8242,386.0347,201.8242,376.0347,205.8242,380.0347,201.8242" style="stroke:#181818;stroke-width:1.0;"/><line style="stroke:#181818;stroke-width:1.0;" x1="60.4688" x2="382.0347" y1="201.8242" y2="201.8242"/><text fill="#000000" font-family="sans-serif" font-size="13" lengthAdjust="spacing" textLength="308.5659" x="67.4688" y="196.5615">Wants to edit existing figure category in the catalogue</text><polygon fill="#181818" points="71.4688,229.1152,61.4688,233.1152,71.4688,237.1152,67.4688,233.1152" style="stroke:#181818;stroke-width:1.0;"/><line style="stroke:#181818;stroke-width:1.0;" x1="65.4688" x2="392.0347" y1="233.1152" y2="233.1152"/><text fill="#000000" font-family="sans-serif" font-size="13" lengthAdjust="spacing" textLength="179.1943" x="77.4688" y="227.8525">Returns list of figure categories</text><polygon fill="#181818" points="376.0347,260.4063,386.0347,264.4063,376.0347,268.4063,380.0347,264.4063" style="stroke:#181818;stroke-width:1.0;"/><line style="stroke:#181818;stroke-width:1.0;" x1="60.4688" x2="382.0347" y1="264.4063" y2="264.4063"/><text fill="#000000" font-family="sans-serif" font-size="13" lengthAdjust="spacing" textLength="171.2598" x="67.4688" y="259.1436">Selects figure category to edit</text><polygon fill="#181818" points="71.4688,291.6973,61.4688,295.6973,71.4688,299.6973,67.4688,295.6973" style="stroke:#181818;stroke-width:1.0;"/><line style="stroke:#181818;stroke-width:1.0;" x1="65.4688" x2="392.0347" y1="295.6973" y2="295.6973"/><text fill="#000000" font-family="sans-serif" font-size="13" lengthAdjust="spacing" textLength="176.3125" x="77.4688" y="290.4346">Returns figure category details</text><polygon fill="#181818" points="376.0347,322.9883,386.0347,326.9883,376.0347,330.9883,380.0347,326.9883" style="stroke:#181818;stroke-width:1.0;"/><line style="stroke:#181818;stroke-width:1.0;" x1="60.4688" x2="382.0347" y1="326.9883" y2="326.9883"/><text fill="#000000" font-family="sans-serif" font-size="13" lengthAdjust="spacing" textLength="229.7725" x="67.4688" y="321.7256">Edits figure category(name, description)</text><polygon fill="#181818" points="71.4688,354.2793,61.4688,358.2793,71.4688,362.2793,67.4688,358.2793" style="stroke:#181818;stroke-width:1.0;"/><line style="stroke:#181818;stroke-width:1.0;" x1="65.4688" x2="392.0347" y1="358.2793" y2="358.2793"/><text fill="#000000" font-family="sans-serif" font-size="13" lengthAdjust="spacing" textLength="152.4517" x="77.4688" y="353.0166">Returns success message</text><!--SRC=[dPBBJiCm44Nt_efHLo3H3K8iAeLL-G4Yn7haJ9nH7Jju9eJyFKuQeAIme1lBZ_6vnmyvSEWmOGjj3D4sARO4cdeoyhNIeJsWer97Jv38AWRdJmkamIeE71pKw8MCGQinmQPiuW1x4dQ1qWPGScKSFYTCtgnikSEWkNOKfVPOD7UDKTOSU5o0abvx2fPWp-Ycq2qybxTtzyOK1JnMh52pwnE1HIKNqmXG59C8l-M9dy7cT0JRXoKHTl2INGGq0ar4UcVH-LWhD0VGPXwZZovVrdVEuhuG9_PfrWwUIFiK17n6GwnNQ2On5PtJ_l8joUVta3F1vGGNUAr95Ico_v_Lz1ndfAk0BTradjZ4dN8CrnVeIMyjYK2Rc_mdVzFw0000]--></g></svg>