<?xml version="1.0" encoding="us-ascii" standalone="no"?><svg xmlns="http://www.w3.org/2000/svg" xmlns:xlink="http://www.w3.org/1999/xlink" contentStyleType="text/css" height="970px" preserveAspectRatio="none" style="width:1509px;height:970px;background:#FFFFFF;" version="1.1" viewBox="0 0 1509 970" width="1509px" zoomAndPan="magnify"><defs/><g><text fill="#000000" font-family="sans-serif" font-size="14" font-weight="bold" lengthAdjust="spacing" textLength="132" x="689.75" y="30.1074">Sequence Diagram</text><rect fill="#FFFFFF" height="735.7227" style="stroke:#181818;stroke-width:1.0;" width="10" x="48.5" y="133.2422"/><rect fill="#FFFFFF" height="406.1035" style="stroke:#181818;stroke-width:1.0;" width="10" x="266.5" y="156.5332"/><rect fill="#FFFFFF" height="275.0371" style="stroke:#181818;stroke-width:1.0;" width="10" x="266.5" y="593.9277"/><rect fill="#FFFFFF" height="281.2793" style="stroke:#181818;stroke-width:1.0;" width="10" x="459.5" y="250.0664"/><rect fill="#FFFFFF" height="212.4551" style="stroke:#181818;stroke-width:1.0;" width="10" x="459.5" y="625.2188"/><rect fill="#FFFFFF" height="156.4551" style="stroke:#181818;stroke-width:1.0;" width="10" x="946.5" y="343.5996"/><rect fill="#FFFFFF" height="135.873" style="stroke:#181818;stroke-width:1.0;" width="10" x="946.5" y="687.8008"/><rect fill="#FFFFFF" height="93.873" style="stroke:#181818;stroke-width:1.0;" width="10" x="1314" y="374.8906"/><rect fill="#FFFFFF" height="59.291" style="stroke:#181818;stroke-width:1.0;" width="10" x="1314" y="750.3828"/><rect fill="#FFFFFF" height="31.291" style="stroke:#181818;stroke-width:1.0;" width="10" x="1469" y="406.1816"/><rect fill="#FFFFFF" height="14" style="stroke:#181818;stroke-width:1.0;" width="10" x="1469" y="781.6738"/><line style="stroke:#181818;stroke-width:0.5;stroke-dasharray:5.0,5.0;" x1="53" x2="53" y1="123.2422" y2="886.9648"/><line style="stroke:#181818;stroke-width:0.5;stroke-dasharray:5.0,5.0;" x1="271.5" x2="271.5" y1="123.2422" y2="886.9648"/><line style="stroke:#181818;stroke-width:0.5;stroke-dasharray:5.0,5.0;" x1="464.5" x2="464.5" y1="205.6543" y2="886.9648"/><line style="stroke:#181818;stroke-width:0.5;stroke-dasharray:5.0,5.0;" x1="777.5" x2="777.5" y1="299.1875" y2="886.9648"/><line style="stroke:#181818;stroke-width:0.5;stroke-dasharray:5.0,5.0;" x1="951.5" x2="951.5" y1="123.2422" y2="886.9648"/><line style="stroke:#181818;stroke-width:0.5;stroke-dasharray:5.0,5.0;" x1="1209.5" x2="1209.5" y1="123.2422" y2="886.9648"/><line style="stroke:#181818;stroke-width:0.5;stroke-dasharray:5.0,5.0;" x1="1318.5" x2="1318.5" y1="123.2422" y2="886.9648"/><line style="stroke:#181818;stroke-width:0.5;stroke-dasharray:5.0,5.0;" x1="1473.5" x2="1473.5" y1="123.2422" y2="886.9648"/><text fill="#000000" font-family="sans-serif" font-size="14" lengthAdjust="spacing" textLength="91" x="5" y="119.7285">CRM Manager</text><ellipse cx="53.5" cy="53.1211" fill="#E2E2F0" rx="8" ry="8" style="stroke:#181818;stroke-width:0.5;"/><path d="M53.5,61.1211 L53.5,88.1211 M40.5,69.1211 L66.5,69.1211 M53.5,88.1211 L40.5,103.1211 M53.5,88.1211 L66.5,103.1211 " fill="none" style="stroke:#181818;stroke-width:0.5;"/><text fill="#000000" font-family="sans-serif" font-size="14" lengthAdjust="spacing" textLength="91" x="5" y="901.0723">CRM Manager</text><ellipse cx="53.5" cy="913.0859" fill="#E2E2F0" rx="8" ry="8" style="stroke:#181818;stroke-width:0.5;"/><path d="M53.5,921.0859 L53.5,948.0859 M40.5,929.0859 L66.5,929.0859 M53.5,948.0859 L40.5,963.0859 M53.5,948.0859 L66.5,963.0859 " fill="none" style="stroke:#181818;stroke-width:0.5;"/><rect fill="#E2E2F0" height="51.2422" rx="2.5" ry="2.5" style="stroke:#181818;stroke-width:0.5;" width="158" x="192.5" y="71"/><text fill="#000000" font-family="sans-serif" font-size="14" font-style="italic" lengthAdjust="spacing" textLength="95" x="224" y="93.1074">&#171;presentation&#187;</text><text fill="#000000" font-family="sans-serif" font-size="14" lengthAdjust="spacing" textLength="144" x="199.5" y="111.7285">DecommissionFigureUI</text><rect fill="#E2E2F0" height="51.2422" rx="2.5" ry="2.5" style="stroke:#181818;stroke-width:0.5;" width="158" x="192.5" y="885.9648"/><text fill="#000000" font-family="sans-serif" font-size="14" font-style="italic" lengthAdjust="spacing" textLength="95" x="224" y="908.0723">&#171;presentation&#187;</text><text fill="#000000" font-family="sans-serif" font-size="14" lengthAdjust="spacing" textLength="144" x="199.5" y="926.6934">DecommissionFigureUI</text><rect fill="#E2E2F0" height="51.2422" rx="2.5" ry="2.5" style="stroke:#181818;stroke-width:0.5;" width="208" x="360.5" y="885.9648"/><text fill="#000000" font-family="sans-serif" font-size="14" font-style="italic" lengthAdjust="spacing" textLength="84" x="422.5" y="908.0723">&#171;application&#187;</text><text fill="#000000" font-family="sans-serif" font-size="14" lengthAdjust="spacing" textLength="194" x="367.5" y="926.6934">DecommissionFigureController</text><rect fill="#E2E2F0" height="51.2422" rx="2.5" ry="2.5" style="stroke:#181818;stroke-width:0.5;" width="143" x="706.5" y="885.9648"/><text fill="#000000" font-family="sans-serif" font-size="14" font-style="italic" lengthAdjust="spacing" textLength="44" x="756" y="908.0723">&#171;auth&#187;</text><text fill="#000000" font-family="sans-serif" font-size="14" lengthAdjust="spacing" textLength="129" x="713.5" y="926.6934">AuthorizationService</text><rect fill="#E2E2F0" height="51.2422" rx="2.5" ry="2.5" style="stroke:#181818;stroke-width:0.5;" width="184" x="859.5" y="71"/><text fill="#000000" font-family="sans-serif" font-size="14" font-style="italic" lengthAdjust="spacing" textLength="84" x="909.5" y="93.1074">&#171;application&#187;</text><text fill="#000000" font-family="sans-serif" font-size="14" lengthAdjust="spacing" textLength="170" x="866.5" y="111.7285">FigureManagementService</text><rect fill="#E2E2F0" height="51.2422" rx="2.5" ry="2.5" style="stroke:#181818;stroke-width:0.5;" width="184" x="859.5" y="885.9648"/><text fill="#000000" font-family="sans-serif" font-size="14" font-style="italic" lengthAdjust="spacing" textLength="84" x="909.5" y="908.0723">&#171;application&#187;</text><text fill="#000000" font-family="sans-serif" font-size="14" lengthAdjust="spacing" textLength="170" x="866.5" y="926.6934">FigureManagementService</text><rect fill="#E2E2F0" height="51.2422" rx="2.5" ry="2.5" style="stroke:#181818;stroke-width:0.5;" width="76" x="1171.5" y="71"/><text fill="#000000" font-family="sans-serif" font-size="14" font-style="italic" lengthAdjust="spacing" textLength="62" x="1178.5" y="93.1074">&#171;domain&#187;</text><text fill="#000000" font-family="sans-serif" font-size="14" lengthAdjust="spacing" textLength="41" x="1189" y="111.7285">Figure</text><rect fill="#E2E2F0" height="51.2422" rx="2.5" ry="2.5" style="stroke:#181818;stroke-width:0.5;" width="76" x="1171.5" y="885.9648"/><text fill="#000000" font-family="sans-serif" font-size="14" font-style="italic" lengthAdjust="spacing" textLength="62" x="1178.5" y="908.0723">&#171;domain&#187;</text><text fill="#000000" font-family="sans-serif" font-size="14" lengthAdjust="spacing" textLength="41" x="1189" y="926.6934">Figure</text><rect fill="#E2E2F0" height="51.2422" rx="2.5" ry="2.5" style="stroke:#181818;stroke-width:0.5;" width="123" x="1257.5" y="71"/><text fill="#000000" font-family="sans-serif" font-size="14" font-style="italic" lengthAdjust="spacing" textLength="79" x="1279.5" y="93.1074">&#171;repository&#187;</text><text fill="#000000" font-family="sans-serif" font-size="14" lengthAdjust="spacing" textLength="109" x="1264.5" y="111.7285">FigureRepository</text><rect fill="#E2E2F0" height="51.2422" rx="2.5" ry="2.5" style="stroke:#181818;stroke-width:0.5;" width="123" x="1257.5" y="885.9648"/><text fill="#000000" font-family="sans-serif" font-size="14" font-style="italic" lengthAdjust="spacing" textLength="79" x="1279.5" y="908.0723">&#171;repository&#187;</text><text fill="#000000" font-family="sans-serif" font-size="14" lengthAdjust="spacing" textLength="109" x="1264.5" y="926.6934">FigureRepository</text><text fill="#000000" font-family="sans-serif" font-size="14" lengthAdjust="spacing" textLength="61" x="1440.5" y="119.7285">Database</text><path d="M1456,68.6211 C1456,58.6211 1474,58.6211 1474,58.6211 C1474,58.6211 1492,58.6211 1492,68.6211 L1492,94.6211 C1492,104.6211 1474,104.6211 1474,104.6211 C1474,104.6211 1456,104.6211 1456,94.6211 L1456,68.6211 " fill="#E2E2F0" style="stroke:#181818;stroke-width:1.5;"/><path d="M1456,68.6211 C1456,78.6211 1474,78.6211 1474,78.6211 C1474,78.6211 1492,78.6211 1492,68.6211 " fill="none" style="stroke:#181818;stroke-width:1.5;"/><text fill="#000000" font-family="sans-serif" font-size="14" lengthAdjust="spacing" textLength="61" x="1440.5" y="901.0723">Database</text><path d="M1456,914.5859 C1456,904.5859 1474,904.5859 1474,904.5859 C1474,904.5859 1492,904.5859 1492,914.5859 L1492,940.5859 C1492,950.5859 1474,950.5859 1474,950.5859 C1474,950.5859 1456,950.5859 1456,940.5859 L1456,914.5859 " fill="#E2E2F0" style="stroke:#181818;stroke-width:1.5;"/><path d="M1456,914.5859 C1456,924.5859 1474,924.5859 1474,924.5859 C1474,924.5859 1492,924.5859 1492,914.5859 " fill="none" style="stroke:#181818;stroke-width:1.5;"/><rect fill="#FFFFFF" height="735.7227" style="stroke:#181818;stroke-width:1.0;" width="10" x="48.5" y="133.2422"/><rect fill="#FFFFFF" height="406.1035" style="stroke:#181818;stroke-width:1.0;" width="10" x="266.5" y="156.5332"/><rect fill="#FFFFFF" height="275.0371" style="stroke:#181818;stroke-width:1.0;" width="10" x="266.5" y="593.9277"/><rect fill="#FFFFFF" height="281.2793" style="stroke:#181818;stroke-width:1.0;" width="10" x="459.5" y="250.0664"/><rect fill="#FFFFFF" height="212.4551" style="stroke:#181818;stroke-width:1.0;" width="10" x="459.5" y="625.2188"/><rect fill="#FFFFFF" height="156.4551" style="stroke:#181818;stroke-width:1.0;" width="10" x="946.5" y="343.5996"/><rect fill="#FFFFFF" height="135.873" style="stroke:#181818;stroke-width:1.0;" width="10" x="946.5" y="687.8008"/><rect fill="#FFFFFF" height="93.873" style="stroke:#181818;stroke-width:1.0;" width="10" x="1314" y="374.8906"/><rect fill="#FFFFFF" height="59.291" style="stroke:#181818;stroke-width:1.0;" width="10" x="1314" y="750.3828"/><rect fill="#FFFFFF" height="31.291" style="stroke:#181818;stroke-width:1.0;" width="10" x="1469" y="406.1816"/><rect fill="#FFFFFF" height="14" style="stroke:#181818;stroke-width:1.0;" width="10" x="1469" y="781.6738"/><polygon fill="#181818" points="254.5,152.5332,264.5,156.5332,254.5,160.5332,258.5,156.5332" style="stroke:#181818;stroke-width:1.0;"/><line style="stroke:#181818;stroke-width:1.0;" x1="58.5" x2="260.5" y1="156.5332" y2="156.5332"/><text fill="#000000" font-family="sans-serif" font-size="13" lengthAdjust="spacing" textLength="38" x="65.5" y="151.2705">show()</text><polygon fill="#181818" points="348.5,183.8242,358.5,187.8242,348.5,191.8242,352.5,187.8242" style="stroke:#181818;stroke-width:1.0;"/><line style="stroke:#181818;stroke-width:1.0;" x1="276.5" x2="354.5" y1="187.8242" y2="187.8242"/><text fill="#000000" font-family="sans-serif" font-size="13" lengthAdjust="spacing" textLength="44" x="283.5" y="182.5615">create()</text><rect fill="#E2E2F0" height="51.2422" rx="2.5" ry="2.5" style="stroke:#181818;stroke-width:0.5;" width="208" x="360.5" y="164.5332"/><text fill="#000000" font-family="sans-serif" font-size="14" font-style="italic" lengthAdjust="spacing" textLength="84" x="422.5" y="186.6406">&#171;application&#187;</text><text fill="#000000" font-family="sans-serif" font-size="14" lengthAdjust="spacing" textLength="194" x="367.5" y="205.2617">DecommissionFigureController</text><polygon fill="#181818" points="447.5,246.0664,457.5,250.0664,447.5,254.0664,451.5,250.0664" style="stroke:#181818;stroke-width:1.0;"/><line style="stroke:#181818;stroke-width:1.0;" x1="276.5" x2="453.5" y1="250.0664" y2="250.0664"/><text fill="#000000" font-family="sans-serif" font-size="13" lengthAdjust="spacing" textLength="84" x="283.5" y="244.8037">activeFigures()</text><polygon fill="#181818" points="694.5,277.3574,704.5,281.3574,694.5,285.3574,698.5,281.3574" style="stroke:#181818;stroke-width:1.0;"/><line style="stroke:#181818;stroke-width:1.0;" x1="469.5" x2="700.5" y1="281.3574" y2="281.3574"/><text fill="#000000" font-family="sans-serif" font-size="13" lengthAdjust="spacing" textLength="213" x="476.5" y="276.0947">ensureAuthenticatedUserHasAnyOf()</text><rect fill="#E2E2F0" height="51.2422" rx="2.5" ry="2.5" style="stroke:#181818;stroke-width:0.5;" width="143" x="706.5" y="258.0664"/><text fill="#000000" font-family="sans-serif" font-size="14" font-style="italic" lengthAdjust="spacing" textLength="44" x="756" y="280.1738">&#171;auth&#187;</text><text fill="#000000" font-family="sans-serif" font-size="14" lengthAdjust="spacing" textLength="129" x="713.5" y="298.7949">AuthorizationService</text><polygon fill="#181818" points="934.5,339.5996,944.5,343.5996,934.5,347.5996,938.5,343.5996" style="stroke:#181818;stroke-width:1.0;"/><line style="stroke:#181818;stroke-width:1.0;" x1="469.5" x2="940.5" y1="343.5996" y2="343.5996"/><text fill="#000000" font-family="sans-serif" font-size="13" lengthAdjust="spacing" textLength="84" x="476.5" y="338.3369">activeFigures()</text><polygon fill="#181818" points="1302,370.8906,1312,374.8906,1302,378.8906,1306,374.8906" style="stroke:#181818;stroke-width:1.0;"/><line style="stroke:#181818;stroke-width:1.0;" x1="956.5" x2="1308" y1="374.8906" y2="374.8906"/><text fill="#000000" font-family="sans-serif" font-size="13" lengthAdjust="spacing" textLength="101" x="963.5" y="369.6279">findByActive(true)</text><polygon fill="#181818" points="1457,402.1816,1467,406.1816,1457,410.1816,1461,406.1816" style="stroke:#181818;stroke-width:1.0;"/><line style="stroke:#181818;stroke-width:1.0;" x1="1324" x2="1463" y1="406.1816" y2="406.1816"/><text fill="#000000" font-family="sans-serif" font-size="13" lengthAdjust="spacing" textLength="101" x="1331" y="400.9189">findByActive(true)</text><polygon fill="#181818" points="1335,433.4727,1325,437.4727,1335,441.4727,1331,437.4727" style="stroke:#181818;stroke-width:1.0;"/><line style="stroke:#181818;stroke-width:1.0;stroke-dasharray:2.0,2.0;" x1="1329" x2="1473" y1="437.4727" y2="437.4727"/><text fill="#000000" font-family="sans-serif" font-size="13" lengthAdjust="spacing" textLength="121" x="1341" y="432.21">List of Active Figures</text><polygon fill="#181818" points="967.5,464.7637,957.5,468.7637,967.5,472.7637,963.5,468.7637" style="stroke:#181818;stroke-width:1.0;"/><line style="stroke:#181818;stroke-width:1.0;stroke-dasharray:2.0,2.0;" x1="961.5" x2="1318" y1="468.7637" y2="468.7637"/><text fill="#000000" font-family="sans-serif" font-size="13" lengthAdjust="spacing" textLength="121" x="973.5" y="463.501">List of Active Figures</text><polygon fill="#181818" points="480.5,496.0547,470.5,500.0547,480.5,504.0547,476.5,500.0547" style="stroke:#181818;stroke-width:1.0;"/><line style="stroke:#181818;stroke-width:1.0;stroke-dasharray:2.0,2.0;" x1="474.5" x2="950.5" y1="500.0547" y2="500.0547"/><text fill="#000000" font-family="sans-serif" font-size="13" lengthAdjust="spacing" textLength="121" x="486.5" y="494.792">List of Active Figures</text><polygon fill="#181818" points="287.5,527.3457,277.5,531.3457,287.5,535.3457,283.5,531.3457" style="stroke:#181818;stroke-width:1.0;"/><line style="stroke:#181818;stroke-width:1.0;stroke-dasharray:2.0,2.0;" x1="281.5" x2="463.5" y1="531.3457" y2="531.3457"/><text fill="#000000" font-family="sans-serif" font-size="13" lengthAdjust="spacing" textLength="121" x="293.5" y="526.083">List of Active Figures</text><polygon fill="#181818" points="69.5,558.6367,59.5,562.6367,69.5,566.6367,65.5,562.6367" style="stroke:#181818;stroke-width:1.0;"/><line style="stroke:#181818;stroke-width:1.0;stroke-dasharray:2.0,2.0;" x1="63.5" x2="270.5" y1="562.6367" y2="562.6367"/><text fill="#000000" font-family="sans-serif" font-size="13" lengthAdjust="spacing" textLength="157" x="75.5" y="557.374">Show List of Active Figures</text><polygon fill="#181818" points="254.5,589.9277,264.5,593.9277,254.5,597.9277,258.5,593.9277" style="stroke:#181818;stroke-width:1.0;"/><line style="stroke:#181818;stroke-width:1.0;" x1="58.5" x2="260.5" y1="593.9277" y2="593.9277"/><text fill="#000000" font-family="sans-serif" font-size="13" lengthAdjust="spacing" textLength="189" x="65.5" y="588.665">Choose Figure to Decommission</text><polygon fill="#181818" points="447.5,621.2188,457.5,625.2188,447.5,629.2188,451.5,625.2188" style="stroke:#181818;stroke-width:1.0;"/><line style="stroke:#181818;stroke-width:1.0;" x1="276.5" x2="453.5" y1="625.2188" y2="625.2188"/><text fill="#000000" font-family="sans-serif" font-size="13" lengthAdjust="spacing" textLength="159" x="283.5" y="619.9561">decommissionFigure(figure)</text><polygon fill="#181818" points="766,652.5098,776,656.5098,766,660.5098,770,656.5098" style="stroke:#181818;stroke-width:1.0;"/><line style="stroke:#181818;stroke-width:1.0;" x1="469.5" x2="772" y1="656.5098" y2="656.5098"/><text fill="#000000" font-family="sans-serif" font-size="13" lengthAdjust="spacing" textLength="213" x="476.5" y="651.2471">ensureAuthenticatedUserHasAnyOf()</text><polygon fill="#181818" points="934.5,683.8008,944.5,687.8008,934.5,691.8008,938.5,687.8008" style="stroke:#181818;stroke-width:1.0;"/><line style="stroke:#181818;stroke-width:1.0;" x1="469.5" x2="940.5" y1="687.8008" y2="687.8008"/><text fill="#000000" font-family="sans-serif" font-size="13" lengthAdjust="spacing" textLength="159" x="476.5" y="682.5381">decommissionFigure(figure)</text><polygon fill="#181818" points="1197.5,715.0918,1207.5,719.0918,1197.5,723.0918,1201.5,719.0918" style="stroke:#181818;stroke-width:1.0;"/><line style="stroke:#181818;stroke-width:1.0;" x1="956.5" x2="1203.5" y1="719.0918" y2="719.0918"/><text fill="#000000" font-family="sans-serif" font-size="13" lengthAdjust="spacing" textLength="229" x="963.5" y="713.8291">deactivate(CurrentTimeCalendars.now())</text><polygon fill="#181818" points="1302,746.3828,1312,750.3828,1302,754.3828,1306,750.3828" style="stroke:#181818;stroke-width:1.0;"/><line style="stroke:#181818;stroke-width:1.0;" x1="956.5" x2="1308" y1="750.3828" y2="750.3828"/><text fill="#000000" font-family="sans-serif" font-size="13" lengthAdjust="spacing" textLength="65" x="963.5" y="745.1201">save(figure)</text><polygon fill="#181818" points="1457,777.6738,1467,781.6738,1457,785.6738,1461,781.6738" style="stroke:#181818;stroke-width:1.0;"/><line style="stroke:#181818;stroke-width:1.0;" x1="1324" x2="1463" y1="781.6738" y2="781.6738"/><text fill="#000000" font-family="sans-serif" font-size="13" lengthAdjust="spacing" textLength="34" x="1331" y="776.4111">save()</text><polygon fill="#181818" points="1335,791.6738,1325,795.6738,1335,799.6738,1331,795.6738" style="stroke:#181818;stroke-width:1.0;"/><line style="stroke:#181818;stroke-width:1.0;stroke-dasharray:2.0,2.0;" x1="1329" x2="1473" y1="795.6738" y2="795.6738"/><polygon fill="#181818" points="967.5,805.6738,957.5,809.6738,967.5,813.6738,963.5,809.6738" style="stroke:#181818;stroke-width:1.0;"/><line style="stroke:#181818;stroke-width:1.0;stroke-dasharray:2.0,2.0;" x1="961.5" x2="1318" y1="809.6738" y2="809.6738"/><polygon fill="#181818" points="480.5,819.6738,470.5,823.6738,480.5,827.6738,476.5,823.6738" style="stroke:#181818;stroke-width:1.0;"/><line style="stroke:#181818;stroke-width:1.0;stroke-dasharray:2.0,2.0;" x1="474.5" x2="950.5" y1="823.6738" y2="823.6738"/><polygon fill="#181818" points="287.5,833.6738,277.5,837.6738,287.5,841.6738,283.5,837.6738" style="stroke:#181818;stroke-width:1.0;"/><line style="stroke:#181818;stroke-width:1.0;stroke-dasharray:2.0,2.0;" x1="281.5" x2="463.5" y1="837.6738" y2="837.6738"/><polygon fill="#181818" points="64.5,864.9648,54.5,868.9648,64.5,872.9648,60.5,868.9648" style="stroke:#181818;stroke-width:1.0;"/><line style="stroke:#181818;stroke-width:1.0;stroke-dasharray:2.0,2.0;" x1="58.5" x2="270.5" y1="868.9648" y2="868.9648"/><text fill="#000000" font-family="sans-serif" font-size="13" lengthAdjust="spacing" textLength="145" x="70.5" y="863.7021">Inform operation success</text><!--SRC=[hLRRZjem47ttLunuWfMs7n2ja2YhgaXTLLhA1xZ912mHExKTAlhr7UT27EA4PBL-2SxCd3dsp9nWXJqZxF5FWJ96U1Nyg7d668-jqh3Olh_16vVyY7e1tC36lMOvrrR48kVImk8LOvLbmXYXv3TnB3GUTgNlOGSlBxb6Wz9oIzRr-b7aLachrVbSPsktXCJp_2pY8D2ci2UbnR_Ik4Tz4J5MT0C61qMlxp4g0jLPCsBimmpOnabLGLuykISgusB0ynrpPGHTxzMBQLzIjBvj227Xbl_c1kaQwrzbMBCfAoWkt69TCrO-u7bDTOd0dDJVvOe1hPlVOSSOrOmysdj_Ue88Oera9_UUEQgYiI9hxX5RHrOQtF9gIb2X0fKvKHf2T6QwRtV3c1mCwk_SREJrP-h8X147QXLcsgmRuu5erl5sQwWbRWpQoaMG2fbylMvA0akh2rpry08iMWGMT6zfU5r2-PiMY61guXw1jelWmMeyuJbuyX_2M50fL1Hg1pEAcc2VnlJZZtN0338UYNunfZV3tR1C8D1BFDABVkFNSpsImKFsvzADj1j4fmuHx4aNXa0y02SL7JtPdfGoZIjO1RwsrpVMYMxESAyeDFf9xxEmJCl7mCo6L6QwsipJcbcQC_qi7zEWIJeKUOLVRWkjoUcNo73BpoWJhiqNwJu5gm_2UxD7NnL-QS_tMHBtKEUQnEFQzkdYDXuTKh6vHnpkhFcQDQkudOba3_DCQDMUL0s9NY2lhr1KwvrCbSv0vQZBEGPJn36QLaQxEkNjgZz2_m40]--></g></svg>