<?xml version="1.0" encoding="us-ascii" standalone="no"?><svg xmlns="http://www.w3.org/2000/svg" xmlns:xlink="http://www.w3.org/1999/xlink" contentStyleType="text/css" height="800.8px" preserveAspectRatio="none" style="width:1404px;height:800px;background:#FFFFFF;" version="1.1" viewBox="0 0 1404 800" width="1404.8px" zoomAndPan="magnify"><defs/><g><text fill="#000000" font-family="sans-serif" font-size="11.2" font-weight="bold" lengthAdjust="spacing" textLength="105.6" x="650.6" y="24.0859">Sequence Diagram</text><rect fill="#FFFFFF" height="613.6109" style="stroke:#181818;stroke-width:0.8000000000000002;" width="8" x="38.8" y="106.5938"/><rect fill="#FFFFFF" height="74.8266" style="stroke:#181818;stroke-width:0.8000000000000002;" width="8" x="211.6" y="125.2266"/><rect fill="#FFFFFF" height="275.0891" style="stroke:#181818;stroke-width:0.8000000000000002;" width="8" x="356.8" y="200.0531"/><rect fill="#FFFFFF" height="220.0297" style="stroke:#181818;stroke-width:0.8000000000000002;" width="8" x="356.8" y="500.175"/><rect fill="#FFFFFF" height="175.2297" style="stroke:#181818;stroke-width:0.8000000000000002;" width="8" x="511.2" y="274.8797"/><rect fill="#FFFFFF" height="169.9641" style="stroke:#181818;stroke-width:0.8000000000000002;" width="8" x="511.2" y="525.2078"/><rect fill="#FFFFFF" height="125.1641" style="stroke:#181818;stroke-width:0.8000000000000002;" width="8" x="954.8" y="299.9125"/><rect fill="#FFFFFF" height="108.6984" style="stroke:#181818;stroke-width:0.8000000000000002;" width="8" x="954.8" y="575.2734"/><rect fill="#FFFFFF" height="75.0984" style="stroke:#181818;stroke-width:0.8000000000000002;" width="8" x="1248.8" y="324.9453"/><rect fill="#FFFFFF" height="47.4328" style="stroke:#181818;stroke-width:0.8000000000000002;" width="8" x="1248.8" y="625.3391"/><rect fill="#FFFFFF" height="25.0328" style="stroke:#181818;stroke-width:0.8000000000000002;" width="8" x="1372.8" y="349.9781"/><rect fill="#FFFFFF" height="11.2" style="stroke:#181818;stroke-width:0.8000000000000002;" width="8" x="1372.8" y="650.3719"/><line style="stroke:#181818;stroke-width:0.4000000000000001;stroke-dasharray:5.0,5.0;" x1="42.4" x2="42.4" y1="98.5938" y2="734.6047"/><line style="stroke:#181818;stroke-width:0.4000000000000001;stroke-dasharray:5.0,5.0;" x1="215.2" x2="215.2" y1="98.5938" y2="734.6047"/><line style="stroke:#181818;stroke-width:0.4000000000000001;stroke-dasharray:5.0,5.0;" x1="360.8" x2="360.8" y1="164.5234" y2="734.6047"/><line style="stroke:#181818;stroke-width:0.4000000000000001;stroke-dasharray:5.0,5.0;" x1="515.2" x2="515.2" y1="239.35" y2="734.6047"/><line style="stroke:#181818;stroke-width:0.4000000000000001;stroke-dasharray:5.0,5.0;" x1="819.6" x2="819.6" y1="98.5938" y2="734.6047"/><line style="stroke:#181818;stroke-width:0.4000000000000001;stroke-dasharray:5.0,5.0;" x1="958.8" x2="958.8" y1="98.5938" y2="734.6047"/><line style="stroke:#181818;stroke-width:0.4000000000000001;stroke-dasharray:5.0,5.0;" x1="1165.2" x2="1165.2" y1="98.5938" y2="734.6047"/><line style="stroke:#181818;stroke-width:0.4000000000000001;stroke-dasharray:5.0,5.0;" x1="1252.4" x2="1252.4" y1="98.5938" y2="734.6047"/><line style="stroke:#181818;stroke-width:0.4000000000000001;stroke-dasharray:5.0,5.0;" x1="1376.4" x2="1376.4" y1="98.5938" y2="734.6047"/><text fill="#000000" font-family="sans-serif" font-size="11.2" lengthAdjust="spacing" textLength="72.8" x="4" y="95.7828">CRM Manager</text><ellipse cx="42.8" cy="42.4969" fill="#E2E2F0" rx="6.4" ry="6.4" style="stroke:#181818;stroke-width:0.4000000000000001;"/><path d="M42.8,48.8969 L42.8,70.4969 M32.4,55.2969 L53.2,55.2969 M42.8,70.4969 L32.4,82.4969 M42.8,70.4969 L53.2,82.4969 " fill="none" style="stroke:#181818;stroke-width:0.4000000000000001;"/><text fill="#000000" font-family="sans-serif" font-size="11.2" lengthAdjust="spacing" textLength="72.8" x="4" y="745.8906">CRM Manager</text><ellipse cx="42.8" cy="755.5016" fill="#E2E2F0" rx="6.4" ry="6.4" style="stroke:#181818;stroke-width:0.4000000000000001;"/><path d="M42.8,761.9016 L42.8,783.5016 M32.4,768.3016 L53.2,768.3016 M42.8,783.5016 L32.4,795.5016 M42.8,783.5016 L53.2,795.5016 " fill="none" style="stroke:#181818;stroke-width:0.4000000000000001;"/><rect fill="#E2E2F0" height="40.9938" rx="2" ry="2" style="stroke:#181818;stroke-width:0.4000000000000001;" width="148" x="141.6" y="56.8"/><text fill="#000000" font-family="sans-serif" font-size="11.2" font-style="italic" lengthAdjust="spacing" textLength="76" x="177.6" y="74.4859">&#171;presentation&#187;</text><text fill="#000000" font-family="sans-serif" font-size="11.2" lengthAdjust="spacing" textLength="136.8" x="147.2" y="89.3828">DecommissionFigureAction</text><rect fill="#E2E2F0" height="40.9938" rx="2" ry="2" style="stroke:#181818;stroke-width:0.4000000000000001;" width="148" x="141.6" y="733.8047"/><text fill="#000000" font-family="sans-serif" font-size="11.2" font-style="italic" lengthAdjust="spacing" textLength="76" x="177.6" y="751.4906">&#171;presentation&#187;</text><text fill="#000000" font-family="sans-serif" font-size="11.2" lengthAdjust="spacing" textLength="136.8" x="147.2" y="766.3875">DecommissionFigureAction</text><rect fill="#E2E2F0" height="40.9938" rx="2" ry="2" style="stroke:#181818;stroke-width:0.4000000000000001;" width="126.4" x="297.6" y="733.8047"/><text fill="#000000" font-family="sans-serif" font-size="11.2" font-style="italic" lengthAdjust="spacing" textLength="76" x="322.8" y="751.4906">&#171;presentation&#187;</text><text fill="#000000" font-family="sans-serif" font-size="11.2" lengthAdjust="spacing" textLength="115.2" x="303.2" y="766.3875">DecommissionFigureUI</text><rect fill="#E2E2F0" height="40.9938" rx="2" ry="2" style="stroke:#181818;stroke-width:0.4000000000000001;" width="166.4" x="432" y="733.8047"/><text fill="#000000" font-family="sans-serif" font-size="11.2" font-style="italic" lengthAdjust="spacing" textLength="67.2" x="481.6" y="751.4906">&#171;application&#187;</text><text fill="#000000" font-family="sans-serif" font-size="11.2" lengthAdjust="spacing" textLength="155.2" x="437.6" y="766.3875">DecommissionFigureController</text><rect fill="#E2E2F0" height="40.9938" rx="2" ry="2" style="stroke:#181818;stroke-width:0.4000000000000001;" width="114.4" x="762.8" y="56.8"/><text fill="#000000" font-family="sans-serif" font-size="11.2" font-style="italic" lengthAdjust="spacing" textLength="35.2" x="802.4" y="74.4859">&#171;auth&#187;</text><text fill="#000000" font-family="sans-serif" font-size="11.2" lengthAdjust="spacing" textLength="103.2" x="768.4" y="89.3828">AuthorizationService</text><rect fill="#E2E2F0" height="40.9938" rx="2" ry="2" style="stroke:#181818;stroke-width:0.4000000000000001;" width="114.4" x="762.8" y="733.8047"/><text fill="#000000" font-family="sans-serif" font-size="11.2" font-style="italic" lengthAdjust="spacing" textLength="35.2" x="802.4" y="751.4906">&#171;auth&#187;</text><text fill="#000000" font-family="sans-serif" font-size="11.2" lengthAdjust="spacing" textLength="103.2" x="768.4" y="766.3875">AuthorizationService</text><rect fill="#E2E2F0" height="40.9938" rx="2" ry="2" style="stroke:#181818;stroke-width:0.4000000000000001;" width="147.2" x="885.2" y="56.8"/><text fill="#000000" font-family="sans-serif" font-size="11.2" font-style="italic" lengthAdjust="spacing" textLength="67.2" x="925.2" y="74.4859">&#171;application&#187;</text><text fill="#000000" font-family="sans-serif" font-size="11.2" lengthAdjust="spacing" textLength="136" x="890.8" y="89.3828">FigureManagementService</text><rect fill="#E2E2F0" height="40.9938" rx="2" ry="2" style="stroke:#181818;stroke-width:0.4000000000000001;" width="147.2" x="885.2" y="733.8047"/><text fill="#000000" font-family="sans-serif" font-size="11.2" font-style="italic" lengthAdjust="spacing" textLength="67.2" x="925.2" y="751.4906">&#171;application&#187;</text><text fill="#000000" font-family="sans-serif" font-size="11.2" lengthAdjust="spacing" textLength="136" x="890.8" y="766.3875">FigureManagementService</text><rect fill="#E2E2F0" height="40.9938" rx="2" ry="2" style="stroke:#181818;stroke-width:0.4000000000000001;" width="60.8" x="1134.8" y="56.8"/><text fill="#000000" font-family="sans-serif" font-size="11.2" font-style="italic" lengthAdjust="spacing" textLength="49.6" x="1140.4" y="74.4859">&#171;domain&#187;</text><text fill="#000000" font-family="sans-serif" font-size="11.2" lengthAdjust="spacing" textLength="32.8" x="1148.8" y="89.3828">Figure</text><rect fill="#E2E2F0" height="40.9938" rx="2" ry="2" style="stroke:#181818;stroke-width:0.4000000000000001;" width="60.8" x="1134.8" y="733.8047"/><text fill="#000000" font-family="sans-serif" font-size="11.2" font-style="italic" lengthAdjust="spacing" textLength="49.6" x="1140.4" y="751.4906">&#171;domain&#187;</text><text fill="#000000" font-family="sans-serif" font-size="11.2" lengthAdjust="spacing" textLength="32.8" x="1148.8" y="766.3875">Figure</text><rect fill="#E2E2F0" height="40.9938" rx="2" ry="2" style="stroke:#181818;stroke-width:0.4000000000000001;" width="98.4" x="1203.6" y="56.8"/><text fill="#000000" font-family="sans-serif" font-size="11.2" font-style="italic" lengthAdjust="spacing" textLength="63.2" x="1221.2" y="74.4859">&#171;repository&#187;</text><text fill="#000000" font-family="sans-serif" font-size="11.2" lengthAdjust="spacing" textLength="87.2" x="1209.2" y="89.3828">FigureRepository</text><rect fill="#E2E2F0" height="40.9938" rx="2" ry="2" style="stroke:#181818;stroke-width:0.4000000000000001;" width="98.4" x="1203.6" y="733.8047"/><text fill="#000000" font-family="sans-serif" font-size="11.2" font-style="italic" lengthAdjust="spacing" textLength="63.2" x="1221.2" y="751.4906">&#171;repository&#187;</text><text fill="#000000" font-family="sans-serif" font-size="11.2" lengthAdjust="spacing" textLength="87.2" x="1209.2" y="766.3875">FigureRepository</text><text fill="#000000" font-family="sans-serif" font-size="11.2" lengthAdjust="spacing" textLength="48.8" x="1350" y="95.7828">Database</text><path d="M1362.4,54.8969 C1362.4,46.8969 1376.8,46.8969 1376.8,46.8969 C1376.8,46.8969 1391.2,46.8969 1391.2,54.8969 L1391.2,75.6969 C1391.2,83.6969 1376.8,83.6969 1376.8,83.6969 C1376.8,83.6969 1362.4,83.6969 1362.4,75.6969 L1362.4,54.8969 " fill="#E2E2F0" style="stroke:#181818;stroke-width:1.2000000000000002;"/><path d="M1362.4,54.8969 C1362.4,62.8969 1376.8,62.8969 1376.8,62.8969 C1376.8,62.8969 1391.2,62.8969 1391.2,54.8969 " fill="none" style="stroke:#181818;stroke-width:1.2000000000000002;"/><text fill="#000000" font-family="sans-serif" font-size="11.2" lengthAdjust="spacing" textLength="48.8" x="1350" y="745.8906">Database</text><path d="M1362.4,756.7016 C1362.4,748.7016 1376.8,748.7016 1376.8,748.7016 C1376.8,748.7016 1391.2,748.7016 1391.2,756.7016 L1391.2,777.5016 C1391.2,785.5016 1376.8,785.5016 1376.8,785.5016 C1376.8,785.5016 1362.4,785.5016 1362.4,777.5016 L1362.4,756.7016 " fill="#E2E2F0" style="stroke:#181818;stroke-width:1.2000000000000002;"/><path d="M1362.4,756.7016 C1362.4,764.7016 1376.8,764.7016 1376.8,764.7016 C1376.8,764.7016 1391.2,764.7016 1391.2,756.7016 " fill="none" style="stroke:#181818;stroke-width:1.2000000000000002;"/><rect fill="#FFFFFF" height="613.6109" style="stroke:#181818;stroke-width:0.8000000000000002;" width="8" x="38.8" y="106.5938"/><rect fill="#FFFFFF" height="74.8266" style="stroke:#181818;stroke-width:0.8000000000000002;" width="8" x="211.6" y="125.2266"/><rect fill="#FFFFFF" height="275.0891" style="stroke:#181818;stroke-width:0.8000000000000002;" width="8" x="356.8" y="200.0531"/><rect fill="#FFFFFF" height="220.0297" style="stroke:#181818;stroke-width:0.8000000000000002;" width="8" x="356.8" y="500.175"/><rect fill="#FFFFFF" height="175.2297" style="stroke:#181818;stroke-width:0.8000000000000002;" width="8" x="511.2" y="274.8797"/><rect fill="#FFFFFF" height="169.9641" style="stroke:#181818;stroke-width:0.8000000000000002;" width="8" x="511.2" y="525.2078"/><rect fill="#FFFFFF" height="125.1641" style="stroke:#181818;stroke-width:0.8000000000000002;" width="8" x="954.8" y="299.9125"/><rect fill="#FFFFFF" height="108.6984" style="stroke:#181818;stroke-width:0.8000000000000002;" width="8" x="954.8" y="575.2734"/><rect fill="#FFFFFF" height="75.0984" style="stroke:#181818;stroke-width:0.8000000000000002;" width="8" x="1248.8" y="324.9453"/><rect fill="#FFFFFF" height="47.4328" style="stroke:#181818;stroke-width:0.8000000000000002;" width="8" x="1248.8" y="625.3391"/><rect fill="#FFFFFF" height="25.0328" style="stroke:#181818;stroke-width:0.8000000000000002;" width="8" x="1372.8" y="349.9781"/><rect fill="#FFFFFF" height="11.2" style="stroke:#181818;stroke-width:0.8000000000000002;" width="8" x="1372.8" y="650.3719"/><polygon fill="#181818" points="202,122.0266,210,125.2266,202,128.4266,205.2,125.2266" style="stroke:#181818;stroke-width:0.8000000000000002;"/><line style="stroke:#181818;stroke-width:0.8000000000000002;" x1="46.8" x2="206.8" y1="125.2266" y2="125.2266"/><text fill="#000000" font-family="sans-serif" font-size="10.4" lengthAdjust="spacing" textLength="149.6" x="52.4" y="121.0164">Wants to decommission a figure</text><polygon fill="#181818" points="288,147.0594,296,150.2594,288,153.4594,291.2,150.2594" style="stroke:#181818;stroke-width:0.8000000000000002;"/><line style="stroke:#181818;stroke-width:0.8000000000000002;" x1="219.6" x2="292.8" y1="150.2594" y2="150.2594"/><text fill="#000000" font-family="sans-serif" font-size="10.4" lengthAdjust="spacing" textLength="28.8" x="225.2" y="146.0492">create</text><rect fill="#E2E2F0" height="40.9938" rx="2" ry="2" style="stroke:#181818;stroke-width:0.4000000000000001;" width="126.4" x="297.6" y="131.6266"/><text fill="#000000" font-family="sans-serif" font-size="11.2" font-style="italic" lengthAdjust="spacing" textLength="76" x="322.8" y="149.3125">&#171;presentation&#187;</text><text fill="#000000" font-family="sans-serif" font-size="11.2" lengthAdjust="spacing" textLength="115.2" x="303.2" y="164.2094">DecommissionFigureUI</text><polygon fill="#181818" points="347.2,196.8531,355.2,200.0531,347.2,203.2531,350.4,200.0531" style="stroke:#181818;stroke-width:0.8000000000000002;"/><line style="stroke:#181818;stroke-width:0.8000000000000002;" x1="215.6" x2="352" y1="200.0531" y2="200.0531"/><text fill="#000000" font-family="sans-serif" font-size="10.4" lengthAdjust="spacing" textLength="30.4" x="221.2" y="195.843">show()</text><polygon fill="#181818" points="422.4,221.8859,430.4,225.0859,422.4,228.2859,425.6,225.0859" style="stroke:#181818;stroke-width:0.8000000000000002;"/><line style="stroke:#181818;stroke-width:0.8000000000000002;" x1="364.8" x2="427.2" y1="225.0859" y2="225.0859"/><text fill="#000000" font-family="sans-serif" font-size="10.4" lengthAdjust="spacing" textLength="28.8" x="370.4" y="220.8758">create</text><rect fill="#E2E2F0" height="40.9938" rx="2" ry="2" style="stroke:#181818;stroke-width:0.4000000000000001;" width="166.4" x="432" y="206.4531"/><text fill="#000000" font-family="sans-serif" font-size="11.2" font-style="italic" lengthAdjust="spacing" textLength="67.2" x="481.6" y="224.1391">&#171;application&#187;</text><text fill="#000000" font-family="sans-serif" font-size="11.2" lengthAdjust="spacing" textLength="155.2" x="437.6" y="239.0359">DecommissionFigureController</text><polygon fill="#181818" points="501.6,271.6797,509.6,274.8797,501.6,278.0797,504.8,274.8797" style="stroke:#181818;stroke-width:0.8000000000000002;"/><line style="stroke:#181818;stroke-width:0.8000000000000002;" x1="364.8" x2="506.4" y1="274.8797" y2="274.8797"/><text fill="#000000" font-family="sans-serif" font-size="10.4" lengthAdjust="spacing" textLength="67.2" x="370.4" y="270.6695">activeFigures()</text><polygon fill="#181818" points="945.2,296.7125,953.2,299.9125,945.2,303.1125,948.4,299.9125" style="stroke:#181818;stroke-width:0.8000000000000002;"/><line style="stroke:#181818;stroke-width:0.8000000000000002;" x1="519.2" x2="950" y1="299.9125" y2="299.9125"/><text fill="#000000" font-family="sans-serif" font-size="10.4" lengthAdjust="spacing" textLength="67.2" x="524.8" y="295.7023">activeFigures()</text><polygon fill="#181818" points="1239.2,321.7453,1247.2,324.9453,1239.2,328.1453,1242.4,324.9453" style="stroke:#181818;stroke-width:0.8000000000000002;"/><line style="stroke:#181818;stroke-width:0.8000000000000002;" x1="962.8" x2="1244" y1="324.9453" y2="324.9453"/><text fill="#000000" font-family="sans-serif" font-size="10.4" lengthAdjust="spacing" textLength="80.8" x="968.4" y="320.7352">findByActive(true)</text><polygon fill="#181818" points="1363.2,346.7781,1371.2,349.9781,1363.2,353.1781,1366.4,349.9781" style="stroke:#181818;stroke-width:0.8000000000000002;"/><line style="stroke:#181818;stroke-width:0.8000000000000002;" x1="1256.8" x2="1368" y1="349.9781" y2="349.9781"/><text fill="#000000" font-family="sans-serif" font-size="10.4" lengthAdjust="spacing" textLength="80.8" x="1262.4" y="345.768">findByActive(true)</text><polygon fill="#181818" points="1265.6,371.8109,1257.6,375.0109,1265.6,378.2109,1262.4,375.0109" style="stroke:#181818;stroke-width:0.8000000000000002;"/><line style="stroke:#181818;stroke-width:0.8000000000000002;stroke-dasharray:2.0,2.0;" x1="1260.8" x2="1376" y1="375.0109" y2="375.0109"/><text fill="#000000" font-family="sans-serif" font-size="10.4" lengthAdjust="spacing" textLength="96.8" x="1270.4" y="370.8008">List of Active Figures</text><polygon fill="#181818" points="971.6,396.8438,963.6,400.0438,971.6,403.2438,968.4,400.0438" style="stroke:#181818;stroke-width:0.8000000000000002;"/><line style="stroke:#181818;stroke-width:0.8000000000000002;stroke-dasharray:2.0,2.0;" x1="966.8" x2="1252" y1="400.0438" y2="400.0438"/><text fill="#000000" font-family="sans-serif" font-size="10.4" lengthAdjust="spacing" textLength="96.8" x="976.4" y="395.8336">List of Active Figures</text><polygon fill="#181818" points="528,421.8766,520,425.0766,528,428.2766,524.8,425.0766" style="stroke:#181818;stroke-width:0.8000000000000002;"/><line style="stroke:#181818;stroke-width:0.8000000000000002;stroke-dasharray:2.0,2.0;" x1="523.2" x2="958" y1="425.0766" y2="425.0766"/><text fill="#000000" font-family="sans-serif" font-size="10.4" lengthAdjust="spacing" textLength="96.8" x="532.8" y="420.8664">List of Active Figures</text><polygon fill="#181818" points="373.6,446.9094,365.6,450.1094,373.6,453.3094,370.4,450.1094" style="stroke:#181818;stroke-width:0.8000000000000002;"/><line style="stroke:#181818;stroke-width:0.8000000000000002;stroke-dasharray:2.0,2.0;" x1="368.8" x2="514.4" y1="450.1094" y2="450.1094"/><text fill="#000000" font-family="sans-serif" font-size="10.4" lengthAdjust="spacing" textLength="96.8" x="378.4" y="445.8992">List of Active Figures</text><polygon fill="#181818" points="55.6,471.9422,47.6,475.1422,55.6,478.3422,52.4,475.1422" style="stroke:#181818;stroke-width:0.8000000000000002;"/><line style="stroke:#181818;stroke-width:0.8000000000000002;stroke-dasharray:2.0,2.0;" x1="50.8" x2="360" y1="475.1422" y2="475.1422"/><text fill="#000000" font-family="sans-serif" font-size="10.4" lengthAdjust="spacing" textLength="125.6" x="60.4" y="470.932">Show List of Active Figures</text><polygon fill="#181818" points="347.2,496.975,355.2,500.175,347.2,503.375,350.4,500.175" style="stroke:#181818;stroke-width:0.8000000000000002;"/><line style="stroke:#181818;stroke-width:0.8000000000000002;" x1="46.8" x2="352" y1="500.175" y2="500.175"/><text fill="#000000" font-family="sans-serif" font-size="10.4" lengthAdjust="spacing" textLength="151.2" x="52.4" y="495.9648">Choose Figure to Decommission</text><polygon fill="#181818" points="501.6,522.0078,509.6,525.2078,501.6,528.4078,504.8,525.2078" style="stroke:#181818;stroke-width:0.8000000000000002;"/><line style="stroke:#181818;stroke-width:0.8000000000000002;" x1="364.8" x2="506.4" y1="525.2078" y2="525.2078"/><text fill="#000000" font-family="sans-serif" font-size="10.4" lengthAdjust="spacing" textLength="127.2" x="370.4" y="520.9977">decommissionFigure(figure)</text><polygon fill="#181818" points="810.4,547.0406,818.4,550.2406,810.4,553.4406,813.6,550.2406" style="stroke:#181818;stroke-width:0.8000000000000002;"/><line style="stroke:#181818;stroke-width:0.8000000000000002;" x1="519.2" x2="815.2" y1="550.2406" y2="550.2406"/><text fill="#000000" font-family="sans-serif" font-size="10.4" lengthAdjust="spacing" textLength="281.6" x="524.8" y="546.0305">ensureAuthenticatedUserHasAnyOf(Roles.CRM_MANAGER)</text><polygon fill="#181818" points="945.2,572.0734,953.2,575.2734,945.2,578.4734,948.4,575.2734" style="stroke:#181818;stroke-width:0.8000000000000002;"/><line style="stroke:#181818;stroke-width:0.8000000000000002;" x1="519.2" x2="950" y1="575.2734" y2="575.2734"/><text fill="#000000" font-family="sans-serif" font-size="10.4" lengthAdjust="spacing" textLength="127.2" x="524.8" y="571.0633">decommissionFigure(figure)</text><polygon fill="#181818" points="1155.6,597.1063,1163.6,600.3063,1155.6,603.5063,1158.8,600.3063" style="stroke:#181818;stroke-width:0.8000000000000002;"/><line style="stroke:#181818;stroke-width:0.8000000000000002;" x1="962.8" x2="1160.4" y1="600.3063" y2="600.3063"/><text fill="#000000" font-family="sans-serif" font-size="10.4" lengthAdjust="spacing" textLength="183.2" x="968.4" y="596.0961">deactivate(CurrentTimeCalendars.now())</text><polygon fill="#181818" points="1239.2,622.1391,1247.2,625.3391,1239.2,628.5391,1242.4,625.3391" style="stroke:#181818;stroke-width:0.8000000000000002;"/><line style="stroke:#181818;stroke-width:0.8000000000000002;" x1="962.8" x2="1244" y1="625.3391" y2="625.3391"/><text fill="#000000" font-family="sans-serif" font-size="10.4" lengthAdjust="spacing" textLength="52" x="968.4" y="621.1289">save(figure)</text><polygon fill="#181818" points="1363.2,647.1719,1371.2,650.3719,1363.2,653.5719,1366.4,650.3719" style="stroke:#181818;stroke-width:0.8000000000000002;"/><line style="stroke:#181818;stroke-width:0.8000000000000002;" x1="1256.8" x2="1368" y1="650.3719" y2="650.3719"/><text fill="#000000" font-family="sans-serif" font-size="10.4" lengthAdjust="spacing" textLength="27.2" x="1262.4" y="646.1617">save()</text><polygon fill="#181818" points="1265.6,658.3719,1257.6,661.5719,1265.6,664.7719,1262.4,661.5719" style="stroke:#181818;stroke-width:0.8000000000000002;"/><line style="stroke:#181818;stroke-width:0.8000000000000002;stroke-dasharray:2.0,2.0;" x1="1260.8" x2="1376" y1="661.5719" y2="661.5719"/><polygon fill="#181818" points="971.6,669.5719,963.6,672.7719,971.6,675.9719,968.4,672.7719" style="stroke:#181818;stroke-width:0.8000000000000002;"/><line style="stroke:#181818;stroke-width:0.8000000000000002;stroke-dasharray:2.0,2.0;" x1="966.8" x2="1252" y1="672.7719" y2="672.7719"/><polygon fill="#181818" points="528,680.7719,520,683.9719,528,687.1719,524.8,683.9719" style="stroke:#181818;stroke-width:0.8000000000000002;"/><line style="stroke:#181818;stroke-width:0.8000000000000002;stroke-dasharray:2.0,2.0;" x1="523.2" x2="958" y1="683.9719" y2="683.9719"/><polygon fill="#181818" points="373.6,691.9719,365.6,695.1719,373.6,698.3719,370.4,695.1719" style="stroke:#181818;stroke-width:0.8000000000000002;"/><line style="stroke:#181818;stroke-width:0.8000000000000002;stroke-dasharray:2.0,2.0;" x1="368.8" x2="514.4" y1="695.1719" y2="695.1719"/><polygon fill="#181818" points="51.6,717.0047,43.6,720.2047,51.6,723.4047,48.4,720.2047" style="stroke:#181818;stroke-width:0.8000000000000002;"/><line style="stroke:#181818;stroke-width:0.8000000000000002;stroke-dasharray:2.0,2.0;" x1="46.8" x2="360" y1="720.2047" y2="720.2047"/><text fill="#000000" font-family="sans-serif" font-size="10.4" lengthAdjust="spacing" textLength="200" x="56.4" y="715.9945">Confirms Figure has been decommissioned</text><!--SRC=[hLRRZjem47ttLups2P1sFo1Q8L5ssoALLeAYFbRUP01BYPtQXef-VSUvEkH2MArVSl7CcR7dpB6ji3725l-SK8O8Bu8VD4yOuw5L6XwMcpMikUG7r0_03IpSRvPoRKKeKYujFBnWg99462EK_2mE9uraHE-bFRt2ytEgqQ2qt7tEvxSGTglCUxUwstEffDKgZejywqz2ucaQYx0JQ76oHwN5lsnoY_eiGimNq37XeEZtDKQUGBvR2MNim_JC3IULEtd-P1wfX8iUomscoWWgqCNpgN-Ijwu-227YbhznWxIDnLlcLdva711dRh6eEiiUy3WlgXh0Bmfkm2g8l3e0XtqMcG4D7uCcMVRJZO8PXBPRpMO1X1h9h7Cw07DKVoVJR3B2QyX6cDsACQ8D-TMbdysWmczD1halvhjbYYWLNct8M9syHoi2wobkDt8vgWWztgnXxKOVXweCwb87L08PVReiiWGcLfzmsiBhoA96O9tcTHeUhIX-oPa0nWPk9L3J3cwCqX8UErV-JHWBQWzv2eM16KJrE5MbCNxvGmou8nalYNOnnfFXYjmZ4cW57k2YJ_oYDmSYUCX-7xaMp5L4KOPRwkq-40_0DNObG2xkygYKAKsT2Fc7GR5Z3Uzo3TSAGE8GjSwHIQvXFJthh-QwCarjw3m_0a1ft459axJBJlunsXdKNxbPoCkF_MIZOZHFTFh-NY- -BxwyRgQt0lKHOlJYtYTAeuGfy9WmMPwq9gEV8i4bZr56N9idwVHz-avuhndfgE3dUdqVfNatXQyCF2ns7wvsmzvTidRl4lkPTR-8tLNSHekoct56KBMbNNqgs17NboogDLdiXKwgUzcHxarlYBBHQnYn3d0Asxp2qCtgFm00]--></g></svg>