<svg xmlns="http://www.w3.org/2000/svg" xmlns:xlink="http://www.w3.org/1999/xlink" contentStyleType="text/css" height="663px" preserveAspectRatio="none" style="width:1469px;height:663px;background:#FFFFFF;" version="1.1" viewBox="0 0 1469 663" width="1469px" zoomAndPan="magnify"><title>Sequence Diagram</title><defs/><g><text fill="#000000" font-family="sans-serif" font-size="14" font-weight="bold" lengthAdjust="spacing" textLength="126.0479" x="672.5142" y="30.1074">Sequence Diagram</text><rect fill="#FFFFFF" height="429.3945" style="stroke:#181818;stroke-width:1.0;" width="10" x="50.4688" y="133.2422"/><rect fill="#FFFFFF" height="406.1035" style="stroke:#181818;stroke-width:1.0;" width="10" x="252.104" y="156.5332"/><rect fill="#FFFFFF" height="281.2793" style="stroke:#181818;stroke-width:1.0;" width="10" x="429.7793" y="250.0664"/><rect fill="#FFFFFF" height="156.4551" style="stroke:#181818;stroke-width:1.0;" width="10" x="945.2246" y="343.5996"/><rect fill="#FFFFFF" height="93.873" style="stroke:#181818;stroke-width:1.0;" width="10" x="1263.6064" y="374.8906"/><rect fill="#FFFFFF" height="31.291" style="stroke:#181818;stroke-width:1.0;" width="10" x="1429.1108" y="406.1816"/><line style="stroke:#181818;stroke-width:0.5;stroke-dasharray:5.0,5.0;" x1="55" x2="55" y1="123.2422" y2="580.6367"/><line style="stroke:#181818;stroke-width:0.5;stroke-dasharray:5.0,5.0;" x1="256.9111" x2="256.9111" y1="123.2422" y2="580.6367"/><line style="stroke:#181818;stroke-width:0.5;stroke-dasharray:5.0,5.0;" x1="434.2969" x2="434.2969" y1="205.6543" y2="580.6367"/><line style="stroke:#181818;stroke-width:0.5;stroke-dasharray:5.0,5.0;" x1="749.3809" x2="749.3809" y1="299.1875" y2="580.6367"/><line style="stroke:#181818;stroke-width:0.5;stroke-dasharray:5.0,5.0;" x1="949.7803" x2="949.7803" y1="123.2422" y2="580.6367"/><line style="stroke:#181818;stroke-width:0.5;stroke-dasharray:5.0,5.0;" x1="1124.6689" x2="1124.6689" y1="123.2422" y2="580.6367"/><line style="stroke:#181818;stroke-width:0.5;stroke-dasharray:5.0,5.0;" x1="1267.9033" x2="1267.9033" y1="123.2422" y2="580.6367"/><line style="stroke:#181818;stroke-width:0.5;stroke-dasharray:5.0,5.0;" x1="1433.1455" x2="1433.1455" y1="123.2422" y2="580.6367"/><text fill="#000000" font-family="sans-serif" font-size="14" lengthAdjust="spacing" textLength="94.9375" x="5" y="119.7285">Show Designer</text><ellipse cx="55.4688" cy="53.1211" fill="#E2E2F0" rx="8" ry="8" style="stroke:#181818;stroke-width:0.5;"/><path d="M55.4688,61.1211 L55.4688,88.1211 M42.4688,69.1211 L68.4688,69.1211 M55.4688,88.1211 L42.4688,103.1211 M55.4688,88.1211 L68.4688,103.1211 " fill="none" style="stroke:#181818;stroke-width:0.5;"/><text fill="#000000" font-family="sans-serif" font-size="14" lengthAdjust="spacing" textLength="94.9375" x="5" y="594.7441">Show Designer</text><ellipse cx="55.4688" cy="606.7578" fill="#E2E2F0" rx="8" ry="8" style="stroke:#181818;stroke-width:0.5;"/><path d="M55.4688,614.7578 L55.4688,641.7578 M42.4688,622.7578 L68.4688,622.7578 M55.4688,641.7578 L42.4688,656.7578 M55.4688,641.7578 L68.4688,656.7578 " fill="none" style="stroke:#181818;stroke-width:0.5;"/><rect fill="#E2E2F0" height="51.2422" rx="2.5" ry="2.5" style="stroke:#181818;stroke-width:0.5;" width="142.3857" x="185.9111" y="71"/><text fill="#000000" font-family="sans-serif" font-size="14" font-style="italic" lengthAdjust="spacing" textLength="92.627" x="210.7905" y="93.1074">&#171;presentation&#187;</text><text fill="#000000" font-family="sans-serif" font-size="14" lengthAdjust="spacing" textLength="128.3857" x="192.9111" y="111.7285">LisFigureCategoryUI</text><rect fill="#E2E2F0" height="51.2422" rx="2.5" ry="2.5" style="stroke:#181818;stroke-width:0.5;" width="142.3857" x="185.9111" y="579.6367"/><text fill="#000000" font-family="sans-serif" font-size="14" font-style="italic" lengthAdjust="spacing" textLength="92.627" x="210.7905" y="601.7441">&#171;presentation&#187;</text><text fill="#000000" font-family="sans-serif" font-size="14" lengthAdjust="spacing" textLength="128.3857" x="192.9111" y="620.3652">LisFigureCategoryUI</text><rect fill="#E2E2F0" height="51.2422" rx="2.5" ry="2.5" style="stroke:#181818;stroke-width:0.5;" width="192.9648" x="338.2969" y="579.6367"/><text fill="#000000" font-family="sans-serif" font-size="14" font-style="italic" lengthAdjust="spacing" textLength="82.5098" x="393.5244" y="601.7441">&#171;application&#187;</text><text fill="#000000" font-family="sans-serif" font-size="14" lengthAdjust="spacing" textLength="178.9648" x="345.2969" y="620.3652">ListFigureCategoryController</text><rect fill="#E2E2F0" height="51.2422" rx="2.5" ry="2.5" style="stroke:#181818;stroke-width:0.5;" width="142.3994" x="678.3809" y="579.6367"/><text fill="#000000" font-family="sans-serif" font-size="14" font-style="italic" lengthAdjust="spacing" textLength="42.8203" x="728.1704" y="601.7441">&#171;auth&#187;</text><text fill="#000000" font-family="sans-serif" font-size="14" lengthAdjust="spacing" textLength="128.3994" x="685.3809" y="620.3652">AuthorizationService</text><rect fill="#E2E2F0" height="51.2422" rx="2.5" ry="2.5" style="stroke:#181818;stroke-width:0.5;" width="238.8887" x="830.7803" y="71"/><text fill="#000000" font-family="sans-serif" font-size="14" font-style="italic" lengthAdjust="spacing" textLength="82.5098" x="908.9697" y="93.1074">&#171;application&#187;</text><text fill="#000000" font-family="sans-serif" font-size="14" lengthAdjust="spacing" textLength="224.8887" x="837.7803" y="111.7285">FigureCategoryManagementService</text><rect fill="#E2E2F0" height="51.2422" rx="2.5" ry="2.5" style="stroke:#181818;stroke-width:0.5;" width="238.8887" x="830.7803" y="579.6367"/><text fill="#000000" font-family="sans-serif" font-size="14" font-style="italic" lengthAdjust="spacing" textLength="82.5098" x="908.9697" y="601.7441">&#171;application&#187;</text><text fill="#000000" font-family="sans-serif" font-size="14" lengthAdjust="spacing" textLength="224.8887" x="837.7803" y="620.3652">FigureCategoryManagementService</text><rect fill="#E2E2F0" height="51.2422" rx="2.5" ry="2.5" style="stroke:#181818;stroke-width:0.5;" width="90.2344" x="1079.6689" y="71"/><text fill="#000000" font-family="sans-serif" font-size="14" font-style="italic" lengthAdjust="spacing" textLength="61.4893" x="1094.0415" y="93.1074">&#171;domain&#187;</text><text fill="#000000" font-family="sans-serif" font-size="14" lengthAdjust="spacing" textLength="76.2344" x="1086.6689" y="111.7285">SystemUser</text><rect fill="#E2E2F0" height="51.2422" rx="2.5" ry="2.5" style="stroke:#181818;stroke-width:0.5;" width="90.2344" x="1079.6689" y="579.6367"/><text fill="#000000" font-family="sans-serif" font-size="14" font-style="italic" lengthAdjust="spacing" textLength="61.4893" x="1094.0415" y="601.7441">&#171;domain&#187;</text><text fill="#000000" font-family="sans-serif" font-size="14" lengthAdjust="spacing" textLength="76.2344" x="1086.6689" y="620.3652">SystemUser</text><rect fill="#E2E2F0" height="51.2422" rx="2.5" ry="2.5" style="stroke:#181818;stroke-width:0.5;" width="177.4063" x="1179.9033" y="71"/><text fill="#000000" font-family="sans-serif" font-size="14" font-style="italic" lengthAdjust="spacing" textLength="77.041" x="1230.0859" y="93.1074">&#171;repository&#187;</text><text fill="#000000" font-family="sans-serif" font-size="14" lengthAdjust="spacing" textLength="163.4063" x="1186.9033" y="111.7285">FigureCategoryRepository</text><rect fill="#E2E2F0" height="51.2422" rx="2.5" ry="2.5" style="stroke:#181818;stroke-width:0.5;" width="177.4063" x="1179.9033" y="579.6367"/><text fill="#000000" font-family="sans-serif" font-size="14" font-style="italic" lengthAdjust="spacing" textLength="77.041" x="1230.0859" y="601.7441">&#171;repository&#187;</text><text fill="#000000" font-family="sans-serif" font-size="14" lengthAdjust="spacing" textLength="163.4063" x="1186.9033" y="620.3652">FigureCategoryRepository</text><text fill="#000000" font-family="sans-serif" font-size="14" lengthAdjust="spacing" textLength="59.9307" x="1401.1455" y="119.7285">Database</text><path d="M1416.1108,68.6211 C1416.1108,58.6211 1434.1108,58.6211 1434.1108,58.6211 C1434.1108,58.6211 1452.1108,58.6211 1452.1108,68.6211 L1452.1108,94.6211 C1452.1108,104.6211 1434.1108,104.6211 1434.1108,104.6211 C1434.1108,104.6211 1416.1108,104.6211 1416.1108,94.6211 L1416.1108,68.6211 " fill="#E2E2F0" style="stroke:#181818;stroke-width:1.5;"/><path d="M1416.1108,68.6211 C1416.1108,78.6211 1434.1108,78.6211 1434.1108,78.6211 C1434.1108,78.6211 1452.1108,78.6211 1452.1108,68.6211 " fill="none" style="stroke:#181818;stroke-width:1.5;"/><text fill="#000000" font-family="sans-serif" font-size="14" lengthAdjust="spacing" textLength="59.9307" x="1401.1455" y="594.7441">Database</text><path d="M1416.1108,608.2578 C1416.1108,598.2578 1434.1108,598.2578 1434.1108,598.2578 C1434.1108,598.2578 1452.1108,598.2578 1452.1108,608.2578 L1452.1108,634.2578 C1452.1108,644.2578 1434.1108,644.2578 1434.1108,644.2578 C1434.1108,644.2578 1416.1108,644.2578 1416.1108,634.2578 L1416.1108,608.2578 " fill="#E2E2F0" style="stroke:#181818;stroke-width:1.5;"/><path d="M1416.1108,608.2578 C1416.1108,618.2578 1434.1108,618.2578 1434.1108,618.2578 C1434.1108,618.2578 1452.1108,618.2578 1452.1108,608.2578 " fill="none" style="stroke:#181818;stroke-width:1.5;"/><rect fill="#FFFFFF" height="429.3945" style="stroke:#181818;stroke-width:1.0;" width="10" x="50.4688" y="133.2422"/><rect fill="#FFFFFF" height="406.1035" style="stroke:#181818;stroke-width:1.0;" width="10" x="252.104" y="156.5332"/><rect fill="#FFFFFF" height="281.2793" style="stroke:#181818;stroke-width:1.0;" width="10" x="429.7793" y="250.0664"/><rect fill="#FFFFFF" height="156.4551" style="stroke:#181818;stroke-width:1.0;" width="10" x="945.2246" y="343.5996"/><rect fill="#FFFFFF" height="93.873" style="stroke:#181818;stroke-width:1.0;" width="10" x="1263.6064" y="374.8906"/><rect fill="#FFFFFF" height="31.291" style="stroke:#181818;stroke-width:1.0;" width="10" x="1429.1108" y="406.1816"/><polygon fill="#181818" points="240.104,152.5332,250.104,156.5332,240.104,160.5332,244.104,156.5332" style="stroke:#181818;stroke-width:1.0;"/><line style="stroke:#181818;stroke-width:1.0;" x1="60.4688" x2="246.104" y1="156.5332" y2="156.5332"/><text fill="#000000" font-family="sans-serif" font-size="13" lengthAdjust="spacing" textLength="39.0063" x="67.4688" y="151.2705">show()</text><polygon fill="#181818" points="326.2969,183.8242,336.2969,187.8242,326.2969,191.8242,330.2969,187.8242" style="stroke:#181818;stroke-width:1.0;"/><line style="stroke:#181818;stroke-width:1.0;" x1="262.104" x2="332.2969" y1="187.8242" y2="187.8242"/><text fill="#000000" font-family="sans-serif" font-size="13" lengthAdjust="spacing" textLength="44.7891" x="269.104" y="182.5615">create()</text><rect fill="#E2E2F0" height="51.2422" rx="2.5" ry="2.5" style="stroke:#181818;stroke-width:0.5;" width="192.9648" x="338.2969" y="164.5332"/><text fill="#000000" font-family="sans-serif" font-size="14" font-style="italic" lengthAdjust="spacing" textLength="82.5098" x="393.5244" y="186.6406">&#171;application&#187;</text><text fill="#000000" font-family="sans-serif" font-size="14" lengthAdjust="spacing" textLength="178.9648" x="345.2969" y="205.2617">ListFigureCategoryController</text><polygon fill="#181818" points="417.7793,246.0664,427.7793,250.0664,417.7793,254.0664,421.7793,250.0664" style="stroke:#181818;stroke-width:1.0;"/><line style="stroke:#181818;stroke-width:1.0;" x1="262.104" x2="423.7793" y1="250.0664" y2="250.0664"/><text fill="#000000" font-family="sans-serif" font-size="13" lengthAdjust="spacing" textLength="111.2617" x="269.104" y="244.8037">allFigureCategory()</text><polygon fill="#181818" points="666.3809,277.3574,676.3809,281.3574,666.3809,285.3574,670.3809,281.3574" style="stroke:#181818;stroke-width:1.0;"/><line style="stroke:#181818;stroke-width:1.0;" x1="439.7793" x2="672.3809" y1="281.3574" y2="281.3574"/><text fill="#000000" font-family="sans-serif" font-size="13" lengthAdjust="spacing" textLength="214.6016" x="446.7793" y="276.0947">ensureAuthenticatedUserHasAnyOf()</text><rect fill="#E2E2F0" height="51.2422" rx="2.5" ry="2.5" style="stroke:#181818;stroke-width:0.5;" width="142.3994" x="678.3809" y="258.0664"/><text fill="#000000" font-family="sans-serif" font-size="14" font-style="italic" lengthAdjust="spacing" textLength="42.8203" x="728.1704" y="280.1738">&#171;auth&#187;</text><text fill="#000000" font-family="sans-serif" font-size="14" lengthAdjust="spacing" textLength="128.3994" x="685.3809" y="298.7949">AuthorizationService</text><polygon fill="#181818" points="933.2246,339.5996,943.2246,343.5996,933.2246,347.5996,937.2246,343.5996" style="stroke:#181818;stroke-width:1.0;"/><line style="stroke:#181818;stroke-width:1.0;" x1="439.7793" x2="939.2246" y1="343.5996" y2="343.5996"/><text fill="#000000" font-family="sans-serif" font-size="13" lengthAdjust="spacing" textLength="44.0654" x="446.7793" y="338.3369">findAll()</text><polygon fill="#181818" points="1251.6064,370.8906,1261.6064,374.8906,1251.6064,378.8906,1255.6064,374.8906" style="stroke:#181818;stroke-width:1.0;"/><line style="stroke:#181818;stroke-width:1.0;" x1="955.2246" x2="1257.6064" y1="374.8906" y2="374.8906"/><text fill="#000000" font-family="sans-serif" font-size="13" lengthAdjust="spacing" textLength="44.0654" x="962.2246" y="369.6279">findAll()</text><polygon fill="#181818" points="1417.1108,402.1816,1427.1108,406.1816,1417.1108,410.1816,1421.1108,406.1816" style="stroke:#181818;stroke-width:1.0;"/><line style="stroke:#181818;stroke-width:1.0;" x1="1273.6064" x2="1423.1108" y1="406.1816" y2="406.1816"/><text fill="#000000" font-family="sans-serif" font-size="13" lengthAdjust="spacing" textLength="44.0654" x="1280.6064" y="400.9189">findAll()</text><polygon fill="#181818" points="1284.6064,433.4727,1274.6064,437.4727,1284.6064,441.4727,1280.6064,437.4727" style="stroke:#181818;stroke-width:1.0;"/><line style="stroke:#181818;stroke-width:1.0;stroke-dasharray:2.0,2.0;" x1="1278.6064" x2="1433.1108" y1="437.4727" y2="437.4727"/><text fill="#000000" font-family="sans-serif" font-size="13" lengthAdjust="spacing" textLength="131.5044" x="1290.6064" y="432.21">List of Figure Category</text><polygon fill="#181818" points="966.2246,464.7637,956.2246,468.7637,966.2246,472.7637,962.2246,468.7637" style="stroke:#181818;stroke-width:1.0;"/><line style="stroke:#181818;stroke-width:1.0;stroke-dasharray:2.0,2.0;" x1="960.2246" x2="1267.6064" y1="468.7637" y2="468.7637"/><text fill="#000000" font-family="sans-serif" font-size="13" lengthAdjust="spacing" textLength="131.5044" x="972.2246" y="463.501">List of Figure Category</text><polygon fill="#181818" points="450.7793,496.0547,440.7793,500.0547,450.7793,504.0547,446.7793,500.0547" style="stroke:#181818;stroke-width:1.0;"/><line style="stroke:#181818;stroke-width:1.0;stroke-dasharray:2.0,2.0;" x1="444.7793" x2="949.2246" y1="500.0547" y2="500.0547"/><text fill="#000000" font-family="sans-serif" font-size="13" lengthAdjust="spacing" textLength="131.5044" x="456.7793" y="494.792">List of Figure Category</text><polygon fill="#181818" points="273.104,527.3457,263.104,531.3457,273.104,535.3457,269.104,531.3457" style="stroke:#181818;stroke-width:1.0;"/><line style="stroke:#181818;stroke-width:1.0;stroke-dasharray:2.0,2.0;" x1="267.104" x2="433.7793" y1="531.3457" y2="531.3457"/><text fill="#000000" font-family="sans-serif" font-size="13" lengthAdjust="spacing" textLength="131.5044" x="279.104" y="526.083">List of Figure Category</text><polygon fill="#181818" points="66.4688,558.6367,56.4688,562.6367,66.4688,566.6367,62.4688,562.6367" style="stroke:#181818;stroke-width:1.0;"/><line style="stroke:#181818;stroke-width:1.0;stroke-dasharray:2.0,2.0;" x1="60.4688" x2="256.104" y1="562.6367" y2="562.6367"/><text fill="#000000" font-family="sans-serif" font-size="13" lengthAdjust="spacing" textLength="167.6353" x="72.4688" y="557.374">Show List of Figure Category</text><!--SRC=[bLLHRi8m3FtFAQn-RKYxG8MG46WQqgP9Gnp0Qqs9L98k2Kpiz7DAIrfQMl1FQsm_l-OvnacN4wpfvq0g8LXAp0pkXS34QGFHUgT_OKbMPefC16XXxWEYGEDa8WjK3g9tQLzbTZ2qG4UPDgVDgapTh60wBGnPKWwTr6eswnIwTkL2AsTqdbVDWij8M1IvJ7g1vWUtqqR-bS4rcQDCwCos9-2X-EThZ3QH3rIOqPwPD-56SeP9ha_MqNvZgsyBBfUbUezI3LFwea9RoQT_wk4IWencBWuZfkZm6or1jApUolBQAQMMHuQff1Nb0rvch5yCbWVWwLa0soLlinA2jUMCeCza0Z4aXZZEwPrm39ZdRSRNg25Pb05l3VqPha_CiYyfoy0-p5huqwVKd-iRshawVMuzeNx44JrZs4gLplEyubhRXVD8lMXLUHiRe0wdeEijCYEa0e3eBUkoQemIqwdd98QH_XqUOS9WnEfCU1dyVhykG6-h3AXJ1k5Jwl9v_1Zk6PL7s3LOtLRhyU6vkdBtCBh9P62OctUeMXDZhHfjclSyOFg5uQ-utpqnb7yx3s3wZIGQ_dcJ_GC0]--></g></svg>