<?xml version="1.0" encoding="us-ascii" standalone="no"?><svg xmlns="http://www.w3.org/2000/svg" xmlns:xlink="http://www.w3.org/1999/xlink" contentStyleType="text/css" height="1111.2px" preserveAspectRatio="none" style="width:2076px;height:1111px;background:#FFFFFF;" version="1.1" viewBox="0 0 2076 1111" width="2076.8px" zoomAndPan="magnify"><defs/><g><text fill="#000000" font-family="sans-serif" font-size="11.2" font-weight="bold" lengthAdjust="spacing" textLength="105.6" x="986.6" y="24.0859">Sequence Diagram</text><rect fill="#FFFFFF" height="923.9" style="stroke:#181818;stroke-width:0.8000000000000002;" width="8" x="59.6" y="106.5938"/><rect fill="#FFFFFF" height="77.7547" style="stroke:#181818;stroke-width:0.8000000000000002;" width="8" x="316.8" y="147.0594"/><rect fill="#FFFFFF" height="225.0234" style="stroke:#181818;stroke-width:0.8000000000000002;" width="8" x="471.6" y="224.8141"/><rect fill="#FFFFFF" height="196.2625" style="stroke:#181818;stroke-width:0.8000000000000002;" width="8" x="471.6" y="474.8703"/><rect fill="#FFFFFF" height="25.0328" style="stroke:#181818;stroke-width:0.8000000000000002;" width="8" x="471.6" y="696.1656"/><rect fill="#FFFFFF" height="284.2625" style="stroke:#181818;stroke-width:0.8000000000000002;" width="8" x="471.6" y="746.2313"/><rect fill="#FFFFFF" height="125.1641" style="stroke:#181818;stroke-width:0.8000000000000002;" width="8" x="793.2" y="299.6406"/><rect fill="#FFFFFF" height="125.1641" style="stroke:#181818;stroke-width:0.8000000000000002;" width="8" x="793.2" y="499.9031"/><rect fill="#FFFFFF" height="119.8984" style="stroke:#181818;stroke-width:0.8000000000000002;" width="8" x="793.2" y="771.2641"/><rect fill="#FFFFFF" height="83.6656" style="stroke:#181818;stroke-width:0.8000000000000002;" width="8" x="793.2" y="921.7953"/><rect fill="#FFFFFF" height="83.6656" style="stroke:#181818;stroke-width:0.8000000000000002;" width="8" x="1114.8" y="796.2969"/><rect fill="#FFFFFF" height="47.4328" style="stroke:#181818;stroke-width:0.8000000000000002;" width="8" x="1316.4" y="821.3297"/><rect fill="#FFFFFF" height="11.2" style="stroke:#181818;stroke-width:0.8000000000000002;" width="8" x="1599.6" y="846.3625"/><rect fill="#FFFFFF" height="75.0984" style="stroke:#181818;stroke-width:0.8000000000000002;" width="8" x="1716.8" y="324.6734"/><rect fill="#FFFFFF" height="47.4328" style="stroke:#181818;stroke-width:0.8000000000000002;" width="8" x="1716.8" y="946.8281"/><rect fill="#FFFFFF" height="75.0984" style="stroke:#181818;stroke-width:0.8000000000000002;" width="8" x="1857.2" y="524.9359"/><rect fill="#FFFFFF" height="25.0328" style="stroke:#181818;stroke-width:0.8000000000000002;" width="8" x="2044.8" y="349.7063"/><rect fill="#FFFFFF" height="25.0328" style="stroke:#181818;stroke-width:0.8000000000000002;" width="8" x="2044.8" y="549.9688"/><rect fill="#FFFFFF" height="11.2" style="stroke:#181818;stroke-width:0.8000000000000002;" width="8" x="2044.8" y="971.8609"/><rect fill="none" height="260.4953" style="stroke:#000000;stroke-width:1.2000000000000002;" width="1644" x="8" y="637.0672"/><line style="stroke:#181818;stroke-width:0.4000000000000001;stroke-dasharray:5.0,5.0;" x1="63.2" x2="63.2" y1="98.5938" y2="1044.8938"/><line style="stroke:#181818;stroke-width:0.4000000000000001;stroke-dasharray:5.0,5.0;" x1="320.4" x2="320.4" y1="139.4906" y2="1044.8938"/><line style="stroke:#181818;stroke-width:0.4000000000000001;stroke-dasharray:5.0,5.0;" x1="475.6" x2="475.6" y1="189.2844" y2="1044.8938"/><line style="stroke:#181818;stroke-width:0.4000000000000001;stroke-dasharray:5.0,5.0;" x1="797.2" x2="797.2" y1="264.1109" y2="1044.8938"/><line style="stroke:#181818;stroke-width:0.4000000000000001;stroke-dasharray:5.0,5.0;" x1="1118.4" x2="1118.4" y1="98.5938" y2="1044.8938"/><line style="stroke:#181818;stroke-width:0.4000000000000001;stroke-dasharray:5.0,5.0;" x1="1320.4" x2="1320.4" y1="98.5938" y2="1044.8938"/><line style="stroke:#181818;stroke-width:0.4000000000000001;stroke-dasharray:5.0,5.0;" x1="1603.2" x2="1603.2" y1="98.5938" y2="1044.8938"/><line style="stroke:#181818;stroke-width:0.4000000000000001;stroke-dasharray:5.0,5.0;" x1="1720.8" x2="1720.8" y1="98.5938" y2="1044.8938"/><line style="stroke:#181818;stroke-width:0.4000000000000001;stroke-dasharray:5.0,5.0;" x1="1860.8" x2="1860.8" y1="98.5938" y2="1044.8938"/><line style="stroke:#181818;stroke-width:0.4000000000000001;stroke-dasharray:5.0,5.0;" x1="2048.4" x2="2048.4" y1="98.5938" y2="1044.8938"/><text fill="#000000" font-family="sans-serif" font-size="11.2" lengthAdjust="spacing" textLength="90.4" x="16" y="95.7828">CRM Collaborator</text><ellipse cx="63.6" cy="42.4969" fill="#E2E2F0" rx="6.4" ry="6.4" style="stroke:#181818;stroke-width:0.4000000000000001;"/><path d="M63.6,48.8969 L63.6,70.4969 M53.2,55.2969 L74,55.2969 M63.6,70.4969 L53.2,82.4969 M63.6,70.4969 L74,82.4969 " fill="none" style="stroke:#181818;stroke-width:0.4000000000000001;"/><text fill="#000000" font-family="sans-serif" font-size="11.2" lengthAdjust="spacing" textLength="90.4" x="16" y="1056.1797">CRM Collaborator</text><ellipse cx="63.6" cy="1065.7906" fill="#E2E2F0" rx="6.4" ry="6.4" style="stroke:#181818;stroke-width:0.4000000000000001;"/><path d="M63.6,1072.1906 L63.6,1093.7906 M53.2,1078.5906 L74,1078.5906 M63.6,1093.7906 L53.2,1105.7906 M63.6,1093.7906 L74,1105.7906 " fill="none" style="stroke:#181818;stroke-width:0.4000000000000001;"/><rect fill="#E2E2F0" height="40.9938" rx="2" ry="2" style="stroke:#181818;stroke-width:0.4000000000000001;" width="157.6" x="242" y="1044.0938"/><text fill="#000000" font-family="sans-serif" font-size="11.2" font-style="italic" lengthAdjust="spacing" textLength="76" x="282.8" y="1061.7797">&#171;presentation&#187;</text><text fill="#000000" font-family="sans-serif" font-size="11.2" lengthAdjust="spacing" textLength="146.4" x="247.6" y="1076.6766">AddDronesToProposalAction</text><rect fill="#E2E2F0" height="40.9938" rx="2" ry="2" style="stroke:#181818;stroke-width:0.4000000000000001;" width="136" x="407.6" y="1044.0938"/><text fill="#000000" font-family="sans-serif" font-size="11.2" font-style="italic" lengthAdjust="spacing" textLength="76" x="437.6" y="1061.7797">&#171;presentation&#187;</text><text fill="#000000" font-family="sans-serif" font-size="11.2" lengthAdjust="spacing" textLength="124.8" x="413.2" y="1076.6766">AddDronesToProposalUI</text><rect fill="#E2E2F0" height="40.9938" rx="2" ry="2" style="stroke:#181818;stroke-width:0.4000000000000001;" width="176" x="709.2" y="1044.0938"/><text fill="#000000" font-family="sans-serif" font-size="11.2" font-style="italic" lengthAdjust="spacing" textLength="67.2" x="763.6" y="1061.7797">&#171;application&#187;</text><text fill="#000000" font-family="sans-serif" font-size="11.2" lengthAdjust="spacing" textLength="164.8" x="714.8" y="1076.6766">AddDronesToProposalController</text><rect fill="#E2E2F0" height="40.9938" rx="2" ry="2" style="stroke:#181818;stroke-width:0.4000000000000001;" width="93.6" x="1072" y="56.8"/><text fill="#000000" font-family="sans-serif" font-size="11.2" font-style="italic" lengthAdjust="spacing" textLength="49.6" x="1094" y="74.4859">&#171;domain&#187;</text><text fill="#000000" font-family="sans-serif" font-size="11.2" lengthAdjust="spacing" textLength="82.4" x="1077.6" y="89.3828">ProposalService</text><rect fill="#E2E2F0" height="40.9938" rx="2" ry="2" style="stroke:#181818;stroke-width:0.4000000000000001;" width="93.6" x="1072" y="1044.0938"/><text fill="#000000" font-family="sans-serif" font-size="11.2" font-style="italic" lengthAdjust="spacing" textLength="49.6" x="1094" y="1061.7797">&#171;domain&#187;</text><text fill="#000000" font-family="sans-serif" font-size="11.2" lengthAdjust="spacing" textLength="82.4" x="1077.6" y="1076.6766">ProposalService</text><rect fill="#E2E2F0" height="40.9938" rx="2" ry="2" style="stroke:#181818;stroke-width:0.4000000000000001;" width="83.2" x="1278.8" y="56.8"/><text fill="#000000" font-family="sans-serif" font-size="11.2" font-style="italic" lengthAdjust="spacing" textLength="49.6" x="1295.6" y="74.4859">&#171;domain&#187;</text><text fill="#000000" font-family="sans-serif" font-size="11.2" lengthAdjust="spacing" textLength="72" x="1284.4" y="89.3828">ShowProposal</text><rect fill="#E2E2F0" height="40.9938" rx="2" ry="2" style="stroke:#181818;stroke-width:0.4000000000000001;" width="83.2" x="1278.8" y="1044.0938"/><text fill="#000000" font-family="sans-serif" font-size="11.2" font-style="italic" lengthAdjust="spacing" textLength="49.6" x="1295.6" y="1061.7797">&#171;domain&#187;</text><text fill="#000000" font-family="sans-serif" font-size="11.2" lengthAdjust="spacing" textLength="72" x="1284.4" y="1076.6766">ShowProposal</text><rect fill="#E2E2F0" height="40.9938" rx="2" ry="2" style="stroke:#181818;stroke-width:0.4000000000000001;" width="80.8" x="1563.2" y="56.8"/><text fill="#000000" font-family="sans-serif" font-size="11.2" font-style="italic" lengthAdjust="spacing" textLength="49.6" x="1578.8" y="74.4859">&#171;domain&#187;</text><text fill="#000000" font-family="sans-serif" font-size="11.2" lengthAdjust="spacing" textLength="69.6" x="1568.8" y="89.3828">DroneListItem</text><rect fill="#E2E2F0" height="40.9938" rx="2" ry="2" style="stroke:#181818;stroke-width:0.4000000000000001;" width="80.8" x="1563.2" y="1044.0938"/><text fill="#000000" font-family="sans-serif" font-size="11.2" font-style="italic" lengthAdjust="spacing" textLength="49.6" x="1578.8" y="1061.7797">&#171;domain&#187;</text><text fill="#000000" font-family="sans-serif" font-size="11.2" lengthAdjust="spacing" textLength="69.6" x="1568.8" y="1076.6766">DroneListItem</text><rect fill="#E2E2F0" height="40.9938" rx="2" ry="2" style="stroke:#181818;stroke-width:0.4000000000000001;" width="137.6" x="1652" y="56.8"/><text fill="#000000" font-family="sans-serif" font-size="11.2" font-style="italic" lengthAdjust="spacing" textLength="63.2" x="1689.2" y="74.4859">&#171;repository&#187;</text><text fill="#000000" font-family="sans-serif" font-size="11.2" lengthAdjust="spacing" textLength="126.4" x="1657.6" y="89.3828">ShowProposalRepository</text><rect fill="#E2E2F0" height="40.9938" rx="2" ry="2" style="stroke:#181818;stroke-width:0.4000000000000001;" width="137.6" x="1652" y="1044.0938"/><text fill="#000000" font-family="sans-serif" font-size="11.2" font-style="italic" lengthAdjust="spacing" textLength="63.2" x="1689.2" y="1061.7797">&#171;repository&#187;</text><text fill="#000000" font-family="sans-serif" font-size="11.2" lengthAdjust="spacing" textLength="126.4" x="1657.6" y="1076.6766">ShowProposalRepository</text><rect fill="#E2E2F0" height="40.9938" rx="2" ry="2" style="stroke:#181818;stroke-width:0.4000000000000001;" width="127.2" x="1797.6" y="56.8"/><text fill="#000000" font-family="sans-serif" font-size="11.2" font-style="italic" lengthAdjust="spacing" textLength="63.2" x="1829.6" y="74.4859">&#171;repository&#187;</text><text fill="#000000" font-family="sans-serif" font-size="11.2" lengthAdjust="spacing" textLength="116" x="1803.2" y="89.3828">DroneModelRepository</text><rect fill="#E2E2F0" height="40.9938" rx="2" ry="2" style="stroke:#181818;stroke-width:0.4000000000000001;" width="127.2" x="1797.6" y="1044.0938"/><text fill="#000000" font-family="sans-serif" font-size="11.2" font-style="italic" lengthAdjust="spacing" textLength="63.2" x="1829.6" y="1061.7797">&#171;repository&#187;</text><text fill="#000000" font-family="sans-serif" font-size="11.2" lengthAdjust="spacing" textLength="116" x="1803.2" y="1076.6766">DroneModelRepository</text><text fill="#000000" font-family="sans-serif" font-size="11.2" lengthAdjust="spacing" textLength="48.8" x="2022" y="95.7828">Database</text><path d="M2034.4,54.8969 C2034.4,46.8969 2048.8,46.8969 2048.8,46.8969 C2048.8,46.8969 2063.2,46.8969 2063.2,54.8969 L2063.2,75.6969 C2063.2,83.6969 2048.8,83.6969 2048.8,83.6969 C2048.8,83.6969 2034.4,83.6969 2034.4,75.6969 L2034.4,54.8969 " fill="#E2E2F0" style="stroke:#181818;stroke-width:1.2000000000000002;"/><path d="M2034.4,54.8969 C2034.4,62.8969 2048.8,62.8969 2048.8,62.8969 C2048.8,62.8969 2063.2,62.8969 2063.2,54.8969 " fill="none" style="stroke:#181818;stroke-width:1.2000000000000002;"/><text fill="#000000" font-family="sans-serif" font-size="11.2" lengthAdjust="spacing" textLength="48.8" x="2022" y="1056.1797">Database</text><path d="M2034.4,1066.9906 C2034.4,1058.9906 2048.8,1058.9906 2048.8,1058.9906 C2048.8,1058.9906 2063.2,1058.9906 2063.2,1066.9906 L2063.2,1087.7906 C2063.2,1095.7906 2048.8,1095.7906 2048.8,1095.7906 C2048.8,1095.7906 2034.4,1095.7906 2034.4,1087.7906 L2034.4,1066.9906 " fill="#E2E2F0" style="stroke:#181818;stroke-width:1.2000000000000002;"/><path d="M2034.4,1066.9906 C2034.4,1074.9906 2048.8,1074.9906 2048.8,1074.9906 C2048.8,1074.9906 2063.2,1074.9906 2063.2,1066.9906 " fill="none" style="stroke:#181818;stroke-width:1.2000000000000002;"/><rect fill="#FFFFFF" height="923.9" style="stroke:#181818;stroke-width:0.8000000000000002;" width="8" x="59.6" y="106.5938"/><rect fill="#FFFFFF" height="77.7547" style="stroke:#181818;stroke-width:0.8000000000000002;" width="8" x="316.8" y="147.0594"/><rect fill="#FFFFFF" height="225.0234" style="stroke:#181818;stroke-width:0.8000000000000002;" width="8" x="471.6" y="224.8141"/><rect fill="#FFFFFF" height="196.2625" style="stroke:#181818;stroke-width:0.8000000000000002;" width="8" x="471.6" y="474.8703"/><rect fill="#FFFFFF" height="25.0328" style="stroke:#181818;stroke-width:0.8000000000000002;" width="8" x="471.6" y="696.1656"/><rect fill="#FFFFFF" height="284.2625" style="stroke:#181818;stroke-width:0.8000000000000002;" width="8" x="471.6" y="746.2313"/><rect fill="#FFFFFF" height="125.1641" style="stroke:#181818;stroke-width:0.8000000000000002;" width="8" x="793.2" y="299.6406"/><rect fill="#FFFFFF" height="125.1641" style="stroke:#181818;stroke-width:0.8000000000000002;" width="8" x="793.2" y="499.9031"/><rect fill="#FFFFFF" height="119.8984" style="stroke:#181818;stroke-width:0.8000000000000002;" width="8" x="793.2" y="771.2641"/><rect fill="#FFFFFF" height="83.6656" style="stroke:#181818;stroke-width:0.8000000000000002;" width="8" x="793.2" y="921.7953"/><rect fill="#FFFFFF" height="83.6656" style="stroke:#181818;stroke-width:0.8000000000000002;" width="8" x="1114.8" y="796.2969"/><rect fill="#FFFFFF" height="47.4328" style="stroke:#181818;stroke-width:0.8000000000000002;" width="8" x="1316.4" y="821.3297"/><rect fill="#FFFFFF" height="11.2" style="stroke:#181818;stroke-width:0.8000000000000002;" width="8" x="1599.6" y="846.3625"/><rect fill="#FFFFFF" height="75.0984" style="stroke:#181818;stroke-width:0.8000000000000002;" width="8" x="1716.8" y="324.6734"/><rect fill="#FFFFFF" height="47.4328" style="stroke:#181818;stroke-width:0.8000000000000002;" width="8" x="1716.8" y="946.8281"/><rect fill="#FFFFFF" height="75.0984" style="stroke:#181818;stroke-width:0.8000000000000002;" width="8" x="1857.2" y="524.9359"/><rect fill="#FFFFFF" height="25.0328" style="stroke:#181818;stroke-width:0.8000000000000002;" width="8" x="2044.8" y="349.7063"/><rect fill="#FFFFFF" height="25.0328" style="stroke:#181818;stroke-width:0.8000000000000002;" width="8" x="2044.8" y="549.9688"/><rect fill="#FFFFFF" height="11.2" style="stroke:#181818;stroke-width:0.8000000000000002;" width="8" x="2044.8" y="971.8609"/><polygon fill="#181818" points="232.4,135.8594,240.4,139.0594,232.4,142.2594,235.6,139.0594" style="stroke:#181818;stroke-width:0.8000000000000002;"/><line style="stroke:#181818;stroke-width:0.8000000000000002;" x1="67.6" x2="237.2" y1="139.0594" y2="139.0594"/><text fill="#000000" font-family="sans-serif" font-size="10.4" lengthAdjust="spacing" textLength="132.8" x="73.2" y="121.0164">Wants to configure the list of</text><text fill="#000000" font-family="sans-serif" font-size="10.4" lengthAdjust="spacing" textLength="152" x="76.4" y="134.8492">drone models of a show proposal</text><rect fill="#E2E2F0" height="40.9938" rx="2" ry="2" style="stroke:#181818;stroke-width:0.4000000000000001;" width="157.6" x="242" y="106.5938"/><text fill="#000000" font-family="sans-serif" font-size="11.2" font-style="italic" lengthAdjust="spacing" textLength="76" x="282.8" y="124.2797">&#171;presentation&#187;</text><text fill="#000000" font-family="sans-serif" font-size="11.2" lengthAdjust="spacing" textLength="146.4" x="247.6" y="139.1766">AddDronesToProposalAction</text><polygon fill="#181818" points="398,171.8203,406,175.0203,398,178.2203,401.2,175.0203" style="stroke:#181818;stroke-width:0.8000000000000002;"/><line style="stroke:#181818;stroke-width:0.8000000000000002;" x1="324.8" x2="402.8" y1="175.0203" y2="175.0203"/><text fill="#000000" font-family="sans-serif" font-size="10.4" lengthAdjust="spacing" textLength="28.8" x="330.4" y="170.8102">create</text><rect fill="#E2E2F0" height="40.9938" rx="2" ry="2" style="stroke:#181818;stroke-width:0.4000000000000001;" width="136" x="407.6" y="156.3875"/><text fill="#000000" font-family="sans-serif" font-size="11.2" font-style="italic" lengthAdjust="spacing" textLength="76" x="437.6" y="174.0734">&#171;presentation&#187;</text><text fill="#000000" font-family="sans-serif" font-size="11.2" lengthAdjust="spacing" textLength="124.8" x="413.2" y="188.9703">AddDronesToProposalUI</text><polygon fill="#181818" points="462,221.6141,470,224.8141,462,228.0141,465.2,224.8141" style="stroke:#181818;stroke-width:0.8000000000000002;"/><line style="stroke:#181818;stroke-width:0.8000000000000002;" x1="320.8" x2="466.8" y1="224.8141" y2="224.8141"/><text fill="#000000" font-family="sans-serif" font-size="10.4" lengthAdjust="spacing" textLength="30.4" x="326.4" y="220.6039">show()</text><polygon fill="#181818" points="699.6,246.6469,707.6,249.8469,699.6,253.0469,702.8,249.8469" style="stroke:#181818;stroke-width:0.8000000000000002;"/><line style="stroke:#181818;stroke-width:0.8000000000000002;" x1="479.6" x2="704.4" y1="249.8469" y2="249.8469"/><text fill="#000000" font-family="sans-serif" font-size="10.4" lengthAdjust="spacing" textLength="28.8" x="485.2" y="245.6367">create</text><rect fill="#E2E2F0" height="40.9938" rx="2" ry="2" style="stroke:#181818;stroke-width:0.4000000000000001;" width="176" x="709.2" y="231.2141"/><text fill="#000000" font-family="sans-serif" font-size="11.2" font-style="italic" lengthAdjust="spacing" textLength="67.2" x="763.6" y="248.9">&#171;application&#187;</text><text fill="#000000" font-family="sans-serif" font-size="11.2" lengthAdjust="spacing" textLength="164.8" x="714.8" y="263.7969">AddDronesToProposalController</text><polygon fill="#181818" points="783.6,296.4406,791.6,299.6406,783.6,302.8406,786.8,299.6406" style="stroke:#181818;stroke-width:0.8000000000000002;"/><line style="stroke:#181818;stroke-width:0.8000000000000002;" x1="479.6" x2="788.4" y1="299.6406" y2="299.6406"/><text fill="#000000" font-family="sans-serif" font-size="10.4" lengthAdjust="spacing" textLength="109.6" x="485.2" y="295.4305">getListShowProposals()</text><polygon fill="#181818" points="1707.2,321.4734,1715.2,324.6734,1707.2,327.8734,1710.4,324.6734" style="stroke:#181818;stroke-width:0.8000000000000002;"/><line style="stroke:#181818;stroke-width:0.8000000000000002;" x1="801.2" x2="1712" y1="324.6734" y2="324.6734"/><text fill="#000000" font-family="sans-serif" font-size="10.4" lengthAdjust="spacing" textLength="304.8" x="806.8" y="320.4633">findByStatusAndEmptyDroneList(ShowProposalStatus.PENDING)</text><polygon fill="#181818" points="2035.2,346.5063,2043.2,349.7063,2035.2,352.9063,2038.4,349.7063" style="stroke:#181818;stroke-width:0.8000000000000002;"/><line style="stroke:#181818;stroke-width:0.8000000000000002;" x1="1724.8" x2="2040" y1="349.7063" y2="349.7063"/><text fill="#000000" font-family="sans-serif" font-size="10.4" lengthAdjust="spacing" textLength="304.8" x="1730.4" y="345.4961">findByStatusAndEmptyDroneList(ShowProposalStatus.PENDING)</text><polygon fill="#181818" points="1733.6,371.5391,1725.6,374.7391,1733.6,377.9391,1730.4,374.7391" style="stroke:#181818;stroke-width:0.8000000000000002;"/><line style="stroke:#181818;stroke-width:0.8000000000000002;stroke-dasharray:2.0,2.0;" x1="1728.8" x2="2048" y1="374.7391" y2="374.7391"/><text fill="#000000" font-family="sans-serif" font-size="10.4" lengthAdjust="spacing" textLength="106.4" x="1738.4" y="370.5289">List of Show Proposals</text><polygon fill="#181818" points="810,396.5719,802,399.7719,810,402.9719,806.8,399.7719" style="stroke:#181818;stroke-width:0.8000000000000002;"/><line style="stroke:#181818;stroke-width:0.8000000000000002;stroke-dasharray:2.0,2.0;" x1="805.2" x2="1720" y1="399.7719" y2="399.7719"/><text fill="#000000" font-family="sans-serif" font-size="10.4" lengthAdjust="spacing" textLength="106.4" x="814.8" y="395.5617">List of Show Proposals</text><polygon fill="#181818" points="488.4,421.6047,480.4,424.8047,488.4,428.0047,485.2,424.8047" style="stroke:#181818;stroke-width:0.8000000000000002;"/><line style="stroke:#181818;stroke-width:0.8000000000000002;stroke-dasharray:2.0,2.0;" x1="483.6" x2="796.4" y1="424.8047" y2="424.8047"/><text fill="#000000" font-family="sans-serif" font-size="10.4" lengthAdjust="spacing" textLength="106.4" x="493.2" y="420.5945">List of Show Proposals</text><polygon fill="#181818" points="76.4,446.6375,68.4,449.8375,76.4,453.0375,73.2,449.8375" style="stroke:#181818;stroke-width:0.8000000000000002;"/><line style="stroke:#181818;stroke-width:0.8000000000000002;stroke-dasharray:2.0,2.0;" x1="71.6" x2="474.8" y1="449.8375" y2="449.8375"/><text fill="#000000" font-family="sans-serif" font-size="10.4" lengthAdjust="spacing" textLength="128.8" x="81.2" y="445.6273">Show list of show proposals</text><polygon fill="#181818" points="462,471.6703,470,474.8703,462,478.0703,465.2,474.8703" style="stroke:#181818;stroke-width:0.8000000000000002;"/><line style="stroke:#181818;stroke-width:0.8000000000000002;" x1="67.6" x2="466.8" y1="474.8703" y2="474.8703"/><text fill="#000000" font-family="sans-serif" font-size="10.4" lengthAdjust="spacing" textLength="104.8" x="73.2" y="470.6602">Choose show proposal</text><polygon fill="#181818" points="783.6,496.7031,791.6,499.9031,783.6,503.1031,786.8,499.9031" style="stroke:#181818;stroke-width:0.8000000000000002;"/><line style="stroke:#181818;stroke-width:0.8000000000000002;" x1="479.6" x2="788.4" y1="499.9031" y2="499.9031"/><text fill="#000000" font-family="sans-serif" font-size="10.4" lengthAdjust="spacing" textLength="98.4" x="485.2" y="495.693">getListDroneModels()</text><polygon fill="#181818" points="1847.6,521.7359,1855.6,524.9359,1847.6,528.1359,1850.8,524.9359" style="stroke:#181818;stroke-width:0.8000000000000002;"/><line style="stroke:#181818;stroke-width:0.8000000000000002;" x1="801.2" x2="1852.4" y1="524.9359" y2="524.9359"/><text fill="#000000" font-family="sans-serif" font-size="10.4" lengthAdjust="spacing" textLength="80.8" x="806.8" y="520.7258">findByActive(true)</text><polygon fill="#181818" points="2035.2,546.7688,2043.2,549.9688,2035.2,553.1688,2038.4,549.9688" style="stroke:#181818;stroke-width:0.8000000000000002;"/><line style="stroke:#181818;stroke-width:0.8000000000000002;" x1="1865.2" x2="2040" y1="549.9688" y2="549.9688"/><text fill="#000000" font-family="sans-serif" font-size="10.4" lengthAdjust="spacing" textLength="80.8" x="1870.8" y="545.7586">findByActive(true)</text><polygon fill="#181818" points="1874,571.8016,1866,575.0016,1874,578.2016,1870.8,575.0016" style="stroke:#181818;stroke-width:0.8000000000000002;"/><line style="stroke:#181818;stroke-width:0.8000000000000002;stroke-dasharray:2.0,2.0;" x1="1869.2" x2="2048" y1="575.0016" y2="575.0016"/><text fill="#000000" font-family="sans-serif" font-size="10.4" lengthAdjust="spacing" textLength="126.4" x="1878.8" y="570.7914">List of Active Drone Models</text><polygon fill="#181818" points="810,596.8344,802,600.0344,810,603.2344,806.8,600.0344" style="stroke:#181818;stroke-width:0.8000000000000002;"/><line style="stroke:#181818;stroke-width:0.8000000000000002;stroke-dasharray:2.0,2.0;" x1="805.2" x2="1860.4" y1="600.0344" y2="600.0344"/><text fill="#000000" font-family="sans-serif" font-size="10.4" lengthAdjust="spacing" textLength="126.4" x="814.8" y="595.8242">List of Active Drone Models</text><polygon fill="#181818" points="488.4,621.8672,480.4,625.0672,488.4,628.2672,485.2,625.0672" style="stroke:#181818;stroke-width:0.8000000000000002;"/><line style="stroke:#181818;stroke-width:0.8000000000000002;stroke-dasharray:2.0,2.0;" x1="483.6" x2="796.4" y1="625.0672" y2="625.0672"/><text fill="#000000" font-family="sans-serif" font-size="10.4" lengthAdjust="spacing" textLength="126.4" x="493.2" y="620.857">List of Active Drone Models</text><path d="M8,637.0672 L66.4,637.0672 L66.4,644.5 L58.4,652.5 L8,652.5 L8,637.0672 " fill="#EEEEEE" style="stroke:#000000;stroke-width:1.2000000000000002;"/><rect fill="none" height="260.4953" style="stroke:#000000;stroke-width:1.2000000000000002;" width="1644" x="8" y="637.0672"/><text fill="#000000" font-family="sans-serif" font-size="10.4" font-weight="bold" lengthAdjust="spacing" textLength="22.4" x="20" y="649.0898">loop</text><text fill="#000000" font-family="sans-serif" font-size="8.8" font-weight="bold" lengthAdjust="spacing" textLength="176.8" x="78.4" y="648.1633">[While user wants to add drone Models]</text><polygon fill="#181818" points="76.4,667.9328,68.4,671.1328,76.4,674.3328,73.2,671.1328" style="stroke:#181818;stroke-width:0.8000000000000002;"/><line style="stroke:#181818;stroke-width:0.8000000000000002;stroke-dasharray:2.0,2.0;" x1="71.6" x2="474.8" y1="671.1328" y2="671.1328"/><text fill="#000000" font-family="sans-serif" font-size="10.4" lengthAdjust="spacing" textLength="119.2" x="81.2" y="666.9227">Show list of drone models</text><polygon fill="#181818" points="462,692.9656,470,696.1656,462,699.3656,465.2,696.1656" style="stroke:#181818;stroke-width:0.8000000000000002;"/><line style="stroke:#181818;stroke-width:0.8000000000000002;" x1="67.6" x2="466.8" y1="696.1656" y2="696.1656"/><text fill="#000000" font-family="sans-serif" font-size="10.4" lengthAdjust="spacing" textLength="95.2" x="73.2" y="691.9555">Choose drone model</text><polygon fill="#181818" points="76.4,717.9984,68.4,721.1984,76.4,724.3984,73.2,721.1984" style="stroke:#181818;stroke-width:0.8000000000000002;"/><line style="stroke:#181818;stroke-width:0.8000000000000002;stroke-dasharray:2.0,2.0;" x1="71.6" x2="474.8" y1="721.1984" y2="721.1984"/><text fill="#000000" font-family="sans-serif" font-size="10.4" lengthAdjust="spacing" textLength="121.6" x="81.2" y="716.9883">Request number of drones</text><polygon fill="#181818" points="462,743.0313,470,746.2313,462,749.4313,465.2,746.2313" style="stroke:#181818;stroke-width:0.8000000000000002;"/><line style="stroke:#181818;stroke-width:0.8000000000000002;" x1="67.6" x2="466.8" y1="746.2313" y2="746.2313"/><text fill="#000000" font-family="sans-serif" font-size="10.4" lengthAdjust="spacing" textLength="116.8" x="73.2" y="742.0211">Provide number of drones</text><polygon fill="#181818" points="783.6,768.0641,791.6,771.2641,783.6,774.4641,786.8,771.2641" style="stroke:#181818;stroke-width:0.8000000000000002;"/><line style="stroke:#181818;stroke-width:0.8000000000000002;" x1="479.6" x2="788.4" y1="771.2641" y2="771.2641"/><text fill="#000000" font-family="sans-serif" font-size="10.4" lengthAdjust="spacing" textLength="298.4" x="485.2" y="767.0539">addDroneModelToProposal(showProposal ,droneModel, quantity)</text><polygon fill="#181818" points="1105.2,793.0969,1113.2,796.2969,1105.2,799.4969,1108.4,796.2969" style="stroke:#181818;stroke-width:0.8000000000000002;"/><line style="stroke:#181818;stroke-width:0.8000000000000002;" x1="801.2" x2="1110" y1="796.2969" y2="796.2969"/><text fill="#000000" font-family="sans-serif" font-size="10.4" lengthAdjust="spacing" textLength="298.4" x="806.8" y="792.0867">addDroneModelToProposal(showProposal, droneModel, quantity)</text><polygon fill="#181818" points="1306.8,818.1297,1314.8,821.3297,1306.8,824.5297,1310,821.3297" style="stroke:#181818;stroke-width:0.8000000000000002;"/><line style="stroke:#181818;stroke-width:0.8000000000000002;" x1="1122.8" x2="1311.6" y1="821.3297" y2="821.3297"/><text fill="#000000" font-family="sans-serif" font-size="10.4" lengthAdjust="spacing" textLength="178.4" x="1128.4" y="817.1195">addDroneToList( droneModel, quantity)</text><polygon fill="#181818" points="1590,843.1625,1598,846.3625,1590,849.5625,1593.2,846.3625" style="stroke:#181818;stroke-width:0.8000000000000002;"/><line style="stroke:#181818;stroke-width:0.8000000000000002;" x1="1324.4" x2="1594.8" y1="846.3625" y2="846.3625"/><text fill="#000000" font-family="sans-serif" font-size="10.4" lengthAdjust="spacing" textLength="260" x="1330" y="842.1523">new DroneListItem(droneModel, showProposal, quantity)</text><polygon fill="#181818" points="1333.2,854.3625,1325.2,857.5625,1333.2,860.7625,1330,857.5625" style="stroke:#181818;stroke-width:0.8000000000000002;"/><line style="stroke:#181818;stroke-width:0.8000000000000002;stroke-dasharray:2.0,2.0;" x1="1328.4" x2="1602.8" y1="857.5625" y2="857.5625"/><polygon fill="#181818" points="1131.6,865.5625,1123.6,868.7625,1131.6,871.9625,1128.4,868.7625" style="stroke:#181818;stroke-width:0.8000000000000002;"/><line style="stroke:#181818;stroke-width:0.8000000000000002;stroke-dasharray:2.0,2.0;" x1="1126.8" x2="1319.6" y1="868.7625" y2="868.7625"/><polygon fill="#181818" points="810,876.7625,802,879.9625,810,883.1625,806.8,879.9625" style="stroke:#181818;stroke-width:0.8000000000000002;"/><line style="stroke:#181818;stroke-width:0.8000000000000002;stroke-dasharray:2.0,2.0;" x1="805.2" x2="1118" y1="879.9625" y2="879.9625"/><polygon fill="#181818" points="488.4,887.9625,480.4,891.1625,488.4,894.3625,485.2,891.1625" style="stroke:#181818;stroke-width:0.8000000000000002;"/><line style="stroke:#181818;stroke-width:0.8000000000000002;stroke-dasharray:2.0,2.0;" x1="483.6" x2="796.4" y1="891.1625" y2="891.1625"/><polygon fill="#181818" points="783.6,918.5953,791.6,921.7953,783.6,924.9953,786.8,921.7953" style="stroke:#181818;stroke-width:0.8000000000000002;"/><line style="stroke:#181818;stroke-width:0.8000000000000002;" x1="479.6" x2="788.4" y1="921.7953" y2="921.7953"/><text fill="#000000" font-family="sans-serif" font-size="10.4" lengthAdjust="spacing" textLength="92" x="485.2" y="917.5852">save(showProposal)</text><polygon fill="#181818" points="1707.2,943.6281,1715.2,946.8281,1707.2,950.0281,1710.4,946.8281" style="stroke:#181818;stroke-width:0.8000000000000002;"/><line style="stroke:#181818;stroke-width:0.8000000000000002;" x1="801.2" x2="1712" y1="946.8281" y2="946.8281"/><text fill="#000000" font-family="sans-serif" font-size="10.4" lengthAdjust="spacing" textLength="92" x="806.8" y="942.618">save(showProposal)</text><polygon fill="#181818" points="2035.2,968.6609,2043.2,971.8609,2035.2,975.0609,2038.4,971.8609" style="stroke:#181818;stroke-width:0.8000000000000002;"/><line style="stroke:#181818;stroke-width:0.8000000000000002;" x1="1724.8" x2="2040" y1="971.8609" y2="971.8609"/><text fill="#000000" font-family="sans-serif" font-size="10.4" lengthAdjust="spacing" textLength="92" x="1730.4" y="967.6508">save(showProposal)</text><polygon fill="#181818" points="1733.6,979.8609,1725.6,983.0609,1733.6,986.2609,1730.4,983.0609" style="stroke:#181818;stroke-width:0.8000000000000002;"/><line style="stroke:#181818;stroke-width:0.8000000000000002;stroke-dasharray:2.0,2.0;" x1="1728.8" x2="2048" y1="983.0609" y2="983.0609"/><polygon fill="#181818" points="810,991.0609,802,994.2609,810,997.4609,806.8,994.2609" style="stroke:#181818;stroke-width:0.8000000000000002;"/><line style="stroke:#181818;stroke-width:0.8000000000000002;stroke-dasharray:2.0,2.0;" x1="805.2" x2="1720" y1="994.2609" y2="994.2609"/><polygon fill="#181818" points="488.4,1002.2609,480.4,1005.4609,488.4,1008.6609,485.2,1005.4609" style="stroke:#181818;stroke-width:0.8000000000000002;"/><line style="stroke:#181818;stroke-width:0.8000000000000002;stroke-dasharray:2.0,2.0;" x1="483.6" x2="796.4" y1="1005.4609" y2="1005.4609"/><polygon fill="#181818" points="72.4,1027.2938,64.4,1030.4938,72.4,1033.6938,69.2,1030.4938" style="stroke:#181818;stroke-width:0.8000000000000002;"/><line style="stroke:#181818;stroke-width:0.8000000000000002;stroke-dasharray:2.0,2.0;" x1="67.6" x2="474.8" y1="1030.4938" y2="1030.4938"/><text fill="#000000" font-family="sans-serif" font-size="10.4" lengthAdjust="spacing" textLength="163.2" x="77.2" y="1026.2836">Confirm if operation was successful</text><!--SRC=[fLTDR-CW4BtxLunwIg9sVq1KLUecrIfIMrLDerxsGctI8Dd61Pmg_tu7R6omyKUrliG6vhs1USDC55CfXJtzAcaUKzWoyYb85aKaLbp0rURr2JOyJSa75mH7he18kDTpKK64OZ4hIAxWwZv9jeBdLBxn5y4BBacAgnZFhG6-mkrj8QYakIBwy-vk4kAmC-Q7tSzDDpnN0XsdbSlj9qAHeaXP74IovdigpYocnhOpXW09pmZhsUvF_DkkDORkmA2LSVoHIRLJD3DctiWijbUAFmo3SkdnjbE899gFe1TFFA5ThD145oaXYdmGIH6cVgjCwmyZ9dOcYjRAYSmFtDpLmbYjrl2ERaXG76AU7zbdAIYe4uKKZm7uyMyEYNO4Cks9n14W876RKDJxz4aGrB1erI7DORTQmHfYGN7U6ryRbCKoYXBQ1G1ych73BefGXsZKIia5xSwjuPCg7KGt658JUR2jGJMX7qUh21aEvXgEB4z-N_QO4AMypvE7h52NHZaBrwfQy-lbuNcxU_wpR8aQBy8SxS81GQ5tDiR_uq_FdLOuTigEmCt8YJnMMZ7pJTBA1iC9S4CmjS5EIESp39neACIr3aUm7LnNBrfoLGvnzCtOrUdYfuPqjQrrtAIVvjsSECU3xIHJN_pMzK6XjpU5bdalg26bzzKUkcwijdHQdkb2YP8kFOWshW7hA8fyGgEdqAqMaFCWvOHUWxeDxyt6lQAg5a5rZ3suCGcFRsr0o25IVnSkPUXqPoXwR6S3qjPJAUS5l9yOjYUbHDXlMo58ajJLm7fiTJcG3Mxfw2QKbNOe9noxS3xudA-wYKB6lCm-q5zBF8yIC_xC4Xes3XBx4ILr2sIEf6s35jBjGQwJPiarV9Lue4nTbZ-jI9r-Q1xtDGnpU_mTzDQ9RXlMgGIj6s_Sb9ovX2v8kEGr5vDjojQGqsz_QE6o-HiVuVOWd7BdTO3TcXSDvMOVoDz5FtPJfMluy3tvXM12JBrBOgIywHcQ9mDobmIlPVUO9rGyhwUQGXtha-RqI5FuVY6PqVH4OrLXLbCJpMzSVXez_tRSwBvUPC2Em0igpByllDCbo3AEgPJ7CWrSb7vNZlyT_W40]--></g></svg>