<?xml version="1.0" encoding="us-ascii" standalone="no"?><svg xmlns="http://www.w3.org/2000/svg" xmlns:xlink="http://www.w3.org/1999/xlink" contentStyleType="text/css" height="1453.9px" preserveAspectRatio="none" style="width:2114px;height:1453px;background:#FFFFFF;" version="1.1" viewBox="0 0 2114 1453" width="2114.7px" zoomAndPan="magnify"><defs/><g><text fill="#000000" font-family="sans-serif" font-size="9.8" font-weight="bold" lengthAdjust="spacing" textLength="92.4" x="1012.375" y="21.0752">Sequence Diagram</text><rect fill="#FFFFFF" height="1290.2941" style="stroke:#181818;stroke-width:0.6999999999999998;" width="7" x="52.15" y="93.2695"/><rect fill="#FFFFFF" height="68.0354" style="stroke:#181818;stroke-width:0.6999999999999998;" width="7" x="277.2" y="128.677"/><rect fill="#FFFFFF" height="240.7029" style="stroke:#181818;stroke-width:0.6999999999999998;" width="7" x="412.65" y="196.7123"/><rect fill="#FFFFFF" height="215.5371" style="stroke:#181818;stroke-width:0.6999999999999998;" width="7" x="412.65" y="459.3189"/><rect fill="#FFFFFF" height="21.9037" style="stroke:#181818;stroke-width:0.6999999999999998;" width="7" x="412.65" y="696.7598"/><rect fill="#FFFFFF" height="642.9965" style="stroke:#181818;stroke-width:0.6999999999999998;" width="7" x="412.65" y="740.5672"/><rect fill="#FFFFFF" height="153.326" style="stroke:#181818;stroke-width:0.6999999999999998;" width="7" x="730.45" y="262.1855"/><rect fill="#FFFFFF" height="153.326" style="stroke:#181818;stroke-width:0.6999999999999998;" width="7" x="730.45" y="481.2227"/><rect fill="#FFFFFF" height="367.7557" style="stroke:#181818;stroke-width:0.6999999999999998;" width="7" x="730.45" y="762.4709"/><rect fill="#FFFFFF" height="204.6297" style="stroke:#181818;stroke-width:0.6999999999999998;" width="7" x="730.45" y="1157.0303"/><rect fill="#FFFFFF" height="73.2074" style="stroke:#181818;stroke-width:0.6999999999999998;" width="7" x="1011.85" y="1047.2191"/><rect fill="#FFFFFF" height="41.5037" style="stroke:#181818;stroke-width:0.6999999999999998;" width="7" x="1188.25" y="1069.1229"/><rect fill="#FFFFFF" height="9.8" style="stroke:#181818;stroke-width:0.6999999999999998;" width="7" x="1436.05" y="1091.0266"/><rect fill="#FFFFFF" height="21.9037" style="stroke:#181818;stroke-width:0.6999999999999998;" width="7" x="1540" y="371.7041"/><rect fill="#FFFFFF" height="109.5186" style="stroke:#181818;stroke-width:0.6999999999999998;" width="7" x="1540" y="915.7969"/><rect fill="#FFFFFF" height="109.5186" style="stroke:#181818;stroke-width:0.6999999999999998;" width="7" x="1540" y="1178.934"/><rect fill="#FFFFFF" height="21.9037" style="stroke:#181818;stroke-width:0.6999999999999998;" width="7" x="1665.65" y="590.7412"/><rect fill="#FFFFFF" height="109.5186" style="stroke:#181818;stroke-width:0.6999999999999998;" width="7" x="1665.65" y="784.3746"/><rect fill="#FFFFFF" height="65.7111" style="stroke:#181818;stroke-width:0.6999999999999998;" width="7" x="1789.9" y="284.0893"/><rect fill="#FFFFFF" height="65.7111" style="stroke:#181818;stroke-width:0.6999999999999998;" width="7" x="1789.9" y="937.7006"/><rect fill="#FFFFFF" height="65.7111" style="stroke:#181818;stroke-width:0.6999999999999998;" width="7" x="1789.9" y="1200.8377"/><rect fill="#FFFFFF" height="41.5037" style="stroke:#181818;stroke-width:0.6999999999999998;" width="7" x="1789.9" y="1310.3562"/><rect fill="#FFFFFF" height="65.7111" style="stroke:#181818;stroke-width:0.6999999999999998;" width="7" x="1912.75" y="503.1264"/><rect fill="#FFFFFF" height="65.7111" style="stroke:#181818;stroke-width:0.6999999999999998;" width="7" x="1912.75" y="806.2783"/><rect fill="#FFFFFF" height="21.9037" style="stroke:#181818;stroke-width:0.6999999999999998;" width="7" x="2076.9" y="305.993"/><rect fill="#FFFFFF" height="21.9037" style="stroke:#181818;stroke-width:0.6999999999999998;" width="7" x="2076.9" y="525.0301"/><rect fill="#FFFFFF" height="21.9037" style="stroke:#181818;stroke-width:0.6999999999999998;" width="7" x="2076.9" y="828.182"/><rect fill="#FFFFFF" height="21.9037" style="stroke:#181818;stroke-width:0.6999999999999998;" width="7" x="2076.9" y="959.6043"/><rect fill="#FFFFFF" height="21.9037" style="stroke:#181818;stroke-width:0.6999999999999998;" width="7" x="2076.9" y="1222.7414"/><rect fill="#FFFFFF" height="9.8" style="stroke:#181818;stroke-width:0.6999999999999998;" width="7" x="2076.9" y="1332.26"/><rect fill="none" height="490.7779" style="stroke:#000000;stroke-width:1.0499999999999998;" width="2103.85" x="7" y="645.0486"/><line style="stroke:#181818;stroke-width:0.3499999999999999;stroke-dasharray:5.0,5.0;" x1="55.3" x2="55.3" y1="86.2695" y2="1396.1637"/><line style="stroke:#181818;stroke-width:0.3499999999999999;stroke-dasharray:5.0,5.0;" x1="280.35" x2="280.35" y1="122.0543" y2="1396.1637"/><line style="stroke:#181818;stroke-width:0.3499999999999999;stroke-dasharray:5.0,5.0;" x1="416.15" x2="416.15" y1="165.6238" y2="1396.1637"/><line style="stroke:#181818;stroke-width:0.3499999999999999;stroke-dasharray:5.0,5.0;" x1="733.95" x2="733.95" y1="231.0971" y2="1396.1637"/><line style="stroke:#181818;stroke-width:0.3499999999999999;stroke-dasharray:5.0,5.0;" x1="1015" x2="1015" y1="86.2695" y2="1396.1637"/><line style="stroke:#181818;stroke-width:0.3499999999999999;stroke-dasharray:5.0,5.0;" x1="1191.75" x2="1191.75" y1="86.2695" y2="1396.1637"/><line style="stroke:#181818;stroke-width:0.3499999999999999;stroke-dasharray:5.0,5.0;" x1="1439.2" x2="1439.2" y1="86.2695" y2="1396.1637"/><line style="stroke:#181818;stroke-width:0.3499999999999999;stroke-dasharray:5.0,5.0;" x1="1543.5" x2="1543.5" y1="86.2695" y2="1396.1637"/><line style="stroke:#181818;stroke-width:0.3499999999999999;stroke-dasharray:5.0,5.0;" x1="1668.8" x2="1668.8" y1="86.2695" y2="1396.1637"/><line style="stroke:#181818;stroke-width:0.3499999999999999;stroke-dasharray:5.0,5.0;" x1="1793.4" x2="1793.4" y1="86.2695" y2="1396.1637"/><line style="stroke:#181818;stroke-width:0.3499999999999999;stroke-dasharray:5.0,5.0;" x1="1915.9" x2="1915.9" y1="86.2695" y2="1396.1637"/><line style="stroke:#181818;stroke-width:0.3499999999999999;stroke-dasharray:5.0,5.0;" x1="2080.05" x2="2080.05" y1="86.2695" y2="1396.1637"/><text fill="#000000" font-family="sans-serif" font-size="9.8" lengthAdjust="spacing" textLength="79.1" x="14" y="83.81">CRM Collaborator</text><ellipse cx="55.65" cy="37.1848" fill="#E2E2F0" rx="5.6" ry="5.6" style="stroke:#181818;stroke-width:0.3499999999999999;"/><path d="M55.65,42.7848 L55.65,61.6848 M46.55,48.3848 L64.75,48.3848 M55.65,61.6848 L46.55,72.1848 M55.65,61.6848 L64.75,72.1848 " fill="none" style="stroke:#181818;stroke-width:0.3499999999999999;"/><text fill="#000000" font-family="sans-serif" font-size="9.8" lengthAdjust="spacing" textLength="79.1" x="14" y="1406.0389">CRM Collaborator</text><ellipse cx="55.65" cy="1414.4484" fill="#E2E2F0" rx="5.6" ry="5.6" style="stroke:#181818;stroke-width:0.3499999999999999;"/><path d="M55.65,1420.0484 L55.65,1438.9484 M46.55,1425.6484 L64.75,1425.6484 M55.65,1438.9484 L46.55,1449.4484 M55.65,1438.9484 L64.75,1449.4484 " fill="none" style="stroke:#181818;stroke-width:0.3499999999999999;"/><rect fill="#E2E2F0" height="35.8695" rx="1.75" ry="1.75" style="stroke:#181818;stroke-width:0.3499999999999999;" width="137.9" x="211.75" y="1395.4637"/><text fill="#000000" font-family="sans-serif" font-size="9.8" font-style="italic" lengthAdjust="spacing" textLength="66.5" x="247.45" y="1410.9389">&#171;presentation&#187;</text><text fill="#000000" font-family="sans-serif" font-size="9.8" lengthAdjust="spacing" textLength="128.1" x="216.65" y="1423.9736">AddDronesToProposalAction</text><rect fill="#E2E2F0" height="35.8695" rx="1.75" ry="1.75" style="stroke:#181818;stroke-width:0.3499999999999999;" width="119" x="356.65" y="1395.4637"/><text fill="#000000" font-family="sans-serif" font-size="9.8" font-style="italic" lengthAdjust="spacing" textLength="66.5" x="382.9" y="1410.9389">&#171;presentation&#187;</text><text fill="#000000" font-family="sans-serif" font-size="9.8" lengthAdjust="spacing" textLength="109.2" x="361.55" y="1423.9736">AddDronesToProposalUI</text><rect fill="#E2E2F0" height="35.8695" rx="1.75" ry="1.75" style="stroke:#181818;stroke-width:0.3499999999999999;" width="154" x="656.95" y="1395.4637"/><text fill="#000000" font-family="sans-serif" font-size="9.8" font-style="italic" lengthAdjust="spacing" textLength="58.8" x="704.55" y="1410.9389">&#171;application&#187;</text><text fill="#000000" font-family="sans-serif" font-size="9.8" lengthAdjust="spacing" textLength="144.2" x="661.85" y="1423.9736">AddDronesToProposalController</text><rect fill="#E2E2F0" height="35.8695" rx="1.75" ry="1.75" style="stroke:#181818;stroke-width:0.3499999999999999;" width="170.1" x="930.3" y="49.7"/><text fill="#000000" font-family="sans-serif" font-size="9.8" font-style="italic" lengthAdjust="spacing" textLength="43.4" x="993.65" y="65.1752">&#171;domain&#187;</text><text fill="#000000" font-family="sans-serif" font-size="9.8" lengthAdjust="spacing" textLength="160.3" x="935.2" y="78.21">AddDroneModelsToProposalService</text><rect fill="#E2E2F0" height="35.8695" rx="1.75" ry="1.75" style="stroke:#181818;stroke-width:0.3499999999999999;" width="170.1" x="930.3" y="1395.4637"/><text fill="#000000" font-family="sans-serif" font-size="9.8" font-style="italic" lengthAdjust="spacing" textLength="43.4" x="993.65" y="1410.9389">&#171;domain&#187;</text><text fill="#000000" font-family="sans-serif" font-size="9.8" lengthAdjust="spacing" textLength="160.3" x="935.2" y="1423.9736">AddDroneModelsToProposalService</text><rect fill="#E2E2F0" height="35.8695" rx="1.75" ry="1.75" style="stroke:#181818;stroke-width:0.3499999999999999;" width="72.8" x="1155.35" y="49.7"/><text fill="#000000" font-family="sans-serif" font-size="9.8" font-style="italic" lengthAdjust="spacing" textLength="43.4" x="1170.05" y="65.1752">&#171;domain&#187;</text><text fill="#000000" font-family="sans-serif" font-size="9.8" lengthAdjust="spacing" textLength="63" x="1160.25" y="78.21">ShowProposal</text><rect fill="#E2E2F0" height="35.8695" rx="1.75" ry="1.75" style="stroke:#181818;stroke-width:0.3499999999999999;" width="72.8" x="1155.35" y="1395.4637"/><text fill="#000000" font-family="sans-serif" font-size="9.8" font-style="italic" lengthAdjust="spacing" textLength="43.4" x="1170.05" y="1410.9389">&#171;domain&#187;</text><text fill="#000000" font-family="sans-serif" font-size="9.8" lengthAdjust="spacing" textLength="63" x="1160.25" y="1423.9736">ShowProposal</text><rect fill="#E2E2F0" height="35.8695" rx="1.75" ry="1.75" style="stroke:#181818;stroke-width:0.3499999999999999;" width="70.7" x="1404.2" y="49.7"/><text fill="#000000" font-family="sans-serif" font-size="9.8" font-style="italic" lengthAdjust="spacing" textLength="43.4" x="1417.85" y="65.1752">&#171;domain&#187;</text><text fill="#000000" font-family="sans-serif" font-size="9.8" lengthAdjust="spacing" textLength="60.9" x="1409.1" y="78.21">DroneListItem</text><rect fill="#E2E2F0" height="35.8695" rx="1.75" ry="1.75" style="stroke:#181818;stroke-width:0.3499999999999999;" width="70.7" x="1404.2" y="1395.4637"/><text fill="#000000" font-family="sans-serif" font-size="9.8" font-style="italic" lengthAdjust="spacing" textLength="43.4" x="1417.85" y="1410.9389">&#171;domain&#187;</text><text fill="#000000" font-family="sans-serif" font-size="9.8" lengthAdjust="spacing" textLength="60.9" x="1409.1" y="1423.9736">DroneListItem</text><rect fill="#E2E2F0" height="35.8695" rx="1.75" ry="1.75" style="stroke:#181818;stroke-width:0.3499999999999999;" width="123.2" x="1481.9" y="49.7"/><text fill="#000000" font-family="sans-serif" font-size="9.8" font-style="italic" lengthAdjust="spacing" textLength="25.2" x="1530.9" y="65.1752">&#171;dto&#187;</text><text fill="#000000" font-family="sans-serif" font-size="9.8" lengthAdjust="spacing" textLength="113.4" x="1486.8" y="78.21">ShowProposalDTOParser</text><rect fill="#E2E2F0" height="35.8695" rx="1.75" ry="1.75" style="stroke:#181818;stroke-width:0.3499999999999999;" width="123.2" x="1481.9" y="1395.4637"/><text fill="#000000" font-family="sans-serif" font-size="9.8" font-style="italic" lengthAdjust="spacing" textLength="25.2" x="1530.9" y="1410.9389">&#171;dto&#187;</text><text fill="#000000" font-family="sans-serif" font-size="9.8" lengthAdjust="spacing" textLength="113.4" x="1486.8" y="1423.9736">ShowProposalDTOParser</text><rect fill="#E2E2F0" height="35.8695" rx="1.75" ry="1.75" style="stroke:#181818;stroke-width:0.3499999999999999;" width="114.1" x="1612.1" y="49.7"/><text fill="#000000" font-family="sans-serif" font-size="9.8" font-style="italic" lengthAdjust="spacing" textLength="25.2" x="1656.55" y="65.1752">&#171;dto&#187;</text><text fill="#000000" font-family="sans-serif" font-size="9.8" lengthAdjust="spacing" textLength="104.3" x="1617" y="78.21">DroneModelDTOParser</text><rect fill="#E2E2F0" height="35.8695" rx="1.75" ry="1.75" style="stroke:#181818;stroke-width:0.3499999999999999;" width="114.1" x="1612.1" y="1395.4637"/><text fill="#000000" font-family="sans-serif" font-size="9.8" font-style="italic" lengthAdjust="spacing" textLength="25.2" x="1656.55" y="1410.9389">&#171;dto&#187;</text><text fill="#000000" font-family="sans-serif" font-size="9.8" lengthAdjust="spacing" textLength="104.3" x="1617" y="1423.9736">DroneModelDTOParser</text><rect fill="#E2E2F0" height="35.8695" rx="1.75" ry="1.75" style="stroke:#181818;stroke-width:0.3499999999999999;" width="120.4" x="1733.2" y="49.7"/><text fill="#000000" font-family="sans-serif" font-size="9.8" font-style="italic" lengthAdjust="spacing" textLength="55.3" x="1765.75" y="65.1752">&#171;repository&#187;</text><text fill="#000000" font-family="sans-serif" font-size="9.8" lengthAdjust="spacing" textLength="110.6" x="1738.1" y="78.21">ShowProposalRepository</text><rect fill="#E2E2F0" height="35.8695" rx="1.75" ry="1.75" style="stroke:#181818;stroke-width:0.3499999999999999;" width="120.4" x="1733.2" y="1395.4637"/><text fill="#000000" font-family="sans-serif" font-size="9.8" font-style="italic" lengthAdjust="spacing" textLength="55.3" x="1765.75" y="1410.9389">&#171;repository&#187;</text><text fill="#000000" font-family="sans-serif" font-size="9.8" lengthAdjust="spacing" textLength="110.6" x="1738.1" y="1423.9736">ShowProposalRepository</text><rect fill="#E2E2F0" height="35.8695" rx="1.75" ry="1.75" style="stroke:#181818;stroke-width:0.3499999999999999;" width="111.3" x="1860.6" y="49.7"/><text fill="#000000" font-family="sans-serif" font-size="9.8" font-style="italic" lengthAdjust="spacing" textLength="55.3" x="1888.6" y="65.1752">&#171;repository&#187;</text><text fill="#000000" font-family="sans-serif" font-size="9.8" lengthAdjust="spacing" textLength="101.5" x="1865.5" y="78.21">DroneModelRepository</text><rect fill="#E2E2F0" height="35.8695" rx="1.75" ry="1.75" style="stroke:#181818;stroke-width:0.3499999999999999;" width="111.3" x="1860.6" y="1395.4637"/><text fill="#000000" font-family="sans-serif" font-size="9.8" font-style="italic" lengthAdjust="spacing" textLength="55.3" x="1888.6" y="1410.9389">&#171;repository&#187;</text><text fill="#000000" font-family="sans-serif" font-size="9.8" lengthAdjust="spacing" textLength="101.5" x="1865.5" y="1423.9736">DroneModelRepository</text><text fill="#000000" font-family="sans-serif" font-size="9.8" lengthAdjust="spacing" textLength="42.7" x="2056.95" y="83.81">Database</text><path d="M2067.8,48.0348 C2067.8,41.0348 2080.4,41.0348 2080.4,41.0348 C2080.4,41.0348 2093,41.0348 2093,48.0348 L2093,66.2348 C2093,73.2348 2080.4,73.2348 2080.4,73.2348 C2080.4,73.2348 2067.8,73.2348 2067.8,66.2348 L2067.8,48.0348 " fill="#E2E2F0" style="stroke:#181818;stroke-width:1.0499999999999998;"/><path d="M2067.8,48.0348 C2067.8,55.0348 2080.4,55.0348 2080.4,55.0348 C2080.4,55.0348 2093,55.0348 2093,48.0348 " fill="none" style="stroke:#181818;stroke-width:1.0499999999999998;"/><text fill="#000000" font-family="sans-serif" font-size="9.8" lengthAdjust="spacing" textLength="42.7" x="2056.95" y="1406.0389">Database</text><path d="M2067.8,1415.4984 C2067.8,1408.4984 2080.4,1408.4984 2080.4,1408.4984 C2080.4,1408.4984 2093,1408.4984 2093,1415.4984 L2093,1433.6984 C2093,1440.6984 2080.4,1440.6984 2080.4,1440.6984 C2080.4,1440.6984 2067.8,1440.6984 2067.8,1433.6984 L2067.8,1415.4984 " fill="#E2E2F0" style="stroke:#181818;stroke-width:1.0499999999999998;"/><path d="M2067.8,1415.4984 C2067.8,1422.4984 2080.4,1422.4984 2080.4,1422.4984 C2080.4,1422.4984 2093,1422.4984 2093,1415.4984 " fill="none" style="stroke:#181818;stroke-width:1.0499999999999998;"/><rect fill="#FFFFFF" height="1290.2941" style="stroke:#181818;stroke-width:0.6999999999999998;" width="7" x="52.15" y="93.2695"/><rect fill="#FFFFFF" height="68.0354" style="stroke:#181818;stroke-width:0.6999999999999998;" width="7" x="277.2" y="128.677"/><rect fill="#FFFFFF" height="240.7029" style="stroke:#181818;stroke-width:0.6999999999999998;" width="7" x="412.65" y="196.7123"/><rect fill="#FFFFFF" height="215.5371" style="stroke:#181818;stroke-width:0.6999999999999998;" width="7" x="412.65" y="459.3189"/><rect fill="#FFFFFF" height="21.9037" style="stroke:#181818;stroke-width:0.6999999999999998;" width="7" x="412.65" y="696.7598"/><rect fill="#FFFFFF" height="642.9965" style="stroke:#181818;stroke-width:0.6999999999999998;" width="7" x="412.65" y="740.5672"/><rect fill="#FFFFFF" height="153.326" style="stroke:#181818;stroke-width:0.6999999999999998;" width="7" x="730.45" y="262.1855"/><rect fill="#FFFFFF" height="153.326" style="stroke:#181818;stroke-width:0.6999999999999998;" width="7" x="730.45" y="481.2227"/><rect fill="#FFFFFF" height="367.7557" style="stroke:#181818;stroke-width:0.6999999999999998;" width="7" x="730.45" y="762.4709"/><rect fill="#FFFFFF" height="204.6297" style="stroke:#181818;stroke-width:0.6999999999999998;" width="7" x="730.45" y="1157.0303"/><rect fill="#FFFFFF" height="73.2074" style="stroke:#181818;stroke-width:0.6999999999999998;" width="7" x="1011.85" y="1047.2191"/><rect fill="#FFFFFF" height="41.5037" style="stroke:#181818;stroke-width:0.6999999999999998;" width="7" x="1188.25" y="1069.1229"/><rect fill="#FFFFFF" height="9.8" style="stroke:#181818;stroke-width:0.6999999999999998;" width="7" x="1436.05" y="1091.0266"/><rect fill="#FFFFFF" height="21.9037" style="stroke:#181818;stroke-width:0.6999999999999998;" width="7" x="1540" y="371.7041"/><rect fill="#FFFFFF" height="109.5186" style="stroke:#181818;stroke-width:0.6999999999999998;" width="7" x="1540" y="915.7969"/><rect fill="#FFFFFF" height="109.5186" style="stroke:#181818;stroke-width:0.6999999999999998;" width="7" x="1540" y="1178.934"/><rect fill="#FFFFFF" height="21.9037" style="stroke:#181818;stroke-width:0.6999999999999998;" width="7" x="1665.65" y="590.7412"/><rect fill="#FFFFFF" height="109.5186" style="stroke:#181818;stroke-width:0.6999999999999998;" width="7" x="1665.65" y="784.3746"/><rect fill="#FFFFFF" height="65.7111" style="stroke:#181818;stroke-width:0.6999999999999998;" width="7" x="1789.9" y="284.0893"/><rect fill="#FFFFFF" height="65.7111" style="stroke:#181818;stroke-width:0.6999999999999998;" width="7" x="1789.9" y="937.7006"/><rect fill="#FFFFFF" height="65.7111" style="stroke:#181818;stroke-width:0.6999999999999998;" width="7" x="1789.9" y="1200.8377"/><rect fill="#FFFFFF" height="41.5037" style="stroke:#181818;stroke-width:0.6999999999999998;" width="7" x="1789.9" y="1310.3562"/><rect fill="#FFFFFF" height="65.7111" style="stroke:#181818;stroke-width:0.6999999999999998;" width="7" x="1912.75" y="503.1264"/><rect fill="#FFFFFF" height="65.7111" style="stroke:#181818;stroke-width:0.6999999999999998;" width="7" x="1912.75" y="806.2783"/><rect fill="#FFFFFF" height="21.9037" style="stroke:#181818;stroke-width:0.6999999999999998;" width="7" x="2076.9" y="305.993"/><rect fill="#FFFFFF" height="21.9037" style="stroke:#181818;stroke-width:0.6999999999999998;" width="7" x="2076.9" y="525.0301"/><rect fill="#FFFFFF" height="21.9037" style="stroke:#181818;stroke-width:0.6999999999999998;" width="7" x="2076.9" y="828.182"/><rect fill="#FFFFFF" height="21.9037" style="stroke:#181818;stroke-width:0.6999999999999998;" width="7" x="2076.9" y="959.6043"/><rect fill="#FFFFFF" height="21.9037" style="stroke:#181818;stroke-width:0.6999999999999998;" width="7" x="2076.9" y="1222.7414"/><rect fill="#FFFFFF" height="9.8" style="stroke:#181818;stroke-width:0.6999999999999998;" width="7" x="2076.9" y="1332.26"/><polygon fill="#181818" points="203.35,118.877,210.35,121.677,203.35,124.477,206.15,121.677" style="stroke:#181818;stroke-width:0.6999999999999998;"/><line style="stroke:#181818;stroke-width:0.6999999999999998;" x1="59.15" x2="207.55" y1="121.677" y2="121.677"/><text fill="#000000" font-family="sans-serif" font-size="9.1" lengthAdjust="spacing" textLength="116.2" x="64.05" y="105.8894">Wants to configure the list of</text><text fill="#000000" font-family="sans-serif" font-size="9.1" lengthAdjust="spacing" textLength="133" x="66.85" y="117.9931">drone models of a show proposal</text><rect fill="#E2E2F0" height="35.8695" rx="1.75" ry="1.75" style="stroke:#181818;stroke-width:0.3499999999999999;" width="137.9" x="211.75" y="93.2695"/><text fill="#000000" font-family="sans-serif" font-size="9.8" font-style="italic" lengthAdjust="spacing" textLength="66.5" x="247.45" y="108.7447">&#171;presentation&#187;</text><text fill="#000000" font-family="sans-serif" font-size="9.8" lengthAdjust="spacing" textLength="128.1" x="216.65" y="121.7795">AddDronesToProposalAction</text><polygon fill="#181818" points="348.25,150.3428,355.25,153.1428,348.25,155.9428,351.05,153.1428" style="stroke:#181818;stroke-width:0.6999999999999998;"/><line style="stroke:#181818;stroke-width:0.6999999999999998;" x1="284.2" x2="352.45" y1="153.1428" y2="153.1428"/><text fill="#000000" font-family="sans-serif" font-size="9.1" lengthAdjust="spacing" textLength="25.2" x="289.1" y="149.4589">create</text><rect fill="#E2E2F0" height="35.8695" rx="1.75" ry="1.75" style="stroke:#181818;stroke-width:0.3499999999999999;" width="119" x="356.65" y="136.8391"/><text fill="#000000" font-family="sans-serif" font-size="9.8" font-style="italic" lengthAdjust="spacing" textLength="66.5" x="382.9" y="152.3143">&#171;presentation&#187;</text><text fill="#000000" font-family="sans-serif" font-size="9.8" lengthAdjust="spacing" textLength="109.2" x="361.55" y="165.349">AddDronesToProposalUI</text><polygon fill="#181818" points="404.25,193.9123,411.25,196.7123,404.25,199.5123,407.05,196.7123" style="stroke:#181818;stroke-width:0.6999999999999998;"/><line style="stroke:#181818;stroke-width:0.6999999999999998;" x1="280.7" x2="408.45" y1="196.7123" y2="196.7123"/><text fill="#000000" font-family="sans-serif" font-size="9.1" lengthAdjust="spacing" textLength="26.6" x="285.6" y="193.0284">show()</text><polygon fill="#181818" points="648.55,215.816,655.55,218.616,648.55,221.416,651.35,218.616" style="stroke:#181818;stroke-width:0.6999999999999998;"/><line style="stroke:#181818;stroke-width:0.6999999999999998;" x1="419.65" x2="652.75" y1="218.616" y2="218.616"/><text fill="#000000" font-family="sans-serif" font-size="9.1" lengthAdjust="spacing" textLength="25.2" x="424.55" y="214.9321">create</text><rect fill="#E2E2F0" height="35.8695" rx="1.75" ry="1.75" style="stroke:#181818;stroke-width:0.3499999999999999;" width="154" x="656.95" y="202.3123"/><text fill="#000000" font-family="sans-serif" font-size="9.8" font-style="italic" lengthAdjust="spacing" textLength="58.8" x="704.55" y="217.7875">&#171;application&#187;</text><text fill="#000000" font-family="sans-serif" font-size="9.8" lengthAdjust="spacing" textLength="144.2" x="661.85" y="230.8223">AddDronesToProposalController</text><polygon fill="#181818" points="722.05,259.3855,729.05,262.1855,722.05,264.9855,724.85,262.1855" style="stroke:#181818;stroke-width:0.6999999999999998;"/><line style="stroke:#181818;stroke-width:0.6999999999999998;" x1="419.65" x2="726.25" y1="262.1855" y2="262.1855"/><text fill="#000000" font-family="sans-serif" font-size="9.1" lengthAdjust="spacing" textLength="95.9" x="424.55" y="258.5017">getListShowProposals()</text><polygon fill="#181818" points="1781.5,281.2893,1788.5,284.0893,1781.5,286.8893,1784.3,284.0893" style="stroke:#181818;stroke-width:0.6999999999999998;"/><line style="stroke:#181818;stroke-width:0.6999999999999998;" x1="737.45" x2="1785.7" y1="284.0893" y2="284.0893"/><text fill="#000000" font-family="sans-serif" font-size="9.1" lengthAdjust="spacing" textLength="266.7" x="742.35" y="280.4054">findByStatusAndEmptyDroneList(ShowProposalStatus.PENDING)</text><polygon fill="#181818" points="2068.5,303.193,2075.5,305.993,2068.5,308.793,2071.3,305.993" style="stroke:#181818;stroke-width:0.6999999999999998;"/><line style="stroke:#181818;stroke-width:0.6999999999999998;" x1="1796.9" x2="2072.7" y1="305.993" y2="305.993"/><text fill="#000000" font-family="sans-serif" font-size="9.1" lengthAdjust="spacing" textLength="266.7" x="1801.8" y="302.3091">findByStatusAndEmptyDroneList(ShowProposalStatus.PENDING)</text><polygon fill="#181818" points="1804.6,325.0967,1797.6,327.8967,1804.6,330.6967,1801.8,327.8967" style="stroke:#181818;stroke-width:0.6999999999999998;"/><line style="stroke:#181818;stroke-width:0.6999999999999998;stroke-dasharray:2.0,2.0;" x1="1800.4" x2="2079.7" y1="327.8967" y2="327.8967"/><text fill="#000000" font-family="sans-serif" font-size="9.1" lengthAdjust="spacing" textLength="93.1" x="1808.8" y="324.2128">List of Show Proposals</text><polygon fill="#181818" points="745.15,347.0004,738.15,349.8004,745.15,352.6004,742.35,349.8004" style="stroke:#181818;stroke-width:0.6999999999999998;"/><line style="stroke:#181818;stroke-width:0.6999999999999998;stroke-dasharray:2.0,2.0;" x1="740.95" x2="1792.7" y1="349.8004" y2="349.8004"/><text fill="#000000" font-family="sans-serif" font-size="9.1" lengthAdjust="spacing" textLength="93.1" x="749.35" y="346.1165">List of Show Proposals</text><polygon fill="#181818" points="1531.6,368.9041,1538.6,371.7041,1531.6,374.5041,1534.4,371.7041" style="stroke:#181818;stroke-width:0.6999999999999998;"/><line style="stroke:#181818;stroke-width:0.6999999999999998;" x1="737.45" x2="1535.8" y1="371.7041" y2="371.7041"/><text fill="#000000" font-family="sans-serif" font-size="9.1" lengthAdjust="spacing" textLength="203" x="742.35" y="368.0202">transformToShowProposalDTOlist(showProposals)</text><polygon fill="#181818" points="745.15,390.8078,738.15,393.6078,745.15,396.4078,742.35,393.6078" style="stroke:#181818;stroke-width:0.6999999999999998;"/><line style="stroke:#181818;stroke-width:0.6999999999999998;stroke-dasharray:2.0,2.0;" x1="740.95" x2="1542.8" y1="393.6078" y2="393.6078"/><text fill="#000000" font-family="sans-serif" font-size="9.1" lengthAdjust="spacing" textLength="119.7" x="749.35" y="389.9239">List of Show Proposals (DTO)</text><polygon fill="#181818" points="427.35,412.7115,420.35,415.5115,427.35,418.3115,424.55,415.5115" style="stroke:#181818;stroke-width:0.6999999999999998;"/><line style="stroke:#181818;stroke-width:0.6999999999999998;stroke-dasharray:2.0,2.0;" x1="423.15" x2="733.25" y1="415.5115" y2="415.5115"/><text fill="#000000" font-family="sans-serif" font-size="9.1" lengthAdjust="spacing" textLength="119.7" x="431.55" y="411.8276">List of Show Proposals (DTO)</text><polygon fill="#181818" points="66.85,434.6152,59.85,437.4152,66.85,440.2152,64.05,437.4152" style="stroke:#181818;stroke-width:0.6999999999999998;"/><line style="stroke:#181818;stroke-width:0.6999999999999998;stroke-dasharray:2.0,2.0;" x1="62.65" x2="415.45" y1="437.4152" y2="437.4152"/><text fill="#000000" font-family="sans-serif" font-size="9.1" lengthAdjust="spacing" textLength="139.3" x="71.05" y="433.7313">Show list of show proposals (DTO)</text><polygon fill="#181818" points="404.25,456.5189,411.25,459.3189,404.25,462.1189,407.05,459.3189" style="stroke:#181818;stroke-width:0.6999999999999998;"/><line style="stroke:#181818;stroke-width:0.6999999999999998;" x1="59.15" x2="408.45" y1="459.3189" y2="459.3189"/><text fill="#000000" font-family="sans-serif" font-size="9.1" lengthAdjust="spacing" textLength="91.7" x="64.05" y="455.6351">Choose show proposal</text><polygon fill="#181818" points="722.05,478.4227,729.05,481.2227,722.05,484.0227,724.85,481.2227" style="stroke:#181818;stroke-width:0.6999999999999998;"/><line style="stroke:#181818;stroke-width:0.6999999999999998;" x1="419.65" x2="726.25" y1="481.2227" y2="481.2227"/><text fill="#000000" font-family="sans-serif" font-size="9.1" lengthAdjust="spacing" textLength="86.1" x="424.55" y="477.5388">getListDroneModels()</text><polygon fill="#181818" points="1904.35,500.3264,1911.35,503.1264,1904.35,505.9264,1907.15,503.1264" style="stroke:#181818;stroke-width:0.6999999999999998;"/><line style="stroke:#181818;stroke-width:0.6999999999999998;" x1="737.45" x2="1908.55" y1="503.1264" y2="503.1264"/><text fill="#000000" font-family="sans-serif" font-size="9.1" lengthAdjust="spacing" textLength="70.7" x="742.35" y="499.4425">findByActive(true)</text><polygon fill="#181818" points="2068.5,522.2301,2075.5,525.0301,2068.5,527.8301,2071.3,525.0301" style="stroke:#181818;stroke-width:0.6999999999999998;"/><line style="stroke:#181818;stroke-width:0.6999999999999998;" x1="1919.75" x2="2072.7" y1="525.0301" y2="525.0301"/><text fill="#000000" font-family="sans-serif" font-size="9.1" lengthAdjust="spacing" textLength="70.7" x="1924.65" y="521.3462">findByActive(true)</text><polygon fill="#181818" points="1927.45,544.1338,1920.45,546.9338,1927.45,549.7338,1924.65,546.9338" style="stroke:#181818;stroke-width:0.6999999999999998;"/><line style="stroke:#181818;stroke-width:0.6999999999999998;stroke-dasharray:2.0,2.0;" x1="1923.25" x2="2079.7" y1="546.9338" y2="546.9338"/><text fill="#000000" font-family="sans-serif" font-size="9.1" lengthAdjust="spacing" textLength="110.6" x="1931.65" y="543.2499">List of Active Drone Models</text><polygon fill="#181818" points="745.15,566.0375,738.15,568.8375,745.15,571.6375,742.35,568.8375" style="stroke:#181818;stroke-width:0.6999999999999998;"/><line style="stroke:#181818;stroke-width:0.6999999999999998;stroke-dasharray:2.0,2.0;" x1="740.95" x2="1915.55" y1="568.8375" y2="568.8375"/><text fill="#000000" font-family="sans-serif" font-size="9.1" lengthAdjust="spacing" textLength="110.6" x="749.35" y="565.1536">List of Active Drone Models</text><polygon fill="#181818" points="1657.25,587.9412,1664.25,590.7412,1657.25,593.5412,1660.05,590.7412" style="stroke:#181818;stroke-width:0.6999999999999998;"/><line style="stroke:#181818;stroke-width:0.6999999999999998;" x1="737.45" x2="1661.45" y1="590.7412" y2="590.7412"/><text fill="#000000" font-family="sans-serif" font-size="9.1" lengthAdjust="spacing" textLength="181.3" x="742.35" y="587.0573">transformToDroneModelDTO(droneModelList)</text><polygon fill="#181818" points="745.15,609.8449,738.15,612.6449,745.15,615.4449,742.35,612.6449" style="stroke:#181818;stroke-width:0.6999999999999998;"/><line style="stroke:#181818;stroke-width:0.6999999999999998;stroke-dasharray:2.0,2.0;" x1="740.95" x2="1668.45" y1="612.6449" y2="612.6449"/><text fill="#000000" font-family="sans-serif" font-size="9.1" lengthAdjust="spacing" textLength="137.2" x="749.35" y="608.961">List of Active Drone Models (DTO)</text><polygon fill="#181818" points="427.35,631.7486,420.35,634.5486,427.35,637.3486,424.55,634.5486" style="stroke:#181818;stroke-width:0.6999999999999998;"/><line style="stroke:#181818;stroke-width:0.6999999999999998;stroke-dasharray:2.0,2.0;" x1="423.15" x2="733.25" y1="634.5486" y2="634.5486"/><text fill="#000000" font-family="sans-serif" font-size="9.1" lengthAdjust="spacing" textLength="137.2" x="431.55" y="630.8647">List of Active Drone Models (DTO)</text><path d="M7,645.0486 L58.1,645.0486 L58.1,651.5523 L51.1,658.5523 L7,658.5523 L7,645.0486 " fill="#EEEEEE" style="stroke:#000000;stroke-width:1.0499999999999998;"/><rect fill="none" height="490.7779" style="stroke:#000000;stroke-width:1.0499999999999998;" width="2103.85" x="7" y="645.0486"/><text fill="#000000" font-family="sans-serif" font-size="9.1" font-weight="bold" lengthAdjust="spacing" textLength="19.6" x="17.5" y="655.5685">loop</text><text fill="#000000" font-family="sans-serif" font-size="7.7" font-weight="bold" lengthAdjust="spacing" textLength="154.7" x="68.6" y="654.7577">[While user wants to add drone Models]</text><polygon fill="#181818" points="66.85,672.0561,59.85,674.8561,66.85,677.6561,64.05,674.8561" style="stroke:#181818;stroke-width:0.6999999999999998;"/><line style="stroke:#181818;stroke-width:0.6999999999999998;stroke-dasharray:2.0,2.0;" x1="62.65" x2="415.45" y1="674.8561" y2="674.8561"/><text fill="#000000" font-family="sans-serif" font-size="9.1" lengthAdjust="spacing" textLength="130.9" x="71.05" y="671.1722">Show list of drone models (DTO)</text><polygon fill="#181818" points="404.25,693.9598,411.25,696.7598,404.25,699.5598,407.05,696.7598" style="stroke:#181818;stroke-width:0.6999999999999998;"/><line style="stroke:#181818;stroke-width:0.6999999999999998;" x1="59.15" x2="408.45" y1="696.7598" y2="696.7598"/><text fill="#000000" font-family="sans-serif" font-size="9.1" lengthAdjust="spacing" textLength="83.3" x="64.05" y="693.0759">Choose drone model</text><polygon fill="#181818" points="66.85,715.8635,59.85,718.6635,66.85,721.4635,64.05,718.6635" style="stroke:#181818;stroke-width:0.6999999999999998;"/><line style="stroke:#181818;stroke-width:0.6999999999999998;stroke-dasharray:2.0,2.0;" x1="62.65" x2="415.45" y1="718.6635" y2="718.6635"/><text fill="#000000" font-family="sans-serif" font-size="9.1" lengthAdjust="spacing" textLength="106.4" x="71.05" y="714.9796">Request number of drones</text><polygon fill="#181818" points="404.25,737.7672,411.25,740.5672,404.25,743.3672,407.05,740.5672" style="stroke:#181818;stroke-width:0.6999999999999998;"/><line style="stroke:#181818;stroke-width:0.6999999999999998;" x1="59.15" x2="408.45" y1="740.5672" y2="740.5672"/><text fill="#000000" font-family="sans-serif" font-size="9.1" lengthAdjust="spacing" textLength="102.2" x="64.05" y="736.8833">Provide number of drones</text><polygon fill="#181818" points="722.05,759.6709,729.05,762.4709,722.05,765.2709,724.85,762.4709" style="stroke:#181818;stroke-width:0.6999999999999998;"/><line style="stroke:#181818;stroke-width:0.6999999999999998;" x1="419.65" x2="726.25" y1="762.4709" y2="762.4709"/><text fill="#000000" font-family="sans-serif" font-size="9.1" lengthAdjust="spacing" textLength="297.5" x="424.55" y="758.787">addDroneModelToProposal(showProposalDTO ,droneModelDTO, quantity)</text><polygon fill="#181818" points="1657.25,781.5746,1664.25,784.3746,1657.25,787.1746,1660.05,784.3746" style="stroke:#181818;stroke-width:0.6999999999999998;"/><line style="stroke:#181818;stroke-width:0.6999999999999998;" x1="737.45" x2="1661.45" y1="784.3746" y2="784.3746"/><text fill="#000000" font-family="sans-serif" font-size="9.1" lengthAdjust="spacing" textLength="170.8" x="742.35" y="780.6907">getDroneModelFromDTO(droneModelDTO)</text><polygon fill="#181818" points="1904.35,803.4783,1911.35,806.2783,1904.35,809.0783,1907.15,806.2783" style="stroke:#181818;stroke-width:0.6999999999999998;"/><line style="stroke:#181818;stroke-width:0.6999999999999998;" x1="1672.65" x2="1908.55" y1="806.2783" y2="806.2783"/><text fill="#000000" font-family="sans-serif" font-size="9.1" lengthAdjust="spacing" textLength="109.9" x="1677.55" y="802.5944">findById(droneModelDTOId)</text><polygon fill="#181818" points="2068.5,825.382,2075.5,828.182,2068.5,830.982,2071.3,828.182" style="stroke:#181818;stroke-width:0.6999999999999998;"/><line style="stroke:#181818;stroke-width:0.6999999999999998;" x1="1919.75" x2="2072.7" y1="828.182" y2="828.182"/><text fill="#000000" font-family="sans-serif" font-size="9.1" lengthAdjust="spacing" textLength="109.9" x="1924.65" y="824.4981">findById(droneModelDTOId)</text><polygon fill="#181818" points="1927.45,847.2857,1920.45,850.0857,1927.45,852.8857,1924.65,850.0857" style="stroke:#181818;stroke-width:0.6999999999999998;"/><line style="stroke:#181818;stroke-width:0.6999999999999998;stroke-dasharray:2.0,2.0;" x1="1923.25" x2="2079.7" y1="850.0857" y2="850.0857"/><text fill="#000000" font-family="sans-serif" font-size="9.1" lengthAdjust="spacing" textLength="46.9" x="1931.65" y="846.4019">droneModel</text><polygon fill="#181818" points="1680.35,869.1895,1673.35,871.9895,1680.35,874.7895,1677.55,871.9895" style="stroke:#181818;stroke-width:0.6999999999999998;"/><line style="stroke:#181818;stroke-width:0.6999999999999998;stroke-dasharray:2.0,2.0;" x1="1676.15" x2="1915.55" y1="871.9895" y2="871.9895"/><text fill="#000000" font-family="sans-serif" font-size="9.1" lengthAdjust="spacing" textLength="46.9" x="1684.55" y="868.3056">droneModel</text><polygon fill="#181818" points="745.15,891.0932,738.15,893.8932,745.15,896.6932,742.35,893.8932" style="stroke:#181818;stroke-width:0.6999999999999998;"/><line style="stroke:#181818;stroke-width:0.6999999999999998;stroke-dasharray:2.0,2.0;" x1="740.95" x2="1668.45" y1="893.8932" y2="893.8932"/><text fill="#000000" font-family="sans-serif" font-size="9.1" lengthAdjust="spacing" textLength="46.9" x="749.35" y="890.2093">droneModel</text><polygon fill="#181818" points="1531.6,912.9969,1538.6,915.7969,1531.6,918.5969,1534.4,915.7969" style="stroke:#181818;stroke-width:0.6999999999999998;"/><line style="stroke:#181818;stroke-width:0.6999999999999998;" x1="737.45" x2="1535.8" y1="915.7969" y2="915.7969"/><text fill="#000000" font-family="sans-serif" font-size="9.1" lengthAdjust="spacing" textLength="186.9" x="742.35" y="912.113">getShowProposalfromDTO(showProposalDTO)</text><polygon fill="#181818" points="1781.5,934.9006,1788.5,937.7006,1781.5,940.5006,1784.3,937.7006" style="stroke:#181818;stroke-width:0.6999999999999998;"/><line style="stroke:#181818;stroke-width:0.6999999999999998;" x1="1547" x2="1785.7" y1="937.7006" y2="937.7006"/><text fill="#000000" font-family="sans-serif" font-size="9.1" lengthAdjust="spacing" textLength="119.7" x="1551.9" y="934.0167">findById(showProposalDTOId)</text><polygon fill="#181818" points="2068.5,956.8043,2075.5,959.6043,2068.5,962.4043,2071.3,959.6043" style="stroke:#181818;stroke-width:0.6999999999999998;"/><line style="stroke:#181818;stroke-width:0.6999999999999998;" x1="1796.9" x2="2072.7" y1="959.6043" y2="959.6043"/><text fill="#000000" font-family="sans-serif" font-size="9.1" lengthAdjust="spacing" textLength="119.7" x="1801.8" y="955.9204">findById(showProposalDTOId)</text><polygon fill="#181818" points="1804.6,978.708,1797.6,981.508,1804.6,984.308,1801.8,981.508" style="stroke:#181818;stroke-width:0.6999999999999998;"/><line style="stroke:#181818;stroke-width:0.6999999999999998;stroke-dasharray:2.0,2.0;" x1="1800.4" x2="2079.7" y1="981.508" y2="981.508"/><text fill="#000000" font-family="sans-serif" font-size="9.1" lengthAdjust="spacing" textLength="56.7" x="1808.8" y="977.8241">showProposal</text><polygon fill="#181818" points="1554.7,1000.6117,1547.7,1003.4117,1554.7,1006.2117,1551.9,1003.4117" style="stroke:#181818;stroke-width:0.6999999999999998;"/><line style="stroke:#181818;stroke-width:0.6999999999999998;stroke-dasharray:2.0,2.0;" x1="1550.5" x2="1792.7" y1="1003.4117" y2="1003.4117"/><text fill="#000000" font-family="sans-serif" font-size="9.1" lengthAdjust="spacing" textLength="56.7" x="1558.9" y="999.7278">showProposal</text><polygon fill="#181818" points="745.15,1022.5154,738.15,1025.3154,745.15,1028.1154,742.35,1025.3154" style="stroke:#181818;stroke-width:0.6999999999999998;"/><line style="stroke:#181818;stroke-width:0.6999999999999998;stroke-dasharray:2.0,2.0;" x1="740.95" x2="1542.8" y1="1025.3154" y2="1025.3154"/><text fill="#000000" font-family="sans-serif" font-size="9.1" lengthAdjust="spacing" textLength="56.7" x="749.35" y="1021.6315">showProposal</text><polygon fill="#181818" points="1003.45,1044.4191,1010.45,1047.2191,1003.45,1050.0191,1006.25,1047.2191" style="stroke:#181818;stroke-width:0.6999999999999998;"/><line style="stroke:#181818;stroke-width:0.6999999999999998;" x1="737.45" x2="1007.65" y1="1047.2191" y2="1047.2191"/><text fill="#000000" font-family="sans-serif" font-size="9.1" lengthAdjust="spacing" textLength="261.1" x="742.35" y="1043.5353">addDroneModelToProposal(showProposal, droneModel, quantity)</text><polygon fill="#181818" points="1179.85,1066.3229,1186.85,1069.1229,1179.85,1071.9229,1182.65,1069.1229" style="stroke:#181818;stroke-width:0.6999999999999998;"/><line style="stroke:#181818;stroke-width:0.6999999999999998;" x1="1018.85" x2="1184.05" y1="1069.1229" y2="1069.1229"/><text fill="#000000" font-family="sans-serif" font-size="9.1" lengthAdjust="spacing" textLength="156.1" x="1023.75" y="1065.439">addDroneToList( droneModel, quantity)</text><polygon fill="#181818" points="1427.65,1088.2266,1434.65,1091.0266,1427.65,1093.8266,1430.45,1091.0266" style="stroke:#181818;stroke-width:0.6999999999999998;"/><line style="stroke:#181818;stroke-width:0.6999999999999998;" x1="1195.25" x2="1431.85" y1="1091.0266" y2="1091.0266"/><text fill="#000000" font-family="sans-serif" font-size="9.1" lengthAdjust="spacing" textLength="227.5" x="1200.15" y="1087.3427">new DroneListItem(droneModel, showProposal, quantity)</text><polygon fill="#181818" points="1202.95,1098.0266,1195.95,1100.8266,1202.95,1103.6266,1200.15,1100.8266" style="stroke:#181818;stroke-width:0.6999999999999998;"/><line style="stroke:#181818;stroke-width:0.6999999999999998;stroke-dasharray:2.0,2.0;" x1="1198.75" x2="1438.85" y1="1100.8266" y2="1100.8266"/><polygon fill="#181818" points="1026.55,1107.8266,1019.55,1110.6266,1026.55,1113.4266,1023.75,1110.6266" style="stroke:#181818;stroke-width:0.6999999999999998;"/><line style="stroke:#181818;stroke-width:0.6999999999999998;stroke-dasharray:2.0,2.0;" x1="1022.35" x2="1191.05" y1="1110.6266" y2="1110.6266"/><polygon fill="#181818" points="745.15,1117.6266,738.15,1120.4266,745.15,1123.2266,742.35,1120.4266" style="stroke:#181818;stroke-width:0.6999999999999998;"/><line style="stroke:#181818;stroke-width:0.6999999999999998;stroke-dasharray:2.0,2.0;" x1="740.95" x2="1014.65" y1="1120.4266" y2="1120.4266"/><polygon fill="#181818" points="427.35,1127.4266,420.35,1130.2266,427.35,1133.0266,424.55,1130.2266" style="stroke:#181818;stroke-width:0.6999999999999998;"/><line style="stroke:#181818;stroke-width:0.6999999999999998;stroke-dasharray:2.0,2.0;" x1="423.15" x2="733.25" y1="1130.2266" y2="1130.2266"/><polygon fill="#181818" points="722.05,1154.2303,729.05,1157.0303,722.05,1159.8303,724.85,1157.0303" style="stroke:#181818;stroke-width:0.6999999999999998;"/><line style="stroke:#181818;stroke-width:0.6999999999999998;" x1="419.65" x2="726.25" y1="1157.0303" y2="1157.0303"/><text fill="#000000" font-family="sans-serif" font-size="9.1" lengthAdjust="spacing" textLength="98.7" x="424.55" y="1153.3464">save(showProposalDTO)</text><polygon fill="#181818" points="1531.6,1176.134,1538.6,1178.934,1531.6,1181.734,1534.4,1178.934" style="stroke:#181818;stroke-width:0.6999999999999998;"/><line style="stroke:#181818;stroke-width:0.6999999999999998;" x1="737.45" x2="1535.8" y1="1178.934" y2="1178.934"/><text fill="#000000" font-family="sans-serif" font-size="9.1" lengthAdjust="spacing" textLength="186.9" x="742.35" y="1175.2501">getShowProposalfromDTO(showProposalDTO)</text><polygon fill="#181818" points="1781.5,1198.0377,1788.5,1200.8377,1781.5,1203.6377,1784.3,1200.8377" style="stroke:#181818;stroke-width:0.6999999999999998;"/><line style="stroke:#181818;stroke-width:0.6999999999999998;" x1="1547" x2="1785.7" y1="1200.8377" y2="1200.8377"/><text fill="#000000" font-family="sans-serif" font-size="9.1" lengthAdjust="spacing" textLength="119.7" x="1551.9" y="1197.1538">findById(showProposalDTOId)</text><polygon fill="#181818" points="2068.5,1219.9414,2075.5,1222.7414,2068.5,1225.5414,2071.3,1222.7414" style="stroke:#181818;stroke-width:0.6999999999999998;"/><line style="stroke:#181818;stroke-width:0.6999999999999998;" x1="1796.9" x2="2072.7" y1="1222.7414" y2="1222.7414"/><text fill="#000000" font-family="sans-serif" font-size="9.1" lengthAdjust="spacing" textLength="119.7" x="1801.8" y="1219.0575">findById(showProposalDTOId)</text><polygon fill="#181818" points="1804.6,1241.8451,1797.6,1244.6451,1804.6,1247.4451,1801.8,1244.6451" style="stroke:#181818;stroke-width:0.6999999999999998;"/><line style="stroke:#181818;stroke-width:0.6999999999999998;stroke-dasharray:2.0,2.0;" x1="1800.4" x2="2079.7" y1="1244.6451" y2="1244.6451"/><text fill="#000000" font-family="sans-serif" font-size="9.1" lengthAdjust="spacing" textLength="56.7" x="1808.8" y="1240.9612">showProposal</text><polygon fill="#181818" points="1554.7,1263.7488,1547.7,1266.5488,1554.7,1269.3488,1551.9,1266.5488" style="stroke:#181818;stroke-width:0.6999999999999998;"/><line style="stroke:#181818;stroke-width:0.6999999999999998;stroke-dasharray:2.0,2.0;" x1="1550.5" x2="1792.7" y1="1266.5488" y2="1266.5488"/><text fill="#000000" font-family="sans-serif" font-size="9.1" lengthAdjust="spacing" textLength="56.7" x="1558.9" y="1262.8649">showProposal</text><polygon fill="#181818" points="745.15,1285.6525,738.15,1288.4525,745.15,1291.2525,742.35,1288.4525" style="stroke:#181818;stroke-width:0.6999999999999998;"/><line style="stroke:#181818;stroke-width:0.6999999999999998;stroke-dasharray:2.0,2.0;" x1="740.95" x2="1542.8" y1="1288.4525" y2="1288.4525"/><text fill="#000000" font-family="sans-serif" font-size="9.1" lengthAdjust="spacing" textLength="56.7" x="749.35" y="1284.7687">showProposal</text><polygon fill="#181818" points="1781.5,1307.5562,1788.5,1310.3562,1781.5,1313.1562,1784.3,1310.3562" style="stroke:#181818;stroke-width:0.6999999999999998;"/><line style="stroke:#181818;stroke-width:0.6999999999999998;" x1="737.45" x2="1785.7" y1="1310.3562" y2="1310.3562"/><text fill="#000000" font-family="sans-serif" font-size="9.1" lengthAdjust="spacing" textLength="80.5" x="742.35" y="1306.6724">save(showProposal)</text><polygon fill="#181818" points="2068.5,1329.46,2075.5,1332.26,2068.5,1335.06,2071.3,1332.26" style="stroke:#181818;stroke-width:0.6999999999999998;"/><line style="stroke:#181818;stroke-width:0.6999999999999998;" x1="1796.9" x2="2072.7" y1="1332.26" y2="1332.26"/><text fill="#000000" font-family="sans-serif" font-size="9.1" lengthAdjust="spacing" textLength="80.5" x="1801.8" y="1328.5761">save(showProposal)</text><polygon fill="#181818" points="1804.6,1339.26,1797.6,1342.06,1804.6,1344.86,1801.8,1342.06" style="stroke:#181818;stroke-width:0.6999999999999998;"/><line style="stroke:#181818;stroke-width:0.6999999999999998;stroke-dasharray:2.0,2.0;" x1="1800.4" x2="2079.7" y1="1342.06" y2="1342.06"/><polygon fill="#181818" points="745.15,1349.06,738.15,1351.86,745.15,1354.66,742.35,1351.86" style="stroke:#181818;stroke-width:0.6999999999999998;"/><line style="stroke:#181818;stroke-width:0.6999999999999998;stroke-dasharray:2.0,2.0;" x1="740.95" x2="1792.7" y1="1351.86" y2="1351.86"/><polygon fill="#181818" points="427.35,1358.86,420.35,1361.66,427.35,1364.46,424.55,1361.66" style="stroke:#181818;stroke-width:0.6999999999999998;"/><line style="stroke:#181818;stroke-width:0.6999999999999998;stroke-dasharray:2.0,2.0;" x1="423.15" x2="733.25" y1="1361.66" y2="1361.66"/><polygon fill="#181818" points="63.35,1380.7637,56.35,1383.5637,63.35,1386.3637,60.55,1383.5637" style="stroke:#181818;stroke-width:0.6999999999999998;"/><line style="stroke:#181818;stroke-width:0.6999999999999998;stroke-dasharray:2.0,2.0;" x1="59.15" x2="415.45" y1="1383.5637" y2="1383.5637"/><text fill="#000000" font-family="sans-serif" font-size="9.1" lengthAdjust="spacing" textLength="142.8" x="67.55" y="1379.8798">Confirm if operation was successful</text><!--SRC=[jLZRRjiu47tNLmpoP0VfVe1H1CWwxS90smroGL_sXP7eH80agYIL87-_GraNaXfAL9FwnHOfdiFXd3aUIUUwu737VpMyIZbSv-n9iZ99MAg5XBFzxNVOYw9WZq8o73a3fk3Ap2KrapfFyvfL6iwkiknQYeghUt4ZHIqKA_2kN5Jz0lm9dp_NaYjUQMOkBoyN8HuExVA7m_gbUr5fYHldfosFbmZ5whh8qrcaxoBZXGLtn-LBdl8Monj3m4oKB9zWtJsBr_xUTg4z45pLqd_BbJveNhRBd94ejklxVs-OL5tiv8p1qO8aRsDt8OXn6i3ckkNubQDKtYRR6ASGHWuNuUruMDI4ZvGnpHwPuWZJ_JejxIvQYUSlJFDEpqdx1PykExcUd-_W9sv3WHQGYkgOFpMIWtxcK60oG1p_go0p6u6oLGkE00E5OKBTnUcI86ZBOce1QHuEv-UmWrHod7V6TotAPfia6VS103_3sCCXIR0wSD4eS1lKdzl14zT6IdOob25oOCS5fmdpiIe88Ubaxk2OLzdVRtTOfeswgh8lPQtV1lrkx5MdU_ww-VBZ-l3Zd-r8DEo2vXXl30WATzVd-3txcMnd54u_rO_0fvaJ-NRIIZi_M8SQCAm43mHB0NefZMTOEj5mZeUotu6Mh5978SjxuTrXocAZR6LjvxCweD997RqcBcJOu8hjKk04gHrtLu2B31QwNIwcuauM8d2VxUhEBLndwA4i65FCWmUPFUoVXK1rUOuoTO0-Z62rMtzf6o8bLBbFvK1vRbzWnfjU-4RBXcyTY57SnEeaILp2jgWeQoTgEaYvKBHayTAnzHeuKPrkWjCnJk3cwdW-j82qbqXjGl9iOp99bxKplyc6AxErnVGIvUN6lbpLHEXUQGSFm6AFgUvbfa2Pcwb2Y1f-FkVOFpScdDU-MM1PrZK6NTwIlZe3pk1q4QJ5z6LE-OErclO6b_dMzFh8MpNb8-wwfrTHbEY4Btd6wSKaiPjYPlVNOtlj_6jW_72HsIczW5yD7cwktxPh6nLIwsYBu_XNAKfNvuu0uYHEodlUCm-PItd8PacfqexroZYg-Vw63cM4ZUfeWWv8fca1d3gQDNOJ2x_GC0GR9LIPFNFiTEP9_SDQfAMc74NWKPCo-BYkEvBmD_jg6_gztNGWWKiKWQDQrygk8LbKelTg8ivlBwnAy9tMoPI7Fcx2VoFY7UcuZNlHFdV54jeWj087a-tVZ-oWug_kqCPcSmEVuNOWFCiTNiRuuWaQoHJ8ZMAQkoKjX0_V4HW5Gp5DcgIPXnmpmwiiy1Ul6BRbfCa5_xR_Y9skiTG_PgkhhFKZxJNYAUZtRJRcWUU3x7QTvRxJTkEjD-vjsAGKl3gO4qIC49RmtRn7v3kPospKwwWaFc5hBSTzZDcRDxAoXFm8ekQoVPkFZs0AL9EcNAbZKn1FDExxL26J_m40]--></g></svg>