<?xml version="1.0" encoding="us-ascii" standalone="no"?><svg xmlns="http://www.w3.org/2000/svg" xmlns:xlink="http://www.w3.org/1999/xlink" contentStyleType="text/css" height="666.5px" preserveAspectRatio="none" style="width:1089px;height:666px;background:#FFFFFF;" version="1.1" viewBox="0 0 1089 666" width="1089.5px" zoomAndPan="magnify"><defs/><g><text fill="#000000" font-family="sans-serif" font-size="7" font-weight="bold" lengthAdjust="spacing" textLength="66" x="512.5" y="15.0537">Sequence Diagram</text><rect fill="#FFFFFF" height="549.4375" style="stroke:#181818;stroke-width:0.5;" width="5" x="37.25" y="66.6211"/><rect fill="#FFFFFF" height="48.5967" style="stroke:#181818;stroke-width:0.5;" width="5" x="198" y="91.9121"/><rect fill="#FFFFFF" height="171.9307" style="stroke:#181818;stroke-width:0.5;" width="5" x="294.75" y="140.5088"/><rect fill="#FFFFFF" height="153.9551" style="stroke:#181818;stroke-width:0.5;" width="5" x="294.75" y="328.085"/><rect fill="#FFFFFF" height="15.6455" style="stroke:#181818;stroke-width:0.5;" width="5" x="294.75" y="497.6855"/><rect fill="#FFFFFF" height="87.082" style="stroke:#181818;stroke-width:0.5;" width="5" x="294.75" y="528.9766"/><rect fill="#FFFFFF" height="109.5186" style="stroke:#181818;stroke-width:0.5;" width="5" x="451.25" y="187.2754"/><rect fill="#FFFFFF" height="109.5186" style="stroke:#181818;stroke-width:0.5;" width="5" x="451.25" y="343.7305"/><rect fill="#FFFFFF" height="52.291" style="stroke:#181818;stroke-width:0.5;" width="5" x="451.25" y="544.6221"/><rect fill="#FFFFFF" height="78.2275" style="stroke:#181818;stroke-width:0.5;" width="5" x="607.75" y="202.9209"/><rect fill="#FFFFFF" height="29.6455" style="stroke:#181818;stroke-width:0.5;" width="5" x="607.75" y="560.2676"/><rect fill="#FFFFFF" height="78.2275" style="stroke:#181818;stroke-width:0.5;" width="5" x="726" y="359.376"/><rect fill="#FFFFFF" height="7" style="stroke:#181818;stroke-width:0.5;" width="5" x="812" y="575.9131"/><rect fill="#FFFFFF" height="46.9365" style="stroke:#181818;stroke-width:0.5;" width="5" x="886" y="218.5664"/><rect fill="#FFFFFF" height="46.9365" style="stroke:#181818;stroke-width:0.5;" width="5" x="973.75" y="375.0215"/><rect fill="#FFFFFF" height="15.6455" style="stroke:#181818;stroke-width:0.5;" width="5" x="1069.75" y="234.2119"/><rect fill="#FFFFFF" height="15.6455" style="stroke:#181818;stroke-width:0.5;" width="5" x="1069.75" y="390.667"/><rect fill="none" height="140.1641" style="stroke:#000000;stroke-width:0.75;" width="840.5" x="5" y="460.749"/><line style="stroke:#181818;stroke-width:0.25;stroke-dasharray:5.0,5.0;" x1="39.5" x2="39.5" y1="61.6211" y2="625.0586"/><line style="stroke:#181818;stroke-width:0.25;stroke-dasharray:5.0,5.0;" x1="200.25" x2="200.25" y1="87.1816" y2="625.0586"/><line style="stroke:#181818;stroke-width:0.25;stroke-dasharray:5.0,5.0;" x1="297.25" x2="297.25" y1="118.3027" y2="625.0586"/><line style="stroke:#181818;stroke-width:0.25;stroke-dasharray:5.0,5.0;" x1="453.75" x2="453.75" y1="165.0693" y2="625.0586"/><line style="stroke:#181818;stroke-width:0.25;stroke-dasharray:5.0,5.0;" x1="610" x2="610" y1="61.6211" y2="625.0586"/><line style="stroke:#181818;stroke-width:0.25;stroke-dasharray:5.0,5.0;" x1="728.5" x2="728.5" y1="61.6211" y2="625.0586"/><line style="stroke:#181818;stroke-width:0.25;stroke-dasharray:5.0,5.0;" x1="814.5" x2="814.5" y1="61.6211" y2="625.0586"/><line style="stroke:#181818;stroke-width:0.25;stroke-dasharray:5.0,5.0;" x1="888.5" x2="888.5" y1="61.6211" y2="625.0586"/><line style="stroke:#181818;stroke-width:0.25;stroke-dasharray:5.0,5.0;" x1="976" x2="976" y1="61.6211" y2="625.0586"/><line style="stroke:#181818;stroke-width:0.25;stroke-dasharray:5.0,5.0;" x1="1072" x2="1072" y1="61.6211" y2="625.0586"/><text fill="#000000" font-family="sans-serif" font-size="7" lengthAdjust="spacing" textLength="56.5" x="10" y="59.8643">CRM Collaborator</text><ellipse cx="39.75" cy="26.5605" fill="#E2E2F0" rx="4" ry="4" style="stroke:#181818;stroke-width:0.25;"/><path d="M39.75,30.5605 L39.75,44.0605 M33.25,34.5605 L46.25,34.5605 M39.75,44.0605 L33.25,51.5605 M39.75,44.0605 L46.25,51.5605 " fill="none" style="stroke:#181818;stroke-width:0.25;"/><text fill="#000000" font-family="sans-serif" font-size="7" lengthAdjust="spacing" textLength="56.5" x="10" y="632.1123">CRM Collaborator</text><ellipse cx="39.75" cy="638.1191" fill="#E2E2F0" rx="4" ry="4" style="stroke:#181818;stroke-width:0.25;"/><path d="M39.75,642.1191 L39.75,655.6191 M33.25,646.1191 L46.25,646.1191 M39.75,655.6191 L33.25,663.1191 M39.75,655.6191 L46.25,663.1191 " fill="none" style="stroke:#181818;stroke-width:0.25;"/><rect fill="#E2E2F0" height="25.6211" rx="1.25" ry="1.25" style="stroke:#181818;stroke-width:0.25;" width="98.5" x="151.25" y="624.5586"/><text fill="#000000" font-family="sans-serif" font-size="7" font-style="italic" lengthAdjust="spacing" textLength="47.5" x="176.75" y="635.6123">&#171;presentation&#187;</text><text fill="#000000" font-family="sans-serif" font-size="7" lengthAdjust="spacing" textLength="91.5" x="154.75" y="644.9229">AddDronesToProposalAction</text><rect fill="#E2E2F0" height="25.6211" rx="1.25" ry="1.25" style="stroke:#181818;stroke-width:0.25;" width="85" x="254.75" y="624.5586"/><text fill="#000000" font-family="sans-serif" font-size="7" font-style="italic" lengthAdjust="spacing" textLength="47.5" x="273.5" y="635.6123">&#171;presentation&#187;</text><text fill="#000000" font-family="sans-serif" font-size="7" lengthAdjust="spacing" textLength="78" x="258.25" y="644.9229">AddDronesToProposalUI</text><rect fill="#E2E2F0" height="25.6211" rx="1.25" ry="1.25" style="stroke:#181818;stroke-width:0.25;" width="110" x="398.75" y="624.5586"/><text fill="#000000" font-family="sans-serif" font-size="7" font-style="italic" lengthAdjust="spacing" textLength="42" x="432.75" y="635.6123">&#171;application&#187;</text><text fill="#000000" font-family="sans-serif" font-size="7" lengthAdjust="spacing" textLength="103" x="402.25" y="644.9229">AddDronesToProposalController</text><rect fill="#E2E2F0" height="25.6211" rx="1.25" ry="1.25" style="stroke:#181818;stroke-width:0.25;" width="116.5" x="552" y="35.5"/><text fill="#000000" font-family="sans-serif" font-size="7" font-style="italic" lengthAdjust="spacing" textLength="42" x="589.25" y="46.5537">&#171;application&#187;</text><text fill="#000000" font-family="sans-serif" font-size="7" lengthAdjust="spacing" textLength="109.5" x="555.5" y="55.8643">ShowProposalManagementService</text><rect fill="#E2E2F0" height="25.6211" rx="1.25" ry="1.25" style="stroke:#181818;stroke-width:0.25;" width="116.5" x="552" y="624.5586"/><text fill="#000000" font-family="sans-serif" font-size="7" font-style="italic" lengthAdjust="spacing" textLength="42" x="589.25" y="635.6123">&#171;application&#187;</text><text fill="#000000" font-family="sans-serif" font-size="7" lengthAdjust="spacing" textLength="109.5" x="555.5" y="644.9229">ShowProposalManagementService</text><rect fill="#E2E2F0" height="25.6211" rx="1.25" ry="1.25" style="stroke:#181818;stroke-width:0.25;" width="110" x="673.5" y="35.5"/><text fill="#000000" font-family="sans-serif" font-size="7" font-style="italic" lengthAdjust="spacing" textLength="42" x="707.5" y="46.5537">&#171;application&#187;</text><text fill="#000000" font-family="sans-serif" font-size="7" lengthAdjust="spacing" textLength="103" x="677" y="55.8643">DroneModelManagementService</text><rect fill="#E2E2F0" height="25.6211" rx="1.25" ry="1.25" style="stroke:#181818;stroke-width:0.25;" width="110" x="673.5" y="624.5586"/><text fill="#000000" font-family="sans-serif" font-size="7" font-style="italic" lengthAdjust="spacing" textLength="42" x="707.5" y="635.6123">&#171;application&#187;</text><text fill="#000000" font-family="sans-serif" font-size="7" lengthAdjust="spacing" textLength="103" x="677" y="644.9229">DroneModelManagementService</text><rect fill="#E2E2F0" height="25.6211" rx="1.25" ry="1.25" style="stroke:#181818;stroke-width:0.25;" width="52" x="788.5" y="35.5"/><text fill="#000000" font-family="sans-serif" font-size="7" font-style="italic" lengthAdjust="spacing" textLength="31" x="799" y="46.5537">&#171;domain&#187;</text><text fill="#000000" font-family="sans-serif" font-size="7" lengthAdjust="spacing" textLength="45" x="792" y="55.8643">ShowProposal</text><rect fill="#E2E2F0" height="25.6211" rx="1.25" ry="1.25" style="stroke:#181818;stroke-width:0.25;" width="52" x="788.5" y="624.5586"/><text fill="#000000" font-family="sans-serif" font-size="7" font-style="italic" lengthAdjust="spacing" textLength="31" x="799" y="635.6123">&#171;domain&#187;</text><text fill="#000000" font-family="sans-serif" font-size="7" lengthAdjust="spacing" textLength="45" x="792" y="644.9229">ShowProposal</text><rect fill="#E2E2F0" height="25.6211" rx="1.25" ry="1.25" style="stroke:#181818;stroke-width:0.25;" width="86" x="845.5" y="35.5"/><text fill="#000000" font-family="sans-serif" font-size="7" font-style="italic" lengthAdjust="spacing" textLength="39.5" x="868.75" y="46.5537">&#171;repository&#187;</text><text fill="#000000" font-family="sans-serif" font-size="7" lengthAdjust="spacing" textLength="79" x="849" y="55.8643">ShowProposalRepository</text><rect fill="#E2E2F0" height="25.6211" rx="1.25" ry="1.25" style="stroke:#181818;stroke-width:0.25;" width="86" x="845.5" y="624.5586"/><text fill="#000000" font-family="sans-serif" font-size="7" font-style="italic" lengthAdjust="spacing" textLength="39.5" x="868.75" y="635.6123">&#171;repository&#187;</text><text fill="#000000" font-family="sans-serif" font-size="7" lengthAdjust="spacing" textLength="79" x="849" y="644.9229">ShowProposalRepository</text><rect fill="#E2E2F0" height="25.6211" rx="1.25" ry="1.25" style="stroke:#181818;stroke-width:0.25;" width="79.5" x="936.5" y="35.5"/><text fill="#000000" font-family="sans-serif" font-size="7" font-style="italic" lengthAdjust="spacing" textLength="39.5" x="956.5" y="46.5537">&#171;repository&#187;</text><text fill="#000000" font-family="sans-serif" font-size="7" lengthAdjust="spacing" textLength="72.5" x="940" y="55.8643">DroneModelRepository</text><rect fill="#E2E2F0" height="25.6211" rx="1.25" ry="1.25" style="stroke:#181818;stroke-width:0.25;" width="79.5" x="936.5" y="624.5586"/><text fill="#000000" font-family="sans-serif" font-size="7" font-style="italic" lengthAdjust="spacing" textLength="39.5" x="956.5" y="635.6123">&#171;repository&#187;</text><text fill="#000000" font-family="sans-serif" font-size="7" lengthAdjust="spacing" textLength="72.5" x="940" y="644.9229">DroneModelRepository</text><text fill="#000000" font-family="sans-serif" font-size="7" lengthAdjust="spacing" textLength="30.5" x="1055.5" y="59.8643">Database</text><path d="M1063.25,34.3105 C1063.25,29.3105 1072.25,29.3105 1072.25,29.3105 C1072.25,29.3105 1081.25,29.3105 1081.25,34.3105 L1081.25,47.3105 C1081.25,52.3105 1072.25,52.3105 1072.25,52.3105 C1072.25,52.3105 1063.25,52.3105 1063.25,47.3105 L1063.25,34.3105 " fill="#E2E2F0" style="stroke:#181818;stroke-width:0.75;"/><path d="M1063.25,34.3105 C1063.25,39.3105 1072.25,39.3105 1072.25,39.3105 C1072.25,39.3105 1081.25,39.3105 1081.25,34.3105 " fill="none" style="stroke:#181818;stroke-width:0.75;"/><text fill="#000000" font-family="sans-serif" font-size="7" lengthAdjust="spacing" textLength="30.5" x="1055.5" y="632.1123">Database</text><path d="M1063.25,638.8691 C1063.25,633.8691 1072.25,633.8691 1072.25,633.8691 C1072.25,633.8691 1081.25,633.8691 1081.25,638.8691 L1081.25,651.8691 C1081.25,656.8691 1072.25,656.8691 1072.25,656.8691 C1072.25,656.8691 1063.25,656.8691 1063.25,651.8691 L1063.25,638.8691 " fill="#E2E2F0" style="stroke:#181818;stroke-width:0.75;"/><path d="M1063.25,638.8691 C1063.25,643.8691 1072.25,643.8691 1072.25,643.8691 C1072.25,643.8691 1081.25,643.8691 1081.25,638.8691 " fill="none" style="stroke:#181818;stroke-width:0.75;"/><rect fill="#FFFFFF" height="549.4375" style="stroke:#181818;stroke-width:0.5;" width="5" x="37.25" y="66.6211"/><rect fill="#FFFFFF" height="48.5967" style="stroke:#181818;stroke-width:0.5;" width="5" x="198" y="91.9121"/><rect fill="#FFFFFF" height="171.9307" style="stroke:#181818;stroke-width:0.5;" width="5" x="294.75" y="140.5088"/><rect fill="#FFFFFF" height="153.9551" style="stroke:#181818;stroke-width:0.5;" width="5" x="294.75" y="328.085"/><rect fill="#FFFFFF" height="15.6455" style="stroke:#181818;stroke-width:0.5;" width="5" x="294.75" y="497.6855"/><rect fill="#FFFFFF" height="87.082" style="stroke:#181818;stroke-width:0.5;" width="5" x="294.75" y="528.9766"/><rect fill="#FFFFFF" height="109.5186" style="stroke:#181818;stroke-width:0.5;" width="5" x="451.25" y="187.2754"/><rect fill="#FFFFFF" height="109.5186" style="stroke:#181818;stroke-width:0.5;" width="5" x="451.25" y="343.7305"/><rect fill="#FFFFFF" height="52.291" style="stroke:#181818;stroke-width:0.5;" width="5" x="451.25" y="544.6221"/><rect fill="#FFFFFF" height="78.2275" style="stroke:#181818;stroke-width:0.5;" width="5" x="607.75" y="202.9209"/><rect fill="#FFFFFF" height="29.6455" style="stroke:#181818;stroke-width:0.5;" width="5" x="607.75" y="560.2676"/><rect fill="#FFFFFF" height="78.2275" style="stroke:#181818;stroke-width:0.5;" width="5" x="726" y="359.376"/><rect fill="#FFFFFF" height="7" style="stroke:#181818;stroke-width:0.5;" width="5" x="812" y="575.9131"/><rect fill="#FFFFFF" height="46.9365" style="stroke:#181818;stroke-width:0.5;" width="5" x="886" y="218.5664"/><rect fill="#FFFFFF" height="46.9365" style="stroke:#181818;stroke-width:0.5;" width="5" x="973.75" y="375.0215"/><rect fill="#FFFFFF" height="15.6455" style="stroke:#181818;stroke-width:0.5;" width="5" x="1069.75" y="234.2119"/><rect fill="#FFFFFF" height="15.6455" style="stroke:#181818;stroke-width:0.5;" width="5" x="1069.75" y="390.667"/><polygon fill="#181818" points="145.25,84.9121,150.25,86.9121,145.25,88.9121,147.25,86.9121" style="stroke:#181818;stroke-width:0.5;"/><line style="stroke:#181818;stroke-width:0.5;" x1="42.25" x2="148.25" y1="86.9121" y2="86.9121"/><text fill="#000000" font-family="sans-serif" font-size="6.5" lengthAdjust="spacing" textLength="83" x="45.75" y="75.6353">Wants to configure the list of</text><text fill="#000000" font-family="sans-serif" font-size="6.5" lengthAdjust="spacing" textLength="95" x="47.75" y="84.2808">drone models of a show proposal</text><rect fill="#E2E2F0" height="25.6211" rx="1.25" ry="1.25" style="stroke:#181818;stroke-width:0.25;" width="98.5" x="151.25" y="66.6211"/><text fill="#000000" font-family="sans-serif" font-size="7" font-style="italic" lengthAdjust="spacing" textLength="47.5" x="176.75" y="77.6748">&#171;presentation&#187;</text><text fill="#000000" font-family="sans-serif" font-size="7" lengthAdjust="spacing" textLength="91.5" x="154.75" y="86.9854">AddDronesToProposalAction</text><polygon fill="#181818" points="248.75,107.3877,253.75,109.3877,248.75,111.3877,250.75,109.3877" style="stroke:#181818;stroke-width:0.5;"/><line style="stroke:#181818;stroke-width:0.5;" x1="203" x2="251.75" y1="109.3877" y2="109.3877"/><text fill="#000000" font-family="sans-serif" font-size="6.5" lengthAdjust="spacing" textLength="18" x="206.5" y="106.7563">create</text><rect fill="#E2E2F0" height="25.6211" rx="1.25" ry="1.25" style="stroke:#181818;stroke-width:0.25;" width="85" x="254.75" y="97.7422"/><text fill="#000000" font-family="sans-serif" font-size="7" font-style="italic" lengthAdjust="spacing" textLength="47.5" x="273.5" y="108.7959">&#171;presentation&#187;</text><text fill="#000000" font-family="sans-serif" font-size="7" lengthAdjust="spacing" textLength="78" x="258.25" y="118.1064">AddDronesToProposalUI</text><polygon fill="#181818" points="288.75,138.5088,293.75,140.5088,288.75,142.5088,290.75,140.5088" style="stroke:#181818;stroke-width:0.5;"/><line style="stroke:#181818;stroke-width:0.5;" x1="200.5" x2="291.75" y1="140.5088" y2="140.5088"/><text fill="#000000" font-family="sans-serif" font-size="6.5" lengthAdjust="spacing" textLength="19" x="204" y="137.8774">show()</text><polygon fill="#181818" points="392.75,154.1543,397.75,156.1543,392.75,158.1543,394.75,156.1543" style="stroke:#181818;stroke-width:0.5;"/><line style="stroke:#181818;stroke-width:0.5;" x1="299.75" x2="395.75" y1="156.1543" y2="156.1543"/><text fill="#000000" font-family="sans-serif" font-size="6.5" lengthAdjust="spacing" textLength="18" x="303.25" y="153.5229">create</text><rect fill="#E2E2F0" height="25.6211" rx="1.25" ry="1.25" style="stroke:#181818;stroke-width:0.25;" width="110" x="398.75" y="144.5088"/><text fill="#000000" font-family="sans-serif" font-size="7" font-style="italic" lengthAdjust="spacing" textLength="42" x="432.75" y="155.5625">&#171;application&#187;</text><text fill="#000000" font-family="sans-serif" font-size="7" lengthAdjust="spacing" textLength="103" x="402.25" y="164.873">AddDronesToProposalController</text><polygon fill="#181818" points="445.25,185.2754,450.25,187.2754,445.25,189.2754,447.25,187.2754" style="stroke:#181818;stroke-width:0.5;"/><line style="stroke:#181818;stroke-width:0.5;" x1="299.75" x2="448.25" y1="187.2754" y2="187.2754"/><text fill="#000000" font-family="sans-serif" font-size="6.5" lengthAdjust="spacing" textLength="68.5" x="303.25" y="184.644">getListShowProposals()</text><polygon fill="#181818" points="601.75,200.9209,606.75,202.9209,601.75,204.9209,603.75,202.9209" style="stroke:#181818;stroke-width:0.5;"/><line style="stroke:#181818;stroke-width:0.5;" x1="456.25" x2="604.75" y1="202.9209" y2="202.9209"/><text fill="#000000" font-family="sans-serif" font-size="6.5" lengthAdjust="spacing" textLength="68.5" x="459.75" y="200.2896">getListShowProposals()</text><polygon fill="#181818" points="880,216.5664,885,218.5664,880,220.5664,882,218.5664" style="stroke:#181818;stroke-width:0.5;"/><line style="stroke:#181818;stroke-width:0.5;" x1="612.75" x2="883" y1="218.5664" y2="218.5664"/><text fill="#000000" font-family="sans-serif" font-size="6.5" lengthAdjust="spacing" textLength="21.5" x="616.25" y="215.9351">findAll()</text><polygon fill="#181818" points="1063.75,232.2119,1068.75,234.2119,1063.75,236.2119,1065.75,234.2119" style="stroke:#181818;stroke-width:0.5;"/><line style="stroke:#181818;stroke-width:0.5;" x1="891" x2="1066.75" y1="234.2119" y2="234.2119"/><text fill="#000000" font-family="sans-serif" font-size="6.5" lengthAdjust="spacing" textLength="21.5" x="894.5" y="231.5806">findAll()</text><polygon fill="#181818" points="896.5,247.8574,891.5,249.8574,896.5,251.8574,894.5,249.8574" style="stroke:#181818;stroke-width:0.5;"/><line style="stroke:#181818;stroke-width:0.5;stroke-dasharray:2.0,2.0;" x1="893.5" x2="1071.75" y1="249.8574" y2="249.8574"/><text fill="#000000" font-family="sans-serif" font-size="6.5" lengthAdjust="spacing" textLength="66.5" x="899.5" y="247.2261">List of Show Proposals</text><polygon fill="#181818" points="618.25,263.5029,613.25,265.5029,618.25,267.5029,616.25,265.5029" style="stroke:#181818;stroke-width:0.5;"/><line style="stroke:#181818;stroke-width:0.5;stroke-dasharray:2.0,2.0;" x1="615.25" x2="888" y1="265.5029" y2="265.5029"/><text fill="#000000" font-family="sans-serif" font-size="6.5" lengthAdjust="spacing" textLength="66.5" x="621.25" y="262.8716">List of Show Proposals</text><polygon fill="#181818" points="461.75,279.1484,456.75,281.1484,461.75,283.1484,459.75,281.1484" style="stroke:#181818;stroke-width:0.5;"/><line style="stroke:#181818;stroke-width:0.5;stroke-dasharray:2.0,2.0;" x1="458.75" x2="609.75" y1="281.1484" y2="281.1484"/><text fill="#000000" font-family="sans-serif" font-size="6.5" lengthAdjust="spacing" textLength="66.5" x="464.75" y="278.5171">List of Show Proposals</text><polygon fill="#181818" points="305.25,294.7939,300.25,296.7939,305.25,298.7939,303.25,296.7939" style="stroke:#181818;stroke-width:0.5;"/><line style="stroke:#181818;stroke-width:0.5;stroke-dasharray:2.0,2.0;" x1="302.25" x2="453.25" y1="296.7939" y2="296.7939"/><text fill="#000000" font-family="sans-serif" font-size="6.5" lengthAdjust="spacing" textLength="66.5" x="308.25" y="294.1626">List of Show Proposals</text><polygon fill="#181818" points="47.75,310.4395,42.75,312.4395,47.75,314.4395,45.75,312.4395" style="stroke:#181818;stroke-width:0.5;"/><line style="stroke:#181818;stroke-width:0.5;stroke-dasharray:2.0,2.0;" x1="44.75" x2="296.75" y1="312.4395" y2="312.4395"/><text fill="#000000" font-family="sans-serif" font-size="6.5" lengthAdjust="spacing" textLength="80.5" x="50.75" y="309.8081">Show list of show proposals</text><polygon fill="#181818" points="288.75,326.085,293.75,328.085,288.75,330.085,290.75,328.085" style="stroke:#181818;stroke-width:0.5;"/><line style="stroke:#181818;stroke-width:0.5;" x1="42.25" x2="291.75" y1="328.085" y2="328.085"/><text fill="#000000" font-family="sans-serif" font-size="6.5" lengthAdjust="spacing" textLength="65.5" x="45.75" y="325.4536">Choose show proposal</text><polygon fill="#181818" points="445.25,341.7305,450.25,343.7305,445.25,345.7305,447.25,343.7305" style="stroke:#181818;stroke-width:0.5;"/><line style="stroke:#181818;stroke-width:0.5;" x1="299.75" x2="448.25" y1="343.7305" y2="343.7305"/><text fill="#000000" font-family="sans-serif" font-size="6.5" lengthAdjust="spacing" textLength="61.5" x="303.25" y="341.0991">getListDroneModels()</text><polygon fill="#181818" points="720,357.376,725,359.376,720,361.376,722,359.376" style="stroke:#181818;stroke-width:0.5;"/><line style="stroke:#181818;stroke-width:0.5;" x1="456.25" x2="723" y1="359.376" y2="359.376"/><text fill="#000000" font-family="sans-serif" font-size="6.5" lengthAdjust="spacing" textLength="68" x="459.75" y="356.7446">listActiveDroneModels()</text><polygon fill="#181818" points="967.75,373.0215,972.75,375.0215,967.75,377.0215,969.75,375.0215" style="stroke:#181818;stroke-width:0.5;"/><line style="stroke:#181818;stroke-width:0.5;" x1="731" x2="970.75" y1="375.0215" y2="375.0215"/><text fill="#000000" font-family="sans-serif" font-size="6.5" lengthAdjust="spacing" textLength="50.5" x="734.5" y="372.3901">findByActive(true)</text><polygon fill="#181818" points="1063.75,388.667,1068.75,390.667,1063.75,392.667,1065.75,390.667" style="stroke:#181818;stroke-width:0.5;"/><line style="stroke:#181818;stroke-width:0.5;" x1="978.75" x2="1066.75" y1="390.667" y2="390.667"/><text fill="#000000" font-family="sans-serif" font-size="6.5" lengthAdjust="spacing" textLength="50.5" x="982.25" y="388.0356">findByActive(true)</text><polygon fill="#181818" points="984.25,404.3125,979.25,406.3125,984.25,408.3125,982.25,406.3125" style="stroke:#181818;stroke-width:0.5;"/><line style="stroke:#181818;stroke-width:0.5;stroke-dasharray:2.0,2.0;" x1="981.25" x2="1071.75" y1="406.3125" y2="406.3125"/><text fill="#000000" font-family="sans-serif" font-size="6.5" lengthAdjust="spacing" textLength="79" x="987.25" y="403.6812">List of Active Drone Models</text><polygon fill="#181818" points="736.5,419.958,731.5,421.958,736.5,423.958,734.5,421.958" style="stroke:#181818;stroke-width:0.5;"/><line style="stroke:#181818;stroke-width:0.5;stroke-dasharray:2.0,2.0;" x1="733.5" x2="975.75" y1="421.958" y2="421.958"/><text fill="#000000" font-family="sans-serif" font-size="6.5" lengthAdjust="spacing" textLength="79" x="739.5" y="419.3267">List of Active Drone Models</text><polygon fill="#181818" points="461.75,435.6035,456.75,437.6035,461.75,439.6035,459.75,437.6035" style="stroke:#181818;stroke-width:0.5;"/><line style="stroke:#181818;stroke-width:0.5;stroke-dasharray:2.0,2.0;" x1="458.75" x2="728" y1="437.6035" y2="437.6035"/><text fill="#000000" font-family="sans-serif" font-size="6.5" lengthAdjust="spacing" textLength="79" x="464.75" y="434.9722">List of Active Drone Models</text><polygon fill="#181818" points="305.25,451.249,300.25,453.249,305.25,455.249,303.25,453.249" style="stroke:#181818;stroke-width:0.5;"/><line style="stroke:#181818;stroke-width:0.5;stroke-dasharray:2.0,2.0;" x1="302.25" x2="453.25" y1="453.249" y2="453.249"/><text fill="#000000" font-family="sans-serif" font-size="6.5" lengthAdjust="spacing" textLength="79" x="308.25" y="450.6177">List of Active Drone Models</text><path d="M5,460.749 L41.5,460.749 L41.5,465.3945 L36.5,470.3945 L5,470.3945 L5,460.749 " fill="#EEEEEE" style="stroke:#000000;stroke-width:0.75;"/><rect fill="none" height="140.1641" style="stroke:#000000;stroke-width:0.75;" width="840.5" x="5" y="460.749"/><text fill="#000000" font-family="sans-serif" font-size="6.5" font-weight="bold" lengthAdjust="spacing" textLength="14" x="12.5" y="468.2632">loop</text><text fill="#000000" font-family="sans-serif" font-size="5.5" font-weight="bold" lengthAdjust="spacing" textLength="110.5" x="49" y="467.6841">[While user wants to add drone Models]</text><polygon fill="#181818" points="47.75,480.04,42.75,482.04,47.75,484.04,45.75,482.04" style="stroke:#181818;stroke-width:0.5;"/><line style="stroke:#181818;stroke-width:0.5;stroke-dasharray:2.0,2.0;" x1="44.75" x2="296.75" y1="482.04" y2="482.04"/><text fill="#000000" font-family="sans-serif" font-size="6.5" lengthAdjust="spacing" textLength="74.5" x="50.75" y="479.4087">Show list of drone models</text><polygon fill="#181818" points="288.75,495.6855,293.75,497.6855,288.75,499.6855,290.75,497.6855" style="stroke:#181818;stroke-width:0.5;"/><line style="stroke:#181818;stroke-width:0.5;" x1="42.25" x2="291.75" y1="497.6855" y2="497.6855"/><text fill="#000000" font-family="sans-serif" font-size="6.5" lengthAdjust="spacing" textLength="59.5" x="45.75" y="495.0542">Choose drone model</text><polygon fill="#181818" points="47.75,511.3311,42.75,513.3311,47.75,515.3311,45.75,513.3311" style="stroke:#181818;stroke-width:0.5;"/><line style="stroke:#181818;stroke-width:0.5;stroke-dasharray:2.0,2.0;" x1="44.75" x2="296.75" y1="513.3311" y2="513.3311"/><text fill="#000000" font-family="sans-serif" font-size="6.5" lengthAdjust="spacing" textLength="76" x="50.75" y="510.6997">Request number of drones</text><polygon fill="#181818" points="288.75,526.9766,293.75,528.9766,288.75,530.9766,290.75,528.9766" style="stroke:#181818;stroke-width:0.5;"/><line style="stroke:#181818;stroke-width:0.5;" x1="42.25" x2="291.75" y1="528.9766" y2="528.9766"/><text fill="#000000" font-family="sans-serif" font-size="6.5" lengthAdjust="spacing" textLength="73" x="45.75" y="526.3452">Provide number of drones</text><polygon fill="#181818" points="445.25,542.6221,450.25,544.6221,445.25,546.6221,447.25,544.6221" style="stroke:#181818;stroke-width:0.5;"/><line style="stroke:#181818;stroke-width:0.5;" x1="299.75" x2="448.25" y1="544.6221" y2="544.6221"/><text fill="#000000" font-family="sans-serif" font-size="6.5" lengthAdjust="spacing" textLength="142" x="303.25" y="541.9907">addDroneModelToProposal(droneModel, quantity)</text><polygon fill="#181818" points="601.75,558.2676,606.75,560.2676,601.75,562.2676,603.75,560.2676" style="stroke:#181818;stroke-width:0.5;"/><line style="stroke:#181818;stroke-width:0.5;" x1="456.25" x2="604.75" y1="560.2676" y2="560.2676"/><text fill="#000000" font-family="sans-serif" font-size="6.5" lengthAdjust="spacing" textLength="142" x="459.75" y="557.6362">addDroneModelToProposal(droneModel, quantity)</text><polygon fill="#181818" points="806,573.9131,811,575.9131,806,577.9131,808,575.9131" style="stroke:#181818;stroke-width:0.5;"/><line style="stroke:#181818;stroke-width:0.5;" x1="612.75" x2="809" y1="575.9131" y2="575.9131"/><text fill="#000000" font-family="sans-serif" font-size="6.5" lengthAdjust="spacing" textLength="132.5" x="616.25" y="573.2817">updateListDroneModels(droneModel, quantity)</text><polygon fill="#181818" points="618.25,580.9131,613.25,582.9131,618.25,584.9131,616.25,582.9131" style="stroke:#181818;stroke-width:0.5;"/><line style="stroke:#181818;stroke-width:0.5;stroke-dasharray:2.0,2.0;" x1="615.25" x2="814" y1="582.9131" y2="582.9131"/><polygon fill="#181818" points="461.75,587.9131,456.75,589.9131,461.75,591.9131,459.75,589.9131" style="stroke:#181818;stroke-width:0.5;"/><line style="stroke:#181818;stroke-width:0.5;stroke-dasharray:2.0,2.0;" x1="458.75" x2="609.75" y1="589.9131" y2="589.9131"/><polygon fill="#181818" points="305.25,594.9131,300.25,596.9131,305.25,598.9131,303.25,596.9131" style="stroke:#181818;stroke-width:0.5;"/><line style="stroke:#181818;stroke-width:0.5;stroke-dasharray:2.0,2.0;" x1="302.25" x2="453.25" y1="596.9131" y2="596.9131"/><polygon fill="#181818" points="45.25,614.0586,40.25,616.0586,45.25,618.0586,43.25,616.0586" style="stroke:#181818;stroke-width:0.5;"/><line style="stroke:#181818;stroke-width:0.5;stroke-dasharray:2.0,2.0;" x1="42.25" x2="296.75" y1="616.0586" y2="616.0586"/><text fill="#000000" font-family="sans-serif" font-size="6.5" lengthAdjust="spacing" textLength="102" x="48.25" y="613.4272">Confirm if operation was successful</text><!--SRC=[jLTDR-8m4BtdLunwecZx1w8AYQKNf2AjO54lUp7n09P2dDeE5Vz-n_d-S1oAThb0xCnxp_QyyM24YH5s-9bX4Y6y2NPIx184B39ImTDgku6LZ6Dsa8hHo1Cm3Kix5wHC6H69b2K6dfQSlocPeFujVocPIirYUal8f0gWd_3wcYhKc1Xc7nUBIOZzEW_VhxyVkfA9KIGS2ydD8q6nD8r5v4JQdULN1R5X2JlXXKXtgAuYmXp9-uOVFDUuaHn7e3tpzwiUYAHGBYzCUAEsI5-2ZlKsY6-c24dL3-EBws6v9lf8d1bsO1e9flnLX9OFUJgAApDOvbwGVy7Beaoj-Jo43vAXmKY8P78KfqmXc3D2BBG1UVoJ0BT2u6ALQ1e11fgM2McvpYu9WUOiDc-9Ph-Upo64I27DTyR376Ns70GS-m10dtfilmu2ocGAQfAn3TgV2-64vftKjmz3Mw8ER1DGJDXFAzi9qfkneomLLataXMcu_VxeoMao8eIZIFWoZgUecn0tPol9YApA82zyasRLL3K2Bnx1xqLcvVDGRrsDqKg7cc1AyFHftKywicbtdbCl5H-Z7QQ9AqDB6taeMl3jTBUEAKg098bvNEdshhDrsvhMXdNriBohivHqqhrQCFHk9NtKfqsXS_h7PTIXMJrtG9YlpfQMAxgvkbazZjGLuBjsEehwRlrvAyJCZCfmKeNBk4C9Fljw-2RyxFIrUs5L6XPKnKjGxFG0pcTn_zAcJlfU5Mq5hfs- -vn7_FuG_qEszp6D-DzEnLAcy74MrCHccc2_gYw0SLxU-2LOK9btf6IqsuD-rQdyxoeShJXtqUXoRcshJOn9TZcGtehuFaegYrV1qHti9EuUAoiRvNnBccPvnkl17_2PqHOAStl-ntt6zxd_U_iHGfPIwudzwls09BU2wHjzwWfzwBv-x5uUcDDpzzePJBWZlrUs-rON44UGAQhy_mgvKeFEeWYrFcQn8zMxlJDr-7y1]--></g></svg>