<?xml version="1.0" encoding="us-ascii" standalone="no"?><svg xmlns="http://www.w3.org/2000/svg" xmlns:xlink="http://www.w3.org/1999/xlink" contentStyleType="text/css" height="1038.5px" preserveAspectRatio="none" style="width:1510px;height:1038px;background:#FFFFFF;" version="1.1" viewBox="0 0 1510 1038" width="1510.5px" zoomAndPan="magnify"><defs/><g><text fill="#000000" font-family="sans-serif" font-size="7" font-weight="bold" lengthAdjust="spacing" textLength="66" x="723.125" y="15.0537">Sequence Diagram</text><rect fill="#FFFFFF" height="921.6387" style="stroke:#181818;stroke-width:0.5;" width="5" x="37.25" y="66.6211"/><rect fill="#FFFFFF" height="48.5967" style="stroke:#181818;stroke-width:0.5;" width="5" x="198" y="91.9121"/><rect fill="#FFFFFF" height="171.9307" style="stroke:#181818;stroke-width:0.5;" width="5" x="294.75" y="140.5088"/><rect fill="#FFFFFF" height="153.9551" style="stroke:#181818;stroke-width:0.5;" width="5" x="294.75" y="328.085"/><rect fill="#FFFFFF" height="15.6455" style="stroke:#181818;stroke-width:0.5;" width="5" x="294.75" y="497.6855"/><rect fill="#FFFFFF" height="459.2832" style="stroke:#181818;stroke-width:0.5;" width="5" x="294.75" y="528.9766"/><rect fill="#FFFFFF" height="109.5186" style="stroke:#181818;stroke-width:0.5;" width="5" x="521.75" y="187.2754"/><rect fill="#FFFFFF" height="109.5186" style="stroke:#181818;stroke-width:0.5;" width="5" x="521.75" y="343.7305"/><rect fill="#FFFFFF" height="262.6826" style="stroke:#181818;stroke-width:0.5;" width="5" x="521.75" y="544.6221"/><rect fill="#FFFFFF" height="146.1641" style="stroke:#181818;stroke-width:0.5;" width="5" x="521.75" y="826.4502"/><rect fill="#FFFFFF" height="52.291" style="stroke:#181818;stroke-width:0.5;" width="5" x="722.75" y="748.0137"/><rect fill="#FFFFFF" height="29.6455" style="stroke:#181818;stroke-width:0.5;" width="5" x="848.75" y="763.6592"/><rect fill="#FFFFFF" height="7" style="stroke:#181818;stroke-width:0.5;" width="5" x="1025.75" y="779.3047"/><rect fill="#FFFFFF" height="15.6455" style="stroke:#181818;stroke-width:0.5;" width="5" x="1100" y="265.5029"/><rect fill="#FFFFFF" height="78.2275" style="stroke:#181818;stroke-width:0.5;" width="5" x="1100" y="654.1406"/><rect fill="#FFFFFF" height="78.2275" style="stroke:#181818;stroke-width:0.5;" width="5" x="1100" y="842.0957"/><rect fill="#FFFFFF" height="15.6455" style="stroke:#181818;stroke-width:0.5;" width="5" x="1189.75" y="421.958"/><rect fill="#FFFFFF" height="78.2275" style="stroke:#181818;stroke-width:0.5;" width="5" x="1189.75" y="560.2676"/><rect fill="#FFFFFF" height="46.9365" style="stroke:#181818;stroke-width:0.5;" width="5" x="1278.5" y="202.9209"/><rect fill="#FFFFFF" height="46.9365" style="stroke:#181818;stroke-width:0.5;" width="5" x="1278.5" y="669.7861"/><rect fill="#FFFFFF" height="46.9365" style="stroke:#181818;stroke-width:0.5;" width="5" x="1278.5" y="857.7412"/><rect fill="#FFFFFF" height="29.6455" style="stroke:#181818;stroke-width:0.5;" width="5" x="1278.5" y="935.9688"/><rect fill="#FFFFFF" height="46.9365" style="stroke:#181818;stroke-width:0.5;" width="5" x="1366.25" y="359.376"/><rect fill="#FFFFFF" height="46.9365" style="stroke:#181818;stroke-width:0.5;" width="5" x="1366.25" y="575.9131"/><rect fill="#FFFFFF" height="15.6455" style="stroke:#181818;stroke-width:0.5;" width="5" x="1483.5" y="218.5664"/><rect fill="#FFFFFF" height="15.6455" style="stroke:#181818;stroke-width:0.5;" width="5" x="1483.5" y="375.0215"/><rect fill="#FFFFFF" height="15.6455" style="stroke:#181818;stroke-width:0.5;" width="5" x="1483.5" y="591.5586"/><rect fill="#FFFFFF" height="15.6455" style="stroke:#181818;stroke-width:0.5;" width="5" x="1483.5" y="685.4316"/><rect fill="#FFFFFF" height="15.6455" style="stroke:#181818;stroke-width:0.5;" width="5" x="1483.5" y="873.3867"/><rect fill="#FFFFFF" height="7" style="stroke:#181818;stroke-width:0.5;" width="5" x="1483.5" y="951.6143"/><rect fill="none" height="350.5557" style="stroke:#000000;stroke-width:0.75;" width="1502.75" x="5" y="460.749"/><line style="stroke:#181818;stroke-width:0.25;stroke-dasharray:5.0,5.0;" x1="39.5" x2="39.5" y1="61.6211" y2="997.2598"/><line style="stroke:#181818;stroke-width:0.25;stroke-dasharray:5.0,5.0;" x1="200.25" x2="200.25" y1="87.1816" y2="997.2598"/><line style="stroke:#181818;stroke-width:0.25;stroke-dasharray:5.0,5.0;" x1="297.25" x2="297.25" y1="118.3027" y2="997.2598"/><line style="stroke:#181818;stroke-width:0.25;stroke-dasharray:5.0,5.0;" x1="524.25" x2="524.25" y1="165.0693" y2="997.2598"/><line style="stroke:#181818;stroke-width:0.25;stroke-dasharray:5.0,5.0;" x1="725" x2="725" y1="61.6211" y2="997.2598"/><line style="stroke:#181818;stroke-width:0.25;stroke-dasharray:5.0,5.0;" x1="851.25" x2="851.25" y1="61.6211" y2="997.2598"/><line style="stroke:#181818;stroke-width:0.25;stroke-dasharray:5.0,5.0;" x1="1028" x2="1028" y1="61.6211" y2="997.2598"/><line style="stroke:#181818;stroke-width:0.25;stroke-dasharray:5.0,5.0;" x1="1102.5" x2="1102.5" y1="61.6211" y2="997.2598"/><line style="stroke:#181818;stroke-width:0.25;stroke-dasharray:5.0,5.0;" x1="1192" x2="1192" y1="61.6211" y2="997.2598"/><line style="stroke:#181818;stroke-width:0.25;stroke-dasharray:5.0,5.0;" x1="1281" x2="1281" y1="61.6211" y2="997.2598"/><line style="stroke:#181818;stroke-width:0.25;stroke-dasharray:5.0,5.0;" x1="1368.5" x2="1368.5" y1="61.6211" y2="997.2598"/><line style="stroke:#181818;stroke-width:0.25;stroke-dasharray:5.0,5.0;" x1="1485.75" x2="1485.75" y1="61.6211" y2="997.2598"/><text fill="#000000" font-family="sans-serif" font-size="7" lengthAdjust="spacing" textLength="56.5" x="10" y="59.8643">CRM Collaborator</text><ellipse cx="39.75" cy="26.5605" fill="#E2E2F0" rx="4" ry="4" style="stroke:#181818;stroke-width:0.25;"/><path d="M39.75,30.5605 L39.75,44.0605 M33.25,34.5605 L46.25,34.5605 M39.75,44.0605 L33.25,51.5605 M39.75,44.0605 L46.25,51.5605 " fill="none" style="stroke:#181818;stroke-width:0.25;"/><text fill="#000000" font-family="sans-serif" font-size="7" lengthAdjust="spacing" textLength="56.5" x="10" y="1004.3135">CRM Collaborator</text><ellipse cx="39.75" cy="1010.3203" fill="#E2E2F0" rx="4" ry="4" style="stroke:#181818;stroke-width:0.25;"/><path d="M39.75,1014.3203 L39.75,1027.8203 M33.25,1018.3203 L46.25,1018.3203 M39.75,1027.8203 L33.25,1035.3203 M39.75,1027.8203 L46.25,1035.3203 " fill="none" style="stroke:#181818;stroke-width:0.25;"/><rect fill="#E2E2F0" height="25.6211" rx="1.25" ry="1.25" style="stroke:#181818;stroke-width:0.25;" width="98.5" x="151.25" y="996.7598"/><text fill="#000000" font-family="sans-serif" font-size="7" font-style="italic" lengthAdjust="spacing" textLength="47.5" x="176.75" y="1007.8135">&#171;presentation&#187;</text><text fill="#000000" font-family="sans-serif" font-size="7" lengthAdjust="spacing" textLength="91.5" x="154.75" y="1017.124">AddDronesToProposalAction</text><rect fill="#E2E2F0" height="25.6211" rx="1.25" ry="1.25" style="stroke:#181818;stroke-width:0.25;" width="85" x="254.75" y="996.7598"/><text fill="#000000" font-family="sans-serif" font-size="7" font-style="italic" lengthAdjust="spacing" textLength="47.5" x="273.5" y="1007.8135">&#171;presentation&#187;</text><text fill="#000000" font-family="sans-serif" font-size="7" lengthAdjust="spacing" textLength="78" x="258.25" y="1017.124">AddDronesToProposalUI</text><rect fill="#E2E2F0" height="25.6211" rx="1.25" ry="1.25" style="stroke:#181818;stroke-width:0.25;" width="110" x="469.25" y="996.7598"/><text fill="#000000" font-family="sans-serif" font-size="7" font-style="italic" lengthAdjust="spacing" textLength="42" x="503.25" y="1007.8135">&#171;application&#187;</text><text fill="#000000" font-family="sans-serif" font-size="7" lengthAdjust="spacing" textLength="103" x="472.75" y="1017.124">AddDronesToProposalController</text><rect fill="#E2E2F0" height="25.6211" rx="1.25" ry="1.25" style="stroke:#181818;stroke-width:0.25;" width="121.5" x="664.5" y="35.5"/><text fill="#000000" font-family="sans-serif" font-size="7" font-style="italic" lengthAdjust="spacing" textLength="31" x="709.75" y="46.5537">&#171;domain&#187;</text><text fill="#000000" font-family="sans-serif" font-size="7" lengthAdjust="spacing" textLength="114.5" x="668" y="55.8643">AddDroneModelsToProposalService</text><rect fill="#E2E2F0" height="25.6211" rx="1.25" ry="1.25" style="stroke:#181818;stroke-width:0.25;" width="121.5" x="664.5" y="996.7598"/><text fill="#000000" font-family="sans-serif" font-size="7" font-style="italic" lengthAdjust="spacing" textLength="31" x="709.75" y="1007.8135">&#171;domain&#187;</text><text fill="#000000" font-family="sans-serif" font-size="7" lengthAdjust="spacing" textLength="114.5" x="668" y="1017.124">AddDroneModelsToProposalService</text><rect fill="#E2E2F0" height="25.6211" rx="1.25" ry="1.25" style="stroke:#181818;stroke-width:0.25;" width="52" x="825.25" y="35.5"/><text fill="#000000" font-family="sans-serif" font-size="7" font-style="italic" lengthAdjust="spacing" textLength="31" x="835.75" y="46.5537">&#171;domain&#187;</text><text fill="#000000" font-family="sans-serif" font-size="7" lengthAdjust="spacing" textLength="45" x="828.75" y="55.8643">ShowProposal</text><rect fill="#E2E2F0" height="25.6211" rx="1.25" ry="1.25" style="stroke:#181818;stroke-width:0.25;" width="52" x="825.25" y="996.7598"/><text fill="#000000" font-family="sans-serif" font-size="7" font-style="italic" lengthAdjust="spacing" textLength="31" x="835.75" y="1007.8135">&#171;domain&#187;</text><text fill="#000000" font-family="sans-serif" font-size="7" lengthAdjust="spacing" textLength="45" x="828.75" y="1017.124">ShowProposal</text><rect fill="#E2E2F0" height="25.6211" rx="1.25" ry="1.25" style="stroke:#181818;stroke-width:0.25;" width="50.5" x="1003" y="35.5"/><text fill="#000000" font-family="sans-serif" font-size="7" font-style="italic" lengthAdjust="spacing" textLength="31" x="1012.75" y="46.5537">&#171;domain&#187;</text><text fill="#000000" font-family="sans-serif" font-size="7" lengthAdjust="spacing" textLength="43.5" x="1006.5" y="55.8643">DroneListItem</text><rect fill="#E2E2F0" height="25.6211" rx="1.25" ry="1.25" style="stroke:#181818;stroke-width:0.25;" width="50.5" x="1003" y="996.7598"/><text fill="#000000" font-family="sans-serif" font-size="7" font-style="italic" lengthAdjust="spacing" textLength="31" x="1012.75" y="1007.8135">&#171;domain&#187;</text><text fill="#000000" font-family="sans-serif" font-size="7" lengthAdjust="spacing" textLength="43.5" x="1006.5" y="1017.124">DroneListItem</text><rect fill="#E2E2F0" height="25.6211" rx="1.25" ry="1.25" style="stroke:#181818;stroke-width:0.25;" width="88" x="1058.5" y="35.5"/><text fill="#000000" font-family="sans-serif" font-size="7" font-style="italic" lengthAdjust="spacing" textLength="18" x="1093.5" y="46.5537">&#171;dto&#187;</text><text fill="#000000" font-family="sans-serif" font-size="7" lengthAdjust="spacing" textLength="81" x="1062" y="55.8643">ShowProposalDTOParser</text><rect fill="#E2E2F0" height="25.6211" rx="1.25" ry="1.25" style="stroke:#181818;stroke-width:0.25;" width="88" x="1058.5" y="996.7598"/><text fill="#000000" font-family="sans-serif" font-size="7" font-style="italic" lengthAdjust="spacing" textLength="18" x="1093.5" y="1007.8135">&#171;dto&#187;</text><text fill="#000000" font-family="sans-serif" font-size="7" lengthAdjust="spacing" textLength="81" x="1062" y="1017.124">ShowProposalDTOParser</text><rect fill="#E2E2F0" height="25.6211" rx="1.25" ry="1.25" style="stroke:#181818;stroke-width:0.25;" width="81.5" x="1151.5" y="35.5"/><text fill="#000000" font-family="sans-serif" font-size="7" font-style="italic" lengthAdjust="spacing" textLength="18" x="1183.25" y="46.5537">&#171;dto&#187;</text><text fill="#000000" font-family="sans-serif" font-size="7" lengthAdjust="spacing" textLength="74.5" x="1155" y="55.8643">DroneModelDTOParser</text><rect fill="#E2E2F0" height="25.6211" rx="1.25" ry="1.25" style="stroke:#181818;stroke-width:0.25;" width="81.5" x="1151.5" y="996.7598"/><text fill="#000000" font-family="sans-serif" font-size="7" font-style="italic" lengthAdjust="spacing" textLength="18" x="1183.25" y="1007.8135">&#171;dto&#187;</text><text fill="#000000" font-family="sans-serif" font-size="7" lengthAdjust="spacing" textLength="74.5" x="1155" y="1017.124">DroneModelDTOParser</text><rect fill="#E2E2F0" height="25.6211" rx="1.25" ry="1.25" style="stroke:#181818;stroke-width:0.25;" width="86" x="1238" y="35.5"/><text fill="#000000" font-family="sans-serif" font-size="7" font-style="italic" lengthAdjust="spacing" textLength="39.5" x="1261.25" y="46.5537">&#171;repository&#187;</text><text fill="#000000" font-family="sans-serif" font-size="7" lengthAdjust="spacing" textLength="79" x="1241.5" y="55.8643">ShowProposalRepository</text><rect fill="#E2E2F0" height="25.6211" rx="1.25" ry="1.25" style="stroke:#181818;stroke-width:0.25;" width="86" x="1238" y="996.7598"/><text fill="#000000" font-family="sans-serif" font-size="7" font-style="italic" lengthAdjust="spacing" textLength="39.5" x="1261.25" y="1007.8135">&#171;repository&#187;</text><text fill="#000000" font-family="sans-serif" font-size="7" lengthAdjust="spacing" textLength="79" x="1241.5" y="1017.124">ShowProposalRepository</text><rect fill="#E2E2F0" height="25.6211" rx="1.25" ry="1.25" style="stroke:#181818;stroke-width:0.25;" width="79.5" x="1329" y="35.5"/><text fill="#000000" font-family="sans-serif" font-size="7" font-style="italic" lengthAdjust="spacing" textLength="39.5" x="1349" y="46.5537">&#171;repository&#187;</text><text fill="#000000" font-family="sans-serif" font-size="7" lengthAdjust="spacing" textLength="72.5" x="1332.5" y="55.8643">DroneModelRepository</text><rect fill="#E2E2F0" height="25.6211" rx="1.25" ry="1.25" style="stroke:#181818;stroke-width:0.25;" width="79.5" x="1329" y="996.7598"/><text fill="#000000" font-family="sans-serif" font-size="7" font-style="italic" lengthAdjust="spacing" textLength="39.5" x="1349" y="1007.8135">&#171;repository&#187;</text><text fill="#000000" font-family="sans-serif" font-size="7" lengthAdjust="spacing" textLength="72.5" x="1332.5" y="1017.124">DroneModelRepository</text><text fill="#000000" font-family="sans-serif" font-size="7" lengthAdjust="spacing" textLength="30.5" x="1469.25" y="59.8643">Database</text><path d="M1477,34.3105 C1477,29.3105 1486,29.3105 1486,29.3105 C1486,29.3105 1495,29.3105 1495,34.3105 L1495,47.3105 C1495,52.3105 1486,52.3105 1486,52.3105 C1486,52.3105 1477,52.3105 1477,47.3105 L1477,34.3105 " fill="#E2E2F0" style="stroke:#181818;stroke-width:0.75;"/><path d="M1477,34.3105 C1477,39.3105 1486,39.3105 1486,39.3105 C1486,39.3105 1495,39.3105 1495,34.3105 " fill="none" style="stroke:#181818;stroke-width:0.75;"/><text fill="#000000" font-family="sans-serif" font-size="7" lengthAdjust="spacing" textLength="30.5" x="1469.25" y="1004.3135">Database</text><path d="M1477,1011.0703 C1477,1006.0703 1486,1006.0703 1486,1006.0703 C1486,1006.0703 1495,1006.0703 1495,1011.0703 L1495,1024.0703 C1495,1029.0703 1486,1029.0703 1486,1029.0703 C1486,1029.0703 1477,1029.0703 1477,1024.0703 L1477,1011.0703 " fill="#E2E2F0" style="stroke:#181818;stroke-width:0.75;"/><path d="M1477,1011.0703 C1477,1016.0703 1486,1016.0703 1486,1016.0703 C1486,1016.0703 1495,1016.0703 1495,1011.0703 " fill="none" style="stroke:#181818;stroke-width:0.75;"/><rect fill="#FFFFFF" height="921.6387" style="stroke:#181818;stroke-width:0.5;" width="5" x="37.25" y="66.6211"/><rect fill="#FFFFFF" height="48.5967" style="stroke:#181818;stroke-width:0.5;" width="5" x="198" y="91.9121"/><rect fill="#FFFFFF" height="171.9307" style="stroke:#181818;stroke-width:0.5;" width="5" x="294.75" y="140.5088"/><rect fill="#FFFFFF" height="153.9551" style="stroke:#181818;stroke-width:0.5;" width="5" x="294.75" y="328.085"/><rect fill="#FFFFFF" height="15.6455" style="stroke:#181818;stroke-width:0.5;" width="5" x="294.75" y="497.6855"/><rect fill="#FFFFFF" height="459.2832" style="stroke:#181818;stroke-width:0.5;" width="5" x="294.75" y="528.9766"/><rect fill="#FFFFFF" height="109.5186" style="stroke:#181818;stroke-width:0.5;" width="5" x="521.75" y="187.2754"/><rect fill="#FFFFFF" height="109.5186" style="stroke:#181818;stroke-width:0.5;" width="5" x="521.75" y="343.7305"/><rect fill="#FFFFFF" height="262.6826" style="stroke:#181818;stroke-width:0.5;" width="5" x="521.75" y="544.6221"/><rect fill="#FFFFFF" height="146.1641" style="stroke:#181818;stroke-width:0.5;" width="5" x="521.75" y="826.4502"/><rect fill="#FFFFFF" height="52.291" style="stroke:#181818;stroke-width:0.5;" width="5" x="722.75" y="748.0137"/><rect fill="#FFFFFF" height="29.6455" style="stroke:#181818;stroke-width:0.5;" width="5" x="848.75" y="763.6592"/><rect fill="#FFFFFF" height="7" style="stroke:#181818;stroke-width:0.5;" width="5" x="1025.75" y="779.3047"/><rect fill="#FFFFFF" height="15.6455" style="stroke:#181818;stroke-width:0.5;" width="5" x="1100" y="265.5029"/><rect fill="#FFFFFF" height="78.2275" style="stroke:#181818;stroke-width:0.5;" width="5" x="1100" y="654.1406"/><rect fill="#FFFFFF" height="78.2275" style="stroke:#181818;stroke-width:0.5;" width="5" x="1100" y="842.0957"/><rect fill="#FFFFFF" height="15.6455" style="stroke:#181818;stroke-width:0.5;" width="5" x="1189.75" y="421.958"/><rect fill="#FFFFFF" height="78.2275" style="stroke:#181818;stroke-width:0.5;" width="5" x="1189.75" y="560.2676"/><rect fill="#FFFFFF" height="46.9365" style="stroke:#181818;stroke-width:0.5;" width="5" x="1278.5" y="202.9209"/><rect fill="#FFFFFF" height="46.9365" style="stroke:#181818;stroke-width:0.5;" width="5" x="1278.5" y="669.7861"/><rect fill="#FFFFFF" height="46.9365" style="stroke:#181818;stroke-width:0.5;" width="5" x="1278.5" y="857.7412"/><rect fill="#FFFFFF" height="29.6455" style="stroke:#181818;stroke-width:0.5;" width="5" x="1278.5" y="935.9688"/><rect fill="#FFFFFF" height="46.9365" style="stroke:#181818;stroke-width:0.5;" width="5" x="1366.25" y="359.376"/><rect fill="#FFFFFF" height="46.9365" style="stroke:#181818;stroke-width:0.5;" width="5" x="1366.25" y="575.9131"/><rect fill="#FFFFFF" height="15.6455" style="stroke:#181818;stroke-width:0.5;" width="5" x="1483.5" y="218.5664"/><rect fill="#FFFFFF" height="15.6455" style="stroke:#181818;stroke-width:0.5;" width="5" x="1483.5" y="375.0215"/><rect fill="#FFFFFF" height="15.6455" style="stroke:#181818;stroke-width:0.5;" width="5" x="1483.5" y="591.5586"/><rect fill="#FFFFFF" height="15.6455" style="stroke:#181818;stroke-width:0.5;" width="5" x="1483.5" y="685.4316"/><rect fill="#FFFFFF" height="15.6455" style="stroke:#181818;stroke-width:0.5;" width="5" x="1483.5" y="873.3867"/><rect fill="#FFFFFF" height="7" style="stroke:#181818;stroke-width:0.5;" width="5" x="1483.5" y="951.6143"/><polygon fill="#181818" points="145.25,84.9121,150.25,86.9121,145.25,88.9121,147.25,86.9121" style="stroke:#181818;stroke-width:0.5;"/><line style="stroke:#181818;stroke-width:0.5;" x1="42.25" x2="148.25" y1="86.9121" y2="86.9121"/><text fill="#000000" font-family="sans-serif" font-size="6.5" lengthAdjust="spacing" textLength="83" x="45.75" y="75.6353">Wants to configure the list of</text><text fill="#000000" font-family="sans-serif" font-size="6.5" lengthAdjust="spacing" textLength="95" x="47.75" y="84.2808">drone models of a show proposal</text><rect fill="#E2E2F0" height="25.6211" rx="1.25" ry="1.25" style="stroke:#181818;stroke-width:0.25;" width="98.5" x="151.25" y="66.6211"/><text fill="#000000" font-family="sans-serif" font-size="7" font-style="italic" lengthAdjust="spacing" textLength="47.5" x="176.75" y="77.6748">&#171;presentation&#187;</text><text fill="#000000" font-family="sans-serif" font-size="7" lengthAdjust="spacing" textLength="91.5" x="154.75" y="86.9854">AddDronesToProposalAction</text><polygon fill="#181818" points="248.75,107.3877,253.75,109.3877,248.75,111.3877,250.75,109.3877" style="stroke:#181818;stroke-width:0.5;"/><line style="stroke:#181818;stroke-width:0.5;" x1="203" x2="251.75" y1="109.3877" y2="109.3877"/><text fill="#000000" font-family="sans-serif" font-size="6.5" lengthAdjust="spacing" textLength="18" x="206.5" y="106.7563">create</text><rect fill="#E2E2F0" height="25.6211" rx="1.25" ry="1.25" style="stroke:#181818;stroke-width:0.25;" width="85" x="254.75" y="97.7422"/><text fill="#000000" font-family="sans-serif" font-size="7" font-style="italic" lengthAdjust="spacing" textLength="47.5" x="273.5" y="108.7959">&#171;presentation&#187;</text><text fill="#000000" font-family="sans-serif" font-size="7" lengthAdjust="spacing" textLength="78" x="258.25" y="118.1064">AddDronesToProposalUI</text><polygon fill="#181818" points="288.75,138.5088,293.75,140.5088,288.75,142.5088,290.75,140.5088" style="stroke:#181818;stroke-width:0.5;"/><line style="stroke:#181818;stroke-width:0.5;" x1="200.5" x2="291.75" y1="140.5088" y2="140.5088"/><text fill="#000000" font-family="sans-serif" font-size="6.5" lengthAdjust="spacing" textLength="19" x="204" y="137.8774">show()</text><polygon fill="#181818" points="463.25,154.1543,468.25,156.1543,463.25,158.1543,465.25,156.1543" style="stroke:#181818;stroke-width:0.5;"/><line style="stroke:#181818;stroke-width:0.5;" x1="299.75" x2="466.25" y1="156.1543" y2="156.1543"/><text fill="#000000" font-family="sans-serif" font-size="6.5" lengthAdjust="spacing" textLength="18" x="303.25" y="153.5229">create</text><rect fill="#E2E2F0" height="25.6211" rx="1.25" ry="1.25" style="stroke:#181818;stroke-width:0.25;" width="110" x="469.25" y="144.5088"/><text fill="#000000" font-family="sans-serif" font-size="7" font-style="italic" lengthAdjust="spacing" textLength="42" x="503.25" y="155.5625">&#171;application&#187;</text><text fill="#000000" font-family="sans-serif" font-size="7" lengthAdjust="spacing" textLength="103" x="472.75" y="164.873">AddDronesToProposalController</text><polygon fill="#181818" points="515.75,185.2754,520.75,187.2754,515.75,189.2754,517.75,187.2754" style="stroke:#181818;stroke-width:0.5;"/><line style="stroke:#181818;stroke-width:0.5;" x1="299.75" x2="518.75" y1="187.2754" y2="187.2754"/><text fill="#000000" font-family="sans-serif" font-size="6.5" lengthAdjust="spacing" textLength="68.5" x="303.25" y="184.644">getListShowProposals()</text><polygon fill="#181818" points="1272.5,200.9209,1277.5,202.9209,1272.5,204.9209,1274.5,202.9209" style="stroke:#181818;stroke-width:0.5;"/><line style="stroke:#181818;stroke-width:0.5;" x1="526.75" x2="1275.5" y1="202.9209" y2="202.9209"/><text fill="#000000" font-family="sans-serif" font-size="6.5" lengthAdjust="spacing" textLength="190.5" x="530.25" y="200.2896">findByStatusAndEmptyDroneList(ShowProposalStatus.PENDING)</text><polygon fill="#181818" points="1477.5,216.5664,1482.5,218.5664,1477.5,220.5664,1479.5,218.5664" style="stroke:#181818;stroke-width:0.5;"/><line style="stroke:#181818;stroke-width:0.5;" x1="1283.5" x2="1480.5" y1="218.5664" y2="218.5664"/><text fill="#000000" font-family="sans-serif" font-size="6.5" lengthAdjust="spacing" textLength="190.5" x="1287" y="215.9351">findByStatusAndEmptyDroneList(ShowProposalStatus.PENDING)</text><polygon fill="#181818" points="1289,232.2119,1284,234.2119,1289,236.2119,1287,234.2119" style="stroke:#181818;stroke-width:0.5;"/><line style="stroke:#181818;stroke-width:0.5;stroke-dasharray:2.0,2.0;" x1="1286" x2="1485.5" y1="234.2119" y2="234.2119"/><text fill="#000000" font-family="sans-serif" font-size="6.5" lengthAdjust="spacing" textLength="66.5" x="1292" y="231.5806">List of Show Proposals</text><polygon fill="#181818" points="532.25,247.8574,527.25,249.8574,532.25,251.8574,530.25,249.8574" style="stroke:#181818;stroke-width:0.5;"/><line style="stroke:#181818;stroke-width:0.5;stroke-dasharray:2.0,2.0;" x1="529.25" x2="1280.5" y1="249.8574" y2="249.8574"/><text fill="#000000" font-family="sans-serif" font-size="6.5" lengthAdjust="spacing" textLength="66.5" x="535.25" y="247.2261">List of Show Proposals</text><polygon fill="#181818" points="1094,263.5029,1099,265.5029,1094,267.5029,1096,265.5029" style="stroke:#181818;stroke-width:0.5;"/><line style="stroke:#181818;stroke-width:0.5;" x1="526.75" x2="1097" y1="265.5029" y2="265.5029"/><text fill="#000000" font-family="sans-serif" font-size="6.5" lengthAdjust="spacing" textLength="145" x="530.25" y="262.8716">transformToShowProposalDTOlist(showProposals)</text><polygon fill="#181818" points="532.25,279.1484,527.25,281.1484,532.25,283.1484,530.25,281.1484" style="stroke:#181818;stroke-width:0.5;"/><line style="stroke:#181818;stroke-width:0.5;stroke-dasharray:2.0,2.0;" x1="529.25" x2="1102" y1="281.1484" y2="281.1484"/><text fill="#000000" font-family="sans-serif" font-size="6.5" lengthAdjust="spacing" textLength="81.5" x="535.25" y="278.5171">List of Show Proposals DTO</text><polygon fill="#181818" points="305.25,294.7939,300.25,296.7939,305.25,298.7939,303.25,296.7939" style="stroke:#181818;stroke-width:0.5;"/><line style="stroke:#181818;stroke-width:0.5;stroke-dasharray:2.0,2.0;" x1="302.25" x2="523.75" y1="296.7939" y2="296.7939"/><text fill="#000000" font-family="sans-serif" font-size="6.5" lengthAdjust="spacing" textLength="81.5" x="308.25" y="294.1626">List of Show Proposals DTO</text><polygon fill="#181818" points="47.75,310.4395,42.75,312.4395,47.75,314.4395,45.75,312.4395" style="stroke:#181818;stroke-width:0.5;"/><line style="stroke:#181818;stroke-width:0.5;stroke-dasharray:2.0,2.0;" x1="44.75" x2="296.75" y1="312.4395" y2="312.4395"/><text fill="#000000" font-family="sans-serif" font-size="6.5" lengthAdjust="spacing" textLength="95.5" x="50.75" y="309.8081">Show list of show proposals DTO</text><polygon fill="#181818" points="288.75,326.085,293.75,328.085,288.75,330.085,290.75,328.085" style="stroke:#181818;stroke-width:0.5;"/><line style="stroke:#181818;stroke-width:0.5;" x1="42.25" x2="291.75" y1="328.085" y2="328.085"/><text fill="#000000" font-family="sans-serif" font-size="6.5" lengthAdjust="spacing" textLength="65.5" x="45.75" y="325.4536">Choose show proposal</text><polygon fill="#181818" points="515.75,341.7305,520.75,343.7305,515.75,345.7305,517.75,343.7305" style="stroke:#181818;stroke-width:0.5;"/><line style="stroke:#181818;stroke-width:0.5;" x1="299.75" x2="518.75" y1="343.7305" y2="343.7305"/><text fill="#000000" font-family="sans-serif" font-size="6.5" lengthAdjust="spacing" textLength="61.5" x="303.25" y="341.0991">getListDroneModels()</text><polygon fill="#181818" points="1360.25,357.376,1365.25,359.376,1360.25,361.376,1362.25,359.376" style="stroke:#181818;stroke-width:0.5;"/><line style="stroke:#181818;stroke-width:0.5;" x1="526.75" x2="1363.25" y1="359.376" y2="359.376"/><text fill="#000000" font-family="sans-serif" font-size="6.5" lengthAdjust="spacing" textLength="50.5" x="530.25" y="356.7446">findByActive(true)</text><polygon fill="#181818" points="1477.5,373.0215,1482.5,375.0215,1477.5,377.0215,1479.5,375.0215" style="stroke:#181818;stroke-width:0.5;"/><line style="stroke:#181818;stroke-width:0.5;" x1="1371.25" x2="1480.5" y1="375.0215" y2="375.0215"/><text fill="#000000" font-family="sans-serif" font-size="6.5" lengthAdjust="spacing" textLength="50.5" x="1374.75" y="372.3901">findByActive(true)</text><polygon fill="#181818" points="1376.75,388.667,1371.75,390.667,1376.75,392.667,1374.75,390.667" style="stroke:#181818;stroke-width:0.5;"/><line style="stroke:#181818;stroke-width:0.5;stroke-dasharray:2.0,2.0;" x1="1373.75" x2="1485.5" y1="390.667" y2="390.667"/><text fill="#000000" font-family="sans-serif" font-size="6.5" lengthAdjust="spacing" textLength="79" x="1379.75" y="388.0356">List of Active Drone Models</text><polygon fill="#181818" points="532.25,404.3125,527.25,406.3125,532.25,408.3125,530.25,406.3125" style="stroke:#181818;stroke-width:0.5;"/><line style="stroke:#181818;stroke-width:0.5;stroke-dasharray:2.0,2.0;" x1="529.25" x2="1368.25" y1="406.3125" y2="406.3125"/><text fill="#000000" font-family="sans-serif" font-size="6.5" lengthAdjust="spacing" textLength="79" x="535.25" y="403.6812">List of Active Drone Models</text><polygon fill="#181818" points="1183.75,419.958,1188.75,421.958,1183.75,423.958,1185.75,421.958" style="stroke:#181818;stroke-width:0.5;"/><line style="stroke:#181818;stroke-width:0.5;" x1="526.75" x2="1186.75" y1="421.958" y2="421.958"/><text fill="#000000" font-family="sans-serif" font-size="6.5" lengthAdjust="spacing" textLength="129.5" x="530.25" y="419.3267">transformToDroneModelDTO(droneModelList)</text><polygon fill="#181818" points="532.25,435.6035,527.25,437.6035,532.25,439.6035,530.25,437.6035" style="stroke:#181818;stroke-width:0.5;"/><line style="stroke:#181818;stroke-width:0.5;stroke-dasharray:2.0,2.0;" x1="529.25" x2="1191.75" y1="437.6035" y2="437.6035"/><text fill="#000000" font-family="sans-serif" font-size="6.5" lengthAdjust="spacing" textLength="94" x="535.25" y="434.9722">List of Active Drone Models DTO</text><polygon fill="#181818" points="305.25,451.249,300.25,453.249,305.25,455.249,303.25,453.249" style="stroke:#181818;stroke-width:0.5;"/><line style="stroke:#181818;stroke-width:0.5;stroke-dasharray:2.0,2.0;" x1="302.25" x2="523.75" y1="453.249" y2="453.249"/><text fill="#000000" font-family="sans-serif" font-size="6.5" lengthAdjust="spacing" textLength="94" x="308.25" y="450.6177">List of Active Drone Models DTO</text><path d="M5,460.749 L41.5,460.749 L41.5,465.3945 L36.5,470.3945 L5,470.3945 L5,460.749 " fill="#EEEEEE" style="stroke:#000000;stroke-width:0.75;"/><rect fill="none" height="350.5557" style="stroke:#000000;stroke-width:0.75;" width="1502.75" x="5" y="460.749"/><text fill="#000000" font-family="sans-serif" font-size="6.5" font-weight="bold" lengthAdjust="spacing" textLength="14" x="12.5" y="468.2632">loop</text><text fill="#000000" font-family="sans-serif" font-size="5.5" font-weight="bold" lengthAdjust="spacing" textLength="110.5" x="49" y="467.6841">[While user wants to add drone Models]</text><polygon fill="#181818" points="47.75,480.04,42.75,482.04,47.75,484.04,45.75,482.04" style="stroke:#181818;stroke-width:0.5;"/><line style="stroke:#181818;stroke-width:0.5;stroke-dasharray:2.0,2.0;" x1="44.75" x2="296.75" y1="482.04" y2="482.04"/><text fill="#000000" font-family="sans-serif" font-size="6.5" lengthAdjust="spacing" textLength="89.5" x="50.75" y="479.4087">Show list of drone models DTO</text><polygon fill="#181818" points="288.75,495.6855,293.75,497.6855,288.75,499.6855,290.75,497.6855" style="stroke:#181818;stroke-width:0.5;"/><line style="stroke:#181818;stroke-width:0.5;" x1="42.25" x2="291.75" y1="497.6855" y2="497.6855"/><text fill="#000000" font-family="sans-serif" font-size="6.5" lengthAdjust="spacing" textLength="59.5" x="45.75" y="495.0542">Choose drone model</text><polygon fill="#181818" points="47.75,511.3311,42.75,513.3311,47.75,515.3311,45.75,513.3311" style="stroke:#181818;stroke-width:0.5;"/><line style="stroke:#181818;stroke-width:0.5;stroke-dasharray:2.0,2.0;" x1="44.75" x2="296.75" y1="513.3311" y2="513.3311"/><text fill="#000000" font-family="sans-serif" font-size="6.5" lengthAdjust="spacing" textLength="76" x="50.75" y="510.6997">Request number of drones</text><polygon fill="#181818" points="288.75,526.9766,293.75,528.9766,288.75,530.9766,290.75,528.9766" style="stroke:#181818;stroke-width:0.5;"/><line style="stroke:#181818;stroke-width:0.5;" x1="42.25" x2="291.75" y1="528.9766" y2="528.9766"/><text fill="#000000" font-family="sans-serif" font-size="6.5" lengthAdjust="spacing" textLength="73" x="45.75" y="526.3452">Provide number of drones</text><polygon fill="#181818" points="515.75,542.6221,520.75,544.6221,515.75,546.6221,517.75,544.6221" style="stroke:#181818;stroke-width:0.5;"/><line style="stroke:#181818;stroke-width:0.5;" x1="299.75" x2="518.75" y1="544.6221" y2="544.6221"/><text fill="#000000" font-family="sans-serif" font-size="6.5" lengthAdjust="spacing" textLength="212.5" x="303.25" y="541.9907">addDroneModelToProposal(showProposalDTO ,droneModelDTO, quantity)</text><polygon fill="#181818" points="1183.75,558.2676,1188.75,560.2676,1183.75,562.2676,1185.75,560.2676" style="stroke:#181818;stroke-width:0.5;"/><line style="stroke:#181818;stroke-width:0.5;" x1="526.75" x2="1186.75" y1="560.2676" y2="560.2676"/><text fill="#000000" font-family="sans-serif" font-size="6.5" lengthAdjust="spacing" textLength="122" x="530.25" y="557.6362">getDroneModelFromDTO(droneModelDTO)</text><polygon fill="#181818" points="1360.25,573.9131,1365.25,575.9131,1360.25,577.9131,1362.25,575.9131" style="stroke:#181818;stroke-width:0.5;"/><line style="stroke:#181818;stroke-width:0.5;" x1="1194.75" x2="1363.25" y1="575.9131" y2="575.9131"/><text fill="#000000" font-family="sans-serif" font-size="6.5" lengthAdjust="spacing" textLength="78.5" x="1198.25" y="573.2817">findById(droneModelDTOId)</text><polygon fill="#181818" points="1477.5,589.5586,1482.5,591.5586,1477.5,593.5586,1479.5,591.5586" style="stroke:#181818;stroke-width:0.5;"/><line style="stroke:#181818;stroke-width:0.5;" x1="1371.25" x2="1480.5" y1="591.5586" y2="591.5586"/><text fill="#000000" font-family="sans-serif" font-size="6.5" lengthAdjust="spacing" textLength="78.5" x="1374.75" y="588.9272">findById(droneModelDTOId)</text><polygon fill="#181818" points="1376.75,605.2041,1371.75,607.2041,1376.75,609.2041,1374.75,607.2041" style="stroke:#181818;stroke-width:0.5;"/><line style="stroke:#181818;stroke-width:0.5;stroke-dasharray:2.0,2.0;" x1="1373.75" x2="1485.5" y1="607.2041" y2="607.2041"/><text fill="#000000" font-family="sans-serif" font-size="6.5" lengthAdjust="spacing" textLength="33.5" x="1379.75" y="604.5728">droneModel</text><polygon fill="#181818" points="1200.25,620.8496,1195.25,622.8496,1200.25,624.8496,1198.25,622.8496" style="stroke:#181818;stroke-width:0.5;"/><line style="stroke:#181818;stroke-width:0.5;stroke-dasharray:2.0,2.0;" x1="1197.25" x2="1368.25" y1="622.8496" y2="622.8496"/><text fill="#000000" font-family="sans-serif" font-size="6.5" lengthAdjust="spacing" textLength="33.5" x="1203.25" y="620.2183">droneModel</text><polygon fill="#181818" points="532.25,636.4951,527.25,638.4951,532.25,640.4951,530.25,638.4951" style="stroke:#181818;stroke-width:0.5;"/><line style="stroke:#181818;stroke-width:0.5;stroke-dasharray:2.0,2.0;" x1="529.25" x2="1191.75" y1="638.4951" y2="638.4951"/><text fill="#000000" font-family="sans-serif" font-size="6.5" lengthAdjust="spacing" textLength="33.5" x="535.25" y="635.8638">droneModel</text><polygon fill="#181818" points="1094,652.1406,1099,654.1406,1094,656.1406,1096,654.1406" style="stroke:#181818;stroke-width:0.5;"/><line style="stroke:#181818;stroke-width:0.5;" x1="526.75" x2="1097" y1="654.1406" y2="654.1406"/><text fill="#000000" font-family="sans-serif" font-size="6.5" lengthAdjust="spacing" textLength="133.5" x="530.25" y="651.5093">getShowProposalfromDTO(showProposalDTO)</text><polygon fill="#181818" points="1272.5,667.7861,1277.5,669.7861,1272.5,671.7861,1274.5,669.7861" style="stroke:#181818;stroke-width:0.5;"/><line style="stroke:#181818;stroke-width:0.5;" x1="1105" x2="1275.5" y1="669.7861" y2="669.7861"/><text fill="#000000" font-family="sans-serif" font-size="6.5" lengthAdjust="spacing" textLength="85.5" x="1108.5" y="667.1548">findById(showProposalDTOId)</text><polygon fill="#181818" points="1477.5,683.4316,1482.5,685.4316,1477.5,687.4316,1479.5,685.4316" style="stroke:#181818;stroke-width:0.5;"/><line style="stroke:#181818;stroke-width:0.5;" x1="1283.5" x2="1480.5" y1="685.4316" y2="685.4316"/><text fill="#000000" font-family="sans-serif" font-size="6.5" lengthAdjust="spacing" textLength="85.5" x="1287" y="682.8003">findById(showProposalDTOId)</text><polygon fill="#181818" points="1289,699.0771,1284,701.0771,1289,703.0771,1287,701.0771" style="stroke:#181818;stroke-width:0.5;"/><line style="stroke:#181818;stroke-width:0.5;stroke-dasharray:2.0,2.0;" x1="1286" x2="1485.5" y1="701.0771" y2="701.0771"/><text fill="#000000" font-family="sans-serif" font-size="6.5" lengthAdjust="spacing" textLength="40.5" x="1292" y="698.4458">showProposal</text><polygon fill="#181818" points="1110.5,714.7227,1105.5,716.7227,1110.5,718.7227,1108.5,716.7227" style="stroke:#181818;stroke-width:0.5;"/><line style="stroke:#181818;stroke-width:0.5;stroke-dasharray:2.0,2.0;" x1="1107.5" x2="1280.5" y1="716.7227" y2="716.7227"/><text fill="#000000" font-family="sans-serif" font-size="6.5" lengthAdjust="spacing" textLength="40.5" x="1113.5" y="714.0913">showProposal</text><polygon fill="#181818" points="532.25,730.3682,527.25,732.3682,532.25,734.3682,530.25,732.3682" style="stroke:#181818;stroke-width:0.5;"/><line style="stroke:#181818;stroke-width:0.5;stroke-dasharray:2.0,2.0;" x1="529.25" x2="1102" y1="732.3682" y2="732.3682"/><text fill="#000000" font-family="sans-serif" font-size="6.5" lengthAdjust="spacing" textLength="40.5" x="535.25" y="729.7368">showProposal</text><polygon fill="#181818" points="716.75,746.0137,721.75,748.0137,716.75,750.0137,718.75,748.0137" style="stroke:#181818;stroke-width:0.5;"/><line style="stroke:#181818;stroke-width:0.5;" x1="526.75" x2="719.75" y1="748.0137" y2="748.0137"/><text fill="#000000" font-family="sans-serif" font-size="6.5" lengthAdjust="spacing" textLength="186.5" x="530.25" y="745.3823">addDroneModelToProposal(showProposal, droneModel, quantity)</text><polygon fill="#181818" points="842.75,761.6592,847.75,763.6592,842.75,765.6592,844.75,763.6592" style="stroke:#181818;stroke-width:0.5;"/><line style="stroke:#181818;stroke-width:0.5;" x1="727.75" x2="845.75" y1="763.6592" y2="763.6592"/><text fill="#000000" font-family="sans-serif" font-size="6.5" lengthAdjust="spacing" textLength="111.5" x="731.25" y="761.0278">addDroneToList( droneModel, quantity)</text><polygon fill="#181818" points="1019.75,777.3047,1024.75,779.3047,1019.75,781.3047,1021.75,779.3047" style="stroke:#181818;stroke-width:0.5;"/><line style="stroke:#181818;stroke-width:0.5;" x1="853.75" x2="1022.75" y1="779.3047" y2="779.3047"/><text fill="#000000" font-family="sans-serif" font-size="6.5" lengthAdjust="spacing" textLength="162.5" x="857.25" y="776.6733">new DroneListItem(droneModel, showProposal, quantity)</text><polygon fill="#181818" points="859.25,784.3047,854.25,786.3047,859.25,788.3047,857.25,786.3047" style="stroke:#181818;stroke-width:0.5;"/><line style="stroke:#181818;stroke-width:0.5;stroke-dasharray:2.0,2.0;" x1="856.25" x2="1027.75" y1="786.3047" y2="786.3047"/><polygon fill="#181818" points="733.25,791.3047,728.25,793.3047,733.25,795.3047,731.25,793.3047" style="stroke:#181818;stroke-width:0.5;"/><line style="stroke:#181818;stroke-width:0.5;stroke-dasharray:2.0,2.0;" x1="730.25" x2="850.75" y1="793.3047" y2="793.3047"/><polygon fill="#181818" points="532.25,798.3047,527.25,800.3047,532.25,802.3047,530.25,800.3047" style="stroke:#181818;stroke-width:0.5;"/><line style="stroke:#181818;stroke-width:0.5;stroke-dasharray:2.0,2.0;" x1="529.25" x2="724.75" y1="800.3047" y2="800.3047"/><polygon fill="#181818" points="305.25,805.3047,300.25,807.3047,305.25,809.3047,303.25,807.3047" style="stroke:#181818;stroke-width:0.5;"/><line style="stroke:#181818;stroke-width:0.5;stroke-dasharray:2.0,2.0;" x1="302.25" x2="523.75" y1="807.3047" y2="807.3047"/><polygon fill="#181818" points="515.75,824.4502,520.75,826.4502,515.75,828.4502,517.75,826.4502" style="stroke:#181818;stroke-width:0.5;"/><line style="stroke:#181818;stroke-width:0.5;" x1="299.75" x2="518.75" y1="826.4502" y2="826.4502"/><text fill="#000000" font-family="sans-serif" font-size="6.5" lengthAdjust="spacing" textLength="70.5" x="303.25" y="823.8188">save(showProposalDTO)</text><polygon fill="#181818" points="1094,840.0957,1099,842.0957,1094,844.0957,1096,842.0957" style="stroke:#181818;stroke-width:0.5;"/><line style="stroke:#181818;stroke-width:0.5;" x1="526.75" x2="1097" y1="842.0957" y2="842.0957"/><text fill="#000000" font-family="sans-serif" font-size="6.5" lengthAdjust="spacing" textLength="133.5" x="530.25" y="839.4644">getShowProposalfromDTO(showProposalDTO)</text><polygon fill="#181818" points="1272.5,855.7412,1277.5,857.7412,1272.5,859.7412,1274.5,857.7412" style="stroke:#181818;stroke-width:0.5;"/><line style="stroke:#181818;stroke-width:0.5;" x1="1105" x2="1275.5" y1="857.7412" y2="857.7412"/><text fill="#000000" font-family="sans-serif" font-size="6.5" lengthAdjust="spacing" textLength="85.5" x="1108.5" y="855.1099">findById(showProposalDTOId)</text><polygon fill="#181818" points="1477.5,871.3867,1482.5,873.3867,1477.5,875.3867,1479.5,873.3867" style="stroke:#181818;stroke-width:0.5;"/><line style="stroke:#181818;stroke-width:0.5;" x1="1283.5" x2="1480.5" y1="873.3867" y2="873.3867"/><text fill="#000000" font-family="sans-serif" font-size="6.5" lengthAdjust="spacing" textLength="85.5" x="1287" y="870.7554">findById(showProposalDTOId)</text><polygon fill="#181818" points="1289,887.0322,1284,889.0322,1289,891.0322,1287,889.0322" style="stroke:#181818;stroke-width:0.5;"/><line style="stroke:#181818;stroke-width:0.5;stroke-dasharray:2.0,2.0;" x1="1286" x2="1485.5" y1="889.0322" y2="889.0322"/><text fill="#000000" font-family="sans-serif" font-size="6.5" lengthAdjust="spacing" textLength="40.5" x="1292" y="886.4009">showProposal</text><polygon fill="#181818" points="1110.5,902.6777,1105.5,904.6777,1110.5,906.6777,1108.5,904.6777" style="stroke:#181818;stroke-width:0.5;"/><line style="stroke:#181818;stroke-width:0.5;stroke-dasharray:2.0,2.0;" x1="1107.5" x2="1280.5" y1="904.6777" y2="904.6777"/><text fill="#000000" font-family="sans-serif" font-size="6.5" lengthAdjust="spacing" textLength="40.5" x="1113.5" y="902.0464">showProposal</text><polygon fill="#181818" points="532.25,918.3232,527.25,920.3232,532.25,922.3232,530.25,920.3232" style="stroke:#181818;stroke-width:0.5;"/><line style="stroke:#181818;stroke-width:0.5;stroke-dasharray:2.0,2.0;" x1="529.25" x2="1102" y1="920.3232" y2="920.3232"/><text fill="#000000" font-family="sans-serif" font-size="6.5" lengthAdjust="spacing" textLength="40.5" x="535.25" y="917.6919">showProposal</text><polygon fill="#181818" points="1272.5,933.9688,1277.5,935.9688,1272.5,937.9688,1274.5,935.9688" style="stroke:#181818;stroke-width:0.5;"/><line style="stroke:#181818;stroke-width:0.5;" x1="526.75" x2="1275.5" y1="935.9688" y2="935.9688"/><text fill="#000000" font-family="sans-serif" font-size="6.5" lengthAdjust="spacing" textLength="57.5" x="530.25" y="933.3374">save(showProposal)</text><polygon fill="#181818" points="1477.5,949.6143,1482.5,951.6143,1477.5,953.6143,1479.5,951.6143" style="stroke:#181818;stroke-width:0.5;"/><line style="stroke:#181818;stroke-width:0.5;" x1="1283.5" x2="1480.5" y1="951.6143" y2="951.6143"/><text fill="#000000" font-family="sans-serif" font-size="6.5" lengthAdjust="spacing" textLength="57.5" x="1287" y="948.9829">save(showProposal)</text><polygon fill="#181818" points="1289,956.6143,1284,958.6143,1289,960.6143,1287,958.6143" style="stroke:#181818;stroke-width:0.5;"/><line style="stroke:#181818;stroke-width:0.5;stroke-dasharray:2.0,2.0;" x1="1286" x2="1485.5" y1="958.6143" y2="958.6143"/><polygon fill="#181818" points="532.25,963.6143,527.25,965.6143,532.25,967.6143,530.25,965.6143" style="stroke:#181818;stroke-width:0.5;"/><line style="stroke:#181818;stroke-width:0.5;stroke-dasharray:2.0,2.0;" x1="529.25" x2="1280.5" y1="965.6143" y2="965.6143"/><polygon fill="#181818" points="305.25,970.6143,300.25,972.6143,305.25,974.6143,303.25,972.6143" style="stroke:#181818;stroke-width:0.5;"/><line style="stroke:#181818;stroke-width:0.5;stroke-dasharray:2.0,2.0;" x1="302.25" x2="523.75" y1="972.6143" y2="972.6143"/><polygon fill="#181818" points="45.25,986.2598,40.25,988.2598,45.25,990.2598,43.25,988.2598" style="stroke:#181818;stroke-width:0.5;"/><line style="stroke:#181818;stroke-width:0.5;stroke-dasharray:2.0,2.0;" x1="42.25" x2="296.75" y1="988.2598" y2="988.2598"/><text fill="#000000" font-family="sans-serif" font-size="6.5" lengthAdjust="spacing" textLength="102" x="48.25" y="985.6284">Confirm if operation was successful</text><!--SRC=[jLZBRjmu4BphAne-pHZEVi0WCE0T9ui1agpX1tBP2ornR06Ig90S6_xxRUf9Kas9YXrVnYB5AhQwkjIYpdN1uOx_El4gvN2TioV9oYHXgHOIplQtts4lYe8z2ibmv0oOWYipbzHCwZpDQrPfEBlAicifAgxknOqKjL2imBjoKVKBy5_u_BcMNF5ACtDvURa8yN1ebZySrY_TYqfBt3XljpnU8XIhwo9FPv6-YumN5jmTbozvoXiiRmm1Cr6oV89rzonU-tkRXVP0S5L3_orN-g1vsInpHgBOhk__lM5ITR6JCmP72vAyYTs58CPf09lhbkDFZb9vcsnZd48OELo4j-DXKHC-KiOqUsIA8qptNxkqksWadhympJiz9yqFVBhiv7f-leEVk0q5Ma0ggcF-T98Sz3E70fC1ulXV1PdP29IDMd0462WC4-ekJfS4GHiMKmj8yt0uFuSTf9BZl3E-Qr0ssoJ9k0y0-3UCFHoI1Ai35uq2jq7zkHqySMsaP2T36I87TbpGJfW_gu8Gaaxc3evvbVtzTeTbUb9NLVQbhFNReD-DlQgzvw-RBp-k3p_-sOv4moveZl76WA1mTtsEtxEVoNP6uVHJ_GXycdaYtrgjDFE3TQW1mqhmGB0Ke9VIU8Qb9nhEyL3sEz2ILUeeP7all3jCMMoKhQpjV5O7L3gfezV4XGouO2biWjAEkYk_1NmBsouLKssjVGZSOxEsSmhN5LeW2yIKyU0-Xd__B0JgolEIQUtt8GJht7gPROXaK8K-5GBbjdrf6LTwuHijJtphG8oo9bOdIU8IDkL4cJfHpK7AXN8bovQEhSz_IzNU1ErZdC3DLV1yQ05HBv7QXEIpZSaaNT3E_2ORhipM5jDBb9OR-t8z4w4xHHqCt-AEgUibda21cwb2Y1f-FkVODPzCAAzzYy2oh6i7kfmbVMK6FC7f7GXhwGkSSWPhBUqABk-jwU-HjJgLZxZddbn5KQB_lUGPfnUJn6vocTrJZosrywR0yE4YizDv0RzE-6Xp_RPTsvoGAaT37CU_Ib6w2iShwfq_9svIsFDkUSXSoaCsIqeLTQnBnb7DzpHqA2DiL1SJz3uoJGlWrADPOpIny0jjGh0vGfNPCyTEPvxKFwmjMch4KGGUDIc3Z-kq8mb_ivUseT_RGGSIk4GHU5JhsjSr98jAz8uZulpsmge4tscTJ7deuoRyKn3laOxRk1VDjrOieGr2At0msVvCP0SLVtM7DZQR6_WCjmFXMUvm0EEB9sWaKo0tYcdkbhGGVlYEm2WOYcdI8Cryt9WPNcM1LxnYs92J9XTyRVyHErrZgN_CLbTPwqVQQyJtp-_RRCodpWVPxJhBVQVjnbjlt0dOf1IyEfWJH8mGbl3Tl4VaEvdBRDGHL1AViBMMutx6xCqfh2mXFuAekMnEyF43J84wfIbNwdWgY2yQzmnLoEH_]--></g></svg>