<?xml version="1.0" encoding="us-ascii" standalone="no"?><svg xmlns="http://www.w3.org/2000/svg" xmlns:xlink="http://www.w3.org/1999/xlink" contentStyleType="text/css" height="694.5px" preserveAspectRatio="none" style="width:1298px;height:694px;background:#FFFFFF;" version="1.1" viewBox="0 0 1298 694" width="1298px" zoomAndPan="magnify"><defs/><g><text fill="#000000" font-family="sans-serif" font-size="7" font-weight="bold" lengthAdjust="spacing" textLength="66" x="616.625" y="15.0537">Sequence Diagram</text><rect fill="#FFFFFF" height="577.4375" style="stroke:#181818;stroke-width:0.5;" width="5" x="37.25" y="66.6211"/><rect fill="#FFFFFF" height="48.5967" style="stroke:#181818;stroke-width:0.5;" width="5" x="198" y="91.9121"/><rect fill="#FFFFFF" height="140.6396" style="stroke:#181818;stroke-width:0.5;" width="5" x="294.75" y="140.5088"/><rect fill="#FFFFFF" height="122.6641" style="stroke:#181818;stroke-width:0.5;" width="5" x="294.75" y="296.7939"/><rect fill="#FFFFFF" height="15.6455" style="stroke:#181818;stroke-width:0.5;" width="5" x="294.75" y="435.1035"/><rect fill="#FFFFFF" height="177.6641" style="stroke:#181818;stroke-width:0.5;" width="5" x="294.75" y="466.3945"/><rect fill="#FFFFFF" height="78.2275" style="stroke:#181818;stroke-width:0.5;" width="5" x="495.75" y="187.2754"/><rect fill="#FFFFFF" height="78.2275" style="stroke:#181818;stroke-width:0.5;" width="5" x="495.75" y="312.4395"/><rect fill="#FFFFFF" height="74.9365" style="stroke:#181818;stroke-width:0.5;" width="5" x="495.75" y="482.04"/><rect fill="#FFFFFF" height="52.291" style="stroke:#181818;stroke-width:0.5;" width="5" x="495.75" y="576.1221"/><rect fill="#FFFFFF" height="52.291" style="stroke:#181818;stroke-width:0.5;" width="5" x="696.75" y="497.6855"/><rect fill="#FFFFFF" height="29.6455" style="stroke:#181818;stroke-width:0.5;" width="5" x="822.75" y="513.3311"/><rect fill="#FFFFFF" height="7" style="stroke:#181818;stroke-width:0.5;" width="5" x="999.75" y="528.9766"/><rect fill="#FFFFFF" height="46.9365" style="stroke:#181818;stroke-width:0.5;" width="5" x="1073" y="202.9209"/><rect fill="#FFFFFF" height="29.6455" style="stroke:#181818;stroke-width:0.5;" width="5" x="1073" y="591.7676"/><rect fill="#FFFFFF" height="46.9365" style="stroke:#181818;stroke-width:0.5;" width="5" x="1160.75" y="328.085"/><rect fill="#FFFFFF" height="15.6455" style="stroke:#181818;stroke-width:0.5;" width="5" x="1278" y="218.5664"/><rect fill="#FFFFFF" height="15.6455" style="stroke:#181818;stroke-width:0.5;" width="5" x="1278" y="343.7305"/><rect fill="#FFFFFF" height="7" style="stroke:#181818;stroke-width:0.5;" width="5" x="1278" y="607.4131"/><rect fill="none" height="162.8096" style="stroke:#000000;stroke-width:0.75;" width="1027.5" x="5" y="398.167"/><line style="stroke:#181818;stroke-width:0.25;stroke-dasharray:5.0,5.0;" x1="39.5" x2="39.5" y1="61.6211" y2="653.0586"/><line style="stroke:#181818;stroke-width:0.25;stroke-dasharray:5.0,5.0;" x1="200.25" x2="200.25" y1="87.1816" y2="653.0586"/><line style="stroke:#181818;stroke-width:0.25;stroke-dasharray:5.0,5.0;" x1="297.25" x2="297.25" y1="118.3027" y2="653.0586"/><line style="stroke:#181818;stroke-width:0.25;stroke-dasharray:5.0,5.0;" x1="498.25" x2="498.25" y1="165.0693" y2="653.0586"/><line style="stroke:#181818;stroke-width:0.25;stroke-dasharray:5.0,5.0;" x1="699" x2="699" y1="61.6211" y2="653.0586"/><line style="stroke:#181818;stroke-width:0.25;stroke-dasharray:5.0,5.0;" x1="825.25" x2="825.25" y1="61.6211" y2="653.0586"/><line style="stroke:#181818;stroke-width:0.25;stroke-dasharray:5.0,5.0;" x1="1002" x2="1002" y1="61.6211" y2="653.0586"/><line style="stroke:#181818;stroke-width:0.25;stroke-dasharray:5.0,5.0;" x1="1075.5" x2="1075.5" y1="61.6211" y2="653.0586"/><line style="stroke:#181818;stroke-width:0.25;stroke-dasharray:5.0,5.0;" x1="1163" x2="1163" y1="61.6211" y2="653.0586"/><line style="stroke:#181818;stroke-width:0.25;stroke-dasharray:5.0,5.0;" x1="1280.25" x2="1280.25" y1="61.6211" y2="653.0586"/><text fill="#000000" font-family="sans-serif" font-size="7" lengthAdjust="spacing" textLength="56.5" x="10" y="59.8643">CRM Collaborator</text><ellipse cx="39.75" cy="26.5605" fill="#E2E2F0" rx="4" ry="4" style="stroke:#181818;stroke-width:0.25;"/><path d="M39.75,30.5605 L39.75,44.0605 M33.25,34.5605 L46.25,34.5605 M39.75,44.0605 L33.25,51.5605 M39.75,44.0605 L46.25,51.5605 " fill="none" style="stroke:#181818;stroke-width:0.25;"/><text fill="#000000" font-family="sans-serif" font-size="7" lengthAdjust="spacing" textLength="56.5" x="10" y="660.1123">CRM Collaborator</text><ellipse cx="39.75" cy="666.1191" fill="#E2E2F0" rx="4" ry="4" style="stroke:#181818;stroke-width:0.25;"/><path d="M39.75,670.1191 L39.75,683.6191 M33.25,674.1191 L46.25,674.1191 M39.75,683.6191 L33.25,691.1191 M39.75,683.6191 L46.25,691.1191 " fill="none" style="stroke:#181818;stroke-width:0.25;"/><rect fill="#E2E2F0" height="25.6211" rx="1.25" ry="1.25" style="stroke:#181818;stroke-width:0.25;" width="98.5" x="151.25" y="652.5586"/><text fill="#000000" font-family="sans-serif" font-size="7" font-style="italic" lengthAdjust="spacing" textLength="47.5" x="176.75" y="663.6123">&#171;presentation&#187;</text><text fill="#000000" font-family="sans-serif" font-size="7" lengthAdjust="spacing" textLength="91.5" x="154.75" y="672.9229">AddDronesToProposalAction</text><rect fill="#E2E2F0" height="25.6211" rx="1.25" ry="1.25" style="stroke:#181818;stroke-width:0.25;" width="85" x="254.75" y="652.5586"/><text fill="#000000" font-family="sans-serif" font-size="7" font-style="italic" lengthAdjust="spacing" textLength="47.5" x="273.5" y="663.6123">&#171;presentation&#187;</text><text fill="#000000" font-family="sans-serif" font-size="7" lengthAdjust="spacing" textLength="78" x="258.25" y="672.9229">AddDronesToProposalUI</text><rect fill="#E2E2F0" height="25.6211" rx="1.25" ry="1.25" style="stroke:#181818;stroke-width:0.25;" width="110" x="443.25" y="652.5586"/><text fill="#000000" font-family="sans-serif" font-size="7" font-style="italic" lengthAdjust="spacing" textLength="42" x="477.25" y="663.6123">&#171;application&#187;</text><text fill="#000000" font-family="sans-serif" font-size="7" lengthAdjust="spacing" textLength="103" x="446.75" y="672.9229">AddDronesToProposalController</text><rect fill="#E2E2F0" height="25.6211" rx="1.25" ry="1.25" style="stroke:#181818;stroke-width:0.25;" width="116.5" x="641" y="35.5"/><text fill="#000000" font-family="sans-serif" font-size="7" font-style="italic" lengthAdjust="spacing" textLength="42" x="678.25" y="46.5537">&#171;application&#187;</text><text fill="#000000" font-family="sans-serif" font-size="7" lengthAdjust="spacing" textLength="109.5" x="644.5" y="55.8643">ShowProposalManagementService</text><rect fill="#E2E2F0" height="25.6211" rx="1.25" ry="1.25" style="stroke:#181818;stroke-width:0.25;" width="116.5" x="641" y="652.5586"/><text fill="#000000" font-family="sans-serif" font-size="7" font-style="italic" lengthAdjust="spacing" textLength="42" x="678.25" y="663.6123">&#171;application&#187;</text><text fill="#000000" font-family="sans-serif" font-size="7" lengthAdjust="spacing" textLength="109.5" x="644.5" y="672.9229">ShowProposalManagementService</text><rect fill="#E2E2F0" height="25.6211" rx="1.25" ry="1.25" style="stroke:#181818;stroke-width:0.25;" width="52" x="799.25" y="35.5"/><text fill="#000000" font-family="sans-serif" font-size="7" font-style="italic" lengthAdjust="spacing" textLength="31" x="809.75" y="46.5537">&#171;domain&#187;</text><text fill="#000000" font-family="sans-serif" font-size="7" lengthAdjust="spacing" textLength="45" x="802.75" y="55.8643">ShowProposal</text><rect fill="#E2E2F0" height="25.6211" rx="1.25" ry="1.25" style="stroke:#181818;stroke-width:0.25;" width="52" x="799.25" y="652.5586"/><text fill="#000000" font-family="sans-serif" font-size="7" font-style="italic" lengthAdjust="spacing" textLength="31" x="809.75" y="663.6123">&#171;domain&#187;</text><text fill="#000000" font-family="sans-serif" font-size="7" lengthAdjust="spacing" textLength="45" x="802.75" y="672.9229">ShowProposal</text><rect fill="#E2E2F0" height="25.6211" rx="1.25" ry="1.25" style="stroke:#181818;stroke-width:0.25;" width="50.5" x="977" y="35.5"/><text fill="#000000" font-family="sans-serif" font-size="7" font-style="italic" lengthAdjust="spacing" textLength="31" x="986.75" y="46.5537">&#171;domain&#187;</text><text fill="#000000" font-family="sans-serif" font-size="7" lengthAdjust="spacing" textLength="43.5" x="980.5" y="55.8643">DroneListItem</text><rect fill="#E2E2F0" height="25.6211" rx="1.25" ry="1.25" style="stroke:#181818;stroke-width:0.25;" width="50.5" x="977" y="652.5586"/><text fill="#000000" font-family="sans-serif" font-size="7" font-style="italic" lengthAdjust="spacing" textLength="31" x="986.75" y="663.6123">&#171;domain&#187;</text><text fill="#000000" font-family="sans-serif" font-size="7" lengthAdjust="spacing" textLength="43.5" x="980.5" y="672.9229">DroneListItem</text><rect fill="#E2E2F0" height="25.6211" rx="1.25" ry="1.25" style="stroke:#181818;stroke-width:0.25;" width="86" x="1032.5" y="35.5"/><text fill="#000000" font-family="sans-serif" font-size="7" font-style="italic" lengthAdjust="spacing" textLength="39.5" x="1055.75" y="46.5537">&#171;repository&#187;</text><text fill="#000000" font-family="sans-serif" font-size="7" lengthAdjust="spacing" textLength="79" x="1036" y="55.8643">ShowProposalRepository</text><rect fill="#E2E2F0" height="25.6211" rx="1.25" ry="1.25" style="stroke:#181818;stroke-width:0.25;" width="86" x="1032.5" y="652.5586"/><text fill="#000000" font-family="sans-serif" font-size="7" font-style="italic" lengthAdjust="spacing" textLength="39.5" x="1055.75" y="663.6123">&#171;repository&#187;</text><text fill="#000000" font-family="sans-serif" font-size="7" lengthAdjust="spacing" textLength="79" x="1036" y="672.9229">ShowProposalRepository</text><rect fill="#E2E2F0" height="25.6211" rx="1.25" ry="1.25" style="stroke:#181818;stroke-width:0.25;" width="79.5" x="1123.5" y="35.5"/><text fill="#000000" font-family="sans-serif" font-size="7" font-style="italic" lengthAdjust="spacing" textLength="39.5" x="1143.5" y="46.5537">&#171;repository&#187;</text><text fill="#000000" font-family="sans-serif" font-size="7" lengthAdjust="spacing" textLength="72.5" x="1127" y="55.8643">DroneModelRepository</text><rect fill="#E2E2F0" height="25.6211" rx="1.25" ry="1.25" style="stroke:#181818;stroke-width:0.25;" width="79.5" x="1123.5" y="652.5586"/><text fill="#000000" font-family="sans-serif" font-size="7" font-style="italic" lengthAdjust="spacing" textLength="39.5" x="1143.5" y="663.6123">&#171;repository&#187;</text><text fill="#000000" font-family="sans-serif" font-size="7" lengthAdjust="spacing" textLength="72.5" x="1127" y="672.9229">DroneModelRepository</text><text fill="#000000" font-family="sans-serif" font-size="7" lengthAdjust="spacing" textLength="30.5" x="1263.75" y="59.8643">Database</text><path d="M1271.5,34.3105 C1271.5,29.3105 1280.5,29.3105 1280.5,29.3105 C1280.5,29.3105 1289.5,29.3105 1289.5,34.3105 L1289.5,47.3105 C1289.5,52.3105 1280.5,52.3105 1280.5,52.3105 C1280.5,52.3105 1271.5,52.3105 1271.5,47.3105 L1271.5,34.3105 " fill="#E2E2F0" style="stroke:#181818;stroke-width:0.75;"/><path d="M1271.5,34.3105 C1271.5,39.3105 1280.5,39.3105 1280.5,39.3105 C1280.5,39.3105 1289.5,39.3105 1289.5,34.3105 " fill="none" style="stroke:#181818;stroke-width:0.75;"/><text fill="#000000" font-family="sans-serif" font-size="7" lengthAdjust="spacing" textLength="30.5" x="1263.75" y="660.1123">Database</text><path d="M1271.5,666.8691 C1271.5,661.8691 1280.5,661.8691 1280.5,661.8691 C1280.5,661.8691 1289.5,661.8691 1289.5,666.8691 L1289.5,679.8691 C1289.5,684.8691 1280.5,684.8691 1280.5,684.8691 C1280.5,684.8691 1271.5,684.8691 1271.5,679.8691 L1271.5,666.8691 " fill="#E2E2F0" style="stroke:#181818;stroke-width:0.75;"/><path d="M1271.5,666.8691 C1271.5,671.8691 1280.5,671.8691 1280.5,671.8691 C1280.5,671.8691 1289.5,671.8691 1289.5,666.8691 " fill="none" style="stroke:#181818;stroke-width:0.75;"/><rect fill="#FFFFFF" height="577.4375" style="stroke:#181818;stroke-width:0.5;" width="5" x="37.25" y="66.6211"/><rect fill="#FFFFFF" height="48.5967" style="stroke:#181818;stroke-width:0.5;" width="5" x="198" y="91.9121"/><rect fill="#FFFFFF" height="140.6396" style="stroke:#181818;stroke-width:0.5;" width="5" x="294.75" y="140.5088"/><rect fill="#FFFFFF" height="122.6641" style="stroke:#181818;stroke-width:0.5;" width="5" x="294.75" y="296.7939"/><rect fill="#FFFFFF" height="15.6455" style="stroke:#181818;stroke-width:0.5;" width="5" x="294.75" y="435.1035"/><rect fill="#FFFFFF" height="177.6641" style="stroke:#181818;stroke-width:0.5;" width="5" x="294.75" y="466.3945"/><rect fill="#FFFFFF" height="78.2275" style="stroke:#181818;stroke-width:0.5;" width="5" x="495.75" y="187.2754"/><rect fill="#FFFFFF" height="78.2275" style="stroke:#181818;stroke-width:0.5;" width="5" x="495.75" y="312.4395"/><rect fill="#FFFFFF" height="74.9365" style="stroke:#181818;stroke-width:0.5;" width="5" x="495.75" y="482.04"/><rect fill="#FFFFFF" height="52.291" style="stroke:#181818;stroke-width:0.5;" width="5" x="495.75" y="576.1221"/><rect fill="#FFFFFF" height="52.291" style="stroke:#181818;stroke-width:0.5;" width="5" x="696.75" y="497.6855"/><rect fill="#FFFFFF" height="29.6455" style="stroke:#181818;stroke-width:0.5;" width="5" x="822.75" y="513.3311"/><rect fill="#FFFFFF" height="7" style="stroke:#181818;stroke-width:0.5;" width="5" x="999.75" y="528.9766"/><rect fill="#FFFFFF" height="46.9365" style="stroke:#181818;stroke-width:0.5;" width="5" x="1073" y="202.9209"/><rect fill="#FFFFFF" height="29.6455" style="stroke:#181818;stroke-width:0.5;" width="5" x="1073" y="591.7676"/><rect fill="#FFFFFF" height="46.9365" style="stroke:#181818;stroke-width:0.5;" width="5" x="1160.75" y="328.085"/><rect fill="#FFFFFF" height="15.6455" style="stroke:#181818;stroke-width:0.5;" width="5" x="1278" y="218.5664"/><rect fill="#FFFFFF" height="15.6455" style="stroke:#181818;stroke-width:0.5;" width="5" x="1278" y="343.7305"/><rect fill="#FFFFFF" height="7" style="stroke:#181818;stroke-width:0.5;" width="5" x="1278" y="607.4131"/><polygon fill="#181818" points="145.25,84.9121,150.25,86.9121,145.25,88.9121,147.25,86.9121" style="stroke:#181818;stroke-width:0.5;"/><line style="stroke:#181818;stroke-width:0.5;" x1="42.25" x2="148.25" y1="86.9121" y2="86.9121"/><text fill="#000000" font-family="sans-serif" font-size="6.5" lengthAdjust="spacing" textLength="83" x="45.75" y="75.6353">Wants to configure the list of</text><text fill="#000000" font-family="sans-serif" font-size="6.5" lengthAdjust="spacing" textLength="95" x="47.75" y="84.2808">drone models of a show proposal</text><rect fill="#E2E2F0" height="25.6211" rx="1.25" ry="1.25" style="stroke:#181818;stroke-width:0.25;" width="98.5" x="151.25" y="66.6211"/><text fill="#000000" font-family="sans-serif" font-size="7" font-style="italic" lengthAdjust="spacing" textLength="47.5" x="176.75" y="77.6748">&#171;presentation&#187;</text><text fill="#000000" font-family="sans-serif" font-size="7" lengthAdjust="spacing" textLength="91.5" x="154.75" y="86.9854">AddDronesToProposalAction</text><polygon fill="#181818" points="248.75,107.3877,253.75,109.3877,248.75,111.3877,250.75,109.3877" style="stroke:#181818;stroke-width:0.5;"/><line style="stroke:#181818;stroke-width:0.5;" x1="203" x2="251.75" y1="109.3877" y2="109.3877"/><text fill="#000000" font-family="sans-serif" font-size="6.5" lengthAdjust="spacing" textLength="18" x="206.5" y="106.7563">create</text><rect fill="#E2E2F0" height="25.6211" rx="1.25" ry="1.25" style="stroke:#181818;stroke-width:0.25;" width="85" x="254.75" y="97.7422"/><text fill="#000000" font-family="sans-serif" font-size="7" font-style="italic" lengthAdjust="spacing" textLength="47.5" x="273.5" y="108.7959">&#171;presentation&#187;</text><text fill="#000000" font-family="sans-serif" font-size="7" lengthAdjust="spacing" textLength="78" x="258.25" y="118.1064">AddDronesToProposalUI</text><polygon fill="#181818" points="288.75,138.5088,293.75,140.5088,288.75,142.5088,290.75,140.5088" style="stroke:#181818;stroke-width:0.5;"/><line style="stroke:#181818;stroke-width:0.5;" x1="200.5" x2="291.75" y1="140.5088" y2="140.5088"/><text fill="#000000" font-family="sans-serif" font-size="6.5" lengthAdjust="spacing" textLength="19" x="204" y="137.8774">show()</text><polygon fill="#181818" points="437.25,154.1543,442.25,156.1543,437.25,158.1543,439.25,156.1543" style="stroke:#181818;stroke-width:0.5;"/><line style="stroke:#181818;stroke-width:0.5;" x1="299.75" x2="440.25" y1="156.1543" y2="156.1543"/><text fill="#000000" font-family="sans-serif" font-size="6.5" lengthAdjust="spacing" textLength="18" x="303.25" y="153.5229">create</text><rect fill="#E2E2F0" height="25.6211" rx="1.25" ry="1.25" style="stroke:#181818;stroke-width:0.25;" width="110" x="443.25" y="144.5088"/><text fill="#000000" font-family="sans-serif" font-size="7" font-style="italic" lengthAdjust="spacing" textLength="42" x="477.25" y="155.5625">&#171;application&#187;</text><text fill="#000000" font-family="sans-serif" font-size="7" lengthAdjust="spacing" textLength="103" x="446.75" y="164.873">AddDronesToProposalController</text><polygon fill="#181818" points="489.75,185.2754,494.75,187.2754,489.75,189.2754,491.75,187.2754" style="stroke:#181818;stroke-width:0.5;"/><line style="stroke:#181818;stroke-width:0.5;" x1="299.75" x2="492.75" y1="187.2754" y2="187.2754"/><text fill="#000000" font-family="sans-serif" font-size="6.5" lengthAdjust="spacing" textLength="68.5" x="303.25" y="184.644">getListShowProposals()</text><polygon fill="#181818" points="1067,200.9209,1072,202.9209,1067,204.9209,1069,202.9209" style="stroke:#181818;stroke-width:0.5;"/><line style="stroke:#181818;stroke-width:0.5;" x1="500.75" x2="1070" y1="202.9209" y2="202.9209"/><text fill="#000000" font-family="sans-serif" font-size="6.5" lengthAdjust="spacing" textLength="190.5" x="504.25" y="200.2896">findByStatusAndEmptyDroneList(ShowProposalStatus.PENDING)</text><polygon fill="#181818" points="1272,216.5664,1277,218.5664,1272,220.5664,1274,218.5664" style="stroke:#181818;stroke-width:0.5;"/><line style="stroke:#181818;stroke-width:0.5;" x1="1078" x2="1275" y1="218.5664" y2="218.5664"/><text fill="#000000" font-family="sans-serif" font-size="6.5" lengthAdjust="spacing" textLength="190.5" x="1081.5" y="215.9351">findByStatusAndEmptyDroneList(ShowProposalStatus.PENDING)</text><polygon fill="#181818" points="1083.5,232.2119,1078.5,234.2119,1083.5,236.2119,1081.5,234.2119" style="stroke:#181818;stroke-width:0.5;"/><line style="stroke:#181818;stroke-width:0.5;stroke-dasharray:2.0,2.0;" x1="1080.5" x2="1280" y1="234.2119" y2="234.2119"/><text fill="#000000" font-family="sans-serif" font-size="6.5" lengthAdjust="spacing" textLength="66.5" x="1086.5" y="231.5806">List of Show Proposals</text><polygon fill="#181818" points="506.25,247.8574,501.25,249.8574,506.25,251.8574,504.25,249.8574" style="stroke:#181818;stroke-width:0.5;"/><line style="stroke:#181818;stroke-width:0.5;stroke-dasharray:2.0,2.0;" x1="503.25" x2="1075" y1="249.8574" y2="249.8574"/><text fill="#000000" font-family="sans-serif" font-size="6.5" lengthAdjust="spacing" textLength="66.5" x="509.25" y="247.2261">List of Show Proposals</text><polygon fill="#181818" points="305.25,263.5029,300.25,265.5029,305.25,267.5029,303.25,265.5029" style="stroke:#181818;stroke-width:0.5;"/><line style="stroke:#181818;stroke-width:0.5;stroke-dasharray:2.0,2.0;" x1="302.25" x2="497.75" y1="265.5029" y2="265.5029"/><text fill="#000000" font-family="sans-serif" font-size="6.5" lengthAdjust="spacing" textLength="66.5" x="308.25" y="262.8716">List of Show Proposals</text><polygon fill="#181818" points="47.75,279.1484,42.75,281.1484,47.75,283.1484,45.75,281.1484" style="stroke:#181818;stroke-width:0.5;"/><line style="stroke:#181818;stroke-width:0.5;stroke-dasharray:2.0,2.0;" x1="44.75" x2="296.75" y1="281.1484" y2="281.1484"/><text fill="#000000" font-family="sans-serif" font-size="6.5" lengthAdjust="spacing" textLength="80.5" x="50.75" y="278.5171">Show list of show proposals</text><polygon fill="#181818" points="288.75,294.7939,293.75,296.7939,288.75,298.7939,290.75,296.7939" style="stroke:#181818;stroke-width:0.5;"/><line style="stroke:#181818;stroke-width:0.5;" x1="42.25" x2="291.75" y1="296.7939" y2="296.7939"/><text fill="#000000" font-family="sans-serif" font-size="6.5" lengthAdjust="spacing" textLength="65.5" x="45.75" y="294.1626">Choose show proposal</text><polygon fill="#181818" points="489.75,310.4395,494.75,312.4395,489.75,314.4395,491.75,312.4395" style="stroke:#181818;stroke-width:0.5;"/><line style="stroke:#181818;stroke-width:0.5;" x1="299.75" x2="492.75" y1="312.4395" y2="312.4395"/><text fill="#000000" font-family="sans-serif" font-size="6.5" lengthAdjust="spacing" textLength="61.5" x="303.25" y="309.8081">getListDroneModels()</text><polygon fill="#181818" points="1154.75,326.085,1159.75,328.085,1154.75,330.085,1156.75,328.085" style="stroke:#181818;stroke-width:0.5;"/><line style="stroke:#181818;stroke-width:0.5;" x1="500.75" x2="1157.75" y1="328.085" y2="328.085"/><text fill="#000000" font-family="sans-serif" font-size="6.5" lengthAdjust="spacing" textLength="50.5" x="504.25" y="325.4536">findByActive(true)</text><polygon fill="#181818" points="1272,341.7305,1277,343.7305,1272,345.7305,1274,343.7305" style="stroke:#181818;stroke-width:0.5;"/><line style="stroke:#181818;stroke-width:0.5;" x1="1165.75" x2="1275" y1="343.7305" y2="343.7305"/><text fill="#000000" font-family="sans-serif" font-size="6.5" lengthAdjust="spacing" textLength="50.5" x="1169.25" y="341.0991">findByActive(true)</text><polygon fill="#181818" points="1171.25,357.376,1166.25,359.376,1171.25,361.376,1169.25,359.376" style="stroke:#181818;stroke-width:0.5;"/><line style="stroke:#181818;stroke-width:0.5;stroke-dasharray:2.0,2.0;" x1="1168.25" x2="1280" y1="359.376" y2="359.376"/><text fill="#000000" font-family="sans-serif" font-size="6.5" lengthAdjust="spacing" textLength="79" x="1174.25" y="356.7446">List of Active Drone Models</text><polygon fill="#181818" points="506.25,373.0215,501.25,375.0215,506.25,377.0215,504.25,375.0215" style="stroke:#181818;stroke-width:0.5;"/><line style="stroke:#181818;stroke-width:0.5;stroke-dasharray:2.0,2.0;" x1="503.25" x2="1162.75" y1="375.0215" y2="375.0215"/><text fill="#000000" font-family="sans-serif" font-size="6.5" lengthAdjust="spacing" textLength="79" x="509.25" y="372.3901">List of Active Drone Models</text><polygon fill="#181818" points="305.25,388.667,300.25,390.667,305.25,392.667,303.25,390.667" style="stroke:#181818;stroke-width:0.5;"/><line style="stroke:#181818;stroke-width:0.5;stroke-dasharray:2.0,2.0;" x1="302.25" x2="497.75" y1="390.667" y2="390.667"/><text fill="#000000" font-family="sans-serif" font-size="6.5" lengthAdjust="spacing" textLength="79" x="308.25" y="388.0356">List of Active Drone Models</text><path d="M5,398.167 L41.5,398.167 L41.5,402.8125 L36.5,407.8125 L5,407.8125 L5,398.167 " fill="#EEEEEE" style="stroke:#000000;stroke-width:0.75;"/><rect fill="none" height="162.8096" style="stroke:#000000;stroke-width:0.75;" width="1027.5" x="5" y="398.167"/><text fill="#000000" font-family="sans-serif" font-size="6.5" font-weight="bold" lengthAdjust="spacing" textLength="14" x="12.5" y="405.6812">loop</text><text fill="#000000" font-family="sans-serif" font-size="5.5" font-weight="bold" lengthAdjust="spacing" textLength="110.5" x="49" y="405.1021">[While user wants to add drone Models]</text><polygon fill="#181818" points="47.75,417.458,42.75,419.458,47.75,421.458,45.75,419.458" style="stroke:#181818;stroke-width:0.5;"/><line style="stroke:#181818;stroke-width:0.5;stroke-dasharray:2.0,2.0;" x1="44.75" x2="296.75" y1="419.458" y2="419.458"/><text fill="#000000" font-family="sans-serif" font-size="6.5" lengthAdjust="spacing" textLength="74.5" x="50.75" y="416.8267">Show list of drone models</text><polygon fill="#181818" points="288.75,433.1035,293.75,435.1035,288.75,437.1035,290.75,435.1035" style="stroke:#181818;stroke-width:0.5;"/><line style="stroke:#181818;stroke-width:0.5;" x1="42.25" x2="291.75" y1="435.1035" y2="435.1035"/><text fill="#000000" font-family="sans-serif" font-size="6.5" lengthAdjust="spacing" textLength="59.5" x="45.75" y="432.4722">Choose drone model</text><polygon fill="#181818" points="47.75,448.749,42.75,450.749,47.75,452.749,45.75,450.749" style="stroke:#181818;stroke-width:0.5;"/><line style="stroke:#181818;stroke-width:0.5;stroke-dasharray:2.0,2.0;" x1="44.75" x2="296.75" y1="450.749" y2="450.749"/><text fill="#000000" font-family="sans-serif" font-size="6.5" lengthAdjust="spacing" textLength="76" x="50.75" y="448.1177">Request number of drones</text><polygon fill="#181818" points="288.75,464.3945,293.75,466.3945,288.75,468.3945,290.75,466.3945" style="stroke:#181818;stroke-width:0.5;"/><line style="stroke:#181818;stroke-width:0.5;" x1="42.25" x2="291.75" y1="466.3945" y2="466.3945"/><text fill="#000000" font-family="sans-serif" font-size="6.5" lengthAdjust="spacing" textLength="73" x="45.75" y="463.7632">Provide number of drones</text><polygon fill="#181818" points="489.75,480.04,494.75,482.04,489.75,484.04,491.75,482.04" style="stroke:#181818;stroke-width:0.5;"/><line style="stroke:#181818;stroke-width:0.5;" x1="299.75" x2="492.75" y1="482.04" y2="482.04"/><text fill="#000000" font-family="sans-serif" font-size="6.5" lengthAdjust="spacing" textLength="186.5" x="303.25" y="479.4087">addDroneModelToProposal(showProposal ,droneModel, quantity)</text><polygon fill="#181818" points="690.75,495.6855,695.75,497.6855,690.75,499.6855,692.75,497.6855" style="stroke:#181818;stroke-width:0.5;"/><line style="stroke:#181818;stroke-width:0.5;" x1="500.75" x2="693.75" y1="497.6855" y2="497.6855"/><text fill="#000000" font-family="sans-serif" font-size="6.5" lengthAdjust="spacing" textLength="186.5" x="504.25" y="495.0542">addDroneModelToProposal(showProposal, droneModel, quantity)</text><polygon fill="#181818" points="816.75,511.3311,821.75,513.3311,816.75,515.3311,818.75,513.3311" style="stroke:#181818;stroke-width:0.5;"/><line style="stroke:#181818;stroke-width:0.5;" x1="701.75" x2="819.75" y1="513.3311" y2="513.3311"/><text fill="#000000" font-family="sans-serif" font-size="6.5" lengthAdjust="spacing" textLength="111.5" x="705.25" y="510.6997">addDroneToList( droneModel, quantity)</text><polygon fill="#181818" points="993.75,526.9766,998.75,528.9766,993.75,530.9766,995.75,528.9766" style="stroke:#181818;stroke-width:0.5;"/><line style="stroke:#181818;stroke-width:0.5;" x1="827.75" x2="996.75" y1="528.9766" y2="528.9766"/><text fill="#000000" font-family="sans-serif" font-size="6.5" lengthAdjust="spacing" textLength="162.5" x="831.25" y="526.3452">new DroneListItem(droneModel, showProposal, quantity)</text><polygon fill="#181818" points="833.25,533.9766,828.25,535.9766,833.25,537.9766,831.25,535.9766" style="stroke:#181818;stroke-width:0.5;"/><line style="stroke:#181818;stroke-width:0.5;stroke-dasharray:2.0,2.0;" x1="830.25" x2="1001.75" y1="535.9766" y2="535.9766"/><polygon fill="#181818" points="707.25,540.9766,702.25,542.9766,707.25,544.9766,705.25,542.9766" style="stroke:#181818;stroke-width:0.5;"/><line style="stroke:#181818;stroke-width:0.5;stroke-dasharray:2.0,2.0;" x1="704.25" x2="824.75" y1="542.9766" y2="542.9766"/><polygon fill="#181818" points="506.25,547.9766,501.25,549.9766,506.25,551.9766,504.25,549.9766" style="stroke:#181818;stroke-width:0.5;"/><line style="stroke:#181818;stroke-width:0.5;stroke-dasharray:2.0,2.0;" x1="503.25" x2="698.75" y1="549.9766" y2="549.9766"/><polygon fill="#181818" points="305.25,554.9766,300.25,556.9766,305.25,558.9766,303.25,556.9766" style="stroke:#181818;stroke-width:0.5;"/><line style="stroke:#181818;stroke-width:0.5;stroke-dasharray:2.0,2.0;" x1="302.25" x2="497.75" y1="556.9766" y2="556.9766"/><polygon fill="#181818" points="489.75,574.1221,494.75,576.1221,489.75,578.1221,491.75,576.1221" style="stroke:#181818;stroke-width:0.5;"/><line style="stroke:#181818;stroke-width:0.5;" x1="299.75" x2="492.75" y1="576.1221" y2="576.1221"/><text fill="#000000" font-family="sans-serif" font-size="6.5" lengthAdjust="spacing" textLength="57.5" x="303.25" y="573.4907">save(showProposal)</text><polygon fill="#181818" points="1067,589.7676,1072,591.7676,1067,593.7676,1069,591.7676" style="stroke:#181818;stroke-width:0.5;"/><line style="stroke:#181818;stroke-width:0.5;" x1="500.75" x2="1070" y1="591.7676" y2="591.7676"/><text fill="#000000" font-family="sans-serif" font-size="6.5" lengthAdjust="spacing" textLength="57.5" x="504.25" y="589.1362">save(showProposal)</text><polygon fill="#181818" points="1272,605.4131,1277,607.4131,1272,609.4131,1274,607.4131" style="stroke:#181818;stroke-width:0.5;"/><line style="stroke:#181818;stroke-width:0.5;" x1="1078" x2="1275" y1="607.4131" y2="607.4131"/><text fill="#000000" font-family="sans-serif" font-size="6.5" lengthAdjust="spacing" textLength="57.5" x="1081.5" y="604.7817">save(showProposal)</text><polygon fill="#181818" points="1083.5,612.4131,1078.5,614.4131,1083.5,616.4131,1081.5,614.4131" style="stroke:#181818;stroke-width:0.5;"/><line style="stroke:#181818;stroke-width:0.5;stroke-dasharray:2.0,2.0;" x1="1080.5" x2="1280" y1="614.4131" y2="614.4131"/><polygon fill="#181818" points="506.25,619.4131,501.25,621.4131,506.25,623.4131,504.25,621.4131" style="stroke:#181818;stroke-width:0.5;"/><line style="stroke:#181818;stroke-width:0.5;stroke-dasharray:2.0,2.0;" x1="503.25" x2="1075" y1="621.4131" y2="621.4131"/><polygon fill="#181818" points="305.25,626.4131,300.25,628.4131,305.25,630.4131,303.25,628.4131" style="stroke:#181818;stroke-width:0.5;"/><line style="stroke:#181818;stroke-width:0.5;stroke-dasharray:2.0,2.0;" x1="302.25" x2="497.75" y1="628.4131" y2="628.4131"/><polygon fill="#181818" points="45.25,642.0586,40.25,644.0586,45.25,646.0586,43.25,644.0586" style="stroke:#181818;stroke-width:0.5;"/><line style="stroke:#181818;stroke-width:0.5;stroke-dasharray:2.0,2.0;" x1="42.25" x2="296.75" y1="644.0586" y2="644.0586"/><text fill="#000000" font-family="sans-serif" font-size="6.5" lengthAdjust="spacing" textLength="102" x="48.25" y="641.4272">Confirm if operation was successful</text><!--SRC=[fLVRJkCm47ttLunuQYlO3wWG4blGgX8WH46yx8j9tDPI4WVRAUhVxzYvsObpOUbB6jjppjXpnZFHN2SCTkopO5d4u8xJWwGf8JJIGiB5vkKHDY99w8UG54SkW2guDNCafrBpYESqqt1n6yTtKcHClOfdANAXQ8AhkCXg0_mBrzUvP8fbcfhNcvj9YBUjDN_RVjzq8p8jqN5Mkjo-8XJDyuH7GQJTKNpL48yqemUM8kcEoHEFc4KQNJ4Vl8U5fh58AUzPsPqzSAMtcgNMp1iPj7F1NnW-E4RjtEDjfn19DYz1Bnv5pBfOeOakKamr_Q2A8KprhpIjNgpQ-8bgLacBs0TStLJAMQtMy8vkAD028f7j-Q6G3FIHGOB706B_DuFOE0AfyKJX251Gk4t8gttw90XgMOmiaUPjkrh16YB9SDuRNrkKnPAGc7K107_DsDkM41Gg6hLQSq6xSsiuC6s2w0P36I8FjZKe9ypF4JD2XeEvXZtFuj_d7MPCeMwp-3xDzRbHpiArAjVyUhv_kji-_LcsH8qNOOvsuO2WqBiwnZ_nf-TEAvnwgXw1gv4JUIYrOkUXEV86mmbmGp2rmKv8vpCCd6Wen9KEHx0TN5SlHd9b3WdqpTfLwUAdXdArRNJSf9_XtHo5m8Fj95DV_BNhWq9lRmeZyrvGGqhlgprqtTJQCcbvOWij2xRq8Dgu1gm98JwXrLFeLWl8UP1oGgz1tORtLiUzf2eNGNcCFRWn2OzlRK388L9_5ovbw7HdA7fiPmFIDbE943cy7pdsBuL2sA-wGj0uhgf1xN6jou5iS4j7Dw5gQOTomh4BvuFF-MAwB6JCYlG3_Qs9vr5YnfzupCB6GM8_ehJgaUoHj7tIGhazo6NSBBc4pm8FbElpyYSLgTSYpVFa4eOz6QnCFQvmWUftRHsVMnTVXIrE_-DCcBkvmkhsRGqP-_A75YwRVoWZt1w4KnYzNh5R7SbG5lU1_5rCHNcgvCqDZ2VYAT2m5xsBPwHacXcMnGCff2XUzMv09Z9ZNfysXJhIAP2vlTSKXrSioCo6YenLd5aD4vdV57qtYlxDkp7V3385lWUHCsc_ph1UA515536bzaKIk8JzZX-_I_u1]--></g></svg>