<?xml version="1.0" encoding="us-ascii" standalone="no"?><svg xmlns="http://www.w3.org/2000/svg" xmlns:xlink="http://www.w3.org/1999/xlink" contentStyleType="text/css" height="605px" preserveAspectRatio="none" style="width:545px;height:605px;background:#FFFFFF;" version="1.1" viewBox="0 0 545 605" width="545px" zoomAndPan="magnify"><defs/><g><text fill="#000000" font-family="sans-serif" font-size="14" font-weight="bold" lengthAdjust="spacing" textLength="242" x="147.75" y="30.1074">System Sequence Diagram - US311</text><rect fill="#FFFFFF" height="379.832" style="stroke:#181818;stroke-width:1.0;" width="10" x="84.5" y="133.2422"/><rect fill="#FFFFFF" height="31.291" style="stroke:#181818;stroke-width:1.0;" width="10" x="473.5" y="201.8242"/><rect fill="#FFFFFF" height="57.582" style="stroke:#181818;stroke-width:1.0;" width="10" x="473.5" y="264.4063"/><rect fill="#FFFFFF" height="57.582" style="stroke:#181818;stroke-width:1.0;" width="10" x="473.5" y="353.2793"/><rect fill="#FFFFFF" height="70.9219" style="stroke:#181818;stroke-width:1.0;" width="10" x="473.5" y="442.1523"/><rect fill="none" height="194.377" style="stroke:#000000;stroke-width:1.5;" width="518.5" x="10" y="279.4063"/><rect fill="none" height="98.5039" style="stroke:#000000;stroke-width:1.5;" width="498.5" x="20" y="368.2793"/><line style="stroke:#181818;stroke-width:0.5;stroke-dasharray:5.0,5.0;" x1="89" x2="89" y1="123.2422" y2="522.0742"/><line style="stroke:#181818;stroke-width:0.5;stroke-dasharray:5.0,5.0;" x1="478.5" x2="478.5" y1="123.2422" y2="522.0742"/><text fill="#000000" font-family="sans-serif" font-size="14" lengthAdjust="spacing" textLength="113" x="30" y="119.7285">CRM Collaborator</text><ellipse cx="89.5" cy="53.1211" fill="#E3E3E3" rx="8" ry="8" style="stroke:#181818;stroke-width:0.5;"/><path d="M89.5,61.1211 L89.5,88.1211 M76.5,69.1211 L102.5,69.1211 M89.5,88.1211 L76.5,103.1211 M89.5,88.1211 L102.5,103.1211 " fill="none" style="stroke:#181818;stroke-width:0.5;"/><text fill="#000000" font-family="sans-serif" font-size="14" lengthAdjust="spacing" textLength="113" x="30" y="536.1816">CRM Collaborator</text><ellipse cx="89.5" cy="548.1953" fill="#E3E3E3" rx="8" ry="8" style="stroke:#181818;stroke-width:0.5;"/><path d="M89.5,556.1953 L89.5,583.1953 M76.5,564.1953 L102.5,564.1953 M89.5,583.1953 L76.5,598.1953 M89.5,583.1953 L102.5,598.1953 " fill="none" style="stroke:#181818;stroke-width:0.5;"/><rect fill="#E3E3E3" height="32.6211" rx="2.5" ry="2.5" style="stroke:#181818;stroke-width:0.5;" width="60" x="448.5" y="89.6211"/><text fill="#000000" font-family="sans-serif" font-size="14" lengthAdjust="spacing" textLength="46" x="455.5" y="111.7285">System</text><rect fill="#E3E3E3" height="32.6211" rx="2.5" ry="2.5" style="stroke:#181818;stroke-width:0.5;" width="60" x="448.5" y="521.0742"/><text fill="#000000" font-family="sans-serif" font-size="14" lengthAdjust="spacing" textLength="46" x="455.5" y="543.1816">System</text><rect fill="#FFFFFF" height="379.832" style="stroke:#181818;stroke-width:1.0;" width="10" x="84.5" y="133.2422"/><rect fill="#FFFFFF" height="31.291" style="stroke:#181818;stroke-width:1.0;" width="10" x="473.5" y="201.8242"/><rect fill="#FFFFFF" height="57.582" style="stroke:#181818;stroke-width:1.0;" width="10" x="473.5" y="264.4063"/><rect fill="#FFFFFF" height="57.582" style="stroke:#181818;stroke-width:1.0;" width="10" x="473.5" y="353.2793"/><rect fill="#FFFFFF" height="70.9219" style="stroke:#181818;stroke-width:1.0;" width="10" x="473.5" y="442.1523"/><rect fill="#EEEEEE" height="3" style="stroke:#EEEEEE;stroke-width:1.0;" width="538.5" x="0" y="154.8877"/><line style="stroke:#000000;stroke-width:1.0;" x1="0" x2="538.5" y1="154.8877" y2="154.8877"/><line style="stroke:#000000;stroke-width:1.0;" x1="0" x2="538.5" y1="157.8877" y2="157.8877"/><rect fill="#EEEEEE" height="25.291" style="stroke:#000000;stroke-width:2.0;" width="177" x="180.75" y="143.2422"/><text fill="#000000" font-family="sans-serif" font-size="13" font-weight="bold" lengthAdjust="spacing" textLength="159" x="186.75" y="161.2705">Add drones to a proposal</text><polygon fill="#181818" points="461.5,197.8242,471.5,201.8242,461.5,205.8242,465.5,201.8242" style="stroke:#181818;stroke-width:1.0;"/><line style="stroke:#181818;stroke-width:1.0;" x1="94.5" x2="467.5" y1="201.8242" y2="201.8242"/><text fill="#000000" font-family="sans-serif" font-size="13" lengthAdjust="spacing" textLength="360" x="101.5" y="196.5615">Wants to configure the list of drone models of a show proposal</text><polygon fill="#181818" points="105.5,229.1152,95.5,233.1152,105.5,237.1152,101.5,233.1152" style="stroke:#181818;stroke-width:1.0;"/><line style="stroke:#181818;stroke-width:1.0;" x1="99.5" x2="477.5" y1="233.1152" y2="233.1152"/><text fill="#000000" font-family="sans-serif" font-size="13" lengthAdjust="spacing" textLength="161" x="111.5" y="227.8525">Show list of show proposals</text><polygon fill="#181818" points="461.5,260.4063,471.5,264.4063,461.5,268.4063,465.5,264.4063" style="stroke:#181818;stroke-width:1.0;"/><line style="stroke:#181818;stroke-width:1.0;" x1="94.5" x2="467.5" y1="264.4063" y2="264.4063"/><text fill="#000000" font-family="sans-serif" font-size="13" lengthAdjust="spacing" textLength="131" x="101.5" y="259.1436">Choose show proposal</text><path d="M10,279.4063 L83,279.4063 L83,288.6973 L73,298.6973 L10,298.6973 L10,279.4063 " fill="#EEEEEE" style="stroke:#000000;stroke-width:1.5;"/><rect fill="none" height="194.377" style="stroke:#000000;stroke-width:1.5;" width="518.5" x="10" y="279.4063"/><text fill="#000000" font-family="sans-serif" font-size="13" font-weight="bold" lengthAdjust="spacing" textLength="28" x="25" y="294.4346">loop</text><text fill="#000000" font-family="sans-serif" font-size="11" font-weight="bold" lengthAdjust="spacing" textLength="221" x="98" y="293.2764">[While user wants to add drone Models]</text><polygon fill="#181818" points="105.5,317.9883,95.5,321.9883,105.5,325.9883,101.5,321.9883" style="stroke:#181818;stroke-width:1.0;"/><line style="stroke:#181818;stroke-width:1.0;" x1="99.5" x2="477.5" y1="321.9883" y2="321.9883"/><text fill="#000000" font-family="sans-serif" font-size="13" lengthAdjust="spacing" textLength="149" x="111.5" y="316.7256">Show list of drone models</text><polygon fill="#181818" points="461.5,349.2793,471.5,353.2793,461.5,357.2793,465.5,353.2793" style="stroke:#181818;stroke-width:1.0;"/><line style="stroke:#181818;stroke-width:1.0;" x1="94.5" x2="467.5" y1="353.2793" y2="353.2793"/><text fill="#000000" font-family="sans-serif" font-size="13" lengthAdjust="spacing" textLength="119" x="101.5" y="348.0166">Choose drone model</text><path d="M20,368.2793 L81,368.2793 L81,377.5703 L71,387.5703 L20,387.5703 L20,368.2793 " fill="#EEEEEE" style="stroke:#000000;stroke-width:1.5;"/><rect fill="none" height="98.5039" style="stroke:#000000;stroke-width:1.5;" width="498.5" x="20" y="368.2793"/><text fill="#000000" font-family="sans-serif" font-size="13" font-weight="bold" lengthAdjust="spacing" textLength="16" x="35" y="383.3076">alt</text><text fill="#000000" font-family="sans-serif" font-size="11" font-weight="bold" lengthAdjust="spacing" textLength="217" x="96" y="382.1494">[User wants to add a new drone Model]</text><polygon fill="#181818" points="105.5,406.8613,95.5,410.8613,105.5,414.8613,101.5,410.8613" style="stroke:#181818;stroke-width:1.0;"/><line style="stroke:#181818;stroke-width:1.0;" x1="99.5" x2="477.5" y1="410.8613" y2="410.8613"/><text fill="#000000" font-family="sans-serif" font-size="13" lengthAdjust="spacing" textLength="152" x="111.5" y="405.5986">Request number of drones</text><polygon fill="#181818" points="461.5,438.1523,471.5,442.1523,461.5,446.1523,465.5,442.1523" style="stroke:#181818;stroke-width:1.0;"/><line style="stroke:#181818;stroke-width:1.0;" x1="94.5" x2="467.5" y1="442.1523" y2="442.1523"/><text fill="#000000" font-family="sans-serif" font-size="13" lengthAdjust="spacing" textLength="146" x="101.5" y="436.8896">Provide number of drones</text><line style="stroke:#000000;stroke-width:1.0;stroke-dasharray:2.0,2.0;" x1="20" x2="518.5" y1="451.1523" y2="451.1523"/><text fill="#000000" font-family="sans-serif" font-size="11" font-weight="bold" lengthAdjust="spacing" textLength="235" x="25" y="463.0225">[User does not want to add a drone Model]</text><polygon fill="#181818" points="105.5,500.0742,95.5,504.0742,105.5,508.0742,101.5,504.0742" style="stroke:#181818;stroke-width:1.0;"/><line style="stroke:#181818;stroke-width:1.0;" x1="99.5" x2="472.5" y1="504.0742" y2="504.0742"/><text fill="#000000" font-family="sans-serif" font-size="13" lengthAdjust="spacing" textLength="204" x="111.5" y="498.8115">Confirm if operation was successful</text><!--SRC=[bPD1Yy8m48Nl-HM3Tm-oDy65nRqAYqKyZycq3QQPRf8g_lkTLglTTf6rK6YJzBtlFQRnQ7sD0IkesBCk0rS4AJIaudsdHdt4Wh9qSGI1T49VkE61MABXi_K5vEWYAOKwSO3PUhk1DJk71mueApF023fKmpKb4ibgMwDFCCikCL7LdOlTerB99h6zRa16tmrvJV1fiMYjvx3BtXOBfLOh-306J61F4H83GXsuveWELgkMo9umqSHUZHPW_dwpXYNi1QeJq-npMpH1kYa9d8q9EB-QIN66N6pVKPhWyzttOTfdkGcBnTXr2LdxQQ_yIoSgGsEfPzJhaZdIY6KAuvXhs9TMscqY1JZtOR7l4JPTj1UuXutyGVqVx874b1bTWjq45i7JUOYiO70zWz-syoJelgaEejedaCWlmdy5Fbb3Kw4xXZH2LtR3Cg6UKnVYaM78F_OcRxhxMPPrEwEX0fi3roIhbhrOo9_KQ4qnverCWVe1]--></g></svg>