<?xml version="1.0" encoding="us-ascii" standalone="no"?><svg xmlns="http://www.w3.org/2000/svg" xmlns:xlink="http://www.w3.org/1999/xlink" contentStyleType="text/css" height="787.5px" preserveAspectRatio="none" style="width:1831px;height:787px;background:#FFFFFF;" version="1.1" viewBox="0 0 1831 787" width="1831.5px" zoomAndPan="magnify"><defs/><g><text fill="#000000" font-family="sans-serif" font-size="12.6" font-weight="bold" lengthAdjust="spacing" textLength="118.8" x="857.7" y="27.0967">Sequence Diagram</text><rect fill="#FFFFFF" height="577.0529" style="stroke:#181818;stroke-width:0.9;" width="9" x="45.45" y="119.918"/><rect fill="#FFFFFF" height="84.1799" style="stroke:#181818;stroke-width:0.9;" width="9" x="363.15" y="140.8799"/><rect fill="#FFFFFF" height="443.7492" style="stroke:#181818;stroke-width:0.9;" width="9" x="363.15" y="253.2217"/><rect fill="#FFFFFF" height="387.4254" style="stroke:#181818;stroke-width:0.9;" width="9" x="613.35" y="281.3836"/><rect fill="#FFFFFF" height="290.6455" style="stroke:#181818;stroke-width:0.9;" width="9" x="1051.65" y="365.5635"/><rect fill="#FFFFFF" height="112.3418" style="stroke:#181818;stroke-width:0.9;" width="9" x="1188" y="449.7434"/><rect fill="#FFFFFF" height="47.018" style="stroke:#181818;stroke-width:0.9;" width="9" x="1602.9" y="486.9053"/><rect fill="#FFFFFF" height="53.3619" style="stroke:#181818;stroke-width:0.9;" width="9" x="1701.45" y="590.2471"/><rect fill="#FFFFFF" height="12.6" style="stroke:#181818;stroke-width:0.9;" width="9" x="1795.95" y="618.409"/><line style="stroke:#181818;stroke-width:0.45;stroke-dasharray:5.0,5.0;" x1="49.5" x2="49.5" y1="110.918" y2="713.1709"/><line style="stroke:#181818;stroke-width:0.45;stroke-dasharray:5.0,5.0;" x1="367.2" x2="367.2" y1="110.918" y2="713.1709"/><line style="stroke:#181818;stroke-width:0.45;stroke-dasharray:5.0,5.0;" x1="617.85" x2="617.85" y1="185.0889" y2="713.1709"/><line style="stroke:#181818;stroke-width:0.45;stroke-dasharray:5.0,5.0;" x1="899.55" x2="899.55" y1="325.5926" y2="713.1709"/><line style="stroke:#181818;stroke-width:0.45;stroke-dasharray:5.0,5.0;" x1="1056.15" x2="1056.15" y1="110.918" y2="713.1709"/><line style="stroke:#181818;stroke-width:0.45;stroke-dasharray:5.0,5.0;" x1="1192.05" x2="1192.05" y1="409.7725" y2="713.1709"/><line style="stroke:#181818;stroke-width:0.45;stroke-dasharray:5.0,5.0;" x1="1607.4" x2="1607.4" y1="493.9523" y2="713.1709"/><line style="stroke:#181818;stroke-width:0.45;stroke-dasharray:5.0,5.0;" x1="1705.5" x2="1705.5" y1="110.918" y2="713.1709"/><line style="stroke:#181818;stroke-width:0.45;stroke-dasharray:5.0,5.0;" x1="1800" x2="1800" y1="110.918" y2="713.1709"/><text fill="#000000" font-family="sans-serif" font-size="12.6" lengthAdjust="spacing" textLength="85.5" x="4.5" y="107.7557">Show Designer</text><ellipse cx="49.95" cy="47.809" fill="#E2E2F0" rx="7.2" ry="7.2" style="stroke:#181818;stroke-width:0.45;"/><path d="M49.95,55.009 L49.95,79.309 M38.25,62.209 L61.65,62.209 M49.95,79.309 L38.25,92.809 M49.95,79.309 L61.65,92.809 " fill="none" style="stroke:#181818;stroke-width:0.45;"/><text fill="#000000" font-family="sans-serif" font-size="12.6" lengthAdjust="spacing" textLength="85.5" x="4.5" y="725.8676">Show Designer</text><ellipse cx="49.95" cy="736.6799" fill="#E2E2F0" rx="7.2" ry="7.2" style="stroke:#181818;stroke-width:0.45;"/><path d="M49.95,743.8799 L49.95,768.1799 M38.25,751.0799 L61.65,751.0799 M49.95,768.1799 L38.25,781.6799 M49.95,768.1799 L61.65,781.6799 " fill="none" style="stroke:#181818;stroke-width:0.45;"/><rect fill="#E2E2F0" height="46.118" rx="2.25" ry="2.25" style="stroke:#181818;stroke-width:0.45;" width="98.1" x="318.6" y="63.9"/><text fill="#000000" font-family="sans-serif" font-size="12.6" font-style="italic" lengthAdjust="spacing" textLength="85.5" x="324.9" y="83.7967">&#171;presentation&#187;</text><text fill="#000000" font-family="sans-serif" font-size="12.6" lengthAdjust="spacing" textLength="70.2" x="332.55" y="100.5557">AddFigureUI</text><rect fill="#E2E2F0" height="46.118" rx="2.25" ry="2.25" style="stroke:#181818;stroke-width:0.45;" width="98.1" x="318.6" y="712.2709"/><text fill="#000000" font-family="sans-serif" font-size="12.6" font-style="italic" lengthAdjust="spacing" textLength="85.5" x="324.9" y="732.1676">&#171;presentation&#187;</text><text fill="#000000" font-family="sans-serif" font-size="12.6" lengthAdjust="spacing" textLength="70.2" x="332.55" y="748.9266">AddFigureUI</text><rect fill="#E2E2F0" height="46.118" rx="2.25" ry="2.25" style="stroke:#181818;stroke-width:0.45;" width="127.8" x="553.95" y="712.2709"/><text fill="#000000" font-family="sans-serif" font-size="12.6" font-style="italic" lengthAdjust="spacing" textLength="75.6" x="580.05" y="732.1676">&#171;application&#187;</text><text fill="#000000" font-family="sans-serif" font-size="12.6" lengthAdjust="spacing" textLength="115.2" x="560.25" y="748.9266">AddFigureController</text><rect fill="#E2E2F0" height="46.118" rx="2.25" ry="2.25" style="stroke:#181818;stroke-width:0.45;" width="128.7" x="835.65" y="712.2709"/><text fill="#000000" font-family="sans-serif" font-size="12.6" font-style="italic" lengthAdjust="spacing" textLength="39.6" x="880.2" y="732.1676">&#171;auth&#187;</text><text fill="#000000" font-family="sans-serif" font-size="12.6" lengthAdjust="spacing" textLength="116.1" x="841.95" y="748.9266">AuthorizationService</text><rect fill="#E2E2F0" height="46.118" rx="2.25" ry="2.25" style="stroke:#181818;stroke-width:0.45;" width="165.6" x="973.35" y="63.9"/><text fill="#000000" font-family="sans-serif" font-size="12.6" font-style="italic" lengthAdjust="spacing" textLength="75.6" x="1018.35" y="83.7967">&#171;application&#187;</text><text fill="#000000" font-family="sans-serif" font-size="12.6" lengthAdjust="spacing" textLength="153" x="979.65" y="100.5557">FigureManagementService</text><rect fill="#E2E2F0" height="46.118" rx="2.25" ry="2.25" style="stroke:#181818;stroke-width:0.45;" width="165.6" x="973.35" y="712.2709"/><text fill="#000000" font-family="sans-serif" font-size="12.6" font-style="italic" lengthAdjust="spacing" textLength="75.6" x="1018.35" y="732.1676">&#171;application&#187;</text><text fill="#000000" font-family="sans-serif" font-size="12.6" lengthAdjust="spacing" textLength="153" x="979.65" y="748.9266">FigureManagementService</text><rect fill="#E2E2F0" height="46.118" rx="2.25" ry="2.25" style="stroke:#181818;stroke-width:0.45;" width="89.1" x="1147.95" y="712.2709"/><text fill="#000000" font-family="sans-serif" font-size="12.6" font-style="italic" lengthAdjust="spacing" textLength="55.8" x="1164.6" y="732.1676">&#171;domain&#187;</text><text fill="#000000" font-family="sans-serif" font-size="12.6" lengthAdjust="spacing" textLength="76.5" x="1154.25" y="748.9266">FigureBuilder</text><rect fill="#E2E2F0" height="46.118" rx="2.25" ry="2.25" style="stroke:#181818;stroke-width:0.45;" width="68.4" x="1573.2" y="712.2709"/><text fill="#000000" font-family="sans-serif" font-size="12.6" font-style="italic" lengthAdjust="spacing" textLength="55.8" x="1579.5" y="732.1676">&#171;domain&#187;</text><text fill="#000000" font-family="sans-serif" font-size="12.6" lengthAdjust="spacing" textLength="36.9" x="1588.95" y="748.9266">Figure</text><rect fill="#E2E2F0" height="46.118" rx="2.25" ry="2.25" style="stroke:#181818;stroke-width:0.45;" width="110.7" x="1650.6" y="63.9"/><text fill="#000000" font-family="sans-serif" font-size="12.6" font-style="italic" lengthAdjust="spacing" textLength="71.1" x="1670.4" y="83.7967">&#171;repository&#187;</text><text fill="#000000" font-family="sans-serif" font-size="12.6" lengthAdjust="spacing" textLength="98.1" x="1656.9" y="100.5557">FigureRepository</text><rect fill="#E2E2F0" height="46.118" rx="2.25" ry="2.25" style="stroke:#181818;stroke-width:0.45;" width="110.7" x="1650.6" y="712.2709"/><text fill="#000000" font-family="sans-serif" font-size="12.6" font-style="italic" lengthAdjust="spacing" textLength="71.1" x="1670.4" y="732.1676">&#171;repository&#187;</text><text fill="#000000" font-family="sans-serif" font-size="12.6" lengthAdjust="spacing" textLength="98.1" x="1656.9" y="748.9266">FigureRepository</text><text fill="#000000" font-family="sans-serif" font-size="12.6" lengthAdjust="spacing" textLength="54.9" x="1770.3" y="107.7557">Database</text><path d="M1784.25,61.759 C1784.25,52.759 1800.45,52.759 1800.45,52.759 C1800.45,52.759 1816.65,52.759 1816.65,61.759 L1816.65,85.159 C1816.65,94.159 1800.45,94.159 1800.45,94.159 C1800.45,94.159 1784.25,94.159 1784.25,85.159 L1784.25,61.759 " fill="#E2E2F0" style="stroke:#181818;stroke-width:1.35;"/><path d="M1784.25,61.759 C1784.25,70.759 1800.45,70.759 1800.45,70.759 C1800.45,70.759 1816.65,70.759 1816.65,61.759 " fill="none" style="stroke:#181818;stroke-width:1.35;"/><text fill="#000000" font-family="sans-serif" font-size="12.6" lengthAdjust="spacing" textLength="54.9" x="1770.3" y="725.8676">Database</text><path d="M1784.25,738.0299 C1784.25,729.0299 1800.45,729.0299 1800.45,729.0299 C1800.45,729.0299 1816.65,729.0299 1816.65,738.0299 L1816.65,761.4299 C1816.65,770.4299 1800.45,770.4299 1800.45,770.4299 C1800.45,770.4299 1784.25,770.4299 1784.25,761.4299 L1784.25,738.0299 " fill="#E2E2F0" style="stroke:#181818;stroke-width:1.35;"/><path d="M1784.25,738.0299 C1784.25,747.0299 1800.45,747.0299 1800.45,747.0299 C1800.45,747.0299 1816.65,747.0299 1816.65,738.0299 " fill="none" style="stroke:#181818;stroke-width:1.35;"/><rect fill="#FFFFFF" height="577.0529" style="stroke:#181818;stroke-width:0.9;" width="9" x="45.45" y="119.918"/><rect fill="#FFFFFF" height="84.1799" style="stroke:#181818;stroke-width:0.9;" width="9" x="363.15" y="140.8799"/><rect fill="#FFFFFF" height="443.7492" style="stroke:#181818;stroke-width:0.9;" width="9" x="363.15" y="253.2217"/><rect fill="#FFFFFF" height="387.4254" style="stroke:#181818;stroke-width:0.9;" width="9" x="613.35" y="281.3836"/><rect fill="#FFFFFF" height="290.6455" style="stroke:#181818;stroke-width:0.9;" width="9" x="1051.65" y="365.5635"/><rect fill="#FFFFFF" height="112.3418" style="stroke:#181818;stroke-width:0.9;" width="9" x="1188" y="449.7434"/><rect fill="#FFFFFF" height="47.018" style="stroke:#181818;stroke-width:0.9;" width="9" x="1602.9" y="486.9053"/><rect fill="#FFFFFF" height="53.3619" style="stroke:#181818;stroke-width:0.9;" width="9" x="1701.45" y="590.2471"/><rect fill="#FFFFFF" height="12.6" style="stroke:#181818;stroke-width:0.9;" width="9" x="1795.95" y="618.409"/><polygon fill="#181818" points="352.35,137.2799,361.35,140.8799,352.35,144.4799,355.95,140.8799" style="stroke:#181818;stroke-width:0.9;"/><line style="stroke:#181818;stroke-width:0.9;" x1="54.45" x2="357.75" y1="140.8799" y2="140.8799"/><text fill="#000000" font-family="sans-serif" font-size="11.7" lengthAdjust="spacing" textLength="34.2" x="60.75" y="136.1435">show()</text><polygon fill="#181818" points="543.15,165.4418,552.15,169.0418,543.15,172.6418,546.75,169.0418" style="stroke:#181818;stroke-width:0.9;"/><line style="stroke:#181818;stroke-width:0.9;" x1="372.15" x2="548.55" y1="169.0418" y2="169.0418"/><text fill="#000000" font-family="sans-serif" font-size="11.7" lengthAdjust="spacing" textLength="39.6" x="378.45" y="164.3054">create()</text><rect fill="#E2E2F0" height="46.118" rx="2.25" ry="2.25" style="stroke:#181818;stroke-width:0.45;" width="127.8" x="553.95" y="148.0799"/><text fill="#000000" font-family="sans-serif" font-size="12.6" font-style="italic" lengthAdjust="spacing" textLength="75.6" x="580.05" y="167.9766">&#171;application&#187;</text><text fill="#000000" font-family="sans-serif" font-size="12.6" lengthAdjust="spacing" textLength="115.2" x="560.25" y="184.7355">AddFigureController</text><polygon fill="#181818" points="64.35,221.4598,55.35,225.0598,64.35,228.6598,60.75,225.0598" style="stroke:#181818;stroke-width:0.9;"/><line style="stroke:#181818;stroke-width:0.9;stroke-dasharray:2.0,2.0;" x1="58.95" x2="366.75" y1="225.0598" y2="225.0598"/><text fill="#000000" font-family="sans-serif" font-size="11.7" lengthAdjust="spacing" textLength="287.1" x="69.75" y="220.3233">Request Figure data (Description, Keywords, Category)</text><polygon fill="#181818" points="352.35,249.6217,361.35,253.2217,352.35,256.8217,355.95,253.2217" style="stroke:#181818;stroke-width:0.9;"/><line style="stroke:#181818;stroke-width:0.9;" x1="54.45" x2="357.75" y1="253.2217" y2="253.2217"/><text fill="#000000" font-family="sans-serif" font-size="11.7" lengthAdjust="spacing" textLength="90.9" x="60.75" y="248.4853">Insert Figure data</text><polygon fill="#181818" points="602.55,277.7836,611.55,281.3836,602.55,284.9836,606.15,281.3836" style="stroke:#181818;stroke-width:0.9;"/><line style="stroke:#181818;stroke-width:0.9;" x1="372.15" x2="607.95" y1="281.3836" y2="281.3836"/><text fill="#000000" font-family="sans-serif" font-size="11.7" lengthAdjust="spacing" textLength="224.1" x="378.45" y="276.6472">addFigure(description, keywords, category)</text><polygon fill="#181818" points="824.85,305.9455,833.85,309.5455,824.85,313.1455,828.45,309.5455" style="stroke:#181818;stroke-width:0.9;"/><line style="stroke:#181818;stroke-width:0.9;" x1="622.35" x2="830.25" y1="309.5455" y2="309.5455"/><text fill="#000000" font-family="sans-serif" font-size="11.7" lengthAdjust="spacing" textLength="191.7" x="628.65" y="304.8091">ensureAuthenticatedUserHasAnyOf()</text><rect fill="#E2E2F0" height="46.118" rx="2.25" ry="2.25" style="stroke:#181818;stroke-width:0.45;" width="128.7" x="835.65" y="288.5836"/><text fill="#000000" font-family="sans-serif" font-size="12.6" font-style="italic" lengthAdjust="spacing" textLength="39.6" x="880.2" y="308.4803">&#171;auth&#187;</text><text fill="#000000" font-family="sans-serif" font-size="12.6" lengthAdjust="spacing" textLength="116.1" x="841.95" y="325.2393">AuthorizationService</text><polygon fill="#181818" points="1040.85,361.9635,1049.85,365.5635,1040.85,369.1635,1044.45,365.5635" style="stroke:#181818;stroke-width:0.9;"/><line style="stroke:#181818;stroke-width:0.9;" x1="622.35" x2="1046.25" y1="365.5635" y2="365.5635"/><text fill="#000000" font-family="sans-serif" font-size="11.7" lengthAdjust="spacing" textLength="391.5" x="628.65" y="360.8271">registerNewFigure(description, keywords, category, createdOn, createdBy);</text><polygon fill="#181818" points="1137.15,390.1254,1146.15,393.7254,1137.15,397.3254,1140.75,393.7254" style="stroke:#181818;stroke-width:0.9;"/><line style="stroke:#181818;stroke-width:0.9;" x1="1060.65" x2="1142.55" y1="393.7254" y2="393.7254"/><text fill="#000000" font-family="sans-serif" font-size="11.7" lengthAdjust="spacing" textLength="39.6" x="1066.95" y="388.989">create()</text><rect fill="#E2E2F0" height="46.118" rx="2.25" ry="2.25" style="stroke:#181818;stroke-width:0.45;" width="89.1" x="1147.95" y="372.7635"/><text fill="#000000" font-family="sans-serif" font-size="12.6" font-style="italic" lengthAdjust="spacing" textLength="55.8" x="1164.6" y="392.6602">&#171;domain&#187;</text><text fill="#000000" font-family="sans-serif" font-size="12.6" lengthAdjust="spacing" textLength="76.5" x="1154.25" y="409.4191">FigureBuilder</text><polygon fill="#181818" points="1177.2,446.1434,1186.2,449.7434,1177.2,453.3434,1180.8,449.7434" style="stroke:#181818;stroke-width:0.9;"/><line style="stroke:#181818;stroke-width:0.9;" x1="1060.65" x2="1182.6" y1="449.7434" y2="449.7434"/><text fill="#000000" font-family="sans-serif" font-size="11.7" lengthAdjust="spacing" textLength="31.5" x="1066.95" y="445.0069">build()</text><polygon fill="#181818" points="1562.4,474.3053,1571.4,477.9053,1562.4,481.5053,1566,477.9053" style="stroke:#181818;stroke-width:0.9;"/><line style="stroke:#181818;stroke-width:0.9;" x1="1197" x2="1567.8" y1="477.9053" y2="477.9053"/><text fill="#000000" font-family="sans-serif" font-size="11.7" lengthAdjust="spacing" textLength="354.6" x="1203.3" y="473.1688">new Figure(description, keywords, category, createdOn, createdBy);</text><rect fill="#E2E2F0" height="46.118" rx="2.25" ry="2.25" style="stroke:#181818;stroke-width:0.45;" width="68.4" x="1573.2" y="456.9434"/><text fill="#000000" font-family="sans-serif" font-size="12.6" font-style="italic" lengthAdjust="spacing" textLength="55.8" x="1579.5" y="476.84">&#171;domain&#187;</text><text fill="#000000" font-family="sans-serif" font-size="12.6" lengthAdjust="spacing" textLength="36.9" x="1588.95" y="493.599">Figure</text><polygon fill="#181818" points="1206.9,530.3232,1197.9,533.9232,1206.9,537.5232,1203.3,533.9232" style="stroke:#181818;stroke-width:0.9;"/><line style="stroke:#181818;stroke-width:0.9;stroke-dasharray:2.0,2.0;" x1="1201.5" x2="1606.5" y1="533.9232" y2="533.9232"/><text fill="#000000" font-family="sans-serif" font-size="11.7" lengthAdjust="spacing" textLength="53.1" x="1212.3" y="529.1868">newFigure</text><polygon fill="#181818" points="1070.55,558.4852,1061.55,562.0852,1070.55,565.6852,1066.95,562.0852" style="stroke:#181818;stroke-width:0.9;"/><line style="stroke:#181818;stroke-width:0.9;stroke-dasharray:2.0,2.0;" x1="1065.15" x2="1191.6" y1="562.0852" y2="562.0852"/><text fill="#000000" font-family="sans-serif" font-size="11.7" lengthAdjust="spacing" textLength="53.1" x="1075.95" y="557.3487">newFigure</text><polygon fill="#181818" points="1690.65,586.6471,1699.65,590.2471,1690.65,593.8471,1694.25,590.2471" style="stroke:#181818;stroke-width:0.9;"/><line style="stroke:#181818;stroke-width:0.9;" x1="1060.65" x2="1696.05" y1="590.2471" y2="590.2471"/><text fill="#000000" font-family="sans-serif" font-size="11.7" lengthAdjust="spacing" textLength="83.7" x="1066.95" y="585.5106">save(newFigure)</text><polygon fill="#181818" points="1785.15,614.809,1794.15,618.409,1785.15,622.009,1788.75,618.409" style="stroke:#181818;stroke-width:0.9;"/><line style="stroke:#181818;stroke-width:0.9;" x1="1710.45" x2="1790.55" y1="618.409" y2="618.409"/><text fill="#000000" font-family="sans-serif" font-size="11.7" lengthAdjust="spacing" textLength="30.6" x="1716.75" y="613.6726">save()</text><polygon fill="#181818" points="1720.35,627.409,1711.35,631.009,1720.35,634.609,1716.75,631.009" style="stroke:#181818;stroke-width:0.9;"/><line style="stroke:#181818;stroke-width:0.9;stroke-dasharray:2.0,2.0;" x1="1714.95" x2="1799.55" y1="631.009" y2="631.009"/><polygon fill="#181818" points="1070.55,640.009,1061.55,643.609,1070.55,647.209,1066.95,643.609" style="stroke:#181818;stroke-width:0.9;"/><line style="stroke:#181818;stroke-width:0.9;stroke-dasharray:2.0,2.0;" x1="1065.15" x2="1705.05" y1="643.609" y2="643.609"/><polygon fill="#181818" points="632.25,652.609,623.25,656.209,632.25,659.809,628.65,656.209" style="stroke:#181818;stroke-width:0.9;"/><line style="stroke:#181818;stroke-width:0.9;stroke-dasharray:2.0,2.0;" x1="626.85" x2="1055.25" y1="656.209" y2="656.209"/><polygon fill="#181818" points="382.05,665.209,373.05,668.809,382.05,672.409,378.45,668.809" style="stroke:#181818;stroke-width:0.9;"/><line style="stroke:#181818;stroke-width:0.9;stroke-dasharray:2.0,2.0;" x1="376.65" x2="616.95" y1="668.809" y2="668.809"/><polygon fill="#181818" points="59.85,693.3709,50.85,696.9709,59.85,700.5709,56.25,696.9709" style="stroke:#181818;stroke-width:0.9;"/><line style="stroke:#181818;stroke-width:0.9;stroke-dasharray:2.0,2.0;" x1="54.45" x2="366.75" y1="696.9709" y2="696.9709"/><text fill="#000000" font-family="sans-serif" font-size="11.7" lengthAdjust="spacing" textLength="130.5" x="65.25" y="692.2345">Inform operation success</text><!--SRC=[fLNRRk8m47ttLunu0bH-WAsGQD5gqMgtKX4Vu2RJr5gmixO1iL-_uv0uJeYJgFKBIMRcd3CNnbRO0y8E_vvG9WWRmJFDZupnn2eDazs7ki06ZSWawWbm0sjdO3dNLYGYvzB2P9sctqLsqhZV5YxxBJm-vXeDIikjK7ArYWGyAscrEXnAxFgL07YU7qJI7N-o7qgBVuLnX_ei4ho9wp0uAFhSnhW9-CKbp_18GaEOYArVr2tewIGEQPbEumi5f-h8HIGk21ZmVCLS6K5Dk0OnzKUArlw5459k-Hit29DD-LI4LIz5fyMPMomxoueVMAoeZKimrF_fZ04TxxVVCaOj9e-wN_CvB27HI7PoBynaBw2MyEgcozWgFQS8fZHKYHQvg-G3_CJhHUdKFC0p8MIaVCPIR30sP6sbGTq0PEnU99IdBPQayce2fsceuu_NaNWT41mFNuEnXeCx0P6hGST85jL2QOZVcMd2t4nXkgUiVd2pbjUNTrV6Dd9GaYxO8IcniLw2namOY_etNiQLvQ5iTleY_UFJTVRjJe4N726_r-nEJAbFelnJDSVkAqY4y-QU8Z2jDCgWRl4rRONjoURp9KYym1UB7ALjw-pnBFyxYuv2o6eAuj7190uojOlHEuarDnl5wplnkUu7UvEM7J_Zr0kOiJ6JK0FqLS1B2VX8GxM4A-vPFuIdhfSt31pFiEX8kJywAFL8lliKuwqUrzsXwaRxszZtR91dn5eALsbn2x48OWTlU1s2kxtUbJw2ob4NwnlCAKdG6DQ1HZpXrY-kwFy0]--></g></svg>