<?xml version="1.0" encoding="us-ascii" standalone="no"?><svg xmlns="http://www.w3.org/2000/svg" xmlns:xlink="http://www.w3.org/1999/xlink" contentStyleType="text/css" height="657px" preserveAspectRatio="none" style="width:1549px;height:657px;background:#FFFFFF;" version="1.1" viewBox="0 0 1549 657" width="1549.8px" zoomAndPan="magnify"><defs/><g><text fill="#000000" font-family="sans-serif" font-size="8.4" font-weight="bold" lengthAdjust="spacing" textLength="79.2" x="736.05" y="18.0645">Sequence Diagram</text><rect fill="#FFFFFF" height="516.532" style="stroke:#181818;stroke-width:0.6;" width="6" x="30.3" y="79.9453"/><rect fill="#FFFFFF" height="56.1199" style="stroke:#181818;stroke-width:0.6;" width="6" x="140.7" y="93.9199"/><rect fill="#FFFFFF" height="206.3168" style="stroke:#181818;stroke-width:0.6;" width="6" x="215.1" y="150.0398"/><rect fill="#FFFFFF" height="18.7746" style="stroke:#181818;stroke-width:0.6;" width="6" x="215.1" y="375.1312"/><rect fill="#FFFFFF" height="183.7969" style="stroke:#181818;stroke-width:0.6;" width="6" x="215.1" y="412.6805"/><rect fill="#FFFFFF" height="131.4223" style="stroke:#181818;stroke-width:0.6;" width="6" x="475.5" y="206.1598"/><rect fill="#FFFFFF" height="146.2477" style="stroke:#181818;stroke-width:0.6;" width="6" x="475.5" y="431.4551"/><rect fill="#FFFFFF" height="100.2984" style="stroke:#181818;stroke-width:0.6;" width="6" x="930.3" y="469.0043"/><rect fill="#FFFFFF" height="93.873" style="stroke:#181818;stroke-width:0.6;" width="6" x="1064.1" y="224.9344"/><rect fill="#FFFFFF" height="18.7746" style="stroke:#181818;stroke-width:0.6;" width="6" x="1234.5" y="487.7789"/><rect fill="#FFFFFF" height="35.5746" style="stroke:#181818;stroke-width:0.6;" width="6" x="1300.2" y="525.3281"/><rect fill="#FFFFFF" height="56.3238" style="stroke:#181818;stroke-width:0.6;" width="6" x="1397.4" y="243.709"/><rect fill="#FFFFFF" height="18.7746" style="stroke:#181818;stroke-width:0.6;" width="6" x="1525.8" y="262.4836"/><rect fill="#FFFFFF" height="8.4" style="stroke:#181818;stroke-width:0.6;" width="6" x="1525.8" y="544.1027"/><line style="stroke:#181818;stroke-width:0.3;stroke-dasharray:5.0,5.0;" x1="33" x2="33" y1="73.9453" y2="607.2773"/><line style="stroke:#181818;stroke-width:0.3;stroke-dasharray:5.0,5.0;" x1="143.4" x2="143.4" y1="73.9453" y2="607.2773"/><line style="stroke:#181818;stroke-width:0.3;stroke-dasharray:5.0,5.0;" x1="217.8" x2="217.8" y1="123.3926" y2="607.2773"/><line style="stroke:#181818;stroke-width:0.3;stroke-dasharray:5.0,5.0;" x1="478.5" x2="478.5" y1="179.5125" y2="607.2773"/><line style="stroke:#181818;stroke-width:0.3;stroke-dasharray:5.0,5.0;" x1="714.6" x2="714.6" y1="73.9453" y2="607.2773"/><line style="stroke:#181818;stroke-width:0.3;stroke-dasharray:5.0,5.0;" x1="933.3" x2="933.3" y1="73.9453" y2="607.2773"/><line style="stroke:#181818;stroke-width:0.3;stroke-dasharray:5.0,5.0;" x1="1067.1" x2="1067.1" y1="73.9453" y2="607.2773"/><line style="stroke:#181818;stroke-width:0.3;stroke-dasharray:5.0,5.0;" x1="1237.5" x2="1237.5" y1="73.9453" y2="607.2773"/><line style="stroke:#181818;stroke-width:0.3;stroke-dasharray:5.0,5.0;" x1="1302.9" x2="1302.9" y1="73.9453" y2="607.2773"/><line style="stroke:#181818;stroke-width:0.3;stroke-dasharray:5.0,5.0;" x1="1400.1" x2="1400.1" y1="73.9453" y2="607.2773"/><line style="stroke:#181818;stroke-width:0.3;stroke-dasharray:5.0,5.0;" x1="1528.5" x2="1528.5" y1="73.9453" y2="607.2773"/><text fill="#000000" font-family="sans-serif" font-size="8.4" lengthAdjust="spacing" textLength="57" x="3" y="71.8371">Show Designer</text><ellipse cx="33.3" cy="31.8727" fill="#E2E2F0" rx="4.8" ry="4.8" style="stroke:#181818;stroke-width:0.3;"/><path d="M33.3,36.6727 L33.3,52.8727 M25.5,41.4727 L41.1,41.4727 M33.3,52.8727 L25.5,61.8727 M33.3,52.8727 L41.1,61.8727 " fill="none" style="stroke:#181818;stroke-width:0.3;"/><text fill="#000000" font-family="sans-serif" font-size="8.4" lengthAdjust="spacing" textLength="57" x="3" y="615.7418">Show Designer</text><ellipse cx="33.3" cy="622.95" fill="#E2E2F0" rx="4.8" ry="4.8" style="stroke:#181818;stroke-width:0.3;"/><path d="M33.3,627.75 L33.3,643.95 M25.5,632.55 L41.1,632.55 M33.3,643.95 L25.5,652.95 M33.3,643.95 L41.1,652.95 " fill="none" style="stroke:#181818;stroke-width:0.3;"/><rect fill="#E2E2F0" height="30.7453" rx="1.5" ry="1.5" style="stroke:#181818;stroke-width:0.3;" width="71.4" x="108" y="42.6"/><text fill="#000000" font-family="sans-serif" font-size="8.4" font-style="italic" lengthAdjust="spacing" textLength="57" x="115.2" y="55.8645">&#171;presentation&#187;</text><text fill="#000000" font-family="sans-serif" font-size="8.4" lengthAdjust="spacing" textLength="63" x="112.2" y="67.0371">AddFigureAction</text><rect fill="#E2E2F0" height="30.7453" rx="1.5" ry="1.5" style="stroke:#181818;stroke-width:0.3;" width="71.4" x="108" y="606.6773"/><text fill="#000000" font-family="sans-serif" font-size="8.4" font-style="italic" lengthAdjust="spacing" textLength="57" x="115.2" y="619.9418">&#171;presentation&#187;</text><text fill="#000000" font-family="sans-serif" font-size="8.4" lengthAdjust="spacing" textLength="63" x="112.2" y="631.1145">AddFigureAction</text><rect fill="#E2E2F0" height="30.7453" rx="1.5" ry="1.5" style="stroke:#181818;stroke-width:0.3;" width="65.4" x="185.4" y="606.6773"/><text fill="#000000" font-family="sans-serif" font-size="8.4" font-style="italic" lengthAdjust="spacing" textLength="57" x="189.6" y="619.9418">&#171;presentation&#187;</text><text fill="#000000" font-family="sans-serif" font-size="8.4" lengthAdjust="spacing" textLength="46.8" x="194.7" y="631.1145">AddFigureUI</text><rect fill="#E2E2F0" height="30.7453" rx="1.5" ry="1.5" style="stroke:#181818;stroke-width:0.3;" width="85.2" x="435.9" y="606.6773"/><text fill="#000000" font-family="sans-serif" font-size="8.4" font-style="italic" lengthAdjust="spacing" textLength="50.4" x="453.3" y="619.9418">&#171;application&#187;</text><text fill="#000000" font-family="sans-serif" font-size="8.4" lengthAdjust="spacing" textLength="76.8" x="440.1" y="631.1145">AddFigureController</text><rect fill="#E2E2F0" height="30.7453" rx="1.5" ry="1.5" style="stroke:#181818;stroke-width:0.3;" width="85.8" x="672" y="42.6"/><text fill="#000000" font-family="sans-serif" font-size="8.4" font-style="italic" lengthAdjust="spacing" textLength="26.4" x="701.7" y="55.8645">&#171;auth&#187;</text><text fill="#000000" font-family="sans-serif" font-size="8.4" lengthAdjust="spacing" textLength="77.4" x="676.2" y="67.0371">AuthorizationService</text><rect fill="#E2E2F0" height="30.7453" rx="1.5" ry="1.5" style="stroke:#181818;stroke-width:0.3;" width="85.8" x="672" y="606.6773"/><text fill="#000000" font-family="sans-serif" font-size="8.4" font-style="italic" lengthAdjust="spacing" textLength="26.4" x="701.7" y="619.9418">&#171;auth&#187;</text><text fill="#000000" font-family="sans-serif" font-size="8.4" lengthAdjust="spacing" textLength="77.4" x="676.2" y="631.1145">AuthorizationService</text><rect fill="#E2E2F0" height="30.7453" rx="1.5" ry="1.5" style="stroke:#181818;stroke-width:0.3;" width="110.4" x="878.1" y="42.6"/><text fill="#000000" font-family="sans-serif" font-size="8.4" font-style="italic" lengthAdjust="spacing" textLength="50.4" x="908.1" y="55.8645">&#171;application&#187;</text><text fill="#000000" font-family="sans-serif" font-size="8.4" lengthAdjust="spacing" textLength="102" x="882.3" y="67.0371">FigureManagementService</text><rect fill="#E2E2F0" height="30.7453" rx="1.5" ry="1.5" style="stroke:#181818;stroke-width:0.3;" width="110.4" x="878.1" y="606.6773"/><text fill="#000000" font-family="sans-serif" font-size="8.4" font-style="italic" lengthAdjust="spacing" textLength="50.4" x="908.1" y="619.9418">&#171;application&#187;</text><text fill="#000000" font-family="sans-serif" font-size="8.4" lengthAdjust="spacing" textLength="102" x="882.3" y="631.1145">FigureManagementService</text><rect fill="#E2E2F0" height="30.7453" rx="1.5" ry="1.5" style="stroke:#181818;stroke-width:0.3;" width="145.2" x="994.5" y="42.6"/><text fill="#000000" font-family="sans-serif" font-size="8.4" font-style="italic" lengthAdjust="spacing" textLength="50.4" x="1041.9" y="55.8645">&#171;application&#187;</text><text fill="#000000" font-family="sans-serif" font-size="8.4" lengthAdjust="spacing" textLength="136.8" x="998.7" y="67.0371">FigureCategoryManagementService</text><rect fill="#E2E2F0" height="30.7453" rx="1.5" ry="1.5" style="stroke:#181818;stroke-width:0.3;" width="145.2" x="994.5" y="606.6773"/><text fill="#000000" font-family="sans-serif" font-size="8.4" font-style="italic" lengthAdjust="spacing" textLength="50.4" x="1041.9" y="619.9418">&#171;application&#187;</text><text fill="#000000" font-family="sans-serif" font-size="8.4" lengthAdjust="spacing" textLength="136.8" x="998.7" y="631.1145">FigureCategoryManagementService</text><rect fill="#E2E2F0" height="30.7453" rx="1.5" ry="1.5" style="stroke:#181818;stroke-width:0.3;" width="45.6" x="1214.7" y="42.6"/><text fill="#000000" font-family="sans-serif" font-size="8.4" font-style="italic" lengthAdjust="spacing" textLength="37.2" x="1218.9" y="55.8645">&#171;domain&#187;</text><text fill="#000000" font-family="sans-serif" font-size="8.4" lengthAdjust="spacing" textLength="24.6" x="1225.2" y="67.0371">Figure</text><rect fill="#E2E2F0" height="30.7453" rx="1.5" ry="1.5" style="stroke:#181818;stroke-width:0.3;" width="45.6" x="1214.7" y="606.6773"/><text fill="#000000" font-family="sans-serif" font-size="8.4" font-style="italic" lengthAdjust="spacing" textLength="37.2" x="1218.9" y="619.9418">&#171;domain&#187;</text><text fill="#000000" font-family="sans-serif" font-size="8.4" lengthAdjust="spacing" textLength="24.6" x="1225.2" y="631.1145">Figure</text><rect fill="#E2E2F0" height="30.7453" rx="1.5" ry="1.5" style="stroke:#181818;stroke-width:0.3;" width="73.8" x="1266.3" y="42.6"/><text fill="#000000" font-family="sans-serif" font-size="8.4" font-style="italic" lengthAdjust="spacing" textLength="47.4" x="1279.5" y="55.8645">&#171;repository&#187;</text><text fill="#000000" font-family="sans-serif" font-size="8.4" lengthAdjust="spacing" textLength="65.4" x="1270.5" y="67.0371">FigureRepository</text><rect fill="#E2E2F0" height="30.7453" rx="1.5" ry="1.5" style="stroke:#181818;stroke-width:0.3;" width="73.8" x="1266.3" y="606.6773"/><text fill="#000000" font-family="sans-serif" font-size="8.4" font-style="italic" lengthAdjust="spacing" textLength="47.4" x="1279.5" y="619.9418">&#171;repository&#187;</text><text fill="#000000" font-family="sans-serif" font-size="8.4" lengthAdjust="spacing" textLength="65.4" x="1270.5" y="631.1145">FigureRepository</text><rect fill="#E2E2F0" height="30.7453" rx="1.5" ry="1.5" style="stroke:#181818;stroke-width:0.3;" width="108.6" x="1346.1" y="42.6"/><text fill="#000000" font-family="sans-serif" font-size="8.4" font-style="italic" lengthAdjust="spacing" textLength="47.4" x="1376.7" y="55.8645">&#171;repository&#187;</text><text fill="#000000" font-family="sans-serif" font-size="8.4" lengthAdjust="spacing" textLength="100.2" x="1350.3" y="67.0371">FigureCategoryRepository</text><rect fill="#E2E2F0" height="30.7453" rx="1.5" ry="1.5" style="stroke:#181818;stroke-width:0.3;" width="108.6" x="1346.1" y="606.6773"/><text fill="#000000" font-family="sans-serif" font-size="8.4" font-style="italic" lengthAdjust="spacing" textLength="47.4" x="1376.7" y="619.9418">&#171;repository&#187;</text><text fill="#000000" font-family="sans-serif" font-size="8.4" lengthAdjust="spacing" textLength="100.2" x="1350.3" y="631.1145">FigureCategoryRepository</text><text fill="#000000" font-family="sans-serif" font-size="8.4" lengthAdjust="spacing" textLength="36.6" x="1508.7" y="71.8371">Database</text><path d="M1518,41.1727 C1518,35.1727 1528.8,35.1727 1528.8,35.1727 C1528.8,35.1727 1539.6,35.1727 1539.6,41.1727 L1539.6,56.7727 C1539.6,62.7727 1528.8,62.7727 1528.8,62.7727 C1528.8,62.7727 1518,62.7727 1518,56.7727 L1518,41.1727 " fill="#E2E2F0" style="stroke:#181818;stroke-width:0.8999999999999999;"/><path d="M1518,41.1727 C1518,47.1727 1528.8,47.1727 1528.8,47.1727 C1528.8,47.1727 1539.6,47.1727 1539.6,41.1727 " fill="none" style="stroke:#181818;stroke-width:0.8999999999999999;"/><text fill="#000000" font-family="sans-serif" font-size="8.4" lengthAdjust="spacing" textLength="36.6" x="1508.7" y="615.7418">Database</text><path d="M1518,623.85 C1518,617.85 1528.8,617.85 1528.8,617.85 C1528.8,617.85 1539.6,617.85 1539.6,623.85 L1539.6,639.45 C1539.6,645.45 1528.8,645.45 1528.8,645.45 C1528.8,645.45 1518,645.45 1518,639.45 L1518,623.85 " fill="#E2E2F0" style="stroke:#181818;stroke-width:0.8999999999999999;"/><path d="M1518,623.85 C1518,629.85 1528.8,629.85 1528.8,629.85 C1528.8,629.85 1539.6,629.85 1539.6,623.85 " fill="none" style="stroke:#181818;stroke-width:0.8999999999999999;"/><rect fill="#FFFFFF" height="516.532" style="stroke:#181818;stroke-width:0.6;" width="6" x="30.3" y="79.9453"/><rect fill="#FFFFFF" height="56.1199" style="stroke:#181818;stroke-width:0.6;" width="6" x="140.7" y="93.9199"/><rect fill="#FFFFFF" height="206.3168" style="stroke:#181818;stroke-width:0.6;" width="6" x="215.1" y="150.0398"/><rect fill="#FFFFFF" height="18.7746" style="stroke:#181818;stroke-width:0.6;" width="6" x="215.1" y="375.1312"/><rect fill="#FFFFFF" height="183.7969" style="stroke:#181818;stroke-width:0.6;" width="6" x="215.1" y="412.6805"/><rect fill="#FFFFFF" height="131.4223" style="stroke:#181818;stroke-width:0.6;" width="6" x="475.5" y="206.1598"/><rect fill="#FFFFFF" height="146.2477" style="stroke:#181818;stroke-width:0.6;" width="6" x="475.5" y="431.4551"/><rect fill="#FFFFFF" height="100.2984" style="stroke:#181818;stroke-width:0.6;" width="6" x="930.3" y="469.0043"/><rect fill="#FFFFFF" height="93.873" style="stroke:#181818;stroke-width:0.6;" width="6" x="1064.1" y="224.9344"/><rect fill="#FFFFFF" height="18.7746" style="stroke:#181818;stroke-width:0.6;" width="6" x="1234.5" y="487.7789"/><rect fill="#FFFFFF" height="35.5746" style="stroke:#181818;stroke-width:0.6;" width="6" x="1300.2" y="525.3281"/><rect fill="#FFFFFF" height="56.3238" style="stroke:#181818;stroke-width:0.6;" width="6" x="1397.4" y="243.709"/><rect fill="#FFFFFF" height="18.7746" style="stroke:#181818;stroke-width:0.6;" width="6" x="1525.8" y="262.4836"/><rect fill="#FFFFFF" height="8.4" style="stroke:#181818;stroke-width:0.6;" width="6" x="1525.8" y="544.1027"/><polygon fill="#181818" points="133.5,91.5199,139.5,93.9199,133.5,96.3199,135.9,93.9199" style="stroke:#181818;stroke-width:0.6;"/><line style="stroke:#181818;stroke-width:0.6;" x1="36.3" x2="137.1" y1="93.9199" y2="93.9199"/><text fill="#000000" font-family="sans-serif" font-size="7.8" lengthAdjust="spacing" textLength="93" x="40.5" y="90.7623">Add figure to the catalogue</text><polygon fill="#181818" points="178.2,110.2945,184.2,112.6945,178.2,115.0945,180.6,112.6945" style="stroke:#181818;stroke-width:0.6;"/><line style="stroke:#181818;stroke-width:0.6;" x1="146.7" x2="181.8" y1="112.6945" y2="112.6945"/><text fill="#000000" font-family="sans-serif" font-size="7.8" lengthAdjust="spacing" textLength="21.6" x="150.9" y="109.5369">create</text><rect fill="#E2E2F0" height="30.7453" rx="1.5" ry="1.5" style="stroke:#181818;stroke-width:0.3;" width="65.4" x="185.4" y="98.7199"/><text fill="#000000" font-family="sans-serif" font-size="8.4" font-style="italic" lengthAdjust="spacing" textLength="57" x="189.6" y="111.9844">&#171;presentation&#187;</text><text fill="#000000" font-family="sans-serif" font-size="8.4" lengthAdjust="spacing" textLength="46.8" x="194.7" y="123.157">AddFigureUI</text><polygon fill="#181818" points="207.9,147.6398,213.9,150.0398,207.9,152.4398,210.3,150.0398" style="stroke:#181818;stroke-width:0.6;"/><line style="stroke:#181818;stroke-width:0.6;" x1="143.7" x2="211.5" y1="150.0398" y2="150.0398"/><text fill="#000000" font-family="sans-serif" font-size="7.8" lengthAdjust="spacing" textLength="22.8" x="147.9" y="146.8822">show()</text><polygon fill="#181818" points="428.7,166.4145,434.7,168.8145,428.7,171.2145,431.1,168.8145" style="stroke:#181818;stroke-width:0.6;"/><line style="stroke:#181818;stroke-width:0.6;" x1="221.1" x2="432.3" y1="168.8145" y2="168.8145"/><text fill="#000000" font-family="sans-serif" font-size="7.8" lengthAdjust="spacing" textLength="21.6" x="225.3" y="165.6568">create</text><rect fill="#E2E2F0" height="30.7453" rx="1.5" ry="1.5" style="stroke:#181818;stroke-width:0.3;" width="85.2" x="435.9" y="154.8398"/><text fill="#000000" font-family="sans-serif" font-size="8.4" font-style="italic" lengthAdjust="spacing" textLength="50.4" x="453.3" y="168.1043">&#171;application&#187;</text><text fill="#000000" font-family="sans-serif" font-size="8.4" lengthAdjust="spacing" textLength="76.8" x="440.1" y="179.277">AddFigureController</text><polygon fill="#181818" points="468.3,203.7598,474.3,206.1598,468.3,208.5598,470.7,206.1598" style="stroke:#181818;stroke-width:0.6;"/><line style="stroke:#181818;stroke-width:0.6;" x1="221.1" x2="471.9" y1="206.1598" y2="206.1598"/><text fill="#000000" font-family="sans-serif" font-size="7.8" lengthAdjust="spacing" textLength="73.8" x="225.3" y="203.0021">listFigureCategories()</text><polygon fill="#181818" points="1056.9,222.5344,1062.9,224.9344,1056.9,227.3344,1059.3,224.9344" style="stroke:#181818;stroke-width:0.6;"/><line style="stroke:#181818;stroke-width:0.6;" x1="481.5" x2="1060.5" y1="224.9344" y2="224.9344"/><text fill="#000000" font-family="sans-serif" font-size="7.8" lengthAdjust="spacing" textLength="60.6" x="485.7" y="221.7768">findByActive(true)</text><polygon fill="#181818" points="1390.2,241.309,1396.2,243.709,1390.2,246.109,1392.6,243.709" style="stroke:#181818;stroke-width:0.6;"/><line style="stroke:#181818;stroke-width:0.6;" x1="1070.1" x2="1393.8" y1="243.709" y2="243.709"/><text fill="#000000" font-family="sans-serif" font-size="7.8" lengthAdjust="spacing" textLength="60.6" x="1074.3" y="240.5514">findByActive(true)</text><polygon fill="#181818" points="1518.6,260.0836,1524.6,262.4836,1518.6,264.8836,1521,262.4836" style="stroke:#181818;stroke-width:0.6;"/><line style="stroke:#181818;stroke-width:0.6;" x1="1403.4" x2="1522.2" y1="262.4836" y2="262.4836"/><text fill="#000000" font-family="sans-serif" font-size="7.8" lengthAdjust="spacing" textLength="60.6" x="1407.6" y="259.326">findByActive(true)</text><polygon fill="#181818" points="1410,278.8582,1404,281.2582,1410,283.6582,1407.6,281.2582" style="stroke:#181818;stroke-width:0.6;"/><line style="stroke:#181818;stroke-width:0.6;stroke-dasharray:2.0,2.0;" x1="1406.4" x2="1528.2" y1="281.2582" y2="281.2582"/><text fill="#000000" font-family="sans-serif" font-size="7.8" lengthAdjust="spacing" textLength="108" x="1413.6" y="278.1006">List of Active Figure Categories</text><polygon fill="#181818" points="1076.7,297.6328,1070.7,300.0328,1076.7,302.4328,1074.3,300.0328" style="stroke:#181818;stroke-width:0.6;"/><line style="stroke:#181818;stroke-width:0.6;stroke-dasharray:2.0,2.0;" x1="1073.1" x2="1399.8" y1="300.0328" y2="300.0328"/><text fill="#000000" font-family="sans-serif" font-size="7.8" lengthAdjust="spacing" textLength="108" x="1080.3" y="296.8752">List of Active Figure Categories</text><polygon fill="#181818" points="488.1,316.4074,482.1,318.8074,488.1,321.2074,485.7,318.8074" style="stroke:#181818;stroke-width:0.6;"/><line style="stroke:#181818;stroke-width:0.6;stroke-dasharray:2.0,2.0;" x1="484.5" x2="1066.5" y1="318.8074" y2="318.8074"/><text fill="#000000" font-family="sans-serif" font-size="7.8" lengthAdjust="spacing" textLength="108" x="491.7" y="315.6498">List of Active Figure Categories</text><polygon fill="#181818" points="227.7,335.182,221.7,337.582,227.7,339.982,225.3,337.582" style="stroke:#181818;stroke-width:0.6;"/><line style="stroke:#181818;stroke-width:0.6;stroke-dasharray:2.0,2.0;" x1="224.1" x2="477.9" y1="337.582" y2="337.582"/><text fill="#000000" font-family="sans-serif" font-size="7.8" lengthAdjust="spacing" textLength="108" x="231.3" y="334.4244">List of Active Figure Categories</text><polygon fill="#181818" points="42.9,353.9566,36.9,356.3566,42.9,358.7566,40.5,356.3566" style="stroke:#181818;stroke-width:0.6;"/><line style="stroke:#181818;stroke-width:0.6;stroke-dasharray:2.0,2.0;" x1="39.3" x2="217.5" y1="356.3566" y2="356.3566"/><text fill="#000000" font-family="sans-serif" font-size="7.8" lengthAdjust="spacing" textLength="106.2" x="46.5" y="353.199">Show List of Figure Categories</text><polygon fill="#181818" points="207.9,372.7313,213.9,375.1312,207.9,377.5313,210.3,375.1312" style="stroke:#181818;stroke-width:0.6;"/><line style="stroke:#181818;stroke-width:0.6;" x1="36.3" x2="211.5" y1="375.1312" y2="375.1312"/><text fill="#000000" font-family="sans-serif" font-size="7.8" lengthAdjust="spacing" textLength="79.8" x="40.5" y="371.9736">Select Figure Category</text><polygon fill="#181818" points="42.9,391.5059,36.9,393.9059,42.9,396.3059,40.5,393.9059" style="stroke:#181818;stroke-width:0.6;"/><line style="stroke:#181818;stroke-width:0.6;stroke-dasharray:2.0,2.0;" x1="39.3" x2="217.5" y1="393.9059" y2="393.9059"/><text fill="#000000" font-family="sans-serif" font-size="7.8" lengthAdjust="spacing" textLength="151.2" x="46.5" y="390.7482">Request Keywords, Description, Exclusivity</text><polygon fill="#181818" points="207.9,410.2805,213.9,412.6805,207.9,415.0805,210.3,412.6805" style="stroke:#181818;stroke-width:0.6;"/><line style="stroke:#181818;stroke-width:0.6;" x1="36.3" x2="211.5" y1="412.6805" y2="412.6805"/><text fill="#000000" font-family="sans-serif" font-size="7.8" lengthAdjust="spacing" textLength="89.4" x="40.5" y="409.5229">Provide Figure Information</text><polygon fill="#181818" points="468.3,429.0551,474.3,431.4551,468.3,433.8551,470.7,431.4551" style="stroke:#181818;stroke-width:0.6;"/><line style="stroke:#181818;stroke-width:0.6;" x1="221.1" x2="471.9" y1="431.4551" y2="431.4551"/><text fill="#000000" font-family="sans-serif" font-size="7.8" lengthAdjust="spacing" textLength="243" x="225.3" y="428.2975">addFigure(description, keywords, figureCategory, exclusive, customer)</text><polygon fill="#181818" points="707.7,447.8297,713.7,450.2297,707.7,452.6297,710.1,450.2297" style="stroke:#181818;stroke-width:0.6;"/><line style="stroke:#181818;stroke-width:0.6;" x1="481.5" x2="711.3" y1="450.2297" y2="450.2297"/><text fill="#000000" font-family="sans-serif" font-size="7.8" lengthAdjust="spacing" textLength="219" x="485.7" y="447.0721">ensureAuthenticatedUserHasAnyOf(Roles.SHOW_DESIGNER)</text><polygon fill="#181818" points="923.1,466.6043,929.1,469.0043,923.1,471.4043,925.5,469.0043" style="stroke:#181818;stroke-width:0.6;"/><line style="stroke:#181818;stroke-width:0.6;" x1="481.5" x2="926.7" y1="469.0043" y2="469.0043"/><text fill="#000000" font-family="sans-serif" font-size="7.8" lengthAdjust="spacing" textLength="437.4" x="485.7" y="465.8467">registerNewFigure(figureDescription, keywords, figureCategory, exclusive, customer, authz.session().get().authenticatedUser())</text><polygon fill="#181818" points="1227.3,485.3789,1233.3,487.7789,1227.3,490.1789,1229.7,487.7789" style="stroke:#181818;stroke-width:0.6;"/><line style="stroke:#181818;stroke-width:0.6;" x1="936.3" x2="1230.9" y1="487.7789" y2="487.7789"/><text fill="#000000" font-family="sans-serif" font-size="7.8" lengthAdjust="spacing" textLength="286.8" x="940.5" y="484.6213">new Figure(description, keywords, figureCategory, exclusive, customer, createdBy)</text><polygon fill="#181818" points="942.9,504.1535,936.9,506.5535,942.9,508.9535,940.5,506.5535" style="stroke:#181818;stroke-width:0.6;"/><line style="stroke:#181818;stroke-width:0.6;stroke-dasharray:2.0,2.0;" x1="939.3" x2="1236.9" y1="506.5535" y2="506.5535"/><text fill="#000000" font-family="sans-serif" font-size="7.8" lengthAdjust="spacing" textLength="37.8" x="946.5" y="503.3959">new Figure</text><polygon fill="#181818" points="1293,522.9281,1299,525.3281,1293,527.7281,1295.4,525.3281" style="stroke:#181818;stroke-width:0.6;"/><line style="stroke:#181818;stroke-width:0.6;" x1="936.3" x2="1296.6" y1="525.3281" y2="525.3281"/><text fill="#000000" font-family="sans-serif" font-size="7.8" lengthAdjust="spacing" textLength="55.8" x="940.5" y="522.1705">save(newFigure)</text><polygon fill="#181818" points="1518.6,541.7027,1524.6,544.1027,1518.6,546.5027,1521,544.1027" style="stroke:#181818;stroke-width:0.6;"/><line style="stroke:#181818;stroke-width:0.6;" x1="1306.2" x2="1522.2" y1="544.1027" y2="544.1027"/><text fill="#000000" font-family="sans-serif" font-size="7.8" lengthAdjust="spacing" textLength="20.4" x="1310.4" y="540.9451">save()</text><polygon fill="#181818" points="1312.8,550.1027,1306.8,552.5027,1312.8,554.9027,1310.4,552.5027" style="stroke:#181818;stroke-width:0.6;"/><line style="stroke:#181818;stroke-width:0.6;stroke-dasharray:2.0,2.0;" x1="1309.2" x2="1528.2" y1="552.5027" y2="552.5027"/><polygon fill="#181818" points="942.9,558.5027,936.9,560.9027,942.9,563.3027,940.5,560.9027" style="stroke:#181818;stroke-width:0.6;"/><line style="stroke:#181818;stroke-width:0.6;stroke-dasharray:2.0,2.0;" x1="939.3" x2="1302.6" y1="560.9027" y2="560.9027"/><polygon fill="#181818" points="488.1,566.9027,482.1,569.3027,488.1,571.7027,485.7,569.3027" style="stroke:#181818;stroke-width:0.6;"/><line style="stroke:#181818;stroke-width:0.6;stroke-dasharray:2.0,2.0;" x1="484.5" x2="932.7" y1="569.3027" y2="569.3027"/><polygon fill="#181818" points="227.7,575.3027,221.7,577.7027,227.7,580.1027,225.3,577.7027" style="stroke:#181818;stroke-width:0.6;"/><line style="stroke:#181818;stroke-width:0.6;stroke-dasharray:2.0,2.0;" x1="224.1" x2="477.9" y1="577.7027" y2="577.7027"/><polygon fill="#181818" points="39.9,594.0773,33.9,596.4773,39.9,598.8773,37.5,596.4773" style="stroke:#181818;stroke-width:0.6;"/><line style="stroke:#181818;stroke-width:0.6;stroke-dasharray:2.0,2.0;" x1="36.3" x2="217.5" y1="596.4773" y2="596.4773"/><text fill="#000000" font-family="sans-serif" font-size="7.8" lengthAdjust="spacing" textLength="75" x="43.5" y="593.3197">Confirm Figure Added</text><!--SRC=[hLRRSfim47tNL-puoVOu-G0cavcqJXjFswHZZwUF6HNMH5ECg2JR9L_V1OCH5m5DmqDYaFRiqUhinGWJ8Mpmzm5Z7s4fUAZudZ7k6wbWidcH9rYY5c6CQW9Smrssm1AkZF15mcC3axiW-2J2Wq9Q4p8kjz5FkBb956gC3SzURsyTXjjLRhHTZJNuA6EZP1GLfAfN0k194Wc_s_vWNgGIh_dY1jLH-7Ycsx6GGT7d9iQPm3SUyn3tHDI6SQpraofEn0s6KgLzmCuzOnnOEBGza7ik73lNc4Wjw9fJowRwIDRgyj9_c4wazc8JCU26_-GQOR8iVkNcvKkkJd4ac4ADBFy7LxU5x3mWeS3kV5OZmRmWK6Xu9CC3Cg371Y03bd_CdaAt1BLTpUSU-0ffM-Uo1vgoOpex6mVOYNdvk5qnHlecoqgiypbSFBGMFOY4DhMG2TJahWPRxQ_EO6K38Gv8nwCunS67D2DznAbH1vnTa6gk1e1OpIfxXaJR8bSfOf3L0BiAYNMQjUbPQYHUfTH6ysZngSGA0q-v4wvw0_ALr01o1sSgPIPNokZrOwbpc9WxC6Faz2QU5h_n5pcehqO-_HCp9wEsyBlohgWGernQhknqpYl2kQP9Of-tuXAl3MI1KAcv5CICn0OZz4t39cMjqbJvMcVp07dwWkb9ga0liXd0LoB92ji2xl_uqK6Bep1fms_TyNSbZoAu77iLxwJQSqTnBAFOh8DK8ddPzgU1JUFNXTskTaCBm88WBi0_Q2Ftg1n5hQj-TjVHpX710unrDldG8YaYQy0OR3Mg1wxlulHfDrtB2FNrvk7fn_FoVhFw_7Y_dhLTsTsZmyyGDzVSuO72a2I3wX5FHGZFiLg-EP0BoAQYrskDMfFrT7OTeg6_l1c2wQnTAXivDQA9L8dUqq0yYF44_wsHHT6CgU2xgtpZ2FtrlL3-bVkEREfiHFaklRunKbOrf_c5Kq-BIsNCs9WEEwQpMbIwsshfkx-NlbCpjHZ3k_L8nn7TzpokxGr5rtc_jPB91lsCIBnMDtErnmw_TZUXkwOTEw7sPJRGS8u1wq0Y7_KnccRxlm00]--></g></svg>