<?xml version="1.0" encoding="us-ascii" standalone="no"?><svg xmlns="http://www.w3.org/2000/svg" xmlns:xlink="http://www.w3.org/1999/xlink" contentStyleType="text/css" height="766.5px" preserveAspectRatio="none" style="width:1627px;height:766px;background:#FFFFFF;" version="1.1" viewBox="0 0 1627 766" width="1627.5px" zoomAndPan="magnify"><defs/><g><text fill="#000000" font-family="sans-serif" font-size="9.8" font-weight="bold" lengthAdjust="spacing" textLength="92.4" x="768.6" y="21.0752">Sequence Diagram</text><rect fill="#FFFFFF" height="602.6207" style="stroke:#181818;stroke-width:0.6999999999999998;" width="7" x="35.35" y="93.2695"/><rect fill="#FFFFFF" height="65.4732" style="stroke:#181818;stroke-width:0.6999999999999998;" width="7" x="164.15" y="109.5732"/><rect fill="#FFFFFF" height="240.7029" style="stroke:#181818;stroke-width:0.6999999999999998;" width="7" x="250.95" y="175.0465"/><rect fill="#FFFFFF" height="21.9037" style="stroke:#181818;stroke-width:0.6999999999999998;" width="7" x="250.95" y="437.6531"/><rect fill="#FFFFFF" height="214.4297" style="stroke:#181818;stroke-width:0.6999999999999998;" width="7" x="250.95" y="481.4605"/><rect fill="#FFFFFF" height="153.326" style="stroke:#181818;stroke-width:0.6999999999999998;" width="7" x="554.75" y="240.5197"/><rect fill="#FFFFFF" height="170.6223" style="stroke:#181818;stroke-width:0.6999999999999998;" width="7" x="554.75" y="503.3643"/><rect fill="#FFFFFF" height="117.0148" style="stroke:#181818;stroke-width:0.6999999999999998;" width="7" x="952" y="547.1717"/><rect fill="#FFFFFF" height="109.5186" style="stroke:#181818;stroke-width:0.6999999999999998;" width="7" x="1108.1" y="262.4234"/><rect fill="#FFFFFF" height="21.9037" style="stroke:#181818;stroke-width:0.6999999999999998;" width="7" x="1260" y="569.0754"/><rect fill="#FFFFFF" height="41.5037" style="stroke:#181818;stroke-width:0.6999999999999998;" width="7" x="1336.65" y="612.8828"/><rect fill="#FFFFFF" height="65.7111" style="stroke:#181818;stroke-width:0.6999999999999998;" width="7" x="1450.05" y="284.3271"/><rect fill="#FFFFFF" height="21.9037" style="stroke:#181818;stroke-width:0.6999999999999998;" width="7" x="1599.85" y="306.2309"/><rect fill="#FFFFFF" height="9.8" style="stroke:#181818;stroke-width:0.6999999999999998;" width="7" x="1599.85" y="634.7865"/><line style="stroke:#181818;stroke-width:0.3499999999999999;stroke-dasharray:5.0,5.0;" x1="38.5" x2="38.5" y1="86.2695" y2="708.4902"/><line style="stroke:#181818;stroke-width:0.3499999999999999;stroke-dasharray:5.0,5.0;" x1="167.3" x2="167.3" y1="86.2695" y2="708.4902"/><line style="stroke:#181818;stroke-width:0.3499999999999999;stroke-dasharray:5.0,5.0;" x1="254.1" x2="254.1" y1="143.958" y2="708.4902"/><line style="stroke:#181818;stroke-width:0.3499999999999999;stroke-dasharray:5.0,5.0;" x1="558.25" x2="558.25" y1="209.4312" y2="708.4902"/><line style="stroke:#181818;stroke-width:0.3499999999999999;stroke-dasharray:5.0,5.0;" x1="833.7" x2="833.7" y1="86.2695" y2="708.4902"/><line style="stroke:#181818;stroke-width:0.3499999999999999;stroke-dasharray:5.0,5.0;" x1="955.5" x2="955.5" y1="86.2695" y2="708.4902"/><line style="stroke:#181818;stroke-width:0.3499999999999999;stroke-dasharray:5.0,5.0;" x1="1111.6" x2="1111.6" y1="86.2695" y2="708.4902"/><line style="stroke:#181818;stroke-width:0.3499999999999999;stroke-dasharray:5.0,5.0;" x1="1263.5" x2="1263.5" y1="86.2695" y2="708.4902"/><line style="stroke:#181818;stroke-width:0.3499999999999999;stroke-dasharray:5.0,5.0;" x1="1339.8" x2="1339.8" y1="86.2695" y2="708.4902"/><line style="stroke:#181818;stroke-width:0.3499999999999999;stroke-dasharray:5.0,5.0;" x1="1453.2" x2="1453.2" y1="86.2695" y2="708.4902"/><line style="stroke:#181818;stroke-width:0.3499999999999999;stroke-dasharray:5.0,5.0;" x1="1603" x2="1603" y1="86.2695" y2="708.4902"/><text fill="#000000" font-family="sans-serif" font-size="9.8" lengthAdjust="spacing" textLength="66.5" x="3.5" y="83.81">Show Designer</text><ellipse cx="38.85" cy="37.1848" fill="#E2E2F0" rx="5.6" ry="5.6" style="stroke:#181818;stroke-width:0.3499999999999999;"/><path d="M38.85,42.7848 L38.85,61.6848 M29.75,48.3848 L47.95,48.3848 M38.85,61.6848 L29.75,72.1848 M38.85,61.6848 L47.95,72.1848 " fill="none" style="stroke:#181818;stroke-width:0.3499999999999999;"/><text fill="#000000" font-family="sans-serif" font-size="9.8" lengthAdjust="spacing" textLength="66.5" x="3.5" y="718.3654">Show Designer</text><ellipse cx="38.85" cy="726.775" fill="#E2E2F0" rx="5.6" ry="5.6" style="stroke:#181818;stroke-width:0.3499999999999999;"/><path d="M38.85,732.375 L38.85,751.275 M29.75,737.975 L47.95,737.975 M38.85,751.275 L29.75,761.775 M38.85,751.275 L47.95,761.775 " fill="none" style="stroke:#181818;stroke-width:0.3499999999999999;"/><rect fill="#E2E2F0" height="35.8695" rx="1.75" ry="1.75" style="stroke:#181818;stroke-width:0.3499999999999999;" width="83.3" x="126" y="49.7"/><text fill="#000000" font-family="sans-serif" font-size="9.8" font-style="italic" lengthAdjust="spacing" textLength="66.5" x="134.4" y="65.1752">&#171;presentation&#187;</text><text fill="#000000" font-family="sans-serif" font-size="9.8" lengthAdjust="spacing" textLength="73.5" x="130.9" y="78.21">AddFigureAction</text><rect fill="#E2E2F0" height="35.8695" rx="1.75" ry="1.75" style="stroke:#181818;stroke-width:0.3499999999999999;" width="83.3" x="126" y="707.7902"/><text fill="#000000" font-family="sans-serif" font-size="9.8" font-style="italic" lengthAdjust="spacing" textLength="66.5" x="134.4" y="723.2654">&#171;presentation&#187;</text><text fill="#000000" font-family="sans-serif" font-size="9.8" lengthAdjust="spacing" textLength="73.5" x="130.9" y="736.3002">AddFigureAction</text><rect fill="#E2E2F0" height="35.8695" rx="1.75" ry="1.75" style="stroke:#181818;stroke-width:0.3499999999999999;" width="76.3" x="216.3" y="707.7902"/><text fill="#000000" font-family="sans-serif" font-size="9.8" font-style="italic" lengthAdjust="spacing" textLength="66.5" x="221.2" y="723.2654">&#171;presentation&#187;</text><text fill="#000000" font-family="sans-serif" font-size="9.8" lengthAdjust="spacing" textLength="54.6" x="227.15" y="736.3002">AddFigureUI</text><rect fill="#E2E2F0" height="35.8695" rx="1.75" ry="1.75" style="stroke:#181818;stroke-width:0.3499999999999999;" width="99.4" x="508.55" y="707.7902"/><text fill="#000000" font-family="sans-serif" font-size="9.8" font-style="italic" lengthAdjust="spacing" textLength="58.8" x="528.85" y="723.2654">&#171;application&#187;</text><text fill="#000000" font-family="sans-serif" font-size="9.8" lengthAdjust="spacing" textLength="89.6" x="513.45" y="736.3002">AddFigureController</text><rect fill="#E2E2F0" height="35.8695" rx="1.75" ry="1.75" style="stroke:#181818;stroke-width:0.3499999999999999;" width="100.1" x="784" y="49.7"/><text fill="#000000" font-family="sans-serif" font-size="9.8" font-style="italic" lengthAdjust="spacing" textLength="30.8" x="818.65" y="65.1752">&#171;auth&#187;</text><text fill="#000000" font-family="sans-serif" font-size="9.8" lengthAdjust="spacing" textLength="90.3" x="788.9" y="78.21">AuthorizationService</text><rect fill="#E2E2F0" height="35.8695" rx="1.75" ry="1.75" style="stroke:#181818;stroke-width:0.3499999999999999;" width="100.1" x="784" y="707.7902"/><text fill="#000000" font-family="sans-serif" font-size="9.8" font-style="italic" lengthAdjust="spacing" textLength="30.8" x="818.65" y="723.2654">&#171;auth&#187;</text><text fill="#000000" font-family="sans-serif" font-size="9.8" lengthAdjust="spacing" textLength="90.3" x="788.9" y="736.3002">AuthorizationService</text><rect fill="#E2E2F0" height="35.8695" rx="1.75" ry="1.75" style="stroke:#181818;stroke-width:0.3499999999999999;" width="128.8" x="891.1" y="49.7"/><text fill="#000000" font-family="sans-serif" font-size="9.8" font-style="italic" lengthAdjust="spacing" textLength="58.8" x="926.1" y="65.1752">&#171;application&#187;</text><text fill="#000000" font-family="sans-serif" font-size="9.8" lengthAdjust="spacing" textLength="119" x="896" y="78.21">FigureManagementService</text><rect fill="#E2E2F0" height="35.8695" rx="1.75" ry="1.75" style="stroke:#181818;stroke-width:0.3499999999999999;" width="128.8" x="891.1" y="707.7902"/><text fill="#000000" font-family="sans-serif" font-size="9.8" font-style="italic" lengthAdjust="spacing" textLength="58.8" x="926.1" y="723.2654">&#171;application&#187;</text><text fill="#000000" font-family="sans-serif" font-size="9.8" lengthAdjust="spacing" textLength="119" x="896" y="736.3002">FigureManagementService</text><rect fill="#E2E2F0" height="35.8695" rx="1.75" ry="1.75" style="stroke:#181818;stroke-width:0.3499999999999999;" width="169.4" x="1026.9" y="49.7"/><text fill="#000000" font-family="sans-serif" font-size="9.8" font-style="italic" lengthAdjust="spacing" textLength="58.8" x="1082.2" y="65.1752">&#171;application&#187;</text><text fill="#000000" font-family="sans-serif" font-size="9.8" lengthAdjust="spacing" textLength="159.6" x="1031.8" y="78.21">FigureCategoryManagementService</text><rect fill="#E2E2F0" height="35.8695" rx="1.75" ry="1.75" style="stroke:#181818;stroke-width:0.3499999999999999;" width="169.4" x="1026.9" y="707.7902"/><text fill="#000000" font-family="sans-serif" font-size="9.8" font-style="italic" lengthAdjust="spacing" textLength="58.8" x="1082.2" y="723.2654">&#171;application&#187;</text><text fill="#000000" font-family="sans-serif" font-size="9.8" lengthAdjust="spacing" textLength="159.6" x="1031.8" y="736.3002">FigureCategoryManagementService</text><rect fill="#E2E2F0" height="35.8695" rx="1.75" ry="1.75" style="stroke:#181818;stroke-width:0.3499999999999999;" width="53.2" x="1236.9" y="49.7"/><text fill="#000000" font-family="sans-serif" font-size="9.8" font-style="italic" lengthAdjust="spacing" textLength="43.4" x="1241.8" y="65.1752">&#171;domain&#187;</text><text fill="#000000" font-family="sans-serif" font-size="9.8" lengthAdjust="spacing" textLength="28.7" x="1249.15" y="78.21">Figure</text><rect fill="#E2E2F0" height="35.8695" rx="1.75" ry="1.75" style="stroke:#181818;stroke-width:0.3499999999999999;" width="53.2" x="1236.9" y="707.7902"/><text fill="#000000" font-family="sans-serif" font-size="9.8" font-style="italic" lengthAdjust="spacing" textLength="43.4" x="1241.8" y="723.2654">&#171;domain&#187;</text><text fill="#000000" font-family="sans-serif" font-size="9.8" lengthAdjust="spacing" textLength="28.7" x="1249.15" y="736.3002">Figure</text><rect fill="#E2E2F0" height="35.8695" rx="1.75" ry="1.75" style="stroke:#181818;stroke-width:0.3499999999999999;" width="86.1" x="1297.1" y="49.7"/><text fill="#000000" font-family="sans-serif" font-size="9.8" font-style="italic" lengthAdjust="spacing" textLength="55.3" x="1312.5" y="65.1752">&#171;repository&#187;</text><text fill="#000000" font-family="sans-serif" font-size="9.8" lengthAdjust="spacing" textLength="76.3" x="1302" y="78.21">FigureRepository</text><rect fill="#E2E2F0" height="35.8695" rx="1.75" ry="1.75" style="stroke:#181818;stroke-width:0.3499999999999999;" width="86.1" x="1297.1" y="707.7902"/><text fill="#000000" font-family="sans-serif" font-size="9.8" font-style="italic" lengthAdjust="spacing" textLength="55.3" x="1312.5" y="723.2654">&#171;repository&#187;</text><text fill="#000000" font-family="sans-serif" font-size="9.8" lengthAdjust="spacing" textLength="76.3" x="1302" y="736.3002">FigureRepository</text><rect fill="#E2E2F0" height="35.8695" rx="1.75" ry="1.75" style="stroke:#181818;stroke-width:0.3499999999999999;" width="126.7" x="1390.2" y="49.7"/><text fill="#000000" font-family="sans-serif" font-size="9.8" font-style="italic" lengthAdjust="spacing" textLength="55.3" x="1425.9" y="65.1752">&#171;repository&#187;</text><text fill="#000000" font-family="sans-serif" font-size="9.8" lengthAdjust="spacing" textLength="116.9" x="1395.1" y="78.21">FigureCategoryRepository</text><rect fill="#E2E2F0" height="35.8695" rx="1.75" ry="1.75" style="stroke:#181818;stroke-width:0.3499999999999999;" width="126.7" x="1390.2" y="707.7902"/><text fill="#000000" font-family="sans-serif" font-size="9.8" font-style="italic" lengthAdjust="spacing" textLength="55.3" x="1425.9" y="723.2654">&#171;repository&#187;</text><text fill="#000000" font-family="sans-serif" font-size="9.8" lengthAdjust="spacing" textLength="116.9" x="1395.1" y="736.3002">FigureCategoryRepository</text><text fill="#000000" font-family="sans-serif" font-size="9.8" lengthAdjust="spacing" textLength="42.7" x="1579.9" y="83.81">Database</text><path d="M1590.75,48.0348 C1590.75,41.0348 1603.35,41.0348 1603.35,41.0348 C1603.35,41.0348 1615.95,41.0348 1615.95,48.0348 L1615.95,66.2348 C1615.95,73.2348 1603.35,73.2348 1603.35,73.2348 C1603.35,73.2348 1590.75,73.2348 1590.75,66.2348 L1590.75,48.0348 " fill="#E2E2F0" style="stroke:#181818;stroke-width:1.0499999999999998;"/><path d="M1590.75,48.0348 C1590.75,55.0348 1603.35,55.0348 1603.35,55.0348 C1603.35,55.0348 1615.95,55.0348 1615.95,48.0348 " fill="none" style="stroke:#181818;stroke-width:1.0499999999999998;"/><text fill="#000000" font-family="sans-serif" font-size="9.8" lengthAdjust="spacing" textLength="42.7" x="1579.9" y="718.3654">Database</text><path d="M1590.75,727.825 C1590.75,720.825 1603.35,720.825 1603.35,720.825 C1603.35,720.825 1615.95,720.825 1615.95,727.825 L1615.95,746.025 C1615.95,753.025 1603.35,753.025 1603.35,753.025 C1603.35,753.025 1590.75,753.025 1590.75,746.025 L1590.75,727.825 " fill="#E2E2F0" style="stroke:#181818;stroke-width:1.0499999999999998;"/><path d="M1590.75,727.825 C1590.75,734.825 1603.35,734.825 1603.35,734.825 C1603.35,734.825 1615.95,734.825 1615.95,727.825 " fill="none" style="stroke:#181818;stroke-width:1.0499999999999998;"/><rect fill="#FFFFFF" height="602.6207" style="stroke:#181818;stroke-width:0.6999999999999998;" width="7" x="35.35" y="93.2695"/><rect fill="#FFFFFF" height="65.4732" style="stroke:#181818;stroke-width:0.6999999999999998;" width="7" x="164.15" y="109.5732"/><rect fill="#FFFFFF" height="240.7029" style="stroke:#181818;stroke-width:0.6999999999999998;" width="7" x="250.95" y="175.0465"/><rect fill="#FFFFFF" height="21.9037" style="stroke:#181818;stroke-width:0.6999999999999998;" width="7" x="250.95" y="437.6531"/><rect fill="#FFFFFF" height="214.4297" style="stroke:#181818;stroke-width:0.6999999999999998;" width="7" x="250.95" y="481.4605"/><rect fill="#FFFFFF" height="153.326" style="stroke:#181818;stroke-width:0.6999999999999998;" width="7" x="554.75" y="240.5197"/><rect fill="#FFFFFF" height="170.6223" style="stroke:#181818;stroke-width:0.6999999999999998;" width="7" x="554.75" y="503.3643"/><rect fill="#FFFFFF" height="117.0148" style="stroke:#181818;stroke-width:0.6999999999999998;" width="7" x="952" y="547.1717"/><rect fill="#FFFFFF" height="109.5186" style="stroke:#181818;stroke-width:0.6999999999999998;" width="7" x="1108.1" y="262.4234"/><rect fill="#FFFFFF" height="21.9037" style="stroke:#181818;stroke-width:0.6999999999999998;" width="7" x="1260" y="569.0754"/><rect fill="#FFFFFF" height="41.5037" style="stroke:#181818;stroke-width:0.6999999999999998;" width="7" x="1336.65" y="612.8828"/><rect fill="#FFFFFF" height="65.7111" style="stroke:#181818;stroke-width:0.6999999999999998;" width="7" x="1450.05" y="284.3271"/><rect fill="#FFFFFF" height="21.9037" style="stroke:#181818;stroke-width:0.6999999999999998;" width="7" x="1599.85" y="306.2309"/><rect fill="#FFFFFF" height="9.8" style="stroke:#181818;stroke-width:0.6999999999999998;" width="7" x="1599.85" y="634.7865"/><polygon fill="#181818" points="155.75,106.7732,162.75,109.5732,155.75,112.3732,158.55,109.5732" style="stroke:#181818;stroke-width:0.6999999999999998;"/><line style="stroke:#181818;stroke-width:0.6999999999999998;" x1="42.35" x2="159.95" y1="109.5732" y2="109.5732"/><text fill="#000000" font-family="sans-serif" font-size="9.1" lengthAdjust="spacing" textLength="108.5" x="47.25" y="105.8894">Add figure to the catalogue</text><polygon fill="#181818" points="207.9,128.677,214.9,131.477,207.9,134.277,210.7,131.477" style="stroke:#181818;stroke-width:0.6999999999999998;"/><line style="stroke:#181818;stroke-width:0.6999999999999998;" x1="171.15" x2="212.1" y1="131.477" y2="131.477"/><text fill="#000000" font-family="sans-serif" font-size="9.1" lengthAdjust="spacing" textLength="25.2" x="176.05" y="127.7931">create</text><rect fill="#E2E2F0" height="35.8695" rx="1.75" ry="1.75" style="stroke:#181818;stroke-width:0.3499999999999999;" width="76.3" x="216.3" y="115.1732"/><text fill="#000000" font-family="sans-serif" font-size="9.8" font-style="italic" lengthAdjust="spacing" textLength="66.5" x="221.2" y="130.6484">&#171;presentation&#187;</text><text fill="#000000" font-family="sans-serif" font-size="9.8" lengthAdjust="spacing" textLength="54.6" x="227.15" y="143.6832">AddFigureUI</text><polygon fill="#181818" points="242.55,172.2465,249.55,175.0465,242.55,177.8465,245.35,175.0465" style="stroke:#181818;stroke-width:0.6999999999999998;"/><line style="stroke:#181818;stroke-width:0.6999999999999998;" x1="167.65" x2="246.75" y1="175.0465" y2="175.0465"/><text fill="#000000" font-family="sans-serif" font-size="9.1" lengthAdjust="spacing" textLength="26.6" x="172.55" y="171.3626">show()</text><polygon fill="#181818" points="500.15,194.1502,507.15,196.9502,500.15,199.7502,502.95,196.9502" style="stroke:#181818;stroke-width:0.6999999999999998;"/><line style="stroke:#181818;stroke-width:0.6999999999999998;" x1="257.95" x2="504.35" y1="196.9502" y2="196.9502"/><text fill="#000000" font-family="sans-serif" font-size="9.1" lengthAdjust="spacing" textLength="25.2" x="262.85" y="193.2663">create</text><rect fill="#E2E2F0" height="35.8695" rx="1.75" ry="1.75" style="stroke:#181818;stroke-width:0.3499999999999999;" width="99.4" x="508.55" y="180.6465"/><text fill="#000000" font-family="sans-serif" font-size="9.8" font-style="italic" lengthAdjust="spacing" textLength="58.8" x="528.85" y="196.1217">&#171;application&#187;</text><text fill="#000000" font-family="sans-serif" font-size="9.8" lengthAdjust="spacing" textLength="89.6" x="513.45" y="209.1564">AddFigureController</text><polygon fill="#181818" points="546.35,237.7197,553.35,240.5197,546.35,243.3197,549.15,240.5197" style="stroke:#181818;stroke-width:0.6999999999999998;"/><line style="stroke:#181818;stroke-width:0.6999999999999998;" x1="257.95" x2="550.55" y1="240.5197" y2="240.5197"/><text fill="#000000" font-family="sans-serif" font-size="9.1" lengthAdjust="spacing" textLength="86.1" x="262.85" y="236.8358">listFigureCategories()</text><polygon fill="#181818" points="1099.7,259.6234,1106.7,262.4234,1099.7,265.2234,1102.5,262.4234" style="stroke:#181818;stroke-width:0.6999999999999998;"/><line style="stroke:#181818;stroke-width:0.6999999999999998;" x1="561.75" x2="1103.9" y1="262.4234" y2="262.4234"/><text fill="#000000" font-family="sans-serif" font-size="9.1" lengthAdjust="spacing" textLength="70.7" x="566.65" y="258.7396">findByActive(true)</text><polygon fill="#181818" points="1441.65,281.5271,1448.65,284.3271,1441.65,287.1271,1444.45,284.3271" style="stroke:#181818;stroke-width:0.6999999999999998;"/><line style="stroke:#181818;stroke-width:0.6999999999999998;" x1="1115.1" x2="1445.85" y1="284.3271" y2="284.3271"/><text fill="#000000" font-family="sans-serif" font-size="9.1" lengthAdjust="spacing" textLength="70.7" x="1120" y="280.6433">findByActive(true)</text><polygon fill="#181818" points="1591.45,303.4309,1598.45,306.2309,1591.45,309.0309,1594.25,306.2309" style="stroke:#181818;stroke-width:0.6999999999999998;"/><line style="stroke:#181818;stroke-width:0.6999999999999998;" x1="1457.05" x2="1595.65" y1="306.2309" y2="306.2309"/><text fill="#000000" font-family="sans-serif" font-size="9.1" lengthAdjust="spacing" textLength="70.7" x="1461.95" y="302.547">findByActive(true)</text><polygon fill="#181818" points="1464.75,325.3346,1457.75,328.1346,1464.75,330.9346,1461.95,328.1346" style="stroke:#181818;stroke-width:0.6999999999999998;"/><line style="stroke:#181818;stroke-width:0.6999999999999998;stroke-dasharray:2.0,2.0;" x1="1460.55" x2="1602.65" y1="328.1346" y2="328.1346"/><text fill="#000000" font-family="sans-serif" font-size="9.1" lengthAdjust="spacing" textLength="126" x="1468.95" y="324.4507">List of Active Figure Categories</text><polygon fill="#181818" points="1122.8,347.2383,1115.8,350.0383,1122.8,352.8383,1120,350.0383" style="stroke:#181818;stroke-width:0.6999999999999998;"/><line style="stroke:#181818;stroke-width:0.6999999999999998;stroke-dasharray:2.0,2.0;" x1="1118.6" x2="1452.85" y1="350.0383" y2="350.0383"/><text fill="#000000" font-family="sans-serif" font-size="9.1" lengthAdjust="spacing" textLength="126" x="1127" y="346.3544">List of Active Figure Categories</text><polygon fill="#181818" points="569.45,369.142,562.45,371.942,569.45,374.742,566.65,371.942" style="stroke:#181818;stroke-width:0.6999999999999998;"/><line style="stroke:#181818;stroke-width:0.6999999999999998;stroke-dasharray:2.0,2.0;" x1="565.25" x2="1110.9" y1="371.942" y2="371.942"/><text fill="#000000" font-family="sans-serif" font-size="9.1" lengthAdjust="spacing" textLength="126" x="573.65" y="368.2581">List of Active Figure Categories</text><polygon fill="#181818" points="265.65,391.0457,258.65,393.8457,265.65,396.6457,262.85,393.8457" style="stroke:#181818;stroke-width:0.6999999999999998;"/><line style="stroke:#181818;stroke-width:0.6999999999999998;stroke-dasharray:2.0,2.0;" x1="261.45" x2="557.55" y1="393.8457" y2="393.8457"/><text fill="#000000" font-family="sans-serif" font-size="9.1" lengthAdjust="spacing" textLength="126" x="269.85" y="390.1618">List of Active Figure Categories</text><polygon fill="#181818" points="50.05,412.9494,43.05,415.7494,50.05,418.5494,47.25,415.7494" style="stroke:#181818;stroke-width:0.6999999999999998;"/><line style="stroke:#181818;stroke-width:0.6999999999999998;stroke-dasharray:2.0,2.0;" x1="45.85" x2="253.75" y1="415.7494" y2="415.7494"/><text fill="#000000" font-family="sans-serif" font-size="9.1" lengthAdjust="spacing" textLength="123.9" x="54.25" y="412.0655">Show List of Figure Categories</text><polygon fill="#181818" points="242.55,434.8531,249.55,437.6531,242.55,440.4531,245.35,437.6531" style="stroke:#181818;stroke-width:0.6999999999999998;"/><line style="stroke:#181818;stroke-width:0.6999999999999998;" x1="42.35" x2="246.75" y1="437.6531" y2="437.6531"/><text fill="#000000" font-family="sans-serif" font-size="9.1" lengthAdjust="spacing" textLength="93.1" x="47.25" y="433.9692">Select Figure Category</text><polygon fill="#181818" points="50.05,456.7568,43.05,459.5568,50.05,462.3568,47.25,459.5568" style="stroke:#181818;stroke-width:0.6999999999999998;"/><line style="stroke:#181818;stroke-width:0.6999999999999998;stroke-dasharray:2.0,2.0;" x1="45.85" x2="253.75" y1="459.5568" y2="459.5568"/><text fill="#000000" font-family="sans-serif" font-size="9.1" lengthAdjust="spacing" textLength="176.4" x="54.25" y="455.8729">Request Keywords, Description, Exclusivity</text><polygon fill="#181818" points="242.55,478.6605,249.55,481.4605,242.55,484.2605,245.35,481.4605" style="stroke:#181818;stroke-width:0.6999999999999998;"/><line style="stroke:#181818;stroke-width:0.6999999999999998;" x1="42.35" x2="246.75" y1="481.4605" y2="481.4605"/><text fill="#000000" font-family="sans-serif" font-size="9.1" lengthAdjust="spacing" textLength="104.3" x="47.25" y="477.7767">Provide Figure Information</text><polygon fill="#181818" points="546.35,500.5643,553.35,503.3643,546.35,506.1643,549.15,503.3643" style="stroke:#181818;stroke-width:0.6999999999999998;"/><line style="stroke:#181818;stroke-width:0.6999999999999998;" x1="257.95" x2="550.55" y1="503.3643" y2="503.3643"/><text fill="#000000" font-family="sans-serif" font-size="9.1" lengthAdjust="spacing" textLength="283.5" x="262.85" y="499.6804">addFigure(description, keywords, figureCategory, exclusive, customer)</text><polygon fill="#181818" points="825.65,522.468,832.65,525.268,825.65,528.068,828.45,525.268" style="stroke:#181818;stroke-width:0.6999999999999998;"/><line style="stroke:#181818;stroke-width:0.6999999999999998;" x1="561.75" x2="829.85" y1="525.268" y2="525.268"/><text fill="#000000" font-family="sans-serif" font-size="9.1" lengthAdjust="spacing" textLength="255.5" x="566.65" y="521.5841">ensureAuthenticatedUserHasAnyOf(Roles.SHOW_DESIGNER)</text><polygon fill="#181818" points="943.6,544.3717,950.6,547.1717,943.6,549.9717,946.4,547.1717" style="stroke:#181818;stroke-width:0.6999999999999998;"/><line style="stroke:#181818;stroke-width:0.6999999999999998;" x1="561.75" x2="947.8" y1="547.1717" y2="547.1717"/><text fill="#000000" font-family="sans-serif" font-size="9.1" lengthAdjust="spacing" textLength="342.3" x="566.65" y="543.4878">registerNewFigure(figureDescription, keywords, figureCategory, exclusive, customer);</text><polygon fill="#181818" points="1251.6,566.2754,1258.6,569.0754,1251.6,571.8754,1254.4,569.0754" style="stroke:#181818;stroke-width:0.6999999999999998;"/><line style="stroke:#181818;stroke-width:0.6999999999999998;" x1="959" x2="1255.8" y1="569.0754" y2="569.0754"/><text fill="#000000" font-family="sans-serif" font-size="9.1" lengthAdjust="spacing" textLength="287.7" x="963.9" y="565.3915">new Figure(description, keywords, figureCategory, exclusive, customer)</text><polygon fill="#181818" points="966.7,588.1791,959.7,590.9791,966.7,593.7791,963.9,590.9791" style="stroke:#181818;stroke-width:0.6999999999999998;"/><line style="stroke:#181818;stroke-width:0.6999999999999998;stroke-dasharray:2.0,2.0;" x1="962.5" x2="1262.8" y1="590.9791" y2="590.9791"/><text fill="#000000" font-family="sans-serif" font-size="9.1" lengthAdjust="spacing" textLength="44.1" x="970.9" y="587.2952">new Figure</text><polygon fill="#181818" points="1328.25,610.0828,1335.25,612.8828,1328.25,615.6828,1331.05,612.8828" style="stroke:#181818;stroke-width:0.6999999999999998;"/><line style="stroke:#181818;stroke-width:0.6999999999999998;" x1="959" x2="1332.45" y1="612.8828" y2="612.8828"/><text fill="#000000" font-family="sans-serif" font-size="9.1" lengthAdjust="spacing" textLength="65.1" x="963.9" y="609.1989">save(newFigure)</text><polygon fill="#181818" points="1591.45,631.9865,1598.45,634.7865,1591.45,637.5865,1594.25,634.7865" style="stroke:#181818;stroke-width:0.6999999999999998;"/><line style="stroke:#181818;stroke-width:0.6999999999999998;" x1="1343.65" x2="1595.65" y1="634.7865" y2="634.7865"/><text fill="#000000" font-family="sans-serif" font-size="9.1" lengthAdjust="spacing" textLength="23.8" x="1348.55" y="631.1026">save()</text><polygon fill="#181818" points="1351.35,641.7865,1344.35,644.5865,1351.35,647.3865,1348.55,644.5865" style="stroke:#181818;stroke-width:0.6999999999999998;"/><line style="stroke:#181818;stroke-width:0.6999999999999998;stroke-dasharray:2.0,2.0;" x1="1347.15" x2="1602.65" y1="644.5865" y2="644.5865"/><polygon fill="#181818" points="966.7,651.5865,959.7,654.3865,966.7,657.1865,963.9,654.3865" style="stroke:#181818;stroke-width:0.6999999999999998;"/><line style="stroke:#181818;stroke-width:0.6999999999999998;stroke-dasharray:2.0,2.0;" x1="962.5" x2="1339.45" y1="654.3865" y2="654.3865"/><polygon fill="#181818" points="569.45,661.3865,562.45,664.1865,569.45,666.9865,566.65,664.1865" style="stroke:#181818;stroke-width:0.6999999999999998;"/><line style="stroke:#181818;stroke-width:0.6999999999999998;stroke-dasharray:2.0,2.0;" x1="565.25" x2="954.8" y1="664.1865" y2="664.1865"/><polygon fill="#181818" points="265.65,671.1865,258.65,673.9865,265.65,676.7865,262.85,673.9865" style="stroke:#181818;stroke-width:0.6999999999999998;"/><line style="stroke:#181818;stroke-width:0.6999999999999998;stroke-dasharray:2.0,2.0;" x1="261.45" x2="557.55" y1="673.9865" y2="673.9865"/><polygon fill="#181818" points="46.55,693.0902,39.55,695.8902,46.55,698.6902,43.75,695.8902" style="stroke:#181818;stroke-width:0.6999999999999998;"/><line style="stroke:#181818;stroke-width:0.6999999999999998;stroke-dasharray:2.0,2.0;" x1="42.35" x2="253.75" y1="695.8902" y2="695.8902"/><text fill="#000000" font-family="sans-serif" font-size="9.1" lengthAdjust="spacing" textLength="87.5" x="50.75" y="692.2063">Confirm Figure Added</text><!--SRC=[hLRRZjCm47ttLupwr5PTFY2iLbhembR0WbfLF2AJJBCMQHnifoLyFPCq5wTnBgmsBsrYpvdZyPcB4IP2sE7l56CVOIrugFYHCUuRgM2sUvPdMACMOOng1bp3VRx04gwCy4N2OmEp-o3u8C9K8Qq96LVRw2_StYOADSQ6vwztTps6-qrXjDzCDNWlOwDa59MacbS2u4aI2TzjdvfdgSJVOd67wYHylD1rBEHGzFaQuqBW2uzvY4SYQiFqh0sJAa_43OPIPKF0lNkcEB1mQ7iWZrpqxDnY8hMWQyuic-OZMQlwPVWmJgJkuZLYm0t_oJN2R5t-AyohbqATuaGmfHfPyGCtTwNiF22XmE5oLYF1F2DGQ7WamnGPq6C3a04hFkPFgLk2sc-MImzyXRJDkUo1fkoOBox60Jenwu_x3MEaRx9inBfSGksXi-X19BHfXKoW9dSjs6P_SmOh6mXnH3eUnIaEtcKvwHFEZKfnKIErN8q0iPPL_eo9jaEkKSGegn5s3H9pcdNfMMeaNfNK9lFey6d42YDFjHDk1WFocTG0yW0NAbKcDyeOz6EfSvnOVs2coEb5F2r-qozoL5zN-VHVp7ePTONlohkoGanoQRcoqxce29UQ9ebzqOehl2wG1KAbfYw8EOaTHkYRAvkCTKfJuskRpmFawHDcPwa2lSfd05-992ziAtZuuqUf5YTXiYk_RSVVb3o9e3xs9Zv8TUGznR6AudKTf1B9gxO_3smQlsfsXzODhG1BWhW2FzL67b7r53LN_NJNKUU8u076EfzyQ94KaJTW3FOQrIFNzt7szJ3VoWZrcztZr-y_rW-xpSUdX-sYwyhk7Wu_OzpwvWuF58Oa6LHFU2v3U8dL-kM1VCj6Yl24rj2axq1Ry236CxpopG_m7YxLfOXl-iDjysKJAd7bzONXiGepZIASsbDSNVA2JMcMKvgaHSNT8IlVmstnbVgYnHXUhTtr7B7_dgTriB7ezjvlg_gnKJyJigtJcFewdSEltHZehcd7GQXZbGqqPsF074ZaepqHqvZ-3m00]--></g></svg>