<?xml version="1.0" encoding="us-ascii" standalone="no"?><svg xmlns="http://www.w3.org/2000/svg" xmlns:xlink="http://www.w3.org/1999/xlink" contentStyleType="text/css" height="459px" preserveAspectRatio="none" style="width:383px;height:459px;background:#FFFFFF;" version="1.1" viewBox="0 0 383 459" width="383px" zoomAndPan="magnify"><defs/><g><text fill="#000000" font-family="sans-serif" font-size="14" font-weight="bold" lengthAdjust="spacing" textLength="242" x="66.75" y="30.1074">System Sequence Diagram - US233</text><rect fill="#FFFFFF" height="234.0371" style="stroke:#181818;stroke-width:1.0;" width="10" x="50.5" y="133.2422"/><rect fill="#FFFFFF" height="31.291" style="stroke:#181818;stroke-width:1.0;" width="10" x="336.5" y="201.8242"/><rect fill="#FFFFFF" height="31.291" style="stroke:#181818;stroke-width:1.0;" width="10" x="336.5" y="264.4063"/><rect fill="#FFFFFF" height="31.291" style="stroke:#181818;stroke-width:1.0;" width="10" x="336.5" y="326.9883"/><line style="stroke:#181818;stroke-width:0.5;stroke-dasharray:5.0,5.0;" x1="55" x2="55" y1="123.2422" y2="376.2793"/><line style="stroke:#181818;stroke-width:0.5;stroke-dasharray:5.0,5.0;" x1="341.5" x2="341.5" y1="123.2422" y2="376.2793"/><text fill="#000000" font-family="sans-serif" font-size="14" lengthAdjust="spacing" textLength="95" x="5" y="119.7285">Show Designer</text><ellipse cx="55.5" cy="53.1211" fill="#E3E3E3" rx="8" ry="8" style="stroke:#181818;stroke-width:0.5;"/><path d="M55.5,61.1211 L55.5,88.1211 M42.5,69.1211 L68.5,69.1211 M55.5,88.1211 L42.5,103.1211 M55.5,88.1211 L68.5,103.1211 " fill="none" style="stroke:#181818;stroke-width:0.5;"/><text fill="#000000" font-family="sans-serif" font-size="14" lengthAdjust="spacing" textLength="95" x="5" y="390.3867">Show Designer</text><ellipse cx="55.5" cy="402.4004" fill="#E3E3E3" rx="8" ry="8" style="stroke:#181818;stroke-width:0.5;"/><path d="M55.5,410.4004 L55.5,437.4004 M42.5,418.4004 L68.5,418.4004 M55.5,437.4004 L42.5,452.4004 M55.5,437.4004 L68.5,452.4004 " fill="none" style="stroke:#181818;stroke-width:0.5;"/><rect fill="#E3E3E3" height="32.6211" rx="2.5" ry="2.5" style="stroke:#181818;stroke-width:0.5;" width="60" x="311.5" y="89.6211"/><text fill="#000000" font-family="sans-serif" font-size="14" lengthAdjust="spacing" textLength="46" x="318.5" y="111.7285">System</text><rect fill="#E3E3E3" height="32.6211" rx="2.5" ry="2.5" style="stroke:#181818;stroke-width:0.5;" width="60" x="311.5" y="375.2793"/><text fill="#000000" font-family="sans-serif" font-size="14" lengthAdjust="spacing" textLength="46" x="318.5" y="397.3867">System</text><rect fill="#FFFFFF" height="234.0371" style="stroke:#181818;stroke-width:1.0;" width="10" x="50.5" y="133.2422"/><rect fill="#FFFFFF" height="31.291" style="stroke:#181818;stroke-width:1.0;" width="10" x="336.5" y="201.8242"/><rect fill="#FFFFFF" height="31.291" style="stroke:#181818;stroke-width:1.0;" width="10" x="336.5" y="264.4063"/><rect fill="#FFFFFF" height="31.291" style="stroke:#181818;stroke-width:1.0;" width="10" x="336.5" y="326.9883"/><rect fill="#EEEEEE" height="3" style="stroke:#EEEEEE;stroke-width:1.0;" width="376.5" x="0" y="154.8877"/><line style="stroke:#000000;stroke-width:1.0;" x1="0" x2="376.5" y1="154.8877" y2="154.8877"/><line style="stroke:#000000;stroke-width:1.0;" x1="0" x2="376.5" y1="157.8877" y2="157.8877"/><rect fill="#EEEEEE" height="25.291" style="stroke:#000000;stroke-width:2.0;" width="191" x="92.75" y="143.2422"/><text fill="#000000" font-family="sans-serif" font-size="13" font-weight="bold" lengthAdjust="spacing" textLength="173" x="98.75" y="161.2705">Add figure to the catalogue</text><polygon fill="#181818" points="324.5,197.8242,334.5,201.8242,324.5,205.8242,328.5,201.8242" style="stroke:#181818;stroke-width:1.0;"/><line style="stroke:#181818;stroke-width:1.0;" x1="60.5" x2="330.5" y1="201.8242" y2="201.8242"/><text fill="#000000" font-family="sans-serif" font-size="13" lengthAdjust="spacing" textLength="155" x="67.5" y="196.5615">Add figure to the catalogue</text><polygon fill="#181818" points="71.5,229.1152,61.5,233.1152,71.5,237.1152,67.5,233.1152" style="stroke:#181818;stroke-width:1.0;"/><line style="stroke:#181818;stroke-width:1.0;" x1="65.5" x2="340.5" y1="233.1152" y2="233.1152"/><text fill="#000000" font-family="sans-serif" font-size="13" lengthAdjust="spacing" textLength="177" x="77.5" y="227.8525">Show List of Figure Categories</text><polygon fill="#181818" points="324.5,260.4063,334.5,264.4063,324.5,268.4063,328.5,264.4063" style="stroke:#181818;stroke-width:1.0;"/><line style="stroke:#181818;stroke-width:1.0;" x1="60.5" x2="330.5" y1="264.4063" y2="264.4063"/><text fill="#000000" font-family="sans-serif" font-size="13" lengthAdjust="spacing" textLength="133" x="67.5" y="259.1436">Select Figure Category</text><polygon fill="#181818" points="71.5,291.6973,61.5,295.6973,71.5,299.6973,67.5,295.6973" style="stroke:#181818;stroke-width:1.0;"/><line style="stroke:#181818;stroke-width:1.0;" x1="65.5" x2="340.5" y1="295.6973" y2="295.6973"/><text fill="#000000" font-family="sans-serif" font-size="13" lengthAdjust="spacing" textLength="252" x="77.5" y="290.4346">Request Keywords, Description, Exclusivity</text><polygon fill="#181818" points="324.5,322.9883,334.5,326.9883,324.5,330.9883,328.5,326.9883" style="stroke:#181818;stroke-width:1.0;"/><line style="stroke:#181818;stroke-width:1.0;" x1="60.5" x2="330.5" y1="326.9883" y2="326.9883"/><text fill="#000000" font-family="sans-serif" font-size="13" lengthAdjust="spacing" textLength="149" x="67.5" y="321.7256">Provide Figure Information</text><polygon fill="#181818" points="71.5,354.2793,61.5,358.2793,71.5,362.2793,67.5,358.2793" style="stroke:#181818;stroke-width:1.0;"/><line style="stroke:#181818;stroke-width:1.0;" x1="65.5" x2="340.5" y1="358.2793" y2="358.2793"/><text fill="#000000" font-family="sans-serif" font-size="13" lengthAdjust="spacing" textLength="125" x="77.5" y="353.0166">Confirm Figure Added</text><!--SRC=[bP79JiCm48RlVeeHv_P2RvM2X5gG41mG4GymiYVEg8ads9E6l3rE5nHMgJSl__9vd7OSEepOGYj1R1sb9T3OaqcVDntQ7NegTMm88bd5u9kv8DNePE3WeS8caJ5eLI9SbRKCiAN4Fb2y0anPASFvm6IpikKEWsRjc9JQe-YmD4PPS-7n0afwwobOWYsZdqgNy5fUhrR650NSEWSL-pvcTW6j2ImgDk9xWgAOS7YFIb_hpNm7ovjJBwp_YvjbdIXFhia_prl3uVLFd1IaWljZt2OxlKIcP1pzZFeBgAGcZ_rRo6WkW7cPnfTH7caS9BgqcFx5HkwK9IpWxjqsVU8zwtWHs7EKFJiwaps4IcABK-ObS1i95SVsd9B7J-ut3FC1]--></g></svg>