<svg xmlns="http://www.w3.org/2000/svg" xmlns:xlink="http://www.w3.org/1999/xlink" contentStyleType="text/css" height="921px" preserveAspectRatio="none" style="width:1534px;height:921px;background:#FFFFFF;" version="1.1" viewBox="0 0 1534 921" width="1534px" zoomAndPan="magnify"><title>Sequence Diagram</title><defs/><g><text fill="#000000" font-family="sans-serif" font-size="14" font-weight="bold" lengthAdjust="spacing" textLength="126.0479" x="705.0474" y="30.1074">Sequence Diagram</text><rect fill="#FFFFFF" height="687.1406" style="stroke:#181818;stroke-width:1.0;" width="10" x="50.4688" y="133.2422"/><rect fill="#FFFFFF" height="388.8125" style="stroke:#181818;stroke-width:1.0;" width="10" x="231.1543" y="156.5332"/><rect fill="#FFFFFF" height="243.7461" style="stroke:#181818;stroke-width:1.0;" width="10" x="231.1543" y="576.6367"/><rect fill="#FFFFFF" height="263.9883" style="stroke:#181818;stroke-width:1.0;" width="10" x="504.9326" y="250.0664"/><rect fill="#FFFFFF" height="181.1641" style="stroke:#181818;stroke-width:1.0;" width="10" x="504.9326" y="607.9277"/><rect fill="#FFFFFF" height="139.1641" style="stroke:#181818;stroke-width:1.0;" width="10" x="1020.3779" y="343.5996"/><rect fill="#FFFFFF" height="135.873" style="stroke:#181818;stroke-width:1.0;" width="10" x="1020.3779" y="639.2188"/><rect fill="#FFFFFF" height="93.873" style="stroke:#181818;stroke-width:1.0;" width="10" x="1359.0146" y="374.8906"/><rect fill="#FFFFFF" height="59.291" style="stroke:#181818;stroke-width:1.0;" width="10" x="1359.0146" y="701.8008"/><rect fill="#FFFFFF" height="31.291" style="stroke:#181818;stroke-width:1.0;" width="10" x="1494.1772" y="406.1816"/><rect fill="#FFFFFF" height="14" style="stroke:#181818;stroke-width:1.0;" width="10" x="1494.1772" y="733.0918"/><line style="stroke:#181818;stroke-width:0.5;stroke-dasharray:5.0,5.0;" x1="55" x2="55" y1="123.2422" y2="838.3828"/><line style="stroke:#181818;stroke-width:0.5;stroke-dasharray:5.0,5.0;" x1="235.9375" x2="235.9375" y1="123.2422" y2="838.3828"/><line style="stroke:#181818;stroke-width:0.5;stroke-dasharray:5.0,5.0;" x1="509.3711" x2="509.3711" y1="205.6543" y2="838.3828"/><line style="stroke:#181818;stroke-width:0.5;stroke-dasharray:5.0,5.0;" x1="824.5342" x2="824.5342" y1="299.1875" y2="838.3828"/><line style="stroke:#181818;stroke-width:0.5;stroke-dasharray:5.0,5.0;" x1="1024.9336" x2="1024.9336" y1="123.2422" y2="838.3828"/><line style="stroke:#181818;stroke-width:0.5;stroke-dasharray:5.0,5.0;" x1="1209.8223" x2="1209.8223" y1="123.2422" y2="838.3828"/><line style="stroke:#181818;stroke-width:0.5;stroke-dasharray:5.0,5.0;" x1="1363.3115" x2="1363.3115" y1="123.2422" y2="838.3828"/><line style="stroke:#181818;stroke-width:0.5;stroke-dasharray:5.0,5.0;" x1="1498.2119" x2="1498.2119" y1="123.2422" y2="838.3828"/><text fill="#000000" font-family="sans-serif" font-size="14" lengthAdjust="spacing" textLength="94.9375" x="5" y="119.7285">Show Designer</text><ellipse cx="55.4688" cy="53.1211" fill="#E2E2F0" rx="8" ry="8" style="stroke:#181818;stroke-width:0.5;"/><path d="M55.4688,61.1211 L55.4688,88.1211 M42.4688,69.1211 L68.4688,69.1211 M55.4688,88.1211 L42.4688,103.1211 M55.4688,88.1211 L68.4688,103.1211 " fill="none" style="stroke:#181818;stroke-width:0.5;"/><text fill="#000000" font-family="sans-serif" font-size="14" lengthAdjust="spacing" textLength="94.9375" x="5" y="852.4902">Show Designer</text><ellipse cx="55.4688" cy="864.5039" fill="#E2E2F0" rx="8" ry="8" style="stroke:#181818;stroke-width:0.5;"/><path d="M55.4688,872.5039 L55.4688,899.5039 M42.4688,880.5039 L68.4688,880.5039 M55.4688,899.5039 L42.4688,914.5039 M55.4688,899.5039 L68.4688,914.5039 " fill="none" style="stroke:#181818;stroke-width:0.5;"/><rect fill="#E2E2F0" height="51.2422" rx="2.5" ry="2.5" style="stroke:#181818;stroke-width:0.5;" width="240.4336" x="115.9375" y="71"/><text fill="#000000" font-family="sans-serif" font-size="14" font-style="italic" lengthAdjust="spacing" textLength="92.627" x="189.8408" y="93.1074">&#171;presentation&#187;</text><text fill="#000000" font-family="sans-serif" font-size="14" lengthAdjust="spacing" textLength="226.4336" x="122.9375" y="111.7285">ActivateDeactivateFigureCategoryUI</text><rect fill="#E2E2F0" height="51.2422" rx="2.5" ry="2.5" style="stroke:#181818;stroke-width:0.5;" width="240.4336" x="115.9375" y="837.3828"/><text fill="#000000" font-family="sans-serif" font-size="14" font-style="italic" lengthAdjust="spacing" textLength="92.627" x="189.8408" y="859.4902">&#171;presentation&#187;</text><text fill="#000000" font-family="sans-serif" font-size="14" lengthAdjust="spacing" textLength="226.4336" x="122.9375" y="878.1113">ActivateDeactivateFigureCategoryUI</text><rect fill="#E2E2F0" height="51.2422" rx="2.5" ry="2.5" style="stroke:#181818;stroke-width:0.5;" width="287.123" x="366.3711" y="837.3828"/><text fill="#000000" font-family="sans-serif" font-size="14" font-style="italic" lengthAdjust="spacing" textLength="82.5098" x="468.6777" y="859.4902">&#171;application&#187;</text><text fill="#000000" font-family="sans-serif" font-size="14" lengthAdjust="spacing" textLength="273.123" x="373.3711" y="878.1113">ActivateDeactivateFigureCategoryController</text><rect fill="#E2E2F0" height="51.2422" rx="2.5" ry="2.5" style="stroke:#181818;stroke-width:0.5;" width="142.3994" x="753.5342" y="837.3828"/><text fill="#000000" font-family="sans-serif" font-size="14" font-style="italic" lengthAdjust="spacing" textLength="42.8203" x="803.3237" y="859.4902">&#171;auth&#187;</text><text fill="#000000" font-family="sans-serif" font-size="14" lengthAdjust="spacing" textLength="128.3994" x="760.5342" y="878.1113">AuthorizationService</text><rect fill="#E2E2F0" height="51.2422" rx="2.5" ry="2.5" style="stroke:#181818;stroke-width:0.5;" width="238.8887" x="905.9336" y="71"/><text fill="#000000" font-family="sans-serif" font-size="14" font-style="italic" lengthAdjust="spacing" textLength="82.5098" x="984.123" y="93.1074">&#171;application&#187;</text><text fill="#000000" font-family="sans-serif" font-size="14" lengthAdjust="spacing" textLength="224.8887" x="912.9336" y="111.7285">FigureCategoryManagementService</text><rect fill="#E2E2F0" height="51.2422" rx="2.5" ry="2.5" style="stroke:#181818;stroke-width:0.5;" width="238.8887" x="905.9336" y="837.3828"/><text fill="#000000" font-family="sans-serif" font-size="14" font-style="italic" lengthAdjust="spacing" textLength="82.5098" x="984.123" y="859.4902">&#171;application&#187;</text><text fill="#000000" font-family="sans-serif" font-size="14" lengthAdjust="spacing" textLength="224.8887" x="912.9336" y="878.1113">FigureCategoryManagementService</text><rect fill="#E2E2F0" height="51.2422" rx="2.5" ry="2.5" style="stroke:#181818;stroke-width:0.5;" width="110.4893" x="1154.8223" y="71"/><text fill="#000000" font-family="sans-serif" font-size="14" font-style="italic" lengthAdjust="spacing" textLength="61.4893" x="1179.3223" y="93.1074">&#171;domain&#187;</text><text fill="#000000" font-family="sans-serif" font-size="14" lengthAdjust="spacing" textLength="96.4893" x="1161.8223" y="111.7285">FigureCategory</text><rect fill="#E2E2F0" height="51.2422" rx="2.5" ry="2.5" style="stroke:#181818;stroke-width:0.5;" width="110.4893" x="1154.8223" y="837.3828"/><text fill="#000000" font-family="sans-serif" font-size="14" font-style="italic" lengthAdjust="spacing" textLength="61.4893" x="1179.3223" y="859.4902">&#171;domain&#187;</text><text fill="#000000" font-family="sans-serif" font-size="14" lengthAdjust="spacing" textLength="96.4893" x="1161.8223" y="878.1113">FigureCategory</text><rect fill="#E2E2F0" height="51.2422" rx="2.5" ry="2.5" style="stroke:#181818;stroke-width:0.5;" width="177.4063" x="1275.3115" y="71"/><text fill="#000000" font-family="sans-serif" font-size="14" font-style="italic" lengthAdjust="spacing" textLength="77.041" x="1325.4941" y="93.1074">&#171;repository&#187;</text><text fill="#000000" font-family="sans-serif" font-size="14" lengthAdjust="spacing" textLength="163.4063" x="1282.3115" y="111.7285">FigureCategoryRepository</text><rect fill="#E2E2F0" height="51.2422" rx="2.5" ry="2.5" style="stroke:#181818;stroke-width:0.5;" width="177.4063" x="1275.3115" y="837.3828"/><text fill="#000000" font-family="sans-serif" font-size="14" font-style="italic" lengthAdjust="spacing" textLength="77.041" x="1325.4941" y="859.4902">&#171;repository&#187;</text><text fill="#000000" font-family="sans-serif" font-size="14" lengthAdjust="spacing" textLength="163.4063" x="1282.3115" y="878.1113">FigureCategoryRepository</text><text fill="#000000" font-family="sans-serif" font-size="14" lengthAdjust="spacing" textLength="59.9307" x="1466.2119" y="119.7285">Database</text><path d="M1481.1772,68.6211 C1481.1772,58.6211 1499.1772,58.6211 1499.1772,58.6211 C1499.1772,58.6211 1517.1772,58.6211 1517.1772,68.6211 L1517.1772,94.6211 C1517.1772,104.6211 1499.1772,104.6211 1499.1772,104.6211 C1499.1772,104.6211 1481.1772,104.6211 1481.1772,94.6211 L1481.1772,68.6211 " fill="#E2E2F0" style="stroke:#181818;stroke-width:1.5;"/><path d="M1481.1772,68.6211 C1481.1772,78.6211 1499.1772,78.6211 1499.1772,78.6211 C1499.1772,78.6211 1517.1772,78.6211 1517.1772,68.6211 " fill="none" style="stroke:#181818;stroke-width:1.5;"/><text fill="#000000" font-family="sans-serif" font-size="14" lengthAdjust="spacing" textLength="59.9307" x="1466.2119" y="852.4902">Database</text><path d="M1481.1772,866.0039 C1481.1772,856.0039 1499.1772,856.0039 1499.1772,856.0039 C1499.1772,856.0039 1517.1772,856.0039 1517.1772,866.0039 L1517.1772,892.0039 C1517.1772,902.0039 1499.1772,902.0039 1499.1772,902.0039 C1499.1772,902.0039 1481.1772,902.0039 1481.1772,892.0039 L1481.1772,866.0039 " fill="#E2E2F0" style="stroke:#181818;stroke-width:1.5;"/><path d="M1481.1772,866.0039 C1481.1772,876.0039 1499.1772,876.0039 1499.1772,876.0039 C1499.1772,876.0039 1517.1772,876.0039 1517.1772,866.0039 " fill="none" style="stroke:#181818;stroke-width:1.5;"/><rect fill="#FFFFFF" height="687.1406" style="stroke:#181818;stroke-width:1.0;" width="10" x="50.4688" y="133.2422"/><rect fill="#FFFFFF" height="388.8125" style="stroke:#181818;stroke-width:1.0;" width="10" x="231.1543" y="156.5332"/><rect fill="#FFFFFF" height="243.7461" style="stroke:#181818;stroke-width:1.0;" width="10" x="231.1543" y="576.6367"/><rect fill="#FFFFFF" height="263.9883" style="stroke:#181818;stroke-width:1.0;" width="10" x="504.9326" y="250.0664"/><rect fill="#FFFFFF" height="181.1641" style="stroke:#181818;stroke-width:1.0;" width="10" x="504.9326" y="607.9277"/><rect fill="#FFFFFF" height="139.1641" style="stroke:#181818;stroke-width:1.0;" width="10" x="1020.3779" y="343.5996"/><rect fill="#FFFFFF" height="135.873" style="stroke:#181818;stroke-width:1.0;" width="10" x="1020.3779" y="639.2188"/><rect fill="#FFFFFF" height="93.873" style="stroke:#181818;stroke-width:1.0;" width="10" x="1359.0146" y="374.8906"/><rect fill="#FFFFFF" height="59.291" style="stroke:#181818;stroke-width:1.0;" width="10" x="1359.0146" y="701.8008"/><rect fill="#FFFFFF" height="31.291" style="stroke:#181818;stroke-width:1.0;" width="10" x="1494.1772" y="406.1816"/><rect fill="#FFFFFF" height="14" style="stroke:#181818;stroke-width:1.0;" width="10" x="1494.1772" y="733.0918"/><polygon fill="#181818" points="219.1543,152.5332,229.1543,156.5332,219.1543,160.5332,223.1543,156.5332" style="stroke:#181818;stroke-width:1.0;"/><line style="stroke:#181818;stroke-width:1.0;" x1="60.4688" x2="225.1543" y1="156.5332" y2="156.5332"/><text fill="#000000" font-family="sans-serif" font-size="13" lengthAdjust="spacing" textLength="39.0063" x="67.4688" y="151.2705">show()</text><polygon fill="#181818" points="354.3711,183.8242,364.3711,187.8242,354.3711,191.8242,358.3711,187.8242" style="stroke:#181818;stroke-width:1.0;"/><line style="stroke:#181818;stroke-width:1.0;" x1="241.1543" x2="360.3711" y1="187.8242" y2="187.8242"/><text fill="#000000" font-family="sans-serif" font-size="13" lengthAdjust="spacing" textLength="44.7891" x="248.1543" y="182.5615">create()</text><rect fill="#E2E2F0" height="51.2422" rx="2.5" ry="2.5" style="stroke:#181818;stroke-width:0.5;" width="287.123" x="366.3711" y="164.5332"/><text fill="#000000" font-family="sans-serif" font-size="14" font-style="italic" lengthAdjust="spacing" textLength="82.5098" x="468.6777" y="186.6406">&#171;application&#187;</text><text fill="#000000" font-family="sans-serif" font-size="14" lengthAdjust="spacing" textLength="273.123" x="373.3711" y="205.2617">ActivateDeactivateFigureCategoryController</text><polygon fill="#181818" points="492.9326,246.0664,502.9326,250.0664,492.9326,254.0664,496.9326,250.0664" style="stroke:#181818;stroke-width:1.0;"/><line style="stroke:#181818;stroke-width:1.0;" x1="241.1543" x2="498.9326" y1="250.0664" y2="250.0664"/><text fill="#000000" font-family="sans-serif" font-size="13" lengthAdjust="spacing" textLength="87.4136" x="248.1543" y="244.8037">listCategories()</text><polygon fill="#181818" points="741.5342,277.3574,751.5342,281.3574,741.5342,285.3574,745.5342,281.3574" style="stroke:#181818;stroke-width:1.0;"/><line style="stroke:#181818;stroke-width:1.0;" x1="514.9326" x2="747.5342" y1="281.3574" y2="281.3574"/><text fill="#000000" font-family="sans-serif" font-size="13" lengthAdjust="spacing" textLength="214.6016" x="521.9326" y="276.0947">ensureAuthenticatedUserHasAnyOf()</text><rect fill="#E2E2F0" height="51.2422" rx="2.5" ry="2.5" style="stroke:#181818;stroke-width:0.5;" width="142.3994" x="753.5342" y="258.0664"/><text fill="#000000" font-family="sans-serif" font-size="14" font-style="italic" lengthAdjust="spacing" textLength="42.8203" x="803.3237" y="280.1738">&#171;auth&#187;</text><text fill="#000000" font-family="sans-serif" font-size="14" lengthAdjust="spacing" textLength="128.3994" x="760.5342" y="298.7949">AuthorizationService</text><polygon fill="#181818" points="1008.3779,339.5996,1018.3779,343.5996,1008.3779,347.5996,1012.3779,343.5996" style="stroke:#181818;stroke-width:1.0;"/><line style="stroke:#181818;stroke-width:1.0;" x1="514.9326" x2="1014.3779" y1="343.5996" y2="343.5996"/><text fill="#000000" font-family="sans-serif" font-size="13" lengthAdjust="spacing" textLength="87.4136" x="521.9326" y="338.3369">listCategories()</text><polygon fill="#181818" points="1347.0146,370.8906,1357.0146,374.8906,1347.0146,378.8906,1351.0146,374.8906" style="stroke:#181818;stroke-width:1.0;"/><line style="stroke:#181818;stroke-width:1.0;" x1="1030.3779" x2="1353.0146" y1="374.8906" y2="374.8906"/><text fill="#000000" font-family="sans-serif" font-size="13" lengthAdjust="spacing" textLength="44.0654" x="1037.3779" y="369.6279">findAll()</text><polygon fill="#181818" points="1482.1772,402.1816,1492.1772,406.1816,1482.1772,410.1816,1486.1772,406.1816" style="stroke:#181818;stroke-width:1.0;"/><line style="stroke:#181818;stroke-width:1.0;" x1="1369.0146" x2="1488.1772" y1="406.1816" y2="406.1816"/><text fill="#000000" font-family="sans-serif" font-size="13" lengthAdjust="spacing" textLength="44.0654" x="1376.0146" y="400.9189">findAll()</text><polygon fill="#181818" points="1380.0146,433.4727,1370.0146,437.4727,1380.0146,441.4727,1376.0146,437.4727" style="stroke:#181818;stroke-width:1.0;"/><line style="stroke:#181818;stroke-width:1.0;stroke-dasharray:2.0,2.0;" x1="1374.0146" x2="1498.1772" y1="437.4727" y2="437.4727"/><text fill="#000000" font-family="sans-serif" font-size="13" lengthAdjust="spacing" textLength="101.1626" x="1386.0146" y="432.21">List of Categories</text><polygon fill="#181818" points="1041.3779,464.7637,1031.3779,468.7637,1041.3779,472.7637,1037.3779,468.7637" style="stroke:#181818;stroke-width:1.0;"/><line style="stroke:#181818;stroke-width:1.0;" x1="1035.3779" x2="1363.0146" y1="468.7637" y2="468.7637"/><text fill="#000000" font-family="sans-serif" font-size="13" lengthAdjust="spacing" textLength="101.1626" x="1047.3779" y="463.501">List of Categories</text><polygon fill="#181818" points="525.9326,478.7637,515.9326,482.7637,525.9326,486.7637,521.9326,482.7637" style="stroke:#181818;stroke-width:1.0;"/><line style="stroke:#181818;stroke-width:1.0;" x1="519.9326" x2="1024.3779" y1="482.7637" y2="482.7637"/><polygon fill="#181818" points="252.1543,510.0547,242.1543,514.0547,252.1543,518.0547,248.1543,514.0547" style="stroke:#181818;stroke-width:1.0;"/><line style="stroke:#181818;stroke-width:1.0;stroke-dasharray:2.0,2.0;" x1="246.1543" x2="508.9326" y1="514.0547" y2="514.0547"/><text fill="#000000" font-family="sans-serif" font-size="13" lengthAdjust="spacing" textLength="101.1626" x="258.1543" y="508.792">List of Categories</text><polygon fill="#181818" points="71.4688,541.3457,61.4688,545.3457,71.4688,549.3457,67.4688,545.3457" style="stroke:#181818;stroke-width:1.0;"/><line style="stroke:#181818;stroke-width:1.0;stroke-dasharray:2.0,2.0;" x1="65.4688" x2="235.1543" y1="545.3457" y2="545.3457"/><text fill="#000000" font-family="sans-serif" font-size="13" lengthAdjust="spacing" textLength="137.2935" x="77.4688" y="540.083">Show List of Categories</text><polygon fill="#181818" points="219.1543,572.6367,229.1543,576.6367,219.1543,580.6367,223.1543,576.6367" style="stroke:#181818;stroke-width:1.0;"/><line style="stroke:#181818;stroke-width:1.0;" x1="60.4688" x2="225.1543" y1="576.6367" y2="576.6367"/><text fill="#000000" font-family="sans-serif" font-size="13" lengthAdjust="spacing" textLength="101.1689" x="67.4688" y="571.374">Choose Category</text><polygon fill="#181818" points="492.9326,603.9277,502.9326,607.9277,492.9326,611.9277,496.9326,607.9277" style="stroke:#181818;stroke-width:1.0;"/><line style="stroke:#181818;stroke-width:1.0;" x1="241.1543" x2="498.9326" y1="607.9277" y2="607.9277"/><text fill="#000000" font-family="sans-serif" font-size="13" lengthAdjust="spacing" textLength="140.9116" x="248.1543" y="602.665">changeStatus(Category)</text><polygon fill="#181818" points="1008.3779,635.2188,1018.3779,639.2188,1008.3779,643.2188,1012.3779,639.2188" style="stroke:#181818;stroke-width:1.0;"/><line style="stroke:#181818;stroke-width:1.0;" x1="514.9326" x2="1014.3779" y1="639.2188" y2="639.2188"/><text fill="#000000" font-family="sans-serif" font-size="13" lengthAdjust="spacing" textLength="140.9116" x="521.9326" y="633.9561">changeStatus(Category)</text><polygon fill="#181818" points="1198.0669,666.5098,1208.0669,670.5098,1198.0669,674.5098,1202.0669,670.5098" style="stroke:#181818;stroke-width:1.0;"/><line style="stroke:#181818;stroke-width:1.0;" x1="1030.3779" x2="1204.0669" y1="670.5098" y2="670.5098"/><text fill="#000000" font-family="sans-serif" font-size="13" lengthAdjust="spacing" textLength="140.9116" x="1037.3779" y="665.2471">changeStatus(Category)</text><polygon fill="#181818" points="1347.0146,697.8008,1357.0146,701.8008,1347.0146,705.8008,1351.0146,701.8008" style="stroke:#181818;stroke-width:1.0;"/><line style="stroke:#181818;stroke-width:1.0;" x1="1030.3779" x2="1353.0146" y1="701.8008" y2="701.8008"/><text fill="#000000" font-family="sans-serif" font-size="13" lengthAdjust="spacing" textLength="36.1182" x="1037.3779" y="696.5381">save()</text><polygon fill="#181818" points="1482.1772,729.0918,1492.1772,733.0918,1482.1772,737.0918,1486.1772,733.0918" style="stroke:#181818;stroke-width:1.0;"/><line style="stroke:#181818;stroke-width:1.0;" x1="1369.0146" x2="1488.1772" y1="733.0918" y2="733.0918"/><text fill="#000000" font-family="sans-serif" font-size="13" lengthAdjust="spacing" textLength="36.1182" x="1376.0146" y="727.8291">save()</text><polygon fill="#181818" points="1380.0146,743.0918,1370.0146,747.0918,1380.0146,751.0918,1376.0146,747.0918" style="stroke:#181818;stroke-width:1.0;"/><line style="stroke:#181818;stroke-width:1.0;stroke-dasharray:2.0,2.0;" x1="1374.0146" x2="1498.1772" y1="747.0918" y2="747.0918"/><polygon fill="#181818" points="1041.3779,757.0918,1031.3779,761.0918,1041.3779,765.0918,1037.3779,761.0918" style="stroke:#181818;stroke-width:1.0;"/><line style="stroke:#181818;stroke-width:1.0;" x1="1035.3779" x2="1363.0146" y1="761.0918" y2="761.0918"/><polygon fill="#181818" points="525.9326,771.0918,515.9326,775.0918,525.9326,779.0918,521.9326,775.0918" style="stroke:#181818;stroke-width:1.0;"/><line style="stroke:#181818;stroke-width:1.0;stroke-dasharray:2.0,2.0;" x1="519.9326" x2="1024.3779" y1="775.0918" y2="775.0918"/><polygon fill="#181818" points="252.1543,785.0918,242.1543,789.0918,252.1543,793.0918,248.1543,789.0918" style="stroke:#181818;stroke-width:1.0;"/><line style="stroke:#181818;stroke-width:1.0;stroke-dasharray:2.0,2.0;" x1="246.1543" x2="508.9326" y1="789.0918" y2="789.0918"/><polygon fill="#181818" points="66.4688,816.3828,56.4688,820.3828,66.4688,824.3828,62.4688,820.3828" style="stroke:#181818;stroke-width:1.0;"/><line style="stroke:#181818;stroke-width:1.0;stroke-dasharray:2.0,2.0;" x1="60.4688" x2="235.1543" y1="820.3828" y2="820.3828"/><text fill="#000000" font-family="sans-serif" font-size="13" lengthAdjust="spacing" textLength="145.2344" x="72.4688" y="815.1201">Inform operation success</text><!--SRC=[fLRRZfim47ttLupobAwqFu1MaQ94LIErghHHFi252R54R6gRhBPVtp4BmO2v9Nu1CpDdZfcP0rRO3E68VmkKCS9Uy5JpAsCyjah3wdXH7x178rA9UWNSmDOPMCwr5R78kRImeaVYnYtkaLTttqLQQDpHNQhqv-bGHfuEyFQMQpGeBRT2oSrc6SvEIQjLbbLCcYtXyZpFH1o6BUn5QV6lD1vHtqICNqS961mKFUvYj8dyufAdUALp-70JFkCasy41F0fFr9MBYSXtp9KHDepH60bDtpU4o5Z2BV_33S9gNzsL0FMcx8Yo9bK7iF82hnkgQmI6-cJzZG6jkz_fm1ZLd3oQIhsyG0InHhAJkrjTZmWoOMp5MA3feZQUh3IuvNK2OONAMkP5QUXbE3DLnTK1avD1_OERhVpyVNQ4meWJbHsWNAyxzGaOrefoQwgZUjIy0aTm5ZBPPbc7pGYZ9hfFfK_7oqKywZw9O2HlAtVJMJ2mQWzu7Jbe13_fvOCwGrE086A2_THBJpdP23EuU3m6N__oHl36ObQoaUxpUxyQxu5ZUUZ-MBgHTdFe12A2yXCI0F22dLAqv6HtKOhgNfDbhAyiDTkkVZXzkN2Puf4-CeLPrnW3CncIauT4O5xUvpNXOMrOHl1v-J7yXkjXy0SrQ84EpIKmBKIpnMWGOQxuF2b0KyAtYFTa-LjpjoprZ4RloT2Gi0Ku-0f4hNYGPwMle7BKvKy1c2AEqJJQtD4YNvk-_dR-0m00]--></g></svg>