<svg xmlns="http://www.w3.org/2000/svg" xmlns:xlink="http://www.w3.org/1999/xlink" contentStyleType="text/css" height="441px" preserveAspectRatio="none" style="width:571px;height:441px;background:#FFFFFF;" version="1.1" viewBox="0 0 571 441" width="571px" zoomAndPan="magnify"><title>System Sequence Diagram - US248</title><defs/><g><text fill="#000000" font-family="sans-serif" font-size="14" font-weight="bold" lengthAdjust="spacing" textLength="234.9922" x="164.4939" y="30.1074">System Sequence Diagram - US248</text><rect fill="#FFFFFF" height="215.7461" style="stroke:#181818;stroke-width:1.0;" width="10" x="50.4688" y="133.2422"/><rect fill="#FFFFFF" height="31.291" style="stroke:#181818;stroke-width:1.0;" width="10" x="356.1611" y="201.8242"/><rect fill="#FFFFFF" height="75.582" style="stroke:#181818;stroke-width:1.0;" width="10" x="356.1611" y="264.4063"/><line style="stroke:#181818;stroke-width:0.5;stroke-dasharray:5.0,5.0;" x1="55" x2="55" y1="123.2422" y2="357.9883"/><line style="stroke:#181818;stroke-width:0.5;stroke-dasharray:5.0,5.0;" x1="360.8232" x2="360.8232" y1="123.2422" y2="357.9883"/><text fill="#000000" font-family="sans-serif" font-size="14" lengthAdjust="spacing" textLength="94.9375" x="5" y="119.7285">Show Designer</text><ellipse cx="55.4688" cy="53.1211" fill="#E3E3E3" rx="8" ry="8" style="stroke:#181818;stroke-width:0.5;"/><path d="M55.4688,61.1211 L55.4688,88.1211 M42.4688,69.1211 L68.4688,69.1211 M55.4688,88.1211 L42.4688,103.1211 M55.4688,88.1211 L68.4688,103.1211 " fill="none" style="stroke:#181818;stroke-width:0.5;"/><text fill="#000000" font-family="sans-serif" font-size="14" lengthAdjust="spacing" textLength="94.9375" x="5" y="372.0957">Show Designer</text><ellipse cx="55.4688" cy="384.1094" fill="#E3E3E3" rx="8" ry="8" style="stroke:#181818;stroke-width:0.5;"/><path d="M55.4688,392.1094 L55.4688,419.1094 M42.4688,400.1094 L68.4688,400.1094 M55.4688,419.1094 L42.4688,434.1094 M55.4688,419.1094 L68.4688,434.1094 " fill="none" style="stroke:#181818;stroke-width:0.5;"/><rect fill="#E3E3E3" height="32.6211" rx="2.5" ry="2.5" style="stroke:#181818;stroke-width:0.5;" width="60.6758" x="330.8232" y="89.6211"/><text fill="#000000" font-family="sans-serif" font-size="14" lengthAdjust="spacing" textLength="46.6758" x="337.8232" y="111.7285">System</text><rect fill="#E3E3E3" height="32.6211" rx="2.5" ry="2.5" style="stroke:#181818;stroke-width:0.5;" width="60.6758" x="330.8232" y="356.9883"/><text fill="#000000" font-family="sans-serif" font-size="14" lengthAdjust="spacing" textLength="46.6758" x="337.8232" y="379.0957">System</text><rect fill="#FFFFFF" height="215.7461" style="stroke:#181818;stroke-width:1.0;" width="10" x="50.4688" y="133.2422"/><rect fill="#FFFFFF" height="31.291" style="stroke:#181818;stroke-width:1.0;" width="10" x="356.1611" y="201.8242"/><rect fill="#FFFFFF" height="75.582" style="stroke:#181818;stroke-width:1.0;" width="10" x="356.1611" y="264.4063"/><rect fill="#EEEEEE" height="3" style="stroke:#EEEEEE;stroke-width:1.0;" width="564.98" x="0" y="154.8877"/><line style="stroke:#000000;stroke-width:1.0;" x1="0" x2="564.98" y1="154.8877" y2="154.8877"/><line style="stroke:#000000;stroke-width:1.0;" x1="0" x2="564.98" y1="157.8877" y2="157.8877"/><rect fill="#EEEEEE" height="25.291" style="stroke:#000000;stroke-width:2.0;" width="237.9644" x="163.5078" y="143.2422"/><text fill="#000000" font-family="sans-serif" font-size="13" font-weight="bold" lengthAdjust="spacing" textLength="216.7407" x="169.5078" y="161.2705">Inactive/Activate a Figure Category</text><polygon fill="#181818" points="344.1611,197.8242,354.1611,201.8242,344.1611,205.8242,348.1611,201.8242" style="stroke:#181818;stroke-width:1.0;"/><line style="stroke:#181818;stroke-width:1.0;" x1="60.4688" x2="350.1611" y1="201.8242" y2="201.8242"/><text fill="#000000" font-family="sans-serif" font-size="13" lengthAdjust="spacing" textLength="182.0952" x="67.4688" y="196.5615">Request list of figure categories</text><polygon fill="#181818" points="71.4688,229.1152,61.4688,233.1152,71.4688,237.1152,67.4688,233.1152" style="stroke:#181818;stroke-width:1.0;"/><line style="stroke:#181818;stroke-width:1.0;" x1="65.4688" x2="360.1611" y1="233.1152" y2="233.1152"/><text fill="#000000" font-family="sans-serif" font-size="13" lengthAdjust="spacing" textLength="271.6924" x="77.4688" y="227.8525">Returns list of figure categories and their status</text><polygon fill="#181818" points="344.1611,260.4063,354.1611,264.4063,344.1611,268.4063,348.1611,264.4063" style="stroke:#181818;stroke-width:1.0;"/><line style="stroke:#181818;stroke-width:1.0;" x1="60.4688" x2="350.1611" y1="264.4063" y2="264.4063"/><text fill="#000000" font-family="sans-serif" font-size="13" lengthAdjust="spacing" textLength="274.606" x="67.4688" y="259.1436">Request to activate/deactivate a figure category</text><line style="stroke:#181818;stroke-width:1.0;" x1="366.1611" x2="408.1611" y1="295.6973" y2="295.6973"/><line style="stroke:#181818;stroke-width:1.0;" x1="408.1611" x2="408.1611" y1="295.6973" y2="308.6973"/><line style="stroke:#181818;stroke-width:1.0;" x1="367.1611" x2="408.1611" y1="308.6973" y2="308.6973"/><polygon fill="#181818" points="377.1611,304.6973,367.1611,308.6973,377.1611,312.6973,373.1611,308.6973" style="stroke:#181818;stroke-width:1.0;"/><text fill="#000000" font-family="sans-serif" font-size="13" lengthAdjust="spacing" textLength="169.8188" x="373.1611" y="290.4346">Update figure category status</text><polygon fill="#181818" points="71.4688,335.9883,61.4688,339.9883,71.4688,343.9883,67.4688,339.9883" style="stroke:#181818;stroke-width:1.0;"/><line style="stroke:#181818;stroke-width:1.0;" x1="65.4688" x2="360.1611" y1="339.9883" y2="339.9883"/><text fill="#000000" font-family="sans-serif" font-size="13" lengthAdjust="spacing" textLength="224.0088" x="77.4688" y="334.7256">Confirm figure category status updated</text><!--SRC=[XO_DQiCm48Jl-nHBxY5GUYW55qf2eTUQFC0Yh-KbjkHAwng_VUNOBcvIqul-TkQRKRo8QobGWurttbJ1DumQEeRuCsd9NCXohaFD6DWeELkl1R6YmlVYB9PKHmOWepxWBgzyZoUEOXs77L9CIjyl3v3CAaPQSfgqGrHk9j7r2A2YAN0QOCwV7Jl3U1AoO-WUp_d3unD0bk6xIudonOVNSIDb97mJsmN6OxfP7mR4B0DQnhzwmFg6-vUv03xZnnWQ5Mj9Yo-nd9XcOWh75N4kFNj7ofewihGBBcwpa5o1Mh44Z4hQHIZu7lzVLVMuc0uhFzta3NVDLyKNvhajHi6DSsct-TEZTwM4PiE7tPLQ_FKxW6y0]--></g></svg>