<svg xmlns="http://www.w3.org/2000/svg" xmlns:xlink="http://www.w3.org/1999/xlink" contentStyleType="text/css" height="1644px" preserveAspectRatio="none" style="width:2938px;height:1644px;background:#FFFFFF;" version="1.1" viewBox="0 0 2938 1644" width="2938px" zoomAndPan="magnify"><title>Sequence Diagram - US230</title><defs/><g><text fill="#000000" font-family="sans-serif" font-size="14" font-weight="bold" lengthAdjust="spacing" textLength="181.2959" x="1379.4075" y="30.1074">Sequence Diagram - US230</text><rect fill="#FFFFFF" height="1418.7852" style="stroke:#181818;stroke-width:1.0;" width="10" x="59.0171" y="133.2422"/><rect fill="#FFFFFF" height="93.5332" style="stroke:#181818;stroke-width:1.0;" width="10" x="390.8003" y="156.5332"/><rect fill="#FFFFFF" height="468.6855" style="stroke:#181818;stroke-width:1.0;" width="10" x="557.2271" y="250.0664"/><rect fill="#FFFFFF" height="406.7832" style="stroke:#181818;stroke-width:1.0;" width="10" x="557.2271" y="750.043"/><rect fill="#FFFFFF" height="31.291" style="stroke:#181818;stroke-width:1.0;" width="10" x="557.2271" y="1188.1172"/><rect fill="#FFFFFF" height="292.3281" style="stroke:#181818;stroke-width:1.0;" width="10" x="557.2271" y="1250.6992"/><rect fill="#FFFFFF" height="343.8613" style="stroke:#181818;stroke-width:1.0;" width="10" x="863.7021" y="343.5996"/><rect fill="#FFFFFF" height="344.2012" style="stroke:#181818;stroke-width:1.0;" width="10" x="863.7021" y="781.334"/><rect fill="#FFFFFF" height="229.7461" style="stroke:#181818;stroke-width:1.0;" width="10" x="863.7021" y="1281.9902"/><rect fill="#FFFFFF" height="156.4551" style="stroke:#181818;stroke-width:1.0;" width="10" x="1541.8413" y="437.1328"/><rect fill="#FFFFFF" height="156.4551" style="stroke:#181818;stroke-width:1.0;" width="10" x="1769.7197" y="875.207"/><rect fill="#FFFFFF" height="31.291" style="stroke:#181818;stroke-width:1.0;" width="10" x="1968.7915" y="624.8789"/><rect fill="#FFFFFF" height="31.291" style="stroke:#181818;stroke-width:1.0;" width="10" x="1968.7915" y="812.625"/><rect fill="#FFFFFF" height="31.291" style="stroke:#181818;stroke-width:1.0;" width="10" x="2139.0566" y="1062.9531"/><rect fill="#FFFFFF" height="31.291" style="stroke:#181818;stroke-width:1.0;" width="10" x="2139.0566" y="1313.2813"/><rect fill="#FFFFFF" height="31.291" style="stroke:#181818;stroke-width:1.0;" width="10" x="2288.7251" y="1375.8633"/><rect fill="#FFFFFF" height="93.873" style="stroke:#181818;stroke-width:1.0;" width="10" x="2421.6626" y="468.4238"/><rect fill="#FFFFFF" height="93.873" style="stroke:#181818;stroke-width:1.0;" width="10" x="2588.0586" y="906.498"/><rect fill="#FFFFFF" height="59.291" style="stroke:#181818;stroke-width:1.0;" width="10" x="2588.0586" y="1438.4453"/><rect fill="#FFFFFF" height="31.291" style="stroke:#181818;stroke-width:1.0;" width="10" x="2898.1455" y="499.7148"/><rect fill="#FFFFFF" height="31.291" style="stroke:#181818;stroke-width:1.0;" width="10" x="2898.1455" y="937.7891"/><rect fill="#FFFFFF" height="14" style="stroke:#181818;stroke-width:1.0;" width="10" x="2898.1455" y="1469.7363"/><line style="stroke:#181818;stroke-width:0.5;stroke-dasharray:5.0,5.0;" x1="64" x2="64" y1="123.2422" y2="1561.0273"/><line style="stroke:#181818;stroke-width:0.5;stroke-dasharray:5.0,5.0;" x1="395.3594" x2="395.3594" y1="123.2422" y2="1561.0273"/><line style="stroke:#181818;stroke-width:0.5;stroke-dasharray:5.0,5.0;" x1="561.2412" x2="561.2412" y1="205.6543" y2="1561.0273"/><line style="stroke:#181818;stroke-width:0.5;stroke-dasharray:5.0,5.0;" x1="867.999" x2="867.999" y1="299.1875" y2="1561.0273"/><line style="stroke:#181818;stroke-width:0.5;stroke-dasharray:5.0,5.0;" x1="1363.9009" x2="1363.9009" y1="392.7207" y2="1561.0273"/><line style="stroke:#181818;stroke-width:0.5;stroke-dasharray:5.0,5.0;" x1="1546.3003" x2="1546.3003" y1="123.2422" y2="1561.0273"/><line style="stroke:#181818;stroke-width:0.5;stroke-dasharray:5.0,5.0;" x1="1774.3823" x2="1774.3823" y1="123.2422" y2="1561.0273"/><line style="stroke:#181818;stroke-width:0.5;stroke-dasharray:5.0,5.0;" x1="1973.0571" x2="1973.0571" y1="123.2422" y2="1561.0273"/><line style="stroke:#181818;stroke-width:0.5;stroke-dasharray:5.0,5.0;" x1="2143.5259" x2="2143.5259" y1="123.2422" y2="1561.0273"/><line style="stroke:#181818;stroke-width:0.5;stroke-dasharray:5.0,5.0;" x1="2293.5874" x2="2293.5874" y1="123.2422" y2="1561.0273"/><line style="stroke:#181818;stroke-width:0.5;stroke-dasharray:5.0,5.0;" x1="2425.8628" x2="2425.8628" y1="123.2422" y2="1561.0273"/><line style="stroke:#181818;stroke-width:0.5;stroke-dasharray:5.0,5.0;" x1="2592.4624" x2="2592.4624" y1="123.2422" y2="1561.0273"/><line style="stroke:#181818;stroke-width:0.5;stroke-dasharray:5.0,5.0;" x1="2902.1802" x2="2902.1802" y1="123.2422" y2="1561.0273"/><text fill="#000000" font-family="sans-serif" font-size="14" lengthAdjust="spacing" textLength="112.0342" x="5" y="119.7285">CRM Collaborator</text><ellipse cx="64.0171" cy="53.1211" fill="#E3E3E3" rx="8" ry="8" style="stroke:#181818;stroke-width:0.5;"/><path d="M64.0171,61.1211 L64.0171,88.1211 M51.0171,69.1211 L77.0171,69.1211 M64.0171,88.1211 L51.0171,103.1211 M64.0171,88.1211 L77.0171,103.1211 " fill="none" style="stroke:#181818;stroke-width:0.5;"/><text fill="#000000" font-family="sans-serif" font-size="14" lengthAdjust="spacing" textLength="112.0342" x="5" y="1575.1348">CRM Collaborator</text><ellipse cx="64.0171" cy="1587.1484" fill="#E3E3E3" rx="8" ry="8" style="stroke:#181818;stroke-width:0.5;"/><path d="M64.0171,1595.1484 L64.0171,1622.1484 M51.0171,1603.1484 L77.0171,1603.1484 M64.0171,1622.1484 L51.0171,1637.1484 M64.0171,1622.1484 L77.0171,1637.1484 " fill="none" style="stroke:#181818;stroke-width:0.5;"/><rect fill="#E3E3E3" height="51.2422" rx="2.5" ry="2.5" style="stroke:#181818;stroke-width:0.5;" width="168.8818" x="311.3594" y="71"/><text fill="#000000" font-family="sans-serif" font-size="14" font-style="italic" lengthAdjust="spacing" textLength="92.627" x="349.4868" y="93.1074">&#171;presentation&#187;</text><text fill="#000000" font-family="sans-serif" font-size="14" lengthAdjust="spacing" textLength="154.8818" x="318.3594" y="111.7285">AddVideoProposalAction</text><rect fill="#E3E3E3" height="51.2422" rx="2.5" ry="2.5" style="stroke:#181818;stroke-width:0.5;" width="168.8818" x="311.3594" y="1560.0273"/><text fill="#000000" font-family="sans-serif" font-size="14" font-style="italic" lengthAdjust="spacing" textLength="92.627" x="349.4868" y="1582.1348">&#171;presentation&#187;</text><text fill="#000000" font-family="sans-serif" font-size="14" lengthAdjust="spacing" textLength="154.8818" x="318.3594" y="1600.7559">AddVideoProposalAction</text><rect fill="#E3E3E3" height="51.2422" rx="2.5" ry="2.5" style="stroke:#181818;stroke-width:0.5;" width="143.9717" x="490.2412" y="1560.0273"/><text fill="#000000" font-family="sans-serif" font-size="14" font-style="italic" lengthAdjust="spacing" textLength="92.627" x="515.9136" y="1582.1348">&#171;presentation&#187;</text><text fill="#000000" font-family="sans-serif" font-size="14" lengthAdjust="spacing" textLength="129.9717" x="497.2412" y="1600.7559">AddVideoProposalUI</text><rect fill="#E3E3E3" height="51.2422" rx="2.5" ry="2.5" style="stroke:#181818;stroke-width:0.5;" width="135.4063" x="800.999" y="1560.0273"/><text fill="#000000" font-family="sans-serif" font-size="14" font-style="italic" lengthAdjust="spacing" textLength="82.5098" x="827.4473" y="1582.1348">&#171;application&#187;</text><text fill="#000000" font-family="sans-serif" font-size="14" lengthAdjust="spacing" textLength="121.4063" x="807.999" y="1600.7559">AddVideoController</text><rect fill="#E3E3E3" height="51.2422" rx="2.5" ry="2.5" style="stroke:#181818;stroke-width:0.5;" width="142.3994" x="1292.9009" y="1560.0273"/><text fill="#000000" font-family="sans-serif" font-size="14" font-style="italic" lengthAdjust="spacing" textLength="42.8203" x="1342.6904" y="1582.1348">&#171;auth&#187;</text><text fill="#000000" font-family="sans-serif" font-size="14" lengthAdjust="spacing" textLength="128.3994" x="1299.9009" y="1600.7559">AuthorizationService</text><rect fill="#E3E3E3" height="51.2422" rx="2.5" ry="2.5" style="stroke:#181818;stroke-width:0.5;" width="203.082" x="1445.3003" y="71"/><text fill="#000000" font-family="sans-serif" font-size="14" font-style="italic" lengthAdjust="spacing" textLength="82.5098" x="1505.5864" y="93.1074">&#171;application&#187;</text><text fill="#000000" font-family="sans-serif" font-size="14" lengthAdjust="spacing" textLength="189.082" x="1452.3003" y="111.7285">CustomerManagementService</text><rect fill="#E3E3E3" height="51.2422" rx="2.5" ry="2.5" style="stroke:#181818;stroke-width:0.5;" width="203.082" x="1445.3003" y="1560.0273"/><text fill="#000000" font-family="sans-serif" font-size="14" font-style="italic" lengthAdjust="spacing" textLength="82.5098" x="1505.5864" y="1582.1348">&#171;application&#187;</text><text fill="#000000" font-family="sans-serif" font-size="14" lengthAdjust="spacing" textLength="189.082" x="1452.3003" y="1600.7559">CustomerManagementService</text><rect fill="#E3E3E3" height="51.2422" rx="2.5" ry="2.5" style="stroke:#181818;stroke-width:0.5;" width="232.6748" x="1658.3823" y="71"/><text fill="#000000" font-family="sans-serif" font-size="14" font-style="italic" lengthAdjust="spacing" textLength="82.5098" x="1733.4648" y="93.1074">&#171;application&#187;</text><text fill="#000000" font-family="sans-serif" font-size="14" lengthAdjust="spacing" textLength="218.6748" x="1665.3823" y="111.7285">ShowProposalManagementService</text><rect fill="#E3E3E3" height="51.2422" rx="2.5" ry="2.5" style="stroke:#181818;stroke-width:0.5;" width="232.6748" x="1658.3823" y="1560.0273"/><text fill="#000000" font-family="sans-serif" font-size="14" font-style="italic" lengthAdjust="spacing" textLength="82.5098" x="1733.4648" y="1582.1348">&#171;application&#187;</text><text fill="#000000" font-family="sans-serif" font-size="14" lengthAdjust="spacing" textLength="218.6748" x="1665.3823" y="1600.7559">ShowProposalManagementService</text><rect fill="#E3E3E3" height="51.2422" rx="2.5" ry="2.5" style="stroke:#181818;stroke-width:0.5;" width="145.4688" x="1901.0571" y="71"/><text fill="#000000" font-family="sans-serif" font-size="14" font-style="italic" lengthAdjust="spacing" textLength="35.0342" x="1956.2744" y="93.1074">&#171;dto&#187;</text><text fill="#000000" font-family="sans-serif" font-size="14" lengthAdjust="spacing" textLength="131.4688" x="1908.0571" y="111.7285">CustomerDTOParser</text><rect fill="#E3E3E3" height="51.2422" rx="2.5" ry="2.5" style="stroke:#181818;stroke-width:0.5;" width="145.4688" x="1901.0571" y="1560.0273"/><text fill="#000000" font-family="sans-serif" font-size="14" font-style="italic" lengthAdjust="spacing" textLength="35.0342" x="1956.2744" y="1582.1348">&#171;dto&#187;</text><text fill="#000000" font-family="sans-serif" font-size="14" lengthAdjust="spacing" textLength="131.4688" x="1908.0571" y="1600.7559">CustomerDTOParser</text><rect fill="#E3E3E3" height="51.2422" rx="2.5" ry="2.5" style="stroke:#181818;stroke-width:0.5;" width="175.0615" x="2056.5259" y="71"/><text fill="#000000" font-family="sans-serif" font-size="14" font-style="italic" lengthAdjust="spacing" textLength="35.0342" x="2126.5396" y="93.1074">&#171;dto&#187;</text><text fill="#000000" font-family="sans-serif" font-size="14" lengthAdjust="spacing" textLength="161.0615" x="2063.5259" y="111.7285">ShowProposalDTOParser</text><rect fill="#E3E3E3" height="51.2422" rx="2.5" ry="2.5" style="stroke:#181818;stroke-width:0.5;" width="175.0615" x="2056.5259" y="1560.0273"/><text fill="#000000" font-family="sans-serif" font-size="14" font-style="italic" lengthAdjust="spacing" textLength="35.0342" x="2126.5396" y="1582.1348">&#171;dto&#187;</text><text fill="#000000" font-family="sans-serif" font-size="14" lengthAdjust="spacing" textLength="161.0615" x="2063.5259" y="1600.7559">ShowProposalDTOParser</text><rect fill="#E3E3E3" height="51.2422" rx="2.5" ry="2.5" style="stroke:#181818;stroke-width:0.5;" width="104.2754" x="2241.5874" y="71"/><text fill="#000000" font-family="sans-serif" font-size="14" font-style="italic" lengthAdjust="spacing" textLength="61.4893" x="2262.9805" y="93.1074">&#171;domain&#187;</text><text fill="#000000" font-family="sans-serif" font-size="14" lengthAdjust="spacing" textLength="90.2754" x="2248.5874" y="111.7285">ShowProposal</text><rect fill="#E3E3E3" height="51.2422" rx="2.5" ry="2.5" style="stroke:#181818;stroke-width:0.5;" width="104.2754" x="2241.5874" y="1560.0273"/><text fill="#000000" font-family="sans-serif" font-size="14" font-style="italic" lengthAdjust="spacing" textLength="61.4893" x="2262.9805" y="1582.1348">&#171;domain&#187;</text><text fill="#000000" font-family="sans-serif" font-size="14" lengthAdjust="spacing" textLength="90.2754" x="2248.5874" y="1600.7559">ShowProposal</text><rect fill="#E3E3E3" height="51.2422" rx="2.5" ry="2.5" style="stroke:#181818;stroke-width:0.5;" width="141.5996" x="2355.8628" y="71"/><text fill="#000000" font-family="sans-serif" font-size="14" font-style="italic" lengthAdjust="spacing" textLength="77.041" x="2388.1421" y="93.1074">&#171;repository&#187;</text><text fill="#000000" font-family="sans-serif" font-size="14" lengthAdjust="spacing" textLength="127.5996" x="2362.8628" y="111.7285">CustomerRepository</text><rect fill="#E3E3E3" height="51.2422" rx="2.5" ry="2.5" style="stroke:#181818;stroke-width:0.5;" width="141.5996" x="2355.8628" y="1560.0273"/><text fill="#000000" font-family="sans-serif" font-size="14" font-style="italic" lengthAdjust="spacing" textLength="77.041" x="2388.1421" y="1582.1348">&#171;repository&#187;</text><text fill="#000000" font-family="sans-serif" font-size="14" lengthAdjust="spacing" textLength="127.5996" x="2362.8628" y="1600.7559">CustomerRepository</text><rect fill="#E3E3E3" height="51.2422" rx="2.5" ry="2.5" style="stroke:#181818;stroke-width:0.5;" width="171.1924" x="2507.4624" y="71"/><text fill="#000000" font-family="sans-serif" font-size="14" font-style="italic" lengthAdjust="spacing" textLength="77.041" x="2554.5381" y="93.1074">&#171;repository&#187;</text><text fill="#000000" font-family="sans-serif" font-size="14" lengthAdjust="spacing" textLength="157.1924" x="2514.4624" y="111.7285">ShowProposalRepository</text><rect fill="#E3E3E3" height="51.2422" rx="2.5" ry="2.5" style="stroke:#181818;stroke-width:0.5;" width="171.1924" x="2507.4624" y="1560.0273"/><text fill="#000000" font-family="sans-serif" font-size="14" font-style="italic" lengthAdjust="spacing" textLength="77.041" x="2554.5381" y="1582.1348">&#171;repository&#187;</text><text fill="#000000" font-family="sans-serif" font-size="14" lengthAdjust="spacing" textLength="157.1924" x="2514.4624" y="1600.7559">ShowProposalRepository</text><text fill="#000000" font-family="sans-serif" font-size="14" lengthAdjust="spacing" textLength="59.9307" x="2870.1802" y="119.7285">Database</text><path d="M2885.1455,68.6211 C2885.1455,58.6211 2903.1455,58.6211 2903.1455,58.6211 C2903.1455,58.6211 2921.1455,58.6211 2921.1455,68.6211 L2921.1455,94.6211 C2921.1455,104.6211 2903.1455,104.6211 2903.1455,104.6211 C2903.1455,104.6211 2885.1455,104.6211 2885.1455,94.6211 L2885.1455,68.6211 " fill="#E3E3E3" style="stroke:#181818;stroke-width:1.5;"/><path d="M2885.1455,68.6211 C2885.1455,78.6211 2903.1455,78.6211 2903.1455,78.6211 C2903.1455,78.6211 2921.1455,78.6211 2921.1455,68.6211 " fill="none" style="stroke:#181818;stroke-width:1.5;"/><text fill="#000000" font-family="sans-serif" font-size="14" lengthAdjust="spacing" textLength="59.9307" x="2870.1802" y="1575.1348">Database</text><path d="M2885.1455,1588.6484 C2885.1455,1578.6484 2903.1455,1578.6484 2903.1455,1578.6484 C2903.1455,1578.6484 2921.1455,1578.6484 2921.1455,1588.6484 L2921.1455,1614.6484 C2921.1455,1624.6484 2903.1455,1624.6484 2903.1455,1624.6484 C2903.1455,1624.6484 2885.1455,1624.6484 2885.1455,1614.6484 L2885.1455,1588.6484 " fill="#E3E3E3" style="stroke:#181818;stroke-width:1.5;"/><path d="M2885.1455,1588.6484 C2885.1455,1598.6484 2903.1455,1598.6484 2903.1455,1598.6484 C2903.1455,1598.6484 2921.1455,1598.6484 2921.1455,1588.6484 " fill="none" style="stroke:#181818;stroke-width:1.5;"/><rect fill="#FFFFFF" height="1418.7852" style="stroke:#181818;stroke-width:1.0;" width="10" x="59.0171" y="133.2422"/><rect fill="#FFFFFF" height="93.5332" style="stroke:#181818;stroke-width:1.0;" width="10" x="390.8003" y="156.5332"/><rect fill="#FFFFFF" height="468.6855" style="stroke:#181818;stroke-width:1.0;" width="10" x="557.2271" y="250.0664"/><rect fill="#FFFFFF" height="406.7832" style="stroke:#181818;stroke-width:1.0;" width="10" x="557.2271" y="750.043"/><rect fill="#FFFFFF" height="31.291" style="stroke:#181818;stroke-width:1.0;" width="10" x="557.2271" y="1188.1172"/><rect fill="#FFFFFF" height="292.3281" style="stroke:#181818;stroke-width:1.0;" width="10" x="557.2271" y="1250.6992"/><rect fill="#FFFFFF" height="343.8613" style="stroke:#181818;stroke-width:1.0;" width="10" x="863.7021" y="343.5996"/><rect fill="#FFFFFF" height="344.2012" style="stroke:#181818;stroke-width:1.0;" width="10" x="863.7021" y="781.334"/><rect fill="#FFFFFF" height="229.7461" style="stroke:#181818;stroke-width:1.0;" width="10" x="863.7021" y="1281.9902"/><rect fill="#FFFFFF" height="156.4551" style="stroke:#181818;stroke-width:1.0;" width="10" x="1541.8413" y="437.1328"/><rect fill="#FFFFFF" height="156.4551" style="stroke:#181818;stroke-width:1.0;" width="10" x="1769.7197" y="875.207"/><rect fill="#FFFFFF" height="31.291" style="stroke:#181818;stroke-width:1.0;" width="10" x="1968.7915" y="624.8789"/><rect fill="#FFFFFF" height="31.291" style="stroke:#181818;stroke-width:1.0;" width="10" x="1968.7915" y="812.625"/><rect fill="#FFFFFF" height="31.291" style="stroke:#181818;stroke-width:1.0;" width="10" x="2139.0566" y="1062.9531"/><rect fill="#FFFFFF" height="31.291" style="stroke:#181818;stroke-width:1.0;" width="10" x="2139.0566" y="1313.2813"/><rect fill="#FFFFFF" height="31.291" style="stroke:#181818;stroke-width:1.0;" width="10" x="2288.7251" y="1375.8633"/><rect fill="#FFFFFF" height="93.873" style="stroke:#181818;stroke-width:1.0;" width="10" x="2421.6626" y="468.4238"/><rect fill="#FFFFFF" height="93.873" style="stroke:#181818;stroke-width:1.0;" width="10" x="2588.0586" y="906.498"/><rect fill="#FFFFFF" height="59.291" style="stroke:#181818;stroke-width:1.0;" width="10" x="2588.0586" y="1438.4453"/><rect fill="#FFFFFF" height="31.291" style="stroke:#181818;stroke-width:1.0;" width="10" x="2898.1455" y="499.7148"/><rect fill="#FFFFFF" height="31.291" style="stroke:#181818;stroke-width:1.0;" width="10" x="2898.1455" y="937.7891"/><rect fill="#FFFFFF" height="14" style="stroke:#181818;stroke-width:1.0;" width="10" x="2898.1455" y="1469.7363"/><polygon fill="#181818" points="378.8003,152.5332,388.8003,156.5332,378.8003,160.5332,382.8003,156.5332" style="stroke:#181818;stroke-width:1.0;"/><line style="stroke:#181818;stroke-width:1.0;" x1="69.0171" x2="384.8003" y1="156.5332" y2="156.5332"/><text fill="#000000" font-family="sans-serif" font-size="13" lengthAdjust="spacing" textLength="302.7832" x="76.0171" y="151.2705">Asks to add a video of simulation to a show proposal</text><polygon fill="#181818" points="478.2412,183.8242,488.2412,187.8242,478.2412,191.8242,482.2412,187.8242" style="stroke:#181818;stroke-width:1.0;"/><line style="stroke:#181818;stroke-width:1.0;" x1="400.8003" x2="484.2412" y1="187.8242" y2="187.8242"/><text fill="#000000" font-family="sans-serif" font-size="13" lengthAdjust="spacing" textLength="36.1309" x="407.8003" y="182.5615">create</text><rect fill="#E3E3E3" height="51.2422" rx="2.5" ry="2.5" style="stroke:#181818;stroke-width:0.5;" width="143.9717" x="490.2412" y="164.5332"/><text fill="#000000" font-family="sans-serif" font-size="14" font-style="italic" lengthAdjust="spacing" textLength="92.627" x="515.9136" y="186.6406">&#171;presentation&#187;</text><text fill="#000000" font-family="sans-serif" font-size="14" lengthAdjust="spacing" textLength="129.9717" x="497.2412" y="205.2617">AddVideoProposalUI</text><polygon fill="#181818" points="545.2271,246.0664,555.2271,250.0664,545.2271,254.0664,549.2271,250.0664" style="stroke:#181818;stroke-width:1.0;"/><line style="stroke:#181818;stroke-width:1.0;" x1="395.8003" x2="551.2271" y1="250.0664" y2="250.0664"/><text fill="#000000" font-family="sans-serif" font-size="13" lengthAdjust="spacing" textLength="39.0063" x="402.8003" y="244.8037">show()</text><polygon fill="#181818" points="788.999,277.3574,798.999,281.3574,788.999,285.3574,792.999,281.3574" style="stroke:#181818;stroke-width:1.0;"/><line style="stroke:#181818;stroke-width:1.0;" x1="567.2271" x2="794.999" y1="281.3574" y2="281.3574"/><text fill="#000000" font-family="sans-serif" font-size="13" lengthAdjust="spacing" textLength="36.1309" x="574.2271" y="276.0947">create</text><rect fill="#E3E3E3" height="51.2422" rx="2.5" ry="2.5" style="stroke:#181818;stroke-width:0.5;" width="135.4063" x="800.999" y="258.0664"/><text fill="#000000" font-family="sans-serif" font-size="14" font-style="italic" lengthAdjust="spacing" textLength="82.5098" x="827.4473" y="280.1738">&#171;application&#187;</text><text fill="#000000" font-family="sans-serif" font-size="14" lengthAdjust="spacing" textLength="121.4063" x="807.999" y="298.7949">AddVideoController</text><polygon fill="#181818" points="851.7021,339.5996,861.7021,343.5996,851.7021,347.5996,855.7021,343.5996" style="stroke:#181818;stroke-width:1.0;"/><line style="stroke:#181818;stroke-width:1.0;" x1="567.2271" x2="857.7021" y1="343.5996" y2="343.5996"/><text fill="#000000" font-family="sans-serif" font-size="13" lengthAdjust="spacing" textLength="87.3945" x="574.2271" y="338.3369">listCustomers()</text><polygon fill="#181818" points="1280.9009,370.8906,1290.9009,374.8906,1280.9009,378.8906,1284.9009,374.8906" style="stroke:#181818;stroke-width:1.0;"/><line style="stroke:#181818;stroke-width:1.0;" x1="873.7021" x2="1286.9009" y1="374.8906" y2="374.8906"/><text fill="#000000" font-family="sans-serif" font-size="13" lengthAdjust="spacing" textLength="395.1987" x="880.7021" y="369.6279">ensureAuthenticatedUserHasAnyOf(Roles.CRM_COLLABORATOR)</text><rect fill="#E3E3E3" height="51.2422" rx="2.5" ry="2.5" style="stroke:#181818;stroke-width:0.5;" width="142.3994" x="1292.9009" y="351.5996"/><text fill="#000000" font-family="sans-serif" font-size="14" font-style="italic" lengthAdjust="spacing" textLength="42.8203" x="1342.6904" y="373.707">&#171;auth&#187;</text><text fill="#000000" font-family="sans-serif" font-size="14" lengthAdjust="spacing" textLength="128.3994" x="1299.9009" y="392.3281">AuthorizationService</text><polygon fill="#181818" points="1529.8413,433.1328,1539.8413,437.1328,1529.8413,441.1328,1533.8413,437.1328" style="stroke:#181818;stroke-width:1.0;"/><line style="stroke:#181818;stroke-width:1.0;" x1="873.7021" x2="1535.8413" y1="437.1328" y2="437.1328"/><text fill="#000000" font-family="sans-serif" font-size="13" lengthAdjust="spacing" textLength="142.3145" x="880.7021" y="431.8701">findAllActiveCustomers()</text><polygon fill="#181818" points="2409.6626,464.4238,2419.6626,468.4238,2409.6626,472.4238,2413.6626,468.4238" style="stroke:#181818;stroke-width:1.0;"/><line style="stroke:#181818;stroke-width:1.0;" x1="1551.8413" x2="2415.6626" y1="468.4238" y2="468.4238"/><text fill="#000000" font-family="sans-serif" font-size="13" lengthAdjust="spacing" textLength="102.5908" x="1558.8413" y="463.1611">findByActive(true)</text><polygon fill="#181818" points="2886.1455,495.7148,2896.1455,499.7148,2886.1455,503.7148,2890.1455,499.7148" style="stroke:#181818;stroke-width:1.0;"/><line style="stroke:#181818;stroke-width:1.0;" x1="2431.6626" x2="2892.1455" y1="499.7148" y2="499.7148"/><text fill="#000000" font-family="sans-serif" font-size="13" lengthAdjust="spacing" textLength="102.5908" x="2438.6626" y="494.4521">findByActive(true)</text><polygon fill="#181818" points="2442.6626,527.0059,2432.6626,531.0059,2442.6626,535.0059,2438.6626,531.0059" style="stroke:#181818;stroke-width:1.0;"/><line style="stroke:#181818;stroke-width:1.0;" x1="2436.6626" x2="2902.1455" y1="531.0059" y2="531.0059"/><text fill="#000000" font-family="sans-serif" font-size="13" lengthAdjust="spacing" textLength="59.96" x="2448.6626" y="525.7432">customers</text><polygon fill="#181818" points="1562.8413,558.2969,1552.8413,562.2969,1562.8413,566.2969,1558.8413,562.2969" style="stroke:#181818;stroke-width:1.0;"/><line style="stroke:#181818;stroke-width:1.0;" x1="1556.8413" x2="2425.6626" y1="562.2969" y2="562.2969"/><text fill="#000000" font-family="sans-serif" font-size="13" lengthAdjust="spacing" textLength="59.96" x="1568.8413" y="557.0342">customers</text><polygon fill="#181818" points="884.7021,589.5879,874.7021,593.5879,884.7021,597.5879,880.7021,593.5879" style="stroke:#181818;stroke-width:1.0;"/><line style="stroke:#181818;stroke-width:1.0;" x1="878.7021" x2="1545.8413" y1="593.5879" y2="593.5879"/><text fill="#000000" font-family="sans-serif" font-size="13" lengthAdjust="spacing" textLength="59.96" x="890.7021" y="588.3252">customers</text><polygon fill="#181818" points="1956.7915,620.8789,1966.7915,624.8789,1956.7915,628.8789,1960.7915,624.8789" style="stroke:#181818;stroke-width:1.0;"/><line style="stroke:#181818;stroke-width:1.0;" x1="873.7021" x2="1962.7915" y1="624.8789" y2="624.8789"/><text fill="#000000" font-family="sans-serif" font-size="13" lengthAdjust="spacing" textLength="242.709" x="880.7021" y="619.6162">transformToCustomerDTOList(customers)</text><polygon fill="#181818" points="884.7021,652.1699,874.7021,656.1699,884.7021,660.1699,880.7021,656.1699" style="stroke:#181818;stroke-width:1.0;"/><line style="stroke:#181818;stroke-width:1.0;" x1="878.7021" x2="1972.7915" y1="656.1699" y2="656.1699"/><text fill="#000000" font-family="sans-serif" font-size="13" lengthAdjust="spacing" textLength="87.4009" x="890.7021" y="650.9072">customersDTO</text><polygon fill="#181818" points="578.2271,683.4609,568.2271,687.4609,578.2271,691.4609,574.2271,687.4609" style="stroke:#181818;stroke-width:1.0;"/><line style="stroke:#181818;stroke-width:1.0;" x1="572.2271" x2="867.7021" y1="687.4609" y2="687.4609"/><text fill="#000000" font-family="sans-serif" font-size="13" lengthAdjust="spacing" textLength="87.4009" x="584.2271" y="682.1982">customersDTO</text><polygon fill="#181818" points="80.0171,714.752,70.0171,718.752,80.0171,722.752,76.0171,718.752" style="stroke:#181818;stroke-width:1.0;"/><line style="stroke:#181818;stroke-width:1.0;" x1="74.0171" x2="561.2271" y1="718.752" y2="718.752"/><text fill="#000000" font-family="sans-serif" font-size="13" lengthAdjust="spacing" textLength="144.4917" x="86.0171" y="713.4893">displays list of customers</text><polygon fill="#181818" points="545.2271,746.043,555.2271,750.043,545.2271,754.043,549.2271,750.043" style="stroke:#181818;stroke-width:1.0;"/><line style="stroke:#181818;stroke-width:1.0;" x1="69.0171" x2="551.2271" y1="750.043" y2="750.043"/><text fill="#000000" font-family="sans-serif" font-size="13" lengthAdjust="spacing" textLength="108.3735" x="76.0171" y="744.7803">selects a customer</text><polygon fill="#181818" points="851.7021,777.334,861.7021,781.334,851.7021,785.334,855.7021,781.334" style="stroke:#181818;stroke-width:1.0;"/><line style="stroke:#181818;stroke-width:1.0;" x1="567.2271" x2="857.7021" y1="781.334" y2="781.334"/><text fill="#000000" font-family="sans-serif" font-size="13" lengthAdjust="spacing" textLength="195.7744" x="574.2271" y="776.0713">listShowProposals(customerDTO)</text><polygon fill="#181818" points="1956.7915,808.625,1966.7915,812.625,1956.7915,816.625,1960.7915,812.625" style="stroke:#181818;stroke-width:1.0;"/><line style="stroke:#181818;stroke-width:1.0;" x1="873.7021" x2="1962.7915" y1="812.625" y2="812.625"/><text fill="#000000" font-family="sans-serif" font-size="13" lengthAdjust="spacing" textLength="221.749" x="880.7021" y="807.3623">getCustomerFromDTO(customerDTO)</text><polygon fill="#181818" points="884.7021,839.916,874.7021,843.916,884.7021,847.916,880.7021,843.916" style="stroke:#181818;stroke-width:1.0;"/><line style="stroke:#181818;stroke-width:1.0;" x1="878.7021" x2="1972.7915" y1="843.916" y2="843.916"/><text fill="#000000" font-family="sans-serif" font-size="13" lengthAdjust="spacing" textLength="53.46" x="890.7021" y="838.6533">customer</text><polygon fill="#181818" points="1757.7197,871.207,1767.7197,875.207,1757.7197,879.207,1761.7197,875.207" style="stroke:#181818;stroke-width:1.0;"/><line style="stroke:#181818;stroke-width:1.0;" x1="873.7021" x2="1763.7197" y1="875.207" y2="875.207"/><text fill="#000000" font-family="sans-serif" font-size="13" lengthAdjust="spacing" textLength="281.0869" x="880.7021" y="869.9443">findByPendingAndEmptyVideo(customer, status)</text><polygon fill="#181818" points="2576.0586,902.498,2586.0586,906.498,2576.0586,910.498,2580.0586,906.498" style="stroke:#181818;stroke-width:1.0;"/><line style="stroke:#181818;stroke-width:1.0;" x1="1779.7197" x2="2582.0586" y1="906.498" y2="906.498"/><text fill="#000000" font-family="sans-serif" font-size="13" lengthAdjust="spacing" textLength="281.0869" x="1786.7197" y="901.2354">findByPendingAndEmptyVideo(customer, status)</text><polygon fill="#181818" points="2886.1455,933.7891,2896.1455,937.7891,2886.1455,941.7891,2890.1455,937.7891" style="stroke:#181818;stroke-width:1.0;"/><line style="stroke:#181818;stroke-width:1.0;" x1="2598.0586" x2="2892.1455" y1="937.7891" y2="937.7891"/><text fill="#000000" font-family="sans-serif" font-size="13" lengthAdjust="spacing" textLength="281.0869" x="2605.0586" y="932.5264">findByPendingAndEmptyVideo(customer, status)</text><polygon fill="#181818" points="2609.0586,965.0801,2599.0586,969.0801,2609.0586,973.0801,2605.0586,969.0801" style="stroke:#181818;stroke-width:1.0;"/><line style="stroke:#181818;stroke-width:1.0;" x1="2603.0586" x2="2902.1455" y1="969.0801" y2="969.0801"/><text fill="#000000" font-family="sans-serif" font-size="13" lengthAdjust="spacing" textLength="88.1563" x="2615.0586" y="963.8174">showProposals</text><polygon fill="#181818" points="1790.7197,996.3711,1780.7197,1000.3711,1790.7197,1004.3711,1786.7197,1000.3711" style="stroke:#181818;stroke-width:1.0;"/><line style="stroke:#181818;stroke-width:1.0;" x1="1784.7197" x2="2592.0586" y1="1000.3711" y2="1000.3711"/><text fill="#000000" font-family="sans-serif" font-size="13" lengthAdjust="spacing" textLength="88.1563" x="1796.7197" y="995.1084">showProposals</text><polygon fill="#181818" points="884.7021,1027.6621,874.7021,1031.6621,884.7021,1035.6621,880.7021,1031.6621" style="stroke:#181818;stroke-width:1.0;"/><line style="stroke:#181818;stroke-width:1.0;" x1="878.7021" x2="1773.7197" y1="1031.6621" y2="1031.6621"/><text fill="#000000" font-family="sans-serif" font-size="13" lengthAdjust="spacing" textLength="88.1563" x="890.7021" y="1026.3994">showProposals</text><polygon fill="#181818" points="2127.0566,1058.9531,2137.0566,1062.9531,2127.0566,1066.9531,2131.0566,1062.9531" style="stroke:#181818;stroke-width:1.0;"/><line style="stroke:#181818;stroke-width:1.0;" x1="873.7021" x2="2133.0566" y1="1062.9531" y2="1062.9531"/><text fill="#000000" font-family="sans-serif" font-size="13" lengthAdjust="spacing" textLength="294.0425" x="880.7021" y="1057.6904">transformToShowProposalDTOlist(showProposals)</text><polygon fill="#181818" points="884.7021,1090.2441,874.7021,1094.2441,884.7021,1098.2441,880.7021,1094.2441" style="stroke:#181818;stroke-width:1.0;"/><line style="stroke:#181818;stroke-width:1.0;" x1="878.7021" x2="2143.0566" y1="1094.2441" y2="1094.2441"/><text fill="#000000" font-family="sans-serif" font-size="13" lengthAdjust="spacing" textLength="115.5972" x="890.7021" y="1088.9814">showProposalsDTO</text><polygon fill="#181818" points="578.2271,1121.5352,568.2271,1125.5352,578.2271,1129.5352,574.2271,1125.5352" style="stroke:#181818;stroke-width:1.0;"/><line style="stroke:#181818;stroke-width:1.0;" x1="572.2271" x2="867.7021" y1="1125.5352" y2="1125.5352"/><text fill="#000000" font-family="sans-serif" font-size="13" lengthAdjust="spacing" textLength="115.5972" x="584.2271" y="1120.2725">showProposalsDTO</text><polygon fill="#181818" points="80.0171,1152.8262,70.0171,1156.8262,80.0171,1160.8262,76.0171,1156.8262" style="stroke:#181818;stroke-width:1.0;"/><line style="stroke:#181818;stroke-width:1.0;" x1="74.0171" x2="561.2271" y1="1156.8262" y2="1156.8262"/><text fill="#000000" font-family="sans-serif" font-size="13" lengthAdjust="spacing" textLength="283.2515" x="86.0171" y="1151.5635">displays the list of show proposal of the customer</text><polygon fill="#181818" points="545.2271,1184.1172,555.2271,1188.1172,545.2271,1192.1172,549.2271,1188.1172" style="stroke:#181818;stroke-width:1.0;"/><line style="stroke:#181818;stroke-width:1.0;" x1="69.0171" x2="551.2271" y1="1188.1172" y2="1188.1172"/><text fill="#000000" font-family="sans-serif" font-size="13" lengthAdjust="spacing" textLength="138.7407" x="76.0171" y="1182.8545">selects a show proposal</text><polygon fill="#181818" points="80.0171,1215.4082,70.0171,1219.4082,80.0171,1223.4082,76.0171,1219.4082" style="stroke:#181818;stroke-width:1.0;"/><line style="stroke:#181818;stroke-width:1.0;" x1="74.0171" x2="561.2271" y1="1219.4082" y2="1219.4082"/><text fill="#000000" font-family="sans-serif" font-size="13" lengthAdjust="spacing" textLength="207.397" x="86.0171" y="1214.1455">request a video file of the simulation</text><polygon fill="#181818" points="545.2271,1246.6992,555.2271,1250.6992,545.2271,1254.6992,549.2271,1250.6992" style="stroke:#181818;stroke-width:1.0;"/><line style="stroke:#181818;stroke-width:1.0;" x1="69.0171" x2="551.2271" y1="1250.6992" y2="1250.6992"/><text fill="#000000" font-family="sans-serif" font-size="13" lengthAdjust="spacing" textLength="85.2681" x="76.0171" y="1245.4365">gives video file</text><polygon fill="#181818" points="851.7021,1277.9902,861.7021,1281.9902,851.7021,1285.9902,855.7021,1281.9902" style="stroke:#181818;stroke-width:1.0;"/><line style="stroke:#181818;stroke-width:1.0;" x1="567.2271" x2="857.7021" y1="1281.9902" y2="1281.9902"/><text fill="#000000" font-family="sans-serif" font-size="13" lengthAdjust="spacing" textLength="277.4751" x="574.2271" y="1276.7275">addVideoToProposal(video, showProposalDTO)</text><polygon fill="#181818" points="2127.0566,1309.2813,2137.0566,1313.2813,2127.0566,1317.2813,2131.0566,1313.2813" style="stroke:#181818;stroke-width:1.0;"/><line style="stroke:#181818;stroke-width:1.0;" x1="873.7021" x2="2133.0566" y1="1313.2813" y2="1313.2813"/><text fill="#000000" font-family="sans-serif" font-size="13" lengthAdjust="spacing" textLength="273.0952" x="880.7021" y="1308.0186">getShowProposalfromDTO(showProposalDTO)</text><polygon fill="#181818" points="884.7021,1340.5723,874.7021,1344.5723,884.7021,1348.5723,880.7021,1344.5723" style="stroke:#181818;stroke-width:1.0;"/><line style="stroke:#181818;stroke-width:1.0;" x1="878.7021" x2="2143.0566" y1="1344.5723" y2="1344.5723"/><text fill="#000000" font-family="sans-serif" font-size="13" lengthAdjust="spacing" textLength="81.6563" x="890.7021" y="1339.3096">showProposal</text><polygon fill="#181818" points="2276.7251,1371.8633,2286.7251,1375.8633,2276.7251,1379.8633,2280.7251,1375.8633" style="stroke:#181818;stroke-width:1.0;"/><line style="stroke:#181818;stroke-width:1.0;" x1="873.7021" x2="2282.7251" y1="1375.8633" y2="1375.8633"/><text fill="#000000" font-family="sans-serif" font-size="13" lengthAdjust="spacing" textLength="250.0342" x="880.7021" y="1370.6006">addVideoToProposal(video, showProposal)</text><polygon fill="#181818" points="884.7021,1403.1543,874.7021,1407.1543,884.7021,1411.1543,880.7021,1407.1543" style="stroke:#181818;stroke-width:1.0;"/><line style="stroke:#181818;stroke-width:1.0;" x1="878.7021" x2="2292.7251" y1="1407.1543" y2="1407.1543"/><text fill="#000000" font-family="sans-serif" font-size="13" lengthAdjust="spacing" textLength="130.8188" x="890.7021" y="1401.8916">updatedShowProposal</text><polygon fill="#181818" points="2576.0586,1434.4453,2586.0586,1438.4453,2576.0586,1442.4453,2580.0586,1438.4453" style="stroke:#181818;stroke-width:1.0;"/><line style="stroke:#181818;stroke-width:1.0;" x1="873.7021" x2="2582.0586" y1="1438.4453" y2="1438.4453"/><text fill="#000000" font-family="sans-serif" font-size="13" lengthAdjust="spacing" textLength="85.9854" x="880.7021" y="1433.1826">save(proposal)</text><polygon fill="#181818" points="2886.1455,1465.7363,2896.1455,1469.7363,2886.1455,1473.7363,2890.1455,1469.7363" style="stroke:#181818;stroke-width:1.0;"/><line style="stroke:#181818;stroke-width:1.0;" x1="2598.0586" x2="2892.1455" y1="1469.7363" y2="1469.7363"/><text fill="#000000" font-family="sans-serif" font-size="13" lengthAdjust="spacing" textLength="36.1182" x="2605.0586" y="1464.4736">save()</text><polygon fill="#181818" points="2609.0586,1479.7363,2599.0586,1483.7363,2609.0586,1487.7363,2605.0586,1483.7363" style="stroke:#181818;stroke-width:1.0;"/><line style="stroke:#181818;stroke-width:1.0;stroke-dasharray:2.0,2.0;" x1="2603.0586" x2="2902.1455" y1="1483.7363" y2="1483.7363"/><polygon fill="#181818" points="884.7021,1493.7363,874.7021,1497.7363,884.7021,1501.7363,880.7021,1497.7363" style="stroke:#181818;stroke-width:1.0;"/><line style="stroke:#181818;stroke-width:1.0;stroke-dasharray:2.0,2.0;" x1="878.7021" x2="2592.0586" y1="1497.7363" y2="1497.7363"/><polygon fill="#181818" points="578.2271,1507.7363,568.2271,1511.7363,578.2271,1515.7363,574.2271,1511.7363" style="stroke:#181818;stroke-width:1.0;"/><line style="stroke:#181818;stroke-width:1.0;stroke-dasharray:2.0,2.0;" x1="572.2271" x2="867.7021" y1="1511.7363" y2="1511.7363"/><polygon fill="#181818" points="80.0171,1539.0273,70.0171,1543.0273,80.0171,1547.0273,76.0171,1543.0273" style="stroke:#181818;stroke-width:1.0;"/><line style="stroke:#181818;stroke-width:1.0;" x1="74.0171" x2="561.2271" y1="1543.0273" y2="1543.0273"/><text fill="#000000" font-family="sans-serif" font-size="13" lengthAdjust="spacing" textLength="155.3589" x="86.0171" y="1537.7646">displays operation success</text><!--SRC=[jLXRRziW57xthq1zIgjrchQtgAhaffiMALsgNFOwKPkagBRn0BVAVlqE-8Pj84wp-QdXmFTz1yu5AbvebcEEKvIoZ4NFdAK4ILwGG3IM74SlU4_Myf0Gn4aaSRPFp0dY6SViZMPxjCE984608yaukfYj7j2C9Gb-OXp3o0N20aKyDSS2W90qeZdE9Be8u_WdZGbxv2nd0YTX92dBzBfmjfalVw2RcvmJGJA9bUNsrhz-EzThj_EHwsOianpKaLBhRBDQm4gSvmcDx0iB-Smu_QEDQy9VQKHAkHQ3WeBXFiQi41AsdJ_W3BOv1OqcaDFg5xP-Pc_rBjY1lJFyuBMc-yto4NDHxrP_541YoNpAkW1Mot6GmLgrXAMOEdMl2CoZ47s7Zl1s611uyyF7tKEoc_feCPRu2Gk2Bkwhl_JY-aSGI2eXrTRaTq4oE8jxYlSgpwxHTltvooUTN_GLIp98fW31rnj4rxTryanHA5u4aWpXE4OOlQgOHso714sBH1-rDa96ipUKLuveq8QoX2gPr5T10ybsVdK5514dCCzg1wj2dbmsrfWuWHl3TjuE0WOWgRoykXfGjKOWIgYGzS4AWx61LVDQOFNfbMgtBBchNIEPA3XHPiWKbHiataA8ViSYp0xBtMJ54Y8-GjdxDLik5k7TSXLkbgjBAuaxhwTeHxCuJ7JrUoKs9xgEk92wtcbo9wcXo0ZSKihTeLGoKOtXSW0w4D8231MOAWmYeA_3VnnfXxZD7EJu6d2Ndr6zorO88qpzN7RNV6Vj9ZP8n-oi_spBfB2JMOYEn58_YDjgFONR0yx4Zl5qmmpp0j9nqj0VYUG6pkrbosZn3ep777HGr8xfMcN5Cx5K1UaMdtxjdQAOYZp11w4BaggrtJCmuEewPwdVPUaa2Lo-19Jd6Y8OKIUhKcXs9j4S13XsKcMqdVUUD7Ns6rmVmMI7_nydVUOf-wz0THrw95aCbzimYx-ckJpeYsBZuWSau4fPk2BQop3qsI-efzXIfzyXrIdtM1LtIB5LydVAEgF6E_T9c7bmNgrtRy2nkFABC0ICFO-ZSLFbZPlOGJgo3zXlxfrUq9kYQjAa8sT41dcgXLs1mtDFVnX1r-aHJjn-dnZVAE1ssJIBpaLS3IXZf_gzgu5uxlV3BZAKojNB10JMBuWTXUTA9QvzIfmgRm-tFM4WZknkk7gxRvfN_qHZVEYSpQcTpXNHqErCqwxgU4wg4R5iJZqhha-BQIUjRGj6x_C8p_t9Q_XMvB5wOgrFTF7uWNOx0eP7HZvU_jWwxEo9cj3JXFrTf-ro7gU2TpKrb_hcH88psbHv3bMk_uCgoNB2o_zOY2AAYB1Tf_y2]--></g></svg>