<svg xmlns="http://www.w3.org/2000/svg" xmlns:xlink="http://www.w3.org/1999/xlink" contentStyleType="text/css" height="1439px" preserveAspectRatio="none" style="width:2570px;height:1439px;background:#FFFFFF;" version="1.1" viewBox="0 0 2570 1439" width="2570px" zoomAndPan="magnify"><title>Sequence Diagram - US230</title><defs/><g><text fill="#000000" font-family="sans-serif" font-size="14" font-weight="bold" lengthAdjust="spacing" textLength="181.2959" x="1195.4219" y="30.1074">Sequence Diagram - US230</text><rect fill="#FFFFFF" height="1213.748" style="stroke:#181818;stroke-width:1.0;" width="10" x="59.0171" y="133.2422"/><rect fill="#FFFFFF" height="93.5332" style="stroke:#181818;stroke-width:1.0;" width="10" x="390.8003" y="156.5332"/><rect fill="#FFFFFF" height="406.1035" style="stroke:#181818;stroke-width:1.0;" width="10" x="557.2271" y="250.0664"/><rect fill="#FFFFFF" height="281.6191" style="stroke:#181818;stroke-width:1.0;" width="10" x="557.2271" y="687.4609"/><rect fill="#FFFFFF" height="31.291" style="stroke:#181818;stroke-width:1.0;" width="10" x="557.2271" y="1000.3711"/><rect fill="#FFFFFF" height="275.0371" style="stroke:#181818;stroke-width:1.0;" width="10" x="557.2271" y="1062.9531"/><rect fill="#FFFFFF" height="281.2793" style="stroke:#181818;stroke-width:1.0;" width="10" x="836.2612" y="343.5996"/><rect fill="#FFFFFF" height="219.0371" style="stroke:#181818;stroke-width:1.0;" width="10" x="836.2612" y="718.752"/><rect fill="#FFFFFF" height="212.4551" style="stroke:#181818;stroke-width:1.0;" width="10" x="836.2612" y="1094.2441"/><rect fill="#FFFFFF" height="156.4551" style="stroke:#181818;stroke-width:1.0;" width="10" x="1514.4004" y="437.1328"/><rect fill="#FFFFFF" height="156.4551" style="stroke:#181818;stroke-width:1.0;" width="10" x="1742.2788" y="750.043"/><rect fill="#FFFFFF" height="104.582" style="stroke:#181818;stroke-width:1.0;" width="10" x="1742.2788" y="1188.1172"/><rect fill="#FFFFFF" height="31.291" style="stroke:#181818;stroke-width:1.0;" width="10" x="1920.7539" y="1125.5352"/><rect fill="#FFFFFF" height="93.873" style="stroke:#181818;stroke-width:1.0;" width="10" x="2053.6914" y="468.4238"/><rect fill="#FFFFFF" height="93.873" style="stroke:#181818;stroke-width:1.0;" width="10" x="2220.0874" y="781.334"/><rect fill="#FFFFFF" height="59.291" style="stroke:#181818;stroke-width:1.0;" width="10" x="2220.0874" y="1219.4082"/><rect fill="#FFFFFF" height="31.291" style="stroke:#181818;stroke-width:1.0;" width="10" x="2530.1743" y="499.7148"/><rect fill="#FFFFFF" height="31.291" style="stroke:#181818;stroke-width:1.0;" width="10" x="2530.1743" y="812.625"/><rect fill="#FFFFFF" height="14" style="stroke:#181818;stroke-width:1.0;" width="10" x="2530.1743" y="1250.6992"/><line style="stroke:#181818;stroke-width:0.5;stroke-dasharray:5.0,5.0;" x1="64" x2="64" y1="123.2422" y2="1355.9902"/><line style="stroke:#181818;stroke-width:0.5;stroke-dasharray:5.0,5.0;" x1="395.3594" x2="395.3594" y1="123.2422" y2="1355.9902"/><line style="stroke:#181818;stroke-width:0.5;stroke-dasharray:5.0,5.0;" x1="561.2412" x2="561.2412" y1="205.6543" y2="1355.9902"/><line style="stroke:#181818;stroke-width:0.5;stroke-dasharray:5.0,5.0;" x1="840.5581" x2="840.5581" y1="299.1875" y2="1355.9902"/><line style="stroke:#181818;stroke-width:0.5;stroke-dasharray:5.0,5.0;" x1="1336.46" x2="1336.46" y1="392.7207" y2="1355.9902"/><line style="stroke:#181818;stroke-width:0.5;stroke-dasharray:5.0,5.0;" x1="1518.8594" x2="1518.8594" y1="123.2422" y2="1355.9902"/><line style="stroke:#181818;stroke-width:0.5;stroke-dasharray:5.0,5.0;" x1="1746.9414" x2="1746.9414" y1="123.2422" y2="1355.9902"/><line style="stroke:#181818;stroke-width:0.5;stroke-dasharray:5.0,5.0;" x1="1925.6162" x2="1925.6162" y1="123.2422" y2="1355.9902"/><line style="stroke:#181818;stroke-width:0.5;stroke-dasharray:5.0,5.0;" x1="2057.8916" x2="2057.8916" y1="123.2422" y2="1355.9902"/><line style="stroke:#181818;stroke-width:0.5;stroke-dasharray:5.0,5.0;" x1="2224.4912" x2="2224.4912" y1="123.2422" y2="1355.9902"/><line style="stroke:#181818;stroke-width:0.5;stroke-dasharray:5.0,5.0;" x1="2534.209" x2="2534.209" y1="123.2422" y2="1355.9902"/><text fill="#000000" font-family="sans-serif" font-size="14" lengthAdjust="spacing" textLength="112.0342" x="5" y="119.7285">CRM Collaborator</text><ellipse cx="64.0171" cy="53.1211" fill="#E3E3E3" rx="8" ry="8" style="stroke:#181818;stroke-width:0.5;"/><path d="M64.0171,61.1211 L64.0171,88.1211 M51.0171,69.1211 L77.0171,69.1211 M64.0171,88.1211 L51.0171,103.1211 M64.0171,88.1211 L77.0171,103.1211 " fill="none" style="stroke:#181818;stroke-width:0.5;"/><text fill="#000000" font-family="sans-serif" font-size="14" lengthAdjust="spacing" textLength="112.0342" x="5" y="1370.0977">CRM Collaborator</text><ellipse cx="64.0171" cy="1382.1113" fill="#E3E3E3" rx="8" ry="8" style="stroke:#181818;stroke-width:0.5;"/><path d="M64.0171,1390.1113 L64.0171,1417.1113 M51.0171,1398.1113 L77.0171,1398.1113 M64.0171,1417.1113 L51.0171,1432.1113 M64.0171,1417.1113 L77.0171,1432.1113 " fill="none" style="stroke:#181818;stroke-width:0.5;"/><rect fill="#E3E3E3" height="51.2422" rx="2.5" ry="2.5" style="stroke:#181818;stroke-width:0.5;" width="168.8818" x="311.3594" y="71"/><text fill="#000000" font-family="sans-serif" font-size="14" font-style="italic" lengthAdjust="spacing" textLength="92.627" x="349.4868" y="93.1074">&#171;presentation&#187;</text><text fill="#000000" font-family="sans-serif" font-size="14" lengthAdjust="spacing" textLength="154.8818" x="318.3594" y="111.7285">AddVideoProposalAction</text><rect fill="#E3E3E3" height="51.2422" rx="2.5" ry="2.5" style="stroke:#181818;stroke-width:0.5;" width="168.8818" x="311.3594" y="1354.9902"/><text fill="#000000" font-family="sans-serif" font-size="14" font-style="italic" lengthAdjust="spacing" textLength="92.627" x="349.4868" y="1377.0977">&#171;presentation&#187;</text><text fill="#000000" font-family="sans-serif" font-size="14" lengthAdjust="spacing" textLength="154.8818" x="318.3594" y="1395.7188">AddVideoProposalAction</text><rect fill="#E3E3E3" height="51.2422" rx="2.5" ry="2.5" style="stroke:#181818;stroke-width:0.5;" width="143.9717" x="490.2412" y="1354.9902"/><text fill="#000000" font-family="sans-serif" font-size="14" font-style="italic" lengthAdjust="spacing" textLength="92.627" x="515.9136" y="1377.0977">&#171;presentation&#187;</text><text fill="#000000" font-family="sans-serif" font-size="14" lengthAdjust="spacing" textLength="129.9717" x="497.2412" y="1395.7188">AddVideoProposalUI</text><rect fill="#E3E3E3" height="51.2422" rx="2.5" ry="2.5" style="stroke:#181818;stroke-width:0.5;" width="135.4063" x="773.5581" y="1354.9902"/><text fill="#000000" font-family="sans-serif" font-size="14" font-style="italic" lengthAdjust="spacing" textLength="82.5098" x="800.0063" y="1377.0977">&#171;application&#187;</text><text fill="#000000" font-family="sans-serif" font-size="14" lengthAdjust="spacing" textLength="121.4063" x="780.5581" y="1395.7188">AddVideoController</text><rect fill="#E3E3E3" height="51.2422" rx="2.5" ry="2.5" style="stroke:#181818;stroke-width:0.5;" width="142.3994" x="1265.46" y="1354.9902"/><text fill="#000000" font-family="sans-serif" font-size="14" font-style="italic" lengthAdjust="spacing" textLength="42.8203" x="1315.2495" y="1377.0977">&#171;auth&#187;</text><text fill="#000000" font-family="sans-serif" font-size="14" lengthAdjust="spacing" textLength="128.3994" x="1272.46" y="1395.7188">AuthorizationService</text><rect fill="#E3E3E3" height="51.2422" rx="2.5" ry="2.5" style="stroke:#181818;stroke-width:0.5;" width="203.082" x="1417.8594" y="71"/><text fill="#000000" font-family="sans-serif" font-size="14" font-style="italic" lengthAdjust="spacing" textLength="82.5098" x="1478.1455" y="93.1074">&#171;application&#187;</text><text fill="#000000" font-family="sans-serif" font-size="14" lengthAdjust="spacing" textLength="189.082" x="1424.8594" y="111.7285">CustomerManagementService</text><rect fill="#E3E3E3" height="51.2422" rx="2.5" ry="2.5" style="stroke:#181818;stroke-width:0.5;" width="203.082" x="1417.8594" y="1354.9902"/><text fill="#000000" font-family="sans-serif" font-size="14" font-style="italic" lengthAdjust="spacing" textLength="82.5098" x="1478.1455" y="1377.0977">&#171;application&#187;</text><text fill="#000000" font-family="sans-serif" font-size="14" lengthAdjust="spacing" textLength="189.082" x="1424.8594" y="1395.7188">CustomerManagementService</text><rect fill="#E3E3E3" height="51.2422" rx="2.5" ry="2.5" style="stroke:#181818;stroke-width:0.5;" width="232.6748" x="1630.9414" y="71"/><text fill="#000000" font-family="sans-serif" font-size="14" font-style="italic" lengthAdjust="spacing" textLength="82.5098" x="1706.0239" y="93.1074">&#171;application&#187;</text><text fill="#000000" font-family="sans-serif" font-size="14" lengthAdjust="spacing" textLength="218.6748" x="1637.9414" y="111.7285">ShowProposalManagementService</text><rect fill="#E3E3E3" height="51.2422" rx="2.5" ry="2.5" style="stroke:#181818;stroke-width:0.5;" width="232.6748" x="1630.9414" y="1354.9902"/><text fill="#000000" font-family="sans-serif" font-size="14" font-style="italic" lengthAdjust="spacing" textLength="82.5098" x="1706.0239" y="1377.0977">&#171;application&#187;</text><text fill="#000000" font-family="sans-serif" font-size="14" lengthAdjust="spacing" textLength="218.6748" x="1637.9414" y="1395.7188">ShowProposalManagementService</text><rect fill="#E3E3E3" height="51.2422" rx="2.5" ry="2.5" style="stroke:#181818;stroke-width:0.5;" width="104.2754" x="1873.6162" y="71"/><text fill="#000000" font-family="sans-serif" font-size="14" font-style="italic" lengthAdjust="spacing" textLength="61.4893" x="1895.0093" y="93.1074">&#171;domain&#187;</text><text fill="#000000" font-family="sans-serif" font-size="14" lengthAdjust="spacing" textLength="90.2754" x="1880.6162" y="111.7285">ShowProposal</text><rect fill="#E3E3E3" height="51.2422" rx="2.5" ry="2.5" style="stroke:#181818;stroke-width:0.5;" width="104.2754" x="1873.6162" y="1354.9902"/><text fill="#000000" font-family="sans-serif" font-size="14" font-style="italic" lengthAdjust="spacing" textLength="61.4893" x="1895.0093" y="1377.0977">&#171;domain&#187;</text><text fill="#000000" font-family="sans-serif" font-size="14" lengthAdjust="spacing" textLength="90.2754" x="1880.6162" y="1395.7188">ShowProposal</text><rect fill="#E3E3E3" height="51.2422" rx="2.5" ry="2.5" style="stroke:#181818;stroke-width:0.5;" width="141.5996" x="1987.8916" y="71"/><text fill="#000000" font-family="sans-serif" font-size="14" font-style="italic" lengthAdjust="spacing" textLength="77.041" x="2020.1709" y="93.1074">&#171;repository&#187;</text><text fill="#000000" font-family="sans-serif" font-size="14" lengthAdjust="spacing" textLength="127.5996" x="1994.8916" y="111.7285">CustomerRepository</text><rect fill="#E3E3E3" height="51.2422" rx="2.5" ry="2.5" style="stroke:#181818;stroke-width:0.5;" width="141.5996" x="1987.8916" y="1354.9902"/><text fill="#000000" font-family="sans-serif" font-size="14" font-style="italic" lengthAdjust="spacing" textLength="77.041" x="2020.1709" y="1377.0977">&#171;repository&#187;</text><text fill="#000000" font-family="sans-serif" font-size="14" lengthAdjust="spacing" textLength="127.5996" x="1994.8916" y="1395.7188">CustomerRepository</text><rect fill="#E3E3E3" height="51.2422" rx="2.5" ry="2.5" style="stroke:#181818;stroke-width:0.5;" width="171.1924" x="2139.4912" y="71"/><text fill="#000000" font-family="sans-serif" font-size="14" font-style="italic" lengthAdjust="spacing" textLength="77.041" x="2186.5669" y="93.1074">&#171;repository&#187;</text><text fill="#000000" font-family="sans-serif" font-size="14" lengthAdjust="spacing" textLength="157.1924" x="2146.4912" y="111.7285">ShowProposalRepository</text><rect fill="#E3E3E3" height="51.2422" rx="2.5" ry="2.5" style="stroke:#181818;stroke-width:0.5;" width="171.1924" x="2139.4912" y="1354.9902"/><text fill="#000000" font-family="sans-serif" font-size="14" font-style="italic" lengthAdjust="spacing" textLength="77.041" x="2186.5669" y="1377.0977">&#171;repository&#187;</text><text fill="#000000" font-family="sans-serif" font-size="14" lengthAdjust="spacing" textLength="157.1924" x="2146.4912" y="1395.7188">ShowProposalRepository</text><text fill="#000000" font-family="sans-serif" font-size="14" lengthAdjust="spacing" textLength="59.9307" x="2502.209" y="119.7285">Database</text><path d="M2517.1743,68.6211 C2517.1743,58.6211 2535.1743,58.6211 2535.1743,58.6211 C2535.1743,58.6211 2553.1743,58.6211 2553.1743,68.6211 L2553.1743,94.6211 C2553.1743,104.6211 2535.1743,104.6211 2535.1743,104.6211 C2535.1743,104.6211 2517.1743,104.6211 2517.1743,94.6211 L2517.1743,68.6211 " fill="#E3E3E3" style="stroke:#181818;stroke-width:1.5;"/><path d="M2517.1743,68.6211 C2517.1743,78.6211 2535.1743,78.6211 2535.1743,78.6211 C2535.1743,78.6211 2553.1743,78.6211 2553.1743,68.6211 " fill="none" style="stroke:#181818;stroke-width:1.5;"/><text fill="#000000" font-family="sans-serif" font-size="14" lengthAdjust="spacing" textLength="59.9307" x="2502.209" y="1370.0977">Database</text><path d="M2517.1743,1383.6113 C2517.1743,1373.6113 2535.1743,1373.6113 2535.1743,1373.6113 C2535.1743,1373.6113 2553.1743,1373.6113 2553.1743,1383.6113 L2553.1743,1409.6113 C2553.1743,1419.6113 2535.1743,1419.6113 2535.1743,1419.6113 C2535.1743,1419.6113 2517.1743,1419.6113 2517.1743,1409.6113 L2517.1743,1383.6113 " fill="#E3E3E3" style="stroke:#181818;stroke-width:1.5;"/><path d="M2517.1743,1383.6113 C2517.1743,1393.6113 2535.1743,1393.6113 2535.1743,1393.6113 C2535.1743,1393.6113 2553.1743,1393.6113 2553.1743,1383.6113 " fill="none" style="stroke:#181818;stroke-width:1.5;"/><rect fill="#FFFFFF" height="1213.748" style="stroke:#181818;stroke-width:1.0;" width="10" x="59.0171" y="133.2422"/><rect fill="#FFFFFF" height="93.5332" style="stroke:#181818;stroke-width:1.0;" width="10" x="390.8003" y="156.5332"/><rect fill="#FFFFFF" height="406.1035" style="stroke:#181818;stroke-width:1.0;" width="10" x="557.2271" y="250.0664"/><rect fill="#FFFFFF" height="281.6191" style="stroke:#181818;stroke-width:1.0;" width="10" x="557.2271" y="687.4609"/><rect fill="#FFFFFF" height="31.291" style="stroke:#181818;stroke-width:1.0;" width="10" x="557.2271" y="1000.3711"/><rect fill="#FFFFFF" height="275.0371" style="stroke:#181818;stroke-width:1.0;" width="10" x="557.2271" y="1062.9531"/><rect fill="#FFFFFF" height="281.2793" style="stroke:#181818;stroke-width:1.0;" width="10" x="836.2612" y="343.5996"/><rect fill="#FFFFFF" height="219.0371" style="stroke:#181818;stroke-width:1.0;" width="10" x="836.2612" y="718.752"/><rect fill="#FFFFFF" height="212.4551" style="stroke:#181818;stroke-width:1.0;" width="10" x="836.2612" y="1094.2441"/><rect fill="#FFFFFF" height="156.4551" style="stroke:#181818;stroke-width:1.0;" width="10" x="1514.4004" y="437.1328"/><rect fill="#FFFFFF" height="156.4551" style="stroke:#181818;stroke-width:1.0;" width="10" x="1742.2788" y="750.043"/><rect fill="#FFFFFF" height="104.582" style="stroke:#181818;stroke-width:1.0;" width="10" x="1742.2788" y="1188.1172"/><rect fill="#FFFFFF" height="31.291" style="stroke:#181818;stroke-width:1.0;" width="10" x="1920.7539" y="1125.5352"/><rect fill="#FFFFFF" height="93.873" style="stroke:#181818;stroke-width:1.0;" width="10" x="2053.6914" y="468.4238"/><rect fill="#FFFFFF" height="93.873" style="stroke:#181818;stroke-width:1.0;" width="10" x="2220.0874" y="781.334"/><rect fill="#FFFFFF" height="59.291" style="stroke:#181818;stroke-width:1.0;" width="10" x="2220.0874" y="1219.4082"/><rect fill="#FFFFFF" height="31.291" style="stroke:#181818;stroke-width:1.0;" width="10" x="2530.1743" y="499.7148"/><rect fill="#FFFFFF" height="31.291" style="stroke:#181818;stroke-width:1.0;" width="10" x="2530.1743" y="812.625"/><rect fill="#FFFFFF" height="14" style="stroke:#181818;stroke-width:1.0;" width="10" x="2530.1743" y="1250.6992"/><polygon fill="#181818" points="378.8003,152.5332,388.8003,156.5332,378.8003,160.5332,382.8003,156.5332" style="stroke:#181818;stroke-width:1.0;"/><line style="stroke:#181818;stroke-width:1.0;" x1="69.0171" x2="384.8003" y1="156.5332" y2="156.5332"/><text fill="#000000" font-family="sans-serif" font-size="13" lengthAdjust="spacing" textLength="302.7832" x="76.0171" y="151.2705">Asks to add a video of simulation to a show proposal</text><polygon fill="#181818" points="478.2412,183.8242,488.2412,187.8242,478.2412,191.8242,482.2412,187.8242" style="stroke:#181818;stroke-width:1.0;"/><line style="stroke:#181818;stroke-width:1.0;" x1="400.8003" x2="484.2412" y1="187.8242" y2="187.8242"/><text fill="#000000" font-family="sans-serif" font-size="13" lengthAdjust="spacing" textLength="36.1309" x="407.8003" y="182.5615">create</text><rect fill="#E3E3E3" height="51.2422" rx="2.5" ry="2.5" style="stroke:#181818;stroke-width:0.5;" width="143.9717" x="490.2412" y="164.5332"/><text fill="#000000" font-family="sans-serif" font-size="14" font-style="italic" lengthAdjust="spacing" textLength="92.627" x="515.9136" y="186.6406">&#171;presentation&#187;</text><text fill="#000000" font-family="sans-serif" font-size="14" lengthAdjust="spacing" textLength="129.9717" x="497.2412" y="205.2617">AddVideoProposalUI</text><polygon fill="#181818" points="545.2271,246.0664,555.2271,250.0664,545.2271,254.0664,549.2271,250.0664" style="stroke:#181818;stroke-width:1.0;"/><line style="stroke:#181818;stroke-width:1.0;" x1="395.8003" x2="551.2271" y1="250.0664" y2="250.0664"/><text fill="#000000" font-family="sans-serif" font-size="13" lengthAdjust="spacing" textLength="39.0063" x="402.8003" y="244.8037">show()</text><polygon fill="#181818" points="761.5581,277.3574,771.5581,281.3574,761.5581,285.3574,765.5581,281.3574" style="stroke:#181818;stroke-width:1.0;"/><line style="stroke:#181818;stroke-width:1.0;" x1="567.2271" x2="767.5581" y1="281.3574" y2="281.3574"/><text fill="#000000" font-family="sans-serif" font-size="13" lengthAdjust="spacing" textLength="36.1309" x="574.2271" y="276.0947">create</text><rect fill="#E3E3E3" height="51.2422" rx="2.5" ry="2.5" style="stroke:#181818;stroke-width:0.5;" width="135.4063" x="773.5581" y="258.0664"/><text fill="#000000" font-family="sans-serif" font-size="14" font-style="italic" lengthAdjust="spacing" textLength="82.5098" x="800.0063" y="280.1738">&#171;application&#187;</text><text fill="#000000" font-family="sans-serif" font-size="14" lengthAdjust="spacing" textLength="121.4063" x="780.5581" y="298.7949">AddVideoController</text><polygon fill="#181818" points="824.2612,339.5996,834.2612,343.5996,824.2612,347.5996,828.2612,343.5996" style="stroke:#181818;stroke-width:1.0;"/><line style="stroke:#181818;stroke-width:1.0;" x1="567.2271" x2="830.2612" y1="343.5996" y2="343.5996"/><text fill="#000000" font-family="sans-serif" font-size="13" lengthAdjust="spacing" textLength="87.3945" x="574.2271" y="338.3369">listCustomers()</text><polygon fill="#181818" points="1253.46,370.8906,1263.46,374.8906,1253.46,378.8906,1257.46,374.8906" style="stroke:#181818;stroke-width:1.0;"/><line style="stroke:#181818;stroke-width:1.0;" x1="846.2612" x2="1259.46" y1="374.8906" y2="374.8906"/><text fill="#000000" font-family="sans-serif" font-size="13" lengthAdjust="spacing" textLength="395.1987" x="853.2612" y="369.6279">ensureAuthenticatedUserHasAnyOf(Roles.CRM_COLLABORATOR)</text><rect fill="#E3E3E3" height="51.2422" rx="2.5" ry="2.5" style="stroke:#181818;stroke-width:0.5;" width="142.3994" x="1265.46" y="351.5996"/><text fill="#000000" font-family="sans-serif" font-size="14" font-style="italic" lengthAdjust="spacing" textLength="42.8203" x="1315.2495" y="373.707">&#171;auth&#187;</text><text fill="#000000" font-family="sans-serif" font-size="14" lengthAdjust="spacing" textLength="128.3994" x="1272.46" y="392.3281">AuthorizationService</text><polygon fill="#181818" points="1502.4004,433.1328,1512.4004,437.1328,1502.4004,441.1328,1506.4004,437.1328" style="stroke:#181818;stroke-width:1.0;"/><line style="stroke:#181818;stroke-width:1.0;" x1="846.2612" x2="1508.4004" y1="437.1328" y2="437.1328"/><text fill="#000000" font-family="sans-serif" font-size="13" lengthAdjust="spacing" textLength="142.3145" x="853.2612" y="431.8701">findAllActiveCustomers()</text><polygon fill="#181818" points="2041.6914,464.4238,2051.6914,468.4238,2041.6914,472.4238,2045.6914,468.4238" style="stroke:#181818;stroke-width:1.0;"/><line style="stroke:#181818;stroke-width:1.0;" x1="1524.4004" x2="2047.6914" y1="468.4238" y2="468.4238"/><text fill="#000000" font-family="sans-serif" font-size="13" lengthAdjust="spacing" textLength="102.5908" x="1531.4004" y="463.1611">findByActive(true)</text><polygon fill="#181818" points="2518.1743,495.7148,2528.1743,499.7148,2518.1743,503.7148,2522.1743,499.7148" style="stroke:#181818;stroke-width:1.0;"/><line style="stroke:#181818;stroke-width:1.0;" x1="2063.6914" x2="2524.1743" y1="499.7148" y2="499.7148"/><text fill="#000000" font-family="sans-serif" font-size="13" lengthAdjust="spacing" textLength="102.5908" x="2070.6914" y="494.4521">findByActive(true)</text><polygon fill="#181818" points="2074.6914,527.0059,2064.6914,531.0059,2074.6914,535.0059,2070.6914,531.0059" style="stroke:#181818;stroke-width:1.0;"/><line style="stroke:#181818;stroke-width:1.0;" x1="2068.6914" x2="2534.1743" y1="531.0059" y2="531.0059"/><text fill="#000000" font-family="sans-serif" font-size="13" lengthAdjust="spacing" textLength="104.749" x="2080.6914" y="525.7432">listOfActiveClients</text><polygon fill="#181818" points="1535.4004,558.2969,1525.4004,562.2969,1535.4004,566.2969,1531.4004,562.2969" style="stroke:#181818;stroke-width:1.0;"/><line style="stroke:#181818;stroke-width:1.0;" x1="1529.4004" x2="2057.6914" y1="562.2969" y2="562.2969"/><text fill="#000000" font-family="sans-serif" font-size="13" lengthAdjust="spacing" textLength="104.749" x="1541.4004" y="557.0342">listOfActiveClients</text><polygon fill="#181818" points="857.2612,589.5879,847.2612,593.5879,857.2612,597.5879,853.2612,593.5879" style="stroke:#181818;stroke-width:1.0;"/><line style="stroke:#181818;stroke-width:1.0;" x1="851.2612" x2="1518.4004" y1="593.5879" y2="593.5879"/><text fill="#000000" font-family="sans-serif" font-size="13" lengthAdjust="spacing" textLength="104.749" x="863.2612" y="588.3252">listOfActiveClients</text><polygon fill="#181818" points="578.2271,620.8789,568.2271,624.8789,578.2271,628.8789,574.2271,624.8789" style="stroke:#181818;stroke-width:1.0;"/><line style="stroke:#181818;stroke-width:1.0;" x1="572.2271" x2="840.2612" y1="624.8789" y2="624.8789"/><text fill="#000000" font-family="sans-serif" font-size="13" lengthAdjust="spacing" textLength="104.749" x="584.2271" y="619.6162">listOfActiveClients</text><polygon fill="#181818" points="80.0171,652.1699,70.0171,656.1699,80.0171,660.1699,76.0171,656.1699" style="stroke:#181818;stroke-width:1.0;"/><line style="stroke:#181818;stroke-width:1.0;" x1="74.0171" x2="561.2271" y1="656.1699" y2="656.1699"/><text fill="#000000" font-family="sans-serif" font-size="13" lengthAdjust="spacing" textLength="144.4917" x="86.0171" y="650.9072">displays list of customers</text><polygon fill="#181818" points="545.2271,683.4609,555.2271,687.4609,545.2271,691.4609,549.2271,687.4609" style="stroke:#181818;stroke-width:1.0;"/><line style="stroke:#181818;stroke-width:1.0;" x1="69.0171" x2="551.2271" y1="687.4609" y2="687.4609"/><text fill="#000000" font-family="sans-serif" font-size="13" lengthAdjust="spacing" textLength="108.3735" x="76.0171" y="682.1982">selects a customer</text><polygon fill="#181818" points="824.2612,714.752,834.2612,718.752,824.2612,722.752,828.2612,718.752" style="stroke:#181818;stroke-width:1.0;"/><line style="stroke:#181818;stroke-width:1.0;" x1="567.2271" x2="830.2612" y1="718.752" y2="718.752"/><text fill="#000000" font-family="sans-serif" font-size="13" lengthAdjust="spacing" textLength="168.3335" x="574.2271" y="713.4893">listShowProposals(customer)</text><polygon fill="#181818" points="1730.2788,746.043,1740.2788,750.043,1730.2788,754.043,1734.2788,750.043" style="stroke:#181818;stroke-width:1.0;"/><line style="stroke:#181818;stroke-width:1.0;" x1="846.2612" x2="1736.2788" y1="750.043" y2="750.043"/><text fill="#000000" font-family="sans-serif" font-size="13" lengthAdjust="spacing" textLength="281.0869" x="853.2612" y="744.7803">findByPendingAndEmptyVideo(customer, status)</text><polygon fill="#181818" points="2208.0874,777.334,2218.0874,781.334,2208.0874,785.334,2212.0874,781.334" style="stroke:#181818;stroke-width:1.0;"/><line style="stroke:#181818;stroke-width:1.0;" x1="1752.2788" x2="2214.0874" y1="781.334" y2="781.334"/><text fill="#000000" font-family="sans-serif" font-size="13" lengthAdjust="spacing" textLength="281.0869" x="1759.2788" y="776.0713">findByPendingAndEmptyVideo(customer, status)</text><polygon fill="#181818" points="2518.1743,808.625,2528.1743,812.625,2518.1743,816.625,2522.1743,812.625" style="stroke:#181818;stroke-width:1.0;"/><line style="stroke:#181818;stroke-width:1.0;" x1="2230.0874" x2="2524.1743" y1="812.625" y2="812.625"/><text fill="#000000" font-family="sans-serif" font-size="13" lengthAdjust="spacing" textLength="281.0869" x="2237.0874" y="807.3623">findByPendingAndEmptyVideo(customer, status)</text><polygon fill="#181818" points="2241.0874,839.916,2231.0874,843.916,2241.0874,847.916,2237.0874,843.916" style="stroke:#181818;stroke-width:1.0;"/><line style="stroke:#181818;stroke-width:1.0;" x1="2235.0874" x2="2534.1743" y1="843.916" y2="843.916"/><text fill="#000000" font-family="sans-serif" font-size="13" lengthAdjust="spacing" textLength="119.939" x="2247.0874" y="838.6533">listOfShowProposals</text><polygon fill="#181818" points="1763.2788,871.207,1753.2788,875.207,1763.2788,879.207,1759.2788,875.207" style="stroke:#181818;stroke-width:1.0;"/><line style="stroke:#181818;stroke-width:1.0;" x1="1757.2788" x2="2224.0874" y1="875.207" y2="875.207"/><text fill="#000000" font-family="sans-serif" font-size="13" lengthAdjust="spacing" textLength="119.939" x="1769.2788" y="869.9443">listOfShowProposals</text><polygon fill="#181818" points="857.2612,902.498,847.2612,906.498,857.2612,910.498,853.2612,906.498" style="stroke:#181818;stroke-width:1.0;"/><line style="stroke:#181818;stroke-width:1.0;" x1="851.2612" x2="1746.2788" y1="906.498" y2="906.498"/><text fill="#000000" font-family="sans-serif" font-size="13" lengthAdjust="spacing" textLength="119.939" x="863.2612" y="901.2354">listOfShowProposals</text><polygon fill="#181818" points="578.2271,933.7891,568.2271,937.7891,578.2271,941.7891,574.2271,937.7891" style="stroke:#181818;stroke-width:1.0;"/><line style="stroke:#181818;stroke-width:1.0;" x1="572.2271" x2="840.2612" y1="937.7891" y2="937.7891"/><text fill="#000000" font-family="sans-serif" font-size="13" lengthAdjust="spacing" textLength="119.939" x="584.2271" y="932.5264">listOfShowProposals</text><polygon fill="#181818" points="80.0171,965.0801,70.0171,969.0801,80.0171,973.0801,76.0171,969.0801" style="stroke:#181818;stroke-width:1.0;"/><line style="stroke:#181818;stroke-width:1.0;" x1="74.0171" x2="561.2271" y1="969.0801" y2="969.0801"/><text fill="#000000" font-family="sans-serif" font-size="13" lengthAdjust="spacing" textLength="283.2515" x="86.0171" y="963.8174">displays the list of show proposal of the customer</text><polygon fill="#181818" points="545.2271,996.3711,555.2271,1000.3711,545.2271,1004.3711,549.2271,1000.3711" style="stroke:#181818;stroke-width:1.0;"/><line style="stroke:#181818;stroke-width:1.0;" x1="69.0171" x2="551.2271" y1="1000.3711" y2="1000.3711"/><text fill="#000000" font-family="sans-serif" font-size="13" lengthAdjust="spacing" textLength="138.7407" x="76.0171" y="995.1084">selects a show proposal</text><polygon fill="#181818" points="80.0171,1027.6621,70.0171,1031.6621,80.0171,1035.6621,76.0171,1031.6621" style="stroke:#181818;stroke-width:1.0;"/><line style="stroke:#181818;stroke-width:1.0;" x1="74.0171" x2="561.2271" y1="1031.6621" y2="1031.6621"/><text fill="#000000" font-family="sans-serif" font-size="13" lengthAdjust="spacing" textLength="207.397" x="86.0171" y="1026.3994">request a video file of the simulation</text><polygon fill="#181818" points="545.2271,1058.9531,555.2271,1062.9531,545.2271,1066.9531,549.2271,1062.9531" style="stroke:#181818;stroke-width:1.0;"/><line style="stroke:#181818;stroke-width:1.0;" x1="69.0171" x2="551.2271" y1="1062.9531" y2="1062.9531"/><text fill="#000000" font-family="sans-serif" font-size="13" lengthAdjust="spacing" textLength="85.2681" x="76.0171" y="1057.6904">gives video file</text><polygon fill="#181818" points="824.2612,1090.2441,834.2612,1094.2441,824.2612,1098.2441,828.2612,1094.2441" style="stroke:#181818;stroke-width:1.0;"/><line style="stroke:#181818;stroke-width:1.0;" x1="567.2271" x2="830.2612" y1="1094.2441" y2="1094.2441"/><text fill="#000000" font-family="sans-serif" font-size="13" lengthAdjust="spacing" textLength="250.0342" x="574.2271" y="1088.9814">addVideoToProposal(video, showProposal)</text><polygon fill="#181818" points="1908.7539,1121.5352,1918.7539,1125.5352,1908.7539,1129.5352,1912.7539,1125.5352" style="stroke:#181818;stroke-width:1.0;"/><line style="stroke:#181818;stroke-width:1.0;" x1="846.2612" x2="1914.7539" y1="1125.5352" y2="1125.5352"/><text fill="#000000" font-family="sans-serif" font-size="13" lengthAdjust="spacing" textLength="250.0342" x="853.2612" y="1120.2725">addVideoToProposal(video, showProposal)</text><polygon fill="#181818" points="857.2612,1152.8262,847.2612,1156.8262,857.2612,1160.8262,853.2612,1156.8262" style="stroke:#181818;stroke-width:1.0;"/><line style="stroke:#181818;stroke-width:1.0;" x1="851.2612" x2="1924.7539" y1="1156.8262" y2="1156.8262"/><text fill="#000000" font-family="sans-serif" font-size="13" lengthAdjust="spacing" textLength="130.8188" x="863.2612" y="1151.5635">updatedShowProposal</text><polygon fill="#181818" points="1730.2788,1184.1172,1740.2788,1188.1172,1730.2788,1192.1172,1734.2788,1188.1172" style="stroke:#181818;stroke-width:1.0;"/><line style="stroke:#181818;stroke-width:1.0;" x1="846.2612" x2="1736.2788" y1="1188.1172" y2="1188.1172"/><text fill="#000000" font-family="sans-serif" font-size="13" lengthAdjust="spacing" textLength="85.9854" x="853.2612" y="1182.8545">save(proposal)</text><polygon fill="#181818" points="2208.0874,1215.4082,2218.0874,1219.4082,2208.0874,1223.4082,2212.0874,1219.4082" style="stroke:#181818;stroke-width:1.0;"/><line style="stroke:#181818;stroke-width:1.0;" x1="1752.2788" x2="2214.0874" y1="1219.4082" y2="1219.4082"/><text fill="#000000" font-family="sans-serif" font-size="13" lengthAdjust="spacing" textLength="85.9854" x="1759.2788" y="1214.1455">save(proposal)</text><polygon fill="#181818" points="2518.1743,1246.6992,2528.1743,1250.6992,2518.1743,1254.6992,2522.1743,1250.6992" style="stroke:#181818;stroke-width:1.0;"/><line style="stroke:#181818;stroke-width:1.0;" x1="2230.0874" x2="2524.1743" y1="1250.6992" y2="1250.6992"/><text fill="#000000" font-family="sans-serif" font-size="13" lengthAdjust="spacing" textLength="36.1182" x="2237.0874" y="1245.4365">save()</text><polygon fill="#181818" points="2241.0874,1260.6992,2231.0874,1264.6992,2241.0874,1268.6992,2237.0874,1264.6992" style="stroke:#181818;stroke-width:1.0;"/><line style="stroke:#181818;stroke-width:1.0;stroke-dasharray:2.0,2.0;" x1="2235.0874" x2="2534.1743" y1="1264.6992" y2="1264.6992"/><polygon fill="#181818" points="1763.2788,1274.6992,1753.2788,1278.6992,1763.2788,1282.6992,1759.2788,1278.6992" style="stroke:#181818;stroke-width:1.0;"/><line style="stroke:#181818;stroke-width:1.0;stroke-dasharray:2.0,2.0;" x1="1757.2788" x2="2224.0874" y1="1278.6992" y2="1278.6992"/><polygon fill="#181818" points="857.2612,1288.6992,847.2612,1292.6992,857.2612,1296.6992,853.2612,1292.6992" style="stroke:#181818;stroke-width:1.0;"/><line style="stroke:#181818;stroke-width:1.0;stroke-dasharray:2.0,2.0;" x1="851.2612" x2="1746.2788" y1="1292.6992" y2="1292.6992"/><polygon fill="#181818" points="578.2271,1302.6992,568.2271,1306.6992,578.2271,1310.6992,574.2271,1306.6992" style="stroke:#181818;stroke-width:1.0;"/><line style="stroke:#181818;stroke-width:1.0;stroke-dasharray:2.0,2.0;" x1="572.2271" x2="840.2612" y1="1306.6992" y2="1306.6992"/><polygon fill="#181818" points="80.0171,1333.9902,70.0171,1337.9902,80.0171,1341.9902,76.0171,1337.9902" style="stroke:#181818;stroke-width:1.0;"/><line style="stroke:#181818;stroke-width:1.0;" x1="74.0171" x2="561.2271" y1="1337.9902" y2="1337.9902"/><text fill="#000000" font-family="sans-serif" font-size="13" lengthAdjust="spacing" textLength="155.3589" x="86.0171" y="1332.7275">displays operation success</text><!--SRC=[jLVBRjim4BphAmYV72CfYlOM504Kfq0D97NWHwy58z4s4KbKISg1-_LTKc-9b1W5rSdcaZEprEvuBLvfacAEOnIpX0KdpcA29C-89wf8YeDNV2HRUOa8uYIGE3b6pGtYX4FsHfCZEk184C_3WMGSpPQR9xHaKOHV6CUmCaDOe837pJKF82GDQ8eJYMP-6FwY8M7FdALCuCWF96M9FkSlTwlrJ_JjMyg988d4Ad9tDtn-lz9dzol7SqkMI0xgIAvrkTiymacSfX4Dp0SpUMAS_jN1BU5d6f1ShY6We62vYx7CX8HhvqyuWMkEGMCJo1eT5hOziRVo5ip0WplSmNjOS3HaCQQ9BSyDWNqKtlsbbM2z30Yy-ZB4tK4oXxfe8PRu1Gk2PW_59tsu_E9vaaeez2tvav44RkA1ugEgyXkqttxv-bbNDprZINgbx25uEelevguitLlaYrU194Cu3156PrLnY1sGe74MwOlMGUWdzeRI8X4DMb7cK3cJUWfe8Dcl5WkW23Y1VSOuH1No_AgAXiGAN0NsgteHC019TSLYqQEgWq0KKI7B5oiQZ1MisbS3gqUVLBTbw1oT6ab4neaAGvsgoYJXNX3-0mi_kQmFymsBYFW4flDxkNvyzE_N6t-ttbmPIUnTTOiED0dzI7lFcPYIQ2TYGsfdfycjf0r5ZSBDfTnVSYLpPSjNFT2Ua1gWhw2fea44z6Nvkv6sYElEGPQd0hVbgSfbVIXkFA9mCy88rYZOOLPpaaDltKL2WzxbjeVVTzqeGxG6of5AAqjSD_mGV1DQTMExaRi-Tej2Aj88NuG6LRuLbBtXTU1App1uOMv3988nGe3LbH2UW-SKwJHTNinBW7TPpF1FNza1poG9OQZna_1xdCgB7X0glciaO9J8XCKL1XdwbJ8igAFOu10Jf5hbZlc7HOh9GoRA-e2xMEyfRuHMxNpCOUpNC5PTBb8QCbpVpMWDjHp7Jc-XVh_hc2cwhkDkE_2xNrbFQqHI2ohOCfD9TZGmUVKzgI-LgvaH19QptO7285c8guUyzyexWdUB1gAZL-BYFysk-ZSqrnZNEijoRR9lJc2mMivmCJTooj9GZNsjimwrE-rNG62OVrBtBFwhpm-8SN7oxlxfpgw5k7gsQPU3ZmzSXBDfErFRiXwla0ckFQfef4AgLfXcsLRgl2SAnncT4DqzcwM4v_ziHHO4H9X6nNy0]--></g></svg>