<svg xmlns="http://www.w3.org/2000/svg" xmlns:xlink="http://www.w3.org/1999/xlink" contentStyleType="text/css" height="1039px" preserveAspectRatio="none" style="width:2632px;height:1039px;background:#FFFFFF;" version="1.1" viewBox="0 0 2632 1039" width="2632px" zoomAndPan="magnify"><title>Sequence Diagram</title><defs/><g><text fill="#000000" font-family="sans-serif" font-size="14" font-weight="bold" lengthAdjust="spacing" textLength="126.0479" x="1254.4001" y="30.1074">Sequence Diagram</text><rect fill="#FFFFFF" height="804.8867" style="stroke:#181818;stroke-width:1.0;" width="10" x="59.0171" y="133.2422"/><rect fill="#FFFFFF" height="128.1152" style="stroke:#181818;stroke-width:1.0;" width="10" x="613.9756" y="156.5332"/><rect fill="#FFFFFF" height="622.1895" style="stroke:#181818;stroke-width:1.0;" width="10" x="613.9756" y="315.9395"/><rect fill="#FFFFFF" height="525.0254" style="stroke:#181818;stroke-width:1.0;" width="10" x="1163.9341" y="381.8125"/><rect fill="#FFFFFF" height="167.1641" style="stroke:#181818;stroke-width:1.0;" width="10" x="1661.4761" y="492.6367"/><rect fill="#FFFFFF" height="167.1641" style="stroke:#181818;stroke-width:1.0;" width="10" x="1891.2993" y="725.6738"/><rect fill="#FFFFFF" height="31.291" style="stroke:#181818;stroke-width:1.0;" width="10" x="2057.3262" y="523.9277"/><rect fill="#FFFFFF" height="31.291" style="stroke:#181818;stroke-width:1.0;" width="10" x="2159.1533" y="756.9648"/><rect fill="#FFFFFF" height="59.291" style="stroke:#181818;stroke-width:1.0;" width="10" x="2294.0356" y="586.5098"/><rect fill="#FFFFFF" height="59.291" style="stroke:#181818;stroke-width:1.0;" width="10" x="2462.3765" y="819.5469"/><rect fill="#FFFFFF" height="14" style="stroke:#181818;stroke-width:1.0;" width="10" x="2592.8828" y="617.8008"/><rect fill="#FFFFFF" height="14" style="stroke:#181818;stroke-width:1.0;" width="10" x="2592.8828" y="850.8379"/><line style="stroke:#181818;stroke-width:0.5;stroke-dasharray:5.0,5.0;" x1="64" x2="64" y1="123.2422" y2="956.1289"/><line style="stroke:#181818;stroke-width:0.5;stroke-dasharray:5.0,5.0;" x1="618.5688" x2="618.5688" y1="123.2422" y2="956.1289"/><line style="stroke:#181818;stroke-width:0.5;stroke-dasharray:5.0,5.0;" x1="1168.1826" x2="1168.1826" y1="205.6543" y2="956.1289"/><line style="stroke:#181818;stroke-width:0.5;stroke-dasharray:5.0,5.0;" x1="1483.5356" x2="1483.5356" y1="430.9336" y2="956.1289"/><line style="stroke:#181818;stroke-width:0.5;stroke-dasharray:5.0,5.0;" x1="1665.9351" x2="1665.9351" y1="123.2422" y2="956.1289"/><line style="stroke:#181818;stroke-width:0.5;stroke-dasharray:5.0,5.0;" x1="1896.0171" x2="1896.0171" y1="123.2422" y2="956.1289"/><line style="stroke:#181818;stroke-width:0.5;stroke-dasharray:5.0,5.0;" x1="2061.5815" x2="2061.5815" y1="123.2422" y2="956.1289"/><line style="stroke:#181818;stroke-width:0.5;stroke-dasharray:5.0,5.0;" x1="2164.0708" x2="2164.0708" y1="123.2422" y2="956.1289"/><line style="stroke:#181818;stroke-width:0.5;stroke-dasharray:5.0,5.0;" x1="2298.2358" x2="2298.2358" y1="123.2422" y2="956.1289"/><line style="stroke:#181818;stroke-width:0.5;stroke-dasharray:5.0,5.0;" x1="2466.8354" x2="2466.8354" y1="123.2422" y2="956.1289"/><line style="stroke:#181818;stroke-width:0.5;stroke-dasharray:5.0,5.0;" x1="2596.9175" x2="2596.9175" y1="123.2422" y2="956.1289"/><text fill="#000000" font-family="sans-serif" font-size="14" lengthAdjust="spacing" textLength="112.0342" x="5" y="119.7285">CRM Collaborator</text><ellipse cx="64.0171" cy="53.1211" fill="#E2E2F0" rx="8" ry="8" style="stroke:#181818;stroke-width:0.5;"/><path d="M64.0171,61.1211 L64.0171,88.1211 M51.0171,69.1211 L77.0171,69.1211 M64.0171,88.1211 L51.0171,103.1211 M64.0171,88.1211 L77.0171,103.1211 " fill="none" style="stroke:#181818;stroke-width:0.5;"/><text fill="#000000" font-family="sans-serif" font-size="14" lengthAdjust="spacing" textLength="112.0342" x="5" y="970.2363">CRM Collaborator</text><ellipse cx="64.0171" cy="982.25" fill="#E2E2F0" rx="8" ry="8" style="stroke:#181818;stroke-width:0.5;"/><path d="M64.0171,990.25 L64.0171,1017.25 M51.0171,998.25 L77.0171,998.25 M64.0171,1017.25 L51.0171,1032.25 M64.0171,1017.25 L77.0171,1032.25 " fill="none" style="stroke:#181818;stroke-width:0.5;"/><rect fill="#E2E2F0" height="51.2422" rx="2.5" ry="2.5" style="stroke:#181818;stroke-width:0.5;" width="140.8135" x="548.5688" y="71"/><text fill="#000000" font-family="sans-serif" font-size="14" font-style="italic" lengthAdjust="spacing" textLength="92.627" x="572.6621" y="93.1074">&#171;presentation&#187;</text><text fill="#000000" font-family="sans-serif" font-size="14" lengthAdjust="spacing" textLength="126.8135" x="555.5688" y="111.7285">RegisterCustomerUI</text><rect fill="#E2E2F0" height="51.2422" rx="2.5" ry="2.5" style="stroke:#181818;stroke-width:0.5;" width="140.8135" x="548.5688" y="955.1289"/><text fill="#000000" font-family="sans-serif" font-size="14" font-style="italic" lengthAdjust="spacing" textLength="92.627" x="572.6621" y="977.2363">&#171;presentation&#187;</text><text fill="#000000" font-family="sans-serif" font-size="14" lengthAdjust="spacing" textLength="126.8135" x="555.5688" y="995.8574">RegisterCustomerUI</text><rect fill="#E2E2F0" height="51.2422" rx="2.5" ry="2.5" style="stroke:#181818;stroke-width:0.5;" width="187.5029" x="1075.1826" y="955.1289"/><text fill="#000000" font-family="sans-serif" font-size="14" font-style="italic" lengthAdjust="spacing" textLength="82.5098" x="1127.6792" y="977.2363">&#171;application&#187;</text><text fill="#000000" font-family="sans-serif" font-size="14" lengthAdjust="spacing" textLength="173.5029" x="1082.1826" y="995.8574">RegisterCustomerController</text><rect fill="#E2E2F0" height="51.2422" rx="2.5" ry="2.5" style="stroke:#181818;stroke-width:0.5;" width="142.3994" x="1412.5356" y="955.1289"/><text fill="#000000" font-family="sans-serif" font-size="14" font-style="italic" lengthAdjust="spacing" textLength="42.8203" x="1462.3252" y="977.2363">&#171;auth&#187;</text><text fill="#000000" font-family="sans-serif" font-size="14" lengthAdjust="spacing" textLength="128.3994" x="1419.5356" y="995.8574">AuthorizationService</text><rect fill="#E2E2F0" height="51.2422" rx="2.5" ry="2.5" style="stroke:#181818;stroke-width:0.5;" width="203.082" x="1564.9351" y="71"/><text fill="#000000" font-family="sans-serif" font-size="14" font-style="italic" lengthAdjust="spacing" textLength="82.5098" x="1625.2212" y="93.1074">&#171;application&#187;</text><text fill="#000000" font-family="sans-serif" font-size="14" lengthAdjust="spacing" textLength="189.082" x="1571.9351" y="111.7285">CustomerManagementService</text><rect fill="#E2E2F0" height="51.2422" rx="2.5" ry="2.5" style="stroke:#181818;stroke-width:0.5;" width="203.082" x="1564.9351" y="955.1289"/><text fill="#000000" font-family="sans-serif" font-size="14" font-style="italic" lengthAdjust="spacing" textLength="82.5098" x="1625.2212" y="977.2363">&#171;application&#187;</text><text fill="#000000" font-family="sans-serif" font-size="14" lengthAdjust="spacing" textLength="189.082" x="1571.9351" y="995.8574">CustomerManagementService</text><rect fill="#E2E2F0" height="51.2422" rx="2.5" ry="2.5" style="stroke:#181818;stroke-width:0.5;" width="236.5645" x="1778.0171" y="71"/><text fill="#000000" font-family="sans-serif" font-size="14" font-style="italic" lengthAdjust="spacing" textLength="82.5098" x="1855.0444" y="93.1074">&#171;application&#187;</text><text fill="#000000" font-family="sans-serif" font-size="14" lengthAdjust="spacing" textLength="222.5645" x="1785.0171" y="111.7285">RepresentativeManagementService</text><rect fill="#E2E2F0" height="51.2422" rx="2.5" ry="2.5" style="stroke:#181818;stroke-width:0.5;" width="236.5645" x="1778.0171" y="955.1289"/><text fill="#000000" font-family="sans-serif" font-size="14" font-style="italic" lengthAdjust="spacing" textLength="82.5098" x="1855.0444" y="977.2363">&#171;application&#187;</text><text fill="#000000" font-family="sans-serif" font-size="14" lengthAdjust="spacing" textLength="222.5645" x="1785.0171" y="995.8574">RepresentativeManagementService</text><rect fill="#E2E2F0" height="51.2422" rx="2.5" ry="2.5" style="stroke:#181818;stroke-width:0.5;" width="75.4893" x="2024.5815" y="71"/><text fill="#000000" font-family="sans-serif" font-size="14" font-style="italic" lengthAdjust="spacing" textLength="61.4893" x="2031.5815" y="93.1074">&#171;domain&#187;</text><text fill="#000000" font-family="sans-serif" font-size="14" lengthAdjust="spacing" textLength="60.6826" x="2031.9849" y="111.7285">Customer</text><rect fill="#E2E2F0" height="51.2422" rx="2.5" ry="2.5" style="stroke:#181818;stroke-width:0.5;" width="75.4893" x="2024.5815" y="955.1289"/><text fill="#000000" font-family="sans-serif" font-size="14" font-style="italic" lengthAdjust="spacing" textLength="61.4893" x="2031.5815" y="977.2363">&#171;domain&#187;</text><text fill="#000000" font-family="sans-serif" font-size="14" lengthAdjust="spacing" textLength="60.6826" x="2031.9849" y="995.8574">Customer</text><rect fill="#E2E2F0" height="51.2422" rx="2.5" ry="2.5" style="stroke:#181818;stroke-width:0.5;" width="108.165" x="2110.0708" y="71"/><text fill="#000000" font-family="sans-serif" font-size="14" font-style="italic" lengthAdjust="spacing" textLength="61.4893" x="2133.4087" y="93.1074">&#171;domain&#187;</text><text fill="#000000" font-family="sans-serif" font-size="14" lengthAdjust="spacing" textLength="94.165" x="2117.0708" y="111.7285">Representative</text><rect fill="#E2E2F0" height="51.2422" rx="2.5" ry="2.5" style="stroke:#181818;stroke-width:0.5;" width="108.165" x="2110.0708" y="955.1289"/><text fill="#000000" font-family="sans-serif" font-size="14" font-style="italic" lengthAdjust="spacing" textLength="61.4893" x="2133.4087" y="977.2363">&#171;domain&#187;</text><text fill="#000000" font-family="sans-serif" font-size="14" lengthAdjust="spacing" textLength="94.165" x="2117.0708" y="995.8574">Representative</text><rect fill="#E2E2F0" height="51.2422" rx="2.5" ry="2.5" style="stroke:#181818;stroke-width:0.5;" width="141.5996" x="2228.2358" y="71"/><text fill="#000000" font-family="sans-serif" font-size="14" font-style="italic" lengthAdjust="spacing" textLength="77.041" x="2260.5151" y="93.1074">&#171;repository&#187;</text><text fill="#000000" font-family="sans-serif" font-size="14" lengthAdjust="spacing" textLength="127.5996" x="2235.2358" y="111.7285">CustomerRepository</text><rect fill="#E2E2F0" height="51.2422" rx="2.5" ry="2.5" style="stroke:#181818;stroke-width:0.5;" width="141.5996" x="2228.2358" y="955.1289"/><text fill="#000000" font-family="sans-serif" font-size="14" font-style="italic" lengthAdjust="spacing" textLength="77.041" x="2260.5151" y="977.2363">&#171;repository&#187;</text><text fill="#000000" font-family="sans-serif" font-size="14" lengthAdjust="spacing" textLength="127.5996" x="2235.2358" y="995.8574">CustomerRepository</text><rect fill="#E2E2F0" height="51.2422" rx="2.5" ry="2.5" style="stroke:#181818;stroke-width:0.5;" width="175.082" x="2379.8354" y="71"/><text fill="#000000" font-family="sans-serif" font-size="14" font-style="italic" lengthAdjust="spacing" textLength="77.041" x="2428.856" y="93.1074">&#171;repository&#187;</text><text fill="#000000" font-family="sans-serif" font-size="14" lengthAdjust="spacing" textLength="161.082" x="2386.8354" y="111.7285">RepresentativeRepository</text><rect fill="#E2E2F0" height="51.2422" rx="2.5" ry="2.5" style="stroke:#181818;stroke-width:0.5;" width="175.082" x="2379.8354" y="955.1289"/><text fill="#000000" font-family="sans-serif" font-size="14" font-style="italic" lengthAdjust="spacing" textLength="77.041" x="2428.856" y="977.2363">&#171;repository&#187;</text><text fill="#000000" font-family="sans-serif" font-size="14" lengthAdjust="spacing" textLength="161.082" x="2386.8354" y="995.8574">RepresentativeRepository</text><text fill="#000000" font-family="sans-serif" font-size="14" lengthAdjust="spacing" textLength="59.9307" x="2564.9175" y="119.7285">Database</text><path d="M2579.8828,68.6211 C2579.8828,58.6211 2597.8828,58.6211 2597.8828,58.6211 C2597.8828,58.6211 2615.8828,58.6211 2615.8828,68.6211 L2615.8828,94.6211 C2615.8828,104.6211 2597.8828,104.6211 2597.8828,104.6211 C2597.8828,104.6211 2579.8828,104.6211 2579.8828,94.6211 L2579.8828,68.6211 " fill="#E2E2F0" style="stroke:#181818;stroke-width:1.5;"/><path d="M2579.8828,68.6211 C2579.8828,78.6211 2597.8828,78.6211 2597.8828,78.6211 C2597.8828,78.6211 2615.8828,78.6211 2615.8828,68.6211 " fill="none" style="stroke:#181818;stroke-width:1.5;"/><text fill="#000000" font-family="sans-serif" font-size="14" lengthAdjust="spacing" textLength="59.9307" x="2564.9175" y="970.2363">Database</text><path d="M2579.8828,983.75 C2579.8828,973.75 2597.8828,973.75 2597.8828,973.75 C2597.8828,973.75 2615.8828,973.75 2615.8828,983.75 L2615.8828,1009.75 C2615.8828,1019.75 2597.8828,1019.75 2597.8828,1019.75 C2597.8828,1019.75 2579.8828,1019.75 2579.8828,1009.75 L2579.8828,983.75 " fill="#E2E2F0" style="stroke:#181818;stroke-width:1.5;"/><path d="M2579.8828,983.75 C2579.8828,993.75 2597.8828,993.75 2597.8828,993.75 C2597.8828,993.75 2615.8828,993.75 2615.8828,983.75 " fill="none" style="stroke:#181818;stroke-width:1.5;"/><rect fill="#FFFFFF" height="804.8867" style="stroke:#181818;stroke-width:1.0;" width="10" x="59.0171" y="133.2422"/><rect fill="#FFFFFF" height="128.1152" style="stroke:#181818;stroke-width:1.0;" width="10" x="613.9756" y="156.5332"/><rect fill="#FFFFFF" height="622.1895" style="stroke:#181818;stroke-width:1.0;" width="10" x="613.9756" y="315.9395"/><rect fill="#FFFFFF" height="525.0254" style="stroke:#181818;stroke-width:1.0;" width="10" x="1163.9341" y="381.8125"/><rect fill="#FFFFFF" height="167.1641" style="stroke:#181818;stroke-width:1.0;" width="10" x="1661.4761" y="492.6367"/><rect fill="#FFFFFF" height="167.1641" style="stroke:#181818;stroke-width:1.0;" width="10" x="1891.2993" y="725.6738"/><rect fill="#FFFFFF" height="31.291" style="stroke:#181818;stroke-width:1.0;" width="10" x="2057.3262" y="523.9277"/><rect fill="#FFFFFF" height="31.291" style="stroke:#181818;stroke-width:1.0;" width="10" x="2159.1533" y="756.9648"/><rect fill="#FFFFFF" height="59.291" style="stroke:#181818;stroke-width:1.0;" width="10" x="2294.0356" y="586.5098"/><rect fill="#FFFFFF" height="59.291" style="stroke:#181818;stroke-width:1.0;" width="10" x="2462.3765" y="819.5469"/><rect fill="#FFFFFF" height="14" style="stroke:#181818;stroke-width:1.0;" width="10" x="2592.8828" y="617.8008"/><rect fill="#FFFFFF" height="14" style="stroke:#181818;stroke-width:1.0;" width="10" x="2592.8828" y="850.8379"/><polygon fill="#181818" points="601.9756,152.5332,611.9756,156.5332,601.9756,160.5332,605.9756,156.5332" style="stroke:#181818;stroke-width:1.0;"/><line style="stroke:#181818;stroke-width:1.0;" x1="69.0171" x2="607.9756" y1="156.5332" y2="156.5332"/><text fill="#000000" font-family="sans-serif" font-size="13" lengthAdjust="spacing" textLength="39.0063" x="76.0171" y="151.2705">show()</text><polygon fill="#181818" points="1063.1826,183.8242,1073.1826,187.8242,1063.1826,191.8242,1067.1826,187.8242" style="stroke:#181818;stroke-width:1.0;"/><line style="stroke:#181818;stroke-width:1.0;" x1="623.9756" x2="1069.1826" y1="187.8242" y2="187.8242"/><text fill="#000000" font-family="sans-serif" font-size="13" lengthAdjust="spacing" textLength="44.7891" x="630.9756" y="182.5615">create()</text><rect fill="#E2E2F0" height="51.2422" rx="2.5" ry="2.5" style="stroke:#181818;stroke-width:0.5;" width="187.5029" x="1075.1826" y="164.5332"/><text fill="#000000" font-family="sans-serif" font-size="14" font-style="italic" lengthAdjust="spacing" textLength="82.5098" x="1127.6792" y="186.6406">&#171;application&#187;</text><text fill="#000000" font-family="sans-serif" font-size="14" lengthAdjust="spacing" textLength="173.5029" x="1082.1826" y="205.2617">RegisterCustomerController</text><polygon fill="#181818" points="80.0171,280.6484,70.0171,284.6484,80.0171,288.6484,76.0171,284.6484" style="stroke:#181818;stroke-width:1.0;"/><line style="stroke:#181818;stroke-width:1.0;stroke-dasharray:2.0,2.0;" x1="74.0171" x2="617.9756" y1="284.6484" y2="284.6484"/><text fill="#000000" font-family="sans-serif" font-size="13" lengthAdjust="spacing" textLength="418.3359" x="86.0171" y="244.8037">Request Customer Information (Name, Email,Password, Phone Number,</text><text fill="#000000" font-family="sans-serif" font-size="13" lengthAdjust="spacing" textLength="517.3467" x="89.6289" y="262.0947">VatNumber, Address, representativeName, representativeEmail, representativePassword,</text><text fill="#000000" font-family="sans-serif" font-size="13" lengthAdjust="spacing" textLength="306.3887" x="89.6289" y="279.3857">representativePhoneNumber, representativePosition)</text><polygon fill="#181818" points="601.9756,311.9395,611.9756,315.9395,601.9756,319.9395,605.9756,315.9395" style="stroke:#181818;stroke-width:1.0;"/><line style="stroke:#181818;stroke-width:1.0;" x1="69.0171" x2="607.9756" y1="315.9395" y2="315.9395"/><text fill="#000000" font-family="sans-serif" font-size="13" lengthAdjust="spacing" textLength="121.3862" x="76.0171" y="310.6768">Insert Customer data</text><polygon fill="#181818" points="1151.9341,377.8125,1161.9341,381.8125,1151.9341,385.8125,1155.9341,381.8125" style="stroke:#181818;stroke-width:1.0;"/><line style="stroke:#181818;stroke-width:1.0;" x1="623.9756" x2="1157.9341" y1="381.8125" y2="381.8125"/><text fill="#000000" font-family="sans-serif" font-size="13" lengthAdjust="spacing" textLength="337.397" x="630.9756" y="341.9678">registerCustomer(Name, Email,Password, Phone Number,</text><text fill="#000000" font-family="sans-serif" font-size="13" lengthAdjust="spacing" textLength="517.3467" x="634.5874" y="359.2588">VatNumber, Address, representativeName, representativeEmail, representativePassword,</text><text fill="#000000" font-family="sans-serif" font-size="13" lengthAdjust="spacing" textLength="306.3887" x="634.5874" y="376.5498">representativePhoneNumber, representativePosition)</text><polygon fill="#181818" points="1400.5356,409.1035,1410.5356,413.1035,1400.5356,417.1035,1404.5356,413.1035" style="stroke:#181818;stroke-width:1.0;"/><line style="stroke:#181818;stroke-width:1.0;" x1="1173.9341" x2="1406.5356" y1="413.1035" y2="413.1035"/><text fill="#000000" font-family="sans-serif" font-size="13" lengthAdjust="spacing" textLength="214.6016" x="1180.9341" y="407.8408">ensureAuthenticatedUserHasAnyOf()</text><rect fill="#E2E2F0" height="51.2422" rx="2.5" ry="2.5" style="stroke:#181818;stroke-width:0.5;" width="142.3994" x="1412.5356" y="389.8125"/><text fill="#000000" font-family="sans-serif" font-size="14" font-style="italic" lengthAdjust="spacing" textLength="42.8203" x="1462.3252" y="411.9199">&#171;auth&#187;</text><text fill="#000000" font-family="sans-serif" font-size="14" lengthAdjust="spacing" textLength="128.3994" x="1419.5356" y="430.541">AuthorizationService</text><polygon fill="#181818" points="1649.4761,488.6367,1659.4761,492.6367,1649.4761,496.6367,1653.4761,492.6367" style="stroke:#181818;stroke-width:1.0;"/><line style="stroke:#181818;stroke-width:1.0;" x1="1173.9341" x2="1655.4761" y1="492.6367" y2="492.6367"/><text fill="#000000" font-family="sans-serif" font-size="13" lengthAdjust="spacing" textLength="363.4033" x="1180.9341" y="470.083">registerNewCustomer(Name, Email,Password, Phone Number,</text><text fill="#000000" font-family="sans-serif" font-size="13" lengthAdjust="spacing" textLength="124.9917" x="1184.5459" y="487.374">VatNumber, Address)</text><polygon fill="#181818" points="2045.3262,519.9277,2055.3262,523.9277,2045.3262,527.9277,2049.3262,523.9277" style="stroke:#181818;stroke-width:1.0;"/><line style="stroke:#181818;stroke-width:1.0;" x1="1671.4761" x2="2051.3262" y1="523.9277" y2="523.9277"/><text fill="#000000" font-family="sans-serif" font-size="13" lengthAdjust="spacing" textLength="44.7891" x="1678.4761" y="518.665">create()</text><polygon fill="#181818" points="1682.4761,551.2188,1672.4761,555.2188,1682.4761,559.2188,1678.4761,555.2188" style="stroke:#181818;stroke-width:1.0;"/><line style="stroke:#181818;stroke-width:1.0;" x1="1676.4761" x2="2061.3262" y1="555.2188" y2="555.2188"/><text fill="#000000" font-family="sans-serif" font-size="13" lengthAdjust="spacing" textLength="80.1963" x="1688.4761" y="549.9561">newCustomer</text><polygon fill="#181818" points="2282.0356,582.5098,2292.0356,586.5098,2282.0356,590.5098,2286.0356,586.5098" style="stroke:#181818;stroke-width:1.0;"/><line style="stroke:#181818;stroke-width:1.0;" x1="1671.4761" x2="2288.0356" y1="586.5098" y2="586.5098"/><text fill="#000000" font-family="sans-serif" font-size="13" lengthAdjust="spacing" textLength="116.3145" x="1678.4761" y="581.2471">save(newCustomer)</text><polygon fill="#181818" points="2580.8828,613.8008,2590.8828,617.8008,2580.8828,621.8008,2584.8828,617.8008" style="stroke:#181818;stroke-width:1.0;"/><line style="stroke:#181818;stroke-width:1.0;" x1="2304.0356" x2="2586.8828" y1="617.8008" y2="617.8008"/><text fill="#000000" font-family="sans-serif" font-size="13" lengthAdjust="spacing" textLength="36.1182" x="2311.0356" y="612.5381">save()</text><polygon fill="#181818" points="2315.0356,627.8008,2305.0356,631.8008,2315.0356,635.8008,2311.0356,631.8008" style="stroke:#181818;stroke-width:1.0;"/><line style="stroke:#181818;stroke-width:1.0;stroke-dasharray:2.0,2.0;" x1="2309.0356" x2="2596.8828" y1="631.8008" y2="631.8008"/><polygon fill="#181818" points="1682.4761,641.8008,1672.4761,645.8008,1682.4761,649.8008,1678.4761,645.8008" style="stroke:#181818;stroke-width:1.0;"/><line style="stroke:#181818;stroke-width:1.0;stroke-dasharray:2.0,2.0;" x1="1676.4761" x2="2298.0356" y1="645.8008" y2="645.8008"/><polygon fill="#181818" points="1184.9341,655.8008,1174.9341,659.8008,1184.9341,663.8008,1180.9341,659.8008" style="stroke:#181818;stroke-width:1.0;"/><line style="stroke:#181818;stroke-width:1.0;stroke-dasharray:2.0,2.0;" x1="1178.9341" x2="1665.4761" y1="659.8008" y2="659.8008"/><polygon fill="#181818" points="1879.2993,721.6738,1889.2993,725.6738,1879.2993,729.6738,1883.2993,725.6738" style="stroke:#181818;stroke-width:1.0;"/><line style="stroke:#181818;stroke-width:1.0;" x1="1173.9341" x2="1885.2993" y1="725.6738" y2="725.6738"/><text fill="#000000" font-family="sans-serif" font-size="13" lengthAdjust="spacing" textLength="403.9014" x="1180.9341" y="685.8291">registerNewRepresentative(representativeName, representativeEmail,</text><text fill="#000000" font-family="sans-serif" font-size="13" lengthAdjust="spacing" textLength="384.4268" x="1184.5459" y="703.1201">createdOn, representativePassword, representativePhoneNumber,</text><text fill="#000000" font-family="sans-serif" font-size="13" lengthAdjust="spacing" textLength="258.6797" x="1184.5459" y="720.4111">associatedCustomer, representativePosition)</text><polygon fill="#181818" points="2147.1533,752.9648,2157.1533,756.9648,2147.1533,760.9648,2151.1533,756.9648" style="stroke:#181818;stroke-width:1.0;"/><line style="stroke:#181818;stroke-width:1.0;" x1="1901.2993" x2="2153.1533" y1="756.9648" y2="756.9648"/><text fill="#000000" font-family="sans-serif" font-size="13" lengthAdjust="spacing" textLength="44.7891" x="1908.2993" y="751.7021">create()</text><polygon fill="#181818" points="1912.2993,784.2559,1902.2993,788.2559,1912.2993,792.2559,1908.2993,788.2559" style="stroke:#181818;stroke-width:1.0;"/><line style="stroke:#181818;stroke-width:1.0;" x1="1906.2993" x2="2163.1533" y1="788.2559" y2="788.2559"/><text fill="#000000" font-family="sans-serif" font-size="13" lengthAdjust="spacing" textLength="111.2871" x="1918.2993" y="782.9932">newRepresentative</text><polygon fill="#181818" points="2450.3765,815.5469,2460.3765,819.5469,2450.3765,823.5469,2454.3765,819.5469" style="stroke:#181818;stroke-width:1.0;"/><line style="stroke:#181818;stroke-width:1.0;" x1="1901.2993" x2="2456.3765" y1="819.5469" y2="819.5469"/><text fill="#000000" font-family="sans-serif" font-size="13" lengthAdjust="spacing" textLength="147.4053" x="1908.2993" y="814.2842">save(newRepresentative)</text><polygon fill="#181818" points="2580.8828,846.8379,2590.8828,850.8379,2580.8828,854.8379,2584.8828,850.8379" style="stroke:#181818;stroke-width:1.0;"/><line style="stroke:#181818;stroke-width:1.0;" x1="2472.3765" x2="2586.8828" y1="850.8379" y2="850.8379"/><text fill="#000000" font-family="sans-serif" font-size="13" lengthAdjust="spacing" textLength="36.1182" x="2479.3765" y="845.5752">save()</text><polygon fill="#181818" points="2483.3765,860.8379,2473.3765,864.8379,2483.3765,868.8379,2479.3765,864.8379" style="stroke:#181818;stroke-width:1.0;"/><line style="stroke:#181818;stroke-width:1.0;stroke-dasharray:2.0,2.0;" x1="2477.3765" x2="2596.8828" y1="864.8379" y2="864.8379"/><polygon fill="#181818" points="1912.2993,874.8379,1902.2993,878.8379,1912.2993,882.8379,1908.2993,878.8379" style="stroke:#181818;stroke-width:1.0;"/><line style="stroke:#181818;stroke-width:1.0;stroke-dasharray:2.0,2.0;" x1="1906.2993" x2="2466.3765" y1="878.8379" y2="878.8379"/><polygon fill="#181818" points="1184.9341,888.8379,1174.9341,892.8379,1184.9341,896.8379,1180.9341,892.8379" style="stroke:#181818;stroke-width:1.0;"/><line style="stroke:#181818;stroke-width:1.0;stroke-dasharray:2.0,2.0;" x1="1178.9341" x2="1895.2993" y1="892.8379" y2="892.8379"/><polygon fill="#181818" points="634.9756,902.8379,624.9756,906.8379,634.9756,910.8379,630.9756,906.8379" style="stroke:#181818;stroke-width:1.0;"/><line style="stroke:#181818;stroke-width:1.0;stroke-dasharray:2.0,2.0;" x1="628.9756" x2="1167.9341" y1="906.8379" y2="906.8379"/><polygon fill="#181818" points="75.0171,934.1289,65.0171,938.1289,75.0171,942.1289,71.0171,938.1289" style="stroke:#181818;stroke-width:1.0;"/><line style="stroke:#181818;stroke-width:1.0;stroke-dasharray:2.0,2.0;" x1="69.0171" x2="617.9756" y1="938.1289" y2="938.1289"/><text fill="#000000" font-family="sans-serif" font-size="13" lengthAdjust="spacing" textLength="145.2344" x="81.0171" y="932.8662">Inform operation success</text><!--SRC=[rLVBRjim4BppAnO-sO7z0qPWm70Br8SyaC0zzS98cuI0HReaxI3z-gvaoo8bFeJcL5qIQPUpixFaWBR2xX6UyVSHPO7mJV0tpIl6U66LXidcwGusQh_dBqfp-Z81Rc1TnzY1QoiASU3ImkG9tuIng3T7OrM5UhTjCdTRkBqzQ3GeBRT2oTKglMwZfDLK3y-LkbV2uOV3NXH1cFNHlYij_ZJ1PzGdKU2PQY1GGz7dFaPBuOvB_eOLCNQ1ej4qiIVikZzX63gJaoxGyl98qf9ILLnaw0IgHrUsq9IkZA3vVteLky-4eAylwVezh5YmZrXoor-uGPXyk_pNB6zVchqhJjpYPQEovWyiLhGTbs3UrSTqne2UQzvkonXjLSheDjpD3IoXq4XnIc_256-WbaILpekndU1R-QfqrKm8flUymZby9ndtyqTkp8VIvHmUtvL4k3zMBwZdloJyvFRo0kkofCxD7BGdmHd7_tP6xNsy5Y7ONgGksfRfXMf5YU-CbUWfuScrbGQrqsWjFcD3-U3oz6Ka4NNlZFzt-e3pN9lkMcHUGlquxTTx9k11pUv2QOuQwp3LhCytbZjI-mStQ_dvy5flkpwoCweGR8vAtCMwCTtZnvSdDHlmw7IBKM13yaq3KSfEF-vH3O4CgcUAvRIIdKPX86TE8qic-tFCa1oCdt3gC9YnSJrt8E450qfELUBI-clBO9O6kPRlV1aopxN28jXwUhsZ-CYAeJPJSnyxw9pEYObxrib6r0gSehG3v2uRdW_uoTEnxakMS3wDvOECMd72Y6azPQb2r11jf-FisTjvcLw7KkN4MQpyZ6NKT28SCXN73KZs1vFQA9dCVv0WVazRjixaPunM9t7KepKNgywN8hOqz8MayOpc57ASyRpxUoblDz6fZjRjAuwJFKn9usbkaoncPaC2xdKRbfVhDQW3wlCTsnoBWkuPB816TTnRKlCJu2y0]--></g></svg>