<svg xmlns="http://www.w3.org/2000/svg" xmlns:xlink="http://www.w3.org/1999/xlink" contentStyleType="text/css" height="521px" preserveAspectRatio="none" style="width:438px;height:521px;background:#FFFFFF;" version="1.1" viewBox="0 0 438 521" width="438px" zoomAndPan="magnify"><title>System Sequence Diagram - US315</title><defs/><g><text fill="#000000" font-family="sans-serif" font-size="14" font-weight="bold" lengthAdjust="spacing" textLength="234.9922" x="97.573" y="30.1074">System Sequence Diagram - US315</text><rect fill="#FFFFFF" height="296.6191" style="stroke:#181818;stroke-width:1.0;" width="10" x="59.0171" y="133.2422"/><rect fill="#FFFFFF" height="31.291" style="stroke:#181818;stroke-width:1.0;" width="10" x="390.8003" y="201.8242"/><rect fill="#FFFFFF" height="31.291" style="stroke:#181818;stroke-width:1.0;" width="10" x="390.8003" y="264.4063"/><rect fill="#FFFFFF" height="31.291" style="stroke:#181818;stroke-width:1.0;" width="10" x="390.8003" y="326.9883"/><rect fill="#FFFFFF" height="31.291" style="stroke:#181818;stroke-width:1.0;" width="10" x="390.8003" y="389.5703"/><line style="stroke:#181818;stroke-width:0.5;stroke-dasharray:5.0,5.0;" x1="64" x2="64" y1="123.2422" y2="438.8613"/><line style="stroke:#181818;stroke-width:0.5;stroke-dasharray:5.0,5.0;" x1="395.4624" x2="395.4624" y1="123.2422" y2="438.8613"/><text fill="#000000" font-family="sans-serif" font-size="14" lengthAdjust="spacing" textLength="112.0342" x="5" y="119.7285">CRM Collaborator</text><ellipse cx="64.0171" cy="53.1211" fill="#E3E3E3" rx="8" ry="8" style="stroke:#181818;stroke-width:0.5;"/><path d="M64.0171,61.1211 L64.0171,88.1211 M51.0171,69.1211 L77.0171,69.1211 M64.0171,88.1211 L51.0171,103.1211 M64.0171,88.1211 L77.0171,103.1211 " fill="none" style="stroke:#181818;stroke-width:0.5;"/><text fill="#000000" font-family="sans-serif" font-size="14" lengthAdjust="spacing" textLength="112.0342" x="5" y="452.9688">CRM Collaborator</text><ellipse cx="64.0171" cy="464.9824" fill="#E3E3E3" rx="8" ry="8" style="stroke:#181818;stroke-width:0.5;"/><path d="M64.0171,472.9824 L64.0171,499.9824 M51.0171,480.9824 L77.0171,480.9824 M64.0171,499.9824 L51.0171,514.9824 M64.0171,499.9824 L77.0171,514.9824 " fill="none" style="stroke:#181818;stroke-width:0.5;"/><rect fill="#E3E3E3" height="32.6211" rx="2.5" ry="2.5" style="stroke:#181818;stroke-width:0.5;" width="60.6758" x="365.4624" y="89.6211"/><text fill="#000000" font-family="sans-serif" font-size="14" lengthAdjust="spacing" textLength="46.6758" x="372.4624" y="111.7285">System</text><rect fill="#E3E3E3" height="32.6211" rx="2.5" ry="2.5" style="stroke:#181818;stroke-width:0.5;" width="60.6758" x="365.4624" y="437.8613"/><text fill="#000000" font-family="sans-serif" font-size="14" lengthAdjust="spacing" textLength="46.6758" x="372.4624" y="459.9688">System</text><rect fill="#FFFFFF" height="296.6191" style="stroke:#181818;stroke-width:1.0;" width="10" x="59.0171" y="133.2422"/><rect fill="#FFFFFF" height="31.291" style="stroke:#181818;stroke-width:1.0;" width="10" x="390.8003" y="201.8242"/><rect fill="#FFFFFF" height="31.291" style="stroke:#181818;stroke-width:1.0;" width="10" x="390.8003" y="264.4063"/><rect fill="#FFFFFF" height="31.291" style="stroke:#181818;stroke-width:1.0;" width="10" x="390.8003" y="326.9883"/><rect fill="#FFFFFF" height="31.291" style="stroke:#181818;stroke-width:1.0;" width="10" x="390.8003" y="389.5703"/><rect fill="#EEEEEE" height="3" style="stroke:#EEEEEE;stroke-width:1.0;" width="431.1382" x="0" y="154.8877"/><line style="stroke:#000000;stroke-width:1.0;" x1="0" x2="431.1382" y1="154.8877" y2="154.8877"/><line style="stroke:#000000;stroke-width:1.0;" x1="0" x2="431.1382" y1="157.8877" y2="157.8877"/><rect fill="#EEEEEE" height="25.291" style="stroke:#000000;stroke-width:2.0;" width="262.4473" x="84.3455" y="143.2422"/><text fill="#000000" font-family="sans-serif" font-size="13" font-weight="bold" lengthAdjust="spacing" textLength="244.8354" x="90.3455" y="161.2705">Add video of simulation to the proposal</text><polygon fill="#181818" points="378.8003,197.8242,388.8003,201.8242,378.8003,205.8242,382.8003,201.8242" style="stroke:#181818;stroke-width:1.0;"/><line style="stroke:#181818;stroke-width:1.0;" x1="69.0171" x2="384.8003" y1="201.8242" y2="201.8242"/><text fill="#000000" font-family="sans-serif" font-size="13" lengthAdjust="spacing" textLength="302.7832" x="76.0171" y="196.5615">Asks to add a video of simulation to a show proposal</text><polygon fill="#181818" points="80.0171,229.1152,70.0171,233.1152,80.0171,237.1152,76.0171,233.1152" style="stroke:#181818;stroke-width:1.0;"/><line style="stroke:#181818;stroke-width:1.0;" x1="74.0171" x2="394.8003" y1="233.1152" y2="233.1152"/><text fill="#000000" font-family="sans-serif" font-size="13" lengthAdjust="spacing" textLength="144.4917" x="86.0171" y="227.8525">displays list of customers</text><polygon fill="#181818" points="378.8003,260.4063,388.8003,264.4063,378.8003,268.4063,382.8003,264.4063" style="stroke:#181818;stroke-width:1.0;"/><line style="stroke:#181818;stroke-width:1.0;" x1="69.0171" x2="384.8003" y1="264.4063" y2="264.4063"/><text fill="#000000" font-family="sans-serif" font-size="13" lengthAdjust="spacing" textLength="108.3735" x="76.0171" y="259.1436">selects a customer</text><polygon fill="#181818" points="80.0171,291.6973,70.0171,295.6973,80.0171,299.6973,76.0171,295.6973" style="stroke:#181818;stroke-width:1.0;"/><line style="stroke:#181818;stroke-width:1.0;" x1="74.0171" x2="394.8003" y1="295.6973" y2="295.6973"/><text fill="#000000" font-family="sans-serif" font-size="13" lengthAdjust="spacing" textLength="283.2515" x="86.0171" y="290.4346">displays the list of show proposal of the customer</text><polygon fill="#181818" points="378.8003,322.9883,388.8003,326.9883,378.8003,330.9883,382.8003,326.9883" style="stroke:#181818;stroke-width:1.0;"/><line style="stroke:#181818;stroke-width:1.0;" x1="69.0171" x2="384.8003" y1="326.9883" y2="326.9883"/><text fill="#000000" font-family="sans-serif" font-size="13" lengthAdjust="spacing" textLength="138.7407" x="76.0171" y="321.7256">selects a show proposal</text><polygon fill="#181818" points="80.0171,354.2793,70.0171,358.2793,80.0171,362.2793,76.0171,358.2793" style="stroke:#181818;stroke-width:1.0;"/><line style="stroke:#181818;stroke-width:1.0;" x1="74.0171" x2="394.8003" y1="358.2793" y2="358.2793"/><text fill="#000000" font-family="sans-serif" font-size="13" lengthAdjust="spacing" textLength="207.397" x="86.0171" y="353.0166">request a video file of the simulation</text><polygon fill="#181818" points="378.8003,385.5703,388.8003,389.5703,378.8003,393.5703,382.8003,389.5703" style="stroke:#181818;stroke-width:1.0;"/><line style="stroke:#181818;stroke-width:1.0;" x1="69.0171" x2="384.8003" y1="389.5703" y2="389.5703"/><text fill="#000000" font-family="sans-serif" font-size="13" lengthAdjust="spacing" textLength="85.2681" x="76.0171" y="384.3076">gives video file</text><polygon fill="#181818" points="80.0171,416.8613,70.0171,420.8613,80.0171,424.8613,76.0171,420.8613" style="stroke:#181818;stroke-width:1.0;"/><line style="stroke:#181818;stroke-width:1.0;" x1="74.0171" x2="394.8003" y1="420.8613" y2="420.8613"/><text fill="#000000" font-family="sans-serif" font-size="13" lengthAdjust="spacing" textLength="155.3589" x="86.0171" y="415.5986">displays operation success</text><!--SRC=[hPB1JiCm38RlUGfhznqGuZAfIDEuSg7Y0KpgTT7IEiJkfhqzITUMRMo013bLlzF__s9RjguD6B61XbkscyWDWSQEZ4oLW7QBDPLwy0IHh69R-zCBii6AzwwjOOrUo1YqoX5cgvTdMB7t-COHap835B2nETLCib1dNS1MOLOUHAdfxqd_QOmwJR770fJqtb5h2PuSrZbw3g_b_Ts3CKK1owg2dQk8WTSWhkaygkCMb44t125oO44FHP41tGwLlj0OIET2XFdZG0CBMCfMiYEcCBmLXwabl9yIUzCfSdmO36UmJY6NkGked0IF1m7lH7EExKJJYABqlrTqrVKxVY6V9YW9SRJw1xhStf7mxELPoCMph3zH_rDZOrwa13oESEtIaWsmdxEyWPlL7v5hjoCvSR_AEZdzkjKSA1xtJ3fhIMujmWS0]--></g></svg>