<?xml version="1.0" encoding="UTF-8" standalone="no"?><svg xmlns="http://www.w3.org/2000/svg" xmlns:xlink="http://www.w3.org/1999/xlink" contentScriptType="application/ecmascript" contentStyleType="text/css" height="99px" preserveAspectRatio="none" style="width:202px;height:99px;" version="1.1" viewBox="0 0 202 99" width="202px" zoomAndPan="magnify"><defs><filter height="300%" id="fgleed64tz81q" width="300%" x="-1" y="-1"><feGaussianBlur result="blurOut" stdDeviation="2.0"/><feColorMatrix in="blurOut" result="blurOut2" type="matrix" values="0 0 0 0 0 0 0 0 0 0 0 0 0 0 0 0 0 0 .4 0"/><feOffset dx="4.0" dy="4.0" in="blurOut2" result="blurOut3"/><feBlend in="SourceGraphic" in2="blurOut3" mode="normal"/></filter></defs><g><!--MD5=[9413f58a447e756fa54a14ecdfdb072c]
class hello.HelloWorld--><a href="HelloWorld.html" target="_top" title="HelloWorld.html" xlink:actuate="onRequest" xlink:href="HelloWorld.html" xlink:show="new" xlink:title="HelloWorld.html" xlink:type="simple"><rect codeLine="5" fill="#FEFECE" filter="url(#fgleed64tz81q)" height="62.0234" id="hello.HelloWorld" style="stroke: #A80036; stroke-width: 1.5;" width="116" x="37" y="7"/><ellipse cx="59.2" cy="27.0938" fill="#ADD1B2" rx="11" ry="11" style="stroke: #A80036; stroke-width: 1.0;"/><path d="M61.9656,22.9688 Q62.1219,22.75 62.3094,22.6406 Q62.4969,22.5313 62.7156,22.5313 Q63.0906,22.5313 63.325,22.7969 Q63.5594,23.0469 63.5594,23.6563 L63.5594,25.1094 Q63.5594,25.7188 63.325,25.9844 Q63.0906,26.25 62.7156,26.25 Q62.3719,26.25 62.1688,26.0469 Q61.9656,25.8594 61.8563,25.3438 Q61.8094,24.9844 61.6219,24.7969 Q61.2938,24.4219 60.6844,24.2031 Q60.075,23.9844 59.45,23.9844 Q58.6844,23.9844 58.0438,24.3125 Q57.4188,24.6406 56.9188,25.3906 Q56.4344,26.1406 56.4344,27.1719 L56.4344,28.2656 Q56.4344,29.5 57.325,30.3281 Q58.2156,31.1406 59.8094,31.1406 Q60.7469,31.1406 61.4031,30.8906 Q61.7938,30.7344 62.2156,30.2969 Q62.4813,30.0313 62.6219,29.9531 Q62.7781,29.875 62.9813,29.875 Q63.3094,29.875 63.5594,30.1406 Q63.825,30.3906 63.825,30.7344 Q63.825,31.0781 63.4813,31.4844 Q62.9813,32.0625 62.1844,32.3906 Q61.1063,32.8438 59.8094,32.8438 Q58.2938,32.8438 57.0906,32.2188 Q56.1063,31.7188 55.4188,30.6563 Q54.7313,29.5781 54.7313,28.2969 L54.7313,27.1406 Q54.7313,25.8125 55.3406,24.6719 Q55.9656,23.5156 57.0594,22.9063 Q58.1531,22.2813 59.3875,22.2813 Q60.1219,22.2813 60.7625,22.4531 Q61.4188,22.6094 61.9656,22.9688 Z "/><text fill="#000000" font-family="sans-serif" font-size="14" lengthAdjust="spacingAndGlyphs" textLength="68" x="74.8" y="26.5332">HelloWorld</text><text fill="#000000" font-family="sans-serif" font-size="10" lengthAdjust="spacingAndGlyphs" textLength="24" x="96.8" y="39.9902">hello</text><line style="stroke: #A80036; stroke-width: 1.5;" x1="38" x2="152" y1="47.1875" y2="47.1875"/><ellipse cx="48" cy="58.1875" fill="#84BE84" rx="3" ry="3" style="stroke: #038048; stroke-width: 1.0;"/><text fill="#000000" font-family="sans-serif" font-size="11" lengthAdjust="spacingAndGlyphs" text-decoration="underline" textLength="90" x="57" y="62.6064">main(String[]): void</text></a><text fill="#888888" font-family="sans-serif" font-size="10" lengthAdjust="spacingAndGlyphs" textLength="190" x="0" y="86.4043">UMLDoclet 2.0.12, PlantUML 1.2020.16</text><!--MD5=[00d68f57f07e066b93c5d70e24f97ab7]
@startuml
    set namespaceSeparator none
    hide empty fields
    hide empty methods

    class "<size:14>HelloWorld\n<size:10>hello" as hello.HelloWorld [[HelloWorld.html]] {
        {static} +main(String[]): void
    }

    center footer UMLDoclet 2.0.12, PlantUML 1.2020.16
@enduml

PlantUML version 1.2020.16(Sun Aug 23 21:20:43 WEST 2020)
(APACHE source distribution)
Java Runtime: Java(TM) SE Runtime Environment
JVM: Java HotSpot(TM) 64-Bit Server VM
Default Encoding: UTF-8
Language: pt
Country: PT
--></g></svg>