<?xml version="1.0" encoding="UTF-8" standalone="no"?><svg xmlns="http://www.w3.org/2000/svg" xmlns:xlink="http://www.w3.org/1999/xlink" contentScriptType="application/ecmascript" contentStyleType="text/css" height="149px" preserveAspectRatio="none" style="width:331px;height:149px;" version="1.1" viewBox="0 0 331 149" width="331px" zoomAndPan="magnify"><defs><filter height="300%" id="fah6yxnk32a6x" width="300%" x="-1" y="-1"><feGaussianBlur result="blurOut" stdDeviation="2.0"/><feColorMatrix in="blurOut" result="blurOut2" type="matrix" values="0 0 0 0 0 0 0 0 0 0 0 0 0 0 0 0 0 0 .4 0"/><feOffset dx="4.0" dy="4.0" in="blurOut2" result="blurOut3"/><feBlend in="SourceGraphic" in2="blurOut3" mode="normal"/></filter></defs><g><!--MD5=[7109ddad2aa8c0f3c2f9a0fba75ad987]
cluster hello--><polygon fill="#FFFFFF" filter="url(#fah6yxnk32a6x)" points="16,6,57,6,64,29.6094,309,29.6094,309,119.84,16,119.84,16,6" style="stroke: #000000; stroke-width: 1.5;"/><line style="stroke: #000000; stroke-width: 1.5;" x1="16" x2="64" y1="29.6094" y2="29.6094"/><text fill="#000000" font-family="sans-serif" font-size="14" font-weight="bold" lengthAdjust="spacingAndGlyphs" textLength="35" x="20" y="22.5332">hello</text><!--MD5=[e27d3ab401de2ae0717001adfcbdd2c5]
class hello.Greeter--><a href="Greeter.html" target="_top" title="Greeter.html" xlink:actuate="onRequest" xlink:href="Greeter.html" xlink:show="new" xlink:title="Greeter.html" xlink:type="simple"><rect codeLine="3" fill="#FEFECE" filter="url(#fah6yxnk32a6x)" height="61.8359" id="hello.Greeter" style="stroke: #A80036; stroke-width: 1.5;" width="109" x="32.5" y="42"/><ellipse cx="63.7" cy="58" fill="#ADD1B2" rx="11" ry="11" style="stroke: #A80036; stroke-width: 1.0;"/><path d="M66.4656,53.875 Q66.6219,53.6563 66.8094,53.5469 Q66.9969,53.4375 67.2156,53.4375 Q67.5906,53.4375 67.825,53.7031 Q68.0594,53.9531 68.0594,54.5625 L68.0594,56.0156 Q68.0594,56.625 67.825,56.8906 Q67.5906,57.1563 67.2156,57.1563 Q66.8719,57.1563 66.6688,56.9531 Q66.4656,56.7656 66.3563,56.25 Q66.3094,55.8906 66.1219,55.7031 Q65.7938,55.3281 65.1844,55.1094 Q64.575,54.8906 63.95,54.8906 Q63.1844,54.8906 62.5438,55.2188 Q61.9188,55.5469 61.4188,56.2969 Q60.9344,57.0469 60.9344,58.0781 L60.9344,59.1719 Q60.9344,60.4063 61.825,61.2344 Q62.7156,62.0469 64.3094,62.0469 Q65.2469,62.0469 65.9031,61.7969 Q66.2938,61.6406 66.7156,61.2031 Q66.9813,60.9375 67.1219,60.8594 Q67.2781,60.7813 67.4813,60.7813 Q67.8094,60.7813 68.0594,61.0469 Q68.325,61.2969 68.325,61.6406 Q68.325,61.9844 67.9813,62.3906 Q67.4813,62.9688 66.6844,63.2969 Q65.6063,63.75 64.3094,63.75 Q62.7938,63.75 61.5906,63.125 Q60.6063,62.625 59.9188,61.5625 Q59.2313,60.4844 59.2313,59.2031 L59.2313,58.0469 Q59.2313,56.7188 59.8406,55.5781 Q60.4656,54.4219 61.5594,53.8125 Q62.6531,53.1875 63.8875,53.1875 Q64.6219,53.1875 65.2625,53.3594 Q65.9188,53.5156 66.4656,53.875 Z "/><text fill="#000000" font-family="sans-serif" font-size="12" lengthAdjust="spacingAndGlyphs" textLength="41" x="81.3" y="62.9102">Greeter</text><line style="stroke: #A80036; stroke-width: 1.5;" x1="33.5" x2="140.5" y1="74" y2="74"/><line style="stroke: #A80036; stroke-width: 1.5;" x1="33.5" x2="140.5" y1="82" y2="82"/><ellipse cx="43.5" cy="93" fill="#84BE84" rx="3" ry="3" style="stroke: #038048; stroke-width: 1.0;"/><text fill="#000000" font-family="sans-serif" font-size="11" lengthAdjust="spacingAndGlyphs" textLength="83" x="52.5" y="97.4189">sayHello(): String</text></a><!--MD5=[9413f58a447e756fa54a14ecdfdb072c]
class hello.HelloWorld--><a href="HelloWorld.html" target="_top" title="HelloWorld.html" xlink:actuate="onRequest" xlink:href="HelloWorld.html" xlink:show="new" xlink:title="HelloWorld.html" xlink:type="simple"><rect codeLine="7" fill="#FEFECE" filter="url(#fah6yxnk32a6x)" height="61.8359" id="hello.HelloWorld" style="stroke: #A80036; stroke-width: 1.5;" width="116" x="177" y="42"/><ellipse cx="202.35" cy="58" fill="#ADD1B2" rx="11" ry="11" style="stroke: #A80036; stroke-width: 1.0;"/><path d="M205.1156,53.875 Q205.2719,53.6563 205.4594,53.5469 Q205.6469,53.4375 205.8656,53.4375 Q206.2406,53.4375 206.475,53.7031 Q206.7094,53.9531 206.7094,54.5625 L206.7094,56.0156 Q206.7094,56.625 206.475,56.8906 Q206.2406,57.1563 205.8656,57.1563 Q205.5219,57.1563 205.3188,56.9531 Q205.1156,56.7656 205.0063,56.25 Q204.9594,55.8906 204.7719,55.7031 Q204.4438,55.3281 203.8344,55.1094 Q203.225,54.8906 202.6,54.8906 Q201.8344,54.8906 201.1938,55.2188 Q200.5688,55.5469 200.0688,56.2969 Q199.5844,57.0469 199.5844,58.0781 L199.5844,59.1719 Q199.5844,60.4063 200.475,61.2344 Q201.3656,62.0469 202.9594,62.0469 Q203.8969,62.0469 204.5531,61.7969 Q204.9438,61.6406 205.3656,61.2031 Q205.6313,60.9375 205.7719,60.8594 Q205.9281,60.7813 206.1313,60.7813 Q206.4594,60.7813 206.7094,61.0469 Q206.975,61.2969 206.975,61.6406 Q206.975,61.9844 206.6313,62.3906 Q206.1313,62.9688 205.3344,63.2969 Q204.2563,63.75 202.9594,63.75 Q201.4438,63.75 200.2406,63.125 Q199.2563,62.625 198.5688,61.5625 Q197.8813,60.4844 197.8813,59.2031 L197.8813,58.0469 Q197.8813,56.7188 198.4906,55.5781 Q199.1156,54.4219 200.2094,53.8125 Q201.3031,53.1875 202.5375,53.1875 Q203.2719,53.1875 203.9125,53.3594 Q204.5688,53.5156 205.1156,53.875 Z "/><text fill="#000000" font-family="sans-serif" font-size="12" lengthAdjust="spacingAndGlyphs" textLength="61" x="218.65" y="62.9102">HelloWorld</text><line style="stroke: #A80036; stroke-width: 1.5;" x1="178" x2="292" y1="74" y2="74"/><line style="stroke: #A80036; stroke-width: 1.5;" x1="178" x2="292" y1="82" y2="82"/><ellipse cx="188" cy="93" fill="#84BE84" rx="3" ry="3" style="stroke: #038048; stroke-width: 1.0;"/><text fill="#000000" font-family="sans-serif" font-size="11" lengthAdjust="spacingAndGlyphs" text-decoration="underline" textLength="90" x="197" y="97.4189">main(String[]): void</text></a><text fill="#888888" font-family="sans-serif" font-size="10" lengthAdjust="spacingAndGlyphs" textLength="190" x="61.5" y="136.2209">UMLDoclet 2.0.12, PlantUML 1.2020.16</text><!--MD5=[1ace104d76c8a50401da5f8fb4b7dcef]
@startuml
    namespace hello {

        class Greeter [[Greeter.html]] {
            +sayHello(): String
        }

        class HelloWorld [[HelloWorld.html]] {
            {static} +main(String[]): void
        }

    }

    center footer UMLDoclet 2.0.12, PlantUML 1.2020.16
@enduml

PlantUML version 1.2020.16(Sun Aug 23 21:20:43 WEST 2020)
(APACHE source distribution)
Java Runtime: Java(TM) SE Runtime Environment
JVM: Java HotSpot(TM) 64-Bit Server VM
Default Encoding: UTF-8
Language: pt
Country: PT
--></g></svg>