<svg xmlns="http://www.w3.org/2000/svg" xmlns:xlink="http://www.w3.org/1999/xlink" contentStyleType="text/css" height="1279px" preserveAspectRatio="none" style="width:2091px;height:1279px;background:#FFFFFF;" version="1.1" viewBox="0 0 2091 1279" width="2091px" zoomAndPan="magnify"><title>Sequence Diagram</title><defs/><g><text fill="#000000" font-family="sans-serif" font-size="14" font-weight="bold" lengthAdjust="spacing" textLength="126.0479" x="983.8853" y="30.1074">Sequence Diagram</text><rect fill="#FFFFFF" height="1045.3418" style="stroke:#181818;stroke-width:1.0;" width="10" x="59.0171" y="133.2422"/><rect fill="#FFFFFF" height="388.8125" style="stroke:#181818;stroke-width:1.0;" width="10" x="291.0195" y="156.5332"/><rect fill="#FFFFFF" height="264.3281" style="stroke:#181818;stroke-width:1.0;" width="10" x="291.0195" y="576.6367"/><rect fill="#FFFFFF" height="31.291" style="stroke:#181818;stroke-width:1.0;" width="10" x="291.0195" y="872.2559"/><rect fill="#FFFFFF" height="252.7461" style="stroke:#181818;stroke-width:1.0;" width="10" x="291.0195" y="934.8379"/><rect fill="#FFFFFF" height="263.9883" style="stroke:#181818;stroke-width:1.0;" width="10" x="652.4146" y="250.0664"/><rect fill="#FFFFFF" height="201.7461" style="stroke:#181818;stroke-width:1.0;" width="10" x="652.4146" y="607.9277"/><rect fill="#FFFFFF" height="181.1641" style="stroke:#181818;stroke-width:1.0;" width="10" x="652.4146" y="966.1289"/><rect fill="#FFFFFF" height="139.1641" style="stroke:#181818;stroke-width:1.0;" width="10" x="1149.9565" y="343.5996"/><rect fill="#FFFFFF" height="139.1641" style="stroke:#181818;stroke-width:1.0;" width="10" x="1379.7798" y="639.2188"/><rect fill="#FFFFFF" height="135.873" style="stroke:#181818;stroke-width:1.0;" width="10" x="1379.7798" y="997.4199"/><rect fill="#FFFFFF" height="93.873" style="stroke:#181818;stroke-width:1.0;" width="10" x="1697.0269" y="374.8906"/><rect fill="#FFFFFF" height="93.873" style="stroke:#181818;stroke-width:1.0;" width="10" x="1865.3677" y="670.5098"/><rect fill="#FFFFFF" height="59.291" style="stroke:#181818;stroke-width:1.0;" width="10" x="1865.3677" y="1060.002"/><rect fill="#FFFFFF" height="31.291" style="stroke:#181818;stroke-width:1.0;" width="10" x="2051.853" y="406.1816"/><rect fill="#FFFFFF" height="31.291" style="stroke:#181818;stroke-width:1.0;" width="10" x="2051.853" y="701.8008"/><rect fill="#FFFFFF" height="14" style="stroke:#181818;stroke-width:1.0;" width="10" x="2051.853" y="1091.293"/><line style="stroke:#181818;stroke-width:0.5;stroke-dasharray:5.0,5.0;" x1="64" x2="64" y1="123.2422" y2="1196.584"/><line style="stroke:#181818;stroke-width:0.5;stroke-dasharray:5.0,5.0;" x1="295.6162" x2="295.6162" y1="123.2422" y2="1196.584"/><line style="stroke:#181818;stroke-width:0.5;stroke-dasharray:5.0,5.0;" x1="656.6665" x2="656.6665" y1="205.6543" y2="1196.584"/><line style="stroke:#181818;stroke-width:0.5;stroke-dasharray:5.0,5.0;" x1="972.0161" x2="972.0161" y1="299.1875" y2="1196.584"/><line style="stroke:#181818;stroke-width:0.5;stroke-dasharray:5.0,5.0;" x1="1154.4155" x2="1154.4155" y1="123.2422" y2="1196.584"/><line style="stroke:#181818;stroke-width:0.5;stroke-dasharray:5.0,5.0;" x1="1384.4976" x2="1384.4976" y1="123.2422" y2="1196.584"/><line style="stroke:#181818;stroke-width:0.5;stroke-dasharray:5.0,5.0;" x1="1567.062" x2="1567.062" y1="123.2422" y2="1196.584"/><line style="stroke:#181818;stroke-width:0.5;stroke-dasharray:5.0,5.0;" x1="1701.2271" x2="1701.2271" y1="123.2422" y2="1196.584"/><line style="stroke:#181818;stroke-width:0.5;stroke-dasharray:5.0,5.0;" x1="1869.8267" x2="1869.8267" y1="123.2422" y2="1196.584"/><line style="stroke:#181818;stroke-width:0.5;stroke-dasharray:5.0,5.0;" x1="2055.8877" x2="2055.8877" y1="123.2422" y2="1196.584"/><text fill="#000000" font-family="sans-serif" font-size="14" lengthAdjust="spacing" textLength="112.0342" x="5" y="119.7285">CRM Collaborator</text><ellipse cx="64.0171" cy="53.1211" fill="#E2E2F0" rx="8" ry="8" style="stroke:#181818;stroke-width:0.5;"/><path d="M64.0171,61.1211 L64.0171,88.1211 M51.0171,69.1211 L77.0171,69.1211 M64.0171,88.1211 L51.0171,103.1211 M64.0171,88.1211 L77.0171,103.1211 " fill="none" style="stroke:#181818;stroke-width:0.5;"/><text fill="#000000" font-family="sans-serif" font-size="14" lengthAdjust="spacing" textLength="112.0342" x="5" y="1210.6914">CRM Collaborator</text><ellipse cx="64.0171" cy="1222.7051" fill="#E2E2F0" rx="8" ry="8" style="stroke:#181818;stroke-width:0.5;"/><path d="M64.0171,1230.7051 L64.0171,1257.7051 M51.0171,1238.7051 L77.0171,1238.7051 M64.0171,1257.7051 L51.0171,1272.7051 M64.0171,1257.7051 L77.0171,1272.7051 " fill="none" style="stroke:#181818;stroke-width:0.5;"/><rect fill="#E2E2F0" height="51.2422" rx="2.5" ry="2.5" style="stroke:#181818;stroke-width:0.5;" width="112.8066" x="239.6162" y="71"/><text fill="#000000" font-family="sans-serif" font-size="14" font-style="italic" lengthAdjust="spacing" textLength="92.627" x="249.7061" y="93.1074">&#171;presentation&#187;</text><text fill="#000000" font-family="sans-serif" font-size="14" lengthAdjust="spacing" textLength="98.8066" x="246.6162" y="111.7285">EditCustomerUI</text><rect fill="#E2E2F0" height="51.2422" rx="2.5" ry="2.5" style="stroke:#181818;stroke-width:0.5;" width="112.8066" x="239.6162" y="1195.584"/><text fill="#000000" font-family="sans-serif" font-size="14" font-style="italic" lengthAdjust="spacing" textLength="92.627" x="249.7061" y="1217.6914">&#171;presentation&#187;</text><text fill="#000000" font-family="sans-serif" font-size="14" lengthAdjust="spacing" textLength="98.8066" x="246.6162" y="1236.3125">EditCustomerUI</text><rect fill="#E2E2F0" height="51.2422" rx="2.5" ry="2.5" style="stroke:#181818;stroke-width:0.5;" width="159.4961" x="577.6665" y="1195.584"/><text fill="#000000" font-family="sans-serif" font-size="14" font-style="italic" lengthAdjust="spacing" textLength="82.5098" x="616.1597" y="1217.6914">&#171;application&#187;</text><text fill="#000000" font-family="sans-serif" font-size="14" lengthAdjust="spacing" textLength="145.4961" x="584.6665" y="1236.3125">EditCustomerController</text><rect fill="#E2E2F0" height="51.2422" rx="2.5" ry="2.5" style="stroke:#181818;stroke-width:0.5;" width="142.3994" x="901.0161" y="1195.584"/><text fill="#000000" font-family="sans-serif" font-size="14" font-style="italic" lengthAdjust="spacing" textLength="42.8203" x="950.8057" y="1217.6914">&#171;auth&#187;</text><text fill="#000000" font-family="sans-serif" font-size="14" lengthAdjust="spacing" textLength="128.3994" x="908.0161" y="1236.3125">AuthorizationService</text><rect fill="#E2E2F0" height="51.2422" rx="2.5" ry="2.5" style="stroke:#181818;stroke-width:0.5;" width="203.082" x="1053.4155" y="71"/><text fill="#000000" font-family="sans-serif" font-size="14" font-style="italic" lengthAdjust="spacing" textLength="82.5098" x="1113.7017" y="93.1074">&#171;application&#187;</text><text fill="#000000" font-family="sans-serif" font-size="14" lengthAdjust="spacing" textLength="189.082" x="1060.4155" y="111.7285">CustomerManagementService</text><rect fill="#E2E2F0" height="51.2422" rx="2.5" ry="2.5" style="stroke:#181818;stroke-width:0.5;" width="203.082" x="1053.4155" y="1195.584"/><text fill="#000000" font-family="sans-serif" font-size="14" font-style="italic" lengthAdjust="spacing" textLength="82.5098" x="1113.7017" y="1217.6914">&#171;application&#187;</text><text fill="#000000" font-family="sans-serif" font-size="14" lengthAdjust="spacing" textLength="189.082" x="1060.4155" y="1236.3125">CustomerManagementService</text><rect fill="#E2E2F0" height="51.2422" rx="2.5" ry="2.5" style="stroke:#181818;stroke-width:0.5;" width="236.5645" x="1266.4976" y="71"/><text fill="#000000" font-family="sans-serif" font-size="14" font-style="italic" lengthAdjust="spacing" textLength="82.5098" x="1343.5249" y="93.1074">&#171;application&#187;</text><text fill="#000000" font-family="sans-serif" font-size="14" lengthAdjust="spacing" textLength="222.5645" x="1273.4976" y="111.7285">RepresentativeManagementService</text><rect fill="#E2E2F0" height="51.2422" rx="2.5" ry="2.5" style="stroke:#181818;stroke-width:0.5;" width="236.5645" x="1266.4976" y="1195.584"/><text fill="#000000" font-family="sans-serif" font-size="14" font-style="italic" lengthAdjust="spacing" textLength="82.5098" x="1343.5249" y="1217.6914">&#171;application&#187;</text><text fill="#000000" font-family="sans-serif" font-size="14" lengthAdjust="spacing" textLength="222.5645" x="1273.4976" y="1236.3125">RepresentativeManagementService</text><rect fill="#E2E2F0" height="51.2422" rx="2.5" ry="2.5" style="stroke:#181818;stroke-width:0.5;" width="108.165" x="1513.062" y="71"/><text fill="#000000" font-family="sans-serif" font-size="14" font-style="italic" lengthAdjust="spacing" textLength="61.4893" x="1536.3999" y="93.1074">&#171;domain&#187;</text><text fill="#000000" font-family="sans-serif" font-size="14" lengthAdjust="spacing" textLength="94.165" x="1520.062" y="111.7285">Representative</text><rect fill="#E2E2F0" height="51.2422" rx="2.5" ry="2.5" style="stroke:#181818;stroke-width:0.5;" width="108.165" x="1513.062" y="1195.584"/><text fill="#000000" font-family="sans-serif" font-size="14" font-style="italic" lengthAdjust="spacing" textLength="61.4893" x="1536.3999" y="1217.6914">&#171;domain&#187;</text><text fill="#000000" font-family="sans-serif" font-size="14" lengthAdjust="spacing" textLength="94.165" x="1520.062" y="1236.3125">Representative</text><rect fill="#E2E2F0" height="51.2422" rx="2.5" ry="2.5" style="stroke:#181818;stroke-width:0.5;" width="141.5996" x="1631.2271" y="71"/><text fill="#000000" font-family="sans-serif" font-size="14" font-style="italic" lengthAdjust="spacing" textLength="77.041" x="1663.5063" y="93.1074">&#171;repository&#187;</text><text fill="#000000" font-family="sans-serif" font-size="14" lengthAdjust="spacing" textLength="127.5996" x="1638.2271" y="111.7285">CustomerRepository</text><rect fill="#E2E2F0" height="51.2422" rx="2.5" ry="2.5" style="stroke:#181818;stroke-width:0.5;" width="141.5996" x="1631.2271" y="1195.584"/><text fill="#000000" font-family="sans-serif" font-size="14" font-style="italic" lengthAdjust="spacing" textLength="77.041" x="1663.5063" y="1217.6914">&#171;repository&#187;</text><text fill="#000000" font-family="sans-serif" font-size="14" lengthAdjust="spacing" textLength="127.5996" x="1638.2271" y="1236.3125">CustomerRepository</text><rect fill="#E2E2F0" height="51.2422" rx="2.5" ry="2.5" style="stroke:#181818;stroke-width:0.5;" width="175.082" x="1782.8267" y="71"/><text fill="#000000" font-family="sans-serif" font-size="14" font-style="italic" lengthAdjust="spacing" textLength="77.041" x="1831.8472" y="93.1074">&#171;repository&#187;</text><text fill="#000000" font-family="sans-serif" font-size="14" lengthAdjust="spacing" textLength="161.082" x="1789.8267" y="111.7285">RepresentativeRepository</text><rect fill="#E2E2F0" height="51.2422" rx="2.5" ry="2.5" style="stroke:#181818;stroke-width:0.5;" width="175.082" x="1782.8267" y="1195.584"/><text fill="#000000" font-family="sans-serif" font-size="14" font-style="italic" lengthAdjust="spacing" textLength="77.041" x="1831.8472" y="1217.6914">&#171;repository&#187;</text><text fill="#000000" font-family="sans-serif" font-size="14" lengthAdjust="spacing" textLength="161.082" x="1789.8267" y="1236.3125">RepresentativeRepository</text><text fill="#000000" font-family="sans-serif" font-size="14" lengthAdjust="spacing" textLength="59.9307" x="2023.8877" y="119.7285">Database</text><path d="M2038.853,68.6211 C2038.853,58.6211 2056.853,58.6211 2056.853,58.6211 C2056.853,58.6211 2074.853,58.6211 2074.853,68.6211 L2074.853,94.6211 C2074.853,104.6211 2056.853,104.6211 2056.853,104.6211 C2056.853,104.6211 2038.853,104.6211 2038.853,94.6211 L2038.853,68.6211 " fill="#E2E2F0" style="stroke:#181818;stroke-width:1.5;"/><path d="M2038.853,68.6211 C2038.853,78.6211 2056.853,78.6211 2056.853,78.6211 C2056.853,78.6211 2074.853,78.6211 2074.853,68.6211 " fill="none" style="stroke:#181818;stroke-width:1.5;"/><text fill="#000000" font-family="sans-serif" font-size="14" lengthAdjust="spacing" textLength="59.9307" x="2023.8877" y="1210.6914">Database</text><path d="M2038.853,1224.2051 C2038.853,1214.2051 2056.853,1214.2051 2056.853,1214.2051 C2056.853,1214.2051 2074.853,1214.2051 2074.853,1224.2051 L2074.853,1250.2051 C2074.853,1260.2051 2056.853,1260.2051 2056.853,1260.2051 C2056.853,1260.2051 2038.853,1260.2051 2038.853,1250.2051 L2038.853,1224.2051 " fill="#E2E2F0" style="stroke:#181818;stroke-width:1.5;"/><path d="M2038.853,1224.2051 C2038.853,1234.2051 2056.853,1234.2051 2056.853,1234.2051 C2056.853,1234.2051 2074.853,1234.2051 2074.853,1224.2051 " fill="none" style="stroke:#181818;stroke-width:1.5;"/><rect fill="#FFFFFF" height="1045.3418" style="stroke:#181818;stroke-width:1.0;" width="10" x="59.0171" y="133.2422"/><rect fill="#FFFFFF" height="388.8125" style="stroke:#181818;stroke-width:1.0;" width="10" x="291.0195" y="156.5332"/><rect fill="#FFFFFF" height="264.3281" style="stroke:#181818;stroke-width:1.0;" width="10" x="291.0195" y="576.6367"/><rect fill="#FFFFFF" height="31.291" style="stroke:#181818;stroke-width:1.0;" width="10" x="291.0195" y="872.2559"/><rect fill="#FFFFFF" height="252.7461" style="stroke:#181818;stroke-width:1.0;" width="10" x="291.0195" y="934.8379"/><rect fill="#FFFFFF" height="263.9883" style="stroke:#181818;stroke-width:1.0;" width="10" x="652.4146" y="250.0664"/><rect fill="#FFFFFF" height="201.7461" style="stroke:#181818;stroke-width:1.0;" width="10" x="652.4146" y="607.9277"/><rect fill="#FFFFFF" height="181.1641" style="stroke:#181818;stroke-width:1.0;" width="10" x="652.4146" y="966.1289"/><rect fill="#FFFFFF" height="139.1641" style="stroke:#181818;stroke-width:1.0;" width="10" x="1149.9565" y="343.5996"/><rect fill="#FFFFFF" height="139.1641" style="stroke:#181818;stroke-width:1.0;" width="10" x="1379.7798" y="639.2188"/><rect fill="#FFFFFF" height="135.873" style="stroke:#181818;stroke-width:1.0;" width="10" x="1379.7798" y="997.4199"/><rect fill="#FFFFFF" height="93.873" style="stroke:#181818;stroke-width:1.0;" width="10" x="1697.0269" y="374.8906"/><rect fill="#FFFFFF" height="93.873" style="stroke:#181818;stroke-width:1.0;" width="10" x="1865.3677" y="670.5098"/><rect fill="#FFFFFF" height="59.291" style="stroke:#181818;stroke-width:1.0;" width="10" x="1865.3677" y="1060.002"/><rect fill="#FFFFFF" height="31.291" style="stroke:#181818;stroke-width:1.0;" width="10" x="2051.853" y="406.1816"/><rect fill="#FFFFFF" height="31.291" style="stroke:#181818;stroke-width:1.0;" width="10" x="2051.853" y="701.8008"/><rect fill="#FFFFFF" height="14" style="stroke:#181818;stroke-width:1.0;" width="10" x="2051.853" y="1091.293"/><polygon fill="#181818" points="279.0195,152.5332,289.0195,156.5332,279.0195,160.5332,283.0195,156.5332" style="stroke:#181818;stroke-width:1.0;"/><line style="stroke:#181818;stroke-width:1.0;" x1="69.0171" x2="285.0195" y1="156.5332" y2="156.5332"/><text fill="#000000" font-family="sans-serif" font-size="13" lengthAdjust="spacing" textLength="39.0063" x="76.0171" y="151.2705">show()</text><polygon fill="#181818" points="565.6665,183.8242,575.6665,187.8242,565.6665,191.8242,569.6665,187.8242" style="stroke:#181818;stroke-width:1.0;"/><line style="stroke:#181818;stroke-width:1.0;" x1="301.0195" x2="571.6665" y1="187.8242" y2="187.8242"/><text fill="#000000" font-family="sans-serif" font-size="13" lengthAdjust="spacing" textLength="44.7891" x="308.0195" y="182.5615">create()</text><rect fill="#E2E2F0" height="51.2422" rx="2.5" ry="2.5" style="stroke:#181818;stroke-width:0.5;" width="159.4961" x="577.6665" y="164.5332"/><text fill="#000000" font-family="sans-serif" font-size="14" font-style="italic" lengthAdjust="spacing" textLength="82.5098" x="616.1597" y="186.6406">&#171;application&#187;</text><text fill="#000000" font-family="sans-serif" font-size="14" lengthAdjust="spacing" textLength="145.4961" x="584.6665" y="205.2617">EditCustomerController</text><polygon fill="#181818" points="640.4146,246.0664,650.4146,250.0664,640.4146,254.0664,644.4146,250.0664" style="stroke:#181818;stroke-width:1.0;"/><line style="stroke:#181818;stroke-width:1.0;" x1="301.0195" x2="646.4146" y1="250.0664" y2="250.0664"/><text fill="#000000" font-family="sans-serif" font-size="13" lengthAdjust="spacing" textLength="87.3945" x="308.0195" y="244.8037">listCustomers()</text><polygon fill="#181818" points="889.0161,277.3574,899.0161,281.3574,889.0161,285.3574,893.0161,281.3574" style="stroke:#181818;stroke-width:1.0;"/><line style="stroke:#181818;stroke-width:1.0;" x1="662.4146" x2="895.0161" y1="281.3574" y2="281.3574"/><text fill="#000000" font-family="sans-serif" font-size="13" lengthAdjust="spacing" textLength="214.6016" x="669.4146" y="276.0947">ensureAuthenticatedUserHasAnyOf()</text><rect fill="#E2E2F0" height="51.2422" rx="2.5" ry="2.5" style="stroke:#181818;stroke-width:0.5;" width="142.3994" x="901.0161" y="258.0664"/><text fill="#000000" font-family="sans-serif" font-size="14" font-style="italic" lengthAdjust="spacing" textLength="42.8203" x="950.8057" y="280.1738">&#171;auth&#187;</text><text fill="#000000" font-family="sans-serif" font-size="14" lengthAdjust="spacing" textLength="128.3994" x="908.0161" y="298.7949">AuthorizationService</text><polygon fill="#181818" points="1137.9565,339.5996,1147.9565,343.5996,1137.9565,347.5996,1141.9565,343.5996" style="stroke:#181818;stroke-width:1.0;"/><line style="stroke:#181818;stroke-width:1.0;" x1="662.4146" x2="1143.9565" y1="343.5996" y2="343.5996"/><text fill="#000000" font-family="sans-serif" font-size="13" lengthAdjust="spacing" textLength="122.7954" x="669.4146" y="338.3369">listActiveCustomers()</text><polygon fill="#181818" points="1685.0269,370.8906,1695.0269,374.8906,1685.0269,378.8906,1689.0269,374.8906" style="stroke:#181818;stroke-width:1.0;"/><line style="stroke:#181818;stroke-width:1.0;" x1="1159.9565" x2="1691.0269" y1="374.8906" y2="374.8906"/><text fill="#000000" font-family="sans-serif" font-size="13" lengthAdjust="spacing" textLength="102.5908" x="1166.9565" y="369.6279">findByActive(true)</text><polygon fill="#181818" points="2039.853,402.1816,2049.853,406.1816,2039.853,410.1816,2043.853,406.1816" style="stroke:#181818;stroke-width:1.0;"/><line style="stroke:#181818;stroke-width:1.0;" x1="1707.0269" x2="2045.853" y1="406.1816" y2="406.1816"/><text fill="#000000" font-family="sans-serif" font-size="13" lengthAdjust="spacing" textLength="102.5908" x="1714.0269" y="400.9189">findByActive(true)</text><polygon fill="#181818" points="1718.0269,433.4727,1708.0269,437.4727,1718.0269,441.4727,1714.0269,437.4727" style="stroke:#181818;stroke-width:1.0;"/><line style="stroke:#181818;stroke-width:1.0;stroke-dasharray:2.0,2.0;" x1="1712.0269" x2="2055.853" y1="437.4727" y2="437.4727"/><text fill="#000000" font-family="sans-serif" font-size="13" lengthAdjust="spacing" textLength="140.1563" x="1724.0269" y="432.21">List of Active Customers</text><polygon fill="#181818" points="1170.9565,464.7637,1160.9565,468.7637,1170.9565,472.7637,1166.9565,468.7637" style="stroke:#181818;stroke-width:1.0;"/><line style="stroke:#181818;stroke-width:1.0;" x1="1164.9565" x2="1701.0269" y1="468.7637" y2="468.7637"/><text fill="#000000" font-family="sans-serif" font-size="13" lengthAdjust="spacing" textLength="140.1563" x="1176.9565" y="463.501">List of Active Customers</text><polygon fill="#181818" points="673.4146,478.7637,663.4146,482.7637,673.4146,486.7637,669.4146,482.7637" style="stroke:#181818;stroke-width:1.0;"/><line style="stroke:#181818;stroke-width:1.0;" x1="667.4146" x2="1153.9565" y1="482.7637" y2="482.7637"/><polygon fill="#181818" points="312.0195,510.0547,302.0195,514.0547,312.0195,518.0547,308.0195,514.0547" style="stroke:#181818;stroke-width:1.0;"/><line style="stroke:#181818;stroke-width:1.0;stroke-dasharray:2.0,2.0;" x1="306.0195" x2="656.4146" y1="514.0547" y2="514.0547"/><text fill="#000000" font-family="sans-serif" font-size="13" lengthAdjust="spacing" textLength="140.1563" x="318.0195" y="508.792">List of Active Customers</text><polygon fill="#181818" points="80.0171,541.3457,70.0171,545.3457,80.0171,549.3457,76.0171,545.3457" style="stroke:#181818;stroke-width:1.0;"/><line style="stroke:#181818;stroke-width:1.0;stroke-dasharray:2.0,2.0;" x1="74.0171" x2="295.0195" y1="545.3457" y2="545.3457"/><text fill="#000000" font-family="sans-serif" font-size="13" lengthAdjust="spacing" textLength="176.2871" x="86.0171" y="540.083">Show List of Active Customers</text><polygon fill="#181818" points="279.0195,572.6367,289.0195,576.6367,279.0195,580.6367,283.0195,576.6367" style="stroke:#181818;stroke-width:1.0;"/><line style="stroke:#181818;stroke-width:1.0;" x1="69.0171" x2="285.0195" y1="576.6367" y2="576.6367"/><text fill="#000000" font-family="sans-serif" font-size="13" lengthAdjust="spacing" textLength="104.7681" x="76.0171" y="571.374">Choose Customer</text><polygon fill="#181818" points="640.4146,603.9277,650.4146,607.9277,640.4146,611.9277,644.4146,607.9277" style="stroke:#181818;stroke-width:1.0;"/><line style="stroke:#181818;stroke-width:1.0;" x1="301.0195" x2="646.4146" y1="607.9277" y2="607.9277"/><text fill="#000000" font-family="sans-serif" font-size="13" lengthAdjust="spacing" textLength="174.8335" x="308.0195" y="602.665">listRepresentatives(Customer)</text><polygon fill="#181818" points="1367.7798,635.2188,1377.7798,639.2188,1367.7798,643.2188,1371.7798,639.2188" style="stroke:#181818;stroke-width:1.0;"/><line style="stroke:#181818;stroke-width:1.0;" x1="662.4146" x2="1373.7798" y1="639.2188" y2="639.2188"/><text fill="#000000" font-family="sans-serif" font-size="13" lengthAdjust="spacing" textLength="174.8335" x="669.4146" y="633.9561">listRepresentatives(Customer)</text><polygon fill="#181818" points="1853.3677,666.5098,1863.3677,670.5098,1853.3677,674.5098,1857.3677,670.5098" style="stroke:#181818;stroke-width:1.0;"/><line style="stroke:#181818;stroke-width:1.0;" x1="1389.7798" x2="1859.3677" y1="670.5098" y2="670.5098"/><text fill="#000000" font-family="sans-serif" font-size="13" lengthAdjust="spacing" textLength="157.4854" x="1396.7798" y="665.2471">findByCustomer(Customer)</text><polygon fill="#181818" points="2039.853,697.8008,2049.853,701.8008,2039.853,705.8008,2043.853,701.8008" style="stroke:#181818;stroke-width:1.0;"/><line style="stroke:#181818;stroke-width:1.0;" x1="1875.3677" x2="2045.853" y1="701.8008" y2="701.8008"/><text fill="#000000" font-family="sans-serif" font-size="13" lengthAdjust="spacing" textLength="157.4854" x="1882.3677" y="696.5381">findByCustomer(Customer)</text><polygon fill="#181818" points="1886.3677,729.0918,1876.3677,733.0918,1886.3677,737.0918,1882.3677,733.0918" style="stroke:#181818;stroke-width:1.0;"/><line style="stroke:#181818;stroke-width:1.0;stroke-dasharray:2.0,2.0;" x1="1880.3677" x2="2055.853" y1="733.0918" y2="733.0918"/><text fill="#000000" font-family="sans-serif" font-size="13" lengthAdjust="spacing" textLength="132.2344" x="1892.3677" y="727.8291">List of Representatives</text><polygon fill="#181818" points="1400.7798,760.3828,1390.7798,764.3828,1400.7798,768.3828,1396.7798,764.3828" style="stroke:#181818;stroke-width:1.0;"/><line style="stroke:#181818;stroke-width:1.0;" x1="1394.7798" x2="1869.3677" y1="764.3828" y2="764.3828"/><text fill="#000000" font-family="sans-serif" font-size="13" lengthAdjust="spacing" textLength="132.2344" x="1406.7798" y="759.1201">List of Representatives</text><polygon fill="#181818" points="673.4146,774.3828,663.4146,778.3828,673.4146,782.3828,669.4146,778.3828" style="stroke:#181818;stroke-width:1.0;"/><line style="stroke:#181818;stroke-width:1.0;stroke-dasharray:2.0,2.0;" x1="667.4146" x2="1383.7798" y1="778.3828" y2="778.3828"/><polygon fill="#181818" points="312.0195,805.6738,302.0195,809.6738,312.0195,813.6738,308.0195,809.6738" style="stroke:#181818;stroke-width:1.0;"/><line style="stroke:#181818;stroke-width:1.0;stroke-dasharray:2.0,2.0;" x1="306.0195" x2="656.4146" y1="809.6738" y2="809.6738"/><text fill="#000000" font-family="sans-serif" font-size="13" lengthAdjust="spacing" textLength="132.2344" x="318.0195" y="804.4111">List of Representatives</text><polygon fill="#181818" points="80.0171,836.9648,70.0171,840.9648,80.0171,844.9648,76.0171,840.9648" style="stroke:#181818;stroke-width:1.0;"/><line style="stroke:#181818;stroke-width:1.0;stroke-dasharray:2.0,2.0;" x1="74.0171" x2="295.0195" y1="840.9648" y2="840.9648"/><text fill="#000000" font-family="sans-serif" font-size="13" lengthAdjust="spacing" textLength="168.3652" x="86.0171" y="835.7021">Show List of Representatives</text><polygon fill="#181818" points="279.0195,868.2559,289.0195,872.2559,279.0195,876.2559,283.0195,872.2559" style="stroke:#181818;stroke-width:1.0;"/><line style="stroke:#181818;stroke-width:1.0;" x1="69.0171" x2="285.0195" y1="872.2559" y2="872.2559"/><text fill="#000000" font-family="sans-serif" font-size="13" lengthAdjust="spacing" textLength="135.8589" x="76.0171" y="866.9932">Choose Representative</text><polygon fill="#181818" points="80.0171,899.5469,70.0171,903.5469,80.0171,907.5469,76.0171,903.5469" style="stroke:#181818;stroke-width:1.0;"/><line style="stroke:#181818;stroke-width:1.0;" x1="74.0171" x2="295.0195" y1="903.5469" y2="903.5469"/><text fill="#000000" font-family="sans-serif" font-size="13" lengthAdjust="spacing" textLength="198.0024" x="86.0171" y="898.2842">Request new Representative Data</text><polygon fill="#181818" points="279.0195,930.8379,289.0195,934.8379,279.0195,938.8379,283.0195,934.8379" style="stroke:#181818;stroke-width:1.0;"/><line style="stroke:#181818;stroke-width:1.0;" x1="69.0171" x2="285.0195" y1="934.8379" y2="934.8379"/><text fill="#000000" font-family="sans-serif" font-size="13" lengthAdjust="spacing" textLength="193.6606" x="76.0171" y="929.5752">Provide new Representative Data</text><polygon fill="#181818" points="640.4146,962.1289,650.4146,966.1289,640.4146,970.1289,644.4146,966.1289" style="stroke:#181818;stroke-width:1.0;"/><line style="stroke:#181818;stroke-width:1.0;" x1="301.0195" x2="646.4146" y1="966.1289" y2="966.1289"/><text fill="#000000" font-family="sans-serif" font-size="13" lengthAdjust="spacing" textLength="332.395" x="308.0195" y="960.8662">editRepresentative(Representative, email, phoneNumber)</text><polygon fill="#181818" points="1367.7798,993.4199,1377.7798,997.4199,1367.7798,1001.4199,1371.7798,997.4199" style="stroke:#181818;stroke-width:1.0;"/><line style="stroke:#181818;stroke-width:1.0;" x1="662.4146" x2="1373.7798" y1="997.4199" y2="997.4199"/><text fill="#000000" font-family="sans-serif" font-size="13" lengthAdjust="spacing" textLength="332.395" x="669.4146" y="992.1572">editRepresentative(Representative, email, phoneNumber)</text><polygon fill="#181818" points="1555.1445,1024.7109,1565.1445,1028.7109,1555.1445,1032.7109,1559.1445,1028.7109" style="stroke:#181818;stroke-width:1.0;"/><line style="stroke:#181818;stroke-width:1.0;" x1="1389.7798" x2="1561.1445" y1="1028.7109" y2="1028.7109"/><text fill="#000000" font-family="sans-serif" font-size="13" lengthAdjust="spacing" textLength="150.2935" x="1396.7798" y="1023.4482">edit(email, phoneNumber)</text><polygon fill="#181818" points="1853.3677,1056.002,1863.3677,1060.002,1853.3677,1064.002,1857.3677,1060.002" style="stroke:#181818;stroke-width:1.0;"/><line style="stroke:#181818;stroke-width:1.0;" x1="1389.7798" x2="1859.3677" y1="1060.002" y2="1060.002"/><text fill="#000000" font-family="sans-serif" font-size="13" lengthAdjust="spacing" textLength="36.1182" x="1396.7798" y="1054.7393">save()</text><polygon fill="#181818" points="2039.853,1087.293,2049.853,1091.293,2039.853,1095.293,2043.853,1091.293" style="stroke:#181818;stroke-width:1.0;"/><line style="stroke:#181818;stroke-width:1.0;" x1="1875.3677" x2="2045.853" y1="1091.293" y2="1091.293"/><text fill="#000000" font-family="sans-serif" font-size="13" lengthAdjust="spacing" textLength="36.1182" x="1882.3677" y="1086.0303">save()</text><polygon fill="#181818" points="1886.3677,1101.293,1876.3677,1105.293,1886.3677,1109.293,1882.3677,1105.293" style="stroke:#181818;stroke-width:1.0;"/><line style="stroke:#181818;stroke-width:1.0;stroke-dasharray:2.0,2.0;" x1="1880.3677" x2="2055.853" y1="1105.293" y2="1105.293"/><polygon fill="#181818" points="1400.7798,1115.293,1390.7798,1119.293,1400.7798,1123.293,1396.7798,1119.293" style="stroke:#181818;stroke-width:1.0;"/><line style="stroke:#181818;stroke-width:1.0;" x1="1394.7798" x2="1869.3677" y1="1119.293" y2="1119.293"/><polygon fill="#181818" points="673.4146,1129.293,663.4146,1133.293,673.4146,1137.293,669.4146,1133.293" style="stroke:#181818;stroke-width:1.0;"/><line style="stroke:#181818;stroke-width:1.0;stroke-dasharray:2.0,2.0;" x1="667.4146" x2="1383.7798" y1="1133.293" y2="1133.293"/><polygon fill="#181818" points="312.0195,1143.293,302.0195,1147.293,312.0195,1151.293,308.0195,1147.293" style="stroke:#181818;stroke-width:1.0;"/><line style="stroke:#181818;stroke-width:1.0;stroke-dasharray:2.0,2.0;" x1="306.0195" x2="656.4146" y1="1147.293" y2="1147.293"/><polygon fill="#181818" points="75.0171,1174.584,65.0171,1178.584,75.0171,1182.584,71.0171,1178.584" style="stroke:#181818;stroke-width:1.0;"/><line style="stroke:#181818;stroke-width:1.0;stroke-dasharray:2.0,2.0;" x1="69.0171" x2="290.0195" y1="1178.584" y2="1178.584"/><text fill="#000000" font-family="sans-serif" font-size="13" lengthAdjust="spacing" textLength="145.2344" x="81.0171" y="1173.3213">Inform operation success</text><!--SRC=[pPVHRfim58Rl_HH7kKghzWLG5IbBAotIkasjyW0kd3IM4flP9bNszBEX10CsXhIRvfi4VFZFPtpE3sYczmZF-Aj0dYBSC_egwO4GcceXORPwUeILsE_fYv3Kd9a1LR2qSoIdKhEKvPHhc3raJAyAfSK1vMPTHctMS7UNIrJ8DTLCyCKYVCrAS2rD7gmoD8T6W-RvdgLUYMMXTqAot-NaCyeZIx52z4nOANEwgr4ZF59EN_5WQ5sXuEmms1CsAp-YNpeICoM1HyzSdea3PJoqNXCk53CxUMejj3bj5EJvO3X_HoiqsLKa6TNqXIg4sVtxl_Bw-g0iGtQa6jzhZfG_SBimrPM0sect-HK1CyvncpKXfl9CH5D3rzUGG2hHp9jmExeH2UoPEXUZweesWQISiCCfKIFbgxSoBN9LIBJJvdROlSHier1-fMh9Jp-sbiUl62oyYdLfsR1BN8-6FAH2Ml5b-c2bEpJENYQmPJpxSgf8vbeMUDKJxO4q0dq2by99PDBN1P70cAIjn4qjGM3K4N3hNMW2typz1h65AkavH7aLC-od7h_GWLqVJU4GUExwb6rtwZwIOA2-tB9-Rzp1fRZgJj_PbhMDPWqWWMVJ-c4PHyBwGSiqLZiXL1DCIDy_QlAkIq3LUcrtK_DQAjI27lFmjtpiWJ0bVGyZ8XvkZnXL3zpZ4JLZ17O0EEORVTA8Wro25FUIdf-4c9ecwEndK7giiSJkH6G_fu4vKC7zkgYeMeqtBVMOPrtNas3SiltUvFf5RL7GyQYGQiUgwjC-osfBa5vrckjTriswiSid-tvlG3Y-TLyJRIrDelafnP5b6DKAS_LS5SsNG5jgtZwy0JIliliRo7U2u_VYyF9FxFOJk2RxyAVPS8K_7mluSQjNz8ZplsBi4ymz0d61dO-sz46LAUxzGGSVymIPl8R_pR17sBBNbnDOywsG1n0vol9h3LIHfgXK-M7eA5LVd7y0]--></g></svg>