<svg xmlns="http://www.w3.org/2000/svg" xmlns:xlink="http://www.w3.org/1999/xlink" contentStyleType="text/css" height="547px" preserveAspectRatio="none" style="width:772px;height:547px;background:#FFFFFF;" version="1.1" viewBox="0 0 772 547" width="772px" zoomAndPan="magnify"><title>System Sequence Diagram - US223</title><defs/><g><text fill="#000000" font-family="sans-serif" font-size="14" font-weight="bold" lengthAdjust="spacing" textLength="234.9922" x="264.7922" y="30.1074">System Sequence Diagram - US223</text><rect fill="#FFFFFF" height="322.6191" style="stroke:#181818;stroke-width:1.0;" width="10" x="59.0171" y="133.2422"/><rect fill="#FFFFFF" height="75.582" style="stroke:#181818;stroke-width:1.0;" width="10" x="498.2261" y="201.8242"/><rect fill="#FFFFFF" height="31.291" style="stroke:#181818;stroke-width:1.0;" width="10" x="498.2261" y="308.6973"/><rect fill="#FFFFFF" height="75.582" style="stroke:#181818;stroke-width:1.0;" width="10" x="498.2261" y="371.2793"/><line style="stroke:#181818;stroke-width:0.5;stroke-dasharray:5.0,5.0;" x1="64" x2="64" y1="123.2422" y2="464.8613"/><line style="stroke:#181818;stroke-width:0.5;stroke-dasharray:5.0,5.0;" x1="502.8882" x2="502.8882" y1="123.2422" y2="464.8613"/><text fill="#000000" font-family="sans-serif" font-size="14" lengthAdjust="spacing" textLength="112.0342" x="5" y="119.7285">CRM Collaborator</text><ellipse cx="64.0171" cy="53.1211" fill="#E3E3E3" rx="8" ry="8" style="stroke:#181818;stroke-width:0.5;"/><path d="M64.0171,61.1211 L64.0171,88.1211 M51.0171,69.1211 L77.0171,69.1211 M64.0171,88.1211 L51.0171,103.1211 M64.0171,88.1211 L77.0171,103.1211 " fill="none" style="stroke:#181818;stroke-width:0.5;"/><text fill="#000000" font-family="sans-serif" font-size="14" lengthAdjust="spacing" textLength="112.0342" x="5" y="478.9688">CRM Collaborator</text><ellipse cx="64.0171" cy="490.9824" fill="#E3E3E3" rx="8" ry="8" style="stroke:#181818;stroke-width:0.5;"/><path d="M64.0171,498.9824 L64.0171,525.9824 M51.0171,506.9824 L77.0171,506.9824 M64.0171,525.9824 L51.0171,540.9824 M64.0171,525.9824 L77.0171,540.9824 " fill="none" style="stroke:#181818;stroke-width:0.5;"/><rect fill="#E3E3E3" height="32.6211" rx="2.5" ry="2.5" style="stroke:#181818;stroke-width:0.5;" width="60.6758" x="472.8882" y="89.6211"/><text fill="#000000" font-family="sans-serif" font-size="14" lengthAdjust="spacing" textLength="46.6758" x="479.8882" y="111.7285">System</text><rect fill="#E3E3E3" height="32.6211" rx="2.5" ry="2.5" style="stroke:#181818;stroke-width:0.5;" width="60.6758" x="472.8882" y="463.8613"/><text fill="#000000" font-family="sans-serif" font-size="14" lengthAdjust="spacing" textLength="46.6758" x="479.8882" y="485.9688">System</text><rect fill="#FFFFFF" height="322.6191" style="stroke:#181818;stroke-width:1.0;" width="10" x="59.0171" y="133.2422"/><rect fill="#FFFFFF" height="75.582" style="stroke:#181818;stroke-width:1.0;" width="10" x="498.2261" y="201.8242"/><rect fill="#FFFFFF" height="31.291" style="stroke:#181818;stroke-width:1.0;" width="10" x="498.2261" y="308.6973"/><rect fill="#FFFFFF" height="75.582" style="stroke:#181818;stroke-width:1.0;" width="10" x="498.2261" y="371.2793"/><rect fill="#EEEEEE" height="3" style="stroke:#EEEEEE;stroke-width:1.0;" width="765.5767" x="0" y="154.8877"/><line style="stroke:#000000;stroke-width:1.0;" x1="0" x2="765.5767" y1="154.8877" y2="154.8877"/><line style="stroke:#000000;stroke-width:1.0;" x1="0" x2="765.5767" y1="157.8877" y2="157.8877"/><rect fill="#EEEEEE" height="25.291" style="stroke:#000000;stroke-width:2.0;" width="134.6563" x="315.4602" y="143.2422"/><text fill="#000000" font-family="sans-serif" font-size="13" font-weight="bold" lengthAdjust="spacing" textLength="117.0444" x="321.4602" y="161.2705">Edit representative</text><polygon fill="#181818" points="486.2261,197.8242,496.2261,201.8242,486.2261,205.8242,490.2261,201.8242" style="stroke:#181818;stroke-width:1.0;"/><line style="stroke:#181818;stroke-width:1.0;" x1="69.0171" x2="492.2261" y1="201.8242" y2="201.8242"/><text fill="#000000" font-family="sans-serif" font-size="13" lengthAdjust="spacing" textLength="108.3926" x="76.0171" y="196.5615">Edit representative</text><line style="stroke:#181818;stroke-width:1.0;" x1="508.2261" x2="550.2261" y1="233.1152" y2="233.1152"/><line style="stroke:#181818;stroke-width:1.0;" x1="550.2261" x2="550.2261" y1="233.1152" y2="246.1152"/><line style="stroke:#181818;stroke-width:1.0;" x1="509.2261" x2="550.2261" y1="246.1152" y2="246.1152"/><polygon fill="#181818" points="519.2261,242.1152,509.2261,246.1152,519.2261,250.1152,515.2261,246.1152" style="stroke:#181818;stroke-width:1.0;"/><text fill="#000000" font-family="sans-serif" font-size="13" lengthAdjust="spacing" textLength="130.0635" x="515.2261" y="227.8525">Get all representatives</text><polygon fill="#181818" points="80.0171,273.4063,70.0171,277.4063,80.0171,281.4063,76.0171,277.4063" style="stroke:#181818;stroke-width:1.0;"/><line style="stroke:#181818;stroke-width:1.0;" x1="74.0171" x2="502.2261" y1="277.4063" y2="277.4063"/><text fill="#000000" font-family="sans-serif" font-size="13" lengthAdjust="spacing" textLength="146.7007" x="86.0171" y="272.1436">Choose a Representative</text><polygon fill="#181818" points="486.2261,304.6973,496.2261,308.6973,486.2261,312.6973,490.2261,308.6973" style="stroke:#181818;stroke-width:1.0;"/><line style="stroke:#181818;stroke-width:1.0;" x1="69.0171" x2="492.2261" y1="308.6973" y2="308.6973"/><text fill="#000000" font-family="sans-serif" font-size="13" lengthAdjust="spacing" textLength="135.1289" x="76.0171" y="303.4346">Provide Representative</text><polygon fill="#181818" points="80.0171,335.9883,70.0171,339.9883,80.0171,343.9883,76.0171,339.9883" style="stroke:#181818;stroke-width:1.0;"/><line style="stroke:#181818;stroke-width:1.0;" x1="74.0171" x2="502.2261" y1="339.9883" y2="339.9883"/><text fill="#000000" font-family="sans-serif" font-size="13" lengthAdjust="spacing" textLength="405.209" x="86.0171" y="334.7256">Request new Representative information ("Email and Phone Number")</text><polygon fill="#181818" points="486.2261,367.2793,496.2261,371.2793,486.2261,375.2793,490.2261,371.2793" style="stroke:#181818;stroke-width:1.0;"/><line style="stroke:#181818;stroke-width:1.0;" x1="69.0171" x2="492.2261" y1="371.2793" y2="371.2793"/><text fill="#000000" font-family="sans-serif" font-size="13" lengthAdjust="spacing" textLength="400.8672" x="76.0171" y="366.0166">Provide new Representative information ("Email and Phone Number")</text><line style="stroke:#181818;stroke-width:1.0;" x1="508.2261" x2="550.2261" y1="402.5703" y2="402.5703"/><line style="stroke:#181818;stroke-width:1.0;" x1="550.2261" x2="550.2261" y1="402.5703" y2="415.5703"/><line style="stroke:#181818;stroke-width:1.0;" x1="509.2261" x2="550.2261" y1="415.5703" y2="415.5703"/><polygon fill="#181818" points="519.2261,411.5703,509.2261,415.5703,519.2261,419.5703,515.2261,415.5703" style="stroke:#181818;stroke-width:1.0;"/><text fill="#000000" font-family="sans-serif" font-size="13" lengthAdjust="spacing" textLength="228.3506" x="515.2261" y="397.3076">Update new Representative information</text><polygon fill="#181818" points="80.0171,442.8613,70.0171,446.8613,80.0171,450.8613,76.0171,446.8613" style="stroke:#181818;stroke-width:1.0;"/><line style="stroke:#181818;stroke-width:1.0;" x1="74.0171" x2="502.2261" y1="446.8613" y2="446.8613"/><text fill="#000000" font-family="sans-serif" font-size="13" lengthAdjust="spacing" textLength="131.5234" x="86.0171" y="441.5986">Confirmation of update</text><!--SRC=[dP6nRi8m48PtFyKfKpkmq0qfNIZgH8KIyG27SqaiR5zgNq2yVHCARHfGXBfPvz__zzcEU-CR3EZ0iMTT1tO44bfIyMUdGRt7Yd8vMO90Mj1NTXY8DHPyDBw24cqafL0B1qYMsHgMR2tkE60tIG0ZwE26CzLLYD6cGI-GvASevCwvU5ug9KOwxFS6vFJPajS4RmQh7Zs3RJwVloYLfh0gZ7H-JQ18Nb3CWI1DUnbpGA4RiXeDOFPweSBYNjblqzNjaXwUUoS1j7PqD0wpO-m2bZLp9438_W9LGMFcbFCcyC4KTDCouNthalLF70Ky7KT5O7p9mNLhzl2Kh1mQ2-WBsDJi2JvQjwEGFD-HViZw_y17_cNR57rY6ZBzIUnBSxNX4jfpuxtRAlK5]--></g></svg>