<svg xmlns="http://www.w3.org/2000/svg" xmlns:xlink="http://www.w3.org/1999/xlink" contentStyleType="text/css" height="1055px" preserveAspectRatio="none" style="width:2355px;height:1055px;background:#FFFFFF;" version="1.1" viewBox="0 0 2355 1055" width="2355px" zoomAndPan="magnify"><title>Sequence Diagram</title><defs/><g><text fill="#000000" font-family="sans-serif" font-size="14" font-weight="bold" lengthAdjust="spacing" textLength="126.0479" x="1115.8799" y="30.1074">Sequence Diagram</text><rect fill="#FFFFFF" height="820.6738" style="stroke:#181818;stroke-width:1.0;" width="10" x="59.0171" y="133.2422"/><rect fill="#FFFFFF" height="388.8125" style="stroke:#181818;stroke-width:1.0;" width="10" x="269.3042" y="156.5332"/><rect fill="#FFFFFF" height="377.2793" style="stroke:#181818;stroke-width:1.0;" width="10" x="269.3042" y="576.6367"/><rect fill="#FFFFFF" height="263.9883" style="stroke:#181818;stroke-width:1.0;" width="10" x="720.252" y="250.0664"/><rect fill="#FFFFFF" height="314.6973" style="stroke:#181818;stroke-width:1.0;" width="10" x="720.252" y="607.9277"/><rect fill="#FFFFFF" height="139.1641" style="stroke:#181818;stroke-width:1.0;" width="10" x="1217.7939" y="343.5996"/><rect fill="#FFFFFF" height="269.4063" style="stroke:#181818;stroke-width:1.0;" width="10" x="1217.7939" y="639.2188"/><rect fill="#FFFFFF" height="209.1152" style="stroke:#181818;stroke-width:1.0;" width="10" x="1222.7939" y="678.5098"/><rect fill="#FFFFFF" height="52.2422" style="stroke:#181818;stroke-width:1.0;" width="10" x="1882.1128" y="724.8008"/><rect fill="#FFFFFF" height="93.873" style="stroke:#181818;stroke-width:1.0;" width="10" x="2016.9951" y="374.8906"/><rect fill="#FFFFFF" height="59.291" style="stroke:#181818;stroke-width:1.0;" width="10" x="2016.9951" y="808.334"/><rect fill="#FFFFFF" height="31.291" style="stroke:#181818;stroke-width:1.0;" width="10" x="2315.8423" y="406.1816"/><rect fill="#FFFFFF" height="14" style="stroke:#181818;stroke-width:1.0;" width="10" x="2315.8423" y="839.625"/><line style="stroke:#181818;stroke-width:0.5;stroke-dasharray:5.0,5.0;" x1="64" x2="64" y1="123.2422" y2="971.916"/><line style="stroke:#181818;stroke-width:0.5;stroke-dasharray:5.0,5.0;" x1="274.1563" x2="274.1563" y1="123.2422" y2="971.916"/><line style="stroke:#181818;stroke-width:0.5;stroke-dasharray:5.0,5.0;" x1="724.7593" x2="724.7593" y1="205.6543" y2="971.916"/><line style="stroke:#181818;stroke-width:0.5;stroke-dasharray:5.0,5.0;" x1="1039.8535" x2="1039.8535" y1="299.1875" y2="971.916"/><line style="stroke:#181818;stroke-width:0.5;stroke-dasharray:5.0,5.0;" x1="1222.2529" x2="1222.2529" y1="123.2422" y2="971.916"/><line style="stroke:#181818;stroke-width:0.5;stroke-dasharray:5.0,5.0;" x1="1704.4658" x2="1704.4658" y1="123.2422" y2="971.916"/><line style="stroke:#181818;stroke-width:0.5;stroke-dasharray:5.0,5.0;" x1="1887.0303" x2="1887.0303" y1="732.6309" y2="971.916"/><line style="stroke:#181818;stroke-width:0.5;stroke-dasharray:5.0,5.0;" x1="2021.1953" x2="2021.1953" y1="123.2422" y2="971.916"/><line style="stroke:#181818;stroke-width:0.5;stroke-dasharray:5.0,5.0;" x1="2189.7949" x2="2189.7949" y1="123.2422" y2="971.916"/><line style="stroke:#181818;stroke-width:0.5;stroke-dasharray:5.0,5.0;" x1="2319.877" x2="2319.877" y1="123.2422" y2="971.916"/><text fill="#000000" font-family="sans-serif" font-size="14" lengthAdjust="spacing" textLength="112.0342" x="5" y="119.7285">CRM Collaborator</text><ellipse cx="64.0171" cy="53.1211" fill="#E2E2F0" rx="8" ry="8" style="stroke:#181818;stroke-width:0.5;"/><path d="M64.0171,61.1211 L64.0171,88.1211 M51.0171,69.1211 L77.0171,69.1211 M64.0171,88.1211 L51.0171,103.1211 M64.0171,88.1211 L77.0171,103.1211 " fill="none" style="stroke:#181818;stroke-width:0.5;"/><text fill="#000000" font-family="sans-serif" font-size="14" lengthAdjust="spacing" textLength="112.0342" x="5" y="986.0234">CRM Collaborator</text><ellipse cx="64.0171" cy="998.0371" fill="#E2E2F0" rx="8" ry="8" style="stroke:#181818;stroke-width:0.5;"/><path d="M64.0171,1006.0371 L64.0171,1033.0371 M51.0171,1014.0371 L77.0171,1014.0371 M64.0171,1033.0371 L51.0171,1048.0371 M64.0171,1033.0371 L77.0171,1048.0371 " fill="none" style="stroke:#181818;stroke-width:0.5;"/><rect fill="#E2E2F0" height="51.2422" rx="2.5" ry="2.5" style="stroke:#181818;stroke-width:0.5;" width="174.2959" x="187.1563" y="71"/><text fill="#000000" font-family="sans-serif" font-size="14" font-style="italic" lengthAdjust="spacing" textLength="92.627" x="227.9907" y="93.1074">&#171;presentation&#187;</text><text fill="#000000" font-family="sans-serif" font-size="14" lengthAdjust="spacing" textLength="160.2959" x="194.1563" y="111.7285">RegisterRepresentativeUI</text><rect fill="#E2E2F0" height="51.2422" rx="2.5" ry="2.5" style="stroke:#181818;stroke-width:0.5;" width="174.2959" x="187.1563" y="970.916"/><text fill="#000000" font-family="sans-serif" font-size="14" font-style="italic" lengthAdjust="spacing" textLength="92.627" x="227.9907" y="993.0234">&#171;presentation&#187;</text><text fill="#000000" font-family="sans-serif" font-size="14" lengthAdjust="spacing" textLength="160.2959" x="194.1563" y="1011.6445">RegisterRepresentativeUI</text><rect fill="#E2E2F0" height="51.2422" rx="2.5" ry="2.5" style="stroke:#181818;stroke-width:0.5;" width="220.9854" x="614.7593" y="970.916"/><text fill="#000000" font-family="sans-serif" font-size="14" font-style="italic" lengthAdjust="spacing" textLength="82.5098" x="683.9971" y="993.0234">&#171;application&#187;</text><text fill="#000000" font-family="sans-serif" font-size="14" lengthAdjust="spacing" textLength="206.9854" x="621.7593" y="1011.6445">RegisterRepresentativeController</text><rect fill="#E2E2F0" height="51.2422" rx="2.5" ry="2.5" style="stroke:#181818;stroke-width:0.5;" width="142.3994" x="968.8535" y="970.916"/><text fill="#000000" font-family="sans-serif" font-size="14" font-style="italic" lengthAdjust="spacing" textLength="42.8203" x="1018.6431" y="993.0234">&#171;auth&#187;</text><text fill="#000000" font-family="sans-serif" font-size="14" lengthAdjust="spacing" textLength="128.3994" x="975.8535" y="1011.6445">AuthorizationService</text><rect fill="#E2E2F0" height="51.2422" rx="2.5" ry="2.5" style="stroke:#181818;stroke-width:0.5;" width="203.082" x="1121.2529" y="71"/><text fill="#000000" font-family="sans-serif" font-size="14" font-style="italic" lengthAdjust="spacing" textLength="82.5098" x="1181.5391" y="93.1074">&#171;application&#187;</text><text fill="#000000" font-family="sans-serif" font-size="14" lengthAdjust="spacing" textLength="189.082" x="1128.2529" y="111.7285">CustomerManagementService</text><rect fill="#E2E2F0" height="51.2422" rx="2.5" ry="2.5" style="stroke:#181818;stroke-width:0.5;" width="203.082" x="1121.2529" y="970.916"/><text fill="#000000" font-family="sans-serif" font-size="14" font-style="italic" lengthAdjust="spacing" textLength="82.5098" x="1181.5391" y="993.0234">&#171;application&#187;</text><text fill="#000000" font-family="sans-serif" font-size="14" lengthAdjust="spacing" textLength="189.082" x="1128.2529" y="1011.6445">CustomerManagementService</text><rect fill="#E2E2F0" height="51.2422" rx="2.5" ry="2.5" style="stroke:#181818;stroke-width:0.5;" width="236.5645" x="1586.4658" y="71"/><text fill="#000000" font-family="sans-serif" font-size="14" font-style="italic" lengthAdjust="spacing" textLength="82.5098" x="1663.4932" y="93.1074">&#171;application&#187;</text><text fill="#000000" font-family="sans-serif" font-size="14" lengthAdjust="spacing" textLength="222.5645" x="1593.4658" y="111.7285">RepresentativeManagementService</text><rect fill="#E2E2F0" height="51.2422" rx="2.5" ry="2.5" style="stroke:#181818;stroke-width:0.5;" width="236.5645" x="1586.4658" y="970.916"/><text fill="#000000" font-family="sans-serif" font-size="14" font-style="italic" lengthAdjust="spacing" textLength="82.5098" x="1663.4932" y="993.0234">&#171;application&#187;</text><text fill="#000000" font-family="sans-serif" font-size="14" lengthAdjust="spacing" textLength="222.5645" x="1593.4658" y="1011.6445">RepresentativeManagementService</text><rect fill="#E2E2F0" height="51.2422" rx="2.5" ry="2.5" style="stroke:#181818;stroke-width:0.5;" width="108.165" x="1833.0303" y="970.916"/><text fill="#000000" font-family="sans-serif" font-size="14" font-style="italic" lengthAdjust="spacing" textLength="61.4893" x="1856.3682" y="993.0234">&#171;domain&#187;</text><text fill="#000000" font-family="sans-serif" font-size="14" lengthAdjust="spacing" textLength="94.165" x="1840.0303" y="1011.6445">Representative</text><rect fill="#E2E2F0" height="51.2422" rx="2.5" ry="2.5" style="stroke:#181818;stroke-width:0.5;" width="141.5996" x="1951.1953" y="71"/><text fill="#000000" font-family="sans-serif" font-size="14" font-style="italic" lengthAdjust="spacing" textLength="77.041" x="1983.4746" y="93.1074">&#171;repository&#187;</text><text fill="#000000" font-family="sans-serif" font-size="14" lengthAdjust="spacing" textLength="127.5996" x="1958.1953" y="111.7285">CustomerRepository</text><rect fill="#E2E2F0" height="51.2422" rx="2.5" ry="2.5" style="stroke:#181818;stroke-width:0.5;" width="141.5996" x="1951.1953" y="970.916"/><text fill="#000000" font-family="sans-serif" font-size="14" font-style="italic" lengthAdjust="spacing" textLength="77.041" x="1983.4746" y="993.0234">&#171;repository&#187;</text><text fill="#000000" font-family="sans-serif" font-size="14" lengthAdjust="spacing" textLength="127.5996" x="1958.1953" y="1011.6445">CustomerRepository</text><rect fill="#E2E2F0" height="51.2422" rx="2.5" ry="2.5" style="stroke:#181818;stroke-width:0.5;" width="175.082" x="2102.7949" y="71"/><text fill="#000000" font-family="sans-serif" font-size="14" font-style="italic" lengthAdjust="spacing" textLength="77.041" x="2151.8154" y="93.1074">&#171;repository&#187;</text><text fill="#000000" font-family="sans-serif" font-size="14" lengthAdjust="spacing" textLength="161.082" x="2109.7949" y="111.7285">RepresentativeRepository</text><rect fill="#E2E2F0" height="51.2422" rx="2.5" ry="2.5" style="stroke:#181818;stroke-width:0.5;" width="175.082" x="2102.7949" y="970.916"/><text fill="#000000" font-family="sans-serif" font-size="14" font-style="italic" lengthAdjust="spacing" textLength="77.041" x="2151.8154" y="993.0234">&#171;repository&#187;</text><text fill="#000000" font-family="sans-serif" font-size="14" lengthAdjust="spacing" textLength="161.082" x="2109.7949" y="1011.6445">RepresentativeRepository</text><text fill="#000000" font-family="sans-serif" font-size="14" lengthAdjust="spacing" textLength="59.9307" x="2287.877" y="119.7285">Database</text><path d="M2302.8423,68.6211 C2302.8423,58.6211 2320.8423,58.6211 2320.8423,58.6211 C2320.8423,58.6211 2338.8423,58.6211 2338.8423,68.6211 L2338.8423,94.6211 C2338.8423,104.6211 2320.8423,104.6211 2320.8423,104.6211 C2320.8423,104.6211 2302.8423,104.6211 2302.8423,94.6211 L2302.8423,68.6211 " fill="#E2E2F0" style="stroke:#181818;stroke-width:1.5;"/><path d="M2302.8423,68.6211 C2302.8423,78.6211 2320.8423,78.6211 2320.8423,78.6211 C2320.8423,78.6211 2338.8423,78.6211 2338.8423,68.6211 " fill="none" style="stroke:#181818;stroke-width:1.5;"/><text fill="#000000" font-family="sans-serif" font-size="14" lengthAdjust="spacing" textLength="59.9307" x="2287.877" y="986.0234">Database</text><path d="M2302.8423,999.5371 C2302.8423,989.5371 2320.8423,989.5371 2320.8423,989.5371 C2320.8423,989.5371 2338.8423,989.5371 2338.8423,999.5371 L2338.8423,1025.5371 C2338.8423,1035.5371 2320.8423,1035.5371 2320.8423,1035.5371 C2320.8423,1035.5371 2302.8423,1035.5371 2302.8423,1025.5371 L2302.8423,999.5371 " fill="#E2E2F0" style="stroke:#181818;stroke-width:1.5;"/><path d="M2302.8423,999.5371 C2302.8423,1009.5371 2320.8423,1009.5371 2320.8423,1009.5371 C2320.8423,1009.5371 2338.8423,1009.5371 2338.8423,999.5371 " fill="none" style="stroke:#181818;stroke-width:1.5;"/><rect fill="#FFFFFF" height="820.6738" style="stroke:#181818;stroke-width:1.0;" width="10" x="59.0171" y="133.2422"/><rect fill="#FFFFFF" height="388.8125" style="stroke:#181818;stroke-width:1.0;" width="10" x="269.3042" y="156.5332"/><rect fill="#FFFFFF" height="377.2793" style="stroke:#181818;stroke-width:1.0;" width="10" x="269.3042" y="576.6367"/><rect fill="#FFFFFF" height="263.9883" style="stroke:#181818;stroke-width:1.0;" width="10" x="720.252" y="250.0664"/><rect fill="#FFFFFF" height="314.6973" style="stroke:#181818;stroke-width:1.0;" width="10" x="720.252" y="607.9277"/><rect fill="#FFFFFF" height="139.1641" style="stroke:#181818;stroke-width:1.0;" width="10" x="1217.7939" y="343.5996"/><rect fill="#FFFFFF" height="269.4063" style="stroke:#181818;stroke-width:1.0;" width="10" x="1217.7939" y="639.2188"/><rect fill="#FFFFFF" height="209.1152" style="stroke:#181818;stroke-width:1.0;" width="10" x="1222.7939" y="678.5098"/><rect fill="#FFFFFF" height="52.2422" style="stroke:#181818;stroke-width:1.0;" width="10" x="1882.1128" y="724.8008"/><rect fill="#FFFFFF" height="93.873" style="stroke:#181818;stroke-width:1.0;" width="10" x="2016.9951" y="374.8906"/><rect fill="#FFFFFF" height="59.291" style="stroke:#181818;stroke-width:1.0;" width="10" x="2016.9951" y="808.334"/><rect fill="#FFFFFF" height="31.291" style="stroke:#181818;stroke-width:1.0;" width="10" x="2315.8423" y="406.1816"/><rect fill="#FFFFFF" height="14" style="stroke:#181818;stroke-width:1.0;" width="10" x="2315.8423" y="839.625"/><polygon fill="#181818" points="257.3042,152.5332,267.3042,156.5332,257.3042,160.5332,261.3042,156.5332" style="stroke:#181818;stroke-width:1.0;"/><line style="stroke:#181818;stroke-width:1.0;" x1="69.0171" x2="263.3042" y1="156.5332" y2="156.5332"/><text fill="#000000" font-family="sans-serif" font-size="13" lengthAdjust="spacing" textLength="39.0063" x="76.0171" y="151.2705">show()</text><polygon fill="#181818" points="602.7593,183.8242,612.7593,187.8242,602.7593,191.8242,606.7593,187.8242" style="stroke:#181818;stroke-width:1.0;"/><line style="stroke:#181818;stroke-width:1.0;" x1="279.3042" x2="608.7593" y1="187.8242" y2="187.8242"/><text fill="#000000" font-family="sans-serif" font-size="13" lengthAdjust="spacing" textLength="44.7891" x="286.3042" y="182.5615">create()</text><rect fill="#E2E2F0" height="51.2422" rx="2.5" ry="2.5" style="stroke:#181818;stroke-width:0.5;" width="220.9854" x="614.7593" y="164.5332"/><text fill="#000000" font-family="sans-serif" font-size="14" font-style="italic" lengthAdjust="spacing" textLength="82.5098" x="683.9971" y="186.6406">&#171;application&#187;</text><text fill="#000000" font-family="sans-serif" font-size="14" lengthAdjust="spacing" textLength="206.9854" x="621.7593" y="205.2617">RegisterRepresentativeController</text><polygon fill="#181818" points="708.252,246.0664,718.252,250.0664,708.252,254.0664,712.252,250.0664" style="stroke:#181818;stroke-width:1.0;"/><line style="stroke:#181818;stroke-width:1.0;" x1="279.3042" x2="714.252" y1="250.0664" y2="250.0664"/><text fill="#000000" font-family="sans-serif" font-size="13" lengthAdjust="spacing" textLength="87.3945" x="286.3042" y="244.8037">listCustomers()</text><polygon fill="#181818" points="956.8535,277.3574,966.8535,281.3574,956.8535,285.3574,960.8535,281.3574" style="stroke:#181818;stroke-width:1.0;"/><line style="stroke:#181818;stroke-width:1.0;" x1="730.252" x2="962.8535" y1="281.3574" y2="281.3574"/><text fill="#000000" font-family="sans-serif" font-size="13" lengthAdjust="spacing" textLength="214.6016" x="737.252" y="276.0947">ensureAuthenticatedUserHasAnyOf()</text><rect fill="#E2E2F0" height="51.2422" rx="2.5" ry="2.5" style="stroke:#181818;stroke-width:0.5;" width="142.3994" x="968.8535" y="258.0664"/><text fill="#000000" font-family="sans-serif" font-size="14" font-style="italic" lengthAdjust="spacing" textLength="42.8203" x="1018.6431" y="280.1738">&#171;auth&#187;</text><text fill="#000000" font-family="sans-serif" font-size="14" lengthAdjust="spacing" textLength="128.3994" x="975.8535" y="298.7949">AuthorizationService</text><polygon fill="#181818" points="1205.7939,339.5996,1215.7939,343.5996,1205.7939,347.5996,1209.7939,343.5996" style="stroke:#181818;stroke-width:1.0;"/><line style="stroke:#181818;stroke-width:1.0;" x1="730.252" x2="1211.7939" y1="343.5996" y2="343.5996"/><text fill="#000000" font-family="sans-serif" font-size="13" lengthAdjust="spacing" textLength="122.7954" x="737.252" y="338.3369">listActiveCustomers()</text><polygon fill="#181818" points="2004.9951,370.8906,2014.9951,374.8906,2004.9951,378.8906,2008.9951,374.8906" style="stroke:#181818;stroke-width:1.0;"/><line style="stroke:#181818;stroke-width:1.0;" x1="1227.7939" x2="2010.9951" y1="374.8906" y2="374.8906"/><text fill="#000000" font-family="sans-serif" font-size="13" lengthAdjust="spacing" textLength="102.5908" x="1234.7939" y="369.6279">findByActive(true)</text><polygon fill="#181818" points="2303.8423,402.1816,2313.8423,406.1816,2303.8423,410.1816,2307.8423,406.1816" style="stroke:#181818;stroke-width:1.0;"/><line style="stroke:#181818;stroke-width:1.0;" x1="2026.9951" x2="2309.8423" y1="406.1816" y2="406.1816"/><text fill="#000000" font-family="sans-serif" font-size="13" lengthAdjust="spacing" textLength="102.5908" x="2033.9951" y="400.9189">findByActive(true)</text><polygon fill="#181818" points="2037.9951,433.4727,2027.9951,437.4727,2037.9951,441.4727,2033.9951,437.4727" style="stroke:#181818;stroke-width:1.0;"/><line style="stroke:#181818;stroke-width:1.0;stroke-dasharray:2.0,2.0;" x1="2031.9951" x2="2319.8423" y1="437.4727" y2="437.4727"/><text fill="#000000" font-family="sans-serif" font-size="13" lengthAdjust="spacing" textLength="140.1563" x="2043.9951" y="432.21">List of Active Customers</text><polygon fill="#181818" points="1238.7939,464.7637,1228.7939,468.7637,1238.7939,472.7637,1234.7939,468.7637" style="stroke:#181818;stroke-width:1.0;"/><line style="stroke:#181818;stroke-width:1.0;" x1="1232.7939" x2="2020.9951" y1="468.7637" y2="468.7637"/><text fill="#000000" font-family="sans-serif" font-size="13" lengthAdjust="spacing" textLength="140.1563" x="1244.7939" y="463.501">List of Active Customers</text><polygon fill="#181818" points="741.252,478.7637,731.252,482.7637,741.252,486.7637,737.252,482.7637" style="stroke:#181818;stroke-width:1.0;"/><line style="stroke:#181818;stroke-width:1.0;" x1="735.252" x2="1221.7939" y1="482.7637" y2="482.7637"/><polygon fill="#181818" points="290.3042,510.0547,280.3042,514.0547,290.3042,518.0547,286.3042,514.0547" style="stroke:#181818;stroke-width:1.0;"/><line style="stroke:#181818;stroke-width:1.0;stroke-dasharray:2.0,2.0;" x1="284.3042" x2="724.252" y1="514.0547" y2="514.0547"/><text fill="#000000" font-family="sans-serif" font-size="13" lengthAdjust="spacing" textLength="140.1563" x="296.3042" y="508.792">List of Active Customers</text><polygon fill="#181818" points="80.0171,541.3457,70.0171,545.3457,80.0171,549.3457,76.0171,545.3457" style="stroke:#181818;stroke-width:1.0;"/><line style="stroke:#181818;stroke-width:1.0;stroke-dasharray:2.0,2.0;" x1="74.0171" x2="273.3042" y1="545.3457" y2="545.3457"/><text fill="#000000" font-family="sans-serif" font-size="13" lengthAdjust="spacing" textLength="176.2871" x="86.0171" y="540.083">Show List of Active Customers</text><polygon fill="#181818" points="257.3042,572.6367,267.3042,576.6367,257.3042,580.6367,261.3042,576.6367" style="stroke:#181818;stroke-width:1.0;"/><line style="stroke:#181818;stroke-width:1.0;" x1="69.0171" x2="263.3042" y1="576.6367" y2="576.6367"/><text fill="#000000" font-family="sans-serif" font-size="13" lengthAdjust="spacing" textLength="104.7681" x="76.0171" y="571.374">Choose Customer</text><polygon fill="#181818" points="708.252,603.9277,718.252,607.9277,708.252,611.9277,712.252,607.9277" style="stroke:#181818;stroke-width:1.0;"/><line style="stroke:#181818;stroke-width:1.0;" x1="279.3042" x2="714.252" y1="607.9277" y2="607.9277"/><text fill="#000000" font-family="sans-serif" font-size="13" lengthAdjust="spacing" textLength="421.9478" x="286.3042" y="602.665">registerRepresentative(Customer, Name, Email, PhoneNumber, Position)</text><polygon fill="#181818" points="1205.7939,635.2188,1215.7939,639.2188,1205.7939,643.2188,1209.7939,639.2188" style="stroke:#181818;stroke-width:1.0;"/><line style="stroke:#181818;stroke-width:1.0;" x1="730.252" x2="1211.7939" y1="639.2188" y2="639.2188"/><text fill="#000000" font-family="sans-serif" font-size="13" lengthAdjust="spacing" textLength="447.9541" x="737.252" y="633.9561">registerNewRepresentative(Customer, Name, Email, PhoneNumber, Position)</text><line style="stroke:#181818;stroke-width:1.0;" x1="1227.7939" x2="1274.7939" y1="665.5098" y2="665.5098"/><line style="stroke:#181818;stroke-width:1.0;" x1="1274.7939" x2="1274.7939" y1="665.5098" y2="678.5098"/><line style="stroke:#181818;stroke-width:1.0;" x1="1233.7939" x2="1274.7939" y1="678.5098" y2="678.5098"/><polygon fill="#181818" points="1243.7939,674.5098,1233.7939,678.5098,1243.7939,682.5098,1239.7939,678.5098" style="stroke:#181818;stroke-width:1.0;"/><text fill="#000000" font-family="sans-serif" font-size="13" lengthAdjust="spacing" textLength="447.9541" x="1239.7939" y="660.2471">registerNewRepresentative(Customer, Name, Email, PhoneNumber, Position)</text><polygon fill="#181818" points="1821.0303,710.8008,1831.0303,714.8008,1821.0303,718.8008,1825.0303,714.8008" style="stroke:#181818;stroke-width:1.0;"/><line style="stroke:#181818;stroke-width:1.0;" x1="1232.7939" x2="1827.0303" y1="714.8008" y2="714.8008"/><text fill="#000000" font-family="sans-serif" font-size="13" lengthAdjust="spacing" textLength="406.0596" x="1239.7939" y="709.5381">new Representative(Customer, Name, Email, PhoneNumber, Position)</text><rect fill="#E2E2F0" height="51.2422" rx="2.5" ry="2.5" style="stroke:#181818;stroke-width:0.5;" width="108.165" x="1833.0303" y="691.5098"/><text fill="#000000" font-family="sans-serif" font-size="14" font-style="italic" lengthAdjust="spacing" textLength="61.4893" x="1856.3682" y="713.6172">&#171;domain&#187;</text><text fill="#000000" font-family="sans-serif" font-size="14" lengthAdjust="spacing" textLength="94.165" x="1840.0303" y="732.2383">Representative</text><polygon fill="#181818" points="1243.7939,773.043,1233.7939,777.043,1243.7939,781.043,1239.7939,777.043" style="stroke:#181818;stroke-width:1.0;"/><line style="stroke:#181818;stroke-width:1.0;stroke-dasharray:2.0,2.0;" x1="1237.7939" x2="1886.1128" y1="777.043" y2="777.043"/><text fill="#000000" font-family="sans-serif" font-size="13" lengthAdjust="spacing" textLength="111.2871" x="1249.7939" y="771.7803">newRepresentative</text><polygon fill="#181818" points="2004.9951,804.334,2014.9951,808.334,2004.9951,812.334,2008.9951,808.334" style="stroke:#181818;stroke-width:1.0;"/><line style="stroke:#181818;stroke-width:1.0;" x1="1232.7939" x2="2010.9951" y1="808.334" y2="808.334"/><text fill="#000000" font-family="sans-serif" font-size="13" lengthAdjust="spacing" textLength="147.4053" x="1239.7939" y="803.0713">save(newRepresentative)</text><polygon fill="#181818" points="2303.8423,835.625,2313.8423,839.625,2303.8423,843.625,2307.8423,839.625" style="stroke:#181818;stroke-width:1.0;"/><line style="stroke:#181818;stroke-width:1.0;" x1="2026.9951" x2="2309.8423" y1="839.625" y2="839.625"/><text fill="#000000" font-family="sans-serif" font-size="13" lengthAdjust="spacing" textLength="36.1182" x="2033.9951" y="834.3623">save()</text><polygon fill="#181818" points="2037.9951,849.625,2027.9951,853.625,2037.9951,857.625,2033.9951,853.625" style="stroke:#181818;stroke-width:1.0;"/><line style="stroke:#181818;stroke-width:1.0;stroke-dasharray:2.0,2.0;" x1="2031.9951" x2="2319.8423" y1="853.625" y2="853.625"/><polygon fill="#181818" points="1243.7939,863.625,1233.7939,867.625,1243.7939,871.625,1239.7939,867.625" style="stroke:#181818;stroke-width:1.0;"/><line style="stroke:#181818;stroke-width:1.0;stroke-dasharray:2.0,2.0;" x1="1237.7939" x2="2020.9951" y1="867.625" y2="867.625"/><line style="stroke:#181818;stroke-width:1.0;stroke-dasharray:2.0,2.0;" x1="1232.7939" x2="1274.7939" y1="886.625" y2="886.625"/><line style="stroke:#181818;stroke-width:1.0;stroke-dasharray:2.0,2.0;" x1="1274.7939" x2="1274.7939" y1="886.625" y2="899.625"/><line style="stroke:#181818;stroke-width:1.0;stroke-dasharray:2.0,2.0;" x1="1227.7939" x2="1274.7939" y1="899.625" y2="899.625"/><polygon fill="#181818" points="1237.7939,895.625,1227.7939,899.625,1237.7939,903.625,1233.7939,899.625" style="stroke:#181818;stroke-width:1.0;"/><polygon fill="#181818" points="741.252,904.625,731.252,908.625,741.252,912.625,737.252,908.625" style="stroke:#181818;stroke-width:1.0;"/><line style="stroke:#181818;stroke-width:1.0;stroke-dasharray:2.0,2.0;" x1="735.252" x2="1221.7939" y1="908.625" y2="908.625"/><polygon fill="#181818" points="290.3042,918.625,280.3042,922.625,290.3042,926.625,286.3042,922.625" style="stroke:#181818;stroke-width:1.0;"/><line style="stroke:#181818;stroke-width:1.0;stroke-dasharray:2.0,2.0;" x1="284.3042" x2="724.252" y1="922.625" y2="922.625"/><polygon fill="#181818" points="75.0171,949.916,65.0171,953.916,75.0171,957.916,71.0171,953.916" style="stroke:#181818;stroke-width:1.0;"/><line style="stroke:#181818;stroke-width:1.0;stroke-dasharray:2.0,2.0;" x1="69.0171" x2="273.3042" y1="953.916" y2="953.916"/><text fill="#000000" font-family="sans-serif" font-size="13" lengthAdjust="spacing" textLength="145.2344" x="81.0171" y="948.6533">Inform operation success</text><!--SRC=[jLRRRk8m47ttLunuebNvWQX2OccbHTgo5OWFSCC0beYTjPrMtQ_VST8qJk9Ss5A_G3BZSuuzjrXXpmXR_9EXZ14U13zgdZ36OwiqJ9QR9rYgyvc_ACtfpGIuWOMpiPHhAsAHScbXii6ZC1Rr1bED1gNbLhpYRfNxxrPmVr-zLt8-7xDxgQJLn8q5Q_L8Q3nDpo8EWYqoUr9Q_CsDMzIl8iP2Ti3WeEXr4sEP6QiIr4zSyYCcfCW7whJs2wkVBWmzu7C9GG2FjkzLmeNiEY-vAoCekk-rWrQl2K5_FlJpDx2wZ4r4jkUMlt23C7du-9VlBn_or1IltE977hBy1sPpohC8p4czJMyOqFhqswqOenmaZog7RcyXWbWZsSdThQP716TAol8AJ1EqScIvmIqlHGagb6yvBKgJQNHckWuNIzpl3EgVt2pa- - -3qnD6x4oyGkiYpikceRXSbV8k55Rpp-axCzrJuyKoWeEG-n_lXPAfrHdUj41RGYg0jW9VXKT4z6L2H326j4PSvH9qhD83Pi63Hl2BxXlK0GhIJnSJHDnZcthyGNkYFbg5fo1mwvU4tSlx0OA1_F9s37IzS3by57pl5VYgl7frfUuAr3ME2BRKChfXF0ZNHshDPdbIobJEZBNxJgcysLseL7HmwarBj3jOymJlu94QzlaEdazAuZfBNfpbsKMEkafNXGTwquKTnTEtnhUhIVpVHZIw6GMAvBlEuTRYEyvILvcF38blS7NnmQ3KMTZWHbgDZupPG5x9PXm6EJfRnHSIfJQr3ASBRUcwOVrZPEpy6Zd8IXq3mRfWYesSPcpivOza31spBoU6PkP8nJrXlmRxrokxDW3OTIXR4x5pAhUP_J58oRUI1wKJK2dg_9CLJ1R7QAgFYVeez9wA3_5_]--></g></svg>