<svg xmlns="http://www.w3.org/2000/svg" xmlns:xlink="http://www.w3.org/1999/xlink" contentStyleType="text/css" height="1055px" preserveAspectRatio="none" style="width:2060px;height:1055px;background:#FFFFFF;" version="1.1" viewBox="0 0 2060 1055" width="2060px" zoomAndPan="magnify"><title>Sequence Diagram</title><defs/><g><text fill="#000000" font-family="sans-serif" font-size="14" font-weight="bold" lengthAdjust="spacing" textLength="126.0479" x="968.446" y="30.1074">Sequence Diagram</text><rect fill="#FFFFFF" height="820.6738" style="stroke:#181818;stroke-width:1.0;" width="10" x="59.0171" y="133.2422"/><rect fill="#FFFFFF" height="388.8125" style="stroke:#181818;stroke-width:1.0;" width="10" x="269.3042" y="156.5332"/><rect fill="#FFFFFF" height="377.2793" style="stroke:#181818;stroke-width:1.0;" width="10" x="269.3042" y="576.6367"/><rect fill="#FFFFFF" height="263.9883" style="stroke:#181818;stroke-width:1.0;" width="10" x="720.252" y="250.0664"/><rect fill="#FFFFFF" height="314.6973" style="stroke:#181818;stroke-width:1.0;" width="10" x="720.252" y="607.9277"/><rect fill="#FFFFFF" height="139.1641" style="stroke:#181818;stroke-width:1.0;" width="10" x="1217.7939" y="343.5996"/><rect fill="#FFFFFF" height="269.4063" style="stroke:#181818;stroke-width:1.0;" width="10" x="1217.7939" y="639.2188"/><rect fill="#FFFFFF" height="209.1152" style="stroke:#181818;stroke-width:1.0;" width="10" x="1222.7939" y="678.5098"/><rect fill="#FFFFFF" height="52.2422" style="stroke:#181818;stroke-width:1.0;" width="10" x="1711.936" y="724.8008"/><rect fill="#FFFFFF" height="93.873" style="stroke:#181818;stroke-width:1.0;" width="10" x="1846.8184" y="374.8906"/><rect fill="#FFFFFF" height="59.291" style="stroke:#181818;stroke-width:1.0;" width="10" x="1846.8184" y="808.334"/><rect fill="#FFFFFF" height="31.291" style="stroke:#181818;stroke-width:1.0;" width="10" x="2020.9746" y="406.1816"/><rect fill="#FFFFFF" height="14" style="stroke:#181818;stroke-width:1.0;" width="10" x="2020.9746" y="839.625"/><line style="stroke:#181818;stroke-width:0.5;stroke-dasharray:5.0,5.0;" x1="64" x2="64" y1="123.2422" y2="971.916"/><line style="stroke:#181818;stroke-width:0.5;stroke-dasharray:5.0,5.0;" x1="274.1563" x2="274.1563" y1="123.2422" y2="971.916"/><line style="stroke:#181818;stroke-width:0.5;stroke-dasharray:5.0,5.0;" x1="724.7593" x2="724.7593" y1="205.6543" y2="971.916"/><line style="stroke:#181818;stroke-width:0.5;stroke-dasharray:5.0,5.0;" x1="1039.8535" x2="1039.8535" y1="299.1875" y2="971.916"/><line style="stroke:#181818;stroke-width:0.5;stroke-dasharray:5.0,5.0;" x1="1222.2529" x2="1222.2529" y1="123.2422" y2="971.916"/><line style="stroke:#181818;stroke-width:0.5;stroke-dasharray:5.0,5.0;" x1="1716.8535" x2="1716.8535" y1="732.6309" y2="971.916"/><line style="stroke:#181818;stroke-width:0.5;stroke-dasharray:5.0,5.0;" x1="1851.0186" x2="1851.0186" y1="123.2422" y2="971.916"/><line style="stroke:#181818;stroke-width:0.5;stroke-dasharray:5.0,5.0;" x1="2025.0093" x2="2025.0093" y1="123.2422" y2="971.916"/><text fill="#000000" font-family="sans-serif" font-size="14" lengthAdjust="spacing" textLength="112.0342" x="5" y="119.7285">CRM Collaborator</text><ellipse cx="64.0171" cy="53.1211" fill="#E2E2F0" rx="8" ry="8" style="stroke:#181818;stroke-width:0.5;"/><path d="M64.0171,61.1211 L64.0171,88.1211 M51.0171,69.1211 L77.0171,69.1211 M64.0171,88.1211 L51.0171,103.1211 M64.0171,88.1211 L77.0171,103.1211 " fill="none" style="stroke:#181818;stroke-width:0.5;"/><text fill="#000000" font-family="sans-serif" font-size="14" lengthAdjust="spacing" textLength="112.0342" x="5" y="986.0234">CRM Collaborator</text><ellipse cx="64.0171" cy="998.0371" fill="#E2E2F0" rx="8" ry="8" style="stroke:#181818;stroke-width:0.5;"/><path d="M64.0171,1006.0371 L64.0171,1033.0371 M51.0171,1014.0371 L77.0171,1014.0371 M64.0171,1033.0371 L51.0171,1048.0371 M64.0171,1033.0371 L77.0171,1048.0371 " fill="none" style="stroke:#181818;stroke-width:0.5;"/><rect fill="#E2E2F0" height="51.2422" rx="2.5" ry="2.5" style="stroke:#181818;stroke-width:0.5;" width="174.2959" x="187.1563" y="71"/><text fill="#000000" font-family="sans-serif" font-size="14" font-style="italic" lengthAdjust="spacing" textLength="92.627" x="227.9907" y="93.1074">&#171;presentation&#187;</text><text fill="#000000" font-family="sans-serif" font-size="14" lengthAdjust="spacing" textLength="160.2959" x="194.1563" y="111.7285">RegisterRepresentativeUI</text><rect fill="#E2E2F0" height="51.2422" rx="2.5" ry="2.5" style="stroke:#181818;stroke-width:0.5;" width="174.2959" x="187.1563" y="970.916"/><text fill="#000000" font-family="sans-serif" font-size="14" font-style="italic" lengthAdjust="spacing" textLength="92.627" x="227.9907" y="993.0234">&#171;presentation&#187;</text><text fill="#000000" font-family="sans-serif" font-size="14" lengthAdjust="spacing" textLength="160.2959" x="194.1563" y="1011.6445">RegisterRepresentativeUI</text><rect fill="#E2E2F0" height="51.2422" rx="2.5" ry="2.5" style="stroke:#181818;stroke-width:0.5;" width="220.9854" x="614.7593" y="970.916"/><text fill="#000000" font-family="sans-serif" font-size="14" font-style="italic" lengthAdjust="spacing" textLength="82.5098" x="683.9971" y="993.0234">&#171;application&#187;</text><text fill="#000000" font-family="sans-serif" font-size="14" lengthAdjust="spacing" textLength="206.9854" x="621.7593" y="1011.6445">RegisterRepresentativeController</text><rect fill="#E2E2F0" height="51.2422" rx="2.5" ry="2.5" style="stroke:#181818;stroke-width:0.5;" width="142.3994" x="968.8535" y="970.916"/><text fill="#000000" font-family="sans-serif" font-size="14" font-style="italic" lengthAdjust="spacing" textLength="42.8203" x="1018.6431" y="993.0234">&#171;auth&#187;</text><text fill="#000000" font-family="sans-serif" font-size="14" lengthAdjust="spacing" textLength="128.3994" x="975.8535" y="1011.6445">AuthorizationService</text><rect fill="#E2E2F0" height="51.2422" rx="2.5" ry="2.5" style="stroke:#181818;stroke-width:0.5;" width="203.082" x="1121.2529" y="71"/><text fill="#000000" font-family="sans-serif" font-size="14" font-style="italic" lengthAdjust="spacing" textLength="82.5098" x="1181.5391" y="93.1074">&#171;application&#187;</text><text fill="#000000" font-family="sans-serif" font-size="14" lengthAdjust="spacing" textLength="189.082" x="1128.2529" y="111.7285">CustomerManagementService</text><rect fill="#E2E2F0" height="51.2422" rx="2.5" ry="2.5" style="stroke:#181818;stroke-width:0.5;" width="203.082" x="1121.2529" y="970.916"/><text fill="#000000" font-family="sans-serif" font-size="14" font-style="italic" lengthAdjust="spacing" textLength="82.5098" x="1181.5391" y="993.0234">&#171;application&#187;</text><text fill="#000000" font-family="sans-serif" font-size="14" lengthAdjust="spacing" textLength="189.082" x="1128.2529" y="1011.6445">CustomerManagementService</text><rect fill="#E2E2F0" height="51.2422" rx="2.5" ry="2.5" style="stroke:#181818;stroke-width:0.5;" width="108.165" x="1662.8535" y="970.916"/><text fill="#000000" font-family="sans-serif" font-size="14" font-style="italic" lengthAdjust="spacing" textLength="61.4893" x="1686.1914" y="993.0234">&#171;domain&#187;</text><text fill="#000000" font-family="sans-serif" font-size="14" lengthAdjust="spacing" textLength="94.165" x="1669.8535" y="1011.6445">Representative</text><rect fill="#E2E2F0" height="51.2422" rx="2.5" ry="2.5" style="stroke:#181818;stroke-width:0.5;" width="141.5996" x="1781.0186" y="71"/><text fill="#000000" font-family="sans-serif" font-size="14" font-style="italic" lengthAdjust="spacing" textLength="77.041" x="1813.2979" y="93.1074">&#171;repository&#187;</text><text fill="#000000" font-family="sans-serif" font-size="14" lengthAdjust="spacing" textLength="127.5996" x="1788.0186" y="111.7285">CustomerRepository</text><rect fill="#E2E2F0" height="51.2422" rx="2.5" ry="2.5" style="stroke:#181818;stroke-width:0.5;" width="141.5996" x="1781.0186" y="970.916"/><text fill="#000000" font-family="sans-serif" font-size="14" font-style="italic" lengthAdjust="spacing" textLength="77.041" x="1813.2979" y="993.0234">&#171;repository&#187;</text><text fill="#000000" font-family="sans-serif" font-size="14" lengthAdjust="spacing" textLength="127.5996" x="1788.0186" y="1011.6445">CustomerRepository</text><text fill="#000000" font-family="sans-serif" font-size="14" lengthAdjust="spacing" textLength="59.9307" x="1993.0093" y="119.7285">Database</text><path d="M2007.9746,68.6211 C2007.9746,58.6211 2025.9746,58.6211 2025.9746,58.6211 C2025.9746,58.6211 2043.9746,58.6211 2043.9746,68.6211 L2043.9746,94.6211 C2043.9746,104.6211 2025.9746,104.6211 2025.9746,104.6211 C2025.9746,104.6211 2007.9746,104.6211 2007.9746,94.6211 L2007.9746,68.6211 " fill="#E2E2F0" style="stroke:#181818;stroke-width:1.5;"/><path d="M2007.9746,68.6211 C2007.9746,78.6211 2025.9746,78.6211 2025.9746,78.6211 C2025.9746,78.6211 2043.9746,78.6211 2043.9746,68.6211 " fill="none" style="stroke:#181818;stroke-width:1.5;"/><text fill="#000000" font-family="sans-serif" font-size="14" lengthAdjust="spacing" textLength="59.9307" x="1993.0093" y="986.0234">Database</text><path d="M2007.9746,999.5371 C2007.9746,989.5371 2025.9746,989.5371 2025.9746,989.5371 C2025.9746,989.5371 2043.9746,989.5371 2043.9746,999.5371 L2043.9746,1025.5371 C2043.9746,1035.5371 2025.9746,1035.5371 2025.9746,1035.5371 C2025.9746,1035.5371 2007.9746,1035.5371 2007.9746,1025.5371 L2007.9746,999.5371 " fill="#E2E2F0" style="stroke:#181818;stroke-width:1.5;"/><path d="M2007.9746,999.5371 C2007.9746,1009.5371 2025.9746,1009.5371 2025.9746,1009.5371 C2025.9746,1009.5371 2043.9746,1009.5371 2043.9746,999.5371 " fill="none" style="stroke:#181818;stroke-width:1.5;"/><rect fill="#FFFFFF" height="820.6738" style="stroke:#181818;stroke-width:1.0;" width="10" x="59.0171" y="133.2422"/><rect fill="#FFFFFF" height="388.8125" style="stroke:#181818;stroke-width:1.0;" width="10" x="269.3042" y="156.5332"/><rect fill="#FFFFFF" height="377.2793" style="stroke:#181818;stroke-width:1.0;" width="10" x="269.3042" y="576.6367"/><rect fill="#FFFFFF" height="263.9883" style="stroke:#181818;stroke-width:1.0;" width="10" x="720.252" y="250.0664"/><rect fill="#FFFFFF" height="314.6973" style="stroke:#181818;stroke-width:1.0;" width="10" x="720.252" y="607.9277"/><rect fill="#FFFFFF" height="139.1641" style="stroke:#181818;stroke-width:1.0;" width="10" x="1217.7939" y="343.5996"/><rect fill="#FFFFFF" height="269.4063" style="stroke:#181818;stroke-width:1.0;" width="10" x="1217.7939" y="639.2188"/><rect fill="#FFFFFF" height="209.1152" style="stroke:#181818;stroke-width:1.0;" width="10" x="1222.7939" y="678.5098"/><rect fill="#FFFFFF" height="52.2422" style="stroke:#181818;stroke-width:1.0;" width="10" x="1711.936" y="724.8008"/><rect fill="#FFFFFF" height="93.873" style="stroke:#181818;stroke-width:1.0;" width="10" x="1846.8184" y="374.8906"/><rect fill="#FFFFFF" height="59.291" style="stroke:#181818;stroke-width:1.0;" width="10" x="1846.8184" y="808.334"/><rect fill="#FFFFFF" height="31.291" style="stroke:#181818;stroke-width:1.0;" width="10" x="2020.9746" y="406.1816"/><rect fill="#FFFFFF" height="14" style="stroke:#181818;stroke-width:1.0;" width="10" x="2020.9746" y="839.625"/><polygon fill="#181818" points="257.3042,152.5332,267.3042,156.5332,257.3042,160.5332,261.3042,156.5332" style="stroke:#181818;stroke-width:1.0;"/><line style="stroke:#181818;stroke-width:1.0;" x1="69.0171" x2="263.3042" y1="156.5332" y2="156.5332"/><text fill="#000000" font-family="sans-serif" font-size="13" lengthAdjust="spacing" textLength="39.0063" x="76.0171" y="151.2705">show()</text><polygon fill="#181818" points="602.7593,183.8242,612.7593,187.8242,602.7593,191.8242,606.7593,187.8242" style="stroke:#181818;stroke-width:1.0;"/><line style="stroke:#181818;stroke-width:1.0;" x1="279.3042" x2="608.7593" y1="187.8242" y2="187.8242"/><text fill="#000000" font-family="sans-serif" font-size="13" lengthAdjust="spacing" textLength="44.7891" x="286.3042" y="182.5615">create()</text><rect fill="#E2E2F0" height="51.2422" rx="2.5" ry="2.5" style="stroke:#181818;stroke-width:0.5;" width="220.9854" x="614.7593" y="164.5332"/><text fill="#000000" font-family="sans-serif" font-size="14" font-style="italic" lengthAdjust="spacing" textLength="82.5098" x="683.9971" y="186.6406">&#171;application&#187;</text><text fill="#000000" font-family="sans-serif" font-size="14" lengthAdjust="spacing" textLength="206.9854" x="621.7593" y="205.2617">RegisterRepresentativeController</text><polygon fill="#181818" points="708.252,246.0664,718.252,250.0664,708.252,254.0664,712.252,250.0664" style="stroke:#181818;stroke-width:1.0;"/><line style="stroke:#181818;stroke-width:1.0;" x1="279.3042" x2="714.252" y1="250.0664" y2="250.0664"/><text fill="#000000" font-family="sans-serif" font-size="13" lengthAdjust="spacing" textLength="87.3945" x="286.3042" y="244.8037">listCustomers()</text><polygon fill="#181818" points="956.8535,277.3574,966.8535,281.3574,956.8535,285.3574,960.8535,281.3574" style="stroke:#181818;stroke-width:1.0;"/><line style="stroke:#181818;stroke-width:1.0;" x1="730.252" x2="962.8535" y1="281.3574" y2="281.3574"/><text fill="#000000" font-family="sans-serif" font-size="13" lengthAdjust="spacing" textLength="214.6016" x="737.252" y="276.0947">ensureAuthenticatedUserHasAnyOf()</text><rect fill="#E2E2F0" height="51.2422" rx="2.5" ry="2.5" style="stroke:#181818;stroke-width:0.5;" width="142.3994" x="968.8535" y="258.0664"/><text fill="#000000" font-family="sans-serif" font-size="14" font-style="italic" lengthAdjust="spacing" textLength="42.8203" x="1018.6431" y="280.1738">&#171;auth&#187;</text><text fill="#000000" font-family="sans-serif" font-size="14" lengthAdjust="spacing" textLength="128.3994" x="975.8535" y="298.7949">AuthorizationService</text><polygon fill="#181818" points="1205.7939,339.5996,1215.7939,343.5996,1205.7939,347.5996,1209.7939,343.5996" style="stroke:#181818;stroke-width:1.0;"/><line style="stroke:#181818;stroke-width:1.0;" x1="730.252" x2="1211.7939" y1="343.5996" y2="343.5996"/><text fill="#000000" font-family="sans-serif" font-size="13" lengthAdjust="spacing" textLength="122.7954" x="737.252" y="338.3369">listActiveCustomers()</text><polygon fill="#181818" points="1834.8184,370.8906,1844.8184,374.8906,1834.8184,378.8906,1838.8184,374.8906" style="stroke:#181818;stroke-width:1.0;"/><line style="stroke:#181818;stroke-width:1.0;" x1="1227.7939" x2="1840.8184" y1="374.8906" y2="374.8906"/><text fill="#000000" font-family="sans-serif" font-size="13" lengthAdjust="spacing" textLength="102.5908" x="1234.7939" y="369.6279">findByActive(true)</text><polygon fill="#181818" points="2008.9746,402.1816,2018.9746,406.1816,2008.9746,410.1816,2012.9746,406.1816" style="stroke:#181818;stroke-width:1.0;"/><line style="stroke:#181818;stroke-width:1.0;" x1="1856.8184" x2="2014.9746" y1="406.1816" y2="406.1816"/><text fill="#000000" font-family="sans-serif" font-size="13" lengthAdjust="spacing" textLength="102.5908" x="1863.8184" y="400.9189">findByActive(true)</text><polygon fill="#181818" points="1867.8184,433.4727,1857.8184,437.4727,1867.8184,441.4727,1863.8184,437.4727" style="stroke:#181818;stroke-width:1.0;"/><line style="stroke:#181818;stroke-width:1.0;stroke-dasharray:2.0,2.0;" x1="1861.8184" x2="2024.9746" y1="437.4727" y2="437.4727"/><text fill="#000000" font-family="sans-serif" font-size="13" lengthAdjust="spacing" textLength="140.1563" x="1873.8184" y="432.21">List of Active Customers</text><polygon fill="#181818" points="1238.7939,464.7637,1228.7939,468.7637,1238.7939,472.7637,1234.7939,468.7637" style="stroke:#181818;stroke-width:1.0;"/><line style="stroke:#181818;stroke-width:1.0;" x1="1232.7939" x2="1850.8184" y1="468.7637" y2="468.7637"/><text fill="#000000" font-family="sans-serif" font-size="13" lengthAdjust="spacing" textLength="140.1563" x="1244.7939" y="463.501">List of Active Customers</text><polygon fill="#181818" points="741.252,478.7637,731.252,482.7637,741.252,486.7637,737.252,482.7637" style="stroke:#181818;stroke-width:1.0;"/><line style="stroke:#181818;stroke-width:1.0;" x1="735.252" x2="1221.7939" y1="482.7637" y2="482.7637"/><polygon fill="#181818" points="290.3042,510.0547,280.3042,514.0547,290.3042,518.0547,286.3042,514.0547" style="stroke:#181818;stroke-width:1.0;"/><line style="stroke:#181818;stroke-width:1.0;stroke-dasharray:2.0,2.0;" x1="284.3042" x2="724.252" y1="514.0547" y2="514.0547"/><text fill="#000000" font-family="sans-serif" font-size="13" lengthAdjust="spacing" textLength="140.1563" x="296.3042" y="508.792">List of Active Customers</text><polygon fill="#181818" points="80.0171,541.3457,70.0171,545.3457,80.0171,549.3457,76.0171,545.3457" style="stroke:#181818;stroke-width:1.0;"/><line style="stroke:#181818;stroke-width:1.0;stroke-dasharray:2.0,2.0;" x1="74.0171" x2="273.3042" y1="545.3457" y2="545.3457"/><text fill="#000000" font-family="sans-serif" font-size="13" lengthAdjust="spacing" textLength="176.2871" x="86.0171" y="540.083">Show List of Active Customers</text><polygon fill="#181818" points="257.3042,572.6367,267.3042,576.6367,257.3042,580.6367,261.3042,576.6367" style="stroke:#181818;stroke-width:1.0;"/><line style="stroke:#181818;stroke-width:1.0;" x1="69.0171" x2="263.3042" y1="576.6367" y2="576.6367"/><text fill="#000000" font-family="sans-serif" font-size="13" lengthAdjust="spacing" textLength="104.7681" x="76.0171" y="571.374">Choose Customer</text><polygon fill="#181818" points="708.252,603.9277,718.252,607.9277,708.252,611.9277,712.252,607.9277" style="stroke:#181818;stroke-width:1.0;"/><line style="stroke:#181818;stroke-width:1.0;" x1="279.3042" x2="714.252" y1="607.9277" y2="607.9277"/><text fill="#000000" font-family="sans-serif" font-size="13" lengthAdjust="spacing" textLength="421.9478" x="286.3042" y="602.665">registerRepresentative(Customer, Name, Email, PhoneNumber, Position)</text><polygon fill="#181818" points="1205.7939,635.2188,1215.7939,639.2188,1205.7939,643.2188,1209.7939,639.2188" style="stroke:#181818;stroke-width:1.0;"/><line style="stroke:#181818;stroke-width:1.0;" x1="730.252" x2="1211.7939" y1="639.2188" y2="639.2188"/><text fill="#000000" font-family="sans-serif" font-size="13" lengthAdjust="spacing" textLength="447.9541" x="737.252" y="633.9561">registerNewRepresentative(Customer, Name, Email, PhoneNumber, Position)</text><line style="stroke:#181818;stroke-width:1.0;" x1="1227.7939" x2="1274.7939" y1="665.5098" y2="665.5098"/><line style="stroke:#181818;stroke-width:1.0;" x1="1274.7939" x2="1274.7939" y1="665.5098" y2="678.5098"/><line style="stroke:#181818;stroke-width:1.0;" x1="1233.7939" x2="1274.7939" y1="678.5098" y2="678.5098"/><polygon fill="#181818" points="1243.7939,674.5098,1233.7939,678.5098,1243.7939,682.5098,1239.7939,678.5098" style="stroke:#181818;stroke-width:1.0;"/><text fill="#000000" font-family="sans-serif" font-size="13" lengthAdjust="spacing" textLength="447.9541" x="1239.7939" y="660.2471">registerNewRepresentative(Customer, Name, Email, PhoneNumber, Position)</text><polygon fill="#181818" points="1650.8535,710.8008,1660.8535,714.8008,1650.8535,718.8008,1654.8535,714.8008" style="stroke:#181818;stroke-width:1.0;"/><line style="stroke:#181818;stroke-width:1.0;" x1="1232.7939" x2="1656.8535" y1="714.8008" y2="714.8008"/><text fill="#000000" font-family="sans-serif" font-size="13" lengthAdjust="spacing" textLength="406.0596" x="1239.7939" y="709.5381">new Representative(Customer, Name, Email, PhoneNumber, Position)</text><rect fill="#E2E2F0" height="51.2422" rx="2.5" ry="2.5" style="stroke:#181818;stroke-width:0.5;" width="108.165" x="1662.8535" y="691.5098"/><text fill="#000000" font-family="sans-serif" font-size="14" font-style="italic" lengthAdjust="spacing" textLength="61.4893" x="1686.1914" y="713.6172">&#171;domain&#187;</text><text fill="#000000" font-family="sans-serif" font-size="14" lengthAdjust="spacing" textLength="94.165" x="1669.8535" y="732.2383">Representative</text><polygon fill="#181818" points="1243.7939,773.043,1233.7939,777.043,1243.7939,781.043,1239.7939,777.043" style="stroke:#181818;stroke-width:1.0;"/><line style="stroke:#181818;stroke-width:1.0;stroke-dasharray:2.0,2.0;" x1="1237.7939" x2="1715.936" y1="777.043" y2="777.043"/><text fill="#000000" font-family="sans-serif" font-size="13" lengthAdjust="spacing" textLength="111.2871" x="1249.7939" y="771.7803">newRepresentative</text><polygon fill="#181818" points="1834.8184,804.334,1844.8184,808.334,1834.8184,812.334,1838.8184,808.334" style="stroke:#181818;stroke-width:1.0;"/><line style="stroke:#181818;stroke-width:1.0;" x1="1232.7939" x2="1840.8184" y1="808.334" y2="808.334"/><text fill="#000000" font-family="sans-serif" font-size="13" lengthAdjust="spacing" textLength="147.4053" x="1239.7939" y="803.0713">save(newRepresentative)</text><polygon fill="#181818" points="2008.9746,835.625,2018.9746,839.625,2008.9746,843.625,2012.9746,839.625" style="stroke:#181818;stroke-width:1.0;"/><line style="stroke:#181818;stroke-width:1.0;" x1="1856.8184" x2="2014.9746" y1="839.625" y2="839.625"/><text fill="#000000" font-family="sans-serif" font-size="13" lengthAdjust="spacing" textLength="36.1182" x="1863.8184" y="834.3623">save()</text><polygon fill="#181818" points="1867.8184,849.625,1857.8184,853.625,1867.8184,857.625,1863.8184,853.625" style="stroke:#181818;stroke-width:1.0;"/><line style="stroke:#181818;stroke-width:1.0;stroke-dasharray:2.0,2.0;" x1="1861.8184" x2="2024.9746" y1="853.625" y2="853.625"/><polygon fill="#181818" points="1243.7939,863.625,1233.7939,867.625,1243.7939,871.625,1239.7939,867.625" style="stroke:#181818;stroke-width:1.0;"/><line style="stroke:#181818;stroke-width:1.0;stroke-dasharray:2.0,2.0;" x1="1237.7939" x2="1850.8184" y1="867.625" y2="867.625"/><line style="stroke:#181818;stroke-width:1.0;stroke-dasharray:2.0,2.0;" x1="1232.7939" x2="1274.7939" y1="886.625" y2="886.625"/><line style="stroke:#181818;stroke-width:1.0;stroke-dasharray:2.0,2.0;" x1="1274.7939" x2="1274.7939" y1="886.625" y2="899.625"/><line style="stroke:#181818;stroke-width:1.0;stroke-dasharray:2.0,2.0;" x1="1227.7939" x2="1274.7939" y1="899.625" y2="899.625"/><polygon fill="#181818" points="1237.7939,895.625,1227.7939,899.625,1237.7939,903.625,1233.7939,899.625" style="stroke:#181818;stroke-width:1.0;"/><polygon fill="#181818" points="741.252,904.625,731.252,908.625,741.252,912.625,737.252,908.625" style="stroke:#181818;stroke-width:1.0;"/><line style="stroke:#181818;stroke-width:1.0;stroke-dasharray:2.0,2.0;" x1="735.252" x2="1221.7939" y1="908.625" y2="908.625"/><polygon fill="#181818" points="290.3042,918.625,280.3042,922.625,290.3042,926.625,286.3042,922.625" style="stroke:#181818;stroke-width:1.0;"/><line style="stroke:#181818;stroke-width:1.0;stroke-dasharray:2.0,2.0;" x1="284.3042" x2="724.252" y1="922.625" y2="922.625"/><polygon fill="#181818" points="75.0171,949.916,65.0171,953.916,75.0171,957.916,71.0171,953.916" style="stroke:#181818;stroke-width:1.0;"/><line style="stroke:#181818;stroke-width:1.0;stroke-dasharray:2.0,2.0;" x1="69.0171" x2="273.3042" y1="953.916" y2="953.916"/><text fill="#000000" font-family="sans-serif" font-size="13" lengthAdjust="spacing" textLength="145.2344" x="81.0171" y="948.6533">Inform operation success</text><!--SRC=[jLRRZjem47ttLunuWjNo0z4AYRALYjIbAn0VOC80bXARsWw8Vdt72I7EbT2oVe7OatEEVSOpiS9622lydQ0C4Tu5tsiUCyP3gpGCPiiFcAaeuXkbESqCW1kOkZLsvDgAK1ovj31OubuOYtg9Huq6fULMd70zJ-FNStXxA-QLd4pwl3rJqchYneorU2GqVZn68cm4coRseBJuaowkK9z4Y9diXWK7HTDLZ5bYh8fHVt39znYJ8X-eTRLRM7btAL9vYbxVgfWBsIQ7mfKHTFYNaevYcX3qxO5Gs9PRlk46OV1-_PU-cJ-aFeiJjtWrbQK_C9wGQG6OWpeFHmnetEBMSyR8K8ee37bvWG12ZRHEuMvK8mA8oE5SiAc25e4iNN33yvkWcinBQL6QHADRfcDq9u_RjK7zWvkflFpQEJtDYAqkPbgdOPg35SNvA9IteR1IV4hVcZQU6i_B07P2RhzTCYL3gnCSrK1hGWg0kW9VXKT4z7b21D27j4HSv1AqZ3m2neqR3U0ddJUe7MIajn3JYBZ5EdN_ZNQutbk5fw3Xr1-ntSlxEmGT-UMdzVNYTcx5H_VkdRkoxgAv0X30Ygv-Eum7uUf1gMZC3agP8fYnUlt8bLUh1AMyRcm5mnpj5HOynbVuJcKoUeNFWvAuIEADM_bq3b1rQBkf3JNcmShWwLlW-MaI_xMWz2ug3Sd-LVjmO_eLUochJ4k_n3CyNNoZAMKMTlT56fNMFhwJLxBgmrqExmxsaVTuzp6S3hIcQyIwsq7VFjIp8UKwxfZrG3VgsPLOtyFloTYqpQwSkDVxUYhkiFqPxFz_iqiDW3s7ijOHMxjhdTblWvHySxbJEWPrH9r-Ue99mX1DyL5GReNUK_P1_HS0]--></g></svg>