<?xml version="1.0" encoding="us-ascii" standalone="no"?><svg xmlns="http://www.w3.org/2000/svg" xmlns:xlink="http://www.w3.org/1999/xlink" contentStyleType="text/css" height="844.8px" preserveAspectRatio="none" style="width:1804px;height:844px;background:#FFFFFF;" version="1.1" viewBox="0 0 1804 844" width="1804px" zoomAndPan="magnify"><defs/><g><text fill="#000000" font-family="sans-serif" font-size="11.2" font-weight="bold" lengthAdjust="spacing" textLength="105.6" x="850.4" y="24.0859">Sequence Diagram</text><rect fill="#FFFFFF" height="657.7422" style="stroke:#181818;stroke-width:0.8000000000000002;" width="8" x="88.8" y="106.5938"/><rect fill="#FFFFFF" height="74.8266" style="stroke:#181818;stroke-width:0.8000000000000002;" width="8" x="275.2" y="125.2266"/><rect fill="#FFFFFF" height="275.0891" style="stroke:#181818;stroke-width:0.8000000000000002;" width="8" x="407.6" y="200.0531"/><rect fill="#FFFFFF" height="264.1609" style="stroke:#181818;stroke-width:0.8000000000000002;" width="8" x="407.6" y="500.175"/><rect fill="#FFFFFF" height="175.2297" style="stroke:#181818;stroke-width:0.8000000000000002;" width="8" x="554" y="274.8797"/><rect fill="#FFFFFF" height="200.2625" style="stroke:#181818;stroke-width:0.8000000000000002;" width="8" x="554" y="525.2078"/><rect fill="#FFFFFF" height="125.1641" style="stroke:#181818;stroke-width:0.8000000000000002;" width="8" x="1154.4" y="299.9125"/><rect fill="#FFFFFF" height="125.1641" style="stroke:#181818;stroke-width:0.8000000000000002;" width="8" x="1336" y="575.2734"/><rect fill="#FFFFFF" height="75.0984" style="stroke:#181818;stroke-width:0.8000000000000002;" width="8" x="1493.2" y="324.9453"/><rect fill="#FFFFFF" height="75.0984" style="stroke:#181818;stroke-width:0.8000000000000002;" width="8" x="1626" y="600.3063"/><rect fill="#FFFFFF" height="25.0328" style="stroke:#181818;stroke-width:0.8000000000000002;" width="8" x="1772.4" y="349.9781"/><rect fill="#FFFFFF" height="25.0328" style="stroke:#181818;stroke-width:0.8000000000000002;" width="8" x="1772.4" y="625.3391"/><line style="stroke:#181818;stroke-width:0.4000000000000001;stroke-dasharray:5.0,5.0;" x1="92.8" x2="92.8" y1="98.5938" y2="778.7359"/><line style="stroke:#181818;stroke-width:0.4000000000000001;stroke-dasharray:5.0,5.0;" x1="278.8" x2="278.8" y1="98.5938" y2="778.7359"/><line style="stroke:#181818;stroke-width:0.4000000000000001;stroke-dasharray:5.0,5.0;" x1="411.6" x2="411.6" y1="164.5234" y2="778.7359"/><line style="stroke:#181818;stroke-width:0.4000000000000001;stroke-dasharray:5.0,5.0;" x1="558" x2="558" y1="239.35" y2="778.7359"/><line style="stroke:#181818;stroke-width:0.4000000000000001;stroke-dasharray:5.0,5.0;" x1="1011.2" x2="1011.2" y1="98.5938" y2="778.7359"/><line style="stroke:#181818;stroke-width:0.4000000000000001;stroke-dasharray:5.0,5.0;" x1="1158.4" x2="1158.4" y1="98.5938" y2="778.7359"/><line style="stroke:#181818;stroke-width:0.4000000000000001;stroke-dasharray:5.0,5.0;" x1="1340" x2="1340" y1="98.5938" y2="778.7359"/><line style="stroke:#181818;stroke-width:0.4000000000000001;stroke-dasharray:5.0,5.0;" x1="1496.8" x2="1496.8" y1="98.5938" y2="778.7359"/><line style="stroke:#181818;stroke-width:0.4000000000000001;stroke-dasharray:5.0,5.0;" x1="1629.6" x2="1629.6" y1="98.5938" y2="778.7359"/><line style="stroke:#181818;stroke-width:0.4000000000000001;stroke-dasharray:5.0,5.0;" x1="1776" x2="1776" y1="98.5938" y2="778.7359"/><text fill="#000000" font-family="sans-serif" font-size="11.2" lengthAdjust="spacing" textLength="172.8" x="4" y="95.7828">CRM Manager / CRM Collaborator</text><ellipse cx="92.8" cy="42.4969" fill="#E2E2F0" rx="6.4" ry="6.4" style="stroke:#181818;stroke-width:0.4000000000000001;"/><path d="M92.8,48.8969 L92.8,70.4969 M82.4,55.2969 L103.2,55.2969 M92.8,70.4969 L82.4,82.4969 M92.8,70.4969 L103.2,82.4969 " fill="none" style="stroke:#181818;stroke-width:0.4000000000000001;"/><text fill="#000000" font-family="sans-serif" font-size="11.2" lengthAdjust="spacing" textLength="172.8" x="4" y="790.0219">CRM Manager / CRM Collaborator</text><ellipse cx="92.8" cy="799.6328" fill="#E2E2F0" rx="6.4" ry="6.4" style="stroke:#181818;stroke-width:0.4000000000000001;"/><path d="M92.8,806.0328 L92.8,827.6328 M82.4,812.4328 L103.2,812.4328 M92.8,827.6328 L82.4,839.6328 M92.8,827.6328 L103.2,839.6328 " fill="none" style="stroke:#181818;stroke-width:0.4000000000000001;"/><rect fill="#E2E2F0" height="40.9938" rx="2" ry="2" style="stroke:#181818;stroke-width:0.4000000000000001;" width="135.2" x="211.6" y="56.8"/><text fill="#000000" font-family="sans-serif" font-size="11.2" font-style="italic" lengthAdjust="spacing" textLength="76" x="241.2" y="74.4859">&#171;presentation&#187;</text><text fill="#000000" font-family="sans-serif" font-size="11.2" lengthAdjust="spacing" textLength="124" x="217.2" y="89.3828">ListShowRequestsAction</text><rect fill="#E2E2F0" height="40.9938" rx="2" ry="2" style="stroke:#181818;stroke-width:0.4000000000000001;" width="135.2" x="211.6" y="777.9359"/><text fill="#000000" font-family="sans-serif" font-size="11.2" font-style="italic" lengthAdjust="spacing" textLength="76" x="241.2" y="795.6219">&#171;presentation&#187;</text><text fill="#000000" font-family="sans-serif" font-size="11.2" lengthAdjust="spacing" textLength="124" x="217.2" y="810.5188">ListShowRequestsAction</text><rect fill="#E2E2F0" height="40.9938" rx="2" ry="2" style="stroke:#181818;stroke-width:0.4000000000000001;" width="113.6" x="354.8" y="777.9359"/><text fill="#000000" font-family="sans-serif" font-size="11.2" font-style="italic" lengthAdjust="spacing" textLength="76" x="373.6" y="795.6219">&#171;presentation&#187;</text><text fill="#000000" font-family="sans-serif" font-size="11.2" lengthAdjust="spacing" textLength="102.4" x="360.4" y="810.5188">ListShowRequestsUI</text><rect fill="#E2E2F0" height="40.9938" rx="2" ry="2" style="stroke:#181818;stroke-width:0.4000000000000001;" width="153.6" x="481.2" y="777.9359"/><text fill="#000000" font-family="sans-serif" font-size="11.2" font-style="italic" lengthAdjust="spacing" textLength="67.2" x="524.4" y="795.6219">&#171;application&#187;</text><text fill="#000000" font-family="sans-serif" font-size="11.2" lengthAdjust="spacing" textLength="142.4" x="486.8" y="810.5188">ListShowRequestsController</text><rect fill="#E2E2F0" height="40.9938" rx="2" ry="2" style="stroke:#181818;stroke-width:0.4000000000000001;" width="114.4" x="954.4" y="56.8"/><text fill="#000000" font-family="sans-serif" font-size="11.2" font-style="italic" lengthAdjust="spacing" textLength="35.2" x="994" y="74.4859">&#171;auth&#187;</text><text fill="#000000" font-family="sans-serif" font-size="11.2" lengthAdjust="spacing" textLength="103.2" x="960" y="89.3828">AuthorizationService</text><rect fill="#E2E2F0" height="40.9938" rx="2" ry="2" style="stroke:#181818;stroke-width:0.4000000000000001;" width="114.4" x="954.4" y="777.9359"/><text fill="#000000" font-family="sans-serif" font-size="11.2" font-style="italic" lengthAdjust="spacing" textLength="35.2" x="994" y="795.6219">&#171;auth&#187;</text><text fill="#000000" font-family="sans-serif" font-size="11.2" lengthAdjust="spacing" textLength="103.2" x="960" y="810.5188">AuthorizationService</text><rect fill="#E2E2F0" height="40.9938" rx="2" ry="2" style="stroke:#181818;stroke-width:0.4000000000000001;" width="163.2" x="1076.8" y="56.8"/><text fill="#000000" font-family="sans-serif" font-size="11.2" font-style="italic" lengthAdjust="spacing" textLength="67.2" x="1124.8" y="74.4859">&#171;application&#187;</text><text fill="#000000" font-family="sans-serif" font-size="11.2" lengthAdjust="spacing" textLength="152" x="1082.4" y="89.3828">CustomerManagementService</text><rect fill="#E2E2F0" height="40.9938" rx="2" ry="2" style="stroke:#181818;stroke-width:0.4000000000000001;" width="163.2" x="1076.8" y="777.9359"/><text fill="#000000" font-family="sans-serif" font-size="11.2" font-style="italic" lengthAdjust="spacing" textLength="67.2" x="1124.8" y="795.6219">&#171;application&#187;</text><text fill="#000000" font-family="sans-serif" font-size="11.2" lengthAdjust="spacing" textLength="152" x="1082.4" y="810.5188">CustomerManagementService</text><rect fill="#E2E2F0" height="40.9938" rx="2" ry="2" style="stroke:#181818;stroke-width:0.4000000000000001;" width="184" x="1248" y="56.8"/><text fill="#000000" font-family="sans-serif" font-size="11.2" font-style="italic" lengthAdjust="spacing" textLength="67.2" x="1306.4" y="74.4859">&#171;application&#187;</text><text fill="#000000" font-family="sans-serif" font-size="11.2" lengthAdjust="spacing" textLength="172.8" x="1253.6" y="89.3828">ShowRequestManagementService</text><rect fill="#E2E2F0" height="40.9938" rx="2" ry="2" style="stroke:#181818;stroke-width:0.4000000000000001;" width="184" x="1248" y="777.9359"/><text fill="#000000" font-family="sans-serif" font-size="11.2" font-style="italic" lengthAdjust="spacing" textLength="67.2" x="1306.4" y="795.6219">&#171;application&#187;</text><text fill="#000000" font-family="sans-serif" font-size="11.2" lengthAdjust="spacing" textLength="172.8" x="1253.6" y="810.5188">ShowRequestManagementService</text><rect fill="#E2E2F0" height="40.9938" rx="2" ry="2" style="stroke:#181818;stroke-width:0.4000000000000001;" width="114.4" x="1440" y="56.8"/><text fill="#000000" font-family="sans-serif" font-size="11.2" font-style="italic" lengthAdjust="spacing" textLength="63.2" x="1465.6" y="74.4859">&#171;repository&#187;</text><text fill="#000000" font-family="sans-serif" font-size="11.2" lengthAdjust="spacing" textLength="103.2" x="1445.6" y="89.3828">CustomerRepository</text><rect fill="#E2E2F0" height="40.9938" rx="2" ry="2" style="stroke:#181818;stroke-width:0.4000000000000001;" width="114.4" x="1440" y="777.9359"/><text fill="#000000" font-family="sans-serif" font-size="11.2" font-style="italic" lengthAdjust="spacing" textLength="63.2" x="1465.6" y="795.6219">&#171;repository&#187;</text><text fill="#000000" font-family="sans-serif" font-size="11.2" lengthAdjust="spacing" textLength="103.2" x="1445.6" y="810.5188">CustomerRepository</text><rect fill="#E2E2F0" height="40.9938" rx="2" ry="2" style="stroke:#181818;stroke-width:0.4000000000000001;" width="135.2" x="1562.4" y="56.8"/><text fill="#000000" font-family="sans-serif" font-size="11.2" font-style="italic" lengthAdjust="spacing" textLength="63.2" x="1598.4" y="74.4859">&#171;repository&#187;</text><text fill="#000000" font-family="sans-serif" font-size="11.2" lengthAdjust="spacing" textLength="124" x="1568" y="89.3828">ShowRequestRepository</text><rect fill="#E2E2F0" height="40.9938" rx="2" ry="2" style="stroke:#181818;stroke-width:0.4000000000000001;" width="135.2" x="1562.4" y="777.9359"/><text fill="#000000" font-family="sans-serif" font-size="11.2" font-style="italic" lengthAdjust="spacing" textLength="63.2" x="1598.4" y="795.6219">&#171;repository&#187;</text><text fill="#000000" font-family="sans-serif" font-size="11.2" lengthAdjust="spacing" textLength="124" x="1568" y="810.5188">ShowRequestRepository</text><text fill="#000000" font-family="sans-serif" font-size="11.2" lengthAdjust="spacing" textLength="48.8" x="1749.6" y="95.7828">Database</text><path d="M1762,54.8969 C1762,46.8969 1776.4,46.8969 1776.4,46.8969 C1776.4,46.8969 1790.8,46.8969 1790.8,54.8969 L1790.8,75.6969 C1790.8,83.6969 1776.4,83.6969 1776.4,83.6969 C1776.4,83.6969 1762,83.6969 1762,75.6969 L1762,54.8969 " fill="#E2E2F0" style="stroke:#181818;stroke-width:1.2000000000000002;"/><path d="M1762,54.8969 C1762,62.8969 1776.4,62.8969 1776.4,62.8969 C1776.4,62.8969 1790.8,62.8969 1790.8,54.8969 " fill="none" style="stroke:#181818;stroke-width:1.2000000000000002;"/><text fill="#000000" font-family="sans-serif" font-size="11.2" lengthAdjust="spacing" textLength="48.8" x="1749.6" y="790.0219">Database</text><path d="M1762,800.8328 C1762,792.8328 1776.4,792.8328 1776.4,792.8328 C1776.4,792.8328 1790.8,792.8328 1790.8,800.8328 L1790.8,821.6328 C1790.8,829.6328 1776.4,829.6328 1776.4,829.6328 C1776.4,829.6328 1762,829.6328 1762,821.6328 L1762,800.8328 " fill="#E2E2F0" style="stroke:#181818;stroke-width:1.2000000000000002;"/><path d="M1762,800.8328 C1762,808.8328 1776.4,808.8328 1776.4,808.8328 C1776.4,808.8328 1790.8,808.8328 1790.8,800.8328 " fill="none" style="stroke:#181818;stroke-width:1.2000000000000002;"/><rect fill="#FFFFFF" height="657.7422" style="stroke:#181818;stroke-width:0.8000000000000002;" width="8" x="88.8" y="106.5938"/><rect fill="#FFFFFF" height="74.8266" style="stroke:#181818;stroke-width:0.8000000000000002;" width="8" x="275.2" y="125.2266"/><rect fill="#FFFFFF" height="275.0891" style="stroke:#181818;stroke-width:0.8000000000000002;" width="8" x="407.6" y="200.0531"/><rect fill="#FFFFFF" height="264.1609" style="stroke:#181818;stroke-width:0.8000000000000002;" width="8" x="407.6" y="500.175"/><rect fill="#FFFFFF" height="175.2297" style="stroke:#181818;stroke-width:0.8000000000000002;" width="8" x="554" y="274.8797"/><rect fill="#FFFFFF" height="200.2625" style="stroke:#181818;stroke-width:0.8000000000000002;" width="8" x="554" y="525.2078"/><rect fill="#FFFFFF" height="125.1641" style="stroke:#181818;stroke-width:0.8000000000000002;" width="8" x="1154.4" y="299.9125"/><rect fill="#FFFFFF" height="125.1641" style="stroke:#181818;stroke-width:0.8000000000000002;" width="8" x="1336" y="575.2734"/><rect fill="#FFFFFF" height="75.0984" style="stroke:#181818;stroke-width:0.8000000000000002;" width="8" x="1493.2" y="324.9453"/><rect fill="#FFFFFF" height="75.0984" style="stroke:#181818;stroke-width:0.8000000000000002;" width="8" x="1626" y="600.3063"/><rect fill="#FFFFFF" height="25.0328" style="stroke:#181818;stroke-width:0.8000000000000002;" width="8" x="1772.4" y="349.9781"/><rect fill="#FFFFFF" height="25.0328" style="stroke:#181818;stroke-width:0.8000000000000002;" width="8" x="1772.4" y="625.3391"/><polygon fill="#181818" points="265.6,122.0266,273.6,125.2266,265.6,128.4266,268.8,125.2266" style="stroke:#181818;stroke-width:0.8000000000000002;"/><line style="stroke:#181818;stroke-width:0.8000000000000002;" x1="96.8" x2="270.4" y1="125.2266" y2="125.2266"/><text fill="#000000" font-family="sans-serif" font-size="10.4" lengthAdjust="spacing" textLength="163.2" x="102.4" y="121.0164">Wants to list show request of client</text><polygon fill="#181818" points="345.2,147.0594,353.2,150.2594,345.2,153.4594,348.4,150.2594" style="stroke:#181818;stroke-width:0.8000000000000002;"/><line style="stroke:#181818;stroke-width:0.8000000000000002;" x1="283.2" x2="350" y1="150.2594" y2="150.2594"/><text fill="#000000" font-family="sans-serif" font-size="10.4" lengthAdjust="spacing" textLength="28.8" x="288.8" y="146.0492">create</text><rect fill="#E2E2F0" height="40.9938" rx="2" ry="2" style="stroke:#181818;stroke-width:0.4000000000000001;" width="113.6" x="354.8" y="131.6266"/><text fill="#000000" font-family="sans-serif" font-size="11.2" font-style="italic" lengthAdjust="spacing" textLength="76" x="373.6" y="149.3125">&#171;presentation&#187;</text><text fill="#000000" font-family="sans-serif" font-size="11.2" lengthAdjust="spacing" textLength="102.4" x="360.4" y="164.2094">ListShowRequestsUI</text><polygon fill="#181818" points="398,196.8531,406,200.0531,398,203.2531,401.2,200.0531" style="stroke:#181818;stroke-width:0.8000000000000002;"/><line style="stroke:#181818;stroke-width:0.8000000000000002;" x1="279.2" x2="402.8" y1="200.0531" y2="200.0531"/><text fill="#000000" font-family="sans-serif" font-size="10.4" lengthAdjust="spacing" textLength="30.4" x="284.8" y="195.843">show()</text><polygon fill="#181818" points="471.6,221.8859,479.6,225.0859,471.6,228.2859,474.8,225.0859" style="stroke:#181818;stroke-width:0.8000000000000002;"/><line style="stroke:#181818;stroke-width:0.8000000000000002;" x1="415.6" x2="476.4" y1="225.0859" y2="225.0859"/><text fill="#000000" font-family="sans-serif" font-size="10.4" lengthAdjust="spacing" textLength="28.8" x="421.2" y="220.8758">create</text><rect fill="#E2E2F0" height="40.9938" rx="2" ry="2" style="stroke:#181818;stroke-width:0.4000000000000001;" width="153.6" x="481.2" y="206.4531"/><text fill="#000000" font-family="sans-serif" font-size="11.2" font-style="italic" lengthAdjust="spacing" textLength="67.2" x="524.4" y="224.1391">&#171;application&#187;</text><text fill="#000000" font-family="sans-serif" font-size="11.2" lengthAdjust="spacing" textLength="142.4" x="486.8" y="239.0359">ListShowRequestsController</text><polygon fill="#181818" points="544.4,271.6797,552.4,274.8797,544.4,278.0797,547.6,274.8797" style="stroke:#181818;stroke-width:0.8000000000000002;"/><line style="stroke:#181818;stroke-width:0.8000000000000002;" x1="415.6" x2="549.2" y1="274.8797" y2="274.8797"/><text fill="#000000" font-family="sans-serif" font-size="10.4" lengthAdjust="spacing" textLength="70.4" x="421.2" y="270.6695">listCustomers()</text><polygon fill="#181818" points="1144.8,296.7125,1152.8,299.9125,1144.8,303.1125,1148,299.9125" style="stroke:#181818;stroke-width:0.8000000000000002;"/><line style="stroke:#181818;stroke-width:0.8000000000000002;" x1="562" x2="1149.6" y1="299.9125" y2="299.9125"/><text fill="#000000" font-family="sans-serif" font-size="10.4" lengthAdjust="spacing" textLength="112.8" x="567.6" y="295.7023">findAllActiveCustomers()</text><polygon fill="#181818" points="1483.6,321.7453,1491.6,324.9453,1483.6,328.1453,1486.8,324.9453" style="stroke:#181818;stroke-width:0.8000000000000002;"/><line style="stroke:#181818;stroke-width:0.8000000000000002;" x1="1162.4" x2="1488.4" y1="324.9453" y2="324.9453"/><text fill="#000000" font-family="sans-serif" font-size="10.4" lengthAdjust="spacing" textLength="63.2" x="1168" y="320.7352">findByActive()</text><polygon fill="#181818" points="1762.8,346.7781,1770.8,349.9781,1762.8,353.1781,1766,349.9781" style="stroke:#181818;stroke-width:0.8000000000000002;"/><line style="stroke:#181818;stroke-width:0.8000000000000002;" x1="1501.2" x2="1767.6" y1="349.9781" y2="349.9781"/><text fill="#000000" font-family="sans-serif" font-size="10.4" lengthAdjust="spacing" textLength="63.2" x="1506.8" y="345.768">findByActive()</text><polygon fill="#181818" points="1510,371.8109,1502,375.0109,1510,378.2109,1506.8,375.0109" style="stroke:#181818;stroke-width:0.8000000000000002;"/><line style="stroke:#181818;stroke-width:0.8000000000000002;stroke-dasharray:2.0,2.0;" x1="1505.2" x2="1775.6" y1="375.0109" y2="375.0109"/><text fill="#000000" font-family="sans-serif" font-size="10.4" lengthAdjust="spacing" textLength="94.4" x="1514.8" y="370.8008">List of Active Clients</text><polygon fill="#181818" points="1171.2,396.8438,1163.2,400.0438,1171.2,403.2438,1168,400.0438" style="stroke:#181818;stroke-width:0.8000000000000002;"/><line style="stroke:#181818;stroke-width:0.8000000000000002;stroke-dasharray:2.0,2.0;" x1="1166.4" x2="1496.4" y1="400.0438" y2="400.0438"/><text fill="#000000" font-family="sans-serif" font-size="10.4" lengthAdjust="spacing" textLength="94.4" x="1176" y="395.8336">List of Active Clients</text><polygon fill="#181818" points="570.8,421.8766,562.8,425.0766,570.8,428.2766,567.6,425.0766" style="stroke:#181818;stroke-width:0.8000000000000002;"/><line style="stroke:#181818;stroke-width:0.8000000000000002;stroke-dasharray:2.0,2.0;" x1="566" x2="1157.6" y1="425.0766" y2="425.0766"/><text fill="#000000" font-family="sans-serif" font-size="10.4" lengthAdjust="spacing" textLength="94.4" x="575.6" y="420.8664">List of Active Clients</text><polygon fill="#181818" points="424.4,446.9094,416.4,450.1094,424.4,453.3094,421.2,450.1094" style="stroke:#181818;stroke-width:0.8000000000000002;"/><line style="stroke:#181818;stroke-width:0.8000000000000002;stroke-dasharray:2.0,2.0;" x1="419.6" x2="557.2" y1="450.1094" y2="450.1094"/><text fill="#000000" font-family="sans-serif" font-size="10.4" lengthAdjust="spacing" textLength="94.4" x="429.2" y="445.8992">List of Active Clients</text><polygon fill="#181818" points="105.6,471.9422,97.6,475.1422,105.6,478.3422,102.4,475.1422" style="stroke:#181818;stroke-width:0.8000000000000002;"/><line style="stroke:#181818;stroke-width:0.8000000000000002;stroke-dasharray:2.0,2.0;" x1="100.8" x2="410.8" y1="475.1422" y2="475.1422"/><text fill="#000000" font-family="sans-serif" font-size="10.4" lengthAdjust="spacing" textLength="120" x="110.4" y="470.932">Show list of Active Clients</text><polygon fill="#181818" points="398,496.975,406,500.175,398,503.375,401.2,500.175" style="stroke:#181818;stroke-width:0.8000000000000002;"/><line style="stroke:#181818;stroke-width:0.8000000000000002;" x1="96.8" x2="402.8" y1="500.175" y2="500.175"/><text fill="#000000" font-family="sans-serif" font-size="10.4" lengthAdjust="spacing" textLength="63.2" x="102.4" y="495.9648">Choose client</text><polygon fill="#181818" points="544.4,522.0078,552.4,525.2078,544.4,528.4078,547.6,525.2078" style="stroke:#181818;stroke-width:0.8000000000000002;"/><line style="stroke:#181818;stroke-width:0.8000000000000002;" x1="415.6" x2="549.2" y1="525.2078" y2="525.2078"/><text fill="#000000" font-family="sans-serif" font-size="10.4" lengthAdjust="spacing" textLength="123.2" x="421.2" y="520.9977">findByCustomer(customer)</text><polygon fill="#181818" points="1002,547.0406,1010,550.2406,1002,553.4406,1005.2,550.2406" style="stroke:#181818;stroke-width:0.8000000000000002;"/><line style="stroke:#181818;stroke-width:0.8000000000000002;" x1="562" x2="1006.8" y1="550.2406" y2="550.2406"/><text fill="#000000" font-family="sans-serif" font-size="10.4" lengthAdjust="spacing" textLength="430.4" x="567.6" y="546.0305">ensureAuthenticatedUserHasAnyOf(Roles.CRM_COLLABORATOR, Roles.CRM_MANAGER)</text><polygon fill="#181818" points="1326.4,572.0734,1334.4,575.2734,1326.4,578.4734,1329.6,575.2734" style="stroke:#181818;stroke-width:0.8000000000000002;"/><line style="stroke:#181818;stroke-width:0.8000000000000002;" x1="562" x2="1331.2" y1="575.2734" y2="575.2734"/><text fill="#000000" font-family="sans-serif" font-size="10.4" lengthAdjust="spacing" textLength="123.2" x="567.6" y="571.0633">findByCustomer(customer)</text><polygon fill="#181818" points="1616.4,597.1063,1624.4,600.3063,1616.4,603.5063,1619.6,600.3063" style="stroke:#181818;stroke-width:0.8000000000000002;"/><line style="stroke:#181818;stroke-width:0.8000000000000002;" x1="1344" x2="1621.2" y1="600.3063" y2="600.3063"/><text fill="#000000" font-family="sans-serif" font-size="10.4" lengthAdjust="spacing" textLength="123.2" x="1349.6" y="596.0961">findByCustomer(customer)</text><polygon fill="#181818" points="1762.8,622.1391,1770.8,625.3391,1762.8,628.5391,1766,625.3391" style="stroke:#181818;stroke-width:0.8000000000000002;"/><line style="stroke:#181818;stroke-width:0.8000000000000002;" x1="1634" x2="1767.6" y1="625.3391" y2="625.3391"/><text fill="#000000" font-family="sans-serif" font-size="10.4" lengthAdjust="spacing" textLength="123.2" x="1639.6" y="621.1289">findByCustomer(customer)</text><polygon fill="#181818" points="1642.8,647.1719,1634.8,650.3719,1642.8,653.5719,1639.6,650.3719" style="stroke:#181818;stroke-width:0.8000000000000002;"/><line style="stroke:#181818;stroke-width:0.8000000000000002;stroke-dasharray:2.0,2.0;" x1="1638" x2="1775.6" y1="650.3719" y2="650.3719"/><text fill="#000000" font-family="sans-serif" font-size="10.4" lengthAdjust="spacing" textLength="104" x="1647.6" y="646.1617">List of Show Requests</text><polygon fill="#181818" points="1352.8,672.2047,1344.8,675.4047,1352.8,678.6047,1349.6,675.4047" style="stroke:#181818;stroke-width:0.8000000000000002;"/><line style="stroke:#181818;stroke-width:0.8000000000000002;stroke-dasharray:2.0,2.0;" x1="1348" x2="1629.2" y1="675.4047" y2="675.4047"/><text fill="#000000" font-family="sans-serif" font-size="10.4" lengthAdjust="spacing" textLength="104" x="1357.6" y="671.1945">List of Show Requests</text><polygon fill="#181818" points="570.8,697.2375,562.8,700.4375,570.8,703.6375,567.6,700.4375" style="stroke:#181818;stroke-width:0.8000000000000002;"/><line style="stroke:#181818;stroke-width:0.8000000000000002;stroke-dasharray:2.0,2.0;" x1="566" x2="1339.2" y1="700.4375" y2="700.4375"/><text fill="#000000" font-family="sans-serif" font-size="10.4" lengthAdjust="spacing" textLength="104" x="575.6" y="696.2273">List of Show Requests</text><polygon fill="#181818" points="424.4,722.2703,416.4,725.4703,424.4,728.6703,421.2,725.4703" style="stroke:#181818;stroke-width:0.8000000000000002;"/><line style="stroke:#181818;stroke-width:0.8000000000000002;stroke-dasharray:2.0,2.0;" x1="419.6" x2="557.2" y1="725.4703" y2="725.4703"/><text fill="#000000" font-family="sans-serif" font-size="10.4" lengthAdjust="spacing" textLength="104" x="429.2" y="721.2602">List of Show Requests</text><polygon fill="#181818" points="101.6,761.1359,93.6,764.3359,101.6,767.5359,98.4,764.3359" style="stroke:#181818;stroke-width:0.8000000000000002;"/><line style="stroke:#181818;stroke-width:0.8000000000000002;stroke-dasharray:2.0,2.0;" x1="96.8" x2="410.8" y1="764.3359" y2="764.3359"/><text fill="#000000" font-family="sans-serif" font-size="10.4" lengthAdjust="spacing" textLength="124" x="106.4" y="746.293">Show list of show requests</text><text fill="#000000" font-family="sans-serif" font-size="10.4" lengthAdjust="spacing" textLength="88.8" x="109.6" y="760.1258">related to the client</text><!--SRC=[bLPDZzem4BtdLumu0UgszsY5bCrMBH8KAHJrKcdb3MQn5EBKDbJqrtUSJoUn3VY2xV6yUVQy6QAOoYXiwPyppLCAhuny278A0f8gBc0I9sjOavnyK05VGAzYdcNadGk2zWaG2P4-6HH4A9QoWkGA9YicrVR8_oOQLYg9HnZFczCuXUVdGb19SqNqSh7m- - -MfUzk-Q1Vp7Cba2-jc7PBn255aR7K2XETrP4BzgyqRgcui9HMv2q63ONRGupuB1K_KL4ztWaPcq1Egv-OSJSxhk-07xfXbD22IuOPlVQ8Tji88zg5X-00o6ePOks98kz4KfYyrhFIjrcKgcGNecWjkg3yWQT5BQiGVY4D2Of3Xb80YK51L5617o3D6Bv73mMzIXWjIiJPBUVp4591qTpR3akmwIpOqw4xu6ZtTiiWG9sYJwUs-HnQpA4jB9aspomnG0lL7Ge2GxhQtIMV40uitqTPfgbTg1tMvOnHdB8qWdRfgwAzNAjWjXZTsGxSI3-YDhbrOtNPRsRmvA2Zwr_dkGA1k4otD5FMWTde-9_sDhhlsfOt7GZXVdnRwWo1r8Az0yzGc1PcLKWSkUXohMfe3A3rRe2Wujior67Z8-UOexhMnjMXDyPLK6M_kU0qhIUplhz96EhHBmrRYmw1vl8igBOX9zq1wNudgVXEP9HVDuTfmZCgF-FVsrkyMQsYbqqI_Tmadw3RNqS_eczVavahhg_pthXTCzfR-h22deiUtfxVPpOktHkKVDHCaODZsBj-h-mV8p8Yr1Kqt1Yzxk5ubAPaIlatNn5UP5jlUV0rRghdVbO66qUc7fIFeqMvcTWPU6JiQLpZA8_tBlCJGCBl7EUPBd_zZO3Te6bJ_NxM_u_73ut_]--></g></svg>