<?xml version="1.0" encoding="us-ascii" standalone="no"?><svg xmlns="http://www.w3.org/2000/svg" xmlns:xlink="http://www.w3.org/1999/xlink" contentStyleType="text/css" height="726px" preserveAspectRatio="none" style="width:1418px;height:726px;background:#FFFFFF;" version="1.1" viewBox="0 0 1418 726" width="1418px" zoomAndPan="magnify"><defs/><g><text fill="#000000" font-family="sans-serif" font-size="14" font-weight="bold" lengthAdjust="spacing" textLength="132" x="644.5" y="30.1074">Sequence Diagram</text><rect fill="#FFFFFF" height="491.9766" style="stroke:#181818;stroke-width:1.0;" width="10" x="111" y="133.2422"/><rect fill="#FFFFFF" height="93.5332" style="stroke:#181818;stroke-width:1.0;" width="10" x="311" y="156.5332"/><rect fill="#FFFFFF" height="343.8613" style="stroke:#181818;stroke-width:1.0;" width="10" x="311" y="281.3574"/><rect fill="#FFFFFF" height="281.2793" style="stroke:#181818;stroke-width:1.0;" width="10" x="495" y="312.6484"/><rect fill="#FFFFFF" height="156.4551" style="stroke:#181818;stroke-width:1.0;" width="10" x="1005" y="406.1816"/><rect fill="#FFFFFF" height="93.873" style="stroke:#181818;stroke-width:1.0;" width="10" x="1214.5" y="437.4727"/><rect fill="#FFFFFF" height="31.291" style="stroke:#181818;stroke-width:1.0;" width="10" x="1378.5" y="468.7637"/><line style="stroke:#181818;stroke-width:0.5;stroke-dasharray:5.0,5.0;" x1="116" x2="116" y1="123.2422" y2="643.2188"/><line style="stroke:#181818;stroke-width:0.5;stroke-dasharray:5.0,5.0;" x1="316" x2="316" y1="123.2422" y2="643.2188"/><line style="stroke:#181818;stroke-width:0.5;stroke-dasharray:5.0,5.0;" x1="500" x2="500" y1="205.6543" y2="643.2188"/><line style="stroke:#181818;stroke-width:0.5;stroke-dasharray:5.0,5.0;" x1="813" x2="813" y1="361.7695" y2="643.2188"/><line style="stroke:#181818;stroke-width:0.5;stroke-dasharray:5.0,5.0;" x1="1010" x2="1010" y1="123.2422" y2="643.2188"/><line style="stroke:#181818;stroke-width:0.5;stroke-dasharray:5.0,5.0;" x1="1219" x2="1219" y1="123.2422" y2="643.2188"/><line style="stroke:#181818;stroke-width:0.5;stroke-dasharray:5.0,5.0;" x1="1383" x2="1383" y1="123.2422" y2="643.2188"/><text fill="#000000" font-family="sans-serif" font-size="14" lengthAdjust="spacing" textLength="216" x="5" y="119.7285">CRM Manager / CRM Collaborator</text><ellipse cx="116" cy="53.1211" fill="#E2E2F0" rx="8" ry="8" style="stroke:#181818;stroke-width:0.5;"/><path d="M116,61.1211 L116,88.1211 M103,69.1211 L129,69.1211 M116,88.1211 L103,103.1211 M116,88.1211 L129,103.1211 " fill="none" style="stroke:#181818;stroke-width:0.5;"/><text fill="#000000" font-family="sans-serif" font-size="14" lengthAdjust="spacing" textLength="216" x="5" y="657.3262">CRM Manager / CRM Collaborator</text><ellipse cx="116" cy="669.3398" fill="#E2E2F0" rx="8" ry="8" style="stroke:#181818;stroke-width:0.5;"/><path d="M116,677.3398 L116,704.3398 M103,685.3398 L129,685.3398 M116,704.3398 L103,719.3398 M116,704.3398 L129,719.3398 " fill="none" style="stroke:#181818;stroke-width:0.5;"/><rect fill="#E2E2F0" height="51.2422" rx="2.5" ry="2.5" style="stroke:#181818;stroke-width:0.5;" width="142" x="245" y="71"/><text fill="#000000" font-family="sans-serif" font-size="14" font-style="italic" lengthAdjust="spacing" textLength="95" x="268.5" y="93.1074">&#171;presentation&#187;</text><text fill="#000000" font-family="sans-serif" font-size="14" lengthAdjust="spacing" textLength="128" x="252" y="111.7285">ListShowRequestsUI</text><rect fill="#E2E2F0" height="51.2422" rx="2.5" ry="2.5" style="stroke:#181818;stroke-width:0.5;" width="142" x="245" y="642.2188"/><text fill="#000000" font-family="sans-serif" font-size="14" font-style="italic" lengthAdjust="spacing" textLength="95" x="268.5" y="664.3262">&#171;presentation&#187;</text><text fill="#000000" font-family="sans-serif" font-size="14" lengthAdjust="spacing" textLength="128" x="252" y="682.9473">ListShowRequestsUI</text><rect fill="#E2E2F0" height="51.2422" rx="2.5" ry="2.5" style="stroke:#181818;stroke-width:0.5;" width="192" x="404" y="642.2188"/><text fill="#000000" font-family="sans-serif" font-size="14" font-style="italic" lengthAdjust="spacing" textLength="84" x="458" y="664.3262">&#171;application&#187;</text><text fill="#000000" font-family="sans-serif" font-size="14" lengthAdjust="spacing" textLength="178" x="411" y="682.9473">ListShowRequestsController</text><rect fill="#E2E2F0" height="51.2422" rx="2.5" ry="2.5" style="stroke:#181818;stroke-width:0.5;" width="143" x="742" y="642.2188"/><text fill="#000000" font-family="sans-serif" font-size="14" font-style="italic" lengthAdjust="spacing" textLength="44" x="791.5" y="664.3262">&#171;auth&#187;</text><text fill="#000000" font-family="sans-serif" font-size="14" lengthAdjust="spacing" textLength="129" x="749" y="682.9473">AuthorizationService</text><rect fill="#E2E2F0" height="51.2422" rx="2.5" ry="2.5" style="stroke:#181818;stroke-width:0.5;" width="230" x="895" y="71"/><text fill="#000000" font-family="sans-serif" font-size="14" font-style="italic" lengthAdjust="spacing" textLength="84" x="968" y="93.1074">&#171;application&#187;</text><text fill="#000000" font-family="sans-serif" font-size="14" lengthAdjust="spacing" textLength="216" x="902" y="111.7285">ShowRequestManagementService</text><rect fill="#E2E2F0" height="51.2422" rx="2.5" ry="2.5" style="stroke:#181818;stroke-width:0.5;" width="230" x="895" y="642.2188"/><text fill="#000000" font-family="sans-serif" font-size="14" font-style="italic" lengthAdjust="spacing" textLength="84" x="968" y="664.3262">&#171;application&#187;</text><text fill="#000000" font-family="sans-serif" font-size="14" lengthAdjust="spacing" textLength="216" x="902" y="682.9473">ShowRequestManagementService</text><rect fill="#E2E2F0" height="51.2422" rx="2.5" ry="2.5" style="stroke:#181818;stroke-width:0.5;" width="169" x="1135" y="71"/><text fill="#000000" font-family="sans-serif" font-size="14" font-style="italic" lengthAdjust="spacing" textLength="79" x="1180" y="93.1074">&#171;repository&#187;</text><text fill="#000000" font-family="sans-serif" font-size="14" lengthAdjust="spacing" textLength="155" x="1142" y="111.7285">ShowRequestRepository</text><rect fill="#E2E2F0" height="51.2422" rx="2.5" ry="2.5" style="stroke:#181818;stroke-width:0.5;" width="169" x="1135" y="642.2188"/><text fill="#000000" font-family="sans-serif" font-size="14" font-style="italic" lengthAdjust="spacing" textLength="79" x="1180" y="664.3262">&#171;repository&#187;</text><text fill="#000000" font-family="sans-serif" font-size="14" lengthAdjust="spacing" textLength="155" x="1142" y="682.9473">ShowRequestRepository</text><text fill="#000000" font-family="sans-serif" font-size="14" lengthAdjust="spacing" textLength="61" x="1350" y="119.7285">Database</text><path d="M1365.5,68.6211 C1365.5,58.6211 1383.5,58.6211 1383.5,58.6211 C1383.5,58.6211 1401.5,58.6211 1401.5,68.6211 L1401.5,94.6211 C1401.5,104.6211 1383.5,104.6211 1383.5,104.6211 C1383.5,104.6211 1365.5,104.6211 1365.5,94.6211 L1365.5,68.6211 " fill="#E2E2F0" style="stroke:#181818;stroke-width:1.5;"/><path d="M1365.5,68.6211 C1365.5,78.6211 1383.5,78.6211 1383.5,78.6211 C1383.5,78.6211 1401.5,78.6211 1401.5,68.6211 " fill="none" style="stroke:#181818;stroke-width:1.5;"/><text fill="#000000" font-family="sans-serif" font-size="14" lengthAdjust="spacing" textLength="61" x="1350" y="657.3262">Database</text><path d="M1365.5,670.8398 C1365.5,660.8398 1383.5,660.8398 1383.5,660.8398 C1383.5,660.8398 1401.5,660.8398 1401.5,670.8398 L1401.5,696.8398 C1401.5,706.8398 1383.5,706.8398 1383.5,706.8398 C1383.5,706.8398 1365.5,706.8398 1365.5,696.8398 L1365.5,670.8398 " fill="#E2E2F0" style="stroke:#181818;stroke-width:1.5;"/><path d="M1365.5,670.8398 C1365.5,680.8398 1383.5,680.8398 1383.5,680.8398 C1383.5,680.8398 1401.5,680.8398 1401.5,670.8398 " fill="none" style="stroke:#181818;stroke-width:1.5;"/><rect fill="#FFFFFF" height="491.9766" style="stroke:#181818;stroke-width:1.0;" width="10" x="111" y="133.2422"/><rect fill="#FFFFFF" height="93.5332" style="stroke:#181818;stroke-width:1.0;" width="10" x="311" y="156.5332"/><rect fill="#FFFFFF" height="343.8613" style="stroke:#181818;stroke-width:1.0;" width="10" x="311" y="281.3574"/><rect fill="#FFFFFF" height="281.2793" style="stroke:#181818;stroke-width:1.0;" width="10" x="495" y="312.6484"/><rect fill="#FFFFFF" height="156.4551" style="stroke:#181818;stroke-width:1.0;" width="10" x="1005" y="406.1816"/><rect fill="#FFFFFF" height="93.873" style="stroke:#181818;stroke-width:1.0;" width="10" x="1214.5" y="437.4727"/><rect fill="#FFFFFF" height="31.291" style="stroke:#181818;stroke-width:1.0;" width="10" x="1378.5" y="468.7637"/><polygon fill="#181818" points="299,152.5332,309,156.5332,299,160.5332,303,156.5332" style="stroke:#181818;stroke-width:1.0;"/><line style="stroke:#181818;stroke-width:1.0;" x1="121" x2="305" y1="156.5332" y2="156.5332"/><text fill="#000000" font-family="sans-serif" font-size="13" lengthAdjust="spacing" textLength="38" x="128" y="151.2705">show()</text><polygon fill="#181818" points="392,183.8242,402,187.8242,392,191.8242,396,187.8242" style="stroke:#181818;stroke-width:1.0;"/><line style="stroke:#181818;stroke-width:1.0;" x1="321" x2="398" y1="187.8242" y2="187.8242"/><text fill="#000000" font-family="sans-serif" font-size="13" lengthAdjust="spacing" textLength="44" x="328" y="182.5615">create()</text><rect fill="#E2E2F0" height="51.2422" rx="2.5" ry="2.5" style="stroke:#181818;stroke-width:0.5;" width="192" x="404" y="164.5332"/><text fill="#000000" font-family="sans-serif" font-size="14" font-style="italic" lengthAdjust="spacing" textLength="84" x="458" y="186.6406">&#171;application&#187;</text><text fill="#000000" font-family="sans-serif" font-size="14" lengthAdjust="spacing" textLength="178" x="411" y="205.2617">ListShowRequestsController</text><polygon fill="#181818" points="132,246.0664,122,250.0664,132,254.0664,128,250.0664" style="stroke:#181818;stroke-width:1.0;"/><line style="stroke:#181818;stroke-width:1.0;stroke-dasharray:2.0,2.0;" x1="126" x2="315" y1="250.0664" y2="250.0664"/><text fill="#000000" font-family="sans-serif" font-size="13" lengthAdjust="spacing" textLength="138" x="138" y="244.8037">Request Client data (ID)</text><polygon fill="#181818" points="299,277.3574,309,281.3574,299,285.3574,303,281.3574" style="stroke:#181818;stroke-width:1.0;"/><line style="stroke:#181818;stroke-width:1.0;" x1="121" x2="305" y1="281.3574" y2="281.3574"/><text fill="#000000" font-family="sans-serif" font-size="13" lengthAdjust="spacing" textLength="98" x="128" y="276.0947">Insert Client data</text><polygon fill="#181818" points="483,308.6484,493,312.6484,483,316.6484,487,312.6484" style="stroke:#181818;stroke-width:1.0;"/><line style="stroke:#181818;stroke-width:1.0;" x1="321" x2="489" y1="312.6484" y2="312.6484"/><text fill="#000000" font-family="sans-serif" font-size="13" lengthAdjust="spacing" textLength="155" x="328" y="307.3857">listShowRequests(clientID)</text><polygon fill="#181818" points="730,339.9395,740,343.9395,730,347.9395,734,343.9395" style="stroke:#181818;stroke-width:1.0;"/><line style="stroke:#181818;stroke-width:1.0;" x1="505" x2="736" y1="343.9395" y2="343.9395"/><text fill="#000000" font-family="sans-serif" font-size="13" lengthAdjust="spacing" textLength="213" x="512" y="338.6768">ensureAuthenticatedUserHasAnyOf()</text><rect fill="#E2E2F0" height="51.2422" rx="2.5" ry="2.5" style="stroke:#181818;stroke-width:0.5;" width="143" x="742" y="320.6484"/><text fill="#000000" font-family="sans-serif" font-size="14" font-style="italic" lengthAdjust="spacing" textLength="44" x="791.5" y="342.7559">&#171;auth&#187;</text><text fill="#000000" font-family="sans-serif" font-size="14" lengthAdjust="spacing" textLength="129" x="749" y="361.377">AuthorizationService</text><polygon fill="#181818" points="993,402.1816,1003,406.1816,993,410.1816,997,406.1816" style="stroke:#181818;stroke-width:1.0;"/><line style="stroke:#181818;stroke-width:1.0;" x1="505" x2="999" y1="406.1816" y2="406.1816"/><text fill="#000000" font-family="sans-serif" font-size="13" lengthAdjust="spacing" textLength="155" x="512" y="400.9189">listShowRequests(clientID)</text><polygon fill="#181818" points="1202.5,433.4727,1212.5,437.4727,1202.5,441.4727,1206.5,437.4727" style="stroke:#181818;stroke-width:1.0;"/><line style="stroke:#181818;stroke-width:1.0;" x1="1015" x2="1208.5" y1="437.4727" y2="437.4727"/><text fill="#000000" font-family="sans-serif" font-size="13" lengthAdjust="spacing" textLength="132" x="1022" y="432.21">findByClientID(clientID)</text><polygon fill="#181818" points="1366.5,464.7637,1376.5,468.7637,1366.5,472.7637,1370.5,468.7637" style="stroke:#181818;stroke-width:1.0;"/><line style="stroke:#181818;stroke-width:1.0;" x1="1224.5" x2="1372.5" y1="468.7637" y2="468.7637"/><text fill="#000000" font-family="sans-serif" font-size="13" lengthAdjust="spacing" textLength="132" x="1231.5" y="463.501">findByClientID(clientID)</text><polygon fill="#181818" points="1235.5,496.0547,1225.5,500.0547,1235.5,504.0547,1231.5,500.0547" style="stroke:#181818;stroke-width:1.0;"/><line style="stroke:#181818;stroke-width:1.0;stroke-dasharray:2.0,2.0;" x1="1229.5" x2="1382.5" y1="500.0547" y2="500.0547"/><text fill="#000000" font-family="sans-serif" font-size="13" lengthAdjust="spacing" textLength="130" x="1241.5" y="494.792">List of Show Requests</text><polygon fill="#181818" points="1026,527.3457,1016,531.3457,1026,535.3457,1022,531.3457" style="stroke:#181818;stroke-width:1.0;"/><line style="stroke:#181818;stroke-width:1.0;stroke-dasharray:2.0,2.0;" x1="1020" x2="1218.5" y1="531.3457" y2="531.3457"/><text fill="#000000" font-family="sans-serif" font-size="13" lengthAdjust="spacing" textLength="130" x="1032" y="526.083">List of Show Requests</text><polygon fill="#181818" points="516,558.6367,506,562.6367,516,566.6367,512,562.6367" style="stroke:#181818;stroke-width:1.0;"/><line style="stroke:#181818;stroke-width:1.0;stroke-dasharray:2.0,2.0;" x1="510" x2="1009" y1="562.6367" y2="562.6367"/><text fill="#000000" font-family="sans-serif" font-size="13" lengthAdjust="spacing" textLength="130" x="522" y="557.374">List of Show Requests</text><polygon fill="#181818" points="332,589.9277,322,593.9277,332,597.9277,328,593.9277" style="stroke:#181818;stroke-width:1.0;"/><line style="stroke:#181818;stroke-width:1.0;stroke-dasharray:2.0,2.0;" x1="326" x2="499" y1="593.9277" y2="593.9277"/><text fill="#000000" font-family="sans-serif" font-size="13" lengthAdjust="spacing" textLength="130" x="338" y="588.665">List of Show Requests</text><polygon fill="#181818" points="127,621.2188,117,625.2188,127,629.2188,123,625.2188" style="stroke:#181818;stroke-width:1.0;"/><line style="stroke:#181818;stroke-width:1.0;stroke-dasharray:2.0,2.0;" x1="121" x2="315" y1="625.2188" y2="625.2188"/><text fill="#000000" font-family="sans-serif" font-size="13" lengthAdjust="spacing" textLength="166" x="133" y="619.9561">Show List of Show Requests</text><!--SRC=[bPJFRjim3CRlUWeYfwp0iBjH1CYSmmoiA90W3y0wJ2l0bLn9wP0z_IZvd-pQog9B8fFy-9FqIKwwYk107nTI9S5Eugl1To6mTDh0Ajy_mHCgV2K3Fy3FSbrL-A8DSdm5Q67hCqMDnibIrgWSh7vBwmvl-i_UorfdZqN8F1Rm-5WRigGSEgdLPfEkoxLoXljHqscOiWxMTINBMPdjnRrf8_-6u87CfoofGPq9U2d-FDM8C9hrlpDqh9LAIED5bNkgjPMyVzUfvX1XCTDFMEk43b_G4gnsxRzGsqt2qSbFTDIUZ0W_y7t3-v-1vHRhRm9uz7d7GWW-6yuOTlZX0J8e3N6SqtsKmq4fWnOHyahoci43mRhODQedYdL7lGjboOpAn5SG_s4Aaq4rSSQw329TqrvXg6cK_8XiuzSmuu6mM5BsOiY7MTWV7PsEpFiBxLPTdy-y2mkAAIVS9Ez6luAKcXYL-95quPXjS5G6PwbEFwzvIxA0b48RnCHipOGjSZD3TLRDu3wGBq23v-76w3A3ZHSsnRy-eCyXt7dS9fKZh_SeT-x6JV_yFrL4it1ITzfdSWTlaymJ96mSNwJsaLZk4gd7rtpyDeMoUOtnonJDcdVo7m00]--></g></svg>