<svg xmlns="http://www.w3.org/2000/svg" xmlns:xlink="http://www.w3.org/1999/xlink" contentStyleType="text/css" height="927px" preserveAspectRatio="none" style="width:2038px;height:927px;background:#FFFFFF;" version="1.1" viewBox="0 0 2038 927" width="2038px" zoomAndPan="magnify"><title>Sequence Diagram</title><defs/><g><text fill="#000000" font-family="sans-serif" font-size="14" font-weight="bold" lengthAdjust="spacing" textLength="126.0479" x="957.1094" y="30.1074">Sequence Diagram</text><rect fill="#FFFFFF" height="693.043" style="stroke:#181818;stroke-width:1.0;" width="10" x="59.0171" y="133.2422"/><rect fill="#FFFFFF" height="110.8242" style="stroke:#181818;stroke-width:1.0;" width="10" x="455.2778" y="156.5332"/><rect fill="#FFFFFF" height="527.6367" style="stroke:#181818;stroke-width:1.0;" width="10" x="455.2778" y="298.6484"/><rect fill="#FFFFFF" height="447.7637" style="stroke:#181818;stroke-width:1.0;" width="10" x="765.5996" y="347.2305"/><rect fill="#FFFFFF" height="322.9395" style="stroke:#181818;stroke-width:1.0;" width="10" x="1263.1416" y="458.0547"/><rect fill="#FFFFFF" height="124.8242" style="stroke:#181818;stroke-width:1.0;" width="10" x="1433.8135" y="551.5879"/><rect fill="#FFFFFF" height="34.9512" style="stroke:#181818;stroke-width:1.0;" width="10" x="1765.9917" y="610.1699"/><rect fill="#FFFFFF" height="59.291" style="stroke:#181818;stroke-width:1.0;" width="10" x="1884.5361" y="707.7031"/><rect fill="#FFFFFF" height="14" style="stroke:#181818;stroke-width:1.0;" width="10" x="1998.3013" y="738.9941"/><line style="stroke:#181818;stroke-width:0.5;stroke-dasharray:5.0,5.0;" x1="64" x2="64" y1="123.2422" y2="844.2852"/><line style="stroke:#181818;stroke-width:0.5;stroke-dasharray:5.0,5.0;" x1="459.8711" x2="459.8711" y1="123.2422" y2="844.2852"/><line style="stroke:#181818;stroke-width:0.5;stroke-dasharray:5.0,5.0;" x1="769.8481" x2="769.8481" y1="205.6543" y2="844.2852"/><line style="stroke:#181818;stroke-width:0.5;stroke-dasharray:5.0,5.0;" x1="1085.2012" x2="1085.2012" y1="396.3516" y2="844.2852"/><line style="stroke:#181818;stroke-width:0.5;stroke-dasharray:5.0,5.0;" x1="1267.6006" x2="1267.6006" y1="123.2422" y2="844.2852"/><line style="stroke:#181818;stroke-width:0.5;stroke-dasharray:5.0,5.0;" x1="1438.6826" x2="1438.6826" y1="507.1758" y2="844.2852"/><line style="stroke:#181818;stroke-width:0.5;stroke-dasharray:5.0,5.0;" x1="1770.2471" x2="1770.2471" y1="600.709" y2="844.2852"/><line style="stroke:#181818;stroke-width:0.5;stroke-dasharray:5.0,5.0;" x1="1888.7363" x2="1888.7363" y1="123.2422" y2="844.2852"/><line style="stroke:#181818;stroke-width:0.5;stroke-dasharray:5.0,5.0;" x1="2002.3359" x2="2002.3359" y1="123.2422" y2="844.2852"/><text fill="#000000" font-family="sans-serif" font-size="14" lengthAdjust="spacing" textLength="112.0342" x="5" y="119.7285">CRM Collaborator</text><ellipse cx="64.0171" cy="53.1211" fill="#E2E2F0" rx="8" ry="8" style="stroke:#181818;stroke-width:0.5;"/><path d="M64.0171,61.1211 L64.0171,88.1211 M51.0171,69.1211 L77.0171,69.1211 M64.0171,88.1211 L51.0171,103.1211 M64.0171,88.1211 L77.0171,103.1211 " fill="none" style="stroke:#181818;stroke-width:0.5;"/><text fill="#000000" font-family="sans-serif" font-size="14" lengthAdjust="spacing" textLength="112.0342" x="5" y="858.3926">CRM Collaborator</text><ellipse cx="64.0171" cy="870.4063" fill="#E2E2F0" rx="8" ry="8" style="stroke:#181818;stroke-width:0.5;"/><path d="M64.0171,878.4063 L64.0171,905.4063 M51.0171,886.4063 L77.0171,886.4063 M64.0171,905.4063 L51.0171,920.4063 M64.0171,905.4063 L77.0171,920.4063 " fill="none" style="stroke:#181818;stroke-width:0.5;"/><rect fill="#E2E2F0" height="51.2422" rx="2.5" ry="2.5" style="stroke:#181818;stroke-width:0.5;" width="140.8135" x="389.8711" y="71"/><text fill="#000000" font-family="sans-serif" font-size="14" font-style="italic" lengthAdjust="spacing" textLength="92.627" x="413.9644" y="93.1074">&#171;presentation&#187;</text><text fill="#000000" font-family="sans-serif" font-size="14" lengthAdjust="spacing" textLength="126.8135" x="396.8711" y="111.7285">RegisterCustomerUI</text><rect fill="#E2E2F0" height="51.2422" rx="2.5" ry="2.5" style="stroke:#181818;stroke-width:0.5;" width="140.8135" x="389.8711" y="843.2852"/><text fill="#000000" font-family="sans-serif" font-size="14" font-style="italic" lengthAdjust="spacing" textLength="92.627" x="413.9644" y="865.3926">&#171;presentation&#187;</text><text fill="#000000" font-family="sans-serif" font-size="14" lengthAdjust="spacing" textLength="126.8135" x="396.8711" y="884.0137">RegisterCustomerUI</text><rect fill="#E2E2F0" height="51.2422" rx="2.5" ry="2.5" style="stroke:#181818;stroke-width:0.5;" width="187.5029" x="676.8481" y="843.2852"/><text fill="#000000" font-family="sans-serif" font-size="14" font-style="italic" lengthAdjust="spacing" textLength="82.5098" x="729.3447" y="865.3926">&#171;application&#187;</text><text fill="#000000" font-family="sans-serif" font-size="14" lengthAdjust="spacing" textLength="173.5029" x="683.8481" y="884.0137">RegisterCustomerController</text><rect fill="#E2E2F0" height="51.2422" rx="2.5" ry="2.5" style="stroke:#181818;stroke-width:0.5;" width="142.3994" x="1014.2012" y="843.2852"/><text fill="#000000" font-family="sans-serif" font-size="14" font-style="italic" lengthAdjust="spacing" textLength="42.8203" x="1063.9907" y="865.3926">&#171;auth&#187;</text><text fill="#000000" font-family="sans-serif" font-size="14" lengthAdjust="spacing" textLength="128.3994" x="1021.2012" y="884.0137">AuthorizationService</text><rect fill="#E2E2F0" height="51.2422" rx="2.5" ry="2.5" style="stroke:#181818;stroke-width:0.5;" width="203.082" x="1166.6006" y="71"/><text fill="#000000" font-family="sans-serif" font-size="14" font-style="italic" lengthAdjust="spacing" textLength="82.5098" x="1226.8867" y="93.1074">&#171;application&#187;</text><text fill="#000000" font-family="sans-serif" font-size="14" lengthAdjust="spacing" textLength="189.082" x="1173.6006" y="111.7285">CustomerManagementService</text><rect fill="#E2E2F0" height="51.2422" rx="2.5" ry="2.5" style="stroke:#181818;stroke-width:0.5;" width="203.082" x="1166.6006" y="843.2852"/><text fill="#000000" font-family="sans-serif" font-size="14" font-style="italic" lengthAdjust="spacing" textLength="82.5098" x="1226.8867" y="865.3926">&#171;application&#187;</text><text fill="#000000" font-family="sans-serif" font-size="14" lengthAdjust="spacing" textLength="189.082" x="1173.6006" y="884.0137">CustomerManagementService</text><rect fill="#E2E2F0" height="51.2422" rx="2.5" ry="2.5" style="stroke:#181818;stroke-width:0.5;" width="118.2617" x="1379.6826" y="843.2852"/><text fill="#000000" font-family="sans-serif" font-size="14" font-style="italic" lengthAdjust="spacing" textLength="61.4893" x="1408.0688" y="865.3926">&#171;domain&#187;</text><text fill="#000000" font-family="sans-serif" font-size="14" lengthAdjust="spacing" textLength="104.2617" x="1386.6826" y="884.0137">CustomerBuilder</text><rect fill="#E2E2F0" height="51.2422" rx="2.5" ry="2.5" style="stroke:#181818;stroke-width:0.5;" width="75.4893" x="1733.2471" y="843.2852"/><text fill="#000000" font-family="sans-serif" font-size="14" font-style="italic" lengthAdjust="spacing" textLength="61.4893" x="1740.2471" y="865.3926">&#171;domain&#187;</text><text fill="#000000" font-family="sans-serif" font-size="14" lengthAdjust="spacing" textLength="60.6826" x="1740.6504" y="884.0137">Customer</text><rect fill="#E2E2F0" height="51.2422" rx="2.5" ry="2.5" style="stroke:#181818;stroke-width:0.5;" width="141.5996" x="1818.7363" y="71"/><text fill="#000000" font-family="sans-serif" font-size="14" font-style="italic" lengthAdjust="spacing" textLength="77.041" x="1851.0156" y="93.1074">&#171;repository&#187;</text><text fill="#000000" font-family="sans-serif" font-size="14" lengthAdjust="spacing" textLength="127.5996" x="1825.7363" y="111.7285">CustomerRepository</text><rect fill="#E2E2F0" height="51.2422" rx="2.5" ry="2.5" style="stroke:#181818;stroke-width:0.5;" width="141.5996" x="1818.7363" y="843.2852"/><text fill="#000000" font-family="sans-serif" font-size="14" font-style="italic" lengthAdjust="spacing" textLength="77.041" x="1851.0156" y="865.3926">&#171;repository&#187;</text><text fill="#000000" font-family="sans-serif" font-size="14" lengthAdjust="spacing" textLength="127.5996" x="1825.7363" y="884.0137">CustomerRepository</text><text fill="#000000" font-family="sans-serif" font-size="14" lengthAdjust="spacing" textLength="59.9307" x="1970.3359" y="119.7285">Database</text><path d="M1985.3013,68.6211 C1985.3013,58.6211 2003.3013,58.6211 2003.3013,58.6211 C2003.3013,58.6211 2021.3013,58.6211 2021.3013,68.6211 L2021.3013,94.6211 C2021.3013,104.6211 2003.3013,104.6211 2003.3013,104.6211 C2003.3013,104.6211 1985.3013,104.6211 1985.3013,94.6211 L1985.3013,68.6211 " fill="#E2E2F0" style="stroke:#181818;stroke-width:1.5;"/><path d="M1985.3013,68.6211 C1985.3013,78.6211 2003.3013,78.6211 2003.3013,78.6211 C2003.3013,78.6211 2021.3013,78.6211 2021.3013,68.6211 " fill="none" style="stroke:#181818;stroke-width:1.5;"/><text fill="#000000" font-family="sans-serif" font-size="14" lengthAdjust="spacing" textLength="59.9307" x="1970.3359" y="858.3926">Database</text><path d="M1985.3013,871.9063 C1985.3013,861.9063 2003.3013,861.9063 2003.3013,861.9063 C2003.3013,861.9063 2021.3013,861.9063 2021.3013,871.9063 L2021.3013,897.9063 C2021.3013,907.9063 2003.3013,907.9063 2003.3013,907.9063 C2003.3013,907.9063 1985.3013,907.9063 1985.3013,897.9063 L1985.3013,871.9063 " fill="#E2E2F0" style="stroke:#181818;stroke-width:1.5;"/><path d="M1985.3013,871.9063 C1985.3013,881.9063 2003.3013,881.9063 2003.3013,881.9063 C2003.3013,881.9063 2021.3013,881.9063 2021.3013,871.9063 " fill="none" style="stroke:#181818;stroke-width:1.5;"/><rect fill="#FFFFFF" height="693.043" style="stroke:#181818;stroke-width:1.0;" width="10" x="59.0171" y="133.2422"/><rect fill="#FFFFFF" height="110.8242" style="stroke:#181818;stroke-width:1.0;" width="10" x="455.2778" y="156.5332"/><rect fill="#FFFFFF" height="527.6367" style="stroke:#181818;stroke-width:1.0;" width="10" x="455.2778" y="298.6484"/><rect fill="#FFFFFF" height="447.7637" style="stroke:#181818;stroke-width:1.0;" width="10" x="765.5996" y="347.2305"/><rect fill="#FFFFFF" height="322.9395" style="stroke:#181818;stroke-width:1.0;" width="10" x="1263.1416" y="458.0547"/><rect fill="#FFFFFF" height="124.8242" style="stroke:#181818;stroke-width:1.0;" width="10" x="1433.8135" y="551.5879"/><rect fill="#FFFFFF" height="34.9512" style="stroke:#181818;stroke-width:1.0;" width="10" x="1765.9917" y="610.1699"/><rect fill="#FFFFFF" height="59.291" style="stroke:#181818;stroke-width:1.0;" width="10" x="1884.5361" y="707.7031"/><rect fill="#FFFFFF" height="14" style="stroke:#181818;stroke-width:1.0;" width="10" x="1998.3013" y="738.9941"/><polygon fill="#181818" points="443.2778,152.5332,453.2778,156.5332,443.2778,160.5332,447.2778,156.5332" style="stroke:#181818;stroke-width:1.0;"/><line style="stroke:#181818;stroke-width:1.0;" x1="69.0171" x2="449.2778" y1="156.5332" y2="156.5332"/><text fill="#000000" font-family="sans-serif" font-size="13" lengthAdjust="spacing" textLength="39.0063" x="76.0171" y="151.2705">show()</text><polygon fill="#181818" points="664.8481,183.8242,674.8481,187.8242,664.8481,191.8242,668.8481,187.8242" style="stroke:#181818;stroke-width:1.0;"/><line style="stroke:#181818;stroke-width:1.0;" x1="465.2778" x2="670.8481" y1="187.8242" y2="187.8242"/><text fill="#000000" font-family="sans-serif" font-size="13" lengthAdjust="spacing" textLength="44.7891" x="472.2778" y="182.5615">create()</text><rect fill="#E2E2F0" height="51.2422" rx="2.5" ry="2.5" style="stroke:#181818;stroke-width:0.5;" width="187.5029" x="676.8481" y="164.5332"/><text fill="#000000" font-family="sans-serif" font-size="14" font-style="italic" lengthAdjust="spacing" textLength="82.5098" x="729.3447" y="186.6406">&#171;application&#187;</text><text fill="#000000" font-family="sans-serif" font-size="14" lengthAdjust="spacing" textLength="173.5029" x="683.8481" y="205.2617">RegisterCustomerController</text><polygon fill="#181818" points="80.0171,263.3574,70.0171,267.3574,80.0171,271.3574,76.0171,267.3574" style="stroke:#181818;stroke-width:1.0;"/><line style="stroke:#181818;stroke-width:1.0;stroke-dasharray:2.0,2.0;" x1="74.0171" x2="459.2778" y1="267.3574" y2="267.3574"/><text fill="#000000" font-family="sans-serif" font-size="13" lengthAdjust="spacing" textLength="362.2607" x="86.0171" y="244.8037">Request Customer Information ("Name, Email, Phone Number,</text><text fill="#000000" font-family="sans-serif" font-size="13" lengthAdjust="spacing" textLength="151.2964" x="89.6289" y="262.0947">VatNumber and Address")</text><polygon fill="#181818" points="443.2778,294.6484,453.2778,298.6484,443.2778,302.6484,447.2778,298.6484" style="stroke:#181818;stroke-width:1.0;"/><line style="stroke:#181818;stroke-width:1.0;" x1="69.0171" x2="449.2778" y1="298.6484" y2="298.6484"/><text fill="#000000" font-family="sans-serif" font-size="13" lengthAdjust="spacing" textLength="121.3862" x="76.0171" y="293.3857">Insert Customer data</text><polygon fill="#181818" points="753.5996,343.2305,763.5996,347.2305,753.5996,351.2305,757.5996,347.2305" style="stroke:#181818;stroke-width:1.0;"/><line style="stroke:#181818;stroke-width:1.0;" x1="465.2778" x2="759.5996" y1="347.2305" y2="347.2305"/><text fill="#000000" font-family="sans-serif" font-size="13" lengthAdjust="spacing" textLength="281.3218" x="472.2778" y="324.6768">registerCustomer("Name, Email, Phone Number,</text><text fill="#000000" font-family="sans-serif" font-size="13" lengthAdjust="spacing" textLength="151.2964" x="475.8896" y="341.9678">VatNumber and Address")</text><polygon fill="#181818" points="1002.2012,374.5215,1012.2012,378.5215,1002.2012,382.5215,1006.2012,378.5215" style="stroke:#181818;stroke-width:1.0;"/><line style="stroke:#181818;stroke-width:1.0;" x1="775.5996" x2="1008.2012" y1="378.5215" y2="378.5215"/><text fill="#000000" font-family="sans-serif" font-size="13" lengthAdjust="spacing" textLength="214.6016" x="782.5996" y="373.2588">ensureAuthenticatedUserHasAnyOf()</text><rect fill="#E2E2F0" height="51.2422" rx="2.5" ry="2.5" style="stroke:#181818;stroke-width:0.5;" width="142.3994" x="1014.2012" y="355.2305"/><text fill="#000000" font-family="sans-serif" font-size="14" font-style="italic" lengthAdjust="spacing" textLength="42.8203" x="1063.9907" y="377.3379">&#171;auth&#187;</text><text fill="#000000" font-family="sans-serif" font-size="14" lengthAdjust="spacing" textLength="128.3994" x="1021.2012" y="395.959">AuthorizationService</text><polygon fill="#181818" points="1251.1416,454.0547,1261.1416,458.0547,1251.1416,462.0547,1255.1416,458.0547" style="stroke:#181818;stroke-width:1.0;"/><line style="stroke:#181818;stroke-width:1.0;" x1="775.5996" x2="1257.1416" y1="458.0547" y2="458.0547"/><text fill="#000000" font-family="sans-serif" font-size="13" lengthAdjust="spacing" textLength="307.3281" x="782.5996" y="435.501">registerNewCustomer("Name, Email, Phone Number,</text><text fill="#000000" font-family="sans-serif" font-size="13" lengthAdjust="spacing" textLength="151.2964" x="786.2114" y="452.792">VatNumber and Address")</text><polygon fill="#181818" points="1367.6826,485.3457,1377.6826,489.3457,1367.6826,493.3457,1371.6826,489.3457" style="stroke:#181818;stroke-width:1.0;"/><line style="stroke:#181818;stroke-width:1.0;" x1="1273.1416" x2="1373.6826" y1="489.3457" y2="489.3457"/><text fill="#000000" font-family="sans-serif" font-size="13" lengthAdjust="spacing" textLength="44.7891" x="1280.1416" y="484.083">create()</text><rect fill="#E2E2F0" height="51.2422" rx="2.5" ry="2.5" style="stroke:#181818;stroke-width:0.5;" width="118.2617" x="1379.6826" y="466.0547"/><text fill="#000000" font-family="sans-serif" font-size="14" font-style="italic" lengthAdjust="spacing" textLength="61.4893" x="1408.0688" y="488.1621">&#171;domain&#187;</text><text fill="#000000" font-family="sans-serif" font-size="14" lengthAdjust="spacing" textLength="104.2617" x="1386.6826" y="506.7832">CustomerBuilder</text><polygon fill="#181818" points="1421.8135,547.5879,1431.8135,551.5879,1421.8135,555.5879,1425.8135,551.5879" style="stroke:#181818;stroke-width:1.0;"/><line style="stroke:#181818;stroke-width:1.0;" x1="1273.1416" x2="1427.8135" y1="551.5879" y2="551.5879"/><text fill="#000000" font-family="sans-serif" font-size="13" lengthAdjust="spacing" textLength="36.1245" x="1280.1416" y="546.3252">build()</text><polygon fill="#181818" points="1721.2471,596.1699,1731.2471,600.1699,1721.2471,604.1699,1725.2471,600.1699" style="stroke:#181818;stroke-width:1.0;"/><line style="stroke:#181818;stroke-width:1.0;" x1="1443.8135" x2="1727.2471" y1="600.1699" y2="600.1699"/><text fill="#000000" font-family="sans-serif" font-size="13" lengthAdjust="spacing" textLength="265.4336" x="1450.8135" y="577.6162">new Customer("Name, Email, Phone Number,</text><text fill="#000000" font-family="sans-serif" font-size="13" lengthAdjust="spacing" textLength="151.2964" x="1454.4253" y="594.9072">VatNumber and Address")</text><rect fill="#E2E2F0" height="51.2422" rx="2.5" ry="2.5" style="stroke:#181818;stroke-width:0.5;" width="75.4893" x="1733.2471" y="559.5879"/><text fill="#000000" font-family="sans-serif" font-size="14" font-style="italic" lengthAdjust="spacing" textLength="61.4893" x="1740.2471" y="581.6953">&#171;domain&#187;</text><text fill="#000000" font-family="sans-serif" font-size="14" lengthAdjust="spacing" textLength="60.6826" x="1740.6504" y="600.3164">Customer</text><polygon fill="#181818" points="1454.8135,641.1211,1444.8135,645.1211,1454.8135,649.1211,1450.8135,645.1211" style="stroke:#181818;stroke-width:1.0;"/><line style="stroke:#181818;stroke-width:1.0;stroke-dasharray:2.0,2.0;" x1="1448.8135" x2="1769.9917" y1="645.1211" y2="645.1211"/><text fill="#000000" font-family="sans-serif" font-size="13" lengthAdjust="spacing" textLength="80.1963" x="1460.8135" y="639.8584">newCustomer</text><polygon fill="#181818" points="1284.1416,672.4121,1274.1416,676.4121,1284.1416,680.4121,1280.1416,676.4121" style="stroke:#181818;stroke-width:1.0;"/><line style="stroke:#181818;stroke-width:1.0;stroke-dasharray:2.0,2.0;" x1="1278.1416" x2="1437.8135" y1="676.4121" y2="676.4121"/><text fill="#000000" font-family="sans-serif" font-size="13" lengthAdjust="spacing" textLength="80.1963" x="1290.1416" y="671.1494">newCustomer</text><polygon fill="#181818" points="1872.5361,703.7031,1882.5361,707.7031,1872.5361,711.7031,1876.5361,707.7031" style="stroke:#181818;stroke-width:1.0;"/><line style="stroke:#181818;stroke-width:1.0;" x1="1273.1416" x2="1878.5361" y1="707.7031" y2="707.7031"/><text fill="#000000" font-family="sans-serif" font-size="13" lengthAdjust="spacing" textLength="116.3145" x="1280.1416" y="702.4404">save(newCustomer)</text><polygon fill="#181818" points="1986.3013,734.9941,1996.3013,738.9941,1986.3013,742.9941,1990.3013,738.9941" style="stroke:#181818;stroke-width:1.0;"/><line style="stroke:#181818;stroke-width:1.0;" x1="1894.5361" x2="1992.3013" y1="738.9941" y2="738.9941"/><text fill="#000000" font-family="sans-serif" font-size="13" lengthAdjust="spacing" textLength="36.1182" x="1901.5361" y="733.7314">save()</text><polygon fill="#181818" points="1905.5361,748.9941,1895.5361,752.9941,1905.5361,756.9941,1901.5361,752.9941" style="stroke:#181818;stroke-width:1.0;"/><line style="stroke:#181818;stroke-width:1.0;stroke-dasharray:2.0,2.0;" x1="1899.5361" x2="2002.3013" y1="752.9941" y2="752.9941"/><polygon fill="#181818" points="1284.1416,762.9941,1274.1416,766.9941,1284.1416,770.9941,1280.1416,766.9941" style="stroke:#181818;stroke-width:1.0;"/><line style="stroke:#181818;stroke-width:1.0;stroke-dasharray:2.0,2.0;" x1="1278.1416" x2="1888.5361" y1="766.9941" y2="766.9941"/><polygon fill="#181818" points="786.5996,776.9941,776.5996,780.9941,786.5996,784.9941,782.5996,780.9941" style="stroke:#181818;stroke-width:1.0;"/><line style="stroke:#181818;stroke-width:1.0;stroke-dasharray:2.0,2.0;" x1="780.5996" x2="1267.1416" y1="780.9941" y2="780.9941"/><polygon fill="#181818" points="476.2778,790.9941,466.2778,794.9941,476.2778,798.9941,472.2778,794.9941" style="stroke:#181818;stroke-width:1.0;"/><line style="stroke:#181818;stroke-width:1.0;stroke-dasharray:2.0,2.0;" x1="470.2778" x2="769.5996" y1="794.9941" y2="794.9941"/><polygon fill="#181818" points="75.0171,822.2852,65.0171,826.2852,75.0171,830.2852,71.0171,826.2852" style="stroke:#181818;stroke-width:1.0;"/><line style="stroke:#181818;stroke-width:1.0;stroke-dasharray:2.0,2.0;" x1="69.0171" x2="459.2778" y1="826.2852" y2="826.2852"/><text fill="#000000" font-family="sans-serif" font-size="13" lengthAdjust="spacing" textLength="145.2344" x="81.0171" y="821.0225">Inform operation success</text><!--SRC=[hLRBZjem5DtxAwwo0WG_W4P8b1cfB8PMZEYg6vFS0Kk9dTeEQFhrlJ5vEEH1D5DlY7rzppdtOHihR8pmXdyob272i-0dpHF6U6YLXc2pVuMDYcD-L9hJIW3Sm3gtiPHhAqAHScaXsED968jwanch4jI7hTjvsCBJKwhHeBJS2YLNgs6_ZP9M4n_UcEefuV0qZKNO2RFEx5bfyTSPtr1VH8WtgHs678gMxp5A2QzSyXCcfDW7whKE2olTlcKYZigWcci44Ac4YrxVXjF3tNjCbH5Ke8-6NxrC2BgQ44h4BJzoWn0y5r_EiPouLX0NRh6eEtC_i5XHTPTWpkewcJAWKUqxR1cZojEEkdwp6ImXr4XsskxCP7TGIzZdxMTi7UHMlYkTk8p29DZn1EVmGb77S_XvLX9XboL7rFFV4dvnUvi0bn6ieuYwpGHJ5c53JqFqLXhK7bsU0iRQGK0nxeEXKFHTutvI9NYZegw9M6D3FZmHUVuwsjjb6gN9DEPcwjIyDp4wKCpVkLdBZn_lUGdkaRs4TS4-aj9_GEfaxV3w7_FLp5aVVLktqzwhrWkbEA3Drlqg6c4TywyUg5P0XLjt63vvYUzHpcPBa7Y5BoQzbxgjTc1lTTeMdKcHTM_qOtWzEeAndPe7VUfhO2Fvg_fylZEykvakL7x1YIUa9_qj7JN8K4OyIHuhQIcl-rB1T1Yaeg-V2NWmAeP5P-Z3_bxYHp9sXJbK_h7rVfJdWOettX0sWcl4PUPVmkvrOtsORMR_4OPbyUY2Ib7VNbwJXI7T0Am3ZNZyzyBzCVW7]--></g></svg>