<svg xmlns="http://www.w3.org/2000/svg" xmlns:xlink="http://www.w3.org/1999/xlink" contentStyleType="text/css" height="927px" preserveAspectRatio="none" style="width:2024px;height:927px;background:#FFFFFF;" version="1.1" viewBox="0 0 2024 927" width="2024px" zoomAndPan="magnify"><title>Sequence Diagram</title><defs/><g><text fill="#000000" font-family="sans-serif" font-size="14" font-weight="bold" lengthAdjust="spacing" textLength="126.0479" x="950.1873" y="30.1074">Sequence Diagram</text><rect fill="#FFFFFF" height="693.043" style="stroke:#181818;stroke-width:1.0;" width="10" x="59.0171" y="133.2422"/><rect fill="#FFFFFF" height="110.8242" style="stroke:#181818;stroke-width:1.0;" width="10" x="450.6631" y="156.5332"/><rect fill="#FFFFFF" height="527.6367" style="stroke:#181818;stroke-width:1.0;" width="10" x="450.6631" y="298.6484"/><rect fill="#FFFFFF" height="447.7637" style="stroke:#181818;stroke-width:1.0;" width="10" x="756.3701" y="347.2305"/><rect fill="#FFFFFF" height="322.9395" style="stroke:#181818;stroke-width:1.0;" width="10" x="1253.9121" y="458.0547"/><rect fill="#FFFFFF" height="124.8242" style="stroke:#181818;stroke-width:1.0;" width="10" x="1424.584" y="551.5879"/><rect fill="#FFFFFF" height="34.9512" style="stroke:#181818;stroke-width:1.0;" width="10" x="1752.1475" y="610.1699"/><rect fill="#FFFFFF" height="59.291" style="stroke:#181818;stroke-width:1.0;" width="10" x="1870.6919" y="707.7031"/><rect fill="#FFFFFF" height="14" style="stroke:#181818;stroke-width:1.0;" width="10" x="1984.457" y="738.9941"/><line style="stroke:#181818;stroke-width:0.5;stroke-dasharray:5.0,5.0;" x1="64" x2="64" y1="123.2422" y2="844.2852"/><line style="stroke:#181818;stroke-width:0.5;stroke-dasharray:5.0,5.0;" x1="455.2563" x2="455.2563" y1="123.2422" y2="844.2852"/><line style="stroke:#181818;stroke-width:0.5;stroke-dasharray:5.0,5.0;" x1="760.6187" x2="760.6187" y1="205.6543" y2="844.2852"/><line style="stroke:#181818;stroke-width:0.5;stroke-dasharray:5.0,5.0;" x1="1075.9717" x2="1075.9717" y1="396.3516" y2="844.2852"/><line style="stroke:#181818;stroke-width:0.5;stroke-dasharray:5.0,5.0;" x1="1258.3711" x2="1258.3711" y1="123.2422" y2="844.2852"/><line style="stroke:#181818;stroke-width:0.5;stroke-dasharray:5.0,5.0;" x1="1429.4531" x2="1429.4531" y1="507.1758" y2="844.2852"/><line style="stroke:#181818;stroke-width:0.5;stroke-dasharray:5.0,5.0;" x1="1756.4028" x2="1756.4028" y1="600.709" y2="844.2852"/><line style="stroke:#181818;stroke-width:0.5;stroke-dasharray:5.0,5.0;" x1="1874.8921" x2="1874.8921" y1="123.2422" y2="844.2852"/><line style="stroke:#181818;stroke-width:0.5;stroke-dasharray:5.0,5.0;" x1="1988.4917" x2="1988.4917" y1="123.2422" y2="844.2852"/><text fill="#000000" font-family="sans-serif" font-size="14" lengthAdjust="spacing" textLength="112.0342" x="5" y="119.7285">CRM Collaborator</text><ellipse cx="64.0171" cy="53.1211" fill="#E2E2F0" rx="8" ry="8" style="stroke:#181818;stroke-width:0.5;"/><path d="M64.0171,61.1211 L64.0171,88.1211 M51.0171,69.1211 L77.0171,69.1211 M64.0171,88.1211 L51.0171,103.1211 M64.0171,88.1211 L77.0171,103.1211 " fill="none" style="stroke:#181818;stroke-width:0.5;"/><text fill="#000000" font-family="sans-serif" font-size="14" lengthAdjust="spacing" textLength="112.0342" x="5" y="858.3926">CRM Collaborator</text><ellipse cx="64.0171" cy="870.4063" fill="#E2E2F0" rx="8" ry="8" style="stroke:#181818;stroke-width:0.5;"/><path d="M64.0171,878.4063 L64.0171,905.4063 M51.0171,886.4063 L77.0171,886.4063 M64.0171,905.4063 L51.0171,920.4063 M64.0171,905.4063 L77.0171,920.4063 " fill="none" style="stroke:#181818;stroke-width:0.5;"/><rect fill="#E2E2F0" height="51.2422" rx="2.5" ry="2.5" style="stroke:#181818;stroke-width:0.5;" width="140.8135" x="385.2563" y="71"/><text fill="#000000" font-family="sans-serif" font-size="14" font-style="italic" lengthAdjust="spacing" textLength="92.627" x="409.3496" y="93.1074">&#171;presentation&#187;</text><text fill="#000000" font-family="sans-serif" font-size="14" lengthAdjust="spacing" textLength="126.8135" x="392.2563" y="111.7285">RegisterCustomerUI</text><rect fill="#E2E2F0" height="51.2422" rx="2.5" ry="2.5" style="stroke:#181818;stroke-width:0.5;" width="140.8135" x="385.2563" y="843.2852"/><text fill="#000000" font-family="sans-serif" font-size="14" font-style="italic" lengthAdjust="spacing" textLength="92.627" x="409.3496" y="865.3926">&#171;presentation&#187;</text><text fill="#000000" font-family="sans-serif" font-size="14" lengthAdjust="spacing" textLength="126.8135" x="392.2563" y="884.0137">RegisterCustomerUI</text><rect fill="#E2E2F0" height="51.2422" rx="2.5" ry="2.5" style="stroke:#181818;stroke-width:0.5;" width="187.5029" x="667.6187" y="843.2852"/><text fill="#000000" font-family="sans-serif" font-size="14" font-style="italic" lengthAdjust="spacing" textLength="82.5098" x="720.1152" y="865.3926">&#171;application&#187;</text><text fill="#000000" font-family="sans-serif" font-size="14" lengthAdjust="spacing" textLength="173.5029" x="674.6187" y="884.0137">RegisterCustomerController</text><rect fill="#E2E2F0" height="51.2422" rx="2.5" ry="2.5" style="stroke:#181818;stroke-width:0.5;" width="142.3994" x="1004.9717" y="843.2852"/><text fill="#000000" font-family="sans-serif" font-size="14" font-style="italic" lengthAdjust="spacing" textLength="42.8203" x="1054.7612" y="865.3926">&#171;auth&#187;</text><text fill="#000000" font-family="sans-serif" font-size="14" lengthAdjust="spacing" textLength="128.3994" x="1011.9717" y="884.0137">AuthorizationService</text><rect fill="#E2E2F0" height="51.2422" rx="2.5" ry="2.5" style="stroke:#181818;stroke-width:0.5;" width="203.082" x="1157.3711" y="71"/><text fill="#000000" font-family="sans-serif" font-size="14" font-style="italic" lengthAdjust="spacing" textLength="82.5098" x="1217.6572" y="93.1074">&#171;application&#187;</text><text fill="#000000" font-family="sans-serif" font-size="14" lengthAdjust="spacing" textLength="189.082" x="1164.3711" y="111.7285">CustomerManagementService</text><rect fill="#E2E2F0" height="51.2422" rx="2.5" ry="2.5" style="stroke:#181818;stroke-width:0.5;" width="203.082" x="1157.3711" y="843.2852"/><text fill="#000000" font-family="sans-serif" font-size="14" font-style="italic" lengthAdjust="spacing" textLength="82.5098" x="1217.6572" y="865.3926">&#171;application&#187;</text><text fill="#000000" font-family="sans-serif" font-size="14" lengthAdjust="spacing" textLength="189.082" x="1164.3711" y="884.0137">CustomerManagementService</text><rect fill="#E2E2F0" height="51.2422" rx="2.5" ry="2.5" style="stroke:#181818;stroke-width:0.5;" width="118.2617" x="1370.4531" y="843.2852"/><text fill="#000000" font-family="sans-serif" font-size="14" font-style="italic" lengthAdjust="spacing" textLength="61.4893" x="1398.8394" y="865.3926">&#171;domain&#187;</text><text fill="#000000" font-family="sans-serif" font-size="14" lengthAdjust="spacing" textLength="104.2617" x="1377.4531" y="884.0137">CustomerBuilder</text><rect fill="#E2E2F0" height="51.2422" rx="2.5" ry="2.5" style="stroke:#181818;stroke-width:0.5;" width="75.4893" x="1719.4028" y="843.2852"/><text fill="#000000" font-family="sans-serif" font-size="14" font-style="italic" lengthAdjust="spacing" textLength="61.4893" x="1726.4028" y="865.3926">&#171;domain&#187;</text><text fill="#000000" font-family="sans-serif" font-size="14" lengthAdjust="spacing" textLength="60.6826" x="1726.8062" y="884.0137">Customer</text><rect fill="#E2E2F0" height="51.2422" rx="2.5" ry="2.5" style="stroke:#181818;stroke-width:0.5;" width="141.5996" x="1804.8921" y="71"/><text fill="#000000" font-family="sans-serif" font-size="14" font-style="italic" lengthAdjust="spacing" textLength="77.041" x="1837.1714" y="93.1074">&#171;repository&#187;</text><text fill="#000000" font-family="sans-serif" font-size="14" lengthAdjust="spacing" textLength="127.5996" x="1811.8921" y="111.7285">CustomerRepository</text><rect fill="#E2E2F0" height="51.2422" rx="2.5" ry="2.5" style="stroke:#181818;stroke-width:0.5;" width="141.5996" x="1804.8921" y="843.2852"/><text fill="#000000" font-family="sans-serif" font-size="14" font-style="italic" lengthAdjust="spacing" textLength="77.041" x="1837.1714" y="865.3926">&#171;repository&#187;</text><text fill="#000000" font-family="sans-serif" font-size="14" lengthAdjust="spacing" textLength="127.5996" x="1811.8921" y="884.0137">CustomerRepository</text><text fill="#000000" font-family="sans-serif" font-size="14" lengthAdjust="spacing" textLength="59.9307" x="1956.4917" y="119.7285">Database</text><path d="M1971.457,68.6211 C1971.457,58.6211 1989.457,58.6211 1989.457,58.6211 C1989.457,58.6211 2007.457,58.6211 2007.457,68.6211 L2007.457,94.6211 C2007.457,104.6211 1989.457,104.6211 1989.457,104.6211 C1989.457,104.6211 1971.457,104.6211 1971.457,94.6211 L1971.457,68.6211 " fill="#E2E2F0" style="stroke:#181818;stroke-width:1.5;"/><path d="M1971.457,68.6211 C1971.457,78.6211 1989.457,78.6211 1989.457,78.6211 C1989.457,78.6211 2007.457,78.6211 2007.457,68.6211 " fill="none" style="stroke:#181818;stroke-width:1.5;"/><text fill="#000000" font-family="sans-serif" font-size="14" lengthAdjust="spacing" textLength="59.9307" x="1956.4917" y="858.3926">Database</text><path d="M1971.457,871.9063 C1971.457,861.9063 1989.457,861.9063 1989.457,861.9063 C1989.457,861.9063 2007.457,861.9063 2007.457,871.9063 L2007.457,897.9063 C2007.457,907.9063 1989.457,907.9063 1989.457,907.9063 C1989.457,907.9063 1971.457,907.9063 1971.457,897.9063 L1971.457,871.9063 " fill="#E2E2F0" style="stroke:#181818;stroke-width:1.5;"/><path d="M1971.457,871.9063 C1971.457,881.9063 1989.457,881.9063 1989.457,881.9063 C1989.457,881.9063 2007.457,881.9063 2007.457,871.9063 " fill="none" style="stroke:#181818;stroke-width:1.5;"/><rect fill="#FFFFFF" height="693.043" style="stroke:#181818;stroke-width:1.0;" width="10" x="59.0171" y="133.2422"/><rect fill="#FFFFFF" height="110.8242" style="stroke:#181818;stroke-width:1.0;" width="10" x="450.6631" y="156.5332"/><rect fill="#FFFFFF" height="527.6367" style="stroke:#181818;stroke-width:1.0;" width="10" x="450.6631" y="298.6484"/><rect fill="#FFFFFF" height="447.7637" style="stroke:#181818;stroke-width:1.0;" width="10" x="756.3701" y="347.2305"/><rect fill="#FFFFFF" height="322.9395" style="stroke:#181818;stroke-width:1.0;" width="10" x="1253.9121" y="458.0547"/><rect fill="#FFFFFF" height="124.8242" style="stroke:#181818;stroke-width:1.0;" width="10" x="1424.584" y="551.5879"/><rect fill="#FFFFFF" height="34.9512" style="stroke:#181818;stroke-width:1.0;" width="10" x="1752.1475" y="610.1699"/><rect fill="#FFFFFF" height="59.291" style="stroke:#181818;stroke-width:1.0;" width="10" x="1870.6919" y="707.7031"/><rect fill="#FFFFFF" height="14" style="stroke:#181818;stroke-width:1.0;" width="10" x="1984.457" y="738.9941"/><polygon fill="#181818" points="438.6631,152.5332,448.6631,156.5332,438.6631,160.5332,442.6631,156.5332" style="stroke:#181818;stroke-width:1.0;"/><line style="stroke:#181818;stroke-width:1.0;" x1="69.0171" x2="444.6631" y1="156.5332" y2="156.5332"/><text fill="#000000" font-family="sans-serif" font-size="13" lengthAdjust="spacing" textLength="39.0063" x="76.0171" y="151.2705">show()</text><polygon fill="#181818" points="655.6187,183.8242,665.6187,187.8242,655.6187,191.8242,659.6187,187.8242" style="stroke:#181818;stroke-width:1.0;"/><line style="stroke:#181818;stroke-width:1.0;" x1="460.6631" x2="661.6187" y1="187.8242" y2="187.8242"/><text fill="#000000" font-family="sans-serif" font-size="13" lengthAdjust="spacing" textLength="44.7891" x="467.6631" y="182.5615">create()</text><rect fill="#E2E2F0" height="51.2422" rx="2.5" ry="2.5" style="stroke:#181818;stroke-width:0.5;" width="187.5029" x="667.6187" y="164.5332"/><text fill="#000000" font-family="sans-serif" font-size="14" font-style="italic" lengthAdjust="spacing" textLength="82.5098" x="720.1152" y="186.6406">&#171;application&#187;</text><text fill="#000000" font-family="sans-serif" font-size="14" lengthAdjust="spacing" textLength="173.5029" x="674.6187" y="205.2617">RegisterCustomerController</text><polygon fill="#181818" points="80.0171,263.3574,70.0171,267.3574,80.0171,271.3574,76.0171,267.3574" style="stroke:#181818;stroke-width:1.0;"/><line style="stroke:#181818;stroke-width:1.0;stroke-dasharray:2.0,2.0;" x1="74.0171" x2="454.6631" y1="267.3574" y2="267.3574"/><text fill="#000000" font-family="sans-serif" font-size="13" lengthAdjust="spacing" textLength="357.646" x="86.0171" y="244.8037">Request Customer Information (Name, Email, Phone Number,</text><text fill="#000000" font-family="sans-serif" font-size="13" lengthAdjust="spacing" textLength="124.9917" x="89.6289" y="262.0947">VatNumber, Address)</text><polygon fill="#181818" points="438.6631,294.6484,448.6631,298.6484,438.6631,302.6484,442.6631,298.6484" style="stroke:#181818;stroke-width:1.0;"/><line style="stroke:#181818;stroke-width:1.0;" x1="69.0171" x2="444.6631" y1="298.6484" y2="298.6484"/><text fill="#000000" font-family="sans-serif" font-size="13" lengthAdjust="spacing" textLength="121.3862" x="76.0171" y="293.3857">Insert Customer data</text><polygon fill="#181818" points="744.3701,343.2305,754.3701,347.2305,744.3701,351.2305,748.3701,347.2305" style="stroke:#181818;stroke-width:1.0;"/><line style="stroke:#181818;stroke-width:1.0;" x1="460.6631" x2="750.3701" y1="347.2305" y2="347.2305"/><text fill="#000000" font-family="sans-serif" font-size="13" lengthAdjust="spacing" textLength="276.707" x="467.6631" y="324.6768">registerCustomer(Name, Email, Phone Number,</text><text fill="#000000" font-family="sans-serif" font-size="13" lengthAdjust="spacing" textLength="124.9917" x="471.2749" y="341.9678">VatNumber, Address)</text><polygon fill="#181818" points="992.9717,374.5215,1002.9717,378.5215,992.9717,382.5215,996.9717,378.5215" style="stroke:#181818;stroke-width:1.0;"/><line style="stroke:#181818;stroke-width:1.0;" x1="766.3701" x2="998.9717" y1="378.5215" y2="378.5215"/><text fill="#000000" font-family="sans-serif" font-size="13" lengthAdjust="spacing" textLength="214.6016" x="773.3701" y="373.2588">ensureAuthenticatedUserHasAnyOf()</text><rect fill="#E2E2F0" height="51.2422" rx="2.5" ry="2.5" style="stroke:#181818;stroke-width:0.5;" width="142.3994" x="1004.9717" y="355.2305"/><text fill="#000000" font-family="sans-serif" font-size="14" font-style="italic" lengthAdjust="spacing" textLength="42.8203" x="1054.7612" y="377.3379">&#171;auth&#187;</text><text fill="#000000" font-family="sans-serif" font-size="14" lengthAdjust="spacing" textLength="128.3994" x="1011.9717" y="395.959">AuthorizationService</text><polygon fill="#181818" points="1241.9121,454.0547,1251.9121,458.0547,1241.9121,462.0547,1245.9121,458.0547" style="stroke:#181818;stroke-width:1.0;"/><line style="stroke:#181818;stroke-width:1.0;" x1="766.3701" x2="1247.9121" y1="458.0547" y2="458.0547"/><text fill="#000000" font-family="sans-serif" font-size="13" lengthAdjust="spacing" textLength="302.7134" x="773.3701" y="435.501">registerNewCustomer(Name, Email, Phone Number,</text><text fill="#000000" font-family="sans-serif" font-size="13" lengthAdjust="spacing" textLength="124.9917" x="776.9819" y="452.792">VatNumber, Address)</text><polygon fill="#181818" points="1358.4531,485.3457,1368.4531,489.3457,1358.4531,493.3457,1362.4531,489.3457" style="stroke:#181818;stroke-width:1.0;"/><line style="stroke:#181818;stroke-width:1.0;" x1="1263.9121" x2="1364.4531" y1="489.3457" y2="489.3457"/><text fill="#000000" font-family="sans-serif" font-size="13" lengthAdjust="spacing" textLength="44.7891" x="1270.9121" y="484.083">create()</text><rect fill="#E2E2F0" height="51.2422" rx="2.5" ry="2.5" style="stroke:#181818;stroke-width:0.5;" width="118.2617" x="1370.4531" y="466.0547"/><text fill="#000000" font-family="sans-serif" font-size="14" font-style="italic" lengthAdjust="spacing" textLength="61.4893" x="1398.8394" y="488.1621">&#171;domain&#187;</text><text fill="#000000" font-family="sans-serif" font-size="14" lengthAdjust="spacing" textLength="104.2617" x="1377.4531" y="506.7832">CustomerBuilder</text><polygon fill="#181818" points="1412.584,547.5879,1422.584,551.5879,1412.584,555.5879,1416.584,551.5879" style="stroke:#181818;stroke-width:1.0;"/><line style="stroke:#181818;stroke-width:1.0;" x1="1263.9121" x2="1418.584" y1="551.5879" y2="551.5879"/><text fill="#000000" font-family="sans-serif" font-size="13" lengthAdjust="spacing" textLength="36.1245" x="1270.9121" y="546.3252">build()</text><polygon fill="#181818" points="1707.4028,596.1699,1717.4028,600.1699,1707.4028,604.1699,1711.4028,600.1699" style="stroke:#181818;stroke-width:1.0;"/><line style="stroke:#181818;stroke-width:1.0;" x1="1434.584" x2="1713.4028" y1="600.1699" y2="600.1699"/><text fill="#000000" font-family="sans-serif" font-size="13" lengthAdjust="spacing" textLength="260.8188" x="1441.584" y="577.6162">new Customer(Name, Email, Phone Number,</text><text fill="#000000" font-family="sans-serif" font-size="13" lengthAdjust="spacing" textLength="124.9917" x="1445.1958" y="594.9072">VatNumber, Address)</text><rect fill="#E2E2F0" height="51.2422" rx="2.5" ry="2.5" style="stroke:#181818;stroke-width:0.5;" width="75.4893" x="1719.4028" y="559.5879"/><text fill="#000000" font-family="sans-serif" font-size="14" font-style="italic" lengthAdjust="spacing" textLength="61.4893" x="1726.4028" y="581.6953">&#171;domain&#187;</text><text fill="#000000" font-family="sans-serif" font-size="14" lengthAdjust="spacing" textLength="60.6826" x="1726.8062" y="600.3164">Customer</text><polygon fill="#181818" points="1445.584,641.1211,1435.584,645.1211,1445.584,649.1211,1441.584,645.1211" style="stroke:#181818;stroke-width:1.0;"/><line style="stroke:#181818;stroke-width:1.0;stroke-dasharray:2.0,2.0;" x1="1439.584" x2="1756.1475" y1="645.1211" y2="645.1211"/><text fill="#000000" font-family="sans-serif" font-size="13" lengthAdjust="spacing" textLength="80.1963" x="1451.584" y="639.8584">newCustomer</text><polygon fill="#181818" points="1274.9121,672.4121,1264.9121,676.4121,1274.9121,680.4121,1270.9121,676.4121" style="stroke:#181818;stroke-width:1.0;"/><line style="stroke:#181818;stroke-width:1.0;stroke-dasharray:2.0,2.0;" x1="1268.9121" x2="1428.584" y1="676.4121" y2="676.4121"/><text fill="#000000" font-family="sans-serif" font-size="13" lengthAdjust="spacing" textLength="80.1963" x="1280.9121" y="671.1494">newCustomer</text><polygon fill="#181818" points="1858.6919,703.7031,1868.6919,707.7031,1858.6919,711.7031,1862.6919,707.7031" style="stroke:#181818;stroke-width:1.0;"/><line style="stroke:#181818;stroke-width:1.0;" x1="1263.9121" x2="1864.6919" y1="707.7031" y2="707.7031"/><text fill="#000000" font-family="sans-serif" font-size="13" lengthAdjust="spacing" textLength="116.3145" x="1270.9121" y="702.4404">save(newCustomer)</text><polygon fill="#181818" points="1972.457,734.9941,1982.457,738.9941,1972.457,742.9941,1976.457,738.9941" style="stroke:#181818;stroke-width:1.0;"/><line style="stroke:#181818;stroke-width:1.0;" x1="1880.6919" x2="1978.457" y1="738.9941" y2="738.9941"/><text fill="#000000" font-family="sans-serif" font-size="13" lengthAdjust="spacing" textLength="36.1182" x="1887.6919" y="733.7314">save()</text><polygon fill="#181818" points="1891.6919,748.9941,1881.6919,752.9941,1891.6919,756.9941,1887.6919,752.9941" style="stroke:#181818;stroke-width:1.0;"/><line style="stroke:#181818;stroke-width:1.0;stroke-dasharray:2.0,2.0;" x1="1885.6919" x2="1988.457" y1="752.9941" y2="752.9941"/><polygon fill="#181818" points="1274.9121,762.9941,1264.9121,766.9941,1274.9121,770.9941,1270.9121,766.9941" style="stroke:#181818;stroke-width:1.0;"/><line style="stroke:#181818;stroke-width:1.0;stroke-dasharray:2.0,2.0;" x1="1268.9121" x2="1874.6919" y1="766.9941" y2="766.9941"/><polygon fill="#181818" points="777.3701,776.9941,767.3701,780.9941,777.3701,784.9941,773.3701,780.9941" style="stroke:#181818;stroke-width:1.0;"/><line style="stroke:#181818;stroke-width:1.0;stroke-dasharray:2.0,2.0;" x1="771.3701" x2="1257.9121" y1="780.9941" y2="780.9941"/><polygon fill="#181818" points="471.6631,790.9941,461.6631,794.9941,471.6631,798.9941,467.6631,794.9941" style="stroke:#181818;stroke-width:1.0;"/><line style="stroke:#181818;stroke-width:1.0;stroke-dasharray:2.0,2.0;" x1="465.6631" x2="760.3701" y1="794.9941" y2="794.9941"/><polygon fill="#181818" points="75.0171,822.2852,65.0171,826.2852,75.0171,830.2852,71.0171,826.2852" style="stroke:#181818;stroke-width:1.0;"/><line style="stroke:#181818;stroke-width:1.0;stroke-dasharray:2.0,2.0;" x1="69.0171" x2="454.6631" y1="826.2852" y2="826.2852"/><text fill="#000000" font-family="sans-serif" font-size="13" lengthAdjust="spacing" textLength="145.2344" x="81.0171" y="821.0225">Inform operation success</text><!--SRC=[hLRBZjem5DtxAwvO0O8VG2CaoenK5aChHdJLZKdkWAN4Jcq7DFtwtfWy7FBijDuG-_gUS-x3DbRO2E4DVwKe0uHdmS-Qnupnm2eDa-tX5ROgYlX9QKuh4-06DfcD9LnR4OY4ImkJ0vw5iQYtgR4gHdtSkPt77Jmz9HeDIikjK7AzxlVRAcaryU6TgPeI3a-II0IjC9lKNfGMlvtn3VLL17YNscB8e6Zv4QEGyCebFsDCYdsWJck_iCBjIogYi0YglaO0eOgvwFIjEGtkFc2YZA02VTJygcL2qEM4K49k-OaRXCbp_kKSYubh1N7b5lEwC_S3opLLTmNcecxJ6GCQvRxZZZ6gFEsewZUVmme2ZMIdxSvCTWUrWaFMViPMGUxakzAnooXCzpp61RnGqD42lb-KHDYdyGdrugU47zpc4zY48NMQcR4GQr9gUdVIeFQOikWPQ-g7V3p6GL7eXvxzUu7WZPAruc2r3Tdm-BEijJIroozAashCpDIVMKTYUAHmltApaH_VthF4Fo9xkMg37PBIVIogFEtnzdzILKzN5tDJifFTATIB8Z-HzLxzLpJ2EcLV7L2DW7AtzZ1yyWBVevpFLo3n1f_FToThKsZFtl9uBLlp8QkEwCRmEdC4OpCh0ztfQs0Z-SlIVBufl7kOBaz-nQadf2Fz3HqLI5z6F4aUAsafhlP2mQmVfAIldWGO62N3iZNqVdylyICPsyBiA__OUW_bkQVYjKU3ZU0QSO_vLwzxpbWNPfFPVt1XbJ-me1BKzrVMf4505m1hGICU_vLmVmB-0000]--></g></svg>