<svg xmlns="http://www.w3.org/2000/svg" xmlns:xlink="http://www.w3.org/1999/xlink" contentStyleType="text/css" height="702px" preserveAspectRatio="none" style="width:2068px;height:702px;background:#FFFFFF;" version="1.1" viewBox="0 0 2068 702" width="2068px" zoomAndPan="magnify"><title>Sequence Diagram</title><defs/><g><text fill="#000000" font-family="sans-serif" font-size="14" font-weight="bold" lengthAdjust="spacing" textLength="126.0479" x="971.9883" y="30.1074">Sequence Diagram</text><rect fill="#FFFFFF" height="468.1035" style="stroke:#181818;stroke-width:1.0;" width="10" x="50.4688" y="133.2422"/><rect fill="#FFFFFF" height="93.5332" style="stroke:#181818;stroke-width:1.0;" width="10" x="439.2456" y="156.5332"/><rect fill="#FFFFFF" height="319.9883" style="stroke:#181818;stroke-width:1.0;" width="10" x="439.2456" y="281.3574"/><rect fill="#FFFFFF" height="257.4063" style="stroke:#181818;stroke-width:1.0;" width="10" x="794.8389" y="312.6484"/><rect fill="#FFFFFF" height="149.873" style="stroke:#181818;stroke-width:1.0;" width="10" x="1310.2842" y="406.1816"/><rect fill="#FFFFFF" height="14" style="stroke:#181818;stroke-width:1.0;" width="10" x="1742.4429" y="437.4727"/><rect fill="#FFFFFF" height="59.291" style="stroke:#181818;stroke-width:1.0;" width="10" x="1896.3906" y="482.7637"/><rect fill="#FFFFFF" height="14" style="stroke:#181818;stroke-width:1.0;" width="10" x="2028.0591" y="514.0547"/><line style="stroke:#181818;stroke-width:0.5;stroke-dasharray:5.0,5.0;" x1="55" x2="55" y1="123.2422" y2="619.3457"/><line style="stroke:#181818;stroke-width:0.5;stroke-dasharray:5.0,5.0;" x1="443.5459" x2="443.5459" y1="123.2422" y2="619.3457"/><line style="stroke:#181818;stroke-width:0.5;stroke-dasharray:5.0,5.0;" x1="799.7944" x2="799.7944" y1="205.6543" y2="619.3457"/><line style="stroke:#181818;stroke-width:0.5;stroke-dasharray:5.0,5.0;" x1="1114.4404" x2="1114.4404" y1="361.7695" y2="619.3457"/><line style="stroke:#181818;stroke-width:0.5;stroke-dasharray:5.0,5.0;" x1="1314.8398" x2="1314.8398" y1="123.2422" y2="619.3457"/><line style="stroke:#181818;stroke-width:0.5;stroke-dasharray:5.0,5.0;" x1="1747.1982" x2="1747.1982" y1="123.2422" y2="619.3457"/><line style="stroke:#181818;stroke-width:0.5;stroke-dasharray:5.0,5.0;" x1="1900.6875" x2="1900.6875" y1="123.2422" y2="619.3457"/><line style="stroke:#181818;stroke-width:0.5;stroke-dasharray:5.0,5.0;" x1="2032.0938" x2="2032.0938" y1="123.2422" y2="619.3457"/><text fill="#000000" font-family="sans-serif" font-size="14" lengthAdjust="spacing" textLength="94.9375" x="5" y="119.7285">Show Designer</text><ellipse cx="55.4688" cy="53.1211" fill="#E2E2F0" rx="8" ry="8" style="stroke:#181818;stroke-width:0.5;"/><path d="M55.4688,61.1211 L55.4688,88.1211 M42.4688,69.1211 L68.4688,69.1211 M55.4688,88.1211 L42.4688,103.1211 M55.4688,88.1211 L68.4688,103.1211 " fill="none" style="stroke:#181818;stroke-width:0.5;"/><text fill="#000000" font-family="sans-serif" font-size="14" lengthAdjust="spacing" textLength="94.9375" x="5" y="633.4531">Show Designer</text><ellipse cx="55.4688" cy="645.4668" fill="#E2E2F0" rx="8" ry="8" style="stroke:#181818;stroke-width:0.5;"/><path d="M55.4688,653.4668 L55.4688,680.4668 M42.4688,661.4668 L68.4688,661.4668 M55.4688,680.4668 L42.4688,695.4668 M55.4688,680.4668 L68.4688,695.4668 " fill="none" style="stroke:#181818;stroke-width:0.5;"/><rect fill="#E2E2F0" height="51.2422" rx="2.5" ry="2.5" style="stroke:#181818;stroke-width:0.5;" width="149.3994" x="369.5459" y="71"/><text fill="#000000" font-family="sans-serif" font-size="14" font-style="italic" lengthAdjust="spacing" textLength="92.627" x="397.9321" y="93.1074">&#171;presentation&#187;</text><text fill="#000000" font-family="sans-serif" font-size="14" lengthAdjust="spacing" textLength="135.3994" x="376.5459" y="111.7285">AddFigureCategoryUI</text><rect fill="#E2E2F0" height="51.2422" rx="2.5" ry="2.5" style="stroke:#181818;stroke-width:0.5;" width="149.3994" x="369.5459" y="618.3457"/><text fill="#000000" font-family="sans-serif" font-size="14" font-style="italic" lengthAdjust="spacing" textLength="92.627" x="397.9321" y="640.4531">&#171;presentation&#187;</text><text fill="#000000" font-family="sans-serif" font-size="14" lengthAdjust="spacing" textLength="135.3994" x="376.5459" y="659.0742">AddFigureCategoryUI</text><rect fill="#E2E2F0" height="51.2422" rx="2.5" ry="2.5" style="stroke:#181818;stroke-width:0.5;" width="196.0889" x="701.7944" y="618.3457"/><text fill="#000000" font-family="sans-serif" font-size="14" font-style="italic" lengthAdjust="spacing" textLength="82.5098" x="758.584" y="640.4531">&#171;application&#187;</text><text fill="#000000" font-family="sans-serif" font-size="14" lengthAdjust="spacing" textLength="182.0889" x="708.7944" y="659.0742">AddFigureCategoryController</text><rect fill="#E2E2F0" height="51.2422" rx="2.5" ry="2.5" style="stroke:#181818;stroke-width:0.5;" width="142.3994" x="1043.4404" y="618.3457"/><text fill="#000000" font-family="sans-serif" font-size="14" font-style="italic" lengthAdjust="spacing" textLength="42.8203" x="1093.23" y="640.4531">&#171;auth&#187;</text><text fill="#000000" font-family="sans-serif" font-size="14" lengthAdjust="spacing" textLength="128.3994" x="1050.4404" y="659.0742">AuthorizationService</text><rect fill="#E2E2F0" height="51.2422" rx="2.5" ry="2.5" style="stroke:#181818;stroke-width:0.5;" width="238.8887" x="1195.8398" y="71"/><text fill="#000000" font-family="sans-serif" font-size="14" font-style="italic" lengthAdjust="spacing" textLength="82.5098" x="1274.0293" y="93.1074">&#171;application&#187;</text><text fill="#000000" font-family="sans-serif" font-size="14" lengthAdjust="spacing" textLength="224.8887" x="1202.8398" y="111.7285">FigureCategoryManagementService</text><rect fill="#E2E2F0" height="51.2422" rx="2.5" ry="2.5" style="stroke:#181818;stroke-width:0.5;" width="238.8887" x="1195.8398" y="618.3457"/><text fill="#000000" font-family="sans-serif" font-size="14" font-style="italic" lengthAdjust="spacing" textLength="82.5098" x="1274.0293" y="640.4531">&#171;application&#187;</text><text fill="#000000" font-family="sans-serif" font-size="14" lengthAdjust="spacing" textLength="224.8887" x="1202.8398" y="659.0742">FigureCategoryManagementService</text><rect fill="#E2E2F0" height="51.2422" rx="2.5" ry="2.5" style="stroke:#181818;stroke-width:0.5;" width="110.4893" x="1692.1982" y="71"/><text fill="#000000" font-family="sans-serif" font-size="14" font-style="italic" lengthAdjust="spacing" textLength="61.4893" x="1716.6982" y="93.1074">&#171;domain&#187;</text><text fill="#000000" font-family="sans-serif" font-size="14" lengthAdjust="spacing" textLength="96.4893" x="1699.1982" y="111.7285">FigureCategory</text><rect fill="#E2E2F0" height="51.2422" rx="2.5" ry="2.5" style="stroke:#181818;stroke-width:0.5;" width="110.4893" x="1692.1982" y="618.3457"/><text fill="#000000" font-family="sans-serif" font-size="14" font-style="italic" lengthAdjust="spacing" textLength="61.4893" x="1716.6982" y="640.4531">&#171;domain&#187;</text><text fill="#000000" font-family="sans-serif" font-size="14" lengthAdjust="spacing" textLength="96.4893" x="1699.1982" y="659.0742">FigureCategory</text><rect fill="#E2E2F0" height="51.2422" rx="2.5" ry="2.5" style="stroke:#181818;stroke-width:0.5;" width="177.4063" x="1812.6875" y="71"/><text fill="#000000" font-family="sans-serif" font-size="14" font-style="italic" lengthAdjust="spacing" textLength="77.041" x="1862.8701" y="93.1074">&#171;repository&#187;</text><text fill="#000000" font-family="sans-serif" font-size="14" lengthAdjust="spacing" textLength="163.4063" x="1819.6875" y="111.7285">FigureCategoryRepository</text><rect fill="#E2E2F0" height="51.2422" rx="2.5" ry="2.5" style="stroke:#181818;stroke-width:0.5;" width="177.4063" x="1812.6875" y="618.3457"/><text fill="#000000" font-family="sans-serif" font-size="14" font-style="italic" lengthAdjust="spacing" textLength="77.041" x="1862.8701" y="640.4531">&#171;repository&#187;</text><text fill="#000000" font-family="sans-serif" font-size="14" lengthAdjust="spacing" textLength="163.4063" x="1819.6875" y="659.0742">FigureCategoryRepository</text><text fill="#000000" font-family="sans-serif" font-size="14" lengthAdjust="spacing" textLength="59.9307" x="2000.0938" y="119.7285">Database</text><path d="M2015.0591,68.6211 C2015.0591,58.6211 2033.0591,58.6211 2033.0591,58.6211 C2033.0591,58.6211 2051.0591,58.6211 2051.0591,68.6211 L2051.0591,94.6211 C2051.0591,104.6211 2033.0591,104.6211 2033.0591,104.6211 C2033.0591,104.6211 2015.0591,104.6211 2015.0591,94.6211 L2015.0591,68.6211 " fill="#E2E2F0" style="stroke:#181818;stroke-width:1.5;"/><path d="M2015.0591,68.6211 C2015.0591,78.6211 2033.0591,78.6211 2033.0591,78.6211 C2033.0591,78.6211 2051.0591,78.6211 2051.0591,68.6211 " fill="none" style="stroke:#181818;stroke-width:1.5;"/><text fill="#000000" font-family="sans-serif" font-size="14" lengthAdjust="spacing" textLength="59.9307" x="2000.0938" y="633.4531">Database</text><path d="M2015.0591,646.9668 C2015.0591,636.9668 2033.0591,636.9668 2033.0591,636.9668 C2033.0591,636.9668 2051.0591,636.9668 2051.0591,646.9668 L2051.0591,672.9668 C2051.0591,682.9668 2033.0591,682.9668 2033.0591,682.9668 C2033.0591,682.9668 2015.0591,682.9668 2015.0591,672.9668 L2015.0591,646.9668 " fill="#E2E2F0" style="stroke:#181818;stroke-width:1.5;"/><path d="M2015.0591,646.9668 C2015.0591,656.9668 2033.0591,656.9668 2033.0591,656.9668 C2033.0591,656.9668 2051.0591,656.9668 2051.0591,646.9668 " fill="none" style="stroke:#181818;stroke-width:1.5;"/><rect fill="#FFFFFF" height="468.1035" style="stroke:#181818;stroke-width:1.0;" width="10" x="50.4688" y="133.2422"/><rect fill="#FFFFFF" height="93.5332" style="stroke:#181818;stroke-width:1.0;" width="10" x="439.2456" y="156.5332"/><rect fill="#FFFFFF" height="319.9883" style="stroke:#181818;stroke-width:1.0;" width="10" x="439.2456" y="281.3574"/><rect fill="#FFFFFF" height="257.4063" style="stroke:#181818;stroke-width:1.0;" width="10" x="794.8389" y="312.6484"/><rect fill="#FFFFFF" height="149.873" style="stroke:#181818;stroke-width:1.0;" width="10" x="1310.2842" y="406.1816"/><rect fill="#FFFFFF" height="14" style="stroke:#181818;stroke-width:1.0;" width="10" x="1742.4429" y="437.4727"/><rect fill="#FFFFFF" height="59.291" style="stroke:#181818;stroke-width:1.0;" width="10" x="1896.3906" y="482.7637"/><rect fill="#FFFFFF" height="14" style="stroke:#181818;stroke-width:1.0;" width="10" x="2028.0591" y="514.0547"/><polygon fill="#181818" points="427.2456,152.5332,437.2456,156.5332,427.2456,160.5332,431.2456,156.5332" style="stroke:#181818;stroke-width:1.0;"/><line style="stroke:#181818;stroke-width:1.0;" x1="60.4688" x2="433.2456" y1="156.5332" y2="156.5332"/><text fill="#000000" font-family="sans-serif" font-size="13" lengthAdjust="spacing" textLength="39.0063" x="67.4688" y="151.2705">show()</text><polygon fill="#181818" points="689.7944,183.8242,699.7944,187.8242,689.7944,191.8242,693.7944,187.8242" style="stroke:#181818;stroke-width:1.0;"/><line style="stroke:#181818;stroke-width:1.0;" x1="449.2456" x2="695.7944" y1="187.8242" y2="187.8242"/><text fill="#000000" font-family="sans-serif" font-size="13" lengthAdjust="spacing" textLength="44.7891" x="456.2456" y="182.5615">create()</text><rect fill="#E2E2F0" height="51.2422" rx="2.5" ry="2.5" style="stroke:#181818;stroke-width:0.5;" width="196.0889" x="701.7944" y="164.5332"/><text fill="#000000" font-family="sans-serif" font-size="14" font-style="italic" lengthAdjust="spacing" textLength="82.5098" x="758.584" y="186.6406">&#171;application&#187;</text><text fill="#000000" font-family="sans-serif" font-size="14" lengthAdjust="spacing" textLength="182.0889" x="708.7944" y="205.2617">AddFigureCategoryController</text><polygon fill="#181818" points="71.4688,246.0664,61.4688,250.0664,71.4688,254.0664,67.4688,250.0664" style="stroke:#181818;stroke-width:1.0;"/><line style="stroke:#181818;stroke-width:1.0;stroke-dasharray:2.0,2.0;" x1="65.4688" x2="443.2456" y1="250.0664" y2="250.0664"/><text fill="#000000" font-family="sans-serif" font-size="13" lengthAdjust="spacing" textLength="354.7769" x="77.4688" y="244.8037">Request FigureCategory data (figureName, figureDescription)</text><polygon fill="#181818" points="427.2456,277.3574,437.2456,281.3574,427.2456,285.3574,431.2456,281.3574" style="stroke:#181818;stroke-width:1.0;"/><line style="stroke:#181818;stroke-width:1.0;" x1="60.4688" x2="433.2456" y1="281.3574" y2="281.3574"/><text fill="#000000" font-family="sans-serif" font-size="13" lengthAdjust="spacing" textLength="154.6353" x="67.4688" y="276.0947">Insert FigureCategory data</text><polygon fill="#181818" points="782.8389,308.6484,792.8389,312.6484,782.8389,316.6484,786.8389,312.6484" style="stroke:#181818;stroke-width:1.0;"/><line style="stroke:#181818;stroke-width:1.0;" x1="449.2456" x2="788.8389" y1="312.6484" y2="312.6484"/><text fill="#000000" font-family="sans-serif" font-size="13" lengthAdjust="spacing" textLength="326.5933" x="456.2456" y="307.3857">addFigureCategory(categoryName, categoryDescription)</text><polygon fill="#181818" points="1031.4404,339.9395,1041.4404,343.9395,1031.4404,347.9395,1035.4404,343.9395" style="stroke:#181818;stroke-width:1.0;"/><line style="stroke:#181818;stroke-width:1.0;" x1="804.8389" x2="1037.4404" y1="343.9395" y2="343.9395"/><text fill="#000000" font-family="sans-serif" font-size="13" lengthAdjust="spacing" textLength="214.6016" x="811.8389" y="338.6768">ensureAuthenticatedUserHasAnyOf()</text><rect fill="#E2E2F0" height="51.2422" rx="2.5" ry="2.5" style="stroke:#181818;stroke-width:0.5;" width="142.3994" x="1043.4404" y="320.6484"/><text fill="#000000" font-family="sans-serif" font-size="14" font-style="italic" lengthAdjust="spacing" textLength="42.8203" x="1093.23" y="342.7559">&#171;auth&#187;</text><text fill="#000000" font-family="sans-serif" font-size="14" lengthAdjust="spacing" textLength="128.3994" x="1050.4404" y="361.377">AuthorizationService</text><polygon fill="#181818" points="1298.2842,402.1816,1308.2842,406.1816,1298.2842,410.1816,1302.2842,406.1816" style="stroke:#181818;stroke-width:1.0;"/><line style="stroke:#181818;stroke-width:1.0;" x1="804.8389" x2="1304.2842" y1="406.1816" y2="406.1816"/><text fill="#000000" font-family="sans-serif" font-size="13" lengthAdjust="spacing" textLength="343.186" x="811.8389" y="400.9189">registerNewFigureCategory(figureName, figureDescription);</text><polygon fill="#181818" points="1730.4429,433.4727,1740.4429,437.4727,1730.4429,441.4727,1734.4429,437.4727" style="stroke:#181818;stroke-width:1.0;"/><line style="stroke:#181818;stroke-width:1.0;" x1="1320.2842" x2="1736.4429" y1="437.4727" y2="437.4727"/><text fill="#000000" font-family="sans-serif" font-size="13" lengthAdjust="spacing" textLength="403.1587" x="1327.2842" y="432.21">new FigureCategory(name, description, CurrentTimeCalendars.now())</text><polygon fill="#181818" points="1331.2842,447.4727,1321.2842,451.4727,1331.2842,455.4727,1327.2842,451.4727" style="stroke:#181818;stroke-width:1.0;"/><line style="stroke:#181818;stroke-width:1.0;stroke-dasharray:2.0,2.0;" x1="1325.2842" x2="1746.4429" y1="451.4727" y2="451.4727"/><polygon fill="#181818" points="1884.3906,478.7637,1894.3906,482.7637,1884.3906,486.7637,1888.3906,482.7637" style="stroke:#181818;stroke-width:1.0;"/><line style="stroke:#181818;stroke-width:1.0;" x1="1320.2842" x2="1890.3906" y1="482.7637" y2="482.7637"/><text fill="#000000" font-family="sans-serif" font-size="13" lengthAdjust="spacing" textLength="149.5635" x="1327.2842" y="477.501">save(newFigureCategory)</text><polygon fill="#181818" points="2016.0591,510.0547,2026.0591,514.0547,2016.0591,518.0547,2020.0591,514.0547" style="stroke:#181818;stroke-width:1.0;"/><line style="stroke:#181818;stroke-width:1.0;" x1="1906.3906" x2="2022.0591" y1="514.0547" y2="514.0547"/><text fill="#000000" font-family="sans-serif" font-size="13" lengthAdjust="spacing" textLength="36.1182" x="1913.3906" y="508.792">save()</text><polygon fill="#181818" points="1917.3906,524.0547,1907.3906,528.0547,1917.3906,532.0547,1913.3906,528.0547" style="stroke:#181818;stroke-width:1.0;"/><line style="stroke:#181818;stroke-width:1.0;stroke-dasharray:2.0,2.0;" x1="1911.3906" x2="2032.0591" y1="528.0547" y2="528.0547"/><polygon fill="#181818" points="1331.2842,538.0547,1321.2842,542.0547,1331.2842,546.0547,1327.2842,542.0547" style="stroke:#181818;stroke-width:1.0;"/><line style="stroke:#181818;stroke-width:1.0;stroke-dasharray:2.0,2.0;" x1="1325.2842" x2="1900.3906" y1="542.0547" y2="542.0547"/><polygon fill="#181818" points="815.8389,552.0547,805.8389,556.0547,815.8389,560.0547,811.8389,556.0547" style="stroke:#181818;stroke-width:1.0;"/><line style="stroke:#181818;stroke-width:1.0;stroke-dasharray:2.0,2.0;" x1="809.8389" x2="1314.2842" y1="556.0547" y2="556.0547"/><polygon fill="#181818" points="460.2456,566.0547,450.2456,570.0547,460.2456,574.0547,456.2456,570.0547" style="stroke:#181818;stroke-width:1.0;"/><line style="stroke:#181818;stroke-width:1.0;stroke-dasharray:2.0,2.0;" x1="454.2456" x2="798.8389" y1="570.0547" y2="570.0547"/><polygon fill="#181818" points="66.4688,597.3457,56.4688,601.3457,66.4688,605.3457,62.4688,601.3457" style="stroke:#181818;stroke-width:1.0;"/><line style="stroke:#181818;stroke-width:1.0;stroke-dasharray:2.0,2.0;" x1="60.4688" x2="443.2456" y1="601.3457" y2="601.3457"/><text fill="#000000" font-family="sans-serif" font-size="13" lengthAdjust="spacing" textLength="145.2344" x="72.4688" y="596.083">Inform operation success</text><!--SRC=[hPNDZXen3CVlUGgB4wns-m1qXOH0LJbqAotb0T8PCnjf9faw0RHz-Ze1veimsKgR2vEny_Sljl4uvKg4BVuveCuGraeM92iXPEOCmMJxPawmHgiAZJG1QM7f3QAMv5IcQgaTJ9Pv_aqL1yALT5WOUjzjWkjk0y_FDQ55xQHJHYyMYOChensPihp4QhSi9EkwL5bSv-3U3Ac_mRX5EgeCpx0HWvVYrqEDFiWFgMM15ODtvH8-uv3zmn4zFfwRIgh4oLUiZLKkhj4QMOsQ3IlcqidVqY9CrfUdSFow2HLNHvQvL5Y47tXQS1ddOBaFfZC1l1g_tKO8BZ5xj7LwU80vP8HiP_TWPdkGciEhxpBhXjVsP33TXvSlii97E3zpssMaQfzBbign5xX7jz4MAQehn2qpNDQGdSdbi26dsUNX37RTzT2Wivf0hQpeEVZL2UcJ4-dHa4RKbacycLlCDnNcExxdTscN-ltdtkTtgDn9KamsXPBgxpaG5iewf1Sy3H8rNh-lDv4Rq4HGSGljLmhrvZOCh_4qU3dLWJTlIHzXTI1YeL-gOhSITIx9Vj6-_MTHaZiNYMFVeeS_I2e7CPbEhOUHFoTZdLd20q0USQg7LP-9_qb9AtW_EH7K3WSpNWVMbMasBjMWj8CE4gk9y3IIad6LJcq-6FV-bJ-xFL9LIFP9RsYA3yUD_BF7fb4OxUAESYH-zrC3_fEmDrI1gP7210Hxo3AqLaJKE4vtS8RFtpy0]--></g></svg>