<svg xmlns="http://www.w3.org/2000/svg" xmlns:xlink="http://www.w3.org/1999/xlink" contentStyleType="text/css" height="875px" preserveAspectRatio="none" style="width:2261px;height:875px;background:#FFFFFF;" version="1.1" viewBox="0 0 2261 875" width="2261px" zoomAndPan="magnify"><title>Sequence Diagram</title><defs/><g><text fill="#000000" font-family="sans-serif" font-size="14" font-weight="bold" lengthAdjust="spacing" textLength="126.0479" x="1068.5376" y="30.1074">Sequence Diagram</text><rect fill="#FFFFFF" height="641.1699" style="stroke:#181818;stroke-width:1.0;" width="10" x="50.4688" y="133.2422"/><rect fill="#FFFFFF" height="93.5332" style="stroke:#181818;stroke-width:1.0;" width="10" x="439.2456" y="156.5332"/><rect fill="#FFFFFF" height="493.0547" style="stroke:#181818;stroke-width:1.0;" width="10" x="439.2456" y="281.3574"/><rect fill="#FFFFFF" height="430.4727" style="stroke:#181818;stroke-width:1.0;" width="10" x="760.1553" y="312.6484"/><rect fill="#FFFFFF" height="322.9395" style="stroke:#181818;stroke-width:1.0;" width="10" x="1275.6006" y="406.1816"/><rect fill="#FFFFFF" height="124.8242" style="stroke:#181818;stroke-width:1.0;" width="10" x="1482.0791" y="499.7148"/><rect fill="#FFFFFF" height="52.2422" style="stroke:#181818;stroke-width:1.0;" width="10" x="1935.5415" y="541.0059"/><rect fill="#FFFFFF" height="59.291" style="stroke:#181818;stroke-width:1.0;" width="10" x="2089.4893" y="655.8301"/><rect fill="#FFFFFF" height="14" style="stroke:#181818;stroke-width:1.0;" width="10" x="2221.1577" y="687.1211"/><line style="stroke:#181818;stroke-width:0.5;stroke-dasharray:5.0,5.0;" x1="55" x2="55" y1="123.2422" y2="792.4121"/><line style="stroke:#181818;stroke-width:0.5;stroke-dasharray:5.0,5.0;" x1="443.5459" x2="443.5459" y1="123.2422" y2="792.4121"/><line style="stroke:#181818;stroke-width:0.5;stroke-dasharray:5.0,5.0;" x1="765.1108" x2="765.1108" y1="205.6543" y2="792.4121"/><line style="stroke:#181818;stroke-width:0.5;stroke-dasharray:5.0,5.0;" x1="1079.7568" x2="1079.7568" y1="361.7695" y2="792.4121"/><line style="stroke:#181818;stroke-width:0.5;stroke-dasharray:5.0,5.0;" x1="1280.1563" x2="1280.1563" y1="123.2422" y2="792.4121"/><line style="stroke:#181818;stroke-width:0.5;stroke-dasharray:5.0,5.0;" x1="1487.0449" x2="1487.0449" y1="455.3027" y2="792.4121"/><line style="stroke:#181818;stroke-width:0.5;stroke-dasharray:5.0,5.0;" x1="1940.2969" x2="1940.2969" y1="548.8359" y2="792.4121"/><line style="stroke:#181818;stroke-width:0.5;stroke-dasharray:5.0,5.0;" x1="2093.7861" x2="2093.7861" y1="123.2422" y2="792.4121"/><line style="stroke:#181818;stroke-width:0.5;stroke-dasharray:5.0,5.0;" x1="2225.1924" x2="2225.1924" y1="123.2422" y2="792.4121"/><text fill="#000000" font-family="sans-serif" font-size="14" lengthAdjust="spacing" textLength="94.9375" x="5" y="119.7285">Show Designer</text><ellipse cx="55.4688" cy="53.1211" fill="#E2E2F0" rx="8" ry="8" style="stroke:#181818;stroke-width:0.5;"/><path d="M55.4688,61.1211 L55.4688,88.1211 M42.4688,69.1211 L68.4688,69.1211 M55.4688,88.1211 L42.4688,103.1211 M55.4688,88.1211 L68.4688,103.1211 " fill="none" style="stroke:#181818;stroke-width:0.5;"/><text fill="#000000" font-family="sans-serif" font-size="14" lengthAdjust="spacing" textLength="94.9375" x="5" y="806.5195">Show Designer</text><ellipse cx="55.4688" cy="818.5332" fill="#E2E2F0" rx="8" ry="8" style="stroke:#181818;stroke-width:0.5;"/><path d="M55.4688,826.5332 L55.4688,853.5332 M42.4688,834.5332 L68.4688,834.5332 M55.4688,853.5332 L42.4688,868.5332 M55.4688,853.5332 L68.4688,868.5332 " fill="none" style="stroke:#181818;stroke-width:0.5;"/><rect fill="#E2E2F0" height="51.2422" rx="2.5" ry="2.5" style="stroke:#181818;stroke-width:0.5;" width="149.3994" x="369.5459" y="71"/><text fill="#000000" font-family="sans-serif" font-size="14" font-style="italic" lengthAdjust="spacing" textLength="92.627" x="397.9321" y="93.1074">&#171;presentation&#187;</text><text fill="#000000" font-family="sans-serif" font-size="14" lengthAdjust="spacing" textLength="135.3994" x="376.5459" y="111.7285">AddFigureCategoryUI</text><rect fill="#E2E2F0" height="51.2422" rx="2.5" ry="2.5" style="stroke:#181818;stroke-width:0.5;" width="149.3994" x="369.5459" y="791.4121"/><text fill="#000000" font-family="sans-serif" font-size="14" font-style="italic" lengthAdjust="spacing" textLength="92.627" x="397.9321" y="813.5195">&#171;presentation&#187;</text><text fill="#000000" font-family="sans-serif" font-size="14" lengthAdjust="spacing" textLength="135.3994" x="376.5459" y="832.1406">AddFigureCategoryUI</text><rect fill="#E2E2F0" height="51.2422" rx="2.5" ry="2.5" style="stroke:#181818;stroke-width:0.5;" width="196.0889" x="667.1108" y="791.4121"/><text fill="#000000" font-family="sans-serif" font-size="14" font-style="italic" lengthAdjust="spacing" textLength="82.5098" x="723.9004" y="813.5195">&#171;application&#187;</text><text fill="#000000" font-family="sans-serif" font-size="14" lengthAdjust="spacing" textLength="182.0889" x="674.1108" y="832.1406">AddFigureCategoryController</text><rect fill="#E2E2F0" height="51.2422" rx="2.5" ry="2.5" style="stroke:#181818;stroke-width:0.5;" width="142.3994" x="1008.7568" y="791.4121"/><text fill="#000000" font-family="sans-serif" font-size="14" font-style="italic" lengthAdjust="spacing" textLength="42.8203" x="1058.5464" y="813.5195">&#171;auth&#187;</text><text fill="#000000" font-family="sans-serif" font-size="14" lengthAdjust="spacing" textLength="128.3994" x="1015.7568" y="832.1406">AuthorizationService</text><rect fill="#E2E2F0" height="51.2422" rx="2.5" ry="2.5" style="stroke:#181818;stroke-width:0.5;" width="238.8887" x="1161.1563" y="71"/><text fill="#000000" font-family="sans-serif" font-size="14" font-style="italic" lengthAdjust="spacing" textLength="82.5098" x="1239.3457" y="93.1074">&#171;application&#187;</text><text fill="#000000" font-family="sans-serif" font-size="14" lengthAdjust="spacing" textLength="224.8887" x="1168.1563" y="111.7285">FigureCategoryManagementService</text><rect fill="#E2E2F0" height="51.2422" rx="2.5" ry="2.5" style="stroke:#181818;stroke-width:0.5;" width="238.8887" x="1161.1563" y="791.4121"/><text fill="#000000" font-family="sans-serif" font-size="14" font-style="italic" lengthAdjust="spacing" textLength="82.5098" x="1239.3457" y="813.5195">&#171;application&#187;</text><text fill="#000000" font-family="sans-serif" font-size="14" lengthAdjust="spacing" textLength="224.8887" x="1168.1563" y="832.1406">FigureCategoryManagementService</text><rect fill="#E2E2F0" height="51.2422" rx="2.5" ry="2.5" style="stroke:#181818;stroke-width:0.5;" width="154.0684" x="1410.0449" y="791.4121"/><text fill="#000000" font-family="sans-serif" font-size="14" font-style="italic" lengthAdjust="spacing" textLength="61.4893" x="1456.3345" y="813.5195">&#171;domain&#187;</text><text fill="#000000" font-family="sans-serif" font-size="14" lengthAdjust="spacing" textLength="140.0684" x="1417.0449" y="832.1406">FigureCategoryBuilder</text><rect fill="#E2E2F0" height="51.2422" rx="2.5" ry="2.5" style="stroke:#181818;stroke-width:0.5;" width="110.4893" x="1885.2969" y="791.4121"/><text fill="#000000" font-family="sans-serif" font-size="14" font-style="italic" lengthAdjust="spacing" textLength="61.4893" x="1909.7969" y="813.5195">&#171;domain&#187;</text><text fill="#000000" font-family="sans-serif" font-size="14" lengthAdjust="spacing" textLength="96.4893" x="1892.2969" y="832.1406">FigureCategory</text><rect fill="#E2E2F0" height="51.2422" rx="2.5" ry="2.5" style="stroke:#181818;stroke-width:0.5;" width="177.4063" x="2005.7861" y="71"/><text fill="#000000" font-family="sans-serif" font-size="14" font-style="italic" lengthAdjust="spacing" textLength="77.041" x="2055.9688" y="93.1074">&#171;repository&#187;</text><text fill="#000000" font-family="sans-serif" font-size="14" lengthAdjust="spacing" textLength="163.4063" x="2012.7861" y="111.7285">FigureCategoryRepository</text><rect fill="#E2E2F0" height="51.2422" rx="2.5" ry="2.5" style="stroke:#181818;stroke-width:0.5;" width="177.4063" x="2005.7861" y="791.4121"/><text fill="#000000" font-family="sans-serif" font-size="14" font-style="italic" lengthAdjust="spacing" textLength="77.041" x="2055.9688" y="813.5195">&#171;repository&#187;</text><text fill="#000000" font-family="sans-serif" font-size="14" lengthAdjust="spacing" textLength="163.4063" x="2012.7861" y="832.1406">FigureCategoryRepository</text><text fill="#000000" font-family="sans-serif" font-size="14" lengthAdjust="spacing" textLength="59.9307" x="2193.1924" y="119.7285">Database</text><path d="M2208.1577,68.6211 C2208.1577,58.6211 2226.1577,58.6211 2226.1577,58.6211 C2226.1577,58.6211 2244.1577,58.6211 2244.1577,68.6211 L2244.1577,94.6211 C2244.1577,104.6211 2226.1577,104.6211 2226.1577,104.6211 C2226.1577,104.6211 2208.1577,104.6211 2208.1577,94.6211 L2208.1577,68.6211 " fill="#E2E2F0" style="stroke:#181818;stroke-width:1.5;"/><path d="M2208.1577,68.6211 C2208.1577,78.6211 2226.1577,78.6211 2226.1577,78.6211 C2226.1577,78.6211 2244.1577,78.6211 2244.1577,68.6211 " fill="none" style="stroke:#181818;stroke-width:1.5;"/><text fill="#000000" font-family="sans-serif" font-size="14" lengthAdjust="spacing" textLength="59.9307" x="2193.1924" y="806.5195">Database</text><path d="M2208.1577,820.0332 C2208.1577,810.0332 2226.1577,810.0332 2226.1577,810.0332 C2226.1577,810.0332 2244.1577,810.0332 2244.1577,820.0332 L2244.1577,846.0332 C2244.1577,856.0332 2226.1577,856.0332 2226.1577,856.0332 C2226.1577,856.0332 2208.1577,856.0332 2208.1577,846.0332 L2208.1577,820.0332 " fill="#E2E2F0" style="stroke:#181818;stroke-width:1.5;"/><path d="M2208.1577,820.0332 C2208.1577,830.0332 2226.1577,830.0332 2226.1577,830.0332 C2226.1577,830.0332 2244.1577,830.0332 2244.1577,820.0332 " fill="none" style="stroke:#181818;stroke-width:1.5;"/><rect fill="#FFFFFF" height="641.1699" style="stroke:#181818;stroke-width:1.0;" width="10" x="50.4688" y="133.2422"/><rect fill="#FFFFFF" height="93.5332" style="stroke:#181818;stroke-width:1.0;" width="10" x="439.2456" y="156.5332"/><rect fill="#FFFFFF" height="493.0547" style="stroke:#181818;stroke-width:1.0;" width="10" x="439.2456" y="281.3574"/><rect fill="#FFFFFF" height="430.4727" style="stroke:#181818;stroke-width:1.0;" width="10" x="760.1553" y="312.6484"/><rect fill="#FFFFFF" height="322.9395" style="stroke:#181818;stroke-width:1.0;" width="10" x="1275.6006" y="406.1816"/><rect fill="#FFFFFF" height="124.8242" style="stroke:#181818;stroke-width:1.0;" width="10" x="1482.0791" y="499.7148"/><rect fill="#FFFFFF" height="52.2422" style="stroke:#181818;stroke-width:1.0;" width="10" x="1935.5415" y="541.0059"/><rect fill="#FFFFFF" height="59.291" style="stroke:#181818;stroke-width:1.0;" width="10" x="2089.4893" y="655.8301"/><rect fill="#FFFFFF" height="14" style="stroke:#181818;stroke-width:1.0;" width="10" x="2221.1577" y="687.1211"/><polygon fill="#181818" points="427.2456,152.5332,437.2456,156.5332,427.2456,160.5332,431.2456,156.5332" style="stroke:#181818;stroke-width:1.0;"/><line style="stroke:#181818;stroke-width:1.0;" x1="60.4688" x2="433.2456" y1="156.5332" y2="156.5332"/><text fill="#000000" font-family="sans-serif" font-size="13" lengthAdjust="spacing" textLength="39.0063" x="67.4688" y="151.2705">show()</text><polygon fill="#181818" points="655.1108,183.8242,665.1108,187.8242,655.1108,191.8242,659.1108,187.8242" style="stroke:#181818;stroke-width:1.0;"/><line style="stroke:#181818;stroke-width:1.0;" x1="449.2456" x2="661.1108" y1="187.8242" y2="187.8242"/><text fill="#000000" font-family="sans-serif" font-size="13" lengthAdjust="spacing" textLength="44.7891" x="456.2456" y="182.5615">create()</text><rect fill="#E2E2F0" height="51.2422" rx="2.5" ry="2.5" style="stroke:#181818;stroke-width:0.5;" width="196.0889" x="667.1108" y="164.5332"/><text fill="#000000" font-family="sans-serif" font-size="14" font-style="italic" lengthAdjust="spacing" textLength="82.5098" x="723.9004" y="186.6406">&#171;application&#187;</text><text fill="#000000" font-family="sans-serif" font-size="14" lengthAdjust="spacing" textLength="182.0889" x="674.1108" y="205.2617">AddFigureCategoryController</text><polygon fill="#181818" points="71.4688,246.0664,61.4688,250.0664,71.4688,254.0664,67.4688,250.0664" style="stroke:#181818;stroke-width:1.0;"/><line style="stroke:#181818;stroke-width:1.0;stroke-dasharray:2.0,2.0;" x1="65.4688" x2="443.2456" y1="250.0664" y2="250.0664"/><text fill="#000000" font-family="sans-serif" font-size="13" lengthAdjust="spacing" textLength="354.7769" x="77.4688" y="244.8037">Request FigureCategory data (figureName, figureDescription)</text><polygon fill="#181818" points="427.2456,277.3574,437.2456,281.3574,427.2456,285.3574,431.2456,281.3574" style="stroke:#181818;stroke-width:1.0;"/><line style="stroke:#181818;stroke-width:1.0;" x1="60.4688" x2="433.2456" y1="281.3574" y2="281.3574"/><text fill="#000000" font-family="sans-serif" font-size="13" lengthAdjust="spacing" textLength="154.6353" x="67.4688" y="276.0947">Insert FigureCategory data</text><polygon fill="#181818" points="748.1553,308.6484,758.1553,312.6484,748.1553,316.6484,752.1553,312.6484" style="stroke:#181818;stroke-width:1.0;"/><line style="stroke:#181818;stroke-width:1.0;" x1="449.2456" x2="754.1553" y1="312.6484" y2="312.6484"/><text fill="#000000" font-family="sans-serif" font-size="13" lengthAdjust="spacing" textLength="291.9097" x="456.2456" y="307.3857">addFigureCategory(figureName, figureDescription)</text><polygon fill="#181818" points="996.7568,339.9395,1006.7568,343.9395,996.7568,347.9395,1000.7568,343.9395" style="stroke:#181818;stroke-width:1.0;"/><line style="stroke:#181818;stroke-width:1.0;" x1="770.1553" x2="1002.7568" y1="343.9395" y2="343.9395"/><text fill="#000000" font-family="sans-serif" font-size="13" lengthAdjust="spacing" textLength="214.6016" x="777.1553" y="338.6768">ensureAuthenticatedUserHasAnyOf()</text><rect fill="#E2E2F0" height="51.2422" rx="2.5" ry="2.5" style="stroke:#181818;stroke-width:0.5;" width="142.3994" x="1008.7568" y="320.6484"/><text fill="#000000" font-family="sans-serif" font-size="14" font-style="italic" lengthAdjust="spacing" textLength="42.8203" x="1058.5464" y="342.7559">&#171;auth&#187;</text><text fill="#000000" font-family="sans-serif" font-size="14" lengthAdjust="spacing" textLength="128.3994" x="1015.7568" y="361.377">AuthorizationService</text><polygon fill="#181818" points="1263.6006,402.1816,1273.6006,406.1816,1263.6006,410.1816,1267.6006,406.1816" style="stroke:#181818;stroke-width:1.0;"/><line style="stroke:#181818;stroke-width:1.0;" x1="770.1553" x2="1269.6006" y1="406.1816" y2="406.1816"/><text fill="#000000" font-family="sans-serif" font-size="13" lengthAdjust="spacing" textLength="411.1123" x="777.1553" y="400.9189">registerNewFigureCategory(figureName, figureDescription, createdOn);</text><polygon fill="#181818" points="1398.0449,433.4727,1408.0449,437.4727,1398.0449,441.4727,1402.0449,437.4727" style="stroke:#181818;stroke-width:1.0;"/><line style="stroke:#181818;stroke-width:1.0;" x1="1285.6006" x2="1404.0449" y1="437.4727" y2="437.4727"/><text fill="#000000" font-family="sans-serif" font-size="13" lengthAdjust="spacing" textLength="44.7891" x="1292.6006" y="432.21">create()</text><rect fill="#E2E2F0" height="51.2422" rx="2.5" ry="2.5" style="stroke:#181818;stroke-width:0.5;" width="154.0684" x="1410.0449" y="414.1816"/><text fill="#000000" font-family="sans-serif" font-size="14" font-style="italic" lengthAdjust="spacing" textLength="61.4893" x="1456.3345" y="436.2891">&#171;domain&#187;</text><text fill="#000000" font-family="sans-serif" font-size="14" lengthAdjust="spacing" textLength="140.0684" x="1417.0449" y="454.9102">FigureCategoryBuilder</text><polygon fill="#181818" points="1470.0791,495.7148,1480.0791,499.7148,1470.0791,503.7148,1474.0791,499.7148" style="stroke:#181818;stroke-width:1.0;"/><line style="stroke:#181818;stroke-width:1.0;" x1="1285.6006" x2="1476.0791" y1="499.7148" y2="499.7148"/><text fill="#000000" font-family="sans-serif" font-size="13" lengthAdjust="spacing" textLength="36.1245" x="1292.6006" y="494.4521">build()</text><polygon fill="#181818" points="1873.2969,527.0059,1883.2969,531.0059,1873.2969,535.0059,1877.2969,531.0059" style="stroke:#181818;stroke-width:1.0;"/><line style="stroke:#181818;stroke-width:1.0;" x1="1492.0791" x2="1879.2969" y1="531.0059" y2="531.0059"/><text fill="#000000" font-family="sans-serif" font-size="13" lengthAdjust="spacing" textLength="369.2178" x="1499.0791" y="525.7432">new FigureCategory(figureName, figureDescription, createdOn);</text><rect fill="#E2E2F0" height="51.2422" rx="2.5" ry="2.5" style="stroke:#181818;stroke-width:0.5;" width="110.4893" x="1885.2969" y="507.7148"/><text fill="#000000" font-family="sans-serif" font-size="14" font-style="italic" lengthAdjust="spacing" textLength="61.4893" x="1909.7969" y="529.8223">&#171;domain&#187;</text><text fill="#000000" font-family="sans-serif" font-size="14" lengthAdjust="spacing" textLength="96.4893" x="1892.2969" y="548.4434">FigureCategory</text><polygon fill="#181818" points="1503.0791,589.248,1493.0791,593.248,1503.0791,597.248,1499.0791,593.248" style="stroke:#181818;stroke-width:1.0;"/><line style="stroke:#181818;stroke-width:1.0;stroke-dasharray:2.0,2.0;" x1="1497.0791" x2="1939.5415" y1="593.248" y2="593.248"/><text fill="#000000" font-family="sans-serif" font-size="13" lengthAdjust="spacing" textLength="113.4453" x="1509.0791" y="587.9854">newFigureCategory</text><polygon fill="#181818" points="1296.6006,620.5391,1286.6006,624.5391,1296.6006,628.5391,1292.6006,624.5391" style="stroke:#181818;stroke-width:1.0;"/><line style="stroke:#181818;stroke-width:1.0;stroke-dasharray:2.0,2.0;" x1="1290.6006" x2="1486.0791" y1="624.5391" y2="624.5391"/><text fill="#000000" font-family="sans-serif" font-size="13" lengthAdjust="spacing" textLength="113.4453" x="1302.6006" y="619.2764">newFigureCategory</text><polygon fill="#181818" points="2077.4893,651.8301,2087.4893,655.8301,2077.4893,659.8301,2081.4893,655.8301" style="stroke:#181818;stroke-width:1.0;"/><line style="stroke:#181818;stroke-width:1.0;" x1="1285.6006" x2="2083.4893" y1="655.8301" y2="655.8301"/><text fill="#000000" font-family="sans-serif" font-size="13" lengthAdjust="spacing" textLength="149.5635" x="1292.6006" y="650.5674">save(newFigureCategory)</text><polygon fill="#181818" points="2209.1577,683.1211,2219.1577,687.1211,2209.1577,691.1211,2213.1577,687.1211" style="stroke:#181818;stroke-width:1.0;"/><line style="stroke:#181818;stroke-width:1.0;" x1="2099.4893" x2="2215.1577" y1="687.1211" y2="687.1211"/><text fill="#000000" font-family="sans-serif" font-size="13" lengthAdjust="spacing" textLength="36.1182" x="2106.4893" y="681.8584">save()</text><polygon fill="#181818" points="2110.4893,697.1211,2100.4893,701.1211,2110.4893,705.1211,2106.4893,701.1211" style="stroke:#181818;stroke-width:1.0;"/><line style="stroke:#181818;stroke-width:1.0;stroke-dasharray:2.0,2.0;" x1="2104.4893" x2="2225.1577" y1="701.1211" y2="701.1211"/><polygon fill="#181818" points="1296.6006,711.1211,1286.6006,715.1211,1296.6006,719.1211,1292.6006,715.1211" style="stroke:#181818;stroke-width:1.0;"/><line style="stroke:#181818;stroke-width:1.0;stroke-dasharray:2.0,2.0;" x1="1290.6006" x2="2093.4893" y1="715.1211" y2="715.1211"/><polygon fill="#181818" points="781.1553,725.1211,771.1553,729.1211,781.1553,733.1211,777.1553,729.1211" style="stroke:#181818;stroke-width:1.0;"/><line style="stroke:#181818;stroke-width:1.0;stroke-dasharray:2.0,2.0;" x1="775.1553" x2="1279.6006" y1="729.1211" y2="729.1211"/><polygon fill="#181818" points="460.2456,739.1211,450.2456,743.1211,460.2456,747.1211,456.2456,743.1211" style="stroke:#181818;stroke-width:1.0;"/><line style="stroke:#181818;stroke-width:1.0;stroke-dasharray:2.0,2.0;" x1="454.2456" x2="764.1553" y1="743.1211" y2="743.1211"/><polygon fill="#181818" points="66.4688,770.4121,56.4688,774.4121,66.4688,778.4121,62.4688,774.4121" style="stroke:#181818;stroke-width:1.0;"/><line style="stroke:#181818;stroke-width:1.0;stroke-dasharray:2.0,2.0;" x1="60.4688" x2="443.2456" y1="774.4121" y2="774.4121"/><text fill="#000000" font-family="sans-serif" font-size="13" lengthAdjust="spacing" textLength="145.2344" x="72.4688" y="769.1494">Inform operation success</text><!--SRC=[hPR1Rk8m48RlVeeH9q3b1TWAYIrQBOTjfI8Um4s6r18uMTk0ka-_OpSaJkB4eQel98pzp-VndqoCC4U47VuzeqmGDe9dYfyOuud95Knsx_aLDgX59b5DW6jOsm0hk38Y4GMN1YRhDFqbihF29sumozN7VkkcxhVm-5Wer2WDDoANgrLauLCkZSgFnp9NVKj2l2YE8WdhdCrxhiG_5zoXkeW4Fs430Ij5VxSrcY1_kEGPdWZSbulC6OPiBlvv5iUqt6OmGc9fVk8YeXCG6Bdo5OjS2nFMg8EafgeRKaovuMzS8qmsvPLRVhjnpX4NaYcTmjmFB5PaXoLeyjDqne16DM-_POoiGZFgyvxFOGc9GehJT1Uck9DQmgjrgpRjRLioc1xSdy_yX0_mUKtsJPGex9cGL8gDn0swhTIeWhgCTPcX76rs8kTjOyUmm1jLabgIDIROuQMpXGdut9KGfQPKDamsjSR4T4zx_CtrMdwy76njsyfUWKAoCPJOCx84XPdG1jKpNkyfqaFfX_H5pdvq82hcIFuklXqnwCw-oeUqQTFlL2RTDtlL8zkptN9nU9DTd5kk3iHylWI9L_Zw-VGIzA4Fh6WzZuk1cicsf_fLFP-F9kchtoZVTzdONLpLuNwFqRnNFBsN-GMd7S0PkyTyjU1G1Jke7WSntlh8ZMasB5MXrFq78gFAi1WeoR2ATqGZy_PlEMwT-rmIEuMeJngzZ8tEE-9DwpSArt5PZt8Wl_y50BPJ7t9rWhn0vPeJw7EIeDOie4Pv_9xclah-0m00]--></g></svg>