<?xml version="1.0" encoding="us-ascii" standalone="no"?><svg xmlns="http://www.w3.org/2000/svg" xmlns:xlink="http://www.w3.org/1999/xlink" contentStyleType="text/css" height="62px" preserveAspectRatio="none" style="width:131px;height:62px;background:#FFFFFF;" version="1.1" viewBox="0 0 131 62" width="131px" zoomAndPan="magnify"><defs/><g><!--class A--><g id="elem_A"><rect codeLine="2" fill="#F1F1F1" height="48" id="A" rx="2.5" ry="2.5" style="stroke:#181818;stroke-width:0.5;" width="41" x="7" y="7"/><ellipse cx="22" cy="23" fill="#ADD1B2" rx="11" ry="11" style="stroke:#181818;stroke-width:1.0;"/><path d="M24.7656,18.875 Q24.9219,18.6563 25.1094,18.5469 Q25.2969,18.4375 25.5156,18.4375 Q25.8906,18.4375 26.125,18.7031 Q26.3594,18.9531 26.3594,19.5625 L26.3594,21.0156 Q26.3594,21.625 26.125,21.8906 Q25.8906,22.1563 25.5156,22.1563 Q25.1719,22.1563 24.9688,21.9531 Q24.7656,21.7656 24.6563,21.25 Q24.6094,20.8906 24.4219,20.7031 Q24.0938,20.3281 23.4844,20.1094 Q22.875,19.8906 22.25,19.8906 Q21.4844,19.8906 20.8438,20.2188 Q20.2188,20.5469 19.7188,21.2969 Q19.2344,22.0469 19.2344,23.0781 L19.2344,24.1719 Q19.2344,25.4063 20.125,26.2344 Q21.0156,27.0469 22.6094,27.0469 Q23.5469,27.0469 24.2031,26.7969 Q24.5938,26.6406 25.0156,26.2031 Q25.2813,25.9375 25.4219,25.8594 Q25.5781,25.7813 25.7813,25.7813 Q26.1094,25.7813 26.3594,26.0469 Q26.625,26.2969 26.625,26.6406 Q26.625,26.9844 26.2813,27.3906 Q25.7813,27.9688 24.9844,28.2969 Q23.9063,28.75 22.6094,28.75 Q21.0938,28.75 19.8906,28.125 Q18.9063,27.625 18.2188,26.5625 Q17.5313,25.4844 17.5313,24.2031 L17.5313,23.0469 Q17.5313,21.7188 18.1406,20.5781 Q18.7656,19.4219 19.8594,18.8125 Q20.9531,18.1875 22.1875,18.1875 Q22.9219,18.1875 23.5625,18.3594 Q24.2188,18.5156 24.7656,18.875 Z " fill="#000000"/><text fill="#000000" font-family="sans-serif" font-size="14" lengthAdjust="spacing" textLength="9" x="36" y="28.7969">A</text><line style="stroke:#181818;stroke-width:0.5;" x1="8" x2="47" y1="39" y2="39"/><line style="stroke:#181818;stroke-width:0.5;" x1="8" x2="47" y1="47" y2="47"/></g><!--class B--><g id="elem_B"><rect codeLine="6" fill="#F1F1F1" height="48" id="B" rx="2.5" ry="2.5" style="stroke:#181818;stroke-width:0.5;" width="41" x="83" y="7"/><ellipse cx="98" cy="23" fill="#ADD1B2" rx="11" ry="11" style="stroke:#181818;stroke-width:1.0;"/><path d="M100.7656,18.875 Q100.9219,18.6563 101.1094,18.5469 Q101.2969,18.4375 101.5156,18.4375 Q101.8906,18.4375 102.125,18.7031 Q102.3594,18.9531 102.3594,19.5625 L102.3594,21.0156 Q102.3594,21.625 102.125,21.8906 Q101.8906,22.1563 101.5156,22.1563 Q101.1719,22.1563 100.9688,21.9531 Q100.7656,21.7656 100.6563,21.25 Q100.6094,20.8906 100.4219,20.7031 Q100.0938,20.3281 99.4844,20.1094 Q98.875,19.8906 98.25,19.8906 Q97.4844,19.8906 96.8438,20.2188 Q96.2188,20.5469 95.7188,21.2969 Q95.2344,22.0469 95.2344,23.0781 L95.2344,24.1719 Q95.2344,25.4063 96.125,26.2344 Q97.0156,27.0469 98.6094,27.0469 Q99.5469,27.0469 100.2031,26.7969 Q100.5938,26.6406 101.0156,26.2031 Q101.2813,25.9375 101.4219,25.8594 Q101.5781,25.7813 101.7813,25.7813 Q102.1094,25.7813 102.3594,26.0469 Q102.625,26.2969 102.625,26.6406 Q102.625,26.9844 102.2813,27.3906 Q101.7813,27.9688 100.9844,28.2969 Q99.9063,28.75 98.6094,28.75 Q97.0938,28.75 95.8906,28.125 Q94.9063,27.625 94.2188,26.5625 Q93.5313,25.4844 93.5313,24.2031 L93.5313,23.0469 Q93.5313,21.7188 94.1406,20.5781 Q94.7656,19.4219 95.8594,18.8125 Q96.9531,18.1875 98.1875,18.1875 Q98.9219,18.1875 99.5625,18.3594 Q100.2188,18.5156 100.7656,18.875 Z " fill="#000000"/><text fill="#000000" font-family="sans-serif" font-size="14" lengthAdjust="spacing" textLength="9" x="112" y="28.7969">B</text><line style="stroke:#181818;stroke-width:0.5;" x1="84" x2="123" y1="39" y2="39"/><line style="stroke:#181818;stroke-width:0.5;" x1="84" x2="123" y1="47" y2="47"/></g><!--link A to B--><g id="link_A_B"><path codeLine="10" d="M48.28,31 C59.79,31 65.29,31 76.79,31 " fill="none" id="A-to-B" style="stroke:#181818;stroke-width:1.0;"/><polygon fill="#181818" points="82.79,31,73.79,27,77.79,31,73.79,35,82.79,31" style="stroke:#181818;stroke-width:1.0;"/></g><!--SRC=[Iyv9B2vMS5IevkAgvU9A1lESe3n71Lqx1ISk0000]--></g></svg>