<svg xmlns="http://www.w3.org/2000/svg" xmlns:xlink="http://www.w3.org/1999/xlink" contentStyleType="text/css" height="1552px" preserveAspectRatio="none" style="width:3490px;height:1552px;background:#FFFFFF;" version="1.1" viewBox="0 0 3490 1552" width="3490px" zoomAndPan="magnify"><title>Sequence Diagram - US230</title><defs/><g><text fill="#000000" font-family="sans-serif" font-size="14" font-weight="bold" lengthAdjust="spacing" textLength="181.2959" x="1655.6414" y="30.1074">Sequence Diagram - US230</text><rect fill="#FFFFFF" height="1326.9121" style="stroke:#181818;stroke-width:1.0;" width="10" x="74.0171" y="133.2422"/><rect fill="#FFFFFF" height="93.5332" style="stroke:#181818;stroke-width:1.0;" width="10" x="322.6777" y="156.5332"/><rect fill="#FFFFFF" height="406.1035" style="stroke:#181818;stroke-width:1.0;" width="10" x="619.3291" y="250.0664"/><rect fill="#FFFFFF" height="281.6191" style="stroke:#181818;stroke-width:1.0;" width="10" x="619.3291" y="687.4609"/><rect fill="#FFFFFF" height="48.582" style="stroke:#181818;stroke-width:1.0;" width="10" x="619.3291" y="1000.3711"/><rect fill="#FFFFFF" height="57.582" style="stroke:#181818;stroke-width:1.0;" width="10" x="619.3291" y="1080.2441"/><rect fill="#FFFFFF" height="282.0371" style="stroke:#181818;stroke-width:1.0;" width="10" x="619.3291" y="1169.1172"/><rect fill="#FFFFFF" height="281.2793" style="stroke:#181818;stroke-width:1.0;" width="10" x="1167.1357" y="343.5996"/><rect fill="#FFFFFF" height="219.0371" style="stroke:#181818;stroke-width:1.0;" width="10" x="1167.1357" y="718.752"/><rect fill="#FFFFFF" height="212.4551" style="stroke:#181818;stroke-width:1.0;" width="10" x="1167.1357" y="1207.4082"/><rect fill="#FFFFFF" height="156.4551" style="stroke:#181818;stroke-width:1.0;" width="10" x="1845.2749" y="437.1328"/><rect fill="#FFFFFF" height="156.4551" style="stroke:#181818;stroke-width:1.0;" width="10" x="2071.5981" y="750.043"/><rect fill="#FFFFFF" height="167.1641" style="stroke:#181818;stroke-width:1.0;" width="10" x="2312.7178" y="1238.6992"/><rect fill="#FFFFFF" height="31.291" style="stroke:#181818;stroke-width:1.0;" width="10" x="2844.6362" y="1269.9902"/><rect fill="#FFFFFF" height="93.873" style="stroke:#181818;stroke-width:1.0;" width="10" x="2977.5737" y="468.4238"/><rect fill="#FFFFFF" height="93.873" style="stroke:#181818;stroke-width:1.0;" width="10" x="3142.4146" y="781.334"/><rect fill="#FFFFFF" height="59.291" style="stroke:#181818;stroke-width:1.0;" width="10" x="3322.0518" y="1332.5723"/><rect fill="#FFFFFF" height="31.291" style="stroke:#181818;stroke-width:1.0;" width="10" x="3450.6133" y="499.7148"/><rect fill="#FFFFFF" height="31.291" style="stroke:#181818;stroke-width:1.0;" width="10" x="3450.6133" y="812.625"/><rect fill="#FFFFFF" height="14" style="stroke:#181818;stroke-width:1.0;" width="10" x="3450.6133" y="1363.8633"/><rect fill="none" height="81.873" style="stroke:#000000;stroke-width:1.5;" width="709.5322" x="10" y="1095.2441"/><line style="stroke:#181818;stroke-width:0.5;stroke-dasharray:5.0,5.0;" x1="79" x2="79" y1="123.2422" y2="1469.1543"/><line style="stroke:#181818;stroke-width:0.5;stroke-dasharray:5.0,5.0;" x1="327.0195" x2="327.0195" y1="123.2422" y2="1469.1543"/><line style="stroke:#181818;stroke-width:0.5;stroke-dasharray:5.0,5.0;" x1="624.126" x2="624.126" y1="205.6543" y2="1469.1543"/><line style="stroke:#181818;stroke-width:0.5;stroke-dasharray:5.0,5.0;" x1="1171.5879" x2="1171.5879" y1="299.1875" y2="1469.1543"/><line style="stroke:#181818;stroke-width:0.5;stroke-dasharray:5.0,5.0;" x1="1667.3345" x2="1667.3345" y1="392.7207" y2="1469.1543"/><line style="stroke:#181818;stroke-width:0.5;stroke-dasharray:5.0,5.0;" x1="1849.7339" x2="1849.7339" y1="123.2422" y2="1469.1543"/><line style="stroke:#181818;stroke-width:0.5;stroke-dasharray:5.0,5.0;" x1="2075.8159" x2="2075.8159" y1="123.2422" y2="1469.1543"/><line style="stroke:#181818;stroke-width:0.5;stroke-dasharray:5.0,5.0;" x1="2317.3804" x2="2317.3804" y1="123.2422" y2="1469.1543"/><line style="stroke:#181818;stroke-width:0.5;stroke-dasharray:5.0,5.0;" x1="2849.4985" x2="2849.4985" y1="123.2422" y2="1469.1543"/><line style="stroke:#181818;stroke-width:0.5;stroke-dasharray:5.0,5.0;" x1="2981.7739" x2="2981.7739" y1="123.2422" y2="1469.1543"/><line style="stroke:#181818;stroke-width:0.5;stroke-dasharray:5.0,5.0;" x1="3147.3735" x2="3147.3735" y1="123.2422" y2="1469.1543"/><line style="stroke:#181818;stroke-width:0.5;stroke-dasharray:5.0,5.0;" x1="3326.4556" x2="3326.4556" y1="123.2422" y2="1469.1543"/><line style="stroke:#181818;stroke-width:0.5;stroke-dasharray:5.0,5.0;" x1="3454.6479" x2="3454.6479" y1="123.2422" y2="1469.1543"/><text fill="#000000" font-family="sans-serif" font-size="14" lengthAdjust="spacing" textLength="112.0342" x="20" y="119.7285">CRM Collaborator</text><ellipse cx="79.0171" cy="53.1211" fill="#E3E3E3" rx="8" ry="8" style="stroke:#181818;stroke-width:0.5;"/><path d="M79.0171,61.1211 L79.0171,88.1211 M66.0171,69.1211 L92.0171,69.1211 M79.0171,88.1211 L66.0171,103.1211 M79.0171,88.1211 L92.0171,103.1211 " fill="none" style="stroke:#181818;stroke-width:0.5;"/><text fill="#000000" font-family="sans-serif" font-size="14" lengthAdjust="spacing" textLength="112.0342" x="20" y="1483.2617">CRM Collaborator</text><ellipse cx="79.0171" cy="1495.2754" fill="#E3E3E3" rx="8" ry="8" style="stroke:#181818;stroke-width:0.5;"/><path d="M79.0171,1503.2754 L79.0171,1530.2754 M66.0171,1511.2754 L92.0171,1511.2754 M79.0171,1530.2754 L66.0171,1545.2754 M79.0171,1530.2754 L92.0171,1545.2754 " fill="none" style="stroke:#181818;stroke-width:0.5;"/><rect fill="#E3E3E3" height="51.2422" rx="2.5" ry="2.5" style="stroke:#181818;stroke-width:0.5;" width="195.3164" x="230.0195" y="71"/><text fill="#000000" font-family="sans-serif" font-size="14" font-style="italic" lengthAdjust="spacing" textLength="92.627" x="281.3643" y="93.1074">&#171;presentation&#187;</text><text fill="#000000" font-family="sans-serif" font-size="14" lengthAdjust="spacing" textLength="181.3164" x="237.0195" y="111.7285">RegisterShowProposalAction</text><rect fill="#E3E3E3" height="51.2422" rx="2.5" ry="2.5" style="stroke:#181818;stroke-width:0.5;" width="195.3164" x="230.0195" y="1468.1543"/><text fill="#000000" font-family="sans-serif" font-size="14" font-style="italic" lengthAdjust="spacing" textLength="92.627" x="281.3643" y="1490.2617">&#171;presentation&#187;</text><text fill="#000000" font-family="sans-serif" font-size="14" lengthAdjust="spacing" textLength="181.3164" x="237.0195" y="1508.8828">RegisterShowProposalAction</text><rect fill="#E3E3E3" height="51.2422" rx="2.5" ry="2.5" style="stroke:#181818;stroke-width:0.5;" width="170.4063" x="539.126" y="1468.1543"/><text fill="#000000" font-family="sans-serif" font-size="14" font-style="italic" lengthAdjust="spacing" textLength="92.627" x="578.0156" y="1490.2617">&#171;presentation&#187;</text><text fill="#000000" font-family="sans-serif" font-size="14" lengthAdjust="spacing" textLength="156.4063" x="546.126" y="1508.8828">RegisterShowProposalUI</text><rect fill="#E3E3E3" height="51.2422" rx="2.5" ry="2.5" style="stroke:#181818;stroke-width:0.5;" width="217.0957" x="1063.5879" y="1468.1543"/><text fill="#000000" font-family="sans-serif" font-size="14" font-style="italic" lengthAdjust="spacing" textLength="82.5098" x="1130.8809" y="1490.2617">&#171;application&#187;</text><text fill="#000000" font-family="sans-serif" font-size="14" lengthAdjust="spacing" textLength="203.0957" x="1070.5879" y="1508.8828">RegisterShowProposalController</text><rect fill="#E3E3E3" height="51.2422" rx="2.5" ry="2.5" style="stroke:#181818;stroke-width:0.5;" width="142.3994" x="1596.3345" y="1468.1543"/><text fill="#000000" font-family="sans-serif" font-size="14" font-style="italic" lengthAdjust="spacing" textLength="42.8203" x="1646.124" y="1490.2617">&#171;auth&#187;</text><text fill="#000000" font-family="sans-serif" font-size="14" lengthAdjust="spacing" textLength="128.3994" x="1603.3345" y="1508.8828">AuthorizationService</text><rect fill="#E3E3E3" height="51.2422" rx="2.5" ry="2.5" style="stroke:#181818;stroke-width:0.5;" width="203.082" x="1748.7339" y="71"/><text fill="#000000" font-family="sans-serif" font-size="14" font-style="italic" lengthAdjust="spacing" textLength="82.5098" x="1809.02" y="93.1074">&#171;application&#187;</text><text fill="#000000" font-family="sans-serif" font-size="14" lengthAdjust="spacing" textLength="189.082" x="1755.7339" y="111.7285">CustomerManagementService</text><rect fill="#E3E3E3" height="51.2422" rx="2.5" ry="2.5" style="stroke:#181818;stroke-width:0.5;" width="203.082" x="1748.7339" y="1468.1543"/><text fill="#000000" font-family="sans-serif" font-size="14" font-style="italic" lengthAdjust="spacing" textLength="82.5098" x="1809.02" y="1490.2617">&#171;application&#187;</text><text fill="#000000" font-family="sans-serif" font-size="14" lengthAdjust="spacing" textLength="189.082" x="1755.7339" y="1508.8828">CustomerManagementService</text><rect fill="#E3E3E3" height="51.2422" rx="2.5" ry="2.5" style="stroke:#181818;stroke-width:0.5;" width="229.5645" x="1961.8159" y="71"/><text fill="#000000" font-family="sans-serif" font-size="14" font-style="italic" lengthAdjust="spacing" textLength="82.5098" x="2035.3433" y="93.1074">&#171;application&#187;</text><text fill="#000000" font-family="sans-serif" font-size="14" lengthAdjust="spacing" textLength="215.5645" x="1968.8159" y="111.7285">ShowRequestManagementService</text><rect fill="#E3E3E3" height="51.2422" rx="2.5" ry="2.5" style="stroke:#181818;stroke-width:0.5;" width="229.5645" x="1961.8159" y="1468.1543"/><text fill="#000000" font-family="sans-serif" font-size="14" font-style="italic" lengthAdjust="spacing" textLength="82.5098" x="2035.3433" y="1490.2617">&#171;application&#187;</text><text fill="#000000" font-family="sans-serif" font-size="14" lengthAdjust="spacing" textLength="215.5645" x="1968.8159" y="1508.8828">ShowRequestManagementService</text><rect fill="#E3E3E3" height="51.2422" rx="2.5" ry="2.5" style="stroke:#181818;stroke-width:0.5;" width="232.6748" x="2201.3804" y="71"/><text fill="#000000" font-family="sans-serif" font-size="14" font-style="italic" lengthAdjust="spacing" textLength="82.5098" x="2276.4629" y="93.1074">&#171;application&#187;</text><text fill="#000000" font-family="sans-serif" font-size="14" lengthAdjust="spacing" textLength="218.6748" x="2208.3804" y="111.7285">ShowProposalManagementService</text><rect fill="#E3E3E3" height="51.2422" rx="2.5" ry="2.5" style="stroke:#181818;stroke-width:0.5;" width="232.6748" x="2201.3804" y="1468.1543"/><text fill="#000000" font-family="sans-serif" font-size="14" font-style="italic" lengthAdjust="spacing" textLength="82.5098" x="2276.4629" y="1490.2617">&#171;application&#187;</text><text fill="#000000" font-family="sans-serif" font-size="14" lengthAdjust="spacing" textLength="218.6748" x="2208.3804" y="1508.8828">ShowProposalManagementService</text><rect fill="#E3E3E3" height="51.2422" rx="2.5" ry="2.5" style="stroke:#181818;stroke-width:0.5;" width="104.2754" x="2797.4985" y="71"/><text fill="#000000" font-family="sans-serif" font-size="14" font-style="italic" lengthAdjust="spacing" textLength="61.4893" x="2818.8916" y="93.1074">&#171;domain&#187;</text><text fill="#000000" font-family="sans-serif" font-size="14" lengthAdjust="spacing" textLength="90.2754" x="2804.4985" y="111.7285">ShowProposal</text><rect fill="#E3E3E3" height="51.2422" rx="2.5" ry="2.5" style="stroke:#181818;stroke-width:0.5;" width="104.2754" x="2797.4985" y="1468.1543"/><text fill="#000000" font-family="sans-serif" font-size="14" font-style="italic" lengthAdjust="spacing" textLength="61.4893" x="2818.8916" y="1490.2617">&#171;domain&#187;</text><text fill="#000000" font-family="sans-serif" font-size="14" lengthAdjust="spacing" textLength="90.2754" x="2804.4985" y="1508.8828">ShowProposal</text><rect fill="#E3E3E3" height="51.2422" rx="2.5" ry="2.5" style="stroke:#181818;stroke-width:0.5;" width="141.5996" x="2911.7739" y="71"/><text fill="#000000" font-family="sans-serif" font-size="14" font-style="italic" lengthAdjust="spacing" textLength="77.041" x="2944.0532" y="93.1074">&#171;repository&#187;</text><text fill="#000000" font-family="sans-serif" font-size="14" lengthAdjust="spacing" textLength="127.5996" x="2918.7739" y="111.7285">CustomerRepository</text><rect fill="#E3E3E3" height="51.2422" rx="2.5" ry="2.5" style="stroke:#181818;stroke-width:0.5;" width="141.5996" x="2911.7739" y="1468.1543"/><text fill="#000000" font-family="sans-serif" font-size="14" font-style="italic" lengthAdjust="spacing" textLength="77.041" x="2944.0532" y="1490.2617">&#171;repository&#187;</text><text fill="#000000" font-family="sans-serif" font-size="14" lengthAdjust="spacing" textLength="127.5996" x="2918.7739" y="1508.8828">CustomerRepository</text><rect fill="#E3E3E3" height="51.2422" rx="2.5" ry="2.5" style="stroke:#181818;stroke-width:0.5;" width="168.082" x="3063.3735" y="71"/><text fill="#000000" font-family="sans-serif" font-size="14" font-style="italic" lengthAdjust="spacing" textLength="77.041" x="3108.894" y="93.1074">&#171;repository&#187;</text><text fill="#000000" font-family="sans-serif" font-size="14" lengthAdjust="spacing" textLength="154.082" x="3070.3735" y="111.7285">ShowRequestRepository</text><rect fill="#E3E3E3" height="51.2422" rx="2.5" ry="2.5" style="stroke:#181818;stroke-width:0.5;" width="168.082" x="3063.3735" y="1468.1543"/><text fill="#000000" font-family="sans-serif" font-size="14" font-style="italic" lengthAdjust="spacing" textLength="77.041" x="3108.894" y="1490.2617">&#171;repository&#187;</text><text fill="#000000" font-family="sans-serif" font-size="14" lengthAdjust="spacing" textLength="154.082" x="3070.3735" y="1508.8828">ShowRequestRepository</text><rect fill="#E3E3E3" height="51.2422" rx="2.5" ry="2.5" style="stroke:#181818;stroke-width:0.5;" width="171.1924" x="3241.4556" y="71"/><text fill="#000000" font-family="sans-serif" font-size="14" font-style="italic" lengthAdjust="spacing" textLength="77.041" x="3288.5313" y="93.1074">&#171;repository&#187;</text><text fill="#000000" font-family="sans-serif" font-size="14" lengthAdjust="spacing" textLength="157.1924" x="3248.4556" y="111.7285">ShowProposalRepository</text><rect fill="#E3E3E3" height="51.2422" rx="2.5" ry="2.5" style="stroke:#181818;stroke-width:0.5;" width="171.1924" x="3241.4556" y="1468.1543"/><text fill="#000000" font-family="sans-serif" font-size="14" font-style="italic" lengthAdjust="spacing" textLength="77.041" x="3288.5313" y="1490.2617">&#171;repository&#187;</text><text fill="#000000" font-family="sans-serif" font-size="14" lengthAdjust="spacing" textLength="157.1924" x="3248.4556" y="1508.8828">ShowProposalRepository</text><text fill="#000000" font-family="sans-serif" font-size="14" lengthAdjust="spacing" textLength="59.9307" x="3422.6479" y="119.7285">Database</text><path d="M3437.6133,68.6211 C3437.6133,58.6211 3455.6133,58.6211 3455.6133,58.6211 C3455.6133,58.6211 3473.6133,58.6211 3473.6133,68.6211 L3473.6133,94.6211 C3473.6133,104.6211 3455.6133,104.6211 3455.6133,104.6211 C3455.6133,104.6211 3437.6133,104.6211 3437.6133,94.6211 L3437.6133,68.6211 " fill="#E3E3E3" style="stroke:#181818;stroke-width:1.5;"/><path d="M3437.6133,68.6211 C3437.6133,78.6211 3455.6133,78.6211 3455.6133,78.6211 C3455.6133,78.6211 3473.6133,78.6211 3473.6133,68.6211 " fill="none" style="stroke:#181818;stroke-width:1.5;"/><text fill="#000000" font-family="sans-serif" font-size="14" lengthAdjust="spacing" textLength="59.9307" x="3422.6479" y="1483.2617">Database</text><path d="M3437.6133,1496.7754 C3437.6133,1486.7754 3455.6133,1486.7754 3455.6133,1486.7754 C3455.6133,1486.7754 3473.6133,1486.7754 3473.6133,1496.7754 L3473.6133,1522.7754 C3473.6133,1532.7754 3455.6133,1532.7754 3455.6133,1532.7754 C3455.6133,1532.7754 3437.6133,1532.7754 3437.6133,1522.7754 L3437.6133,1496.7754 " fill="#E3E3E3" style="stroke:#181818;stroke-width:1.5;"/><path d="M3437.6133,1496.7754 C3437.6133,1506.7754 3455.6133,1506.7754 3455.6133,1506.7754 C3455.6133,1506.7754 3473.6133,1506.7754 3473.6133,1496.7754 " fill="none" style="stroke:#181818;stroke-width:1.5;"/><rect fill="#FFFFFF" height="1326.9121" style="stroke:#181818;stroke-width:1.0;" width="10" x="74.0171" y="133.2422"/><rect fill="#FFFFFF" height="93.5332" style="stroke:#181818;stroke-width:1.0;" width="10" x="322.6777" y="156.5332"/><rect fill="#FFFFFF" height="406.1035" style="stroke:#181818;stroke-width:1.0;" width="10" x="619.3291" y="250.0664"/><rect fill="#FFFFFF" height="281.6191" style="stroke:#181818;stroke-width:1.0;" width="10" x="619.3291" y="687.4609"/><rect fill="#FFFFFF" height="48.582" style="stroke:#181818;stroke-width:1.0;" width="10" x="619.3291" y="1000.3711"/><rect fill="#FFFFFF" height="57.582" style="stroke:#181818;stroke-width:1.0;" width="10" x="619.3291" y="1080.2441"/><rect fill="#FFFFFF" height="282.0371" style="stroke:#181818;stroke-width:1.0;" width="10" x="619.3291" y="1169.1172"/><rect fill="#FFFFFF" height="281.2793" style="stroke:#181818;stroke-width:1.0;" width="10" x="1167.1357" y="343.5996"/><rect fill="#FFFFFF" height="219.0371" style="stroke:#181818;stroke-width:1.0;" width="10" x="1167.1357" y="718.752"/><rect fill="#FFFFFF" height="212.4551" style="stroke:#181818;stroke-width:1.0;" width="10" x="1167.1357" y="1207.4082"/><rect fill="#FFFFFF" height="156.4551" style="stroke:#181818;stroke-width:1.0;" width="10" x="1845.2749" y="437.1328"/><rect fill="#FFFFFF" height="156.4551" style="stroke:#181818;stroke-width:1.0;" width="10" x="2071.5981" y="750.043"/><rect fill="#FFFFFF" height="167.1641" style="stroke:#181818;stroke-width:1.0;" width="10" x="2312.7178" y="1238.6992"/><rect fill="#FFFFFF" height="31.291" style="stroke:#181818;stroke-width:1.0;" width="10" x="2844.6362" y="1269.9902"/><rect fill="#FFFFFF" height="93.873" style="stroke:#181818;stroke-width:1.0;" width="10" x="2977.5737" y="468.4238"/><rect fill="#FFFFFF" height="93.873" style="stroke:#181818;stroke-width:1.0;" width="10" x="3142.4146" y="781.334"/><rect fill="#FFFFFF" height="59.291" style="stroke:#181818;stroke-width:1.0;" width="10" x="3322.0518" y="1332.5723"/><rect fill="#FFFFFF" height="31.291" style="stroke:#181818;stroke-width:1.0;" width="10" x="3450.6133" y="499.7148"/><rect fill="#FFFFFF" height="31.291" style="stroke:#181818;stroke-width:1.0;" width="10" x="3450.6133" y="812.625"/><rect fill="#FFFFFF" height="14" style="stroke:#181818;stroke-width:1.0;" width="10" x="3450.6133" y="1363.8633"/><polygon fill="#181818" points="310.6777,152.5332,320.6777,156.5332,310.6777,160.5332,314.6777,156.5332" style="stroke:#181818;stroke-width:1.0;"/><line style="stroke:#181818;stroke-width:1.0;" x1="84.0171" x2="316.6777" y1="156.5332" y2="156.5332"/><text fill="#000000" font-family="sans-serif" font-size="13" lengthAdjust="spacing" textLength="219.6606" x="91.0171" y="151.2705">Asks to start creating a show proposal</text><polygon fill="#181818" points="527.126,183.8242,537.126,187.8242,527.126,191.8242,531.126,187.8242" style="stroke:#181818;stroke-width:1.0;"/><line style="stroke:#181818;stroke-width:1.0;" x1="332.6777" x2="533.126" y1="187.8242" y2="187.8242"/><text fill="#000000" font-family="sans-serif" font-size="13" lengthAdjust="spacing" textLength="36.1309" x="339.6777" y="182.5615">create</text><rect fill="#E3E3E3" height="51.2422" rx="2.5" ry="2.5" style="stroke:#181818;stroke-width:0.5;" width="170.4063" x="539.126" y="164.5332"/><text fill="#000000" font-family="sans-serif" font-size="14" font-style="italic" lengthAdjust="spacing" textLength="92.627" x="578.0156" y="186.6406">&#171;presentation&#187;</text><text fill="#000000" font-family="sans-serif" font-size="14" lengthAdjust="spacing" textLength="156.4063" x="546.126" y="205.2617">RegisterShowProposalUI</text><polygon fill="#181818" points="607.3291,246.0664,617.3291,250.0664,607.3291,254.0664,611.3291,250.0664" style="stroke:#181818;stroke-width:1.0;"/><line style="stroke:#181818;stroke-width:1.0;" x1="327.6777" x2="613.3291" y1="250.0664" y2="250.0664"/><text fill="#000000" font-family="sans-serif" font-size="13" lengthAdjust="spacing" textLength="39.0063" x="334.6777" y="244.8037">show()</text><polygon fill="#181818" points="1051.5879,277.3574,1061.5879,281.3574,1051.5879,285.3574,1055.5879,281.3574" style="stroke:#181818;stroke-width:1.0;"/><line style="stroke:#181818;stroke-width:1.0;" x1="629.3291" x2="1057.5879" y1="281.3574" y2="281.3574"/><text fill="#000000" font-family="sans-serif" font-size="13" lengthAdjust="spacing" textLength="36.1309" x="636.3291" y="276.0947">create</text><rect fill="#E3E3E3" height="51.2422" rx="2.5" ry="2.5" style="stroke:#181818;stroke-width:0.5;" width="217.0957" x="1063.5879" y="258.0664"/><text fill="#000000" font-family="sans-serif" font-size="14" font-style="italic" lengthAdjust="spacing" textLength="82.5098" x="1130.8809" y="280.1738">&#171;application&#187;</text><text fill="#000000" font-family="sans-serif" font-size="14" lengthAdjust="spacing" textLength="203.0957" x="1070.5879" y="298.7949">RegisterShowProposalController</text><polygon fill="#181818" points="1155.1357,339.5996,1165.1357,343.5996,1155.1357,347.5996,1159.1357,343.5996" style="stroke:#181818;stroke-width:1.0;"/><line style="stroke:#181818;stroke-width:1.0;" x1="629.3291" x2="1161.1357" y1="343.5996" y2="343.5996"/><text fill="#000000" font-family="sans-serif" font-size="13" lengthAdjust="spacing" textLength="87.3945" x="636.3291" y="338.3369">listCustomers()</text><polygon fill="#181818" points="1584.3345,370.8906,1594.3345,374.8906,1584.3345,378.8906,1588.3345,374.8906" style="stroke:#181818;stroke-width:1.0;"/><line style="stroke:#181818;stroke-width:1.0;" x1="1177.1357" x2="1590.3345" y1="374.8906" y2="374.8906"/><text fill="#000000" font-family="sans-serif" font-size="13" lengthAdjust="spacing" textLength="395.1987" x="1184.1357" y="369.6279">ensureAuthenticatedUserHasAnyOf(Roles.CRM_COLLABORATOR)</text><rect fill="#E3E3E3" height="51.2422" rx="2.5" ry="2.5" style="stroke:#181818;stroke-width:0.5;" width="142.3994" x="1596.3345" y="351.5996"/><text fill="#000000" font-family="sans-serif" font-size="14" font-style="italic" lengthAdjust="spacing" textLength="42.8203" x="1646.124" y="373.707">&#171;auth&#187;</text><text fill="#000000" font-family="sans-serif" font-size="14" lengthAdjust="spacing" textLength="128.3994" x="1603.3345" y="392.3281">AuthorizationService</text><polygon fill="#181818" points="1833.2749,433.1328,1843.2749,437.1328,1833.2749,441.1328,1837.2749,437.1328" style="stroke:#181818;stroke-width:1.0;"/><line style="stroke:#181818;stroke-width:1.0;" x1="1177.1357" x2="1839.2749" y1="437.1328" y2="437.1328"/><text fill="#000000" font-family="sans-serif" font-size="13" lengthAdjust="spacing" textLength="142.3145" x="1184.1357" y="431.8701">findAllActiveCustomers()</text><polygon fill="#181818" points="2965.5737,464.4238,2975.5737,468.4238,2965.5737,472.4238,2969.5737,468.4238" style="stroke:#181818;stroke-width:1.0;"/><line style="stroke:#181818;stroke-width:1.0;" x1="1855.2749" x2="2971.5737" y1="468.4238" y2="468.4238"/><text fill="#000000" font-family="sans-serif" font-size="13" lengthAdjust="spacing" textLength="102.5908" x="1862.2749" y="463.1611">findByActive(true)</text><polygon fill="#181818" points="3438.6133,495.7148,3448.6133,499.7148,3438.6133,503.7148,3442.6133,499.7148" style="stroke:#181818;stroke-width:1.0;"/><line style="stroke:#181818;stroke-width:1.0;" x1="2987.5737" x2="3444.6133" y1="499.7148" y2="499.7148"/><text fill="#000000" font-family="sans-serif" font-size="13" lengthAdjust="spacing" textLength="102.5908" x="2994.5737" y="494.4521">findByActive(true)</text><polygon fill="#181818" points="2998.5737,527.0059,2988.5737,531.0059,2998.5737,535.0059,2994.5737,531.0059" style="stroke:#181818;stroke-width:1.0;"/><line style="stroke:#181818;stroke-width:1.0;" x1="2992.5737" x2="3454.6133" y1="531.0059" y2="531.0059"/><text fill="#000000" font-family="sans-serif" font-size="13" lengthAdjust="spacing" textLength="104.749" x="3004.5737" y="525.7432">listOfActiveClients</text><polygon fill="#181818" points="1866.2749,558.2969,1856.2749,562.2969,1866.2749,566.2969,1862.2749,562.2969" style="stroke:#181818;stroke-width:1.0;"/><line style="stroke:#181818;stroke-width:1.0;" x1="1860.2749" x2="2981.5737" y1="562.2969" y2="562.2969"/><text fill="#000000" font-family="sans-serif" font-size="13" lengthAdjust="spacing" textLength="104.749" x="1872.2749" y="557.0342">listOfActiveClients</text><polygon fill="#181818" points="1188.1357,589.5879,1178.1357,593.5879,1188.1357,597.5879,1184.1357,593.5879" style="stroke:#181818;stroke-width:1.0;"/><line style="stroke:#181818;stroke-width:1.0;" x1="1182.1357" x2="1849.2749" y1="593.5879" y2="593.5879"/><text fill="#000000" font-family="sans-serif" font-size="13" lengthAdjust="spacing" textLength="104.749" x="1194.1357" y="588.3252">listOfActiveClients</text><polygon fill="#181818" points="640.3291,620.8789,630.3291,624.8789,640.3291,628.8789,636.3291,624.8789" style="stroke:#181818;stroke-width:1.0;"/><line style="stroke:#181818;stroke-width:1.0;" x1="634.3291" x2="1171.1357" y1="624.8789" y2="624.8789"/><text fill="#000000" font-family="sans-serif" font-size="13" lengthAdjust="spacing" textLength="104.749" x="646.3291" y="619.6162">listOfActiveClients</text><polygon fill="#181818" points="95.0171,652.1699,85.0171,656.1699,95.0171,660.1699,91.0171,656.1699" style="stroke:#181818;stroke-width:1.0;"/><line style="stroke:#181818;stroke-width:1.0;" x1="89.0171" x2="623.3291" y1="656.1699" y2="656.1699"/><text fill="#000000" font-family="sans-serif" font-size="13" lengthAdjust="spacing" textLength="166.1753" x="101.0171" y="650.9072">displays the list of customers</text><polygon fill="#181818" points="607.3291,683.4609,617.3291,687.4609,607.3291,691.4609,611.3291,687.4609" style="stroke:#181818;stroke-width:1.0;"/><line style="stroke:#181818;stroke-width:1.0;" x1="84.0171" x2="613.3291" y1="687.4609" y2="687.4609"/><text fill="#000000" font-family="sans-serif" font-size="13" lengthAdjust="spacing" textLength="119.2153" x="91.0171" y="682.1982">selects the customer</text><polygon fill="#181818" points="1155.1357,714.752,1165.1357,718.752,1155.1357,722.752,1159.1357,718.752" style="stroke:#181818;stroke-width:1.0;"/><line style="stroke:#181818;stroke-width:1.0;" x1="629.3291" x2="1161.1357" y1="718.752" y2="718.752"/><text fill="#000000" font-family="sans-serif" font-size="13" lengthAdjust="spacing" textLength="165.4453" x="636.3291" y="713.4893">listShowRequests(customer)</text><polygon fill="#181818" points="2059.5981,746.043,2069.5981,750.043,2059.5981,754.043,2063.5981,750.043" style="stroke:#181818;stroke-width:1.0;"/><line style="stroke:#181818;stroke-width:1.0;" x1="1177.1357" x2="2065.5981" y1="750.043" y2="750.043"/><text fill="#000000" font-family="sans-serif" font-size="13" lengthAdjust="spacing" textLength="241.3125" x="1184.1357" y="744.7803">findAllCustomerShowRequests(customer)</text><polygon fill="#181818" points="3130.4146,777.334,3140.4146,781.334,3130.4146,785.334,3134.4146,781.334" style="stroke:#181818;stroke-width:1.0;"/><line style="stroke:#181818;stroke-width:1.0;" x1="2081.5981" x2="3136.4146" y1="781.334" y2="781.334"/><text fill="#000000" font-family="sans-serif" font-size="13" lengthAdjust="spacing" textLength="154.5972" x="2088.5981" y="776.0713">findByCustomer(customer)</text><polygon fill="#181818" points="3438.6133,808.625,3448.6133,812.625,3438.6133,816.625,3442.6133,812.625" style="stroke:#181818;stroke-width:1.0;"/><line style="stroke:#181818;stroke-width:1.0;" x1="3152.4146" x2="3444.6133" y1="812.625" y2="812.625"/><text fill="#000000" font-family="sans-serif" font-size="13" lengthAdjust="spacing" textLength="154.5972" x="3159.4146" y="807.3623">findByCustomer(customer)</text><polygon fill="#181818" points="3163.4146,839.916,3153.4146,843.916,3163.4146,847.916,3159.4146,843.916" style="stroke:#181818;stroke-width:1.0;"/><line style="stroke:#181818;stroke-width:1.0;" x1="3157.4146" x2="3454.6133" y1="843.916" y2="843.916"/><text fill="#000000" font-family="sans-serif" font-size="13" lengthAdjust="spacing" textLength="117.0508" x="3169.4146" y="838.6533">listOfShowRequests</text><polygon fill="#181818" points="2092.5981,871.207,2082.5981,875.207,2092.5981,879.207,2088.5981,875.207" style="stroke:#181818;stroke-width:1.0;"/><line style="stroke:#181818;stroke-width:1.0;" x1="2086.5981" x2="3146.4146" y1="875.207" y2="875.207"/><text fill="#000000" font-family="sans-serif" font-size="13" lengthAdjust="spacing" textLength="117.0508" x="2098.5981" y="869.9443">listOfShowRequests</text><polygon fill="#181818" points="1188.1357,902.498,1178.1357,906.498,1188.1357,910.498,1184.1357,906.498" style="stroke:#181818;stroke-width:1.0;"/><line style="stroke:#181818;stroke-width:1.0;" x1="1182.1357" x2="2075.5981" y1="906.498" y2="906.498"/><text fill="#000000" font-family="sans-serif" font-size="13" lengthAdjust="spacing" textLength="117.0508" x="1194.1357" y="901.2354">listOfShowRequests</text><polygon fill="#181818" points="640.3291,933.7891,630.3291,937.7891,640.3291,941.7891,636.3291,937.7891" style="stroke:#181818;stroke-width:1.0;"/><line style="stroke:#181818;stroke-width:1.0;" x1="634.3291" x2="1171.1357" y1="937.7891" y2="937.7891"/><text fill="#000000" font-family="sans-serif" font-size="13" lengthAdjust="spacing" textLength="117.0508" x="646.3291" y="932.5264">listOfShowRequests</text><polygon fill="#181818" points="95.0171,965.0801,85.0171,969.0801,95.0171,973.0801,91.0171,969.0801" style="stroke:#181818;stroke-width:1.0;"/><line style="stroke:#181818;stroke-width:1.0;" x1="89.0171" x2="623.3291" y1="969.0801" y2="969.0801"/><text fill="#000000" font-family="sans-serif" font-size="13" lengthAdjust="spacing" textLength="344.665" x="101.0171" y="963.8174">Displays the list of show request associated to the customer</text><polygon fill="#181818" points="607.3291,996.3711,617.3291,1000.3711,607.3291,1004.3711,611.3291,1000.3711" style="stroke:#181818;stroke-width:1.0;"/><line style="stroke:#181818;stroke-width:1.0;" x1="84.0171" x2="613.3291" y1="1000.3711" y2="1000.3711"/><text fill="#000000" font-family="sans-serif" font-size="13" lengthAdjust="spacing" textLength="132.2344" x="91.0171" y="995.1084">selects a show request</text><polygon fill="#181818" points="95.0171,1044.9531,85.0171,1048.9531,95.0171,1052.9531,91.0171,1048.9531" style="stroke:#181818;stroke-width:1.0;"/><line style="stroke:#181818;stroke-width:1.0;" x1="89.0171" x2="623.3291" y1="1048.9531" y2="1048.9531"/><text fill="#000000" font-family="sans-serif" font-size="13" lengthAdjust="spacing" textLength="458.1357" x="101.0171" y="1026.3994">displays the current attributes of the show request(location, date, time, duration,</text><text fill="#000000" font-family="sans-serif" font-size="13" lengthAdjust="spacing" textLength="454.5303" x="101.0171" y="1043.6904">total number of drones) and asks the user if he wants to change the attribute(s)</text><polygon fill="#181818" points="607.3291,1076.2441,617.3291,1080.2441,607.3291,1084.2441,611.3291,1080.2441" style="stroke:#181818;stroke-width:1.0;"/><line style="stroke:#181818;stroke-width:1.0;" x1="84.0171" x2="613.3291" y1="1080.2441" y2="1080.2441"/><text fill="#000000" font-family="sans-serif" font-size="13" lengthAdjust="spacing" textLength="516.312" x="91.0171" y="1074.9814">selects the attribute he wants to change or selects the option to don't change any attribute</text><path d="M10,1095.2441 L70.1709,1095.2441 L70.1709,1104.5352 L60.1709,1114.5352 L10,1114.5352 L10,1095.2441 " fill="#EEEEEE" style="stroke:#000000;stroke-width:1.5;"/><rect fill="none" height="81.873" style="stroke:#000000;stroke-width:1.5;" width="709.5322" x="10" y="1095.2441"/><text fill="#000000" font-family="sans-serif" font-size="13" font-weight="bold" lengthAdjust="spacing" textLength="15.1709" x="25" y="1110.2725">alt</text><text fill="#000000" font-family="sans-serif" font-size="11" font-weight="bold" lengthAdjust="spacing" textLength="275.6553" x="85.1709" y="1109.1143">[If the user wants to change the attributes displayed]</text><polygon fill="#181818" points="95.0171,1133.8262,85.0171,1137.8262,95.0171,1141.8262,91.0171,1137.8262" style="stroke:#181818;stroke-width:1.0;"/><line style="stroke:#181818;stroke-width:1.0;" x1="89.0171" x2="623.3291" y1="1137.8262" y2="1137.8262"/><text fill="#000000" font-family="sans-serif" font-size="13" lengthAdjust="spacing" textLength="180.6797" x="101.0171" y="1132.5635">request the data of the attribute</text><polygon fill="#181818" points="607.3291,1165.1172,617.3291,1169.1172,607.3291,1173.1172,611.3291,1169.1172" style="stroke:#181818;stroke-width:1.0;"/><line style="stroke:#181818;stroke-width:1.0;" x1="84.0171" x2="613.3291" y1="1169.1172" y2="1169.1172"/><text fill="#000000" font-family="sans-serif" font-size="13" lengthAdjust="spacing" textLength="121.418" x="91.0171" y="1163.8545">types requested data</text><polygon fill="#181818" points="1155.1357,1203.4082,1165.1357,1207.4082,1155.1357,1211.4082,1159.1357,1207.4082" style="stroke:#181818;stroke-width:1.0;"/><line style="stroke:#181818;stroke-width:1.0;" x1="629.3291" x2="1161.1357" y1="1207.4082" y2="1207.4082"/><text fill="#000000" font-family="sans-serif" font-size="13" lengthAdjust="spacing" textLength="518.8066" x="636.3291" y="1202.1455">registerShowProposal(showRequest, location, date, time, duration, totalNumberOfDrones)</text><polygon fill="#181818" points="2300.7178,1234.6992,2310.7178,1238.6992,2300.7178,1242.6992,2304.7178,1238.6992" style="stroke:#181818;stroke-width:1.0;"/><line style="stroke:#181818;stroke-width:1.0;" x1="1177.1357" x2="2306.7178" y1="1238.6992" y2="1238.6992"/><text fill="#000000" font-family="sans-serif" font-size="13" lengthAdjust="spacing" textLength="518.8066" x="1184.1357" y="1233.4365">registerShowProposal(showRequest, location, date, time, duration, totalNumberOfDrones)</text><polygon fill="#181818" points="2832.6362,1265.9902,2842.6362,1269.9902,2832.6362,1273.9902,2836.6362,1269.9902" style="stroke:#181818;stroke-width:1.0;"/><line style="stroke:#181818;stroke-width:1.0;" x1="2322.7178" x2="2838.6362" y1="1269.9902" y2="1269.9902"/><text fill="#000000" font-family="sans-serif" font-size="13" lengthAdjust="spacing" textLength="502.9185" x="2329.7178" y="1264.7275">new ShowProposal(showRequest, location, date, time, duration, totalNumberOfDrones)</text><polygon fill="#181818" points="2333.7178,1297.2813,2323.7178,1301.2813,2333.7178,1305.2813,2329.7178,1301.2813" style="stroke:#181818;stroke-width:1.0;"/><line style="stroke:#181818;stroke-width:1.0;" x1="2327.7178" x2="2848.6362" y1="1301.2813" y2="1301.2813"/><text fill="#000000" font-family="sans-serif" font-size="13" lengthAdjust="spacing" textLength="111.2871" x="2339.7178" y="1296.0186">new ShowProposal</text><polygon fill="#181818" points="3310.0518,1328.5723,3320.0518,1332.5723,3310.0518,1336.5723,3314.0518,1332.5723" style="stroke:#181818;stroke-width:1.0;"/><line style="stroke:#181818;stroke-width:1.0;" x1="2322.7178" x2="3316.0518" y1="1332.5723" y2="1332.5723"/><text fill="#000000" font-family="sans-serif" font-size="13" lengthAdjust="spacing" textLength="117.7744" x="2329.7178" y="1327.3096">save(showProposal)</text><polygon fill="#181818" points="3438.6133,1359.8633,3448.6133,1363.8633,3438.6133,1367.8633,3442.6133,1363.8633" style="stroke:#181818;stroke-width:1.0;"/><line style="stroke:#181818;stroke-width:1.0;" x1="3332.0518" x2="3444.6133" y1="1363.8633" y2="1363.8633"/><text fill="#000000" font-family="sans-serif" font-size="13" lengthAdjust="spacing" textLength="36.1182" x="3339.0518" y="1358.6006">save()</text><polygon fill="#181818" points="3343.0518,1373.8633,3333.0518,1377.8633,3343.0518,1381.8633,3339.0518,1377.8633" style="stroke:#181818;stroke-width:1.0;"/><line style="stroke:#181818;stroke-width:1.0;stroke-dasharray:2.0,2.0;" x1="3337.0518" x2="3454.6133" y1="1377.8633" y2="1377.8633"/><polygon fill="#181818" points="2333.7178,1387.8633,2323.7178,1391.8633,2333.7178,1395.8633,2329.7178,1391.8633" style="stroke:#181818;stroke-width:1.0;"/><line style="stroke:#181818;stroke-width:1.0;stroke-dasharray:2.0,2.0;" x1="2327.7178" x2="3326.0518" y1="1391.8633" y2="1391.8633"/><polygon fill="#181818" points="1188.1357,1401.8633,1178.1357,1405.8633,1188.1357,1409.8633,1184.1357,1405.8633" style="stroke:#181818;stroke-width:1.0;"/><line style="stroke:#181818;stroke-width:1.0;stroke-dasharray:2.0,2.0;" x1="1182.1357" x2="2316.7178" y1="1405.8633" y2="1405.8633"/><polygon fill="#181818" points="640.3291,1415.8633,630.3291,1419.8633,640.3291,1423.8633,636.3291,1419.8633" style="stroke:#181818;stroke-width:1.0;"/><line style="stroke:#181818;stroke-width:1.0;stroke-dasharray:2.0,2.0;" x1="634.3291" x2="1171.1357" y1="1419.8633" y2="1419.8633"/><polygon fill="#181818" points="95.0171,1447.1543,85.0171,1451.1543,95.0171,1455.1543,91.0171,1451.1543" style="stroke:#181818;stroke-width:1.0;"/><line style="stroke:#181818;stroke-width:1.0;" x1="89.0171" x2="623.3291" y1="1451.1543" y2="1451.1543"/><text fill="#000000" font-family="sans-serif" font-size="13" lengthAdjust="spacing" textLength="155.3589" x="101.0171" y="1445.8916">displays operation success</text><!--SRC=[jLTjJ-Cu4FwUNp7YoxK8472hOrMjq9MMqvMbMzINtIyhdKpYjXQfdRETejwllt7IlBLs4a2R3uXcx6UU6SyydgWNnYCYoGOsWWj_BSM6WfOnzLHkYOZ_GbPqfdSX1KbzJVWgB2zGQnA8LyPNi2IXefv7V2qad0ocOnY8C2JFGX9ySm94WIytvNSUGcZciuXm3ITJkc9AKpbRYzSdAIAXIDZtDHCysTiVp4UJR_3bIoIfebmJOxczRSPOZ9BzYz4xzWu4rn8PqvJ_O3vzH1GIHI7phI3zMA-5PFybnXcLM-RJbBx5OA3mzI7685OQZqAE2SVKRv1l6SXfhITcefhIVsEgj1stRa4pT9OmDxPpHNlm8opS6eWDOToLmYd5TGnBRLV9NV4Q4MJ-eoPd1q1MIoDMHji2TcmwH0k89iz4KJWPxlzBDcS_F4ypZJqwCwmuPdN8oCeqw3aiPjU_NteUO6UoBT7qg0qzCC_1MpY_pNgk1ttrea0BK1fZmfKKpmfRdc3xYrU8zkHJdDnDkdkFZiyU3N4NezDJH4rmgDMELWFTwURMW3g1SyDYLBn434Go7NjwUkIgCAAZ4Di-gmnLyfZ3cdK5i7cIdIP1bgvEGgDSnP8QCnQwAMqQB1ILVnFLvxl9iZCL8LKNA9B_32QFZ_sxoRG_dqoxLYVkZk_1al6W7oOwkQMs8Ag1k92gqINEdKvBZ4hLcbAvswLCEkOQwHw17X4f08uPb5cK7A7xhERREQquBje574yExehJbCjakSzuo30poWfMAjXwh_OWwqwz3OMI-pRPhZ_leb7gt5fSDbHQLk99mzV1bw5DDrOR-L2wUX0m5OLaXwArfWamY2NuMNzuXvYvS5X4C1KZ6kBmay9bC5uRyTd7LRemL2S3U9FKrDxFkH1aUM_mL_5PXtnSABKygZmjyf3nSt1oyMhI2RjJcrIq8F01mN05dvPs-L0-9XdEU1kgf0MF4eUM1z1K4HNrSFgs-tsxVbWT7Cf7etuCRVgH33ionSRPImcVcOlT34R7kl0UTI4L5pNwqaxt_5XAp1mGhILxZZLL9WfZARlfX28TlSy0Pqnw1ffjy6yGo_tRdrmBZSCsZpVFL1g8G0fELHS83p0FBwct6ESRO4l0Vrznv4tcHN-DtuiqCUSaEghxCVtDaMokS4zvhOXC3COU2FwRpbOHlYjWzdaEDOoMHIIrCQWiqJHel0ME3oah8GDfnlhiL0uOlIK_UXSXgJqmbgI1hM56UM2_gwJb8xYZYfOwWwPgIMhbMr8ga-KmBPIttdFkRyLVpl3e1d9oiGkXc_f1R1WAfw_m2yDmXkA-Kt9oBGxYa7tJJUBs_gQyLUvLHN3iLoLhomoKhZDRAXhpunmo4a9jHuhMhgjZHar2MayL7uwwkK3QraFDMJGKHYvRNWithIQ9lPo-VsueBc0HqRHJGSM-JvNremF-H2MEDzWJJo7UDuln8spn-yJikhgulhp-T77JcH4DCnh1vGrSNVUkFlUkRk37_MmEnjxrEkFH79I89MO4dQSt209qlGUo9J2DkH6E7amYoX-6NxCNSC-t34N39CHx-3uk5lpnwVoE6PSIgS3tiJUaInBZxNZFVH4mlkh1OlxN-MVl4U_567FQWqXx0u6uSjU3f_d_]--></g></svg>