<svg xmlns="http://www.w3.org/2000/svg" xmlns:xlink="http://www.w3.org/1999/xlink" contentStyleType="text/css" height="697px" preserveAspectRatio="none" style="width:681px;height:697px;background:#FFFFFF;" version="1.1" viewBox="0 0 681 697" width="681px" zoomAndPan="magnify"><title>System Sequence Diagram - US310</title><defs/><g><text fill="#000000" font-family="sans-serif" font-size="14" font-weight="bold" lengthAdjust="spacing" textLength="234.9922" x="219.3374" y="30.1074">System Sequence Diagram - US310</text><rect fill="#FFFFFF" height="472.3652" style="stroke:#181818;stroke-width:1.0;" width="10" x="74.0171" y="133.2422"/><rect fill="#FFFFFF" height="31.291" style="stroke:#181818;stroke-width:1.0;" width="10" x="619.3291" y="201.8242"/><rect fill="#FFFFFF" height="31.291" style="stroke:#181818;stroke-width:1.0;" width="10" x="619.3291" y="264.4063"/><rect fill="#FFFFFF" height="31.291" style="stroke:#181818;stroke-width:1.0;" width="10" x="619.3291" y="326.9883"/><rect fill="#FFFFFF" height="48.582" style="stroke:#181818;stroke-width:1.0;" width="10" x="619.3291" y="389.5703"/><rect fill="#FFFFFF" height="57.582" style="stroke:#181818;stroke-width:1.0;" width="10" x="619.3291" y="469.4434"/><rect fill="#FFFFFF" height="38.291" style="stroke:#181818;stroke-width:1.0;" width="10" x="619.3291" y="558.3164"/><rect fill="none" height="81.873" style="stroke:#000000;stroke-width:1.5;" width="654.667" x="10" y="484.4434"/><line style="stroke:#181818;stroke-width:0.5;stroke-dasharray:5.0,5.0;" x1="79" x2="79" y1="123.2422" y2="614.6074"/><line style="stroke:#181818;stroke-width:0.5;stroke-dasharray:5.0,5.0;" x1="623.9912" x2="623.9912" y1="123.2422" y2="614.6074"/><text fill="#000000" font-family="sans-serif" font-size="14" lengthAdjust="spacing" textLength="112.0342" x="20" y="119.7285">CRM Collaborator</text><ellipse cx="79.0171" cy="53.1211" fill="#E3E3E3" rx="8" ry="8" style="stroke:#181818;stroke-width:0.5;"/><path d="M79.0171,61.1211 L79.0171,88.1211 M66.0171,69.1211 L92.0171,69.1211 M79.0171,88.1211 L66.0171,103.1211 M79.0171,88.1211 L92.0171,103.1211 " fill="none" style="stroke:#181818;stroke-width:0.5;"/><text fill="#000000" font-family="sans-serif" font-size="14" lengthAdjust="spacing" textLength="112.0342" x="20" y="628.7148">CRM Collaborator</text><ellipse cx="79.0171" cy="640.7285" fill="#E3E3E3" rx="8" ry="8" style="stroke:#181818;stroke-width:0.5;"/><path d="M79.0171,648.7285 L79.0171,675.7285 M66.0171,656.7285 L92.0171,656.7285 M79.0171,675.7285 L66.0171,690.7285 M79.0171,675.7285 L92.0171,690.7285 " fill="none" style="stroke:#181818;stroke-width:0.5;"/><rect fill="#E3E3E3" height="32.6211" rx="2.5" ry="2.5" style="stroke:#181818;stroke-width:0.5;" width="60.6758" x="593.9912" y="89.6211"/><text fill="#000000" font-family="sans-serif" font-size="14" lengthAdjust="spacing" textLength="46.6758" x="600.9912" y="111.7285">System</text><rect fill="#E3E3E3" height="32.6211" rx="2.5" ry="2.5" style="stroke:#181818;stroke-width:0.5;" width="60.6758" x="593.9912" y="613.6074"/><text fill="#000000" font-family="sans-serif" font-size="14" lengthAdjust="spacing" textLength="46.6758" x="600.9912" y="635.7148">System</text><rect fill="#FFFFFF" height="472.3652" style="stroke:#181818;stroke-width:1.0;" width="10" x="74.0171" y="133.2422"/><rect fill="#FFFFFF" height="31.291" style="stroke:#181818;stroke-width:1.0;" width="10" x="619.3291" y="201.8242"/><rect fill="#FFFFFF" height="31.291" style="stroke:#181818;stroke-width:1.0;" width="10" x="619.3291" y="264.4063"/><rect fill="#FFFFFF" height="31.291" style="stroke:#181818;stroke-width:1.0;" width="10" x="619.3291" y="326.9883"/><rect fill="#FFFFFF" height="48.582" style="stroke:#181818;stroke-width:1.0;" width="10" x="619.3291" y="389.5703"/><rect fill="#FFFFFF" height="57.582" style="stroke:#181818;stroke-width:1.0;" width="10" x="619.3291" y="469.4434"/><rect fill="#FFFFFF" height="38.291" style="stroke:#181818;stroke-width:1.0;" width="10" x="619.3291" y="558.3164"/><rect fill="#EEEEEE" height="3" style="stroke:#EEEEEE;stroke-width:1.0;" width="674.667" x="0" y="154.8877"/><line style="stroke:#000000;stroke-width:1.0;" x1="0" x2="674.667" y1="154.8877" y2="154.8877"/><line style="stroke:#000000;stroke-width:1.0;" x1="0" x2="674.667" y1="157.8877" y2="157.8877"/><rect fill="#EEEEEE" height="25.291" style="stroke:#000000;stroke-width:2.0;" width="155.5908" x="259.5381" y="143.2422"/><text fill="#000000" font-family="sans-serif" font-size="13" font-weight="bold" lengthAdjust="spacing" textLength="137.979" x="265.5381" y="161.2705">Create Show Proposal</text><polygon fill="#181818" points="607.3291,197.8242,617.3291,201.8242,607.3291,205.8242,611.3291,201.8242" style="stroke:#181818;stroke-width:1.0;"/><line style="stroke:#181818;stroke-width:1.0;" x1="84.0171" x2="613.3291" y1="201.8242" y2="201.8242"/><text fill="#000000" font-family="sans-serif" font-size="13" lengthAdjust="spacing" textLength="219.6606" x="91.0171" y="196.5615">Asks to start creating a show proposal</text><polygon fill="#181818" points="95.0171,229.1152,85.0171,233.1152,95.0171,237.1152,91.0171,233.1152" style="stroke:#181818;stroke-width:1.0;"/><line style="stroke:#181818;stroke-width:1.0;" x1="89.0171" x2="623.3291" y1="233.1152" y2="233.1152"/><text fill="#000000" font-family="sans-serif" font-size="13" lengthAdjust="spacing" textLength="166.1753" x="101.0171" y="227.8525">displays the list of customers</text><polygon fill="#181818" points="607.3291,260.4063,617.3291,264.4063,607.3291,268.4063,611.3291,264.4063" style="stroke:#181818;stroke-width:1.0;"/><line style="stroke:#181818;stroke-width:1.0;" x1="84.0171" x2="613.3291" y1="264.4063" y2="264.4063"/><text fill="#000000" font-family="sans-serif" font-size="13" lengthAdjust="spacing" textLength="119.2153" x="91.0171" y="259.1436">selects the costumer</text><polygon fill="#181818" points="95.0171,291.6973,85.0171,295.6973,95.0171,299.6973,91.0171,295.6973" style="stroke:#181818;stroke-width:1.0;"/><line style="stroke:#181818;stroke-width:1.0;" x1="89.0171" x2="623.3291" y1="295.6973" y2="295.6973"/><text fill="#000000" font-family="sans-serif" font-size="13" lengthAdjust="spacing" textLength="344.665" x="101.0171" y="290.4346">Displays the list of show request associated to the customer</text><polygon fill="#181818" points="607.3291,322.9883,617.3291,326.9883,607.3291,330.9883,611.3291,326.9883" style="stroke:#181818;stroke-width:1.0;"/><line style="stroke:#181818;stroke-width:1.0;" x1="84.0171" x2="613.3291" y1="326.9883" y2="326.9883"/><text fill="#000000" font-family="sans-serif" font-size="13" lengthAdjust="spacing" textLength="132.2344" x="91.0171" y="321.7256">selects a show request</text><polygon fill="#181818" points="95.0171,354.2793,85.0171,358.2793,95.0171,362.2793,91.0171,358.2793" style="stroke:#181818;stroke-width:1.0;"/><line style="stroke:#181818;stroke-width:1.0;" x1="89.0171" x2="623.3291" y1="358.2793" y2="358.2793"/><text fill="#000000" font-family="sans-serif" font-size="13" lengthAdjust="spacing" textLength="238.4497" x="101.0171" y="353.0166">displays current show proposal templates</text><polygon fill="#181818" points="607.3291,385.5703,617.3291,389.5703,607.3291,393.5703,611.3291,389.5703" style="stroke:#181818;stroke-width:1.0;"/><line style="stroke:#181818;stroke-width:1.0;" x1="84.0171" x2="613.3291" y1="389.5703" y2="389.5703"/><text fill="#000000" font-family="sans-serif" font-size="13" lengthAdjust="spacing" textLength="104.7744" x="91.0171" y="384.3076">selects a template</text><polygon fill="#181818" points="95.0171,434.1523,85.0171,438.1523,95.0171,442.1523,91.0171,438.1523" style="stroke:#181818;stroke-width:1.0;"/><line style="stroke:#181818;stroke-width:1.0;" x1="89.0171" x2="623.3291" y1="438.1523" y2="438.1523"/><text fill="#000000" font-family="sans-serif" font-size="13" lengthAdjust="spacing" textLength="458.1357" x="101.0171" y="415.5986">displays the current attributes of the show request(location, date, time, duration,</text><text fill="#000000" font-family="sans-serif" font-size="13" lengthAdjust="spacing" textLength="454.5303" x="101.0171" y="432.8896">total number of drones) and asks the user if he wants to change the attribute(s)</text><polygon fill="#181818" points="607.3291,465.4434,617.3291,469.4434,607.3291,473.4434,611.3291,469.4434" style="stroke:#181818;stroke-width:1.0;"/><line style="stroke:#181818;stroke-width:1.0;" x1="84.0171" x2="613.3291" y1="469.4434" y2="469.4434"/><text fill="#000000" font-family="sans-serif" font-size="13" lengthAdjust="spacing" textLength="516.312" x="91.0171" y="464.1807">selects the attribute he wants to change or selects the option to don't change any attribute</text><path d="M10,484.4434 L70.1709,484.4434 L70.1709,493.7344 L60.1709,503.7344 L10,503.7344 L10,484.4434 " fill="#EEEEEE" style="stroke:#000000;stroke-width:1.5;"/><rect fill="none" height="81.873" style="stroke:#000000;stroke-width:1.5;" width="654.667" x="10" y="484.4434"/><text fill="#000000" font-family="sans-serif" font-size="13" font-weight="bold" lengthAdjust="spacing" textLength="15.1709" x="25" y="499.4717">alt</text><text fill="#000000" font-family="sans-serif" font-size="11" font-weight="bold" lengthAdjust="spacing" textLength="275.6553" x="85.1709" y="498.3135">[If the user wants to change the attributes displayed]</text><polygon fill="#181818" points="95.0171,523.0254,85.0171,527.0254,95.0171,531.0254,91.0171,527.0254" style="stroke:#181818;stroke-width:1.0;"/><line style="stroke:#181818;stroke-width:1.0;" x1="89.0171" x2="623.3291" y1="527.0254" y2="527.0254"/><text fill="#000000" font-family="sans-serif" font-size="13" lengthAdjust="spacing" textLength="180.6797" x="101.0171" y="521.7627">request the data of the attribute</text><polygon fill="#181818" points="607.3291,554.3164,617.3291,558.3164,607.3291,562.3164,611.3291,558.3164" style="stroke:#181818;stroke-width:1.0;"/><line style="stroke:#181818;stroke-width:1.0;" x1="84.0171" x2="613.3291" y1="558.3164" y2="558.3164"/><text fill="#000000" font-family="sans-serif" font-size="13" lengthAdjust="spacing" textLength="121.418" x="91.0171" y="553.0537">types requested data</text><polygon fill="#181818" points="95.0171,592.6074,85.0171,596.6074,95.0171,600.6074,91.0171,596.6074" style="stroke:#181818;stroke-width:1.0;"/><line style="stroke:#181818;stroke-width:1.0;" x1="89.0171" x2="623.3291" y1="596.6074" y2="596.6074"/><text fill="#000000" font-family="sans-serif" font-size="13" lengthAdjust="spacing" textLength="155.3589" x="101.0171" y="591.3447">displays operation success</text><!--SRC=[hLDBQnj13Bxlhn2-D844MdeBk52SIm-5KjDRB_ACR0-U7Mr7sXh_-shsuHUESPBkmQmbxVVGGpOXDPYnXfeJktNcca1pIvNiCmsw3Qvehhj8aCaffbKyBf0rUjw6j88bHg6gGgUSOJBx-Hrc72CkEAD59e02BjV7iSeWDBZGO5AOp7UYL7TrqhrMbGOrsZu1S_hJKd84pm5NXVeHViq_V_fOLTCfp3AXMkcQj_0ZSyE24QRJeYRyBPbpwWhiEGl2uvU16fxWgsm4b47KH5gbuHUNQ8wDenauEfWzoQWRXcS0CzXpfYVmGPg8E-DO4yGW2hm4ruhQ5B9q49uk8bzJBHHjI3seOz7MmDwkyVcIniv_BiEm_oZ2BXYkBxtgM0SBxtM09qGNFPJOwthjsfp9bkraXc3VMLhffQxlUMxJFS9Tx_ljop6AHjKS5gtfB6CecUCEtKLsjgAS7i0RtmDegEtNjtc8_axAQcvJMoye5mYVEP7S0oPlWzpqRArOCYp1NhTsbzqDkBMTFNNflOWxkVyVIxh7kqHetntNSbESbBpdz477Aaox0qpVzAZmRNcmSzM8ZDqc_uw9ZGTHeAt_E8xeLDWRcgMxnYGEy7Pc1VowJah-fgiuR1atr6y9IEiSoKk7y0y0]--></g></svg>