<svg xmlns="http://www.w3.org/2000/svg" xmlns:xlink="http://www.w3.org/1999/xlink" contentStyleType="text/css" height="651px" preserveAspectRatio="none" style="width:632px;height:651px;background:#FFFFFF;" version="1.1" viewBox="0 0 632 651" width="632px" zoomAndPan="magnify"><title>System Sequence Diagram - US310</title><defs/><g><text fill="#000000" font-family="sans-serif" font-size="14" font-weight="bold" lengthAdjust="spacing" textLength="234.9922" x="194.5552" y="30.1074">System Sequence Diagram - US310</text><rect fill="#FFFFFF" height="426.4141" style="stroke:#181818;stroke-width:1.0;" width="10" x="74.0171" y="133.2422"/><rect fill="#FFFFFF" height="31.291" style="stroke:#181818;stroke-width:1.0;" width="10" x="569.7646" y="201.8242"/><rect fill="#FFFFFF" height="31.291" style="stroke:#181818;stroke-width:1.0;" width="10" x="569.7646" y="264.4063"/><rect fill="#FFFFFF" height="48.582" style="stroke:#181818;stroke-width:1.0;" width="10" x="569.7646" y="326.9883"/><rect fill="#FFFFFF" height="31.291" style="stroke:#181818;stroke-width:1.0;" width="10" x="569.7646" y="433.1523"/><rect fill="#FFFFFF" height="31.291" style="stroke:#181818;stroke-width:1.0;" width="10" x="569.7646" y="512.3652"/><rect fill="none" height="161.0859" style="stroke:#000000;stroke-width:1.5;" width="605.1025" x="10" y="390.5703"/><line style="stroke:#181818;stroke-width:0.5;stroke-dasharray:5.0,5.0;" x1="79" x2="79" y1="123.2422" y2="568.6563"/><line style="stroke:#181818;stroke-width:0.5;stroke-dasharray:5.0,5.0;" x1="574.4268" x2="574.4268" y1="123.2422" y2="568.6563"/><text fill="#000000" font-family="sans-serif" font-size="14" lengthAdjust="spacing" textLength="112.0342" x="20" y="119.7285">CRM Collaborator</text><ellipse cx="79.0171" cy="53.1211" fill="#E3E3E3" rx="8" ry="8" style="stroke:#181818;stroke-width:0.5;"/><path d="M79.0171,61.1211 L79.0171,88.1211 M66.0171,69.1211 L92.0171,69.1211 M79.0171,88.1211 L66.0171,103.1211 M79.0171,88.1211 L92.0171,103.1211 " fill="none" style="stroke:#181818;stroke-width:0.5;"/><text fill="#000000" font-family="sans-serif" font-size="14" lengthAdjust="spacing" textLength="112.0342" x="20" y="582.7637">CRM Collaborator</text><ellipse cx="79.0171" cy="594.7773" fill="#E3E3E3" rx="8" ry="8" style="stroke:#181818;stroke-width:0.5;"/><path d="M79.0171,602.7773 L79.0171,629.7773 M66.0171,610.7773 L92.0171,610.7773 M79.0171,629.7773 L66.0171,644.7773 M79.0171,629.7773 L92.0171,644.7773 " fill="none" style="stroke:#181818;stroke-width:0.5;"/><rect fill="#E3E3E3" height="32.6211" rx="2.5" ry="2.5" style="stroke:#181818;stroke-width:0.5;" width="60.6758" x="544.4268" y="89.6211"/><text fill="#000000" font-family="sans-serif" font-size="14" lengthAdjust="spacing" textLength="46.6758" x="551.4268" y="111.7285">System</text><rect fill="#E3E3E3" height="32.6211" rx="2.5" ry="2.5" style="stroke:#181818;stroke-width:0.5;" width="60.6758" x="544.4268" y="567.6563"/><text fill="#000000" font-family="sans-serif" font-size="14" lengthAdjust="spacing" textLength="46.6758" x="551.4268" y="589.7637">System</text><rect fill="#FFFFFF" height="426.4141" style="stroke:#181818;stroke-width:1.0;" width="10" x="74.0171" y="133.2422"/><rect fill="#FFFFFF" height="31.291" style="stroke:#181818;stroke-width:1.0;" width="10" x="569.7646" y="201.8242"/><rect fill="#FFFFFF" height="31.291" style="stroke:#181818;stroke-width:1.0;" width="10" x="569.7646" y="264.4063"/><rect fill="#FFFFFF" height="48.582" style="stroke:#181818;stroke-width:1.0;" width="10" x="569.7646" y="326.9883"/><rect fill="#FFFFFF" height="31.291" style="stroke:#181818;stroke-width:1.0;" width="10" x="569.7646" y="433.1523"/><rect fill="#FFFFFF" height="31.291" style="stroke:#181818;stroke-width:1.0;" width="10" x="569.7646" y="512.3652"/><rect fill="#EEEEEE" height="3" style="stroke:#EEEEEE;stroke-width:1.0;" width="625.1025" x="0" y="154.8877"/><line style="stroke:#000000;stroke-width:1.0;" x1="0" x2="625.1025" y1="154.8877" y2="154.8877"/><line style="stroke:#000000;stroke-width:1.0;" x1="0" x2="625.1025" y1="157.8877" y2="157.8877"/><rect fill="#EEEEEE" height="25.291" style="stroke:#000000;stroke-width:2.0;" width="155.5908" x="234.7559" y="143.2422"/><text fill="#000000" font-family="sans-serif" font-size="13" font-weight="bold" lengthAdjust="spacing" textLength="137.979" x="240.7559" y="161.2705">Create Show Proposal</text><polygon fill="#181818" points="557.7646,197.8242,567.7646,201.8242,557.7646,205.8242,561.7646,201.8242" style="stroke:#181818;stroke-width:1.0;"/><line style="stroke:#181818;stroke-width:1.0;" x1="84.0171" x2="563.7646" y1="201.8242" y2="201.8242"/><text fill="#000000" font-family="sans-serif" font-size="13" lengthAdjust="spacing" textLength="219.6606" x="91.0171" y="196.5615">Asks to start creating a show proposal</text><polygon fill="#181818" points="95.0171,229.1152,85.0171,233.1152,95.0171,237.1152,91.0171,233.1152" style="stroke:#181818;stroke-width:1.0;"/><line style="stroke:#181818;stroke-width:1.0;" x1="89.0171" x2="573.7646" y1="233.1152" y2="233.1152"/><text fill="#000000" font-family="sans-serif" font-size="13" lengthAdjust="spacing" textLength="166.1753" x="101.0171" y="227.8525">displays the list of customers</text><polygon fill="#181818" points="557.7646,260.4063,567.7646,264.4063,557.7646,268.4063,561.7646,264.4063" style="stroke:#181818;stroke-width:1.0;"/><line style="stroke:#181818;stroke-width:1.0;" x1="84.0171" x2="563.7646" y1="264.4063" y2="264.4063"/><text fill="#000000" font-family="sans-serif" font-size="13" lengthAdjust="spacing" textLength="119.2153" x="91.0171" y="259.1436">selects the costumer</text><polygon fill="#181818" points="95.0171,291.6973,85.0171,295.6973,95.0171,299.6973,91.0171,295.6973" style="stroke:#181818;stroke-width:1.0;"/><line style="stroke:#181818;stroke-width:1.0;" x1="89.0171" x2="573.7646" y1="295.6973" y2="295.6973"/><text fill="#000000" font-family="sans-serif" font-size="13" lengthAdjust="spacing" textLength="344.665" x="101.0171" y="290.4346">Displays the list of show request associated to the customer</text><polygon fill="#181818" points="557.7646,322.9883,567.7646,326.9883,557.7646,330.9883,561.7646,326.9883" style="stroke:#181818;stroke-width:1.0;"/><line style="stroke:#181818;stroke-width:1.0;" x1="84.0171" x2="563.7646" y1="326.9883" y2="326.9883"/><text fill="#000000" font-family="sans-serif" font-size="13" lengthAdjust="spacing" textLength="132.2344" x="91.0171" y="321.7256">selects a show request</text><polygon fill="#181818" points="95.0171,371.5703,85.0171,375.5703,95.0171,379.5703,91.0171,375.5703" style="stroke:#181818;stroke-width:1.0;"/><line style="stroke:#181818;stroke-width:1.0;" x1="89.0171" x2="573.7646" y1="375.5703" y2="375.5703"/><text fill="#000000" font-family="sans-serif" font-size="13" lengthAdjust="spacing" textLength="458.1357" x="101.0171" y="353.0166">displays the current attributes of the show request(location, date, time, duration,</text><text fill="#000000" font-family="sans-serif" font-size="13" lengthAdjust="spacing" textLength="454.5303" x="101.0171" y="370.3076">total number of drones) and asks the user if he wants to change the attribute(s)</text><path d="M10,390.5703 L70.1709,390.5703 L70.1709,399.8613 L60.1709,409.8613 L10,409.8613 L10,390.5703 " fill="#EEEEEE" style="stroke:#000000;stroke-width:1.5;"/><rect fill="none" height="161.0859" style="stroke:#000000;stroke-width:1.5;" width="605.1025" x="10" y="390.5703"/><text fill="#000000" font-family="sans-serif" font-size="13" font-weight="bold" lengthAdjust="spacing" textLength="15.1709" x="25" y="405.5986">alt</text><text fill="#000000" font-family="sans-serif" font-size="11" font-weight="bold" lengthAdjust="spacing" textLength="275.6553" x="85.1709" y="404.4404">[If the user wants to change the attributes displayed]</text><polygon fill="#181818" points="557.7646,429.1523,567.7646,433.1523,557.7646,437.1523,561.7646,433.1523" style="stroke:#181818;stroke-width:1.0;"/><line style="stroke:#181818;stroke-width:1.0;" x1="84.0171" x2="563.7646" y1="433.1523" y2="433.1523"/><text fill="#000000" font-family="sans-serif" font-size="13" lengthAdjust="spacing" textLength="399.6484" x="91.0171" y="427.8896">selects the attribute he wants to change and the data for that attribute</text><polygon fill="#181818" points="95.0171,460.4434,85.0171,464.4434,95.0171,468.4434,91.0171,464.4434" style="stroke:#181818;stroke-width:1.0;"/><line style="stroke:#181818;stroke-width:1.0;" x1="89.0171" x2="573.7646" y1="464.4434" y2="464.4434"/><text fill="#000000" font-family="sans-serif" font-size="13" lengthAdjust="spacing" textLength="155.3589" x="101.0171" y="459.1807">displays operation success</text><line style="stroke:#000000;stroke-width:1.0;stroke-dasharray:2.0,2.0;" x1="10" x2="615.1025" y1="473.4434" y2="473.4434"/><text fill="#000000" font-family="sans-serif" font-size="11" font-weight="bold" lengthAdjust="spacing" textLength="251.3511" x="15" y="485.3135">[If the user doesn't want to change the attribute]</text><polygon fill="#181818" points="557.7646,508.3652,567.7646,512.3652,557.7646,516.3652,561.7646,512.3652" style="stroke:#181818;stroke-width:1.0;"/><line style="stroke:#181818;stroke-width:1.0;" x1="84.0171" x2="563.7646" y1="512.3652" y2="512.3652"/><text fill="#000000" font-family="sans-serif" font-size="13" lengthAdjust="spacing" textLength="265.5542" x="91.0171" y="507.1025">selects the option to don't change the attribute</text><polygon fill="#181818" points="95.0171,539.6563,85.0171,543.6563,95.0171,547.6563,91.0171,543.6563" style="stroke:#181818;stroke-width:1.0;"/><line style="stroke:#181818;stroke-width:1.0;" x1="89.0171" x2="573.7646" y1="543.6563" y2="543.6563"/><text fill="#000000" font-family="sans-serif" font-size="13" lengthAdjust="spacing" textLength="155.3589" x="101.0171" y="538.3936">displays operation success</text><!--SRC=[lLJDQjj04BxhAGPVca02ARq5N2ZEfOT0gUcjb_7ko5gysb5tHZL- -ywk5TTn7KFQK1s4j3DyVpEIR48QC6CFFITsNUQUGFD8ZHmg0xeDhccfkqYGoIccTJnka0uzRqDQGujHg6dGAMUOBRu-me9Zn1Ldj9CPe83B_V5POn0QN1WmASoMEr7gQv_KnwRHe4QxBy2IVeoK7C53m7MXleLlom_lxvfcFeT59bHhxNWBNp8FB1XXFYzgmizIEQLkmAwJGxZzE573FNoIZO0oY9f8wpJyuXBDiN4C4qU5EP0ywORfci0CzfJf7doG8UBEE3g264I1Mt2Zg4qXIuNmT1RvacgXQ4FQWpeM7GtixpK-dDDO_USo37j74NR1S7t9gh9E5lxL0JuZUgEStPWpsRAXQWwhKKcAer8v9hkAx6pQd6x06zqDQEZjxiSydNvFoceBbiP-HRb0-Co9v1emUSjaisSRnOgX1NlSsehNTNATVK5KomSHLt9zAIsC2f_RtuWNiUJ9CFbNBSi1u9pQugeqMHe8hQ5eXqSXli5mUA1zk22ZSoGNFm2o7yspH3oJf7TQTRyKpAlIuA5gCIZF1VX5mF_ZkffEllcpyWi0]--></g></svg>