<svg xmlns="http://www.w3.org/2000/svg" xmlns:xlink="http://www.w3.org/1999/xlink" contentStyleType="text/css" height="635px" preserveAspectRatio="none" style="width:681px;height:635px;background:#FFFFFF;" version="1.1" viewBox="0 0 681 635" width="681px" zoomAndPan="magnify"><title>System Sequence Diagram - US310</title><defs/><g><text fill="#000000" font-family="sans-serif" font-size="14" font-weight="bold" lengthAdjust="spacing" textLength="234.9922" x="219.3374" y="30.1074">System Sequence Diagram - US310</text><rect fill="#FFFFFF" height="409.7832" style="stroke:#181818;stroke-width:1.0;" width="10" x="74.0171" y="133.2422"/><rect fill="#FFFFFF" height="31.291" style="stroke:#181818;stroke-width:1.0;" width="10" x="619.3291" y="201.8242"/><rect fill="#FFFFFF" height="31.291" style="stroke:#181818;stroke-width:1.0;" width="10" x="619.3291" y="264.4063"/><rect fill="#FFFFFF" height="48.582" style="stroke:#181818;stroke-width:1.0;" width="10" x="619.3291" y="326.9883"/><rect fill="#FFFFFF" height="57.582" style="stroke:#181818;stroke-width:1.0;" width="10" x="619.3291" y="406.8613"/><rect fill="#FFFFFF" height="38.291" style="stroke:#181818;stroke-width:1.0;" width="10" x="619.3291" y="495.7344"/><rect fill="none" height="81.873" style="stroke:#000000;stroke-width:1.5;" width="654.667" x="10" y="421.8613"/><line style="stroke:#181818;stroke-width:0.5;stroke-dasharray:5.0,5.0;" x1="79" x2="79" y1="123.2422" y2="552.0254"/><line style="stroke:#181818;stroke-width:0.5;stroke-dasharray:5.0,5.0;" x1="623.9912" x2="623.9912" y1="123.2422" y2="552.0254"/><text fill="#000000" font-family="sans-serif" font-size="14" lengthAdjust="spacing" textLength="112.0342" x="20" y="119.7285">CRM Collaborator</text><ellipse cx="79.0171" cy="53.1211" fill="#E3E3E3" rx="8" ry="8" style="stroke:#181818;stroke-width:0.5;"/><path d="M79.0171,61.1211 L79.0171,88.1211 M66.0171,69.1211 L92.0171,69.1211 M79.0171,88.1211 L66.0171,103.1211 M79.0171,88.1211 L92.0171,103.1211 " fill="none" style="stroke:#181818;stroke-width:0.5;"/><text fill="#000000" font-family="sans-serif" font-size="14" lengthAdjust="spacing" textLength="112.0342" x="20" y="566.1328">CRM Collaborator</text><ellipse cx="79.0171" cy="578.1465" fill="#E3E3E3" rx="8" ry="8" style="stroke:#181818;stroke-width:0.5;"/><path d="M79.0171,586.1465 L79.0171,613.1465 M66.0171,594.1465 L92.0171,594.1465 M79.0171,613.1465 L66.0171,628.1465 M79.0171,613.1465 L92.0171,628.1465 " fill="none" style="stroke:#181818;stroke-width:0.5;"/><rect fill="#E3E3E3" height="32.6211" rx="2.5" ry="2.5" style="stroke:#181818;stroke-width:0.5;" width="60.6758" x="593.9912" y="89.6211"/><text fill="#000000" font-family="sans-serif" font-size="14" lengthAdjust="spacing" textLength="46.6758" x="600.9912" y="111.7285">System</text><rect fill="#E3E3E3" height="32.6211" rx="2.5" ry="2.5" style="stroke:#181818;stroke-width:0.5;" width="60.6758" x="593.9912" y="551.0254"/><text fill="#000000" font-family="sans-serif" font-size="14" lengthAdjust="spacing" textLength="46.6758" x="600.9912" y="573.1328">System</text><rect fill="#FFFFFF" height="409.7832" style="stroke:#181818;stroke-width:1.0;" width="10" x="74.0171" y="133.2422"/><rect fill="#FFFFFF" height="31.291" style="stroke:#181818;stroke-width:1.0;" width="10" x="619.3291" y="201.8242"/><rect fill="#FFFFFF" height="31.291" style="stroke:#181818;stroke-width:1.0;" width="10" x="619.3291" y="264.4063"/><rect fill="#FFFFFF" height="48.582" style="stroke:#181818;stroke-width:1.0;" width="10" x="619.3291" y="326.9883"/><rect fill="#FFFFFF" height="57.582" style="stroke:#181818;stroke-width:1.0;" width="10" x="619.3291" y="406.8613"/><rect fill="#FFFFFF" height="38.291" style="stroke:#181818;stroke-width:1.0;" width="10" x="619.3291" y="495.7344"/><rect fill="#EEEEEE" height="3" style="stroke:#EEEEEE;stroke-width:1.0;" width="674.667" x="0" y="154.8877"/><line style="stroke:#000000;stroke-width:1.0;" x1="0" x2="674.667" y1="154.8877" y2="154.8877"/><line style="stroke:#000000;stroke-width:1.0;" x1="0" x2="674.667" y1="157.8877" y2="157.8877"/><rect fill="#EEEEEE" height="25.291" style="stroke:#000000;stroke-width:2.0;" width="155.5908" x="259.5381" y="143.2422"/><text fill="#000000" font-family="sans-serif" font-size="13" font-weight="bold" lengthAdjust="spacing" textLength="137.979" x="265.5381" y="161.2705">Create Show Proposal</text><polygon fill="#181818" points="607.3291,197.8242,617.3291,201.8242,607.3291,205.8242,611.3291,201.8242" style="stroke:#181818;stroke-width:1.0;"/><line style="stroke:#181818;stroke-width:1.0;" x1="84.0171" x2="613.3291" y1="201.8242" y2="201.8242"/><text fill="#000000" font-family="sans-serif" font-size="13" lengthAdjust="spacing" textLength="219.6606" x="91.0171" y="196.5615">Asks to start creating a show proposal</text><polygon fill="#181818" points="95.0171,229.1152,85.0171,233.1152,95.0171,237.1152,91.0171,233.1152" style="stroke:#181818;stroke-width:1.0;"/><line style="stroke:#181818;stroke-width:1.0;" x1="89.0171" x2="623.3291" y1="233.1152" y2="233.1152"/><text fill="#000000" font-family="sans-serif" font-size="13" lengthAdjust="spacing" textLength="166.1753" x="101.0171" y="227.8525">displays the list of customers</text><polygon fill="#181818" points="607.3291,260.4063,617.3291,264.4063,607.3291,268.4063,611.3291,264.4063" style="stroke:#181818;stroke-width:1.0;"/><line style="stroke:#181818;stroke-width:1.0;" x1="84.0171" x2="613.3291" y1="264.4063" y2="264.4063"/><text fill="#000000" font-family="sans-serif" font-size="13" lengthAdjust="spacing" textLength="119.2153" x="91.0171" y="259.1436">selects the costumer</text><polygon fill="#181818" points="95.0171,291.6973,85.0171,295.6973,95.0171,299.6973,91.0171,295.6973" style="stroke:#181818;stroke-width:1.0;"/><line style="stroke:#181818;stroke-width:1.0;" x1="89.0171" x2="623.3291" y1="295.6973" y2="295.6973"/><text fill="#000000" font-family="sans-serif" font-size="13" lengthAdjust="spacing" textLength="344.665" x="101.0171" y="290.4346">Displays the list of show request associated to the customer</text><polygon fill="#181818" points="607.3291,322.9883,617.3291,326.9883,607.3291,330.9883,611.3291,326.9883" style="stroke:#181818;stroke-width:1.0;"/><line style="stroke:#181818;stroke-width:1.0;" x1="84.0171" x2="613.3291" y1="326.9883" y2="326.9883"/><text fill="#000000" font-family="sans-serif" font-size="13" lengthAdjust="spacing" textLength="132.2344" x="91.0171" y="321.7256">selects a show request</text><polygon fill="#181818" points="95.0171,371.5703,85.0171,375.5703,95.0171,379.5703,91.0171,375.5703" style="stroke:#181818;stroke-width:1.0;"/><line style="stroke:#181818;stroke-width:1.0;" x1="89.0171" x2="623.3291" y1="375.5703" y2="375.5703"/><text fill="#000000" font-family="sans-serif" font-size="13" lengthAdjust="spacing" textLength="458.1357" x="101.0171" y="353.0166">displays the current attributes of the show request(location, date, time, duration,</text><text fill="#000000" font-family="sans-serif" font-size="13" lengthAdjust="spacing" textLength="454.5303" x="101.0171" y="370.3076">total number of drones) and asks the user if he wants to change the attribute(s)</text><polygon fill="#181818" points="607.3291,402.8613,617.3291,406.8613,607.3291,410.8613,611.3291,406.8613" style="stroke:#181818;stroke-width:1.0;"/><line style="stroke:#181818;stroke-width:1.0;" x1="84.0171" x2="613.3291" y1="406.8613" y2="406.8613"/><text fill="#000000" font-family="sans-serif" font-size="13" lengthAdjust="spacing" textLength="516.312" x="91.0171" y="401.5986">selects the attribute he wants to change or selects the option to don't change any attribute</text><path d="M10,421.8613 L70.1709,421.8613 L70.1709,431.1523 L60.1709,441.1523 L10,441.1523 L10,421.8613 " fill="#EEEEEE" style="stroke:#000000;stroke-width:1.5;"/><rect fill="none" height="81.873" style="stroke:#000000;stroke-width:1.5;" width="654.667" x="10" y="421.8613"/><text fill="#000000" font-family="sans-serif" font-size="13" font-weight="bold" lengthAdjust="spacing" textLength="15.1709" x="25" y="436.8896">alt</text><text fill="#000000" font-family="sans-serif" font-size="11" font-weight="bold" lengthAdjust="spacing" textLength="275.6553" x="85.1709" y="435.7314">[If the user wants to change the attributes displayed]</text><polygon fill="#181818" points="95.0171,460.4434,85.0171,464.4434,95.0171,468.4434,91.0171,464.4434" style="stroke:#181818;stroke-width:1.0;"/><line style="stroke:#181818;stroke-width:1.0;" x1="89.0171" x2="623.3291" y1="464.4434" y2="464.4434"/><text fill="#000000" font-family="sans-serif" font-size="13" lengthAdjust="spacing" textLength="180.6797" x="101.0171" y="459.1807">request the data of the attribute</text><polygon fill="#181818" points="607.3291,491.7344,617.3291,495.7344,607.3291,499.7344,611.3291,495.7344" style="stroke:#181818;stroke-width:1.0;"/><line style="stroke:#181818;stroke-width:1.0;" x1="84.0171" x2="613.3291" y1="495.7344" y2="495.7344"/><text fill="#000000" font-family="sans-serif" font-size="13" lengthAdjust="spacing" textLength="121.418" x="91.0171" y="490.4717">types requested data</text><polygon fill="#181818" points="95.0171,530.0254,85.0171,534.0254,95.0171,538.0254,91.0171,534.0254" style="stroke:#181818;stroke-width:1.0;"/><line style="stroke:#181818;stroke-width:1.0;" x1="89.0171" x2="623.3291" y1="534.0254" y2="534.0254"/><text fill="#000000" font-family="sans-serif" font-size="13" lengthAdjust="spacing" textLength="155.3589" x="101.0171" y="528.7627">displays operation success</text><!--SRC=[fLFDRjim3BxxAOXSsW8jq66t0Xamf9ST1WmBTjk5aPXOY2nw8ht0Rp_ASPmqIBkWrS6mIVhx8IdPXjHYnWOQJkpgp0s1veugcJ8jkYrkQAbz9CZa5DCcdXP8ZPvt8MrWZL6egj0fPvWjVdw71SU8AyveaHcWWClDQQmo20qkj9WKPijUb9gXJeRNgjAWHhjFm9B-T9GSmNF0JQ5-W5_BpvyUgse-XqKcL2kjUGS_ChSi664-Bsh2tv8vfwx0pbaG7hwCrF04NsKhe0oY9j8g3R-uH7Di7Et8CS1C90VTC9uHp63FcPx01saZziPH4yGW2hm6rudQ5B8C49uk8h-bMYZQaFQWZaKx0tk_nkTB6WV_kGp3lb64NJ1SNteri8uMFke0Nn1Tz51Yau_hc-swdCas3bLpM7LAKcoLp2dZRMHd8-Tq3zuuxq53Oq_VvJ7wEochRLdgcXNb0k4p9v8xmEIjCTizMoUM36kmrvtj-R1JhhPhH4Dw4d4hTw-qRB9vxU0dp4kazjzfBRV5JSbxJZTwgCBK7s7spOyAtzP7Is-QaKF7oNzmSeT5A_0s1poCwgMuTpPD-zQaZXIsmeNW_tef-Qjkpt7hkANzre1qpf6yTht_0G00]--></g></svg>