<?xml version="1.0" encoding="us-ascii" standalone="no"?><svg xmlns="http://www.w3.org/2000/svg" xmlns:xlink="http://www.w3.org/1999/xlink" contentStyleType="text/css" height="941px" preserveAspectRatio="none" style="width:2700px;height:941px;background:#FFFFFF;" version="1.1" viewBox="0 0 2700 941" width="2700px" zoomAndPan="magnify"><defs/><g><text fill="#000000" font-family="sans-serif" font-size="14" font-weight="bold" lengthAdjust="spacing" textLength="132" x="1285.25" y="30.1074">Sequence Diagram</text><rect fill="#FFFFFF" height="707.043" style="stroke:#181818;stroke-width:1.0;" width="10" x="44.5" y="133.2422"/><rect fill="#FFFFFF" height="110.8242" style="stroke:#181818;stroke-width:1.0;" width="10" x="461.5" y="156.5332"/><rect fill="#FFFFFF" height="541.6367" style="stroke:#181818;stroke-width:1.0;" width="10" x="461.5" y="298.6484"/><rect fill="#FFFFFF" height="479.0547" style="stroke:#181818;stroke-width:1.0;" width="10" x="895.5" y="329.9395"/><rect fill="#FFFFFF" height="354.2305" style="stroke:#181818;stroke-width:1.0;" width="10" x="1376.5" y="440.7637"/><rect fill="#FFFFFF" height="124.8242" style="stroke:#181818;stroke-width:1.0;" width="10" x="1971.5" y="565.5879"/><rect fill="#FFFFFF" height="52.2422" style="stroke:#181818;stroke-width:1.0;" width="10" x="2451" y="606.8789"/><rect fill="#FFFFFF" height="59.291" style="stroke:#181818;stroke-width:1.0;" width="10" x="2561" y="721.7031"/><rect fill="#FFFFFF" height="14" style="stroke:#181818;stroke-width:1.0;" width="10" x="2660" y="752.9941"/><line style="stroke:#181818;stroke-width:0.5;stroke-dasharray:5.0,5.0;" x1="49" x2="49" y1="123.2422" y2="858.2852"/><line style="stroke:#181818;stroke-width:0.5;stroke-dasharray:5.0,5.0;" x1="466" x2="466" y1="123.2422" y2="858.2852"/><line style="stroke:#181818;stroke-width:0.5;stroke-dasharray:5.0,5.0;" x1="900.5" x2="900.5" y1="205.6543" y2="858.2852"/><line style="stroke:#181818;stroke-width:0.5;stroke-dasharray:5.0,5.0;" x1="1213.5" x2="1213.5" y1="379.0605" y2="858.2852"/><line style="stroke:#181818;stroke-width:0.5;stroke-dasharray:5.0,5.0;" x1="1381.5" x2="1381.5" y1="123.2422" y2="858.2852"/><line style="stroke:#181818;stroke-width:0.5;stroke-dasharray:5.0,5.0;" x1="1976" x2="1976" y1="489.8848" y2="858.2852"/><line style="stroke:#181818;stroke-width:0.5;stroke-dasharray:5.0,5.0;" x1="2455.5" x2="2455.5" y1="614.709" y2="858.2852"/><line style="stroke:#181818;stroke-width:0.5;stroke-dasharray:5.0,5.0;" x1="2565.5" x2="2565.5" y1="123.2422" y2="858.2852"/><line style="stroke:#181818;stroke-width:0.5;stroke-dasharray:5.0,5.0;" x1="2664.5" x2="2664.5" y1="123.2422" y2="858.2852"/><text fill="#000000" font-family="sans-serif" font-size="14" lengthAdjust="spacing" textLength="83" x="5" y="119.7285">Administrator</text><ellipse cx="49.5" cy="53.1211" fill="#E2E2F0" rx="8" ry="8" style="stroke:#181818;stroke-width:0.5;"/><path d="M49.5,61.1211 L49.5,88.1211 M36.5,69.1211 L62.5,69.1211 M49.5,88.1211 L36.5,103.1211 M49.5,88.1211 L62.5,103.1211 " fill="none" style="stroke:#181818;stroke-width:0.5;"/><text fill="#000000" font-family="sans-serif" font-size="14" lengthAdjust="spacing" textLength="83" x="5" y="872.3926">Administrator</text><ellipse cx="49.5" cy="884.4063" fill="#E2E2F0" rx="8" ry="8" style="stroke:#181818;stroke-width:0.5;"/><path d="M49.5,892.4063 L49.5,919.4063 M36.5,900.4063 L62.5,900.4063 M49.5,919.4063 L36.5,934.4063 M49.5,919.4063 L62.5,934.4063 " fill="none" style="stroke:#181818;stroke-width:0.5;"/><rect fill="#E2E2F0" height="51.2422" rx="2.5" ry="2.5" style="stroke:#181818;stroke-width:0.5;" width="109" x="412" y="71"/><text fill="#000000" font-family="sans-serif" font-size="14" font-style="italic" lengthAdjust="spacing" textLength="95" x="419" y="93.1074">&#171;presentation&#187;</text><text fill="#000000" font-family="sans-serif" font-size="14" lengthAdjust="spacing" textLength="66" x="433.5" y="111.7285">AddUserUI</text><rect fill="#E2E2F0" height="51.2422" rx="2.5" ry="2.5" style="stroke:#181818;stroke-width:0.5;" width="109" x="412" y="857.2852"/><text fill="#000000" font-family="sans-serif" font-size="14" font-style="italic" lengthAdjust="spacing" textLength="95" x="419" y="879.3926">&#171;presentation&#187;</text><text fill="#000000" font-family="sans-serif" font-size="14" lengthAdjust="spacing" textLength="66" x="433.5" y="898.0137">AddUserUI</text><rect fill="#E2E2F0" height="51.2422" rx="2.5" ry="2.5" style="stroke:#181818;stroke-width:0.5;" width="130" x="835.5" y="857.2852"/><text fill="#000000" font-family="sans-serif" font-size="14" font-style="italic" lengthAdjust="spacing" textLength="84" x="858.5" y="879.3926">&#171;application&#187;</text><text fill="#000000" font-family="sans-serif" font-size="14" lengthAdjust="spacing" textLength="116" x="842.5" y="898.0137">AddUserController</text><rect fill="#E2E2F0" height="51.2422" rx="2.5" ry="2.5" style="stroke:#181818;stroke-width:0.5;" width="143" x="1142.5" y="857.2852"/><text fill="#000000" font-family="sans-serif" font-size="14" font-style="italic" lengthAdjust="spacing" textLength="44" x="1192" y="879.3926">&#171;auth&#187;</text><text fill="#000000" font-family="sans-serif" font-size="14" lengthAdjust="spacing" textLength="129" x="1149.5" y="898.0137">AuthorizationService</text><rect fill="#E2E2F0" height="51.2422" rx="2.5" ry="2.5" style="stroke:#181818;stroke-width:0.5;" width="172" x="1295.5" y="71"/><text fill="#000000" font-family="sans-serif" font-size="14" font-style="italic" lengthAdjust="spacing" textLength="84" x="1339.5" y="93.1074">&#171;application&#187;</text><text fill="#000000" font-family="sans-serif" font-size="14" lengthAdjust="spacing" textLength="158" x="1302.5" y="111.7285">UserManagementService</text><rect fill="#E2E2F0" height="51.2422" rx="2.5" ry="2.5" style="stroke:#181818;stroke-width:0.5;" width="172" x="1295.5" y="857.2852"/><text fill="#000000" font-family="sans-serif" font-size="14" font-style="italic" lengthAdjust="spacing" textLength="84" x="1339.5" y="879.3926">&#171;application&#187;</text><text fill="#000000" font-family="sans-serif" font-size="14" lengthAdjust="spacing" textLength="158" x="1302.5" y="898.0137">UserManagementService</text><rect fill="#E2E2F0" height="51.2422" rx="2.5" ry="2.5" style="stroke:#181818;stroke-width:0.5;" width="133" x="1910" y="857.2852"/><text fill="#000000" font-family="sans-serif" font-size="14" font-style="italic" lengthAdjust="spacing" textLength="62" x="1945.5" y="879.3926">&#171;domain&#187;</text><text fill="#000000" font-family="sans-serif" font-size="14" lengthAdjust="spacing" textLength="119" x="1917" y="898.0137">SystemUserBuilder</text><rect fill="#E2E2F0" height="51.2422" rx="2.5" ry="2.5" style="stroke:#181818;stroke-width:0.5;" width="89" x="2411.5" y="857.2852"/><text fill="#000000" font-family="sans-serif" font-size="14" font-style="italic" lengthAdjust="spacing" textLength="62" x="2425" y="879.3926">&#171;domain&#187;</text><text fill="#000000" font-family="sans-serif" font-size="14" lengthAdjust="spacing" textLength="75" x="2418.5" y="898.0137">SystemUser</text><rect fill="#E2E2F0" height="51.2422" rx="2.5" ry="2.5" style="stroke:#181818;stroke-width:0.5;" width="111" x="2510.5" y="71"/><text fill="#000000" font-family="sans-serif" font-size="14" font-style="italic" lengthAdjust="spacing" textLength="79" x="2526.5" y="93.1074">&#171;repository&#187;</text><text fill="#000000" font-family="sans-serif" font-size="14" lengthAdjust="spacing" textLength="97" x="2517.5" y="111.7285">UserRepository</text><rect fill="#E2E2F0" height="51.2422" rx="2.5" ry="2.5" style="stroke:#181818;stroke-width:0.5;" width="111" x="2510.5" y="857.2852"/><text fill="#000000" font-family="sans-serif" font-size="14" font-style="italic" lengthAdjust="spacing" textLength="79" x="2526.5" y="879.3926">&#171;repository&#187;</text><text fill="#000000" font-family="sans-serif" font-size="14" lengthAdjust="spacing" textLength="97" x="2517.5" y="898.0137">UserRepository</text><text fill="#000000" font-family="sans-serif" font-size="14" lengthAdjust="spacing" textLength="61" x="2631.5" y="119.7285">Database</text><path d="M2647,68.6211 C2647,58.6211 2665,58.6211 2665,58.6211 C2665,58.6211 2683,58.6211 2683,68.6211 L2683,94.6211 C2683,104.6211 2665,104.6211 2665,104.6211 C2665,104.6211 2647,104.6211 2647,94.6211 L2647,68.6211 " fill="#E2E2F0" style="stroke:#181818;stroke-width:1.5;"/><path d="M2647,68.6211 C2647,78.6211 2665,78.6211 2665,78.6211 C2665,78.6211 2683,78.6211 2683,68.6211 " fill="none" style="stroke:#181818;stroke-width:1.5;"/><text fill="#000000" font-family="sans-serif" font-size="14" lengthAdjust="spacing" textLength="61" x="2631.5" y="872.3926">Database</text><path d="M2647,885.9063 C2647,875.9063 2665,875.9063 2665,875.9063 C2665,875.9063 2683,875.9063 2683,885.9063 L2683,911.9063 C2683,921.9063 2665,921.9063 2665,921.9063 C2665,921.9063 2647,921.9063 2647,911.9063 L2647,885.9063 " fill="#E2E2F0" style="stroke:#181818;stroke-width:1.5;"/><path d="M2647,885.9063 C2647,895.9063 2665,895.9063 2665,895.9063 C2665,895.9063 2683,895.9063 2683,885.9063 " fill="none" style="stroke:#181818;stroke-width:1.5;"/><rect fill="#FFFFFF" height="707.043" style="stroke:#181818;stroke-width:1.0;" width="10" x="44.5" y="133.2422"/><rect fill="#FFFFFF" height="110.8242" style="stroke:#181818;stroke-width:1.0;" width="10" x="461.5" y="156.5332"/><rect fill="#FFFFFF" height="541.6367" style="stroke:#181818;stroke-width:1.0;" width="10" x="461.5" y="298.6484"/><rect fill="#FFFFFF" height="479.0547" style="stroke:#181818;stroke-width:1.0;" width="10" x="895.5" y="329.9395"/><rect fill="#FFFFFF" height="354.2305" style="stroke:#181818;stroke-width:1.0;" width="10" x="1376.5" y="440.7637"/><rect fill="#FFFFFF" height="124.8242" style="stroke:#181818;stroke-width:1.0;" width="10" x="1971.5" y="565.5879"/><rect fill="#FFFFFF" height="52.2422" style="stroke:#181818;stroke-width:1.0;" width="10" x="2451" y="606.8789"/><rect fill="#FFFFFF" height="59.291" style="stroke:#181818;stroke-width:1.0;" width="10" x="2561" y="721.7031"/><rect fill="#FFFFFF" height="14" style="stroke:#181818;stroke-width:1.0;" width="10" x="2660" y="752.9941"/><polygon fill="#181818" points="449.5,152.5332,459.5,156.5332,449.5,160.5332,453.5,156.5332" style="stroke:#181818;stroke-width:1.0;"/><line style="stroke:#181818;stroke-width:1.0;" x1="54.5" x2="455.5" y1="156.5332" y2="156.5332"/><text fill="#000000" font-family="sans-serif" font-size="13" lengthAdjust="spacing" textLength="38" x="61.5" y="151.2705">show()</text><polygon fill="#181818" points="823.5,183.8242,833.5,187.8242,823.5,191.8242,827.5,187.8242" style="stroke:#181818;stroke-width:1.0;"/><line style="stroke:#181818;stroke-width:1.0;" x1="471.5" x2="829.5" y1="187.8242" y2="187.8242"/><text fill="#000000" font-family="sans-serif" font-size="13" lengthAdjust="spacing" textLength="44" x="478.5" y="182.5615">create()</text><rect fill="#E2E2F0" height="51.2422" rx="2.5" ry="2.5" style="stroke:#181818;stroke-width:0.5;" width="130" x="835.5" y="164.5332"/><text fill="#000000" font-family="sans-serif" font-size="14" font-style="italic" lengthAdjust="spacing" textLength="84" x="858.5" y="186.6406">&#171;application&#187;</text><text fill="#000000" font-family="sans-serif" font-size="14" lengthAdjust="spacing" textLength="116" x="842.5" y="205.2617">AddUserController</text><polygon fill="#181818" points="65.5,263.3574,55.5,267.3574,65.5,271.3574,61.5,267.3574" style="stroke:#181818;stroke-width:1.0;"/><line style="stroke:#181818;stroke-width:1.0;stroke-dasharray:2.0,2.0;" x1="59.5" x2="465.5" y1="267.3574" y2="267.3574"/><text fill="#000000" font-family="sans-serif" font-size="13" lengthAdjust="spacing" textLength="383" x="71.5" y="244.8037">Request User data (Username, Password, First Name, Last Name</text><text fill="#000000" font-family="sans-serif" font-size="13" lengthAdjust="spacing" textLength="86" x="75.5" y="262.0947">, Email, Roles)</text><polygon fill="#181818" points="449.5,294.6484,459.5,298.6484,449.5,302.6484,453.5,298.6484" style="stroke:#181818;stroke-width:1.0;"/><line style="stroke:#181818;stroke-width:1.0;" x1="54.5" x2="455.5" y1="298.6484" y2="298.6484"/><text fill="#000000" font-family="sans-serif" font-size="13" lengthAdjust="spacing" textLength="92" x="61.5" y="293.3857">Insert User data</text><polygon fill="#181818" points="883.5,325.9395,893.5,329.9395,883.5,333.9395,887.5,329.9395" style="stroke:#181818;stroke-width:1.0;"/><line style="stroke:#181818;stroke-width:1.0;" x1="471.5" x2="889.5" y1="329.9395" y2="329.9395"/><text fill="#000000" font-family="sans-serif" font-size="13" lengthAdjust="spacing" textLength="405" x="478.5" y="324.6768">addUser(username, password, firstName, lastName, email, roleTypes)</text><polygon fill="#181818" points="1130.5,357.2305,1140.5,361.2305,1130.5,365.2305,1134.5,361.2305" style="stroke:#181818;stroke-width:1.0;"/><line style="stroke:#181818;stroke-width:1.0;" x1="905.5" x2="1136.5" y1="361.2305" y2="361.2305"/><text fill="#000000" font-family="sans-serif" font-size="13" lengthAdjust="spacing" textLength="213" x="912.5" y="355.9678">ensureAuthenticatedUserHasAnyOf()</text><rect fill="#E2E2F0" height="51.2422" rx="2.5" ry="2.5" style="stroke:#181818;stroke-width:0.5;" width="143" x="1142.5" y="337.9395"/><text fill="#000000" font-family="sans-serif" font-size="14" font-style="italic" lengthAdjust="spacing" textLength="44" x="1192" y="360.0469">&#171;auth&#187;</text><text fill="#000000" font-family="sans-serif" font-size="14" lengthAdjust="spacing" textLength="129" x="1149.5" y="378.668">AuthorizationService</text><polygon fill="#181818" points="1364.5,436.7637,1374.5,440.7637,1364.5,444.7637,1368.5,440.7637" style="stroke:#181818;stroke-width:1.0;"/><line style="stroke:#181818;stroke-width:1.0;" x1="905.5" x2="1370.5" y1="440.7637" y2="440.7637"/><text fill="#000000" font-family="sans-serif" font-size="13" lengthAdjust="spacing" textLength="286" x="912.5" y="418.21">registerNewUser(username, password, firstName,</text><text fill="#000000" font-family="sans-serif" font-size="13" lengthAdjust="spacing" textLength="206" x="916.5" y="435.501">lastName, email, roles, createdOn);</text><polygon fill="#181818" points="1898,468.0547,1908,472.0547,1898,476.0547,1902,472.0547" style="stroke:#181818;stroke-width:1.0;"/><line style="stroke:#181818;stroke-width:1.0;" x1="1386.5" x2="1904" y1="472.0547" y2="472.0547"/><text fill="#000000" font-family="sans-serif" font-size="13" lengthAdjust="spacing" textLength="44" x="1393.5" y="466.792">create()</text><rect fill="#E2E2F0" height="51.2422" rx="2.5" ry="2.5" style="stroke:#181818;stroke-width:0.5;" width="133" x="1910" y="448.7637"/><text fill="#000000" font-family="sans-serif" font-size="14" font-style="italic" lengthAdjust="spacing" textLength="62" x="1945.5" y="470.8711">&#171;domain&#187;</text><text fill="#000000" font-family="sans-serif" font-size="14" lengthAdjust="spacing" textLength="119" x="1917" y="489.4922">SystemUserBuilder</text><polygon fill="#181818" points="1964.5,530.2969,1974.5,534.2969,1964.5,538.2969,1968.5,534.2969" style="stroke:#181818;stroke-width:1.0;"/><line style="stroke:#181818;stroke-width:1.0;" x1="1386.5" x2="1970.5" y1="534.2969" y2="534.2969"/><text fill="#000000" font-family="sans-serif" font-size="13" lengthAdjust="spacing" textLength="566" x="1393.5" y="529.0342">with(username, rawPassword, firstName, lastName, email).createdOn(createdOn).withRoles(roles)</text><polygon fill="#181818" points="1959.5,561.5879,1969.5,565.5879,1959.5,569.5879,1963.5,565.5879" style="stroke:#181818;stroke-width:1.0;"/><line style="stroke:#181818;stroke-width:1.0;" x1="1386.5" x2="1965.5" y1="565.5879" y2="565.5879"/><text fill="#000000" font-family="sans-serif" font-size="13" lengthAdjust="spacing" textLength="35" x="1393.5" y="560.3252">build()</text><polygon fill="#181818" points="2399.5,592.8789,2409.5,596.8789,2399.5,600.8789,2403.5,596.8789" style="stroke:#181818;stroke-width:1.0;"/><line style="stroke:#181818;stroke-width:1.0;" x1="1981.5" x2="2405.5" y1="596.8789" y2="596.8789"/><text fill="#000000" font-family="sans-serif" font-size="13" lengthAdjust="spacing" textLength="406" x="1988.5" y="591.6162">new SystemUser(username,password,name, email, roles, createdOn);</text><rect fill="#E2E2F0" height="51.2422" rx="2.5" ry="2.5" style="stroke:#181818;stroke-width:0.5;" width="89" x="2411.5" y="573.5879"/><text fill="#000000" font-family="sans-serif" font-size="14" font-style="italic" lengthAdjust="spacing" textLength="62" x="2425" y="595.6953">&#171;domain&#187;</text><text fill="#000000" font-family="sans-serif" font-size="14" lengthAdjust="spacing" textLength="75" x="2418.5" y="614.3164">SystemUser</text><polygon fill="#181818" points="1992.5,655.1211,1982.5,659.1211,1992.5,663.1211,1988.5,659.1211" style="stroke:#181818;stroke-width:1.0;"/><line style="stroke:#181818;stroke-width:1.0;stroke-dasharray:2.0,2.0;" x1="1986.5" x2="2455" y1="659.1211" y2="659.1211"/><text fill="#000000" font-family="sans-serif" font-size="13" lengthAdjust="spacing" textLength="50" x="1998.5" y="653.8584">newUser</text><polygon fill="#181818" points="1397.5,686.4121,1387.5,690.4121,1397.5,694.4121,1393.5,690.4121" style="stroke:#181818;stroke-width:1.0;"/><line style="stroke:#181818;stroke-width:1.0;stroke-dasharray:2.0,2.0;" x1="1391.5" x2="1975.5" y1="690.4121" y2="690.4121"/><text fill="#000000" font-family="sans-serif" font-size="13" lengthAdjust="spacing" textLength="50" x="1403.5" y="685.1494">newUser</text><polygon fill="#181818" points="2549,717.7031,2559,721.7031,2549,725.7031,2553,721.7031" style="stroke:#181818;stroke-width:1.0;"/><line style="stroke:#181818;stroke-width:1.0;" x1="1386.5" x2="2555" y1="721.7031" y2="721.7031"/><text fill="#000000" font-family="sans-serif" font-size="13" lengthAdjust="spacing" textLength="84" x="1393.5" y="716.4404">save(newUser)</text><polygon fill="#181818" points="2648,748.9941,2658,752.9941,2648,756.9941,2652,752.9941" style="stroke:#181818;stroke-width:1.0;"/><line style="stroke:#181818;stroke-width:1.0;" x1="2571" x2="2654" y1="752.9941" y2="752.9941"/><text fill="#000000" font-family="sans-serif" font-size="13" lengthAdjust="spacing" textLength="34" x="2578" y="747.7314">save()</text><polygon fill="#181818" points="2582,762.9941,2572,766.9941,2582,770.9941,2578,766.9941" style="stroke:#181818;stroke-width:1.0;"/><line style="stroke:#181818;stroke-width:1.0;stroke-dasharray:2.0,2.0;" x1="2576" x2="2664" y1="766.9941" y2="766.9941"/><polygon fill="#181818" points="1397.5,776.9941,1387.5,780.9941,1397.5,784.9941,1393.5,780.9941" style="stroke:#181818;stroke-width:1.0;"/><line style="stroke:#181818;stroke-width:1.0;stroke-dasharray:2.0,2.0;" x1="1391.5" x2="2565" y1="780.9941" y2="780.9941"/><polygon fill="#181818" points="916.5,790.9941,906.5,794.9941,916.5,798.9941,912.5,794.9941" style="stroke:#181818;stroke-width:1.0;"/><line style="stroke:#181818;stroke-width:1.0;stroke-dasharray:2.0,2.0;" x1="910.5" x2="1380.5" y1="794.9941" y2="794.9941"/><polygon fill="#181818" points="482.5,804.9941,472.5,808.9941,482.5,812.9941,478.5,808.9941" style="stroke:#181818;stroke-width:1.0;"/><line style="stroke:#181818;stroke-width:1.0;stroke-dasharray:2.0,2.0;" x1="476.5" x2="899.5" y1="808.9941" y2="808.9941"/><polygon fill="#181818" points="60.5,836.2852,50.5,840.2852,60.5,844.2852,56.5,840.2852" style="stroke:#181818;stroke-width:1.0;"/><line style="stroke:#181818;stroke-width:1.0;stroke-dasharray:2.0,2.0;" x1="54.5" x2="465.5" y1="840.2852" y2="840.2852"/><text fill="#000000" font-family="sans-serif" font-size="13" lengthAdjust="spacing" textLength="145" x="66.5" y="835.0225">Inform operation success</text><!--SRC=[fLPDZzem4BtxLumu0OBz0NI5HBkjYjJkhg3SUl4cis0fSLBRWEYlxzY4n4cSa6fzyjVCU_DcueaH9a7OufyZoWZXIV2zuYbZF3APWbMS2YcqKPnMBEVAY4ZaN1eOhU9ufr7jrYFW6dPhU7pC5MgKXXkHoUKoUFrB9etAaWILCwkMPCxpF15HsFfe3faIVztX5jL9HEWSX0wiAzfk-h3mFxdaUqo9fEyaUD9FQ7lH1bDh-FaeahW8fxLBJk8ivQB7lc7OQM4FDvXdMb0gBYNlQeiiLRaWwvWR_iOrmkYfc3cZsyAbM9oumKQMMMq9yoKbTm7wa9t74mOqIhlTcZ5AFDseyZYTmW8YXNHErzqndTTSBc1ZoqqR5m1OdZ2sKybJdC4hr_gSgNW6tuIYIyzkzmSlfhybpE0hAPJCO9Cbg2SinXgb8F-r900FaR5sB52CPamK4R-Mx_XOqinBck-MvfLbmcypl38a1_ZhabkMu8qIjW9XjGjsU0IiX85ATsAZr4U5zfYArvOhEghVkLx9oykxpKBJioTOoEqzAk7lPG4AzoGxgcSy3n2B4XcKIy-A-ebVvEHJYqgLiH2BDdMNq21XYgJrmTRBzsE-oDDPc8CdW-Bdrm5bCtae1HXNKZnOPwxYn-fQzn-czsPd7N6MEhSCmnhRqSQe0K-d2v1uzdOgRSeAaNVgeHCynBZdjlVapZlaaTSwxlRXVKU3C4C2zNnFDtms6BlCqF_LHgEHq6lFJpWku2UilpxgndtH5nGy9CA-zQCRwgJVGGbRzJ6uCqg4UIlKVbjFue5epV2wadileqCqxSXchNEnEnW3ta__wNUzb7Nu2w26kZ_ONloUgHIo79LhEw2FKOHQin3BjT_Uwtyg_m00]--></g></svg>