<svg xmlns="http://www.w3.org/2000/svg" xmlns:xlink="http://www.w3.org/1999/xlink" contentStyleType="text/css" height="458px" preserveAspectRatio="none" style="width:720px;height:458px;background:#FFFFFF;" version="1.1" viewBox="0 0 720 458" width="720px" zoomAndPan="magnify"><title>System Sequence Diagram - US220</title><defs/><g><text fill="#000000" font-family="sans-serif" font-size="14" font-weight="bold" lengthAdjust="spacing" textLength="234.9922" x="238.9858" y="30.1074">System Sequence Diagram - US220</text><rect fill="#FFFFFF" height="233.0371" style="stroke:#181818;stroke-width:1.0;" width="10" x="59.0171" y="133.2422"/><rect fill="#FFFFFF" height="48.582" style="stroke:#181818;stroke-width:1.0;" width="10" x="455.2778" y="201.8242"/><rect fill="#FFFFFF" height="75.582" style="stroke:#181818;stroke-width:1.0;" width="10" x="455.2778" y="281.6973"/><line style="stroke:#181818;stroke-width:0.5;stroke-dasharray:5.0,5.0;" x1="64" x2="64" y1="123.2422" y2="375.2793"/><line style="stroke:#181818;stroke-width:0.5;stroke-dasharray:5.0,5.0;" x1="459.9399" x2="459.9399" y1="123.2422" y2="375.2793"/><text fill="#000000" font-family="sans-serif" font-size="14" lengthAdjust="spacing" textLength="112.0342" x="5" y="119.7285">CRM Collaborator</text><ellipse cx="64.0171" cy="53.1211" fill="#E3E3E3" rx="8" ry="8" style="stroke:#181818;stroke-width:0.5;"/><path d="M64.0171,61.1211 L64.0171,88.1211 M51.0171,69.1211 L77.0171,69.1211 M64.0171,88.1211 L51.0171,103.1211 M64.0171,88.1211 L77.0171,103.1211 " fill="none" style="stroke:#181818;stroke-width:0.5;"/><text fill="#000000" font-family="sans-serif" font-size="14" lengthAdjust="spacing" textLength="112.0342" x="5" y="389.3867">CRM Collaborator</text><ellipse cx="64.0171" cy="401.4004" fill="#E3E3E3" rx="8" ry="8" style="stroke:#181818;stroke-width:0.5;"/><path d="M64.0171,409.4004 L64.0171,436.4004 M51.0171,417.4004 L77.0171,417.4004 M64.0171,436.4004 L51.0171,451.4004 M64.0171,436.4004 L77.0171,451.4004 " fill="none" style="stroke:#181818;stroke-width:0.5;"/><rect fill="#E3E3E3" height="32.6211" rx="2.5" ry="2.5" style="stroke:#181818;stroke-width:0.5;" width="60.6758" x="429.9399" y="89.6211"/><text fill="#000000" font-family="sans-serif" font-size="14" lengthAdjust="spacing" textLength="46.6758" x="436.9399" y="111.7285">System</text><rect fill="#E3E3E3" height="32.6211" rx="2.5" ry="2.5" style="stroke:#181818;stroke-width:0.5;" width="60.6758" x="429.9399" y="374.2793"/><text fill="#000000" font-family="sans-serif" font-size="14" lengthAdjust="spacing" textLength="46.6758" x="436.9399" y="396.3867">System</text><rect fill="#FFFFFF" height="233.0371" style="stroke:#181818;stroke-width:1.0;" width="10" x="59.0171" y="133.2422"/><rect fill="#FFFFFF" height="48.582" style="stroke:#181818;stroke-width:1.0;" width="10" x="455.2778" y="201.8242"/><rect fill="#FFFFFF" height="75.582" style="stroke:#181818;stroke-width:1.0;" width="10" x="455.2778" y="281.6973"/><rect fill="#EEEEEE" height="3" style="stroke:#EEEEEE;stroke-width:1.0;" width="713.9639" x="0" y="154.8877"/><line style="stroke:#000000;stroke-width:1.0;" x1="0" x2="713.9639" y1="154.8877" y2="154.8877"/><line style="stroke:#000000;stroke-width:1.0;" x1="0" x2="713.9639" y1="157.8877" y2="157.8877"/><rect fill="#EEEEEE" height="25.291" style="stroke:#000000;stroke-width:2.0;" width="142.6035" x="285.6802" y="143.2422"/><text fill="#000000" font-family="sans-serif" font-size="13" font-weight="bold" lengthAdjust="spacing" textLength="124.9917" x="291.6802" y="161.2705">Register a customer</text><polygon fill="#181818" points="443.2778,197.8242,453.2778,201.8242,443.2778,205.8242,447.2778,201.8242" style="stroke:#181818;stroke-width:1.0;"/><line style="stroke:#181818;stroke-width:1.0;" x1="69.0171" x2="449.2778" y1="201.8242" y2="201.8242"/><text fill="#000000" font-family="sans-serif" font-size="13" lengthAdjust="spacing" textLength="116.3208" x="76.0171" y="196.5615">Register a customer</text><polygon fill="#181818" points="80.0171,246.4063,70.0171,250.4063,80.0171,254.4063,76.0171,250.4063" style="stroke:#181818;stroke-width:1.0;"/><line style="stroke:#181818;stroke-width:1.0;" x1="74.0171" x2="459.2778" y1="250.4063" y2="250.4063"/><text fill="#000000" font-family="sans-serif" font-size="13" lengthAdjust="spacing" textLength="362.2607" x="86.0171" y="227.8525">Request Customer Information ("Name, Email, Phone Number,</text><text fill="#000000" font-family="sans-serif" font-size="13" lengthAdjust="spacing" textLength="151.2964" x="89.6289" y="245.1436">VatNumber and Address")</text><polygon fill="#181818" points="443.2778,277.6973,453.2778,281.6973,443.2778,285.6973,447.2778,281.6973" style="stroke:#181818;stroke-width:1.0;"/><line style="stroke:#181818;stroke-width:1.0;" x1="69.0171" x2="449.2778" y1="281.6973" y2="281.6973"/><text fill="#000000" font-family="sans-serif" font-size="13" lengthAdjust="spacing" textLength="172.6816" x="76.0171" y="276.4346">Provide Customer Information</text><line style="stroke:#181818;stroke-width:1.0;" x1="465.2778" x2="507.2778" y1="312.9883" y2="312.9883"/><line style="stroke:#181818;stroke-width:1.0;" x1="507.2778" x2="507.2778" y1="312.9883" y2="325.9883"/><line style="stroke:#181818;stroke-width:1.0;" x1="466.2778" x2="507.2778" y1="325.9883" y2="325.9883"/><polygon fill="#181818" points="476.2778,321.9883,466.2778,325.9883,476.2778,329.9883,472.2778,325.9883" style="stroke:#181818;stroke-width:1.0;"/><text fill="#000000" font-family="sans-serif" font-size="13" lengthAdjust="spacing" textLength="219.686" x="472.2778" y="307.7256">Create and associate a representative</text><polygon fill="#181818" points="80.0171,353.2793,70.0171,357.2793,80.0171,361.2793,76.0171,357.2793" style="stroke:#181818;stroke-width:1.0;"/><line style="stroke:#181818;stroke-width:1.0;" x1="74.0171" x2="459.2778" y1="357.2793" y2="357.2793"/><text fill="#000000" font-family="sans-serif" font-size="13" lengthAdjust="spacing" textLength="146.6689" x="86.0171" y="352.0166">Confirm Customer Added</text><!--SRC=[VP9FQyCm3CNl_XGYfmqw63qECXZP3Zkib8Rjj8jggwbfB6Uoqj5lFwV_wKflblJyz7l6QUMvGy408NAqIuc1GAKdauwJ3kqA6wfrqn88MKLksdD1MgABlvuRM62Ro1Yq6WMAQlO1LMnRd4V1t2a04rW9vpsJBTHRto4h5FKcAOMjBcsFngZNl7OtW9f-Uc9ByEgn6LO_m6Sz7ZyQKvOmeyPdbG22xPFc909bES3uDIhzssmk6l3mlDyAJzVCJau7jhqwtxkq6WmoQbAe3YZll8WIK7rak2ic66W4Rm5zEuBfCZB1f0zpaj4tmnVghW1a1o_E2QLKt1j7bmYt8ambhhsZgmJcLfYZGoKqA0O8J2bQlwto7-Wo4B5cgpNTVeOgyi9BE47aDEIk937c3m00]--></g></svg>