<?xml version="1.0" encoding="us-ascii" standalone="no"?><svg xmlns="http://www.w3.org/2000/svg" xmlns:xlink="http://www.w3.org/1999/xlink" contentStyleType="text/css" height="970px" preserveAspectRatio="none" style="width:1314px;height:970px;background:#FFFFFF;" version="1.1" viewBox="0 0 1314 970" width="1314px" zoomAndPan="magnify"><defs/><g><text fill="#000000" font-family="sans-serif" font-size="14" font-weight="bold" lengthAdjust="spacing" textLength="132" x="592.25" y="30.1074">Sequence Diagram</text><rect fill="#FFFFFF" height="735.7227" style="stroke:#181818;stroke-width:1.0;" width="10" x="44.5" y="133.2422"/><rect fill="#FFFFFF" height="406.1035" style="stroke:#181818;stroke-width:1.0;" width="10" x="234.5" y="156.5332"/><rect fill="#FFFFFF" height="275.0371" style="stroke:#181818;stroke-width:1.0;" width="10" x="234.5" y="593.9277"/><rect fill="#FFFFFF" height="281.2793" style="stroke:#181818;stroke-width:1.0;" width="10" x="388.5" y="250.0664"/><rect fill="#FFFFFF" height="212.4551" style="stroke:#181818;stroke-width:1.0;" width="10" x="388.5" y="625.2188"/><rect fill="#FFFFFF" height="156.4551" style="stroke:#181818;stroke-width:1.0;" width="10" x="869.5" y="343.5996"/><rect fill="#FFFFFF" height="135.873" style="stroke:#181818;stroke-width:1.0;" width="10" x="869.5" y="687.8008"/><rect fill="#FFFFFF" height="93.873" style="stroke:#181818;stroke-width:1.0;" width="10" x="1120" y="374.8906"/><rect fill="#FFFFFF" height="59.291" style="stroke:#181818;stroke-width:1.0;" width="10" x="1120" y="750.3828"/><rect fill="#FFFFFF" height="31.291" style="stroke:#181818;stroke-width:1.0;" width="10" x="1274" y="406.1816"/><rect fill="#FFFFFF" height="14" style="stroke:#181818;stroke-width:1.0;" width="10" x="1274" y="781.6738"/><line style="stroke:#181818;stroke-width:0.5;stroke-dasharray:5.0,5.0;" x1="49" x2="49" y1="123.2422" y2="886.9648"/><line style="stroke:#181818;stroke-width:0.5;stroke-dasharray:5.0,5.0;" x1="239" x2="239" y1="123.2422" y2="886.9648"/><line style="stroke:#181818;stroke-width:0.5;stroke-dasharray:5.0,5.0;" x1="393" x2="393" y1="205.6543" y2="886.9648"/><line style="stroke:#181818;stroke-width:0.5;stroke-dasharray:5.0,5.0;" x1="706.5" x2="706.5" y1="299.1875" y2="886.9648"/><line style="stroke:#181818;stroke-width:0.5;stroke-dasharray:5.0,5.0;" x1="874.5" x2="874.5" y1="123.2422" y2="886.9648"/><line style="stroke:#181818;stroke-width:0.5;stroke-dasharray:5.0,5.0;" x1="1014.5" x2="1014.5" y1="123.2422" y2="886.9648"/><line style="stroke:#181818;stroke-width:0.5;stroke-dasharray:5.0,5.0;" x1="1124.5" x2="1124.5" y1="123.2422" y2="886.9648"/><line style="stroke:#181818;stroke-width:0.5;stroke-dasharray:5.0,5.0;" x1="1278.5" x2="1278.5" y1="123.2422" y2="886.9648"/><text fill="#000000" font-family="sans-serif" font-size="14" lengthAdjust="spacing" textLength="83" x="5" y="119.7285">Administrator</text><ellipse cx="49.5" cy="53.1211" fill="#E2E2F0" rx="8" ry="8" style="stroke:#181818;stroke-width:0.5;"/><path d="M49.5,61.1211 L49.5,88.1211 M36.5,69.1211 L62.5,69.1211 M49.5,88.1211 L36.5,103.1211 M49.5,88.1211 L62.5,103.1211 " fill="none" style="stroke:#181818;stroke-width:0.5;"/><text fill="#000000" font-family="sans-serif" font-size="14" lengthAdjust="spacing" textLength="83" x="5" y="901.0723">Administrator</text><ellipse cx="49.5" cy="913.0859" fill="#E2E2F0" rx="8" ry="8" style="stroke:#181818;stroke-width:0.5;"/><path d="M49.5,921.0859 L49.5,948.0859 M36.5,929.0859 L62.5,929.0859 M49.5,948.0859 L36.5,963.0859 M49.5,948.0859 L62.5,963.0859 " fill="none" style="stroke:#181818;stroke-width:0.5;"/><rect fill="#E2E2F0" height="51.2422" rx="2.5" ry="2.5" style="stroke:#181818;stroke-width:0.5;" width="109" x="185" y="71"/><text fill="#000000" font-family="sans-serif" font-size="14" font-style="italic" lengthAdjust="spacing" textLength="95" x="192" y="93.1074">&#171;presentation&#187;</text><text fill="#000000" font-family="sans-serif" font-size="14" lengthAdjust="spacing" textLength="91" x="194" y="111.7285">ActivateUserUI</text><rect fill="#E2E2F0" height="51.2422" rx="2.5" ry="2.5" style="stroke:#181818;stroke-width:0.5;" width="109" x="185" y="885.9648"/><text fill="#000000" font-family="sans-serif" font-size="14" font-style="italic" lengthAdjust="spacing" textLength="95" x="192" y="908.0723">&#171;presentation&#187;</text><text fill="#000000" font-family="sans-serif" font-size="14" lengthAdjust="spacing" textLength="91" x="194" y="926.6934">ActivateUserUI</text><rect fill="#E2E2F0" height="51.2422" rx="2.5" ry="2.5" style="stroke:#181818;stroke-width:0.5;" width="155" x="316" y="885.9648"/><text fill="#000000" font-family="sans-serif" font-size="14" font-style="italic" lengthAdjust="spacing" textLength="84" x="351.5" y="908.0723">&#171;application&#187;</text><text fill="#000000" font-family="sans-serif" font-size="14" lengthAdjust="spacing" textLength="141" x="323" y="926.6934">ActivateUserController</text><rect fill="#E2E2F0" height="51.2422" rx="2.5" ry="2.5" style="stroke:#181818;stroke-width:0.5;" width="143" x="635.5" y="885.9648"/><text fill="#000000" font-family="sans-serif" font-size="14" font-style="italic" lengthAdjust="spacing" textLength="44" x="685" y="908.0723">&#171;auth&#187;</text><text fill="#000000" font-family="sans-serif" font-size="14" lengthAdjust="spacing" textLength="129" x="642.5" y="926.6934">AuthorizationService</text><rect fill="#E2E2F0" height="51.2422" rx="2.5" ry="2.5" style="stroke:#181818;stroke-width:0.5;" width="172" x="788.5" y="71"/><text fill="#000000" font-family="sans-serif" font-size="14" font-style="italic" lengthAdjust="spacing" textLength="84" x="832.5" y="93.1074">&#171;application&#187;</text><text fill="#000000" font-family="sans-serif" font-size="14" lengthAdjust="spacing" textLength="158" x="795.5" y="111.7285">UserManagementService</text><rect fill="#E2E2F0" height="51.2422" rx="2.5" ry="2.5" style="stroke:#181818;stroke-width:0.5;" width="172" x="788.5" y="885.9648"/><text fill="#000000" font-family="sans-serif" font-size="14" font-style="italic" lengthAdjust="spacing" textLength="84" x="832.5" y="908.0723">&#171;application&#187;</text><text fill="#000000" font-family="sans-serif" font-size="14" lengthAdjust="spacing" textLength="158" x="795.5" y="926.6934">UserManagementService</text><rect fill="#E2E2F0" height="51.2422" rx="2.5" ry="2.5" style="stroke:#181818;stroke-width:0.5;" width="89" x="970.5" y="71"/><text fill="#000000" font-family="sans-serif" font-size="14" font-style="italic" lengthAdjust="spacing" textLength="62" x="984" y="93.1074">&#171;domain&#187;</text><text fill="#000000" font-family="sans-serif" font-size="14" lengthAdjust="spacing" textLength="75" x="977.5" y="111.7285">SystemUser</text><rect fill="#E2E2F0" height="51.2422" rx="2.5" ry="2.5" style="stroke:#181818;stroke-width:0.5;" width="89" x="970.5" y="885.9648"/><text fill="#000000" font-family="sans-serif" font-size="14" font-style="italic" lengthAdjust="spacing" textLength="62" x="984" y="908.0723">&#171;domain&#187;</text><text fill="#000000" font-family="sans-serif" font-size="14" lengthAdjust="spacing" textLength="75" x="977.5" y="926.6934">SystemUser</text><rect fill="#E2E2F0" height="51.2422" rx="2.5" ry="2.5" style="stroke:#181818;stroke-width:0.5;" width="111" x="1069.5" y="71"/><text fill="#000000" font-family="sans-serif" font-size="14" font-style="italic" lengthAdjust="spacing" textLength="79" x="1085.5" y="93.1074">&#171;repository&#187;</text><text fill="#000000" font-family="sans-serif" font-size="14" lengthAdjust="spacing" textLength="97" x="1076.5" y="111.7285">UserRepository</text><rect fill="#E2E2F0" height="51.2422" rx="2.5" ry="2.5" style="stroke:#181818;stroke-width:0.5;" width="111" x="1069.5" y="885.9648"/><text fill="#000000" font-family="sans-serif" font-size="14" font-style="italic" lengthAdjust="spacing" textLength="79" x="1085.5" y="908.0723">&#171;repository&#187;</text><text fill="#000000" font-family="sans-serif" font-size="14" lengthAdjust="spacing" textLength="97" x="1076.5" y="926.6934">UserRepository</text><text fill="#000000" font-family="sans-serif" font-size="14" lengthAdjust="spacing" textLength="61" x="1245.5" y="119.7285">Database</text><path d="M1261,68.6211 C1261,58.6211 1279,58.6211 1279,58.6211 C1279,58.6211 1297,58.6211 1297,68.6211 L1297,94.6211 C1297,104.6211 1279,104.6211 1279,104.6211 C1279,104.6211 1261,104.6211 1261,94.6211 L1261,68.6211 " fill="#E2E2F0" style="stroke:#181818;stroke-width:1.5;"/><path d="M1261,68.6211 C1261,78.6211 1279,78.6211 1279,78.6211 C1279,78.6211 1297,78.6211 1297,68.6211 " fill="none" style="stroke:#181818;stroke-width:1.5;"/><text fill="#000000" font-family="sans-serif" font-size="14" lengthAdjust="spacing" textLength="61" x="1245.5" y="901.0723">Database</text><path d="M1261,914.5859 C1261,904.5859 1279,904.5859 1279,904.5859 C1279,904.5859 1297,904.5859 1297,914.5859 L1297,940.5859 C1297,950.5859 1279,950.5859 1279,950.5859 C1279,950.5859 1261,950.5859 1261,940.5859 L1261,914.5859 " fill="#E2E2F0" style="stroke:#181818;stroke-width:1.5;"/><path d="M1261,914.5859 C1261,924.5859 1279,924.5859 1279,924.5859 C1279,924.5859 1297,924.5859 1297,914.5859 " fill="none" style="stroke:#181818;stroke-width:1.5;"/><rect fill="#FFFFFF" height="735.7227" style="stroke:#181818;stroke-width:1.0;" width="10" x="44.5" y="133.2422"/><rect fill="#FFFFFF" height="406.1035" style="stroke:#181818;stroke-width:1.0;" width="10" x="234.5" y="156.5332"/><rect fill="#FFFFFF" height="275.0371" style="stroke:#181818;stroke-width:1.0;" width="10" x="234.5" y="593.9277"/><rect fill="#FFFFFF" height="281.2793" style="stroke:#181818;stroke-width:1.0;" width="10" x="388.5" y="250.0664"/><rect fill="#FFFFFF" height="212.4551" style="stroke:#181818;stroke-width:1.0;" width="10" x="388.5" y="625.2188"/><rect fill="#FFFFFF" height="156.4551" style="stroke:#181818;stroke-width:1.0;" width="10" x="869.5" y="343.5996"/><rect fill="#FFFFFF" height="135.873" style="stroke:#181818;stroke-width:1.0;" width="10" x="869.5" y="687.8008"/><rect fill="#FFFFFF" height="93.873" style="stroke:#181818;stroke-width:1.0;" width="10" x="1120" y="374.8906"/><rect fill="#FFFFFF" height="59.291" style="stroke:#181818;stroke-width:1.0;" width="10" x="1120" y="750.3828"/><rect fill="#FFFFFF" height="31.291" style="stroke:#181818;stroke-width:1.0;" width="10" x="1274" y="406.1816"/><rect fill="#FFFFFF" height="14" style="stroke:#181818;stroke-width:1.0;" width="10" x="1274" y="781.6738"/><polygon fill="#181818" points="222.5,152.5332,232.5,156.5332,222.5,160.5332,226.5,156.5332" style="stroke:#181818;stroke-width:1.0;"/><line style="stroke:#181818;stroke-width:1.0;" x1="54.5" x2="228.5" y1="156.5332" y2="156.5332"/><text fill="#000000" font-family="sans-serif" font-size="13" lengthAdjust="spacing" textLength="38" x="61.5" y="151.2705">show()</text><polygon fill="#181818" points="304,183.8242,314,187.8242,304,191.8242,308,187.8242" style="stroke:#181818;stroke-width:1.0;"/><line style="stroke:#181818;stroke-width:1.0;" x1="244.5" x2="310" y1="187.8242" y2="187.8242"/><text fill="#000000" font-family="sans-serif" font-size="13" lengthAdjust="spacing" textLength="44" x="251.5" y="182.5615">create()</text><rect fill="#E2E2F0" height="51.2422" rx="2.5" ry="2.5" style="stroke:#181818;stroke-width:0.5;" width="155" x="316" y="164.5332"/><text fill="#000000" font-family="sans-serif" font-size="14" font-style="italic" lengthAdjust="spacing" textLength="84" x="351.5" y="186.6406">&#171;application&#187;</text><text fill="#000000" font-family="sans-serif" font-size="14" lengthAdjust="spacing" textLength="141" x="323" y="205.2617">ActivateUserController</text><polygon fill="#181818" points="376.5,246.0664,386.5,250.0664,376.5,254.0664,380.5,250.0664" style="stroke:#181818;stroke-width:1.0;"/><line style="stroke:#181818;stroke-width:1.0;" x1="244.5" x2="382.5" y1="250.0664" y2="250.0664"/><text fill="#000000" font-family="sans-serif" font-size="13" lengthAdjust="spacing" textLength="89" x="251.5" y="244.8037">deactiveUsers()</text><polygon fill="#181818" points="623.5,277.3574,633.5,281.3574,623.5,285.3574,627.5,281.3574" style="stroke:#181818;stroke-width:1.0;"/><line style="stroke:#181818;stroke-width:1.0;" x1="398.5" x2="629.5" y1="281.3574" y2="281.3574"/><text fill="#000000" font-family="sans-serif" font-size="13" lengthAdjust="spacing" textLength="213" x="405.5" y="276.0947">ensureAuthenticatedUserHasAnyOf()</text><rect fill="#E2E2F0" height="51.2422" rx="2.5" ry="2.5" style="stroke:#181818;stroke-width:0.5;" width="143" x="635.5" y="258.0664"/><text fill="#000000" font-family="sans-serif" font-size="14" font-style="italic" lengthAdjust="spacing" textLength="44" x="685" y="280.1738">&#171;auth&#187;</text><text fill="#000000" font-family="sans-serif" font-size="14" lengthAdjust="spacing" textLength="129" x="642.5" y="298.7949">AuthorizationService</text><polygon fill="#181818" points="857.5,339.5996,867.5,343.5996,857.5,347.5996,861.5,343.5996" style="stroke:#181818;stroke-width:1.0;"/><line style="stroke:#181818;stroke-width:1.0;" x1="398.5" x2="863.5" y1="343.5996" y2="343.5996"/><text fill="#000000" font-family="sans-serif" font-size="13" lengthAdjust="spacing" textLength="107" x="405.5" y="338.3369">deactivatedUsers()</text><polygon fill="#181818" points="1108,370.8906,1118,374.8906,1108,378.8906,1112,374.8906" style="stroke:#181818;stroke-width:1.0;"/><line style="stroke:#181818;stroke-width:1.0;" x1="879.5" x2="1114" y1="374.8906" y2="374.8906"/><text fill="#000000" font-family="sans-serif" font-size="13" lengthAdjust="spacing" textLength="106" x="886.5" y="369.6279">findByActive(false)</text><polygon fill="#181818" points="1262,402.1816,1272,406.1816,1262,410.1816,1266,406.1816" style="stroke:#181818;stroke-width:1.0;"/><line style="stroke:#181818;stroke-width:1.0;" x1="1130" x2="1268" y1="406.1816" y2="406.1816"/><text fill="#000000" font-family="sans-serif" font-size="13" lengthAdjust="spacing" textLength="106" x="1137" y="400.9189">findByActive(false)</text><polygon fill="#181818" points="1141,433.4727,1131,437.4727,1141,441.4727,1137,437.4727" style="stroke:#181818;stroke-width:1.0;"/><line style="stroke:#181818;stroke-width:1.0;stroke-dasharray:2.0,2.0;" x1="1135" x2="1278" y1="437.4727" y2="437.4727"/><text fill="#000000" font-family="sans-serif" font-size="13" lengthAdjust="spacing" textLength="120" x="1147" y="432.21">List of Inactive Users</text><polygon fill="#181818" points="890.5,464.7637,880.5,468.7637,890.5,472.7637,886.5,468.7637" style="stroke:#181818;stroke-width:1.0;"/><line style="stroke:#181818;stroke-width:1.0;stroke-dasharray:2.0,2.0;" x1="884.5" x2="1124" y1="468.7637" y2="468.7637"/><text fill="#000000" font-family="sans-serif" font-size="13" lengthAdjust="spacing" textLength="120" x="896.5" y="463.501">List of Inactive Users</text><polygon fill="#181818" points="409.5,496.0547,399.5,500.0547,409.5,504.0547,405.5,500.0547" style="stroke:#181818;stroke-width:1.0;"/><line style="stroke:#181818;stroke-width:1.0;stroke-dasharray:2.0,2.0;" x1="403.5" x2="873.5" y1="500.0547" y2="500.0547"/><text fill="#000000" font-family="sans-serif" font-size="13" lengthAdjust="spacing" textLength="120" x="415.5" y="494.792">List of Inactive Users</text><polygon fill="#181818" points="255.5,527.3457,245.5,531.3457,255.5,535.3457,251.5,531.3457" style="stroke:#181818;stroke-width:1.0;"/><line style="stroke:#181818;stroke-width:1.0;stroke-dasharray:2.0,2.0;" x1="249.5" x2="392.5" y1="531.3457" y2="531.3457"/><text fill="#000000" font-family="sans-serif" font-size="13" lengthAdjust="spacing" textLength="120" x="261.5" y="526.083">List of Inactive Users</text><polygon fill="#181818" points="65.5,558.6367,55.5,562.6367,65.5,566.6367,61.5,562.6367" style="stroke:#181818;stroke-width:1.0;"/><line style="stroke:#181818;stroke-width:1.0;stroke-dasharray:2.0,2.0;" x1="59.5" x2="238.5" y1="562.6367" y2="562.6367"/><text fill="#000000" font-family="sans-serif" font-size="13" lengthAdjust="spacing" textLength="156" x="71.5" y="557.374">Show List of Inactive Users</text><polygon fill="#181818" points="222.5,589.9277,232.5,593.9277,222.5,597.9277,226.5,593.9277" style="stroke:#181818;stroke-width:1.0;"/><line style="stroke:#181818;stroke-width:1.0;" x1="54.5" x2="228.5" y1="593.9277" y2="593.9277"/><text fill="#000000" font-family="sans-serif" font-size="13" lengthAdjust="spacing" textLength="140" x="61.5" y="588.665">Choose User to Activate</text><polygon fill="#181818" points="376.5,621.2188,386.5,625.2188,376.5,629.2188,380.5,625.2188" style="stroke:#181818;stroke-width:1.0;"/><line style="stroke:#181818;stroke-width:1.0;" x1="244.5" x2="382.5" y1="625.2188" y2="625.2188"/><text fill="#000000" font-family="sans-serif" font-size="13" lengthAdjust="spacing" textLength="104" x="251.5" y="619.9561">activateUser(user)</text><polygon fill="#181818" points="695,652.5098,705,656.5098,695,660.5098,699,656.5098" style="stroke:#181818;stroke-width:1.0;"/><line style="stroke:#181818;stroke-width:1.0;" x1="398.5" x2="701" y1="656.5098" y2="656.5098"/><text fill="#000000" font-family="sans-serif" font-size="13" lengthAdjust="spacing" textLength="213" x="405.5" y="651.2471">ensureAuthenticatedUserHasAnyOf()</text><polygon fill="#181818" points="857.5,683.8008,867.5,687.8008,857.5,691.8008,861.5,687.8008" style="stroke:#181818;stroke-width:1.0;"/><line style="stroke:#181818;stroke-width:1.0;" x1="398.5" x2="863.5" y1="687.8008" y2="687.8008"/><text fill="#000000" font-family="sans-serif" font-size="13" lengthAdjust="spacing" textLength="104" x="405.5" y="682.5381">activateUser(user)</text><polygon fill="#181818" points="1003,715.0918,1013,719.0918,1003,723.0918,1007,719.0918" style="stroke:#181818;stroke-width:1.0;"/><line style="stroke:#181818;stroke-width:1.0;" x1="879.5" x2="1009" y1="719.0918" y2="719.0918"/><text fill="#000000" font-family="sans-serif" font-size="13" lengthAdjust="spacing" textLength="52" x="886.5" y="713.8291">activate()</text><polygon fill="#181818" points="1108,746.3828,1118,750.3828,1108,754.3828,1112,750.3828" style="stroke:#181818;stroke-width:1.0;"/><line style="stroke:#181818;stroke-width:1.0;" x1="879.5" x2="1114" y1="750.3828" y2="750.3828"/><text fill="#000000" font-family="sans-serif" font-size="13" lengthAdjust="spacing" textLength="59" x="886.5" y="745.1201">save(user)</text><polygon fill="#181818" points="1262,777.6738,1272,781.6738,1262,785.6738,1266,781.6738" style="stroke:#181818;stroke-width:1.0;"/><line style="stroke:#181818;stroke-width:1.0;" x1="1130" x2="1268" y1="781.6738" y2="781.6738"/><text fill="#000000" font-family="sans-serif" font-size="13" lengthAdjust="spacing" textLength="34" x="1137" y="776.4111">save()</text><polygon fill="#181818" points="1141,791.6738,1131,795.6738,1141,799.6738,1137,795.6738" style="stroke:#181818;stroke-width:1.0;"/><line style="stroke:#181818;stroke-width:1.0;stroke-dasharray:2.0,2.0;" x1="1135" x2="1278" y1="795.6738" y2="795.6738"/><polygon fill="#181818" points="890.5,805.6738,880.5,809.6738,890.5,813.6738,886.5,809.6738" style="stroke:#181818;stroke-width:1.0;"/><line style="stroke:#181818;stroke-width:1.0;stroke-dasharray:2.0,2.0;" x1="884.5" x2="1124" y1="809.6738" y2="809.6738"/><polygon fill="#181818" points="409.5,819.6738,399.5,823.6738,409.5,827.6738,405.5,823.6738" style="stroke:#181818;stroke-width:1.0;"/><line style="stroke:#181818;stroke-width:1.0;stroke-dasharray:2.0,2.0;" x1="403.5" x2="873.5" y1="823.6738" y2="823.6738"/><polygon fill="#181818" points="255.5,833.6738,245.5,837.6738,255.5,841.6738,251.5,837.6738" style="stroke:#181818;stroke-width:1.0;"/><line style="stroke:#181818;stroke-width:1.0;stroke-dasharray:2.0,2.0;" x1="249.5" x2="392.5" y1="837.6738" y2="837.6738"/><polygon fill="#181818" points="60.5,864.9648,50.5,868.9648,60.5,872.9648,56.5,868.9648" style="stroke:#181818;stroke-width:1.0;"/><line style="stroke:#181818;stroke-width:1.0;stroke-dasharray:2.0,2.0;" x1="54.5" x2="238.5" y1="868.9648" y2="868.9648"/><text fill="#000000" font-family="sans-serif" font-size="13" lengthAdjust="spacing" textLength="145" x="66.5" y="863.7021">Inform operation success</text><!--SRC=[hLR1RkCW4Btp5QESqahz0QkAb6qFQsbNbHhb0rXxt235u0NILVRhTo2nmGvsx5KvHC4mxmsycMTROOy8E_nzGbaWl0h-eNdD62-iqh0jQo65iPhJZ3LSMr68XaiBgsrXnIUtk3Uez_aAk85z3i_FZKQ3qd8hbDnincDUbBHQ7O-eVMoO4WPlcgCeqX0dUr1Q_FMBEzIVea0Fa5fmKFHuYE7eVtB9Fx2cJ6EGvCfqGhkpiLYxG8yGfXHMgfeBcQ9_nqOPGPTwxdZ38uhKtOIYIsxvBsuGLg_NVpwedNYn_BqEz6AzAJnjIA4Cp47zMJymeD75xNF6I3tQ4NHuV8GC2esqJjjlbZCeqSTxDSqGCMnaVi6DI6E2IWdcEL6QaqQtJ1guMyVIKNpdPYlFRvLB9esOLA_BiyLfKsr7k8HKEEljTIDT8rVw8686bP3bjxElULnN_6ZmuGRi9e40m9ARsmoYQY7gjXGocCrwmnxA2UwCTYSy9KxzW-eDL0Mvl5I7ts0cCOD08OcvPn-NVK4YKG933URAF-YD6UG3qedAYwlysiGJ-15kt8IkVrtNnPQGmOxCO0miJZ0VCPENWrBc4W1MGMlmrtlhnNSNE30IwdWUlHVM9_ePwT2KgSmtbsNMii1Yxf_WVtncqcl2QoPmfx9VO5Xq2iF9CoxPVurJtR6hbdBQeRxOegPZKrwqx7XZLRBKUHP8sUidTeTZHkdT6CwOSILOKpv3EkUoKhe6rQ3sFGdcL1HeWYNstIQQzRzf_W40]--></g></svg>