<?xml version="1.0" encoding="us-ascii" standalone="no"?><svg xmlns="http://www.w3.org/2000/svg" xmlns:xlink="http://www.w3.org/1999/xlink" contentStyleType="text/css" height="873px" preserveAspectRatio="none" style="width:1278px;height:873px;background:#FFFFFF;" version="1.1" viewBox="0 0 1278 873" width="1278.9px" zoomAndPan="magnify"><defs/><g><text fill="#000000" font-family="sans-serif" font-size="12.6" font-weight="bold" lengthAdjust="spacing" textLength="118.8" x="581.4" y="27.0967">Sequence Diagram</text><rect fill="#FFFFFF" height="662.1504" style="stroke:#181818;stroke-width:0.9;" width="9" x="40.05" y="119.918"/><rect fill="#FFFFFF" height="365.4932" style="stroke:#181818;stroke-width:0.9;" width="9" x="204.75" y="140.8799"/><rect fill="#FFFFFF" height="247.5334" style="stroke:#181818;stroke-width:0.9;" width="9" x="204.75" y="534.535"/><rect fill="#FFFFFF" height="253.1514" style="stroke:#181818;stroke-width:0.9;" width="9" x="347.85" y="225.0598"/><rect fill="#FFFFFF" height="191.2096" style="stroke:#181818;stroke-width:0.9;" width="9" x="347.85" y="562.6969"/><rect fill="#FFFFFF" height="140.8096" style="stroke:#181818;stroke-width:0.9;" width="9" x="780.75" y="309.2396"/><rect fill="#FFFFFF" height="122.2857" style="stroke:#181818;stroke-width:0.9;" width="9" x="780.75" y="619.0207"/><rect fill="#FFFFFF" height="84.4857" style="stroke:#181818;stroke-width:0.9;" width="9" x="1111.95" y="337.4016"/><rect fill="#FFFFFF" height="53.3619" style="stroke:#181818;stroke-width:0.9;" width="9" x="1111.95" y="675.3445"/><rect fill="#FFFFFF" height="28.1619" style="stroke:#181818;stroke-width:0.9;" width="9" x="1243.35" y="365.5635"/><rect fill="#FFFFFF" height="12.6" style="stroke:#181818;stroke-width:0.9;" width="9" x="1243.35" y="703.5064"/><line style="stroke:#181818;stroke-width:0.45;stroke-dasharray:5.0,5.0;" x1="44.1" x2="44.1" y1="110.918" y2="798.2684"/><line style="stroke:#181818;stroke-width:0.45;stroke-dasharray:5.0,5.0;" x1="209.25" x2="209.25" y1="110.918" y2="798.2684"/><line style="stroke:#181818;stroke-width:0.45;stroke-dasharray:5.0,5.0;" x1="352.35" x2="352.35" y1="185.0889" y2="798.2684"/><line style="stroke:#181818;stroke-width:0.45;stroke-dasharray:5.0,5.0;" x1="634.05" x2="634.05" y1="269.2688" y2="798.2684"/><line style="stroke:#181818;stroke-width:0.45;stroke-dasharray:5.0,5.0;" x1="785.25" x2="785.25" y1="110.918" y2="798.2684"/><line style="stroke:#181818;stroke-width:0.45;stroke-dasharray:5.0,5.0;" x1="1017" x2="1017" y1="110.918" y2="798.2684"/><line style="stroke:#181818;stroke-width:0.45;stroke-dasharray:5.0,5.0;" x1="1116" x2="1116" y1="110.918" y2="798.2684"/><line style="stroke:#181818;stroke-width:0.45;stroke-dasharray:5.0,5.0;" x1="1247.4" x2="1247.4" y1="110.918" y2="798.2684"/><text fill="#000000" font-family="sans-serif" font-size="12.6" lengthAdjust="spacing" textLength="74.7" x="4.5" y="107.7557">Administrator</text><ellipse cx="44.55" cy="47.809" fill="#E2E2F0" rx="7.2" ry="7.2" style="stroke:#181818;stroke-width:0.45;"/><path d="M44.55,55.009 L44.55,79.309 M32.85,62.209 L56.25,62.209 M44.55,79.309 L32.85,92.809 M44.55,79.309 L56.25,92.809 " fill="none" style="stroke:#181818;stroke-width:0.45;"/><text fill="#000000" font-family="sans-serif" font-size="12.6" lengthAdjust="spacing" textLength="74.7" x="4.5" y="810.965">Administrator</text><ellipse cx="44.55" cy="821.7773" fill="#E2E2F0" rx="7.2" ry="7.2" style="stroke:#181818;stroke-width:0.45;"/><path d="M44.55,828.9773 L44.55,853.2773 M32.85,836.1773 L56.25,836.1773 M44.55,853.2773 L32.85,866.7773 M44.55,853.2773 L56.25,866.7773 " fill="none" style="stroke:#181818;stroke-width:0.45;"/><rect fill="#E2E2F0" height="46.118" rx="2.25" ry="2.25" style="stroke:#181818;stroke-width:0.45;" width="109.8" x="154.35" y="63.9"/><text fill="#000000" font-family="sans-serif" font-size="12.6" font-style="italic" lengthAdjust="spacing" textLength="85.5" x="166.5" y="83.7967">&#171;presentation&#187;</text><text fill="#000000" font-family="sans-serif" font-size="12.6" lengthAdjust="spacing" textLength="97.2" x="160.65" y="100.5557">DeactivateUserUI</text><rect fill="#E2E2F0" height="46.118" rx="2.25" ry="2.25" style="stroke:#181818;stroke-width:0.45;" width="109.8" x="154.35" y="797.3684"/><text fill="#000000" font-family="sans-serif" font-size="12.6" font-style="italic" lengthAdjust="spacing" textLength="85.5" x="166.5" y="817.265">&#171;presentation&#187;</text><text fill="#000000" font-family="sans-serif" font-size="12.6" lengthAdjust="spacing" textLength="97.2" x="160.65" y="834.024">DeactivateUserUI</text><rect fill="#E2E2F0" height="46.118" rx="2.25" ry="2.25" style="stroke:#181818;stroke-width:0.45;" width="154.8" x="274.95" y="797.3684"/><text fill="#000000" font-family="sans-serif" font-size="12.6" font-style="italic" lengthAdjust="spacing" textLength="75.6" x="314.55" y="817.265">&#171;application&#187;</text><text fill="#000000" font-family="sans-serif" font-size="12.6" lengthAdjust="spacing" textLength="142.2" x="281.25" y="834.024">DeactivateUserController</text><rect fill="#E2E2F0" height="46.118" rx="2.25" ry="2.25" style="stroke:#181818;stroke-width:0.45;" width="128.7" x="570.15" y="797.3684"/><text fill="#000000" font-family="sans-serif" font-size="12.6" font-style="italic" lengthAdjust="spacing" textLength="39.6" x="614.7" y="817.265">&#171;auth&#187;</text><text fill="#000000" font-family="sans-serif" font-size="12.6" lengthAdjust="spacing" textLength="116.1" x="576.45" y="834.024">AuthorizationService</text><rect fill="#E2E2F0" height="46.118" rx="2.25" ry="2.25" style="stroke:#181818;stroke-width:0.45;" width="154.8" x="707.85" y="63.9"/><text fill="#000000" font-family="sans-serif" font-size="12.6" font-style="italic" lengthAdjust="spacing" textLength="75.6" x="747.45" y="83.7967">&#171;application&#187;</text><text fill="#000000" font-family="sans-serif" font-size="12.6" lengthAdjust="spacing" textLength="142.2" x="714.15" y="100.5557">UserManagementService</text><rect fill="#E2E2F0" height="46.118" rx="2.25" ry="2.25" style="stroke:#181818;stroke-width:0.45;" width="154.8" x="707.85" y="797.3684"/><text fill="#000000" font-family="sans-serif" font-size="12.6" font-style="italic" lengthAdjust="spacing" textLength="75.6" x="747.45" y="817.265">&#171;application&#187;</text><text fill="#000000" font-family="sans-serif" font-size="12.6" lengthAdjust="spacing" textLength="142.2" x="714.15" y="834.024">UserManagementService</text><rect fill="#E2E2F0" height="46.118" rx="2.25" ry="2.25" style="stroke:#181818;stroke-width:0.45;" width="80.1" x="977.4" y="63.9"/><text fill="#000000" font-family="sans-serif" font-size="12.6" font-style="italic" lengthAdjust="spacing" textLength="55.8" x="989.55" y="83.7967">&#171;domain&#187;</text><text fill="#000000" font-family="sans-serif" font-size="12.6" lengthAdjust="spacing" textLength="67.5" x="983.7" y="100.5557">SystemUser</text><rect fill="#E2E2F0" height="46.118" rx="2.25" ry="2.25" style="stroke:#181818;stroke-width:0.45;" width="80.1" x="977.4" y="797.3684"/><text fill="#000000" font-family="sans-serif" font-size="12.6" font-style="italic" lengthAdjust="spacing" textLength="55.8" x="989.55" y="817.265">&#171;domain&#187;</text><text fill="#000000" font-family="sans-serif" font-size="12.6" lengthAdjust="spacing" textLength="67.5" x="983.7" y="834.024">SystemUser</text><rect fill="#E2E2F0" height="46.118" rx="2.25" ry="2.25" style="stroke:#181818;stroke-width:0.45;" width="99.9" x="1066.5" y="63.9"/><text fill="#000000" font-family="sans-serif" font-size="12.6" font-style="italic" lengthAdjust="spacing" textLength="71.1" x="1080.9" y="83.7967">&#171;repository&#187;</text><text fill="#000000" font-family="sans-serif" font-size="12.6" lengthAdjust="spacing" textLength="87.3" x="1072.8" y="100.5557">UserRepository</text><rect fill="#E2E2F0" height="46.118" rx="2.25" ry="2.25" style="stroke:#181818;stroke-width:0.45;" width="99.9" x="1066.5" y="797.3684"/><text fill="#000000" font-family="sans-serif" font-size="12.6" font-style="italic" lengthAdjust="spacing" textLength="71.1" x="1080.9" y="817.265">&#171;repository&#187;</text><text fill="#000000" font-family="sans-serif" font-size="12.6" lengthAdjust="spacing" textLength="87.3" x="1072.8" y="834.024">UserRepository</text><text fill="#000000" font-family="sans-serif" font-size="12.6" lengthAdjust="spacing" textLength="54.9" x="1217.7" y="107.7557">Database</text><path d="M1231.65,61.759 C1231.65,52.759 1247.85,52.759 1247.85,52.759 C1247.85,52.759 1264.05,52.759 1264.05,61.759 L1264.05,85.159 C1264.05,94.159 1247.85,94.159 1247.85,94.159 C1247.85,94.159 1231.65,94.159 1231.65,85.159 L1231.65,61.759 " fill="#E2E2F0" style="stroke:#181818;stroke-width:1.35;"/><path d="M1231.65,61.759 C1231.65,70.759 1247.85,70.759 1247.85,70.759 C1247.85,70.759 1264.05,70.759 1264.05,61.759 " fill="none" style="stroke:#181818;stroke-width:1.35;"/><text fill="#000000" font-family="sans-serif" font-size="12.6" lengthAdjust="spacing" textLength="54.9" x="1217.7" y="810.965">Database</text><path d="M1231.65,823.1273 C1231.65,814.1273 1247.85,814.1273 1247.85,814.1273 C1247.85,814.1273 1264.05,814.1273 1264.05,823.1273 L1264.05,846.5273 C1264.05,855.5273 1247.85,855.5273 1247.85,855.5273 C1247.85,855.5273 1231.65,855.5273 1231.65,846.5273 L1231.65,823.1273 " fill="#E2E2F0" style="stroke:#181818;stroke-width:1.35;"/><path d="M1231.65,823.1273 C1231.65,832.1273 1247.85,832.1273 1247.85,832.1273 C1247.85,832.1273 1264.05,832.1273 1264.05,823.1273 " fill="none" style="stroke:#181818;stroke-width:1.35;"/><rect fill="#FFFFFF" height="662.1504" style="stroke:#181818;stroke-width:0.9;" width="9" x="40.05" y="119.918"/><rect fill="#FFFFFF" height="365.4932" style="stroke:#181818;stroke-width:0.9;" width="9" x="204.75" y="140.8799"/><rect fill="#FFFFFF" height="247.5334" style="stroke:#181818;stroke-width:0.9;" width="9" x="204.75" y="534.535"/><rect fill="#FFFFFF" height="253.1514" style="stroke:#181818;stroke-width:0.9;" width="9" x="347.85" y="225.0598"/><rect fill="#FFFFFF" height="191.2096" style="stroke:#181818;stroke-width:0.9;" width="9" x="347.85" y="562.6969"/><rect fill="#FFFFFF" height="140.8096" style="stroke:#181818;stroke-width:0.9;" width="9" x="780.75" y="309.2396"/><rect fill="#FFFFFF" height="122.2857" style="stroke:#181818;stroke-width:0.9;" width="9" x="780.75" y="619.0207"/><rect fill="#FFFFFF" height="84.4857" style="stroke:#181818;stroke-width:0.9;" width="9" x="1111.95" y="337.4016"/><rect fill="#FFFFFF" height="53.3619" style="stroke:#181818;stroke-width:0.9;" width="9" x="1111.95" y="675.3445"/><rect fill="#FFFFFF" height="28.1619" style="stroke:#181818;stroke-width:0.9;" width="9" x="1243.35" y="365.5635"/><rect fill="#FFFFFF" height="12.6" style="stroke:#181818;stroke-width:0.9;" width="9" x="1243.35" y="703.5064"/><polygon fill="#181818" points="193.95,137.2799,202.95,140.8799,193.95,144.4799,197.55,140.8799" style="stroke:#181818;stroke-width:0.9;"/><line style="stroke:#181818;stroke-width:0.9;" x1="49.05" x2="199.35" y1="140.8799" y2="140.8799"/><text fill="#000000" font-family="sans-serif" font-size="11.7" lengthAdjust="spacing" textLength="34.2" x="55.35" y="136.1435">show()</text><polygon fill="#181818" points="264.15,165.4418,273.15,169.0418,264.15,172.6418,267.75,169.0418" style="stroke:#181818;stroke-width:0.9;"/><line style="stroke:#181818;stroke-width:0.9;" x1="213.75" x2="269.55" y1="169.0418" y2="169.0418"/><text fill="#000000" font-family="sans-serif" font-size="11.7" lengthAdjust="spacing" textLength="39.6" x="220.05" y="164.3054">create()</text><rect fill="#E2E2F0" height="46.118" rx="2.25" ry="2.25" style="stroke:#181818;stroke-width:0.45;" width="154.8" x="274.95" y="148.0799"/><text fill="#000000" font-family="sans-serif" font-size="12.6" font-style="italic" lengthAdjust="spacing" textLength="75.6" x="314.55" y="167.9766">&#171;application&#187;</text><text fill="#000000" font-family="sans-serif" font-size="12.6" lengthAdjust="spacing" textLength="142.2" x="281.25" y="184.7355">DeactivateUserController</text><polygon fill="#181818" points="337.05,221.4598,346.05,225.0598,337.05,228.6598,340.65,225.0598" style="stroke:#181818;stroke-width:0.9;"/><line style="stroke:#181818;stroke-width:0.9;" x1="213.75" x2="342.45" y1="225.0598" y2="225.0598"/><text fill="#000000" font-family="sans-serif" font-size="11.7" lengthAdjust="spacing" textLength="67.5" x="220.05" y="220.3233">activeUsers()</text><polygon fill="#181818" points="559.35,249.6217,568.35,253.2217,559.35,256.8217,562.95,253.2217" style="stroke:#181818;stroke-width:0.9;"/><line style="stroke:#181818;stroke-width:0.9;" x1="356.85" x2="564.75" y1="253.2217" y2="253.2217"/><text fill="#000000" font-family="sans-serif" font-size="11.7" lengthAdjust="spacing" textLength="191.7" x="363.15" y="248.4853">ensureAuthenticatedUserHasAnyOf()</text><rect fill="#E2E2F0" height="46.118" rx="2.25" ry="2.25" style="stroke:#181818;stroke-width:0.45;" width="128.7" x="570.15" y="232.2598"/><text fill="#000000" font-family="sans-serif" font-size="12.6" font-style="italic" lengthAdjust="spacing" textLength="39.6" x="614.7" y="252.1564">&#171;auth&#187;</text><text fill="#000000" font-family="sans-serif" font-size="12.6" lengthAdjust="spacing" textLength="116.1" x="576.45" y="268.9154">AuthorizationService</text><polygon fill="#181818" points="769.95,305.6396,778.95,309.2396,769.95,312.8396,773.55,309.2396" style="stroke:#181818;stroke-width:0.9;"/><line style="stroke:#181818;stroke-width:0.9;" x1="356.85" x2="775.35" y1="309.2396" y2="309.2396"/><text fill="#000000" font-family="sans-serif" font-size="11.7" lengthAdjust="spacing" textLength="67.5" x="363.15" y="304.5032">activeUsers()</text><polygon fill="#181818" points="1101.15,333.8016,1110.15,337.4016,1101.15,341.0016,1104.75,337.4016" style="stroke:#181818;stroke-width:0.9;"/><line style="stroke:#181818;stroke-width:0.9;" x1="789.75" x2="1106.55" y1="337.4016" y2="337.4016"/><text fill="#000000" font-family="sans-serif" font-size="11.7" lengthAdjust="spacing" textLength="90.9" x="796.05" y="332.6651">findByActive(true)</text><polygon fill="#181818" points="1232.55,361.9635,1241.55,365.5635,1232.55,369.1635,1236.15,365.5635" style="stroke:#181818;stroke-width:0.9;"/><line style="stroke:#181818;stroke-width:0.9;" x1="1120.95" x2="1237.95" y1="365.5635" y2="365.5635"/><text fill="#000000" font-family="sans-serif" font-size="11.7" lengthAdjust="spacing" textLength="90.9" x="1127.25" y="360.8271">findByActive(true)</text><polygon fill="#181818" points="1130.85,390.1254,1121.85,393.7254,1130.85,397.3254,1127.25,393.7254" style="stroke:#181818;stroke-width:0.9;"/><line style="stroke:#181818;stroke-width:0.9;stroke-dasharray:2.0,2.0;" x1="1125.45" x2="1246.95" y1="393.7254" y2="393.7254"/><text fill="#000000" font-family="sans-serif" font-size="11.7" lengthAdjust="spacing" textLength="100.8" x="1136.25" y="388.989">List of Active Users</text><polygon fill="#181818" points="799.65,418.2873,790.65,421.8873,799.65,425.4873,796.05,421.8873" style="stroke:#181818;stroke-width:0.9;"/><line style="stroke:#181818;stroke-width:0.9;stroke-dasharray:2.0,2.0;" x1="794.25" x2="1115.55" y1="421.8873" y2="421.8873"/><text fill="#000000" font-family="sans-serif" font-size="11.7" lengthAdjust="spacing" textLength="100.8" x="805.05" y="417.1509">List of Active Users</text><polygon fill="#181818" points="366.75,446.4492,357.75,450.0492,366.75,453.6492,363.15,450.0492" style="stroke:#181818;stroke-width:0.9;"/><line style="stroke:#181818;stroke-width:0.9;stroke-dasharray:2.0,2.0;" x1="361.35" x2="784.35" y1="450.0492" y2="450.0492"/><text fill="#000000" font-family="sans-serif" font-size="11.7" lengthAdjust="spacing" textLength="100.8" x="372.15" y="445.3128">List of Active Users</text><polygon fill="#181818" points="223.65,474.6111,214.65,478.2111,223.65,481.8111,220.05,478.2111" style="stroke:#181818;stroke-width:0.9;"/><line style="stroke:#181818;stroke-width:0.9;stroke-dasharray:2.0,2.0;" x1="218.25" x2="351.45" y1="478.2111" y2="478.2111"/><text fill="#000000" font-family="sans-serif" font-size="11.7" lengthAdjust="spacing" textLength="100.8" x="229.05" y="473.4747">List of Active Users</text><polygon fill="#181818" points="58.95,502.773,49.95,506.373,58.95,509.973,55.35,506.373" style="stroke:#181818;stroke-width:0.9;"/><line style="stroke:#181818;stroke-width:0.9;stroke-dasharray:2.0,2.0;" x1="53.55" x2="208.35" y1="506.373" y2="506.373"/><text fill="#000000" font-family="sans-serif" font-size="11.7" lengthAdjust="spacing" textLength="133.2" x="64.35" y="501.6366">Show List of Active Users</text><polygon fill="#181818" points="193.95,530.935,202.95,534.535,193.95,538.135,197.55,534.535" style="stroke:#181818;stroke-width:0.9;"/><line style="stroke:#181818;stroke-width:0.9;" x1="49.05" x2="199.35" y1="534.535" y2="534.535"/><text fill="#000000" font-family="sans-serif" font-size="11.7" lengthAdjust="spacing" textLength="138.6" x="55.35" y="529.7985">Choose User to Deactivate</text><polygon fill="#181818" points="337.05,559.0969,346.05,562.6969,337.05,566.2969,340.65,562.6969" style="stroke:#181818;stroke-width:0.9;"/><line style="stroke:#181818;stroke-width:0.9;" x1="213.75" x2="342.45" y1="562.6969" y2="562.6969"/><text fill="#000000" font-family="sans-serif" font-size="11.7" lengthAdjust="spacing" textLength="106.2" x="220.05" y="557.9604">deactivateUser(user)</text><polygon fill="#181818" points="623.7,587.2588,632.7,590.8588,623.7,594.4588,627.3,590.8588" style="stroke:#181818;stroke-width:0.9;"/><line style="stroke:#181818;stroke-width:0.9;" x1="356.85" x2="629.1" y1="590.8588" y2="590.8588"/><text fill="#000000" font-family="sans-serif" font-size="11.7" lengthAdjust="spacing" textLength="191.7" x="363.15" y="586.1224">ensureAuthenticatedUserHasAnyOf()</text><polygon fill="#181818" points="769.95,615.4207,778.95,619.0207,769.95,622.6207,773.55,619.0207" style="stroke:#181818;stroke-width:0.9;"/><line style="stroke:#181818;stroke-width:0.9;" x1="356.85" x2="775.35" y1="619.0207" y2="619.0207"/><text fill="#000000" font-family="sans-serif" font-size="11.7" lengthAdjust="spacing" textLength="106.2" x="363.15" y="614.2843">deactivateUser(user)</text><polygon fill="#181818" points="1006.65,643.5826,1015.65,647.1826,1006.65,650.7826,1010.25,647.1826" style="stroke:#181818;stroke-width:0.9;"/><line style="stroke:#181818;stroke-width:0.9;" x1="789.75" x2="1012.05" y1="647.1826" y2="647.1826"/><text fill="#000000" font-family="sans-serif" font-size="11.7" lengthAdjust="spacing" textLength="206.1" x="796.05" y="642.4462">deactivate(CurrentTimeCalendars.now())</text><polygon fill="#181818" points="1101.15,671.7445,1110.15,675.3445,1101.15,678.9445,1104.75,675.3445" style="stroke:#181818;stroke-width:0.9;"/><line style="stroke:#181818;stroke-width:0.9;" x1="789.75" x2="1106.55" y1="675.3445" y2="675.3445"/><text fill="#000000" font-family="sans-serif" font-size="11.7" lengthAdjust="spacing" textLength="53.1" x="796.05" y="670.6081">save(user)</text><polygon fill="#181818" points="1232.55,699.9064,1241.55,703.5064,1232.55,707.1064,1236.15,703.5064" style="stroke:#181818;stroke-width:0.9;"/><line style="stroke:#181818;stroke-width:0.9;" x1="1120.95" x2="1237.95" y1="703.5064" y2="703.5064"/><text fill="#000000" font-family="sans-serif" font-size="11.7" lengthAdjust="spacing" textLength="30.6" x="1127.25" y="698.77">save()</text><polygon fill="#181818" points="1130.85,712.5064,1121.85,716.1064,1130.85,719.7064,1127.25,716.1064" style="stroke:#181818;stroke-width:0.9;"/><line style="stroke:#181818;stroke-width:0.9;stroke-dasharray:2.0,2.0;" x1="1125.45" x2="1246.95" y1="716.1064" y2="716.1064"/><polygon fill="#181818" points="799.65,725.1064,790.65,728.7064,799.65,732.3064,796.05,728.7064" style="stroke:#181818;stroke-width:0.9;"/><line style="stroke:#181818;stroke-width:0.9;stroke-dasharray:2.0,2.0;" x1="794.25" x2="1115.55" y1="728.7064" y2="728.7064"/><polygon fill="#181818" points="366.75,737.7064,357.75,741.3064,366.75,744.9064,363.15,741.3064" style="stroke:#181818;stroke-width:0.9;"/><line style="stroke:#181818;stroke-width:0.9;stroke-dasharray:2.0,2.0;" x1="361.35" x2="784.35" y1="741.3064" y2="741.3064"/><polygon fill="#181818" points="223.65,750.3064,214.65,753.9064,223.65,757.5064,220.05,753.9064" style="stroke:#181818;stroke-width:0.9;"/><line style="stroke:#181818;stroke-width:0.9;stroke-dasharray:2.0,2.0;" x1="218.25" x2="351.45" y1="753.9064" y2="753.9064"/><polygon fill="#181818" points="54.45,778.4684,45.45,782.0684,54.45,785.6684,50.85,782.0684" style="stroke:#181818;stroke-width:0.9;"/><line style="stroke:#181818;stroke-width:0.9;stroke-dasharray:2.0,2.0;" x1="49.05" x2="208.35" y1="782.0684" y2="782.0684"/><text fill="#000000" font-family="sans-serif" font-size="11.7" lengthAdjust="spacing" textLength="130.5" x="59.85" y="777.3319">Inform operation success</text><!--SRC=[hLRRRjim37tNLn1zIWjq7s0K0RBqeG4s35YM3z1ifX4GIvuaTyY-VfGIHx8jtu3geQXCyXnI58zYXJqZxF5FZJ97U1NyNVEICPvRfM5Jb48AOpMd7QkujY8N5PSM7bwHNCG7jtWmg0-x1-063ZjuUQaq6fIMMw7aUZqMjLNIQdK-e_RHOKielAhE8a-2R6fxKbhyyyOzwW-HemT86HmKVUvYEFhlNF9tB2dN62Hf6KzeVp4MInVe4SAMmWfLSY5Jz3-nKaRGmLxklE4JHUhxXg8BRlblRf2EyFQV3seslc7-N3izOwqjFA-fHncOa_gxUcH0wnvts356_IEFq8Ud9yWWrqXsSk-PiskqxwNfuWKtvWrkHHqce5IxF2DAKsjqPkg0EtCi7CKRDnjv-N5qgQGHaxrBPTciK7qgahLytKfVZXjpw5u6Ho6BhvUD9rvPNUDZ3wl77-9Pqhb98BebnDnSWGpcalR8mos2YTLumdEYvczqpK0TuPg0DvjHn0BxASmjVBZRizE8wBl7FxVndN6OfEvGZjou-6BVfdOGFKADfywDgnkpM04osDFifw7Yv7O3oh4zAMMk0M0L13s_dLaBuNvu7TsW4IzQ3y6gfZy3anbLr6rAxyEqlYnJbmKgCwUc6OepMUAe2eMN9yvcjQsr9iTVeiGjFwCik3PVf7i27jaoWiuKqal2IMgkbNwEm4seN4CvhcoVB6tZiIaLMrRUq9rQgbeBMjcQHpR1CUDXxCdLaEmbM5CwHNtUoQFI9QWAjPzWC7MUemc2sjQhQDV-2VGV]--></g></svg>